<?xml version="1.0" encoding="UTF-8"?>
<svg width="77px" height="30px" viewBox="0 0 77 30" version="1.1" xmlns="http://www.w3.org/2000/svg" xmlns:xlink="http://www.w3.org/1999/xlink">
    <!-- Generator: sketchtool 48.2 (47327) - http://www.bohemiancoding.com/sketch -->
    <title>9BA70031-5D77-4833-8C0E-DE6D86C1EDF3</title>
    <desc>Created with sketchtool.</desc>
    <defs>
        <polygon id="path-1" points="0.000229216904 0.398735368 12.0822522 0.398735368 12.0822522 18.0602007 0.000229216904 18.0602007"></polygon>
        <polygon id="path-3" points="0.369791176 0.254818144 12.6086471 0.254818144 12.6086471 17.0745088 0.369791176 17.0745088"></polygon>
        <polygon id="path-5" points="0.417625903 0.207477305 7.67975247 0.207477305 7.67975247 10.9317427 0.417625903 10.9317427"></polygon>
    </defs>
    <g id="1-MAIN" stroke="none" stroke-width="1" fill="none" fill-rule="evenodd" transform="translate(-1309.000000, -4062.000000)">
        <g id="footer" transform="translate(0.000000, 3518.000000)">
            <g id="logo-copy" transform="translate(1293.000000, 530.000000)">
                <g id="logo-height-variation" transform="translate(16.000000, 14.000000)">
                    <g id="Group-3" transform="translate(0.000000, 11.287625)">
                        <mask id="mask-2" fill="white">
                            <use xlink:href="#path-1"></use>
                        </mask>
                        <g id="Clip-2"></g>
                        <path d="M7.40737347,4.20435828 C7.02343516,3.82565844 6.57474307,3.63659072 6.06244329,3.63659072 C5.55014351,3.63659072 5.09457491,3.79800376 4.69631054,4.12026547 C4.29747313,4.44252717 4.09862746,4.82799958 4.09862746,5.27611831 C4.09862746,6.06173704 4.52554395,6.60862249 5.37937692,6.91677467 C6.23320988,7.22549122 7.05839074,7.56129808 7.85549252,7.92588838 C8.85201301,8.37457149 9.80498229,8.89944607 10.7161195,9.50276965 C11.6266836,10.1055288 12.0822522,11.233727 12.0822522,12.8873641 C12.0822522,14.2051944 11.5023335,15.4039402 10.3442151,16.4824728 C9.18552361,17.5621342 7.77240139,18.0870088 6.10484842,18.0593541 C4.12556045,18.0593541 2.61444801,17.4430497 1.56864588,16.2093123 C0.522270716,14.9761392 0.000229216904,13.7282922 0.000229216904,12.4669001 L3.62873281,12.4669001 C3.62873281,12.999676 3.83732019,13.5256793 4.25334887,14.0437814 C4.6699506,14.5630121 5.2802406,14.8214987 6.0842189,14.8214987 C6.85954507,14.8214987 7.44805948,14.5765573 7.85033514,14.0861099 C8.25203777,13.5956626 8.4531756,13.2096258 8.4531756,12.9291283 C8.4531756,12.4245715 8.31048808,11.9978992 8.02683216,11.6474185 C7.74145711,11.2963733 7.24348339,10.9814486 6.53233794,10.7009511 C5.36505086,10.1958298 4.0625258,9.63596363 2.62590885,9.01853052 C1.18814582,8.40222617 0.469550828,7.18316263 0.469550828,5.3607755 C0.469550828,4.07172868 1.02482878,2.92208403 2.13595772,1.91240594 C3.24765971,0.903292224 4.55591519,0.398735368 6.06244329,0.398735368 C7.74145711,0.398735368 9.0863873,0.917966137 10.0972338,1.95473453 C11.1075073,2.99206731 11.6553358,4.12703804 11.740719,5.3607755 L7.98385399,5.3607755 C7.98385399,4.96853052 7.79131179,4.58249373 7.40737347,4.20435828" id="Fill-1" fill="#FFFFFF" mask="url(#mask-2)"></path>
                    </g>
                    <polygon id="Fill-4" fill="#FFFFFF" points="14.3853367 11.8520067 18.0573375 11.8520067 18.0573375 18.1534499 25.0992526 18.1534499 25.0992526 11.8520067 28.7706735 11.8520067 28.7706735 28.2190635 25.0992526 28.2190635 25.0992526 21.3041715 18.0573375 21.3041715 18.0573375 28.2190635 14.3853367 28.2190635"></polygon>
                    <path d="M38.4534048,15.7391964 L36.0508565,21.3041715 L40.8559531,21.3041715 L38.4534048,15.7391964 Z M36.5749849,11.8520067 L40.3312385,11.8520067 L47.5822677,28.2190635 L43.8693983,28.2190635 L42.2096584,24.4543439 L34.6531807,24.4543439 L33.036825,28.2190635 L29.3239557,28.2190635 L36.5749849,11.8520067 Z" id="Fill-6" fill="#FFFFFF"></path>
                    <path d="M52.9428036,15.002834 L52.9428036,18.7671308 L56.65518,18.7671308 C57.1559681,18.7671308 57.641563,18.6309263 58.1131336,18.3579681 C58.5841198,18.0855591 58.8207816,17.6077449 58.8207816,16.9256241 C58.8207816,16.2165918 58.5841198,15.719006 58.1131336,15.4323175 C57.641563,15.1461783 57.1559681,15.002834 56.65518,15.002834 L52.9428036,15.002834 Z M60.8554887,13.2634807 C61.965754,14.2048295 62.5208866,15.4262762 62.5208866,16.9256241 C62.5208866,18.399159 61.9622479,19.5997357 60.8443861,20.526805 C59.7271086,21.4544235 58.5005577,21.9179581 57.165902,21.9179581 L52.9428036,21.9179581 L52.9428036,28.2190635 L49.2421142,28.2190635 L49.2421142,11.8520067 L57.2003787,11.8520067 C58.5274378,11.8520067 59.7458078,12.3226811 60.8554887,13.2634807 Z" id="Fill-8" fill="#FFFFFF"></path>
                    <g id="Group-12" transform="translate(63.627451, 11.852007)">
                        <mask id="mask-4" fill="white">
                            <use xlink:href="#path-3"></use>
                        </mask>
                        <g id="Clip-11"></g>
                        <polygon id="Fill-10" fill="#FFFFFF" mask="url(#mask-4)" points="0.369791176 0.254818144 4.03299706 0.254818144 4.03299706 13.8366534 12.6088206 13.8366534 12.6088206 17.0745088 0.369791176 17.0745088"></polygon>
                    </g>
                    <g id="Group-15" transform="translate(8.852515, 0.000000)">
                        <mask id="mask-6" fill="white">
                            <use xlink:href="#path-5"></use>
                        </mask>
                        <g id="Clip-14"></g>
                        <path d="M0.417625903,10.6479396 L0.442651282,7.55943024 L0.632724992,7.56695533 C0.865103508,8.35225155 1.14157436,8.97199594 1.46213754,9.42457597 C2.06453416,10.2598602 2.82184979,10.6780399 3.73348858,10.6780399 C4.36925237,10.6780399 4.89418948,10.4856128 5.30889576,10.1018335 C5.72300619,9.71859173 5.93035933,9.23214883 5.93035933,8.64357979 C5.93035933,8.38933946 5.88507531,8.12972408 5.79391143,7.86580865 C5.70274755,7.60189322 5.57940818,7.37452819 5.42508502,7.18532609 C5.26420758,6.99074892 5.03957501,6.80423435 4.74939979,6.62470736 C4.45922457,6.44518036 4.01532201,6.21835284 3.41888382,5.94368729 C2.89335087,5.70449713 2.49115728,5.50293239 2.21230306,5.33791806 C1.932853,5.17344123 1.70822043,5.00681438 1.53661784,4.83696249 C1.06113564,4.36825729 0.823990386,3.79742594 0.823990386,3.12446847 C0.823990386,2.71058887 0.916345951,2.31175944 1.10105708,1.92744267 C1.28636405,1.54420091 1.54495963,1.21470975 1.87684382,0.940581701 C2.46255685,0.451988772 3.15611735,0.207423555 3.95752531,0.207423555 C4.21731257,0.207423555 4.45743704,0.231611323 4.67849455,0.278911849 C4.89955206,0.326212375 5.19568571,0.419738414 5.56570381,0.558952461 C5.84217466,0.658928571 6.029865,0.722354276 6.12937067,0.749767081 C6.22887635,0.777717391 6.31706101,0.791155041 6.39511636,0.791155041 C6.58816928,0.791155041 6.71806292,0.663766125 6.78479726,0.4095258 L6.97487097,0.4095258 L7.03326352,3.37870879 L6.84259397,3.37870879 C6.69363338,2.90516603 6.56493143,2.5423495 6.45767981,2.2902592 C6.35042819,2.0387064 6.22172624,1.80596632 6.07276565,1.59096393 C5.80284907,1.20234711 5.50433205,0.914781414 5.17900212,0.727729336 C4.8536722,0.540139752 4.47829152,0.446613712 4.05345592,0.446613712 C3.43556741,0.446613712 2.94757252,0.636890827 2.58887543,1.01583254 C2.43991484,1.17063426 2.3225339,1.35284878 2.2367326,1.56247611 C2.15152714,1.77210344 2.10862649,1.98173077 2.10862649,2.1913581 C2.10862649,3.02449236 2.70208547,3.69583731 3.88840759,4.20539298 L5.05566276,4.71441113 C5.95478886,5.0987279 6.60366118,5.52282011 7.00108803,5.98668777 C7.45392822,6.50591854 7.67975247,7.11007525 7.67975247,7.7986204 C7.67975247,8.25603798 7.57786343,8.69356785 7.37289366,9.11174749 C7.08569765,9.69386646 6.65430778,10.1426839 6.07991576,10.4582 C5.50492789,10.773716 4.82805098,10.9317427 4.04868919,10.9317427 C3.33546589,10.9317427 2.65024719,10.8048913 1.99303308,10.550651 C1.64982788,10.415737 1.44545396,10.3388736 1.37931546,10.3189859 C1.31258111,10.2990982 1.23810082,10.2888856 1.15527873,10.2888856 C0.890128887,10.2888856 0.707801128,10.4087494 0.608295455,10.6479396 L0.417625903,10.6479396 Z" id="Fill-13" fill="#FFFFFF" mask="url(#mask-6)"></path>
                    </g>
                    <path d="M21.742325,5.55279018 L27.5079608,5.55279018 L27.5079608,3.0312017 C27.5079608,2.49199055 27.4770255,2.09393416 27.415155,1.83703251 C27.3527007,1.58069548 27.2377149,1.36839873 27.0696137,1.20070689 C26.9184394,1.04882438 26.7462525,0.938723671 26.5542203,0.870969391 C26.3621881,0.802650491 26.1082853,0.760868685 25.7948467,0.745059353 L25.7948467,0.564381271 L30.9838022,0.564381271 L30.9838022,0.745059353 C30.6756168,0.760868685 30.4252161,0.802650491 30.2326002,0.870969391 C30.040568,0.938723671 29.8689648,1.04882438 29.7172068,1.20070689 C29.5491056,1.36839873 29.4341198,1.58182472 29.3722492,1.84098484 C29.309795,2.10014497 29.2788597,2.49707213 29.2788597,3.0312017 L29.2788597,8.82080498 C29.2788597,9.35493456 29.309795,9.75073249 29.3722492,10.0076341 C29.4341198,10.2639712 29.5491056,10.4785264 29.7172068,10.6512998 C29.8689648,10.7981007 30.040568,10.9065076 30.2326002,10.977085 C30.4252161,11.0476623 30.6756168,11.0917026 30.9838022,11.1069473 L30.9838022,11.2876254 L25.7948467,11.2876254 L25.7948467,11.1069473 C26.1082853,11.0917026 26.3621881,11.0476623 26.5542203,10.977085 C26.7462525,10.9065076 26.9184394,10.7981007 27.0696137,10.6512998 C27.2377149,10.483608 27.3527007,10.2713112 27.415155,10.0149742 C27.4770255,9.75863715 27.5079608,9.36058075 27.5079608,8.82080498 L27.5079608,5.92205101 L21.742325,5.92205101 L21.742325,8.82080498 C21.742325,9.35493456 21.7732603,9.75186172 21.8357145,10.0110218 C21.8981688,10.270182 22.0125709,10.483608 22.1806721,10.6512998 C22.3265932,10.7981007 22.4964454,10.9065076 22.6884776,10.977085 C22.8805098,11.0476623 23.1338289,11.0917026 23.4478512,11.1069473 L23.4478512,11.2876254 L18.258312,11.2876254 L18.258312,11.1069473 C18.5723343,11.0917026 18.8250697,11.0476623 19.0176856,10.977085 C19.2097178,10.9065076 19.3789863,10.7981007 19.5254911,10.6512998 C19.6982618,10.483608 19.8149987,10.2713112 19.8745345,10.0149742 C19.9340703,9.75863715 19.9638382,9.36058075 19.9638382,8.82080498 L19.9638382,3.0312017 C19.9638382,2.49199055 19.9340703,2.09393416 19.8745345,1.83703251 C19.8149987,1.58069548 19.6982618,1.36839873 19.5254911,1.20070689 C19.3789863,1.04882438 19.2085504,0.938723671 19.0135998,0.870969391 C18.8186492,0.802650491 18.5670811,0.760868685 18.258312,0.745059353 L18.258312,0.564381271 L23.4478512,0.564381271 L23.4478512,0.745059353 C23.1390821,0.760868685 22.8886814,0.802650491 22.6966492,0.870969391 C22.5040333,0.938723671 22.3324301,1.04882438 22.1806721,1.20070689 C22.0125709,1.36839873 21.8981688,1.58182472 21.8357145,1.84098484 C21.7732603,2.10014497 21.742325,2.49707213 21.742325,3.0312017 L21.742325,5.55279018 Z" id="Fill-16" fill="#FFFFFF"></path>
                    <path d="M38.4770633,6.652668 L36.7273982,2.58345883 L35.0777311,6.652668 L38.4770633,6.652668 Z M43.7092924,11.2876254 L38.235152,11.2876254 L38.235152,11.1069473 C38.7297528,11.0646009 39.0740572,10.9866835 39.268664,10.8715012 C39.6129684,10.6665445 39.7848212,10.384235 39.7848212,10.0228788 C39.7848212,9.80832362 39.7069784,9.51980331 39.551293,9.15844715 L39.4099785,8.82870965 L38.6105935,6.97450084 L34.9447997,6.97450084 L34.5112755,8.05856933 L34.3028965,8.54640015 C34.053201,9.12231153 33.9280538,9.57513598 33.9280538,9.90487347 C33.9280538,10.0991024 33.9735619,10.2797805 34.0651768,10.4474723 C34.1573905,10.6151642 34.2807413,10.7506727 34.435828,10.8551273 C34.65259,10.9968466 34.9304287,11.0809749 35.269344,11.1069473 L35.269344,11.2876254 L31.5370844,11.2876254 L31.5370844,11.1069473 C31.8310904,11.091138 32.0897678,11.0228191 32.311919,10.9025553 C32.5340701,10.7817268 32.7508322,10.5886271 32.9616064,10.3215623 C33.1394471,10.1064425 33.3124975,9.83034377 33.4825539,9.49213698 C33.6514127,9.15505944 33.8747615,8.64803157 34.153199,7.97274724 L37.2022389,0.564381271 L37.6770795,0.564381271 L41.3009581,8.82080498 C41.5734076,9.44414437 41.7901697,9.88906414 41.9512443,10.1561289 C42.1123188,10.4237583 42.2871656,10.6253273 42.4757845,10.7608359 C42.6093147,10.8551273 42.7620063,10.9273985 42.9344578,10.977085 C43.1063106,11.0273361 43.364988,11.0702471 43.7092924,11.1069473 L43.7092924,11.2876254 Z" id="Fill-18" fill="#FFFFFF"></path>
                    <path d="M47.6685731,5.74900461 L48.4468915,5.74900461 C48.9707157,5.74900461 49.3741402,5.71174171 49.657165,5.63552216 C49.9401899,5.55930261 50.1935428,5.41928447 50.4155118,5.21546774 C50.9347711,4.749117 51.1938302,4.12863338 51.1938302,3.3534523 C51.1938302,2.92379986 51.118509,2.52971655 50.9672962,2.17120235 C50.8172245,1.81212357 50.6009616,1.52079551 50.3202192,1.2949598 C49.9978219,1.02847366 49.6137983,0.870953249 49.1692895,0.823527749 C49.0477486,0.813365142 48.7698593,0.808283839 48.3356216,0.808283839 L47.6685731,0.808283839 L47.6685731,5.74900461 Z M47.6685731,6.00024683 L47.6685731,8.82037028 C47.6685731,9.35503632 47.6993863,9.75194258 47.7598715,10.0110891 C47.8209272,10.2702355 47.9333383,10.4836503 48.0976753,10.6513333 C48.240329,10.7975619 48.4058072,10.9065277 48.5935394,10.9771013 C48.7812716,11.047675 49.0289184,11.0911483 49.335909,11.1063923 L49.335909,11.2876254 L44.2625746,11.2876254 L44.2625746,11.1063923 C44.5695653,11.0911483 44.817212,11.047675 45.0049442,10.9771013 C45.1926764,10.9065277 45.3581546,10.7975619 45.5013789,10.6513333 C45.6708514,10.4836503 45.7844037,10.2713647 45.8426064,10.0150412 C45.9008091,9.75871765 45.9299105,9.36011762 45.9299105,8.82037028 L45.9299105,3.03163641 C45.9299105,2.58109417 45.9105096,2.23387176 45.8705665,1.99053379 C45.8306235,1.74663122 45.763291,1.54958956 45.6679984,1.39715046 C45.5304802,1.18768783 45.3553016,1.03242578 45.1441742,0.930235123 C44.9324761,0.827479874 44.6574399,0.766504232 44.3184948,0.745614429 L44.2625746,0.745614429 L44.2625746,0.564381271 L49.0500311,0.564381271 C49.8865521,0.564381271 50.5033865,0.606725467 50.8999636,0.69028468 C51.2971114,0.773843893 51.6594517,0.941526908 51.9875551,1.19333373 C52.7396251,1.75905218 53.1150895,2.51277887 53.1150895,3.45564296 C53.1150895,4.41375096 52.733919,5.11553544 51.9721485,5.56043179 C51.5750007,5.7913488 51.093402,5.92967317 50.5267817,5.97709867 C50.3464675,5.99290717 49.913371,6.00024683 49.2252098,6.00024683 L47.6685731,6.00024683 Z" id="Fill-20" fill="#FFFFFF"></path>
                    <path d="M54.2216539,11.2876254 L54.2216539,11.0990427 C54.7773081,11.0990427 55.2060573,10.9494186 55.5090876,10.6512998 C55.6792826,10.483608 55.7961064,10.270182 55.8595589,10.0110218 C55.9224184,9.75186172 55.9544412,9.35493456 55.9544412,8.82080498 L55.9544412,3.0312017 C55.9544412,2.47618122 55.9200463,2.06626782 55.8512567,1.80146151 C55.7824671,1.5366552 55.654376,1.32153536 55.4681696,1.15384351 C55.3133929,1.01777033 55.1420118,0.917832768 54.9516543,0.85459544 C54.7618898,0.79192273 54.518754,0.755787114 54.2216539,0.745059353 L54.2216539,0.564381271 L59.4941425,0.564381271 L59.4941425,0.745059353 C59.1917053,0.760304066 58.9438254,0.799827396 58.7516888,0.862500106 C58.5583662,0.925172815 58.3881711,1.02511038 58.2399176,1.16118356 C58.0531182,1.33395698 57.9262131,1.55189991 57.8603886,1.81331851 C57.793971,2.07530173 57.7613552,2.48069817 57.7613552,3.0312017 L57.7613552,7.56396308 C57.7613552,8.26070293 57.7809247,8.77902318 57.8188776,9.11948844 C57.8574235,9.4599537 57.9321433,9.73774625 58.0418509,9.95230147 C58.2345805,10.329467 58.5204133,10.6055657 58.9005354,10.7811622 C59.2794714,10.9561941 59.7829404,11.04371 60.4103493,11.04371 C61.0644439,11.04371 61.6159471,10.9618403 62.0642657,10.7969715 C62.5125844,10.6315381 62.8802532,10.3763303 63.166086,10.0302189 C63.3582226,9.79477277 63.5165573,9.5282726 63.6404973,9.22902453 C63.7638442,8.93090569 63.878296,8.53793086 63.9826664,8.05122928 L64.1807332,8.06647399 L64.0733976,11.2876254 L54.2216539,11.2876254 Z" id="Fill-22" fill="#FFFFFF"></path>
                </g>
            </g>
        </g>
    </g>
</svg>