<?xml version="1.0" encoding="UTF-8"?>
<svg width="89px" height="35px" viewBox="0 0 89 35" version="1.1" xmlns="http://www.w3.org/2000/svg" xmlns:xlink="http://www.w3.org/1999/xlink">
    <!-- Generator: sketchtool 48.2 (47327) - http://www.bohemiancoding.com/sketch -->
    <title>6E8D6945-C693-4B53-87FF-F24998C16CF4</title>
    <desc>Created with sketchtool.</desc>
    <defs>
        <polygon id="path-1" points="0.000264939019 0.463047524 13.9652006 0.463047524 13.9652006 20.9731363 0.000264939019 20.9731363"></polygon>
        <polygon id="path-3" points="0.42742097 0.295917844 14.573631 0.295917844 14.573631 19.8284618 0.42742097 19.8284618"></polygon>
        <polygon id="path-5" points="0.48271046 0.240941387 8.87659701 0.240941387 8.87659701 12.694927 0.48271046 12.694927"></polygon>
    </defs>
    <g id="1-MAIN" stroke="none" stroke-width="1" fill="none" fill-rule="evenodd" transform="translate(-676.000000, -285.000000)">
        <g id="GNB" transform="translate(0.000000, -2.000000)">
            <g id="logo" transform="translate(658.000000, 271.000000)">
                <g id="logo-height-variation" transform="translate(18.000000, 16.000000)">
                    <g id="Group-3" transform="translate(0.000000, 13.108210)">
                        <mask id="mask-2" fill="white">
                            <use xlink:href="#path-1"></use>
                        </mask>
                        <g id="Clip-2"></g>
                        <path d="M8.56176934,4.88248058 C8.11799648,4.44270013 7.59937835,4.22313761 7.00723965,4.22313761 C6.41510094,4.22313761 5.88853464,4.41058501 5.42820309,4.78482441 C4.9672092,5.15906381 4.7373746,5.60670919 4.7373746,6.12710514 C4.7373746,7.03943656 5.23082352,7.67452935 6.21772137,8.03238348 C7.20461922,8.39089303 8.15839968,8.78086228 9.07972512,9.20425747 C10.2315475,9.72530883 11.3330315,10.3348406 12.3861641,11.0354744 C13.4386343,11.7354529 13.9652006,13.0456185 13.9652006,14.9659712 C13.9652006,16.4963548 13.2949049,17.8884467 11.9563005,19.1409362 C10.6170338,20.3947365 8.98368473,21.0042683 7.05625336,20.9721531 C4.76850494,20.9721531 3.02189445,20.2564449 1.81311018,18.8237175 C0.603663555,17.3916455 0.000264939019,15.9425329 0.000264939019,14.4776904 L4.19424961,14.4776904 C4.19424961,15.0963979 4.43534412,15.7072405 4.91620844,16.3089074 C5.39773511,16.911885 6.10313524,17.2120631 7.03240885,17.2120631 C7.92856509,17.2120631 8.60879602,16.9276149 9.073764,16.3580632 C9.53806963,15.7885114 9.77055362,15.3402106 9.77055362,15.0144716 C9.77055362,14.4285346 9.60562908,13.9330443 9.27776704,13.5260344 C8.94791796,13.118369 8.37233794,12.75265 7.55036464,12.4269109 C6.20116268,11.8403185 4.6956467,11.1901513 3.0351414,10.4731322 C1.37331141,9.75742394 0.542727581,8.34173724 0.542727581,6.22541671 C0.542727581,4.72845911 1.18454235,3.39338791 2.46883425,2.22085851 C3.75378849,1.04898452 5.26592794,0.463047524 7.00723965,0.463047524 C8.94791796,0.463047524 10.5024477,1.06602519 11.6708287,2.27001429 C12.8385475,3.47465881 13.4717517,4.79268934 13.5704415,6.22541671 L9.22809097,6.22541671 C9.22809097,5.76990641 9.0055422,5.32160562 8.56176934,4.88248058" id="Fill-1" fill="#231916" mask="url(#mask-2)"></path>
                    </g>
                    <polygon id="Fill-4" fill="#231916" points="16.6272074 13.7636207 20.871468 13.7636207 20.871468 21.0814257 29.0108244 21.0814257 29.0108244 13.7636207 33.2544148 13.7636207 33.2544148 32.7705254 29.0108244 32.7705254 29.0108244 24.7403282 20.871468 24.7403282 20.871468 32.7705254 16.6272074 32.7705254"></polygon>
                    <path d="M44.4461432,18.2777765 L41.6691718,24.7403282 L47.2231147,24.7403282 L44.4461432,18.2777765 Z M42.2749825,13.7636207 L46.6166263,13.7636207 L54.997686,32.7705254 L50.7061877,32.7705254 L48.787787,28.3985929 L40.0536764,28.3985929 L38.1854211,32.7705254 L33.8939228,32.7705254 L42.2749825,13.7636207 Z" id="Fill-6" fill="#231916"></path>
                    <path d="M61.1936302,17.422646 L61.1936302,21.7940874 L65.4845587,21.7940874 C66.0633917,21.7940874 66.6246638,21.6359144 67.1697258,21.3189307 C67.7141125,21.0025848 67.9876566,20.4477038 67.9876566,19.6555634 C67.9876566,18.8321711 67.7141125,18.2543296 67.1697258,17.921401 C66.6246638,17.5891102 66.0633917,17.422646 65.4845587,17.422646 L61.1936302,17.422646 Z M70.339461,15.4027517 C71.6227546,16.495931 72.2644014,17.9143853 72.2644014,19.6555634 C72.2644014,21.3667652 71.6187021,22.7609833 70.3266281,23.8375799 C69.0352295,24.9148143 67.6175277,25.4531126 66.0748738,25.4531126 L61.1936302,25.4531126 L61.1936302,32.7705254 L56.91621,32.7705254 L56.91621,13.7636207 L66.1147234,13.7636207 C67.648597,13.7636207 69.0568428,14.3102103 70.339461,15.4027517 Z" id="Fill-8" fill="#231916"></path>
                    <g id="Group-12" transform="translate(73.543417, 13.763621)">
                        <mask id="mask-4" fill="white">
                            <use xlink:href="#path-3"></use>
                        </mask>
                        <g id="Clip-11"></g>
                        <polygon id="Fill-10" fill="#231916" mask="url(#mask-4)" points="0.42742097 0.295917844 4.66151608 0.295917844 4.66151608 16.0683717 14.5738316 16.0683717 14.5738316 19.8284618 0.42742097 19.8284618"></polygon>
                    </g>
                    <g id="Group-15" transform="translate(10.232128, 0.000000)">
                        <mask id="mask-6" fill="white">
                            <use xlink:href="#path-5"></use>
                        </mask>
                        <g id="Clip-14"></g>
                        <path d="M0.48271046,12.3653492 L0.511635897,8.77869319 L0.731331484,8.78743199 C0.999924834,9.6993889 1.31948205,10.4190921 1.69000313,10.9446689 C2.38627974,11.9146764 3.26161858,12.4003044 4.31533096,12.4003044 C5.05017482,12.4003044 5.65692031,12.1768406 6.13625613,11.7311615 C6.61490326,11.2861065 6.85457117,10.7212051 6.85457117,10.0377056 C6.85457117,9.74245873 6.8022299,9.4409699 6.69685867,9.13448746 C6.59148743,8.82800502 6.44892634,8.56396822 6.27055281,8.34424965 C6.08460357,8.11828907 5.82496333,7.90169151 5.48956599,7.69320854 C5.15416865,7.48472558 4.64108648,7.22131298 3.95169689,6.90234653 C3.34426269,6.62457732 2.87938959,6.39050213 2.55707757,6.19887259 C2.23407684,6.00786724 1.97443661,5.81436509 1.77609075,5.61711773 C1.22650743,5.07281491 0.952404472,4.409914 0.952404472,3.62841499 C0.952404472,3.14778062 1.05915311,2.68462386 1.27265039,2.23832052 C1.48683637,1.79326557 1.78573256,1.41063067 2.16933896,1.09228843 C2.84633194,0.524890187 3.64797979,0.240878967 4.5742825,0.240878967 C4.87455609,0.240878967 5.15210255,0.268967989 5.40761058,0.323897631 C5.66311862,0.378827274 6.00540296,0.487438158 6.43308622,0.649106083 C6.75264344,0.765207373 6.96958422,0.83886303 7.08459727,0.870697255 C7.19961032,0.90315568 7.30153805,0.918760692 7.39175787,0.918760692 C7.61489696,0.918760692 7.76503376,0.770825178 7.84216826,0.475578349 L8.06186385,0.475578349 L8.12935653,3.92366182 L7.90897225,3.92366182 C7.73679702,3.3737412 7.58803763,2.95240587 7.46407147,2.65965584 C7.34010531,2.36753002 7.19134591,2.09725121 7.01917069,1.84757101 C6.70718918,1.39627406 6.36215003,1.0623268 5.98611934,0.845105035 C5.61008865,0.627259066 5.17620708,0.518648182 4.68516334,0.518648182 C3.97098051,0.518648182 3.40693447,0.739615153 2.99233653,1.17967649 C2.82016131,1.35944623 2.68448723,1.5710502 2.5853143,1.81448839 C2.48683007,2.05792658 2.43724361,2.30136476 2.43724361,2.54480295 C2.43724361,3.5123137 3.1231897,4.29194011 4.49439319,4.88368217 L5.84355825,5.47480002 C6.88280791,5.92110337 7.63280319,6.41359755 8.09216669,6.95228257 C8.61557937,7.55526024 8.87659701,8.25686158 8.87659701,9.0564624 C8.87659701,9.58765701 8.75882916,10.0957562 8.52191605,10.5813842 C8.18996221,11.2573933 7.69134276,11.7786007 7.0274351,12.1450064 C6.36283873,12.5114121 5.58047451,12.694927 4.67965373,12.694927 C3.85527876,12.694927 3.06327273,12.5476157 2.30363564,12.2523689 C1.90694392,12.0956946 1.67071951,12.0064339 1.59427371,11.9833385 C1.51713921,11.9602431 1.4310516,11.9483832 1.33532217,11.9483832 C1.02885027,11.9483832 0.818107797,12.08758 0.703094747,12.3653492 L0.48271046,12.3653492 Z" id="Fill-13" fill="#231916" mask="url(#mask-6)"></path>
                    </g>
                    <path d="M25.1307393,6.4484015 L31.7949158,6.4484015 L31.7949158,3.52010521 C31.7949158,2.89392452 31.7591594,2.43166547 31.6876467,2.13332807 C31.6154593,1.83564636 31.4825536,1.58910821 31.2882548,1.39436929 C31.1135209,1.2179896 30.9144996,1.09013072 30.6925403,1.01144832 C30.470581,0.932110248 30.177109,0.88358944 29.8148228,0.865230216 L29.8148228,0.655410508 L35.8124467,0.655410508 L35.8124467,0.865230216 C35.4562324,0.88358944 35.1668082,0.932110248 34.9441743,1.01144832 C34.722215,1.09013072 34.5238684,1.2179896 34.3484598,1.39436929 C34.1541611,1.58910821 34.0212553,1.83695774 33.9497426,2.13791788 C33.8775552,2.43887802 33.8417989,2.89982569 33.8417989,3.52010521 L33.8417989,10.2435155 C33.8417989,10.863795 33.8775552,11.3234313 33.9497426,11.6217687 C34.0212553,11.9194504 34.1541611,12.1686113 34.3484598,12.3692514 C34.5238684,12.5397299 34.722215,12.6656217 34.9441743,12.7475825 C35.1668082,12.8295434 35.4562324,12.8806869 35.8124467,12.8983905 L35.8124467,13.1082102 L29.8148228,13.1082102 L29.8148228,12.8983905 C30.177109,12.8806869 30.470581,12.8295434 30.6925403,12.7475825 C30.9144996,12.6656217 31.1135209,12.5397299 31.2882548,12.3692514 C31.4825536,12.1745125 31.6154593,11.9279743 31.6876467,11.6302926 C31.7591594,11.3326109 31.7949158,10.8703518 31.7949158,10.2435155 L31.7949158,6.87722053 L25.1307393,6.87722053 L25.1307393,10.2435155 C25.1307393,10.863795 25.1664956,11.3247426 25.238683,11.6257028 C25.3108704,11.9266629 25.4431015,12.1745125 25.6374002,12.3692514 C25.8060623,12.5397299 26.002385,12.6656217 26.2243443,12.7475825 C26.4463036,12.8295434 26.739101,12.8806869 27.1020618,12.8983905 L27.1020618,13.1082102 L21.1037632,13.1082102 L21.1037632,12.8983905 C21.4667241,12.8806869 21.7588468,12.8295434 21.9814808,12.7475825 C22.2034401,12.6656217 22.3990881,12.5397299 22.5684248,12.3692514 C22.7681207,12.1745125 22.9030504,11.9279743 22.9718645,11.6302926 C23.0406787,11.3326109 23.0750857,10.8703518 23.0750857,10.2435155 L23.0750857,3.52010521 C23.0750857,2.89392452 23.0406787,2.43166547 22.9718645,2.13332807 C22.9030504,1.83564636 22.7681207,1.58910821 22.5684248,1.39436929 C22.3990881,1.2179896 22.2020908,1.09013072 21.9767582,1.01144832 C21.7514257,0.932110248 21.4606522,0.88358944 21.1037632,0.865230216 L21.1037632,0.655410508 L27.1020618,0.655410508 L27.1020618,0.865230216 C26.7451728,0.88358944 26.4557487,0.932110248 26.2337893,1.01144832 C26.0111554,1.09013072 25.8128088,1.2179896 25.6374002,1.39436929 C25.4431015,1.58910821 25.3108704,1.83695774 25.238683,2.13791788 C25.1664956,2.43887802 25.1307393,2.89982569 25.1307393,3.52010521 L25.1307393,6.4484015 Z" id="Fill-16" fill="#231916"></path>
                    <path d="M44.4734887,7.72567897 L42.4511486,3.00014574 L40.5443905,7.72567897 L44.4734887,7.72567897 Z M50.5211302,13.1082102 L44.193877,13.1082102 L44.193877,12.8983905 C44.7655584,12.849214 45.1635206,12.7587292 45.3884558,12.6249691 C45.786418,12.3869549 45.985053,12.0591116 45.985053,11.6394722 C45.985053,11.3903113 45.895079,11.0552555 45.7151308,10.635616 L45.5517933,10.2526951 L44.6278289,8.09942033 L40.3907425,8.09942033 L39.8896561,9.35833857 L39.6488025,9.92485178 C39.3601934,10.5936521 39.2155427,11.1195127 39.2155427,11.5024337 C39.2155427,11.7279899 39.268143,11.9378096 39.3740355,12.1325485 C39.4806202,12.3272874 39.6231945,12.4846522 39.8024505,12.6059542 C40.0529937,12.7705316 40.3741319,12.8682289 40.7658651,12.8983905 L40.7658651,13.1082102 L36.4519547,13.1082102 L36.4519547,12.8983905 C36.7917798,12.8800312 37.0907706,12.8006932 37.3475427,12.6610319 C37.6043148,12.520715 37.854858,12.2964702 38.0984801,11.9863304 C38.3040362,11.7365138 38.5040555,11.4158831 38.7006142,11.0231268 C38.8957888,10.6316819 39.1539451,10.0428754 39.4757754,9.25867421 L42.9999904,0.655410508 L43.5488322,0.655410508 L47.737471,10.2435155 C48.0523802,10.9673935 48.3029234,11.4840745 48.4891005,11.7942142 C48.6752776,12.1050097 48.8773732,12.3390898 49.0953873,12.4964546 C49.2497274,12.6059542 49.426215,12.6898821 49.6255422,12.7475825 C49.8241772,12.8059386 50.123168,12.8557708 50.5211302,12.8983905 L50.5211302,13.1082102 Z" id="Fill-18" fill="#231916"></path>
                    <path d="M55.0974417,6.67626341 L55.9970564,6.67626341 C56.6025155,6.67626341 57.0688114,6.63299038 57.395944,6.54447735 C57.7230766,6.45596432 58.0159131,6.29336261 58.2724747,6.05667221 C58.8726575,5.51510361 59.1720894,4.79454199 59.1720894,3.89433171 C59.1720894,3.39538048 59.0850299,2.93773534 58.9102514,2.52139628 C58.736792,2.10440157 58.4868257,1.7660851 58.1623313,1.50382428 C57.7896903,1.1943565 57.3458188,1.01142958 56.832036,0.956354806 C56.6915536,0.944553068 56.3703569,0.9386522 55.8684458,0.9386522 L55.0974417,0.9386522 L55.0974417,6.67626341 Z M55.0974417,6.96802858 L55.0974417,10.2430106 C55.0974417,10.8639131 55.1330569,11.3248365 55.2029683,11.6257808 C55.2735393,11.9267251 55.403469,12.1745616 55.5934169,12.3692903 C55.7583023,12.5391042 55.9495694,12.665645 56.1665585,12.7476015 C56.3835477,12.829558 56.6697887,12.8800432 57.0246221,12.8977459 L57.0246221,13.1082102 L51.1606382,13.1082102 L51.1606382,12.8977459 C51.5154715,12.8800432 51.8017126,12.829558 52.0187017,12.7476015 C52.2356909,12.665645 52.4269579,12.5391042 52.5925029,12.3692903 C52.7883867,12.1745616 52.9196355,11.9280364 52.9869087,11.6303704 C53.054182,11.3327044 53.0878186,10.869814 53.0878186,10.2430106 L53.0878186,3.52061003 C53.0878186,2.99739968 53.0653942,2.59417366 53.0192263,2.31158762 C52.9730584,2.02834593 52.8952324,1.79952336 52.785089,1.6224973 C52.6261395,1.37925039 52.4236602,1.19894607 52.1796299,1.08027305 C51.93494,0.96094437 51.6170409,0.890133947 51.2252732,0.865874821 L51.1606382,0.865874821 L51.1606382,0.655410508 L56.6941918,0.655410508 C57.6610797,0.655410508 58.3740441,0.704584413 58.8324255,0.801620918 C59.2914664,0.898657424 59.7102753,1.09338609 60.0895117,1.38580691 C60.9587875,2.04277028 61.3927658,2.91806578 61.3927658,4.01300473 C61.3927658,5.12564628 60.952192,5.9406218 60.0717041,6.45727562 C59.6126632,6.72543732 59.0560101,6.88607207 58.4010853,6.94114685 C58.1926702,6.95950511 57.6920782,6.96802858 56.896671,6.96802858 L55.0974417,6.96802858 Z" id="Fill-20" fill="#231916"></path>
                    <path d="M62.6717818,13.1082102 L62.6717818,12.8892108 C63.3140315,12.8892108 63.8095987,12.7154539 64.1598544,12.3692514 C64.3565734,12.1745125 64.4916035,11.9266629 64.5649447,11.6257028 C64.6376005,11.3247426 64.6746138,10.863795 64.6746138,10.2435155 L64.6746138,3.52010521 C64.6746138,2.87556529 64.6348588,2.39953683 64.5553487,2.09201982 C64.4758386,1.78450281 64.3277853,1.53468622 64.1125596,1.3399473 C63.9336619,1.18192684 63.7355721,1.06587031 63.5155484,0.992433414 C63.2962102,0.919652203 63.0151831,0.877688261 62.6717818,0.865230216 L62.6717818,0.655410508 L68.7659569,0.655410508 L68.7659569,0.865230216 C68.4163866,0.882933754 68.1298761,0.928831815 67.9077962,1.00161303 C67.6843454,1.07439424 67.4876264,1.19045076 67.3162684,1.34847123 C67.1003574,1.54911133 66.9536749,1.80220635 66.877592,2.10578924 C66.8008236,2.41002781 66.7631249,2.88081078 66.7631249,3.52010521 L66.7631249,8.78395712 C66.7631249,9.59307437 66.7857441,10.1949947 66.8296118,10.5903737 C66.8741648,10.9857527 66.9605293,11.3083505 67.0873342,11.5575114 C67.3100995,11.99551 67.6404777,12.3161408 68.0798396,12.5200593 C68.5178306,12.7233221 69.0997623,12.8249536 69.8249492,12.8249536 C70.5809806,12.8249536 71.2184323,12.729879 71.7366188,12.5384185 C72.2548054,12.3463023 72.6797732,12.049932 73.0101513,11.6479961 C73.2322313,11.3745748 73.4152416,11.0650908 73.5584969,10.7175769 C73.7010667,10.3713743 73.8333551,9.91501649 73.9539911,9.34981465 L74.1829253,9.36751819 L74.0588622,13.1082102 L62.6717818,13.1082102 Z" id="Fill-22" fill="#231916"></path>
                </g>
            </g>
        </g>
    </g>
</svg>