<svg xmlns="http://www.w3.org/2000/svg" width="88" height="38" viewBox="0 0 88 38">
    <g fill="none" fill-rule="evenodd">
        <path fill="transparent" d="M-1312-946H128V78h-1440z"/>
        <path fill-rule="nonzero" stroke="#FB0000" stroke-width="4" d="M-1290-863H106V56h-1396z"/>
        <g fill="#251715">
            <path d="M13.275 14.263c.152-.28.348-.345.644-.345.332 0 .598.146.886.264l.305.125c.887.364 1.765.497 2.714.497 2.581 0 4.8-1.578 4.8-4.376 0-1.192-.371-2-1.238-2.796-.69-.634-1.469-1.048-2.304-1.427l-1.736-.788a4.965 4.965 0 0 1-1.377-.923 2.412 2.412 0 0 1-.68-1.09c-.162-.523-.13-.95.107-1.441.099-.205.212-.397.349-.578.644-.854 2.052-1.072 2.986-.75a2.956 2.956 0 0 1 1.395.978c.5.614.85 1.264 1.088 2.022l.288.922h.257V.285h-.335l-.043.134c-.054.17-.1.303-.299.354a.849.849 0 0 1-.452-.002 4.59 4.59 0 0 1-.505-.168c-.3-.12-.603-.232-.908-.337A4.728 4.728 0 0 0 17.672 0c-1.087-.007-1.915.29-2.755.986a3.77 3.77 0 0 0-.98 1.227c-.247.486-.39.975-.445 1.518a3.325 3.325 0 0 0 1.402 3.06c.413.287.84.539 1.291.76l1.528.749c.461.226.9.485 1.32.781.481.338.789.733 1 1.285.129.336.21.674.247 1.032.023.215.014.422-.027.634-.313 1.612-1.794 2.48-3.34 2.25-1.115-.164-1.835-.618-2.472-1.557a8.101 8.101 0 0 1-1.092-2.325l-.111-.38h-.296v4.469h.235c.027-.079.06-.153.098-.226M14.513 27.256c-.146-.164-.3-.32-.463-.465a7.554 7.554 0 0 0-2.162-1.362L6.8 23.307a2.363 2.363 0 0 1-.72-.45c-.459-.415-.646-.84-.646-1.463v-.081c0-1.267 1.45-2.052 2.532-2.052 1.255 0 2.475.867 2.6 2.204h4.972c-.232-3.9-3.865-6.344-7.448-6.344-3.582 0-7.215 2.444-7.447 6.344-.063 1.054.143 1.933.665 2.848.476.835 1.068 1.36 1.95 1.727 2.035.85 4.071 1.699 6.108 2.548a3.31 3.31 0 0 1 1.292.944c.39.458.545.91.531 1.513-.04 1.732-1.7 2.766-3.26 2.73a3.362 3.362 0 0 1-1.732-.505c-.785-.474-1.18-1.039-1.36-1.945a1.964 1.964 0 0 1-.037-.386v-.406H0v.23c.006 4.357 4.005 7.19 7.994 7.19 3.988-.001 7.987-2.834 7.996-7.19a4.258 4.258 0 0 0-.358-1.747 6.457 6.457 0 0 0-1.119-1.76M43.347 2.359l1.764 4.626h-3.529l1.765-4.626zM55.422.649h2.588c.304 0 .566.067.833.213.127.07.246.15.358.243.148.123.286.255.416.397.277.305.44.651.582 1.029.15.398.222.791.222 1.217v.325c0 .552-.119 1.027-.378 1.512-.26.486-.59.839-1.056 1.127-.31.191-.614.278-.977.278h-2.588V.65zM23.965.684c.434.21.669.481.795.956.115.437.172.872.172 1.325v8.602c0 .521-.01 1.027-.166 1.537-.163.532-.44.83-.942 1.05-.363.158-.75.238-1.16.238v.245h6.91v-.245c-.41 0-.796-.08-1.16-.238-.502-.22-.779-.518-.942-1.05-.156-.51-.165-1.016-.165-1.537v-4.08h5.242v4.08c0 .521-.01 1.027-.165 1.537-.164.532-.44.83-.943 1.05a2.87 2.87 0 0 1-1.16.238v.245h11.184v-.245l-.268-.025a3.529 3.529 0 0 1-.88-.196c-.394-.142-.798-.58-.847-1.018a1.95 1.95 0 0 1 .121-.947l1.8-4.718h3.911l1.8 4.718c.093.243.137.483.137.743 0 .586-.2.905-.723 1.156a2.835 2.835 0 0 1-1.168.287v.245h12.35V14.4a4.56 4.56 0 0 1-.76-.097 1.763 1.763 0 0 1-.594-.244c-.482-.308-.72-.667-.819-1.235a6.99 6.99 0 0 1-.104-1.207V7.49h2.472c.442 0 .883-.003 1.325-.01a5.01 5.01 0 0 0 1.911-.4c1.191-.5 1.911-1.606 1.911-2.907v-.2c0-.652-.146-1.211-.455-1.782-.435-.802-1.019-1.266-1.821-1.637a3.068 3.068 0 0 0-.876-.268 14.451 14.451 0 0 0-1.995-.138h-7.114v.236c.21.002.415.023.62.064.177.034.345.086.511.156.608.257.897.613 1.024 1.267.075.383.112.765.112 1.155v8.731c0 .404-.04.798-.12 1.193-.065.321-.196.568-.425.8-.164.166-.343.3-.548.41-.111.06-.228.093-.348.125a.22.22 0 0 1-.118-.001c-.29-.085-.56-.163-.792-.383a2.67 2.67 0 0 1-.455-.567 10.511 10.511 0 0 1-.508-.947c-.37-.785-.709-1.582-1.018-2.393L44.959.148h-1.423L39.78 9.994c-.31.811-.648 1.608-1.018 2.393-.153.325-.322.64-.507.947a2.676 2.676 0 0 1-.456.567c-.29.275-.616.357-.982.43a.584.584 0 0 1-.23-.001 2.82 2.82 0 0 1-.555-.177c-.503-.22-.78-.518-.943-1.05-.156-.51-.165-1.016-.165-1.537V2.964c0-.453.056-.888.172-1.325.126-.475.361-.745.795-.956.42-.204.834-.299 1.3-.299V.148h-6.909v.236c.466 0 .88.095 1.3.3.434.21.67.48.795.955.116.437.172.872.172 1.325v4.02h-5.242v-4.02c0-.453.056-.888.172-1.325.125-.475.361-.745.795-.956.42-.204.833-.299 1.3-.299V.148h-6.91v.236c.467 0 .88.095 1.3.3z"/>
            <path d="M64.863 1.638c.115.438.172.872.172 1.326v8.601c0 .522-.01 1.027-.166 1.537-.163.533-.44.831-.942 1.05a2.87 2.87 0 0 1-1.16.238v.246H75.03v-4.37h-.261l-.144.639a5.774 5.774 0 0 1-.274.884c-.179.447-.41.845-.71 1.22-.167.21-.361.38-.577.536-.46.332-.887.59-1.492.59H69.66c-.39 0-.747-.07-1.11-.22a1.555 1.555 0 0 1-.451-.28c-.34-.301-.52-.626-.6-1.075a5.647 5.647 0 0 1-.089-.995V2.964c0-.373.038-.736.115-1.1.05-.237.134-.447.267-.649.187-.282.407-.47.72-.6.38-.157.755-.231 1.165-.231V.148h-6.908v.236c.466 0 .88.095 1.3.299.433.21.669.48.795.955M76.527 33.176V15.39h-4.925v22.033H87.98v-4.247zM63.493 24.694h-3.996v-5.067h3.996c1.383 0 2.505 1.134 2.505 2.533 0 1.4-1.122 2.534-2.505 2.534m.735-9.304h-9.655v22.033h4.924v-8.504h4.73c3.694 0 6.688-3.028 6.688-6.764s-2.994-6.765-6.687-6.765M41.928 28.897l2.06-5.427 2.06 5.427h-4.12zm.19-13.507l-8.36 22.033h4.935l1.624-4.279h7.342l1.624 4.279h4.936L45.857 15.39h-3.739zM28.472 24.693h-6.53V15.39h-4.924v22.033h4.925V28.94h6.53v8.483h4.924V15.39h-4.925z"/>
        </g>
    </g>
</svg>
