<svg xmlns="http://www.w3.org/2000/svg" xmlns:xlink="http://www.w3.org/1999/xlink" width="180" height="118" viewBox="0 0 180 118">
    <defs>
        <path id="a" d="M155.378.006L.095 27.131v56.144L155.378 56.15z"/>
        <linearGradient id="b" x1="-3.042%" x2="97.064%" y1="67.247%" y2="34.696%">
            <stop offset="0%" stop-color="#FFEC11"/>
            <stop offset="100%" stop-color="#D0E247"/>
        </linearGradient>
        <path id="d" d="M14.62.33L6.355 1.753c-1.653.285-2.867.841-3.641 1.668-.775.828-1.162 1.848-1.162 3.059 0 1.196.38 2.078 1.14 2.65.759.57 1.972.712 3.64.425l8.31-1.431c1.668-.288 2.883-.847 3.642-1.68.76-.832 1.14-1.846 1.14-3.042 0-1.211-.388-2.097-1.162-2.658-.514-.372-1.22-.558-2.121-.558a9.04 9.04 0 0 0-1.52.144zM4.97 5.89c0-.354.119-.65.357-.892.238-.24.58-.399 1.028-.475l8.265-1.424c.924-.159 1.386.138 1.386.891 0 .414-.112.728-.335.944-.224.216-.574.364-1.05.446L6.354 6.804a2.572 2.572 0 0 1-.435.04c-.634 0-.95-.317-.95-.954zM.211 11.76v2.77l4.312-.743v1.197l-3.083.53v2.747l14.41-2.481v4.852l3.462-.597v-7.598l-2.882.496v-1.196l4.29-.739V8.23L.21 11.76zm7.797 1.427l4.937-.85v1.196l-4.937.85v-1.196z"/>
        <linearGradient id="e" x1="-8.796%" x2="601.803%" y1="63.518%" y2="-34.485%">
            <stop offset="0%" stop-color="#FFEC11"/>
            <stop offset="100%" stop-color="#D0E247"/>
        </linearGradient>
        <path id="g" d="M15.771.942v3.461l-3.61.657v2.888l3.61-.657v6.097l3.392-.618V.325l-3.392.617zM5.201 3.048v2.223a7.552 7.552 0 0 1-1.324 4.32C2.994 10.899 1.78 12.09.233 13.166l1.751 2.11a15.92 15.92 0 0 0 2.8-2.468 15.994 15.994 0 0 0 2.19-3.114c.7.989 1.444 1.74 2.232 2.253.788.514 1.62.89 2.495 1.128l1.663-2.824a8.404 8.404 0 0 1-1.773-.698 5.508 5.508 0 0 1-2.56-2.812c-.263-.632-.394-1.36-.394-2.186V2.423L5.2 3.048zm9.608 11.225l-8.36 1.52a9.2 9.2 0 0 0-1.828.528 5.334 5.334 0 0 0-1.52.93c-.438.385-.789.869-1.051 1.45-.263.583-.394 1.272-.394 2.067 0 .84.131 1.503.394 1.991.262.486.613.847 1.05 1.08.438.234.949.359 1.532.375a9.073 9.073 0 0 0 1.86-.155l8.273-1.504c.656-.12 1.276-.294 1.86-.522a5.011 5.011 0 0 0 1.532-.931 4.332 4.332 0 0 0 1.05-1.463c.263-.583.394-1.295.394-2.135 0-.795-.131-1.435-.394-1.922-.263-.487-.612-.844-1.05-1.07-.438-.226-.949-.35-1.532-.375a8.437 8.437 0 0 0-1.816.136zm-9.51 6.76c-.197-.247-.295-.554-.295-.92 0-.351.106-.665.317-.94.212-.275.595-.463 1.149-.564l8.316-1.513c.555-.1.938-.053 1.15.146.21.199.317.474.317.825 0 .367-.1.71-.296 1.027-.197.32-.587.532-1.17.638L6.47 21.245a2.638 2.638 0 0 1-.473.047c-.327 0-.56-.086-.697-.26z"/>
        <linearGradient id="h" x1="-119.757%" x2="513.611%" y1="74.987%" y2="-11.783%">
            <stop offset="0%" stop-color="#FFEC11"/>
            <stop offset="100%" stop-color="#D0E247"/>
        </linearGradient>
        <path id="j" d="M1.855 3.493v2.834L19.128 3.24V.406L1.855 3.493zm11.37 1.432l-.657 6.867-4.11.733L7.78 5.9l-3.345.889.656 6.339-3.454.617v2.834l17.71-3.164V10.58l-3.433.613.656-6.573-3.346.305zM.433 21.225v2.811l20.115-3.593V17.63L.434 21.225z"/>
        <linearGradient id="k" x1="-222.403%" x2="386.875%" y1="87.997%" y2="1.893%">
            <stop offset="0%" stop-color="#FFEC11"/>
            <stop offset="100%" stop-color="#D0E247"/>
        </linearGradient>
        <path id="m" d="M1.625 3.313v2.888l13.962-2.488v2.43L1.67 8.623v8.159l17.871-3.184v-2.866L5.154 13.296v-2.407l13.94-2.483V.2L1.624 3.313zm6.992 13.194v3.369L.105 21.392v2.865l20.554-3.662V17.73l-8.557 1.525v-3.369l-3.485.62z"/>
        <linearGradient id="n" x1="-329.121%" x2="280.131%" y1="103.088%" y2="16.909%">
            <stop offset="0%" stop-color="#FFEC11"/>
            <stop offset="100%" stop-color="#D0E247"/>
        </linearGradient>
        <path id="p" d="M16.681.577v12.24l3.26-.573V.004l-3.26.573zm-4.18.89V5.56l-2.429.427v2.766l2.429-.426v5.002l3.26-.572V.893l-3.26.574zM.989 3.62V6.41l3.436-.604v.598c0 .693-.101 1.346-.305 1.957a6.832 6.832 0 0 1-.865 1.724 9.865 9.865 0 0 1-1.313 1.525 14.68 14.68 0 0 1-1.674 1.367l1.816 1.984a14.828 14.828 0 0 0 2.232-1.93c.7-.736 1.313-1.57 1.838-2.505.555.745 1.182 1.343 1.882 1.795.7.452 1.38.783 2.036.993l1.685-2.73a7.427 7.427 0 0 1-1.412-.594c-.474-.256-.9-.58-1.28-.97a4.81 4.81 0 0 1-.93-1.386c-.24-.533-.361-1.155-.361-1.863v-.553l3.458-.608V1.822L.989 3.62zm1.402 12.392v2.745l14.158-2.487v5.113l3.393-.596v-7.857L2.39 16.013z"/>
        <linearGradient id="q" x1="-444.035%" x2="179.475%" y1="130.411%" y2="36.769%">
            <stop offset="0%" stop-color="#FFEC11"/>
            <stop offset="100%" stop-color="#D0E247"/>
        </linearGradient>
        <path id="s" d="M1.86 3.297v13.5l17.295-3.148v-2.865L5.271 13.31v-2.407L18.587 8.48V5.616L5.27 8.04V5.564l13.774-2.507V.169L1.86 3.297zM.33 21.384v2.865l20.116-3.662v-2.865L.33 21.384z"/>
        <linearGradient id="t" x1="-542.592%" x2="66.673%" y1="133.243%" y2="47.151%">
            <stop offset="0%" stop-color="#FFEC11"/>
            <stop offset="100%" stop-color="#D0E247"/>
        </linearGradient>
    </defs>
    <g fill="none" fill-rule="evenodd">
        <path fill="#FFC100" d="M0 83.233l42.609 10.473-1.661-28.632z"/>
        <g>
            <mask id="c" fill="#fff">
                <use xlink:href="#a"/>
            </mask>
            <path fill="url(#b)" d="M155.378.006L.095 27.131v56.144L155.378 56.15z" mask="url(#c)"/>
        </g>
        <path fill="#404040" d="M24.348 68.117V118L180 92.398V42.515z"/>
        <g fill="#FFC100">
            <path d="M31.165 50.2a16.357 16.357 0 0 1-2.748-.245 11.907 11.907 0 0 1-2.577-.745 7.893 7.893 0 0 1-2.119-1.294 4.742 4.742 0 0 1-1.351-1.921 7.938 7.938 0 0 1-1.375 2.399 13.21 13.21 0 0 1-2.107 2.035 17.208 17.208 0 0 1-2.565 1.647 20.99 20.99 0 0 1-2.749 1.208l-.48-1.033a19.566 19.566 0 0 0 3.263-1.467 12.841 12.841 0 0 0 2.726-2.044 9.37 9.37 0 0 0 1.879-2.632c.465-.977.698-2.054.698-3.232v-3.69l1.42-.248v3.69c0 1.178.232 2.173.699 2.986a5.633 5.633 0 0 0 1.878 1.974c.786.503 1.695.865 2.726 1.087 1.03.221 2.117.329 3.263.322l-.48 1.203zm1.19 5.448v1.185l-19.972 3.503v-1.185l19.973-3.503zM55.33 42.696l-3.574.627v10.555l-1.351.237V33.967l1.351-.237v8.386l3.573-.627v1.207zM36.89 54.875l10.903-1.912v1.207l-12.277 2.153V36.868l11.613-2.036v1.208L36.89 37.835v7.782l9.803-1.719v1.185l-9.803 1.72v8.072zM74.455 29.75l1.35-.238v20.149l-1.35.237V29.749zm-14.888 4.109v17.04l10.903-1.913v1.208l-12.277 2.153V32.892l11.612-2.037v1.208l-10.238 1.796zM100.222 34.823l-3.572.627v10.555l-1.352.237V26.094l1.352-.237v8.386l3.572-.627v1.207zM86.55 29.126v8.32c0 1.937.48 3.556 1.443 4.856.961 1.3 2.343 2.329 4.145 3.086l-.847 1.132a11.545 11.545 0 0 1-1.615-.823 9.736 9.736 0 0 1-2.874-2.694 7.73 7.73 0 0 1-.962-1.878 11.24 11.24 0 0 1-.986 2.264 17.456 17.456 0 0 1-2.977 3.843 20.122 20.122 0 0 1-1.672 1.456l-.87-.81a17.725 17.725 0 0 0 2.405-2.21 14.844 14.844 0 0 0 1.832-2.502c.504-.87.893-1.77 1.168-2.698a9.712 9.712 0 0 0 .412-2.778v-8.318l-4.901.86v-1.208l11.2-1.965v1.208l-4.901.86zM119.348 21.876l1.351-.237v20.148l-1.35.237V21.876zm-14.888 17.08c0 .79.1 1.444.298 1.96.198.516.476.914.836 1.195.358.28.779.456 1.26.528a4.866 4.866 0 0 0 1.568-.04 5.64 5.64 0 0 0 1.57-.51c.48-.241.897-.564 1.247-.969.352-.404.626-.9.825-1.486.198-.586.298-1.274.298-2.065v-8.877c0-.79-.1-1.444-.298-1.96-.199-.517-.473-.916-.825-1.197a2.566 2.566 0 0 0-1.248-.531 4.905 4.905 0 0 0-1.569.04c-.565.1-1.088.27-1.569.51-.48.241-.9.565-1.26.97-.359.406-.637.902-.835 1.49-.199.586-.298 1.274-.298 2.064v8.877zm9.277-1.963c0 1.953-.413 3.486-1.238 4.6-.824 1.113-2.183 1.836-4.077 2.168-1.893.332-3.256.087-4.088-.736-.833-.824-1.248-2.204-1.248-4.142v-8.274c0-1.938.415-3.464 1.248-4.58.832-1.114 2.195-1.838 4.088-2.17 1.894-.332 3.253-.082 4.077.75.825.832 1.238 2.217 1.238 4.155v8.229zM143.146 17.703V37.85l-1.351.237V27.533l-6.712 1.177v-1.207l6.712-1.178V17.94l1.35-.237zm-17.614 3.379l1.374-.241v18.247l10.949-1.92v1.208l-12.323 2.161V21.082z"/>
        </g>
        <g transform="translate(35.652 78.956)">
            <mask id="f" fill="#fff">
                <use xlink:href="#d"/>
            </mask>
            <path fill="url(#e)" d="M14.62.33L6.355 1.753c-1.653.285-2.867.841-3.641 1.668-.775.828-1.162 1.848-1.162 3.059 0 1.196.38 2.078 1.14 2.65.759.57 1.972.712 3.64.425l8.31-1.431c1.668-.288 2.883-.847 3.642-1.68.76-.832 1.14-1.846 1.14-3.042 0-1.211-.388-2.097-1.162-2.658-.514-.372-1.22-.558-2.121-.558a9.04 9.04 0 0 0-1.52.144zM4.97 5.89c0-.354.119-.65.357-.892.238-.24.58-.399 1.028-.475l8.265-1.424c.924-.159 1.386.138 1.386.891 0 .414-.112.728-.335.944-.224.216-.574.364-1.05.446L6.354 6.804a2.572 2.572 0 0 1-.435.04c-.634 0-.95-.317-.95-.954zM.211 11.76v2.77l4.312-.743v1.197l-3.083.53v2.747l14.41-2.481v4.852l3.462-.597v-7.598l-2.882.496v-1.196l4.29-.739V8.23L.21 11.76zm7.797 1.427l4.937-.85v1.196l-4.937.85v-1.196z" mask="url(#f)"/>
        </g>
        <g transform="translate(57.391 73.75)">
            <mask id="i" fill="#fff">
                <use xlink:href="#g"/>
            </mask>
            <path fill="url(#h)" d="M15.771.942v3.461l-3.61.657v2.888l3.61-.657v6.097l3.392-.618V.325l-3.392.617zM5.201 3.048v2.223a7.552 7.552 0 0 1-1.324 4.32C2.994 10.899 1.78 12.09.233 13.166l1.751 2.11a15.92 15.92 0 0 0 2.8-2.468 15.994 15.994 0 0 0 2.19-3.114c.7.989 1.444 1.74 2.232 2.253.788.514 1.62.89 2.495 1.128l1.663-2.824a8.404 8.404 0 0 1-1.773-.698 5.508 5.508 0 0 1-2.56-2.812c-.263-.632-.394-1.36-.394-2.186V2.423L5.2 3.048zm9.608 11.225l-8.36 1.52a9.2 9.2 0 0 0-1.828.528 5.334 5.334 0 0 0-1.52.93c-.438.385-.789.869-1.051 1.45-.263.583-.394 1.272-.394 2.067 0 .84.131 1.503.394 1.991.262.486.613.847 1.05 1.08.438.234.949.359 1.532.375a9.073 9.073 0 0 0 1.86-.155l8.273-1.504c.656-.12 1.276-.294 1.86-.522a5.011 5.011 0 0 0 1.532-.931 4.332 4.332 0 0 0 1.05-1.463c.263-.583.394-1.295.394-2.135 0-.795-.131-1.435-.394-1.922-.263-.487-.612-.844-1.05-1.07-.438-.226-.949-.35-1.532-.375a8.437 8.437 0 0 0-1.816.136zm-9.51 6.76c-.197-.247-.295-.554-.295-.92 0-.351.106-.665.317-.94.212-.275.595-.463 1.149-.564l8.316-1.513c.555-.1.938-.053 1.15.146.21.199.317.474.317.825 0 .367-.1.71-.296 1.027-.197.32-.587.532-1.17.638L6.47 21.245a2.638 2.638 0 0 1-.473.047c-.327 0-.56-.086-.697-.26z" mask="url(#i)"/>
        </g>
        <g transform="translate(79.13 70.28)">
            <mask id="l" fill="#fff">
                <use xlink:href="#j"/>
            </mask>
            <path fill="url(#k)" d="M1.855 3.493v2.834L19.128 3.24V.406L1.855 3.493zm11.37 1.432l-.657 6.867-4.11.733L7.78 5.9l-3.345.889.656 6.339-3.454.617v2.834l17.71-3.164V10.58l-3.433.613.656-6.573-3.346.305zM.433 21.225v2.811l20.115-3.593V17.63L.434 21.225z" mask="url(#l)"/>
        </g>
        <g transform="translate(100.87 66.809)">
            <mask id="o" fill="#fff">
                <use xlink:href="#m"/>
            </mask>
            <path fill="url(#n)" d="M1.625 3.313v2.888l13.962-2.488v2.43L1.67 8.623v8.159l17.871-3.184v-2.866L5.154 13.296v-2.407l13.94-2.483V.2L1.624 3.313zm6.992 13.194v3.369L.105 21.392v2.865l20.554-3.662V17.73l-8.557 1.525v-3.369l-3.485.62z" mask="url(#o)"/>
        </g>
        <g transform="translate(122.609 62.47)">
            <mask id="r" fill="#fff">
                <use xlink:href="#p"/>
            </mask>
            <path fill="url(#q)" d="M16.681.577v12.24l3.26-.573V.004l-3.26.573zm-4.18.89V5.56l-2.429.427v2.766l2.429-.426v5.002l3.26-.572V.893l-3.26.574zM.989 3.62V6.41l3.436-.604v.598c0 .693-.101 1.346-.305 1.957a6.832 6.832 0 0 1-.865 1.724 9.865 9.865 0 0 1-1.313 1.525 14.68 14.68 0 0 1-1.674 1.367l1.816 1.984a14.828 14.828 0 0 0 2.232-1.93c.7-.736 1.313-1.57 1.838-2.505.555.745 1.182 1.343 1.882 1.795.7.452 1.38.783 2.036.993l1.685-2.73a7.427 7.427 0 0 1-1.412-.594c-.474-.256-.9-.58-1.28-.97a4.81 4.81 0 0 1-.93-1.386c-.24-.533-.361-1.155-.361-1.863v-.553l3.458-.608V1.822L.989 3.62zm1.402 12.392v2.745l14.158-2.487v5.113l3.393-.596v-7.857L2.39 16.013z" mask="url(#r)"/>
        </g>
        <g transform="translate(144.348 59)">
            <mask id="u" fill="#fff">
                <use xlink:href="#s"/>
            </mask>
            <path fill="url(#t)" d="M1.86 3.297v13.5l17.295-3.148v-2.865L5.271 13.31v-2.407L18.587 8.48V5.616L5.27 8.04V5.564l13.774-2.507V.169L1.86 3.297zM.33 21.384v2.865l20.116-3.662v-2.865L.33 21.384z" mask="url(#u)"/>
        </g>
    </g>
</svg>
