<svg xmlns="http://www.w3.org/2000/svg" width="268" height="68" viewBox="0 0 268 68">
    <g fill="#464646" fill-rule="evenodd">
        <path d="M44.2 36.103a16.95 16.95 0 0 0-1.413-1.378 23.106 23.106 0 0 0-6.583-4.033l-15.493-6.286a7.23 7.23 0 0 1-2.19-1.332c-1.398-1.23-1.97-2.487-1.97-4.332V18.5c0-3.752 4.416-6.076 7.712-6.076 3.823 0 7.538 2.565 7.916 6.525h15.143C46.616 7.4 35.552.161 24.642.161 13.731.161 2.667 7.4 1.962 18.95c-.191 3.123.434 5.727 2.024 8.437 1.451 2.473 3.253 4.025 5.937 5.114l18.602 7.548c1.576.64 2.823 1.524 3.936 2.795 1.19 1.357 1.66 2.694 1.618 4.48-.122 5.13-5.177 8.194-9.926 8.085-1.948-.045-3.603-.513-5.277-1.495-2.391-1.402-3.594-3.075-4.14-5.76a5.664 5.664 0 0 1-.116-1.141v-1.204H0v.679c.018 12.908 12.196 21.297 24.345 21.295 12.147-.002 24.325-8.39 24.352-21.295a12.315 12.315 0 0 0-1.091-5.17 19.064 19.064 0 0 0-3.406-5.215M233.058 53.636V.96h-14.997v65.254h49.88V53.636zM193.365 28.514h-12.17V13.506h12.17c4.213 0 7.629 3.36 7.629 7.504s-3.416 7.504-7.629 7.504M195.602.96h-29.403v65.254h14.997V41.03h14.406c11.248 0 20.367-8.97 20.367-20.035C215.969 9.93 206.85.96 195.602.96M127.691 40.964l6.272-16.074 6.273 16.074H127.69zM128.27.96l-25.464 65.255h15.032l4.945-12.673h22.361l4.945 12.673h15.031L139.657.96H128.27zM86.711 28.513H66.826V.96H51.83v65.255h14.997V41.092h19.885v25.123h14.997V.96H86.711z"/>
    </g>
</svg>
