<svg xmlns="http://www.w3.org/2000/svg" xmlns:xlink="http://www.w3.org/1999/xlink" width="49" height="46" viewBox="0 0 49 46">
    <defs>
        <path id="a" d="M0 0h49v46H0z"/>
    </defs>
    <g fill="none" fill-rule="evenodd">
        <mask id="b" fill="#fff">
            <use xlink:href="#a"/>
        </mask>
        <g mask="url(#b)">
            <path fill="#F2F2F2" d="M23.186 21.356v21.506a3.608 3.608 0 0 0 1.616-.386l14.52-7.308a3.657 3.657 0 0 0 2.015-3.27V14.486c0-.714-.209-1.395-.577-1.972l-17.574 8.842z"/>
            <path fill="#B3B3B3" d="M48.884 8.285l-7.426 3.921-7.44 3.893-3.714 1.958-1.863.966c-.623.318-1.25.63-1.877.94l-1.888.918c-.632.3-1.261.606-1.896.9-1.267.595-2.54 1.178-3.829 1.73a.032.032 0 0 1-.042-.017.032.032 0 0 1 .013-.04 124.808 124.808 0 0 1 3.655-2.077c.612-.34 1.23-.669 1.845-1.003l1.854-.985c.62-.324 1.24-.647 1.865-.964l1.878-.937 3.769-1.848 7.526-3.72 7.541-3.692a.032.032 0 0 1 .043.014.032.032 0 0 1-.014.043M26.301 1.423c-2.124 1.132-4.256 2.249-6.384 3.374L13.52 8.143l-3.194 1.684-1.603.83c-.536.272-1.076.538-1.616.803l-1.627.781c-.545.255-1.088.515-1.636.763a91.921 91.921 0 0 1-3.307 1.457.032.032 0 0 1-.042-.018.032.032 0 0 1 .013-.04A92.178 92.178 0 0 1 3.64 12.6c.525-.295 1.056-.578 1.585-.866l1.593-.849a128.12 128.12 0 0 1 1.605-.827l1.617-.8 3.248-1.575 6.485-3.173c2.166-1.048 4.328-2.104 6.498-3.145a.032.032 0 0 1 .043.015.032.032 0 0 1-.014.043"/>
            <path fill="#B3B3B3" d="M.097 9.729l6.609 3.209 6.594 3.238 3.303 1.607 1.645.816c.546.277 1.09.56 1.632.843l1.62.865c.538.294 1.078.583 1.612.883a95.33 95.33 0 0 1 3.19 1.835c.014.009.02.029.01.044a.032.032 0 0 1-.04.013 95.366 95.366 0 0 1-3.362-1.488c-.557-.254-1.109-.52-1.663-.78l-1.655-.797c-.55-.27-1.098-.542-1.644-.82l-1.63-.845-3.248-1.717-6.508-3.41L.068 9.786a.032.032 0 0 1-.013-.043.032.032 0 0 1 .042-.014M17.082.003l7.69 3.764 7.68 3.788 3.843 1.885 1.917.953c.637.32 1.272.647 1.906.974l1.897.994c.63.336 1.262.667 1.89 1.008 1.257.674 2.507 1.366 3.749 2.074a.027.027 0 0 1 .01.037.027.027 0 0 1-.034.011 161.926 161.926 0 0 1-3.894-1.785c-.646-.303-1.288-.615-1.932-.922l-1.925-.937a219.96 219.96 0 0 1-1.915-.955l-1.905-.978L32.26 7.94l-7.607-3.932L17.058.05a.027.027 0 0 1-.012-.037.027.027 0 0 1 .036-.011M.673 31.956l6.813 3.334 6.802 3.356 3.406 1.67 1.698.844c.564.284 1.126.573 1.688.863l1.68.88c.558.298 1.118.591 1.674.893 1.114.598 2.221 1.21 3.321 1.838a.024.024 0 0 1 .01.032.024.024 0 0 1-.031.01 143.443 143.443 0 0 1-3.45-1.581c-.572-.268-1.14-.545-1.71-.817l-1.706-.83c-.566-.28-1.133-.56-1.697-.846l-1.687-.866-3.365-1.75-6.739-3.483-6.728-3.505a.024.024 0 0 1-.01-.032.024.024 0 0 1 .031-.01"/>
            <path fill="#B3B3B3" d="M47.66 30.727l-7.426 3.922-7.44 3.892L29.08 40.5l-1.863.966c-.624.318-1.25.63-1.877.94l-1.888.918c-.632.3-1.261.606-1.896.9-1.268.595-2.54 1.178-3.829 1.73a.032.032 0 0 1-.042-.017.032.032 0 0 1 .013-.04 124.808 124.808 0 0 1 3.655-2.076c.612-.34 1.23-.67 1.845-1.003l1.854-.986c.62-.324 1.24-.647 1.865-.963l1.878-.937 3.769-1.849 7.526-3.72 7.541-3.692a.032.032 0 0 1 .043.015.032.032 0 0 1-.014.042M5.91 12.386l17.17 8.651 17.177-8.642a3.365 3.365 0 0 0-1.16-.958l-14.52-7.309a3.363 3.363 0 0 0-2.994 0l-14.52 7.309c-.45.225-.844.55-1.154.95m17.17 9.218a.264.264 0 0 1-.118-.028L5.393 12.726a.268.268 0 0 1-.104-.386 3.907 3.907 0 0 1 1.536-1.383l14.52-7.308a3.895 3.895 0 0 1 3.469 0l14.52 7.308a3.905 3.905 0 0 1 1.543 1.393.27.27 0 0 1-.105.385L23.2 21.577a.265.265 0 0 1-.12.028"/>
            <path fill="#B3B3B3" d="M23.346 21.503v21.061a3.366 3.366 0 0 0 1.23-.346l14.52-7.308a3.37 3.37 0 0 0 1.868-3.031V14.467c0-.567-.143-1.123-.413-1.62l-17.205 8.656zm-.266 21.609a.266.266 0 0 1-.267-.268V21.337c0-.102.057-.194.148-.24l17.573-8.842a.265.265 0 0 1 .343.095c.405.635.62 1.367.62 2.117V31.88c-.001 1.499-.83 2.844-2.163 3.51l-14.52 7.309a3.895 3.895 0 0 1-1.734.414z"/>
            <path fill="#B3B3B3" d="M5.614 12.837a3.39 3.39 0 0 0-.418 1.63v17.394a3.37 3.37 0 0 0 1.85 3.05l14.52 7.307c.387.195.814.314 1.247.348V21.503L5.614 12.837zm17.457 30.275a3.894 3.894 0 0 1-1.744-.415L6.807 35.39a3.902 3.902 0 0 1-2.144-3.53V14.467c0-.754.217-1.49.626-2.127a.265.265 0 0 1 .343-.094l17.567 8.851c.09.046.147.138.147.24v21.507a.267.267 0 0 1-.266.268h-.01z"/>
        </g>
    </g>
</svg>
