<svg xmlns="http://www.w3.org/2000/svg" xmlns:xlink="http://www.w3.org/1999/xlink" width="37" height="40" viewBox="0 0 37 40">
    <defs>
        <path id="a" d="M0 0h49v46H0z"/>
    </defs>
    <g fill="none" fill-rule="evenodd" transform="translate(-6 -3)">
        <mask id="b" fill="#fff">
            <use xlink:href="#a"/>
        </mask>
        <g mask="url(#b)">
            <path fill="#F2F2F2" d="M42.109 12.063a3.635 3.635 0 0 0-1.44-1.298L26.136 3.456a3.615 3.615 0 0 0-3.234 0l-14.535 7.31a3.635 3.635 0 0 0-1.433 1.288l17.585 8.852 17.59-8.843z"/>
            <path fill="#B3B3B3" d="M7.33 12.19l17.188 8.651 17.194-8.644a3.367 3.367 0 0 0-1.16-.957L26.015 3.93a3.367 3.367 0 0 0-2.997 0L8.485 11.24c-.45.225-.845.55-1.155.95m17.188 9.22a.265.265 0 0 1-.12-.03L6.814 12.53a.268.268 0 0 1-.105-.386 3.91 3.91 0 0 1 1.538-1.383l14.535-7.31a3.901 3.901 0 0 1 3.471 0l14.536 7.31a3.909 3.909 0 0 1 1.544 1.393.27.27 0 0 1-.105.385l-17.59 8.843a.266.266 0 0 1-.12.028"/>
            <path fill="#E0E0E0" d="M6.72 12.396a3.664 3.664 0 0 0-.584 1.982v17.395a3.657 3.657 0 0 0 1.998 3.29L22.67 42.37a3.615 3.615 0 0 0 1.635.386V21.248L6.72 12.396z"/>
            <path fill="#D1D1D1" d="M24.731 21.248v21.51a3.614 3.614 0 0 0 1.617-.387l14.535-7.309a3.657 3.657 0 0 0 2.017-3.27V14.377c0-.714-.209-1.395-.578-1.973l-17.59 8.843z"/>
            <path fill="#B3B3B3" d="M7.035 12.64a3.39 3.39 0 0 0-.42 1.63v17.396a3.37 3.37 0 0 0 1.853 3.05l14.534 7.308c.388.196.816.314 1.25.348V21.306L7.034 12.64zm17.474 30.278a3.9 3.9 0 0 1-1.746-.414l-14.535-7.31a3.902 3.902 0 0 1-2.145-3.53V14.27c0-.754.217-1.49.626-2.127a.266.266 0 0 1 .343-.094l17.585 8.852c.09.046.147.138.147.24v21.51a.267.267 0 0 1-.266.267h-.009z"/>
            <path fill="#B3B3B3" d="M24.784 21.307V42.37a3.37 3.37 0 0 0 1.232-.347l14.535-7.309a3.37 3.37 0 0 0 1.869-3.03V14.27c0-.567-.143-1.123-.414-1.62l-17.222 8.657zm-.266 21.611a.266.266 0 0 1-.267-.268V21.14c0-.1.057-.193.148-.239l17.59-8.843a.266.266 0 0 1 .344.095 3.93 3.93 0 0 1 .62 2.117v17.414c0 1.499-.83 2.844-2.165 3.511l-14.534 7.309a3.9 3.9 0 0 1-1.736.414z"/>
        </g>
    </g>
</svg>
