<?xml version="1.0" encoding="iso-8859-1"?>
<!-- Generator: Adobe Illustrator 18.1.1, SVG Export Plug-In . SVG Version: 6.00 Build 0)  -->
<svg xmlns="http://www.w3.org/2000/svg" xmlns:xlink="http://www.w3.org/1999/xlink" version="1.1" id="Capa_1" x="0px" y="0px" viewBox="0 0 505.612 505.612" style="enable-background:new 0 0 505.612 505.612;" xml:space="preserve" width="512px" height="512px">
<g>
	<g>
		<path d="M500.236,210.074c-3.586-3.586-7.77-5.379-12.551-5.379h-52.504L378.913,83.968    c-2.789-5.977-7.371-8.965-13.746-8.965h-41.834v-4.78c0-2.391-0.797-4.383-2.393-5.977c-1.594-1.594-3.586-2.391-5.977-2.391    h-122.52c-2.391,0-4.383,0.797-5.977,2.391c-1.594,1.594-2.391,3.586-2.391,5.977v4.78h-43.628l0,0    c-6.375,0-10.957,2.988-13.746,8.965L70.436,204.695H17.93c-4.781,0-8.965,1.793-12.551,5.379S0,217.845,0,222.626    c0,2.391,0.398,4.582,1.195,6.573l81.879,203.203c1.195,3.188,3.387,5.877,6.574,8.068s6.574,3.287,10.16,3.287h306    c3.586,0,6.973-1.096,10.16-3.287c3.186-2.191,5.379-4.881,6.574-8.068l81.879-203.203c0.797-1.991,1.191-4.184,1.191-6.573    C505.615,217.844,503.822,213.66,500.236,210.074z M405.809,344.546h-60.961v-40.643h60.961V344.546z M426.129,303.905h9.695    l-9.695,24.023V303.905z M98.613,303.905h51.997v40.643H98.613V303.905L98.613,303.905z M78.293,324.965l-8.5-21.062h8.5V324.965z     M150.61,240.554v43.031H98.613v-43.031H150.61z M324.527,240.554v43.032l-61.559-0.001v-43.031H324.527z M242.649,283.585H170.93    v-43.031h71.719V283.585z M170.93,303.905h71.719v40.643H170.93V303.905z M242.649,364.865v43.033H170.93v-43.033H242.649z     M262.969,364.865h61.559v43.033h-61.559V364.865z M262.969,344.546v-40.643h61.559v40.643H262.969z M344.848,283.586v-43.032    h60.961v43.032H344.848z M150.012,105.483h34.066v5.381c0,2.391,0.797,4.383,2.391,5.977c1.594,1.594,3.586,2.391,5.977,2.391    h122.521c2.391,0,4.383-0.797,5.977-2.391s2.393-3.586,2.393-5.977v-5.381h32.27l45.533,99.211H104.48L150.012,105.483z     M78.293,240.554v43.031h-16.7l-17.366-43.031H78.293z M94.395,364.865h56.215v43.033h-38.848L94.395,364.865z M393.855,407.898    h-49.008v-43.033h60.961v13.415L393.855,407.898z M444.025,283.586h-17.896v-43.032h35.262L444.025,283.586z" fill="#464646"/>
	</g>
</g>
<g>
</g>
<g>
</g>
<g>
</g>
<g>
</g>
<g>
</g>
<g>
</g>
<g>
</g>
<g>
</g>
<g>
</g>
<g>
</g>
<g>
</g>
<g>
</g>
<g>
</g>
<g>
</g>
<g>
</g>
</svg>
