<?xml version="1.0" encoding="utf-8"?>
<!-- Generator: Adobe Illustrator 17.1.0, SVG Export Plug-In . SVG Version: 6.00 Build 0)  -->
<!DOCTYPE svg PUBLIC "-//W3C//DTD SVG 1.1//EN" "http://www.w3.org/Graphics/SVG/1.1/DTD/svg11.dtd">
<svg version="1.1" id="Layer_1" xmlns="http://www.w3.org/2000/svg" xmlns:xlink="http://www.w3.org/1999/xlink" x="0px" y="0px"
	 viewBox="0 0 18 18" enable-background="new 0 0 18 18" xml:space="preserve">
<g id="_x35_-SHOP_x5F_living_x5F_Thermal-Bottle-_x28_SHAPL_x29_-" transform="translate(-500.000000, -1957.000000)">
	<g id="_x30_1_x5F_products-description" transform="translate(0.000000, 1508.000000)">
		<g id="spec01" transform="translate(155.000000, 405.000000)">
			<g id="Group-8">
				<g id="Group" transform="translate(5.000000, 43.000000)">
					<g id="e-packet" transform="translate(340.000000, 1.000000)">
						<g id="box">
							<path id="Fill-1" fill="#090606" d="M9.1,4.1v3.5H6.4V4.1H5v4.3c0,0.4,0.3,0.8,0.7,0.8h4.1c0.4,0,0.7-0.4,0.7-0.8V4.1H9.1z"
								/>
							<path id="Fill-3" fill="#090606" d="M16.5,13.6L14,16.4H1.5v-12L4,1.6h12.5V13.6z M17.2,0H3.7C3.5,0,3.3,0.1,3.1,0.2L0.2,3.5
								C0.1,3.6,0,3.8,0,4.1v13.1C0,17.6,0.3,18,0.7,18h13.6c0.2,0,0.4-0.1,0.5-0.2l2.9-3.2c0.1-0.2,0.2-0.4,0.2-0.6V0.8
								C18,0.4,17.6,0,17.2,0z"/>
							<path id="Fill-5" fill="#090606" d="M16.7,0.2l-2.7,3H0.7v1.6h13.6c0.2,0,0.4-0.1,0.5-0.2l2.9-3.2L16.7,0.2z"/>
							<polygon id="Fill-7" fill="#090606" points="13.6,17.2 15,17.2 15,4.1 13.6,4.1 							"/>
						</g>
					</g>
				</g>
			</g>
		</g>
	</g>
</g>
</svg>
