<svg xmlns="http://www.w3.org/2000/svg" width="36" height="36" viewBox="0 0 36 36">
    <g fill="none" fill-rule="evenodd">
        <path fill="#EBEAEA" d="M36 18c0 9.94-8.06 18-18 18S0 27.94 0 18 8.06 0 18 0s18 8.06 18 18z"/>
        <path fill="#6B6B6B" d="M25 14.302c-.515.22-1.069.37-1.65.437a2.811 2.811 0 0 0 1.264-1.536c-.555.318-1.17.55-1.824.674A2.915 2.915 0 0 0 20.693 13c-1.587 0-2.872 1.244-2.872 2.777 0 .217.025.43.074.633a8.25 8.25 0 0 1-5.92-2.902 2.69 2.69 0 0 0-.39 1.396c0 .964.508 1.814 1.278 2.312a2.932 2.932 0 0 1-1.301-.348v.035c0 1.345.99 2.468 2.304 2.723a2.954 2.954 0 0 1-1.297.048c.366 1.103 1.427 1.906 2.684 1.928a5.887 5.887 0 0 1-3.568 1.189 5.91 5.91 0 0 1-.685-.039A8.332 8.332 0 0 0 15.402 24c5.284 0 8.173-4.232 8.173-7.902 0-.12-.003-.24-.008-.359A5.727 5.727 0 0 0 25 14.302z"/>
    </g>
</svg>
