<svg xmlns="http://www.w3.org/2000/svg" width="36" height="36" viewBox="0 0 36 36">
    <g fill="none" fill-rule="evenodd">
        <path fill="#EBEAEA" d="M36 18c0 9.94-8.06 18-18 18-9.941 0-18-8.06-18-18C0 8.059 8.059 0 18 0c9.94 0 18 8.059 18 18z"/>
        <path fill="#6B6B6B" d="M25.363 14.06c.423.771.637 2.099.637 4.438v.008c0 2.328-.214 3.666-.637 4.429-.406.772-.848.912-1.747.977-.9.055-3.158.088-5.114.088-1.96 0-4.22-.033-5.118-.089-.897-.065-1.339-.205-1.75-.977-.418-.763-.634-2.101-.634-4.429v-.002-.003-.003c0-2.338.216-3.666.635-4.437.41-.773.853-.914 1.75-.969.897-.064 3.157-.091 5.117-.091 1.956 0 4.215.027 5.113.092.9.054 1.34.196 1.748.968zM16.625 21l4.688-2.5-4.688-2.5v5z"/>
    </g>
</svg>
