<svg xmlns="http://www.w3.org/2000/svg" width="24" height="24" viewBox="0 0 24 24">
    <g fill="#353535" fill-rule="nonzero">
        <path d="M17.377 0H6.623A6.63 6.63 0 0 0 0 6.623v10.754A6.63 6.63 0 0 0 6.623 24h10.754A6.63 6.63 0 0 0 24 17.377V6.623A6.63 6.63 0 0 0 17.377 0zm4.494 17.377a4.499 4.499 0 0 1-4.494 4.494H6.623a4.499 4.499 0 0 1-4.494-4.494V6.623A4.499 4.499 0 0 1 6.623 2.13h10.754a4.499 4.499 0 0 1 4.494 4.494v10.754z"/>
        <path d="M12 5.829A6.178 6.178 0 0 0 5.829 12 6.178 6.178 0 0 0 12 18.171a6.178 6.178 0 0 0 6.171-6.17A6.178 6.178 0 0 0 12 5.828zm0 10.217A4.05 4.05 0 0 1 7.954 12 4.051 4.051 0 0 1 12 7.953 4.051 4.051 0 0 1 16.046 12 4.05 4.05 0 0 1 12 16.046zM18.343 4.114c-.405 0-.804.164-1.09.452a1.55 1.55 0 0 0-.453 1.091c0 .406.166.804.453 1.091.286.286.685.452 1.09.452.407 0 .804-.166 1.091-.452.288-.287.452-.686.452-1.09a1.55 1.55 0 0 0-.452-1.092 1.55 1.55 0 0 0-1.091-.452z"/>
    </g>
</svg>
