<svg xmlns="http://www.w3.org/2000/svg" width="24" height="24" viewBox="0 0 24 24">
    <g fill="#FFF" fill-rule="nonzero">
        <path d="M17.377 0H6.623A6.63 6.63 0 0 0 0 6.623v10.754A6.63 6.63 0 0 0 6.623 24h10.754A6.63 6.63 0 0 0 24 17.377V6.623A6.63 6.63 0 0 0 17.377 0zm4.494 17.377a4.499 4.499 0 0 1-4.494 4.494H6.623a4.499 4.499 0 0 1-4.494-4.494V6.623A4.499 4.499 0 0 1 6.623 2.13h10.754a4.499 4.499 0 0 1 4.494 4.494v10.754z"/>
        <path d="M14.943 15.132h-2.765c-.384 0-.711-.13-.98-.392a1.273 1.273 0 0 1-.403-.951v-.953h3.94c.355 0 .661-.123.916-.369.254-.247.382-.543.382-.887 0-.345-.128-.64-.383-.887a1.278 1.278 0 0 0-.92-.37h-3.935V8.356c0-.372-.137-.691-.41-.957-.271-.266-.6-.399-.98-.399a1.39 1.39 0 0 0-.997.392A1.283 1.283 0 0 0 8 8.357v5.432c0 1.117.408 2.072 1.225 2.864.817.794 1.802 1.19 2.954 1.19h2.765c.384 0 .713-.134.988-.4.274-.264.41-.584.41-.956s-.136-.69-.41-.956a1.373 1.373 0 0 0-.989-.4z"/>
    </g>
</svg>
