<svg xmlns="http://www.w3.org/2000/svg" width="51" height="51" viewBox="0 0 51 51">
    <g fill="#000" fill-rule="nonzero">
        <path d="M103.898 0H81.002c-7.775 0-14.1 6.314-14.1 14.074v22.852c0 7.76 6.325 14.074 14.1 14.074h22.896C111.674 51 118 44.686 118 36.926V14.074C118 6.314 111.674 0 103.898 0zm9.569 36.926c0 5.265-4.293 9.549-9.568 9.549H81.002c-5.275 0-9.567-4.284-9.567-9.55v-22.85c0-5.266 4.292-9.55 9.567-9.55h22.896c5.276 0 9.568 4.284 9.568 9.55v22.85z"/>
        <path d="M98.879 29.688H92.83c-.84 0-1.556-.288-2.143-.868a2.843 2.843 0 0 1-.882-2.11V24.6h8.619c.777 0 1.447-.274 2.003-.818.556-.55.835-1.205.835-1.968 0-.766-.28-1.421-.837-1.968a2.777 2.777 0 0 0-2.01-.819h-8.61v-4.362c0-.826-.3-1.532-.897-2.121a2.937 2.937 0 0 0-2.144-.886c-.857 0-1.587.292-2.18.868-.596.579-.893 1.292-.893 2.141v12.045c0 2.478.893 4.595 2.68 6.351 1.787 1.76 3.942 2.638 6.462 2.638h6.048c.84 0 1.56-.296 2.16-.885.6-.587.9-1.296.9-2.12 0-.825-.3-1.532-.9-2.122a2.982 2.982 0 0 0-2.162-.885zM36.448 0H13.552C5.776 0-.55 6.314-.55 14.074v22.852C-.55 44.686 5.776 51 13.55 51h22.897c7.776 0 14.101-6.314 14.101-14.074V14.074C50.55 6.314 44.224 0 36.448 0zm9.568 36.926c0 5.265-4.292 9.549-9.568 9.549H13.552c-5.276 0-9.568-4.284-9.568-9.55v-22.85c0-5.266 4.292-9.55 9.568-9.55h22.896c5.275 0 9.568 4.284 9.568 9.55v22.85z"/>
        <path d="M18.85 27.424H21.7v11.508c0 .227.188.41.42.41h4.834c.232 0 .42-.183.42-.41V27.478h3.277a.417.417 0 0 0 .417-.364l.498-4.236a.406.406 0 0 0-.104-.321.423.423 0 0 0-.313-.138h-3.775v-2.655c0-.8.44-1.207 1.307-1.207h2.468c.232 0 .42-.184.42-.411v-3.889a.415.415 0 0 0-.42-.411h-3.402a3.402 3.402 0 0 0-.156-.003c-.59 0-2.642.113-4.263 1.575-1.795 1.62-1.546 3.56-1.486 3.896v3.105H18.85a.415.415 0 0 0-.42.411v4.183c0 .227.188.411.42.411z"/>
        <g>
            <path d="M-31.003 0h-22.896C-61.674 0-68 6.314-68 14.074v22.852C-68 44.686-61.674 51-53.899 51h22.896c7.776 0 14.102-6.314 14.102-14.074V14.074C-16.901 6.314-23.227 0-31.003 0zm9.568 36.926c0 5.265-4.292 9.549-9.568 9.549h-22.896c-5.275 0-9.567-4.284-9.567-9.55v-22.85c0-5.266 4.292-9.55 9.567-9.55h22.896c5.276 0 9.568 4.284 9.568 9.55v22.85z"/>
            <path d="M-42.45 12.386c-7.246 0-13.14 5.883-13.14 13.114 0 7.231 5.894 13.114 13.14 13.114 7.245 0 13.14-5.883 13.14-13.114 0-7.231-5.895-13.114-13.14-13.114zm0 21.712c-4.75 0-8.616-3.857-8.616-8.598 0-4.742 3.865-8.599 8.615-8.599 4.751 0 8.616 3.857 8.616 8.599 0 4.741-3.865 8.598-8.616 8.598zM-28.946 8.743c-.863 0-1.71.349-2.32.96a3.291 3.291 0 0 0-.965 2.318c0 .862.353 1.708.965 2.32.609.607 1.457.959 2.32.959a3.32 3.32 0 0 0 2.324-.96 3.3 3.3 0 0 0 .961-2.319c0-.864-.35-1.71-.961-2.318a3.302 3.302 0 0 0-2.324-.96z"/>
        </g>
    </g>
</svg>
