<?xml version="1.0" encoding="UTF-8"?>
<svg width="95px" height="95px" viewBox="0 0 95 95" version="1.1" xmlns="http://www.w3.org/2000/svg" xmlns:xlink="http://www.w3.org/1999/xlink">
    <!-- Generator: sketchtool 48.2 (47327) - http://www.bohemiancoding.com/sketch -->
    <title>3AE84512-770E-4848-9107-2CFF82654CAE</title>
    <desc>Created with sketchtool.</desc>
    <defs>
        <polygon id="path-1" points="0 0.0878188976 94.9126673 0.0878188976 94.9126673 95 0 95"></polygon>
    </defs>
    <g id="5-SHOP_living_Thermal-Bottle-(SHAPL)-" stroke="none" stroke-width="1" fill="none" fill-rule="evenodd" transform="translate(-663.000000, -5691.000000)">
        <g id="Group-9" transform="translate(0.000000, 4249.000000)">
            <g id="btn_like_type2" transform="translate(663.000000, 1442.000000)">
                <path d="M38.667162,38 C37.1946508,38 36,39.2935644 36,40.887995 L36,48.110396 C36,49.7048267 37.1946508,51 38.667162,51 C39.4041605,51 40,50.3516089 40,49.555198 L40,39.4431931 C40,38.6467822 39.4041605,38 38.667162,38 Z M43,49.6034215 C43,50.3732504 43.6370806,51 44.4195989,51 L57.5896196,51 C58.2820297,50.9891135 58.9206912,50.496112 59.0250269,49.8118196 L60.983694,37.244168 C61.0406045,36.8786936 60.9473346,36.5101089 60.7228546,36.2099533 C60.4999554,35.9097978 60.167978,35.7122862 59.7917368,35.6562986 C59.719018,35.6454121 59.6478799,35.6423017 59.5672568,35.6423017 L52.9356116,35.6423017 C51.3658324,35.6423017 50.0964137,34.3903577 50.0964137,32.8491446 L50.0964137,28.6609642 C50.0964137,27.4167963 49.2648892,26.3608087 48.1203573,26 L43.1233059,37.0637636 C43.0426828,37.2410575 43,37.4354588 43,37.62986 L43,49.6034215 Z M57.7364519,54 L57.6886766,54 L38.718702,54 C35.5607555,54 33,51.4659691 33,48.3409795 L33,41.2668098 C33,38.1418202 35.5607555,35.6093652 38.718702,35.6093652 L39.7203906,35.6093652 C40.2857315,35.6093652 40.7985196,35.2800042 41.0262485,34.76784 L45.5553458,24.6852966 C46.1302418,23.4009463 47.5857956,22.7107066 48.9473913,23.1157103 C51.2979355,23.8185571 53.0162534,25.9822539 53.0162534,28.5351955 L53.0162534,31.3639179 C53.0162534,32.1455592 53.6548497,32.779067 54.4447345,32.779067 L59.6777211,32.779067 C59.8943024,32.7822187 60.1236238,32.79325 60.3513527,32.8263437 C61.4852195,32.9965398 62.4837231,33.593802 63.1637247,34.5062423 C63.8437263,35.4186825 64.1224155,36.5391402 63.9504244,37.6595979 L61.9757125,50.394364 C61.6603956,52.4572038 59.8433421,54 57.7364519,54 Z" id="Fill-1" fill="#000000"></path>
                <text id="LIKE" font-family="Roboto-Black, Roboto" font-size="14" font-weight="700" letter-spacing="0.699999988" fill="#000000">
                    <tspan x="32.2992188" y="69">LIKE</tspan>
                </text>
                <g id="icon_like">
                    <mask id="mask-2" fill="white">
                        <use xlink:href="#path-1"></use>
                    </mask>
                    <g id="Clip-4"></g>
                    <path d="M42.2498848,86.171938 L46.2539104,88.8121152 C46.9832411,89.2934734 47.92894,89.2934734 48.6582707,88.8121152 L52.6622963,86.171938 C53.1874144,85.8242904 53.8389498,85.7221841 54.4442943,85.8899301 L59.0658199,87.1638278 C59.9094124,87.3972136 60.8089203,87.1054813 61.3510561,86.4223415 L64.3437431,82.6735817 C64.7351506,82.1800679 65.3210463,81.8810423 65.9507018,81.8543002 L70.7424045,81.6379321 C71.6151703,81.5990344 72.3809675,81.042312 72.6872864,80.2254616 L74.3720404,75.7352156 C74.5957018,75.1468888 75.0576112,74.6801171 75.6483691,74.4613179 L80.1386152,72.7741329 C80.9578967,72.467814 81.512188,71.7020167 81.5510856,70.829251 L81.7674537,66.0375482 C81.796627,65.4078927 82.0956526,64.821997 82.5867352,64.4305896 L86.3354951,61.4403337 C87.0162037,60.8957667 87.3103671,59.9962589 87.0769813,59.1550974 L85.8030837,54.5287096 C85.6353376,53.9233652 85.739875,53.2742608 86.0850915,52.7467116 L88.7252687,48.7451171 C89.206627,48.0157864 89.206627,47.0725187 88.7252687,46.343188 L86.0850915,42.3391624 C85.739875,41.8140443 85.6353376,41.16494 85.8030837,40.5571644 L87.0769813,35.9332077 C87.3103671,35.0920463 87.0162037,34.1925384 86.3354951,33.6479715 L82.5867352,30.6577156 C82.0956526,30.263877 81.796627,29.6779813 81.7674537,29.0483258 L81.5510856,24.2590541 C81.512188,23.3862884 80.9578967,22.6204911 80.1386152,22.3141722 L75.6483691,20.6269872 C75.0576112,20.4057569 74.5957018,19.9414163 74.3720404,19.3530896 L72.6872864,14.8628435 C72.3809675,14.0459931 71.6151703,13.4892707 70.7424045,13.4479419 L65.9507018,13.2340049 C65.3210463,13.2048317 64.7351506,12.9058061 64.3437431,12.4147234 L61.3510561,8.66596358 C60.8089203,7.98282382 59.9094124,7.69109154 59.0658199,7.92204626 L54.4442943,9.198375 C53.8389498,9.36612106 53.1874144,9.26158366 52.6622963,8.91636713 L48.6582707,6.27375886 C47.92894,5.79240059 46.9832411,5.79240059 46.2539104,6.27375886 L42.2498848,8.91636713 C41.7247667,9.26158366 41.0756624,9.36612106 40.4703179,9.198375 L35.8463612,7.92204626 C35.0051998,7.69109154 34.1032608,7.98282382 33.561125,8.66596358 L30.568438,12.4147234 C30.1770305,12.9058061 29.5911348,13.2048317 28.9614793,13.2340049 L24.1697766,13.4479419 C23.2970108,13.4892707 22.5336447,14.0459931 22.2273258,14.8628435 L20.5401407,19.3530896 C20.3189104,19.9414163 19.8545699,20.4057569 19.263812,20.6269872 L14.7735659,22.3141722 C13.9542844,22.6204911 13.3999931,23.3862884 13.3610955,24.2590541 L13.1447274,29.0483258 C13.1179852,29.6779813 12.8189596,30.263877 12.3254459,30.6577156 L8.57668602,33.6479715 C7.89597736,34.1925384 7.60181398,35.0920463 7.8351998,35.9332077 L9.10909744,40.5571644 C9.2768435,41.16494 9.1747372,41.8140443 8.82708957,42.3391624 L6.1869124,46.343188 C5.70555413,47.0725187 5.70555413,48.0157864 6.1869124,48.7451171 L8.82708957,52.7467116 C9.1747372,53.2742608 9.2768435,53.9233652 9.10909744,54.5287096 L7.8351998,59.1550974 C7.60181398,59.9962589 7.89597736,60.8957667 8.57668602,61.4403337 L12.3254459,64.4305896 C12.8189596,64.821997 13.1179852,65.4078927 13.1447274,66.0375482 L13.3610955,70.829251 C13.3999931,71.7020167 13.9542844,72.467814 14.7735659,72.7741329 L19.263812,74.4613179 C19.8545699,74.6801171 20.3189104,75.1468888 20.5401407,75.7352156 L22.2273258,80.2254616 C22.5336447,81.042312 23.2970108,81.5990344 24.1697766,81.6379321 L28.9614793,81.8543002 C29.5911348,81.8810423 30.1770305,82.1800679 30.568438,82.6735817 L33.561125,86.4223415 C34.1032608,87.1054813 35.0051998,87.3972136 35.8463612,87.1638278 L40.4703179,85.8899301 C41.0756624,85.7221841 41.7247667,85.8242904 42.2498848,86.171938 M46.2539104,94.6394675 L41.4135856,91.4474301 C40.8884675,91.0997825 40.2393632,90.9976762 39.6340187,91.1654222 L34.0473455,92.7067411 C33.203753,92.9376959 32.3042451,92.6459636 31.7621093,91.9628238 L28.1421978,87.431249 C27.7507904,86.9377352 27.1648947,86.6387096 26.5352392,86.6119675 L20.7467844,86.3518396 C19.8740187,86.3105108 19.1082215,85.7562195 18.8019026,84.936938 L16.7670699,79.5107175 C16.5434085,78.9223907 16.0790679,78.4556191 15.48831,78.2343888 L10.0645207,76.197125 C9.24523917,75.8908061 8.68851673,75.1250089 8.6520502,74.2522431 L8.38706004,68.4613573 C8.36031791,67.8341329 8.06129232,67.2458061 7.56777854,66.8543986 L3.03620374,63.2393494 C2.35549508,62.6947825 2.06133169,61.7952746 2.29228642,60.9541132 L3.83360531,55.3650089 C4.00378248,54.7596644 3.89924508,54.11056 3.55159744,53.5830108 L0.361991142,48.7451171 C-0.121798228,48.0157864 -0.121798228,47.0725187 0.361991142,46.343188 L3.55159744,41.5028632 C3.89924508,40.9777451 4.00378248,40.3286407 3.83360531,39.7232963 L2.29228642,34.1341919 C2.06133169,33.2930305 2.35549508,32.3910915 3.03620374,31.8489557 L7.56777854,28.2314754 C8.06129232,27.8400679 8.36031791,27.2541722 8.38706004,26.6245167 L8.6520502,20.836062 C8.68851673,19.9632963 9.24523917,19.197499 10.0645207,18.8911801 L15.48831,16.8514852 C16.0790679,16.632686 16.5434085,16.1659144 16.7670699,15.5751565 L18.8019026,10.148936 C19.1082215,9.33208563 19.8740187,8.77779429 20.7467844,8.73646555 L26.5352392,8.4763376 C27.1648947,8.44716437 27.7507904,8.14813878 28.1421978,7.6570561 L31.7621093,3.1230502 C32.3042451,2.44234154 33.203753,2.14817815 34.0473455,2.38156398 L39.6340187,3.92288287 C40.2393632,4.09062894 40.8884675,3.98609154 41.4135856,3.640875 L46.2539104,0.448837598 C46.9832411,-0.0325206693 47.92894,-0.0325206693 48.6582707,0.448837598 L53.4985955,3.640875 C54.0237136,3.98609154 54.6728179,4.09062894 55.2781624,3.92288287 L60.8648356,2.38156398 C61.7084281,2.14817815 62.607936,2.44234154 63.152503,3.1230502 L66.7699833,7.6570561 C67.1613907,8.14813878 67.7472864,8.44716437 68.3769419,8.4763376 L74.1653967,8.73646555 C75.0381624,8.77779429 75.8039596,9.33208563 76.1102785,10.148936 L78.1475423,15.5751565 C78.3687726,16.1659144 78.8331132,16.632686 79.4238711,16.8514852 L84.8476604,18.8911801 C85.6669419,19.197499 86.2236644,19.9632963 86.262562,20.836062 L86.5251211,26.6245167 C86.5542943,27.2541722 86.8533199,27.8400679 87.3444026,28.2314754 L91.8759774,31.8489557 C92.556686,32.3910915 92.8508494,33.2930305 92.6198947,34.1341919 L91.0785758,39.7232963 C90.9108297,40.3286407 91.0153671,40.9777451 91.3605837,41.5028632 L94.5526211,46.343188 C95.0339793,47.0725187 95.0339793,48.0157864 94.5526211,48.7451171 L91.3605837,53.5830108 C91.0153671,54.11056 90.9108297,54.7596644 91.0785758,55.3650089 L92.6198947,60.9541132 C92.8508494,61.7952746 92.556686,62.6947825 91.8759774,63.2393494 L87.3444026,66.8543986 C86.8533199,67.2458061 86.5542943,67.8341329 86.5251211,68.4613573 L86.262562,74.2522431 C86.2236644,75.1250089 85.6669419,75.8908061 84.8476604,76.197125 L79.4238711,78.2343888 C78.8331132,78.4556191 78.3687726,78.9223907 78.1475423,79.5107175 L76.1102785,84.936938 C75.8039596,85.7562195 75.0381624,86.3105108 74.1653967,86.3518396 L68.3769419,86.6119675 C67.7472864,86.6387096 67.1613907,86.9377352 66.7699833,87.431249 L63.152503,91.9628238 C62.607936,92.6459636 61.7084281,92.9376959 60.8648356,92.7067411 L55.2781624,91.1654222 C54.6728179,90.9976762 54.0237136,91.0997825 53.4985955,91.4474301 L48.6582707,94.6394675 C47.92894,95.1208258 46.9832411,95.1208258 46.2539104,94.6394675" id="Fill-3" fill="#000000" mask="url(#mask-2)"></path>
                </g>
            </g>
        </g>
    </g>
</svg>