<svg xmlns="http://www.w3.org/2000/svg" width="24" height="24" viewBox="0 0 24 24">
    <g fill="#FFF" fill-rule="nonzero">
        <path d="M17.377 0H6.623A6.63 6.63 0 0 0 0 6.623v10.754A6.63 6.63 0 0 0 6.623 24h10.754A6.63 6.63 0 0 0 24 17.377V6.623A6.63 6.63 0 0 0 17.377 0zm4.494 17.377a4.499 4.499 0 0 1-4.494 4.494H6.623a4.499 4.499 0 0 1-4.494-4.494V6.623A4.499 4.499 0 0 1 6.623 2.13h10.754a4.499 4.499 0 0 1 4.494 4.494v10.754z"/>
        <path d="M9.111 12.905h1.34v5.416c0 .107.088.193.197.193h2.27a.195.195 0 0 0 .197-.193v-5.39h1.54c.1 0 .184-.074.196-.171l.233-1.994a.191.191 0 0 0-.048-.151.199.199 0 0 0-.147-.065h-1.774V9.3c0-.376.207-.567.614-.567h1.16a.195.195 0 0 0 .197-.194V6.71a.195.195 0 0 0-.197-.193H13.29l-.073-.002c-.278 0-1.241.054-2.003.742-.843.762-.726 1.675-.698 1.833v1.461H9.111a.195.195 0 0 0-.197.194v1.968c0 .107.088.193.197.193z"/>
    </g>
</svg>
