<svg xmlns="http://www.w3.org/2000/svg" xmlns:xlink="http://www.w3.org/1999/xlink" width="24" height="24" viewBox="0 0 24 24">
    <defs>
        <path id="a" d="M0 0h7.543v10.147H0z"/>
    </defs>
    <g fill="none" fill-rule="evenodd">
        <path fill="#FFF" fill-rule="nonzero" d="M17.377 0H6.623A6.63 6.63 0 0 0 0 6.623v10.754A6.63 6.63 0 0 0 6.623 24h10.754A6.63 6.63 0 0 0 24 17.377V6.623A6.63 6.63 0 0 0 17.377 0zm4.494 17.377a4.499 4.499 0 0 1-4.494 4.494H6.623a4.499 4.499 0 0 1-4.494-4.494V6.623A4.499 4.499 0 0 1 6.623 2.13h10.754a4.499 4.499 0 0 1 4.494 4.494v10.754z"/>
        <g transform="translate(9 7)">
            <mask id="b" fill="#fff">
                <use xlink:href="#a"/>
            </mask>
            <path fill="#FFF" d="M.97 10.055l.083-.057 6.152-4.312a.746.746 0 0 0 .338-.61.756.756 0 0 0-.338-.608L1.065.158.963.087A.713.713 0 0 0 .621 0C.279 0 0 .235 0 .526v9.095c0 .291.28.526.621.526.13 0 .252-.035.35-.092" mask="url(#b)"/>
        </g>
    </g>
</svg>
