<?xml version="1.0" encoding="utf-8"?>
<!-- Generator: Adobe Illustrator 22.1.0, SVG Export Plug-In . SVG Version: 6.00 Build 0)  -->
<svg version="1.1" id="레이어_1" xmlns="http://www.w3.org/2000/svg" xmlns:xlink="http://www.w3.org/1999/xlink" x="0px"
	 y="0px" viewBox="0 0 76 82" style="enable-background:new 0 0 76 82;" xml:space="preserve">
<style type="text/css">
	.st0{fill:#82B3AF;}
</style>
<g>
	<path class="st0" d="M36,38.5v33.2c0.9,0,1.7-0.2,2.5-0.6l22.6-11.3c1.9-1,3.1-2.9,3.1-5.1V27.9c0-1.1-0.3-2.2-0.9-3L36,38.5z"/>
	<g>
		<path class="st0" d="M24.8-1.6"/>
		<path class="st0" d="M76,18.3l-11.6,6.1l-11.6,6l-5.8,3l-2.9,1.5c-1,0.5-1.9,1-2.9,1.5l-2.9,1.4c-1,0.5-2,0.9-3,1.4
			c-2,0.9-4,1.8-6,2.7c0,0-0.1,0-0.1,0c0,0,0,0,0-0.1c1.9-1.1,3.8-2.2,5.7-3.2c1-0.5,1.9-1,2.9-1.6l2.9-1.5c1-0.5,1.9-1,2.9-1.5
			l2.9-1.4l5.9-2.9l11.7-5.8L76,18.3C76,18.2,76,18.2,76,18.3C76,18.3,76,18.3,76,18.3z"/>
		<path class="st0" d="M40.8,7.7c-3.3,1.8-6.6,3.5-9.9,5.2l-10,5.2l-5,2.6L13.5,22c-0.8,0.4-1.7,0.8-2.5,1.2l-2.5,1.2
			c-0.8,0.4-1.7,0.8-2.5,1.2c-1.7,0.8-3.4,1.5-5.1,2.3c0,0-0.1,0-0.1,0c0,0,0,0,0-0.1c1.6-1,3.2-1.9,4.9-2.8
			c0.8-0.5,1.6-0.9,2.5-1.3l2.5-1.3c0.8-0.4,1.7-0.9,2.5-1.3l2.5-1.2l5.1-2.4l10.1-4.9C34.1,10.8,37.4,9.2,40.8,7.7
			C40.8,7.6,40.8,7.6,40.8,7.7C40.9,7.7,40.9,7.7,40.8,7.7z"/>
		<path class="st0" d="M0.1,20.5l10.3,5l10.3,5l5.1,2.5l2.6,1.3c0.8,0.4,1.7,0.9,2.5,1.3l2.5,1.3c0.8,0.5,1.7,0.9,2.5,1.4
			c1.7,0.9,3.3,1.9,5,2.8c0,0,0,0,0,0.1c0,0,0,0-0.1,0c-1.8-0.7-3.5-1.5-5.2-2.3c-0.9-0.4-1.7-0.8-2.6-1.2l-2.6-1.2
			c-0.9-0.4-1.7-0.8-2.6-1.3l-2.5-1.3l-5.1-2.7l-10.1-5.3L0.1,20.5C0,20.6,0,20.6,0.1,20.5C0,20.5,0,20.5,0.1,20.5z"/>
		<path class="st0" d="M22.8,3.6l12,5.8l11.9,5.9l6,2.9l3,1.5c1,0.5,2,1,3,1.5l3,1.5c1,0.5,2,1,2.9,1.6c2,1,3.9,2.1,5.8,3.2
			c0,0,0,0,0,0.1c0,0,0,0-0.1,0c-2-0.9-4.1-1.8-6.1-2.8c-1-0.5-2-1-3-1.4l-3-1.4c-1-0.5-2-1-3-1.5l-3-1.5l-5.9-3.1L34.6,9.8
			L22.8,3.6C22.7,3.7,22.7,3.7,22.8,3.6C22.7,3.6,22.8,3.6,22.8,3.6z"/>
		<path class="st0" d="M76,52.1l-11.6,6.1l-11.6,6l-5.8,3l-2.9,1.5c-1,0.5-1.9,1-2.9,1.5l-2.9,1.4c-1,0.5-2,0.9-3,1.4
			c-2,0.9-4,1.8-6,2.7c0,0-0.1,0-0.1,0c0,0,0,0,0-0.1c1.9-1.1,3.8-2.2,5.7-3.2c1-0.5,1.9-1,2.9-1.6l2.9-1.5c1-0.5,1.9-1,2.9-1.5
			l2.9-1.4l5.9-2.9l11.7-5.8L76,52.1C76,52,76,52,76,52.1C76,52.1,76,52.1,76,52.1z"/>
		<path class="st0" d="M64,19.3L64.1,31l0.1,11.6c0,3.9,0.1,7.7,0.1,11.6c0,1.9,0,3.9-0.1,5.8l-0.1,2.9c0,1-0.1,1.9-0.1,2.9
			c0,0,0,0,0,0c0,0,0,0,0,0c-0.1-1-0.1-1.9-0.1-2.9L63.7,60c-0.1-1.9-0.1-3.9-0.1-5.8c0-3.9,0-7.7,0.1-11.6L63.8,31L64,19.3
			C63.9,19.3,63.9,19.3,64,19.3C64,19.3,64,19.3,64,19.3z"/>
		<path class="st0" d="M7.5,20.8l0.1,11.7l0.1,11.7c0,3.9,0.1,7.8,0.1,11.7c0,2,0,3.9-0.1,5.9l-0.1,2.9c0,1-0.1,2-0.1,2.9
			c0,0,0,0,0,0c0,0,0,0,0,0c-0.1-1-0.1-2-0.1-2.9l-0.1-2.9c-0.1-2-0.1-3.9-0.1-5.9c0-3.9,0-7.8,0.1-11.7l0.1-11.7L7.5,20.8
			C7.4,20.8,7.4,20.8,7.5,20.8C7.4,20.8,7.5,20.8,7.5,20.8z"/>
		<g>
			<path class="st0" d="M35.8,38.9c-0.1,0-0.1,0-0.2,0L8.3,25.2c-0.1-0.1-0.2-0.1-0.2-0.3c0-0.1,0-0.2,0.1-0.3
				c0.6-0.9,1.4-1.7,2.4-2.1l22.6-11.3c1.7-0.8,3.7-0.8,5.4,0l22.6,11.3c1,0.5,1.8,1.2,2.4,2.2c0.1,0.1,0.1,0.2,0.1,0.3
				c0,0.1-0.1,0.2-0.2,0.3L36,38.8C36,38.9,35.9,38.9,35.8,38.9z M9.1,24.6L35.8,38l26.7-13.4c-0.5-0.6-1.1-1.1-1.8-1.5L38.2,11.9
				c-1.5-0.7-3.2-0.7-4.7,0L10.9,23.2C10.2,23.5,9.6,24,9.1,24.6z"/>
			<path class="st0" d="M35.8,72.1c-0.1,0-0.2,0-0.3-0.1c-0.1-0.1-0.1-0.2-0.1-0.3V38.5c0-0.2,0.1-0.3,0.2-0.4L63,24.4
				c0.2-0.1,0.4,0,0.5,0.1c0.6,1,1,2.1,1,3.3v26.9c0,2.3-1.3,4.4-3.4,5.4L38.5,71.5C37.7,71.9,36.8,72.1,35.8,72.1
				C35.8,72.1,35.8,72.1,35.8,72.1z M36.2,38.7v32.6c0.7-0.1,1.3-0.2,1.9-0.5l22.6-11.3c1.8-0.9,2.9-2.7,2.9-4.7V27.9
				c0-0.9-0.2-1.7-0.6-2.5L36.2,38.7z"/>
			<path class="st0" d="M35.8,72.1c-0.9,0-1.9-0.2-2.7-0.6L10.5,60.2c-2.1-1-3.4-3.1-3.3-5.5V27.9c0-1.2,0.3-2.3,1-3.3
				c0.1-0.2,0.3-0.2,0.5-0.1L36,38.1c0.1,0.1,0.2,0.2,0.2,0.4v33.2C36.2,71.9,36.1,72.1,35.8,72.1C35.8,72.1,35.8,72.1,35.8,72.1z
				 M8.7,25.3C8.2,26.1,8,27,8,27.9v26.9c0,2,1.1,3.8,2.9,4.7l22.6,11.3c0.6,0.3,1.3,0.5,1.9,0.5V38.7L8.7,25.3z"/>
		</g>
	</g>
</g>
</svg>
