<svg xmlns="http://www.w3.org/2000/svg" width="20" height="20" viewBox="0 0 20 20">
    <g fill="none" fill-rule="evenodd">
        <path fill="#FFF" fill-rule="nonzero" d="M17.303 0H2.695A2.695 2.695 0 0 0 0 2.695v14.608a2.695 2.695 0 0 0 2.695 2.695H9.9l.012-7.146H8.055a.438.438 0 0 1-.438-.436l-.009-2.304c0-.243.196-.44.438-.44H9.9V7.446c0-2.583 1.577-3.989 3.881-3.989h1.891c.242 0 .438.196.438.438v1.942a.438.438 0 0 1-.437.438l-1.16.001c-1.254 0-1.497.595-1.497 1.47v1.926h2.754c.262 0 .466.23.435.49l-.273 2.304a.438.438 0 0 1-.435.386h-2.468l-.013 7.146h4.287a2.695 2.695 0 0 0 2.695-2.694V2.694A2.695 2.695 0 0 0 17.303 0z"/>
        <path d="M0 0h20v20H0z"/>
    </g>
</svg>
