<?xml version="1.0" encoding="utf-8"?>
<!-- Generator: Adobe Illustrator 16.0.0, SVG Export Plug-In . SVG Version: 6.00 Build 0)  -->
<!DOCTYPE svg PUBLIC "-//W3C//DTD SVG 1.1//EN" "http://www.w3.org/Graphics/SVG/1.1/DTD/svg11.dtd">
<svg version="1.1" id="Layer_1" xmlns="http://www.w3.org/2000/svg" xmlns:xlink="http://www.w3.org/1999/xlink" x="0px" y="0px"
	 width="33px" height="33px" viewBox="0 0 33 33" enable-background="new 0 0 33 33" xml:space="preserve">
<title>892E74C1-1335-42F5-8D55-12C95ACA4451</title>
<desc>Created with sketchtool.</desc>
<g id="footer---large-screen" transform="translate(-673.000000, -184.000000)">
	<g id="footer" transform="translate(0.000000, 1.000000)">
		<g id="social-media-icon" transform="translate(562.000000, 183.000000)">
			<g id="facebook" transform="translate(68.000000, 0.000000)">
				<g transform="translate(43.000000, 0.000000)">
					<path id="Shape" fill="#231F20" d="M23.893,0H9.106C4.085,0,0,4.085,0,9.107v14.786C0,28.914,4.085,33,9.106,33h14.786
						C28.914,33,33,28.914,33,23.893V9.107C33,4.085,28.914,0,23.893,0z M30.072,23.893c0,3.408-2.771,6.18-6.18,6.18H9.106
						c-3.407,0-6.179-2.771-6.179-6.18V9.107c0-3.407,2.772-6.179,6.179-6.179h14.786c3.408,0,6.18,2.772,6.18,6.179V23.893
						L30.072,23.893z"/>
					<path id="XMLID_835_" fill="#231F20" d="M12.528,17.745h1.842v7.446c0,0.146,0.121,0.266,0.271,0.266h3.122
						c0.149,0,0.271-0.119,0.271-0.266V17.78h2.117c0.138,0,0.254-0.102,0.27-0.235l0.321-2.742
						c0.009-0.076-0.016-0.151-0.067-0.208c-0.051-0.057-0.125-0.089-0.201-0.089h-2.439v-1.718c0-0.518,0.284-0.78,0.844-0.78
						c0.08,0,1.596,0,1.596,0c0.148,0,0.27-0.12,0.27-0.267V9.225c0-0.147-0.121-0.266-0.27-0.266h-2.197
						c-0.016,0-0.051-0.002-0.102-0.002c-0.381,0-1.706,0.074-2.752,1.02c-1.16,1.048-0.999,2.303-0.96,2.521v2.009h-1.934
						c-0.149,0-0.271,0.119-0.271,0.266v2.706C12.257,17.626,12.378,17.745,12.528,17.745z"/>
				</g>
			</g>
		</g>
	</g>
</g>
</svg>
