<?xml version="1.0" encoding="UTF-8"?>
<svg width="33px" height="33px" viewBox="0 0 33 33" version="1.1" xmlns="http://www.w3.org/2000/svg" xmlns:xlink="http://www.w3.org/1999/xlink">
    <!-- Generator: sketchtool 48.2 (47327) - http://www.bohemiancoding.com/sketch -->
    <title>E83BD9DE-11B2-4090-8081-322ECBDBF72D</title>
    <desc>Created with sketchtool.</desc>
    <defs></defs>
    <g id="footer---large-screen" stroke="none" stroke-width="1" fill="none" fill-rule="evenodd" transform="translate(-630.000000, -184.000000)">
        <g id="footer" transform="translate(0.000000, 1.000000)" fill="#FFFFFF" fill-rule="nonzero">
            <g id="social-media-icon" transform="translate(562.000000, 183.000000)">
                <g transform="translate(68.000000, 0.000000)" id="instagram-logo">
                    <g>
                        <path d="M23.8929978,0 L9.10661178,0 C4.08522909,0 0,4.08542428 0,9.10680697 L0,23.893193 C0,28.9147709 4.08522909,33 9.10661178,33 L23.8929978,33 C28.9147709,33 33,28.9145757 33,23.893193 L33,9.10680697 C33.0001952,4.08542428 28.9147709,0 23.8929978,0 Z M30.0722753,23.893193 C30.0722753,27.3003159 27.3003159,30.0720801 23.893193,30.0720801 L9.10661178,30.0720801 C5.69968414,30.0722753 2.92791993,27.3003159 2.92791993,23.893193 L2.92791993,9.10680697 C2.92791993,5.69987933 5.69968414,2.92791993 9.10661178,2.92791993 L23.8929978,2.92791993 C27.3001207,2.92791993 30.0720801,5.69987933 30.0720801,9.10680697 L30.0720801,23.893193 L30.0722753,23.893193 Z" id="Shape"></path>
                        <path d="M16.5,8.01428571 C11.8209067,8.01428571 8.01428571,11.8209941 8.01428571,16.5001948 C8.01428571,21.1792007 11.8209067,24.9857143 16.5,24.9857143 C21.1790933,24.9857143 24.9857143,21.1792007 24.9857143,16.5001948 C24.9857143,11.8209941 21.1790933,8.01428571 16.5,8.01428571 Z M16.5,22.0635757 C13.4322243,22.0635757 10.9361624,19.5678462 10.9361624,16.5 C10.9361624,13.431959 13.4320295,10.9360347 16.5,10.9360347 C19.5679705,10.9360347 22.0638376,13.431959 22.0638376,16.5 C22.0638376,19.5678462 19.5677757,22.0635757 16.5,22.0635757 Z" id="Shape"></path>
                        <path d="M25.2214286,5.65714286 C24.6640714,5.65714286 24.11655,5.88278571 23.7229286,6.27814286 C23.3273786,6.67157143 23.1,7.21928571 23.1,7.77857143 C23.1,8.33612143 23.3275714,8.88364286 23.7229286,9.279 C24.1163571,9.67242857 24.6640714,9.9 25.2214286,9.9 C25.7807143,9.9 26.3265,9.67242857 26.7218571,9.279 C27.1172143,8.88364286 27.3428571,8.33592857 27.3428571,7.77857143 C27.3428571,7.21928571 27.1172143,6.67157143 26.7218571,6.27814286 C26.3284286,5.88278571 25.7807143,5.65714286 25.2214286,5.65714286 Z" id="Shape"></path>
                    </g>
                </g>
            </g>
        </g>
    </g>
</svg>