<?xml version="1.0" encoding="UTF-8"?>
<svg width="33px" height="33px" viewBox="0 0 33 33" version="1.1" xmlns="http://www.w3.org/2000/svg" xmlns:xlink="http://www.w3.org/1999/xlink">
    <!-- Generator: sketchtool 48.2 (47327) - http://www.bohemiancoding.com/sketch -->
    <title>892E74C1-1335-42F5-8D55-12C95ACA4451</title>
    <desc>Created with sketchtool.</desc>
    <defs></defs>
    <g id="footer---large-screen" stroke="none" stroke-width="1" fill="none" fill-rule="evenodd" transform="translate(-673.000000, -184.000000)">
        <g id="footer" transform="translate(0.000000, 1.000000)" fill="#FFFFFF" fill-rule="nonzero">
            <g id="social-media-icon" transform="translate(562.000000, 183.000000)">
                <g transform="translate(68.000000, 0.000000)" id="facebook">
                    <g transform="translate(43.000000, 0.000000)">
                        <path d="M23.8929978,0 L9.10661178,0 C4.08522909,0 0,4.08542428 0,9.10680697 L0,23.893193 C0,28.9147709 4.08522909,33 9.10661178,33 L23.8929978,33 C28.9147709,33 33,28.9145757 33,23.893193 L33,9.10680697 C33.0001952,4.08542428 28.9147709,0 23.8929978,0 Z M30.0722753,23.893193 C30.0722753,27.3003159 27.3003159,30.0720801 23.893193,30.0720801 L9.10661178,30.0720801 C5.69968414,30.0722753 2.92791993,27.3003159 2.92791993,23.893193 L2.92791993,9.10680697 C2.92791993,5.69987933 5.69968414,2.92791993 9.10661178,2.92791993 L23.8929978,2.92791993 C27.3001207,2.92791993 30.0720801,5.69987933 30.0720801,9.10680697 L30.0720801,23.893193 L30.0722753,23.893193 Z" id="Shape"></path>
                        <path d="M12.5280875,17.7450429 L14.3694812,17.7450429 L14.3694812,25.1910138 C14.3694812,25.3380235 14.490756,25.4571429 14.6404258,25.4571429 L17.7625748,25.4571429 C17.9122446,25.4571429 18.0335194,25.3380235 18.0335194,25.1910138 L18.0335194,17.7801187 L20.1503555,17.7801187 C20.2879953,17.7801187 20.4037971,17.6786703 20.4195118,17.5443816 L20.7410147,14.8031461 C20.7498475,14.7277251 20.7255167,14.6521977 20.6741456,14.5956187 C20.6227203,14.5389864 20.5491317,14.5065719 20.4719125,14.5065719 L18.0336278,14.5065719 L18.0336278,12.78823 C18.0336278,12.2702364 18.3175777,12.0075671 18.8776744,12.0075671 C18.9574947,12.0075671 20.4719125,12.0075671 20.4719125,12.0075671 C20.6215823,12.0075671 20.7428571,11.8883945 20.7428571,11.741438 L20.7428571,9.22524124 C20.7428571,9.07823157 20.6215823,8.95911221 20.4719125,8.95911221 L18.2748227,8.95911221 C18.2593246,8.95836705 18.2249147,8.95714286 18.1741938,8.95714286 C17.7929748,8.95714286 16.4678931,9.0306477 15.4211798,9.97647028 C14.2614285,11.0245929 14.4226406,12.2795509 14.4611689,12.497138 L14.4611689,14.5065187 L12.5280875,14.5065187 C12.3784177,14.5065187 12.2571429,14.625638 12.2571429,14.7726477 L12.2571429,17.4788606 C12.2571429,17.6258703 12.3784177,17.7450429 12.5280875,17.7450429 Z" id="XMLID_835_"></path>
                    </g>
                </g>
            </g>
        </g>
    </g>
</svg>