<?xml version="1.0" encoding="UTF-8"?>
<svg width="34px" height="33px" viewBox="0 0 34 33" version="1.1" xmlns="http://www.w3.org/2000/svg" xmlns:xlink="http://www.w3.org/1999/xlink">
    <!-- Generator: sketchtool 48.2 (47327) - http://www.bohemiancoding.com/sketch -->
    <title>B40CDE38-3907-43F5-9F22-434B95098CD4</title>
    <desc>Created with sketchtool.</desc>
    <defs></defs>
    <g id="footer---large-screen" stroke="none" stroke-width="1" fill="none" fill-rule="evenodd" transform="translate(-717.000000, -184.000000)">
        <g id="footer" transform="translate(0.000000, 1.000000)" fill="#FFFFFF" fill-rule="nonzero">
            <g id="social-media-icon" transform="translate(562.000000, 183.000000)">
                <g transform="translate(68.000000, 0.000000)" id="twitter-letter-logo">
                    <g transform="translate(87.000000, 0.000000)">
                        <path d="M23.9600587,0 L9.13217146,0 C4.09669517,0 0,4.08542428 0,9.10680697 L0,23.893193 C0,28.9147709 4.09669517,33 9.13217146,33 L23.9600587,33 C28.9959265,33 33.0926217,28.9145757 33.0926217,23.893193 L33.0926217,9.10680697 C33.0928174,4.08542428 28.9959265,0 23.9600587,0 Z M30.1566796,23.893193 C30.1566796,27.3003159 27.3769401,30.0720801 23.9602545,30.0720801 L9.13217146,30.0720801 C5.71568154,30.0722753 2.93613778,27.3003159 2.93613778,23.893193 L2.93613778,9.10680697 C2.93613778,5.69987933 5.71568154,2.92791993 9.13217146,2.92791993 L23.9600587,2.92791993 C27.3767444,2.92791993 30.1564839,5.69987933 30.1564839,9.10680697 L30.1564839,23.893193 L30.1566796,23.893193 Z" id="Shape"></path>
                        <path d="M20.7093781,19.2100229 L16.792124,19.2100229 C16.2475856,19.2100229 15.7845428,19.0233371 15.4040538,18.6482371 C15.021801,18.2727914 14.8328795,17.8190414 14.8328795,17.2830114 L14.8328795,15.9167486 L20.4146183,15.9167486 C20.9180561,15.9167486 21.3516406,15.73957 21.7118438,15.38746 C22.0718706,15.0324114 22.2526778,14.6080471 22.2526778,14.1141943 C22.2526778,13.6186129 22.0718706,13.1947671 21.7107854,12.8409286 C21.3493474,12.4879543 20.9143517,12.3109486 20.4087972,12.3109486 L14.8327031,12.3109486 L14.8327031,9.48819143 C14.8327031,8.95406286 14.6383133,8.49685571 14.2523561,8.11587857 C13.8681628,7.73421 13.4031796,7.54285714 12.863404,7.54285714 C12.3084582,7.54285714 11.8358899,7.73144429 11.4515202,8.10464286 C11.0657394,8.47905143 10.87329,8.94023429 10.87329,9.48992 L10.87329,17.2838757 C10.87329,18.8869529 11.4515202,20.2565 12.6085099,21.3932086 C13.7663816,22.5321643 15.1622132,23.1 16.7942407,23.1 L20.7107893,23.1 C21.2544457,23.1 21.7213693,22.9086471 22.1096196,22.5271514 C22.4982228,22.1473843 22.6920834,21.6889671 22.6920834,21.1553571 C22.6920834,20.6215743 22.4982228,20.1641943 22.1096196,19.7826986 C21.7211929,19.4020671 21.2537401,19.2100229 20.7093781,19.2100229 Z" id="Twitter"></path>
                    </g>
                </g>
            </g>
        </g>
    </g>
</svg>