<?xml version="1.0" encoding="UTF-8"?>
<svg width="34px" height="33px" viewBox="0 0 34 33" version="1.1" xmlns="http://www.w3.org/2000/svg" xmlns:xlink="http://www.w3.org/1999/xlink">
    <!-- Generator: sketchtool 48.2 (47327) - http://www.bohemiancoding.com/sketch -->
    <title>D97AE10D-F7B4-4708-9822-0D011E155A70</title>
    <desc>Created with sketchtool.</desc>
    <defs>
        <polygon id="path-1" points="0 0 10.6857143 0 10.6857143 14.5588235 0 14.5588235"></polygon>
    </defs>
    <g id="footer---large-screen" stroke="none" stroke-width="1" fill="none" fill-rule="evenodd" transform="translate(-760.000000, -184.000000)">
        <g id="footer" transform="translate(0.000000, 1.000000)">
            <g id="social-media-icon" transform="translate(562.000000, 183.000000)">
                <g transform="translate(68.000000, 0.000000)" id="youtube-logo">
                    <g transform="translate(130.000000, 0.000000)">
                        <path d="M23.9600587,0 L9.13217146,0 C4.09669517,0 0,4.08542428 0,9.10680697 L0,23.893193 C0,28.9147709 4.09669517,33 9.13217146,33 L23.9600587,33 C28.9959265,33 33.0926217,28.9145757 33.0926217,23.893193 L33.0926217,9.10680697 C33.0928174,4.08542428 28.9959265,0 23.9600587,0 Z M30.1566796,23.893193 C30.1566796,27.3003159 27.3769401,30.0720801 23.9602545,30.0720801 L9.13217146,30.0720801 C5.71568154,30.0722753 2.93613778,27.3003159 2.93613778,23.893193 L2.93613778,9.10680697 C2.93613778,5.69987933 5.71568154,2.92791993 9.13217146,2.92791993 L23.9600587,2.92791993 C27.3767444,2.92791993 30.1564839,5.69987933 30.1564839,9.10680697 L30.1564839,23.893193 L30.1566796,23.893193 Z" id="Shape" fill="#FFFFFF" fill-rule="nonzero"></path>
                        <g id="&gt;" transform="translate(12.692622, 8.735294)">
                            <mask id="mask-2" fill="white">
                                <use xlink:href="#path-1"></use>
                            </mask>
                            <g id="Clip-2"></g>
                            <path d="M1.37538897,14.4269293 L1.49232487,14.3450356 L10.2068339,8.1575163 C10.5019022,7.94823256 10.6857143,7.63430695 10.6857143,7.28398416 C10.6857143,6.93366137 10.4963895,6.61973576 10.2068339,6.41045202 L1.50903,0.227482329 L1.36425221,0.122840457 C1.22504281,0.0454964657 1.05799151,0 0.879803469,0 C0.395354723,0 0,0.336673846 0,0.755241331 L0,13.8036277 C0,14.2221952 0.395354723,14.5588235 0.879803469,14.5588235 C1.06355989,14.5588235 1.23617956,14.5088229 1.37538897,14.4269293" id="Fill-1" fill="#FFFFFF" mask="url(#mask-2)"></path>
                        </g>
                    </g>
                </g>
            </g>
        </g>
    </g>
</svg>