<svg xmlns="http://www.w3.org/2000/svg" width="72" height="39" viewBox="0 0 72 39">
    <g fill="none" fill-rule="evenodd" stroke="#DEE2E5" stroke-linecap="round" stroke-linejoin="round" stroke-width="2">
        <path d="M5.21 12.463a8.35 8.35 0 1 1 8.35 8.35 8.35 8.35 0 0 1-8.35-8.35zM20.783 24.987H6.337a5.302 5.302 0 0 0-5.302 5.302v6.935c0 .159.128.287.287.287h24.476a.286.286 0 0 0 .286-.287v-6.935a5.301 5.301 0 0 0-5.301-5.302zM49.21 12.463a8.35 8.35 0 1 1 8.35 8.35 8.35 8.35 0 0 1-8.35-8.35zM64.783 24.987H50.337a5.302 5.302 0 0 0-5.302 5.302v6.935c0 .159.128.287.287.287h24.476a.286.286 0 0 0 .286-.287v-6.935a5.301 5.301 0 0 0-5.301-5.302zM27.21 9.335a8.35 8.35 0 1 1 8.35 8.35 8.351 8.351 0 0 1-8.35-8.35zM25.637 37.511h19.798"/>
        <path d="M45.851 25.604c-.61-.43-2.464-.744-4.655-.744H27.924c-2.185 0-4.034.311-4.65.74"/>
    </g>
</svg>
