<svg xmlns="http://www.w3.org/2000/svg" width="59" height="39" viewBox="0 0 59 39">
    <g fill="none" fill-rule="evenodd" stroke-linecap="round" stroke-linejoin="round" stroke-width="2">
        <path stroke="#DDE1E3" d="M31.9 37.511h-5.863a2.094 2.094 0 0 1-2.095-2.095V21.55c0-1.157.937-2.095 2.095-2.095H31.9a.95.95 0 0 1 .95.951v16.157a.95.95 0 0 1-.95.95z"/>
        <path stroke="#DDE1E3" d="M32.85 19.455L37.9 8.765s.982-2.11 2.885-2.11c1.901 0 3.506 2.06 3.506 4.612v6.595h8.9s4.244-.44 4.244 3.673l-2.29 12.109s-.404 3.868-4.792 3.868H32.85V19.455z"/>
        <path stroke="#DDE0E2" d="M20 29.186c-1.36.44-2.811.68-4.317.68-7.732 0-14-6.27-14-14 0-7.734 6.268-14 14-14 7.249 0 13.21 5.508 13.927 12.567"/>
        <path stroke="#DDE0E2" d="M11.124 11.865a4.559 4.559 0 1 1 9.117 0 4.559 4.559 0 0 1-9.117 0zM4.593 24.407c2.19-2.421 6.337-4.054 11.09-4.054 1.188 0 2.338.103 3.43.293"/>
    </g>
</svg>
