<svg xmlns="http://www.w3.org/2000/svg" xmlns:xlink="http://www.w3.org/1999/xlink" width="38" height="40" viewBox="0 0 38 40">
    <defs>
        <path id="a" d="M0 .753h3v2H0z"/>
    </defs>
    <g fill="none" fill-rule="evenodd">
        <path stroke="#DEE2E5" stroke-linecap="round" stroke-linejoin="round" stroke-width="2" d="M34.488 17.036a14.678 14.678 0 0 1 .279 2.849c0 8.007-6.491 14.5-14.5 14.5-8.008 0-14.5-6.493-14.5-14.5 0-8.008 6.492-14.5 14.5-14.5a14.422 14.422 0 0 1 4.168.607"/>
        <path stroke="#DEE2E5" stroke-width="2" d="M7.566 12.884h10.201a3 3 0 1 1 0 6h-4.5"/>
        <path stroke="#DEE2E5" stroke-width="1.5" d="M12.267 21.884h1.5a2.5 2.5 0 1 1 0 5h-6.2M13.618 21.884h-1.351a1.5 1.5 0 0 1 0-3h2.3"/>
        <path stroke="#DEE2E5" stroke-width="2" d="M30.767 29.884h-5a3.5 3.5 0 1 1 0-7h8.69"/>
        <path fill="#DEE2E5" d="M16.767 2.115c0-.652.645-1.181 1.438-1.181.793 0 1.435.529 1.435 1.181 0 .65-.642 1.18-1.435 1.18s-1.438-.53-1.438-1.18M12.266 3.289c-.151-.622.353-1.313 1.124-1.541.77-.23 1.517.087 1.666.71.15.622-.353 1.311-1.124 1.54-.77.23-1.516-.088-1.666-.709M8.197 5.562c-.294-.543.036-1.33.738-1.76.703-.43 1.513-.342 1.806.2.295.543-.036 1.329-.739 1.76-.703.43-1.512.34-1.805-.2M4.847 8.777c-.428-.428-.298-1.252.292-1.841.59-.59 1.414-.72 1.84-.292.43.427.299 1.252-.29 1.841-.59.59-1.413.72-1.842.292M2.458 12.732c-.541-.295-.631-1.104-.2-1.805.43-.704 1.217-1.035 1.76-.739.54.294.63 1.103.2 1.804-.43.704-1.22 1.034-1.76.74M1.207 17.169c-.62-.151-.939-.896-.71-1.667.23-.77.92-1.273 1.542-1.125.622.152.94.896.71 1.668-.229.77-.92 1.274-1.542 1.124"/>
        <g transform="translate(0 18.247)">
            <mask id="b" fill="#fff">
                <use xlink:href="#a"/>
            </mask>
            <path fill="#DEE2E5" d="M1.501 2.753c-.829 0-1.501-.447-1.501-1 0-.551.672-1 1.501-1 .827 0 1.499.449 1.499 1 0 .553-.672 1-1.499 1" mask="url(#b)"/>
        </g>
        <path fill="#DEE2E5" d="M2.354 26.297c-.622.15-1.313-.353-1.54-1.124-.23-.772.087-1.516.71-1.668.621-.148 1.31.355 1.54 1.125.231.77-.088 1.516-.71 1.667M3.627 30.366c-.54.293-1.33-.036-1.76-.74-.43-.701-.34-1.51.2-1.804.543-.296 1.33.035 1.76.739.431.703.341 1.51-.2 1.805M6.843 34.216c-.429.428-1.252.298-1.842-.294-.59-.587-.72-1.414-.291-1.84.427-.429 1.251-.297 1.841.291.59.591.72 1.414.292 1.843M11.298 37.104c-.295.54-1.103.632-1.805.201-.705-.431-1.035-1.218-.739-1.761.293-.541 1.103-.63 1.804-.2.704.43 1.033 1.219.74 1.76M16.234 38.354c-.15.622-.896.94-1.667.711-.77-.23-1.272-.92-1.124-1.54.151-.624.896-.941 1.667-.712.771.228 1.276.92 1.124 1.541M20.86 38.383c0 .65-.643 1.18-1.437 1.18-.792 0-1.436-.53-1.436-1.18 0-.653.644-1.182 1.436-1.182.794 0 1.437.53 1.437 1.182"/>
        <path stroke="#DEE2E5" stroke-linecap="round" stroke-linejoin="round" stroke-width="2" d="M30.054 4.431v12M24.054 10.431h12"/>
    </g>
</svg>
