<svg xmlns="http://www.w3.org/2000/svg" xmlns:xlink="http://www.w3.org/1999/xlink" width="55" height="43" viewBox="0 0 55 43">
    <defs>
        <path id="a" d="M0 .753h3v2H0z"/>
    </defs>
    <g fill="none" fill-rule="evenodd">
        <path stroke="#DEE2E5" stroke-linecap="round" stroke-linejoin="round" stroke-width="2" d="M31.816 11.846a8.35 8.35 0 1 1 16.7 0 8.35 8.35 0 0 1-16.7 0zM52.69 30.633v-.96a5.3 5.3 0 0 0-5.3-5.302H32.942a5.3 5.3 0 0 0-5.302 5.301v6.937c0 .158.128.287.287.287h10.285M22.174 33.356c-.544.062-1.098.094-1.66.094-8.008 0-14.5-6.492-14.5-14.5s6.491-14.5 14.5-14.5c2.998 0 5.783.91 8.096 2.468"/>
        <path stroke="#DEE2E5" stroke-linecap="round" stroke-linejoin="round" stroke-width="2" d="M7.813 11.95h10.201a3.001 3.001 0 0 1 0 6h-4.5M12.514 20.95h1.5a2.5 2.5 0 1 1 0 5h-6.2M13.864 20.95h-1.35a1.5 1.5 0 1 1 0-3h2.3"/>
        <g transform="translate(17 -.753)">
            <mask id="b" fill="#fff">
                <use xlink:href="#a"/>
            </mask>
            <path fill="#DEE2E5" d="M0 1.754c0-.553.671-1 1.5-1 .827 0 1.5.447 1.5 1 0 .551-.673 1-1.5 1-.829 0-1.5-.449-1.5-1" mask="url(#b)"/>
        </g>
        <path fill="#DEE2E5" d="M12.512 2.354c-.15-.622.353-1.313 1.124-1.54.771-.23 1.516.087 1.668.71.148.621-.355 1.31-1.125 1.541-.771.23-1.516-.089-1.667-.71M8.443 4.627c-.293-.54.036-1.33.74-1.76.701-.43 1.51-.34 1.804.2.296.543-.035 1.33-.74 1.76-.7.431-1.51.341-1.804-.2M5.093 7.842c-.428-.428-.298-1.251.293-1.84.588-.59 1.414-.72 1.841-.292.429.427.297 1.251-.291 1.84-.591.59-1.414.72-1.843.292M2.705 11.798c-.54-.295-.632-1.103-.201-1.805.431-.705 1.218-1.036 1.761-.74.54.294.63 1.103.2 1.804-.43.705-1.219 1.034-1.76.74M1.455 16.234c-.622-.15-.941-.896-.711-1.667.23-.77.92-1.272 1.54-1.124.624.151.941.896.711 1.667-.227.771-.92 1.276-1.54 1.124M1.426 20.86c-.65 0-1.18-.643-1.18-1.437 0-.792.53-1.436 1.18-1.436.652 0 1.181.644 1.181 1.436 0 .794-.529 1.437-1.18 1.437M2.6 25.362c-.62.151-1.31-.353-1.54-1.124-.23-.771.087-1.516.71-1.667.623-.148 1.312.355 1.541 1.124.23.771-.089 1.516-.71 1.667M4.873 29.431c-.54.294-1.33-.036-1.76-.738-.429-.703-.34-1.512.2-1.805.543-.297 1.33.034 1.762.738.43.703.34 1.51-.202 1.805M8.09 33.781c-.429.428-1.252.298-1.843-.293-.588-.588-.719-1.413-.29-1.84.427-.428 1.251-.298 1.84.29.59.591.721 1.415.293 1.843M12.044 36.17c-.294.541-1.103.631-1.806.2-.702-.43-1.033-1.217-.738-1.76.295-.542 1.102-.63 1.805-.2.704.43 1.033 1.218.739 1.76M16.48 37.421c-.15.62-.896.94-1.665.71-.772-.23-1.274-.92-1.125-1.541.15-.622.896-.941 1.666-.71.771.228 1.276.919 1.124 1.541M21.107 37.448c0 .653-.643 1.18-1.437 1.18-.793 0-1.436-.527-1.436-1.18 0-.652.643-1.181 1.436-1.181.794 0 1.437.529 1.437 1.181"/>
        <path stroke="#DEE2E5" stroke-linecap="round" stroke-linejoin="round" stroke-width="1.5" d="M47.3 29.497v12"/>
        <path stroke="#DEE2E5" stroke-linecap="round" stroke-linejoin="round" stroke-width="2" d="M41.3 35.497h12"/>
    </g>
</svg>
