<svg xmlns="http://www.w3.org/2000/svg" width="20" height="20" viewBox="0 0 20 20">
    <g fill="none" fill-rule="evenodd">
        <path fill="#FFF" fill-rule="nonzero" d="M12.845.928h-4.85c-.63 0-1.334.073-2.062.218-.751.17-1.455.534-2.134 1.116-.994.97-1.503 2.037-1.503 3.225 0 .995.364 1.843 1.067 2.595.679.8 1.649 1.188 2.958 1.213.243 0 .51-.025.776-.049-.048.121-.097.267-.145.412-.073.146-.097.316-.097.534 0 .364.073.655.242.921.146.267.291.51.461.728-.558.024-1.285.097-2.134.218a7.067 7.067 0 0 0-2.473.897c-.704.413-1.189.898-1.455 1.455-.267.558-.413 1.043-.413 1.504 0 .922.413 1.698 1.261 2.377.825.703 2.11 1.067 3.808 1.09 2.037-.023 3.564-.508 4.656-1.454 1.043-.897 1.552-1.94 1.552-3.129-.024-.824-.194-1.503-.558-2.012a7.983 7.983 0 0 0-1.334-1.383l-.824-.679c-.122-.12-.243-.266-.364-.412-.17-.17-.243-.364-.243-.63 0-.267.073-.485.219-.68.121-.193.266-.363.412-.509.242-.218.485-.436.703-.654.194-.219.388-.437.582-.704.364-.509.558-1.212.582-2.085 0-.46-.048-.897-.17-1.237a4.067 4.067 0 0 0-.436-.921 5.57 5.57 0 0 0-.558-.68 5.453 5.453 0 0 0-.509-.412h1.504l1.479-.873zM10.2 14.12c.413.461.607.995.607 1.601 0 .752-.291 1.382-.873 1.843-.607.485-1.48.752-2.62.752-1.26-.024-2.279-.291-3.006-.849-.776-.558-1.164-1.261-1.164-2.11 0-.436.097-.8.266-1.115a2.42 2.42 0 0 1 .558-.728c.243-.194.46-.34.68-.436.217-.097.387-.17.508-.219a13.495 13.495 0 0 1 1.528-.339c.51-.049.825-.073.946-.049.218 0 .388 0 .533.025.946.679 1.601 1.212 2.037 1.624zm-.8-7.105c-.048.315-.194.63-.388.946-.436.436-.946.655-1.6.679a2.03 2.03 0 0 1-1.334-.46 4.29 4.29 0 0 1-.97-1.116c-.51-.946-.776-1.868-.776-2.74a2.95 2.95 0 0 1 .533-1.795c.437-.51.97-.776 1.625-.8.485.024.946.17 1.31.436.363.291.679.679.897 1.14.485.97.727 1.94.727 2.886.049.218.025.485-.024.824zm7.47-3.443V1.025h-1.237v2.547h-2.547v1.236h2.547v2.547h1.236V4.808h2.547V3.572H16.87z"/>
        <path d="M0 0h20v20H0z"/>
    </g>
</svg>
