<svg xmlns="http://www.w3.org/2000/svg" width="37" height="40" viewBox="0 0 37 40">
    <g fill="none" fill-rule="evenodd">
        <path fill="#F2F2F2" d="M36.109 9.063a3.635 3.635 0 0 0-1.44-1.298L20.136.456a3.615 3.615 0 0 0-3.234 0L2.366 7.766A3.635 3.635 0 0 0 .933 9.053l17.585 8.852 17.59-8.843z"/>
        <path fill="#B3B3B3" d="M1.33 9.19l17.188 8.651 17.194-8.644a3.367 3.367 0 0 0-1.16-.957L20.015.93a3.367 3.367 0 0 0-2.997 0L2.485 8.24c-.45.225-.845.55-1.155.95m17.188 9.22a.265.265 0 0 1-.12-.03L.814 9.53a.268.268 0 0 1-.105-.386A3.91 3.91 0 0 1 2.247 7.76L16.782.45a3.901 3.901 0 0 1 3.471 0L34.79 7.76a3.909 3.909 0 0 1 1.544 1.393.27.27 0 0 1-.105.385l-17.59 8.843a.266.266 0 0 1-.12.028"/>
        <path fill="#E0E0E0" d="M.72 9.396a3.664 3.664 0 0 0-.584 1.982v17.395a3.657 3.657 0 0 0 1.998 3.29L16.67 39.37a3.615 3.615 0 0 0 1.635.386V18.248L.72 9.396z"/>
        <path fill="#D1D1D1" d="M18.731 18.248v21.51a3.614 3.614 0 0 0 1.617-.387l14.535-7.309a3.657 3.657 0 0 0 2.017-3.27V11.377c0-.714-.209-1.395-.578-1.973l-17.59 8.843z"/>
        <path fill="#B3B3B3" d="M1.035 9.64a3.39 3.39 0 0 0-.42 1.63v17.396a3.37 3.37 0 0 0 1.853 3.05l14.534 7.308c.388.196.816.314 1.25.348V18.306L1.034 9.64zm17.474 30.278a3.9 3.9 0 0 1-1.746-.414l-14.535-7.31a3.902 3.902 0 0 1-2.145-3.53V11.27c0-.754.217-1.49.626-2.127a.266.266 0 0 1 .343-.094l17.585 8.852c.09.046.147.138.147.24v21.51a.267.267 0 0 1-.266.267h-.009z"/>
        <path fill="#B3B3B3" d="M18.784 18.307V39.37a3.37 3.37 0 0 0 1.232-.347l14.535-7.309a3.37 3.37 0 0 0 1.869-3.03V11.27c0-.567-.143-1.123-.414-1.62l-17.222 8.657zm-.266 21.611a.266.266 0 0 1-.267-.268V18.14c0-.1.057-.193.148-.239l17.59-8.843a.266.266 0 0 1 .344.095 3.93 3.93 0 0 1 .62 2.117v17.414c0 1.499-.83 2.844-2.165 3.511l-14.534 7.309a3.9 3.9 0 0 1-1.736.414z"/>
    </g>
</svg>
