<svg xmlns="http://www.w3.org/2000/svg" width="90" height="90" viewBox="0 0 90 90">
    <g fill="none" fill-rule="evenodd">
        <path d="M0 0h90v90H0z"/>
        <g stroke="#DADADA" stroke-width="4" transform="translate(0 8)">
            <path d="M2.004 27.701C16.218 32.116 27.287 43.775 37.267 64h50.615c-1.024-8.274-8.796-12.014-26.408-13.666-2.163 2.197-4.162 3.552-6.08 4.028l-.137.034-.14.014c-3.761.39-5.983-.666-7.888-3.64-.117-.183-5.473-10.844-8.863-16.114-5.968-9.276-14.25-19.978-24.844-32.096C5.694 7.475 1.854 15.767 2.004 27.701z"/>
            <rect width="50" height="8" x="38" y="64" rx="1.799"/>
            <path d="M2.362 30.91L7.148 71H14V34.845L2.362 30.91z"/>
        </g>
    </g>
</svg>
