<svg xmlns="http://www.w3.org/2000/svg" width="90" height="90" viewBox="0 0 90 90">
    <g fill="none" fill-rule="nonzero">
        <path d="M0 0h90v90H0z"/>
        <g stroke="#DADADA" transform="translate(19 2)">
            <path stroke-width="3.629" d="M11.952 11.814H44.6l-3.318 45.372H15.27l-3.317-45.372z"/>
            <path stroke-width="3.629" d="M11.147 5.536h36.44a.907.907 0 0 1 .727 1.448l-3.643 4.903H11.797l-.65-6.35z"/>
            <path stroke-width="4" d="M9.143 86h37.714L45.19 61.895A5.258 5.258 0 0 0 39.945 57h-23.89a5.258 5.258 0 0 0-5.245 4.895L9.143 86z"/>
            <path stroke-linecap="round" stroke-linejoin="round" stroke-width="4" d="M20.103 49.082l1.319 3.01 5.516 4.453M36.076 49.082l-1.318 3.01-5.517 4.453"/>
            <path stroke-width="4" d="M11.712 15.515H3.294a2.722 2.722 0 0 0-2.672 3.236l4.043 21.041a4.536 4.536 0 0 0 2.826 3.378l6.975 2.683"/>
            <ellipse cx="27.871" cy="72.124" stroke-width="4" rx="5.767" ry="5.711"/>
            <path stroke-linecap="round" stroke-linejoin="round" stroke-width="4" d="M22.845 4.536A4.536 4.536 0 0 1 27.38 0h1.893a4.536 4.536 0 0 1 4.536 4.536"/>
        </g>
    </g>
</svg>
