<svg xmlns="http://www.w3.org/2000/svg" width="90" height="90" viewBox="0 0 90 90">
    <g fill="none" fill-rule="nonzero">
        <path d="M0 0h90v90H0z"/>
        <g stroke="#DADADA" stroke-width="4">
            <path d="M2.91 80h66.616a1.6 1.6 0 0 0 1.494-1.026l15.234-39.665a1.6 1.6 0 0 0-1.493-2.173H20.474a1.6 1.6 0 0 0-1.494 1.026L2.91 80z"/>
            <path d="M9.2 61.487l71.031-25.825V21.815H17.865L9.2 30.217v31.27z"/>
            <path stroke-linecap="round" stroke-linejoin="round" d="M31.95 29.728v7.21M43.65 29.728v7.21M55.35 29.728v7.21M67.05 29.728v7.21"/>
            <path d="M17.8 24.648l3.415-3.42-3.415-1.413v4.833zm0 5.784v2l2-2h-2zm-5.776 0H7.2l1.415 3.413 3.409-3.413z"/>
            <path d="M38.01 21.38L31.311 11l-25.915.031A3.4 3.4 0 0 0 2 14.432v60.963L38.01 21.38z"/>
        </g>
    </g>
</svg>
