<?xml version="1.0" encoding="UTF-8"?>
<svg width="12px" height="16px" viewBox="0 0 12 16" version="1.1" xmlns="http://www.w3.org/2000/svg" xmlns:xlink="http://www.w3.org/1999/xlink">
    <!-- Generator: sketchtool 51 (57462) - http://www.bohemiancoding.com/sketch -->
    <title>F6E0F202-90AB-4605-B930-D9A971E4A455</title>
    <desc>Created with sketchtool.</desc>
    <defs></defs>
    <g id="Web" stroke="none" stroke-width="1" fill="none" fill-rule="evenodd">
        <g id="w-group-create_a_group-02_01" transform="translate(-1064.000000, -1351.000000)">
            <!--<rect fill="#FFFFFF" x="0" y="0" width="1440" height="2326"></rect>-->
            <g id="btn-upload" transform="translate(1044.000000, 1336.000000)" fill="#464646">
                <g id="icn-upload" transform="translate(20.000000, 15.000000)">
                    <path d="M11.4196033,6.24390244 L8.92122878,6.24390244 C8.59659718,6.24390244 8.33115519,6.52127333 8.33115519,6.86017145 C8.33115519,7.19906957 8.59659718,7.47625924 8.92122878,7.47625924 L10.8195491,7.47625924 L10.8195491,14.7676885 L1.18027736,14.7676885 L1.18027736,7.47625924 L3.2753901,7.47625924 C3.6000217,7.47625924 3.86546368,7.19906957 3.86546368,6.86017145 C3.86546368,6.52127333 3.6000217,6.24390244 3.2753901,6.24390244 L0.580396695,6.24390244 C0.255808487,6.24390244 0,6.55203695 0,6.89098037 L0,15.4352906 C0,15.774234 0.255808487,16 0.580396695,16 L11.4196033,16 C11.7441915,16 12,15.774234 12,15.4352906 L12,6.89098037 C12,6.55203695 11.7441915,6.24390244 11.4196033,6.24390244" id="Fill-1"></path>
                    <path d="M5.94553073,10.9068787 C6.27460894,10.9068787 6.54394274,10.628199 6.54394274,10.2878283 L6.54394274,1.89779902 L9.09663059,4.25066407 C9.20644064,4.35383154 9.35597765,4.40541528 9.49548394,4.40541528 C9.6651264,4.40541528 9.82460615,4.33320715 9.94440293,4.19908033 C10.1636711,3.94102504 10.1437416,3.54888846 9.89438128,3.32197463 L6.45406215,0.153649431 C6.23475,-0.0423505691 5.91561453,-0.05264 5.68618366,0.133025041 C5.57654958,0.184790894 5.48666899,0.277623415 5.42688059,0.380745366 L2.44524721,3.34259902 C2.20600559,3.5798478 2.19601885,3.97198439 2.42527374,4.21975024 C2.65470461,4.46747057 3.03362849,4.47776 3.27287011,4.24037463 L5.34711872,2.1764787 L5.34711872,10.2878283 C5.34711872,10.628199 5.61645251,10.9068787 5.94553073,10.9068787" id="Fill-3"></path>
                </g>
            </g>
        </g>
    </g>
</svg>