<svg xmlns="http://www.w3.org/2000/svg" width="14" height="14" viewBox="0 0 14 14">
    <g fill="#F46064" fill-rule="evenodd">
        <path d="M7 13c-.13 0-.26-.03-.38-.08s-.23-.12-.33-.21c-.09-.1-.16-.21-.21-.33A.995.995 0 0 1 6 12c0-.13.03-.26.08-.38.05-.13.12-.24.21-.33a1 1 0 0 1 .9-.27c.07.01.13.03.19.06.06.022.12.05.17.09.06.03.11.08.16.12.09.09.16.2.21.33.05.12.08.25.08.38s-.03.26-.08.38-.12.23-.21.33c-.101.09-.21.16-.33.21-.12.05-.25.08-.38.08"/>
        <rect width="2" height="8" x="6" y="1" fill-rule="nonzero" rx="1"/>
    </g>
</svg>
