<svg xmlns="http://www.w3.org/2000/svg" width="16" height="16" viewBox="0 0 16 16">
    <path fill="#464646" fill-rule="evenodd" d="M8 16A8 8 0 1 1 8 0a8 8 0 0 1 0 16zm0-4c.13 0 .26-.03.38-.08s.229-.12.33-.21c.09-.1.16-.21.21-.33.05-.12.08-.25.08-.38s-.03-.26-.08-.38a.933.933 0 0 0-.21-.33c-.05-.04-.1-.09-.16-.12a.579.579 0 0 0-.17-.09.58.58 0 0 0-.19-.06 1 1 0 0 0-.9.27c-.09.09-.16.2-.21.33-.05.12-.08.25-.08.38s.03.26.08.38.12.23.21.33c.1.09.21.16.33.21.12.05.25.08.38.08zm0-8a1 1 0 0 0-1 1v3a1 1 0 1 0 2 0V5a1 1 0 0 0-1-1z"/>
</svg>
