<svg xmlns="http://www.w3.org/2000/svg" width="18" height="18" viewBox="0 0 18 18">
    <defs>
        <linearGradient id="a" x1="11.167%" x2="87.909%" y1="77.242%" y2="16.679%">
            <stop offset="0%" stop-color="#466DFF"/>
            <stop offset="100%" stop-color="#906DFF"/>
        </linearGradient>
    </defs>
    <g fill="none" fill-rule="evenodd">
        <path d="M0 0h18v18H0z"/>
        <path fill="url(#a)" d="M4 18H1.6C.717 18 0 17.185 0 16.182V9.818C0 8.815.717 8 1.6 8H4v10zm7.53-12h4.61c.087 0 .322-.014.409 0 .892.15 1.57 1.017 1.434 2l-1.145 8.47c-.122.887-.819 1.54-1.632 1.53H5V8l4.264-8c1.353 0 2.258 1.194 2.258 2.686 0 .994.003 2.099.008 3.314z"/>
    </g>
</svg>
