<svg xmlns="http://www.w3.org/2000/svg" width="16" height="16" viewBox="0 0 16 16">
    <g fill="none" fill-rule="evenodd">
        <circle cx="8" cy="8" r="8" fill="#ff0000"/>
        <path fill="#FFF" d="M8 12c-.13 0-.26-.03-.38-.08s-.23-.12-.33-.21c-.09-.1-.16-.21-.21-.33A.995.995 0 0 1 7 11c0-.13.03-.26.08-.38.05-.13.12-.24.21-.33a1 1 0 0 1 .9-.27c.07.01.13.03.19.06.06.022.12.05.17.09.06.03.11.08.16.12.09.09.16.2.21.33.05.12.08.25.08.38s-.03.26-.08.38-.12.23-.21.33c-.101.09-.21.16-.33.21-.12.05-.25.08-.38.08"/>
        <rect width="2" height="5" x="7" y="4" fill="#FFF" fill-rule="nonzero" rx="1"/>
    </g>
</svg>
