<svg xmlns="http://www.w3.org/2000/svg" width="90" height="90" viewBox="0 0 90 90">
    <g fill="none" fill-rule="nonzero">
        <path d="M0 0h90v90H0z"/>
        <g stroke="#DADADA" stroke-width="4">
            <path d="M34.2 20C26.366 20 20 26.366 20 34.2s6.366 14.2 14.2 14.2c7.835 0 14.2-6.365 14.2-14.2 0-7.835-6.365-14.2-14.2-14.2z"/>
            <path d="M34.2 27.2c-3.861 0-7 3.139-7 7s3.139 7 7 7c3.862 0 7-3.138 7-7s-3.138-7-7-7z"/>
            <path d="M64.568 28.993l-.004-.001-6.013-1.02-.363-1.175a25.14 25.14 0 0 0-1.787-4.315l-.578-1.092.719-1.006 2.826-3.954c.636-.894.536-2.1-.241-2.87l-4.258-4.258a2.196 2.196 0 0 0-1.573-.658c-.466 0-.9.14-1.283.415l-4.976 3.545-1.09-.576a24.82 24.82 0 0 0-4.469-1.839l-1.192-.357-.206-1.226-.801-4.745A2.221 2.221 0 0 0 37.079 2h-6.015c-1.096 0-2.02.78-2.202 1.866L27.828 9.93l-1.169.366a24.419 24.419 0 0 0-4.291 1.81l-1.102.593-1.016-.732-3.929-2.83a2.196 2.196 0 0 0-1.29-.408c-.597 0-1.152.23-1.574.66l-4.27 4.255a2.23 2.23 0 0 0-.242 2.87l3.57 5.016-.57 1.088a24.416 24.416 0 0 0-1.756 4.32l-.358 1.19-1.225.206-4.745.8A2.222 2.222 0 0 0 2 31.335v6.016c0 1.095.781 2.018 1.866 2.2l6.065 1.035.365 1.169a24.478 24.478 0 0 0 1.81 4.292l.593 1.101-.73 1.015-2.81 3.907c-.635.893-.535 2.1.242 2.87l4.258 4.258c.429.428.979.658 1.573.658.466 0 .901-.14 1.283-.415l5.017-3.57 1.088.57a25.011 25.011 0 0 0 4.18 1.72l1.175.365.203 1.215.8 4.798a2.221 2.221 0 0 0 2.2 1.861h6.03c1.095 0 2.018-.78 2.2-1.864l1.02-6.013 1.174-.364a25.072 25.072 0 0 0 4.315-1.786l1.093-.578 1.005.718 3.964 2.833c.37.267.818.41 1.289.41.594 0 1.144-.23 1.572-.658l4.258-4.257a2.23 2.23 0 0 0 .242-2.87l-3.542-4.974.57-1.088a24.84 24.84 0 0 0 1.788-4.31l.36-1.188 1.225-.204 4.798-.8a2.22 2.22 0 0 0 1.86-2.2v-6.042a2.17 2.17 0 0 0-1.831-2.172z"/>
            <path fill="#FAFAFA" d="M87.366 64.749h-.004l-4.37-.743-.364-1.174a15.855 15.855 0 0 0-1.127-2.721l-.578-1.093.719-1.005 1.859-2.6a.774.774 0 0 0-.086-1.008l-2.8-2.802a.761.761 0 0 0-.999-.086L76 54.094l-1.09-.576a15.645 15.645 0 0 0-2.817-1.16l-1.192-.356-.207-1.226-.526-3.123a.777.777 0 0 0-.773-.653h-3.957a.779.779 0 0 0-.774.658l-.75 4.404-1.17.365c-.93.29-1.837.673-2.703 1.14l-1.102.594-1.015-.732-2.585-1.861a.761.761 0 0 0-.449-.14c-.21 0-.4.078-.552.234l-2.809 2.799a.783.783 0 0 0-.085 1.008l2.592 3.642-.57 1.087a15.38 15.38 0 0 0-1.107 2.722L52 64.11l-1.225.206-3.122.526a.778.778 0 0 0-.653.773v3.958c0 .386.272.708.659.773l4.403.751.365 1.17c.29.929.673 1.836 1.14 2.703l.593 1.1-.73 1.016-1.846 2.567a.775.775 0 0 0 .085 1.008l2.801 2.801a.76.76 0 0 0 .999.086l3.642-2.592 1.088.57c.822.432 1.704.793 2.636 1.084l1.176.366.202 1.215.526 3.156a.777.777 0 0 0 .773.653h3.967a.778.778 0 0 0 .773-.657l.741-4.37 1.175-.364a15.81 15.81 0 0 0 2.72-1.126l1.093-.579 1.006.72 2.61 1.864c.126.091.28.14.447.14a.76.76 0 0 0 .551-.231l2.801-2.801a.783.783 0 0 0 .086-1.008l-2.574-3.614.57-1.088a15.66 15.66 0 0 0 1.127-2.717l.36-1.188 1.225-.204 3.157-.526A.777.777 0 0 0 88 69.48v-3.985a.743.743 0 0 0-.634-.745z"/>
            <path d="M67.5 61.4a6.105 6.105 0 0 0-6.1 6.1c0 3.365 2.735 6.1 6.1 6.1 3.365 0 6.1-2.735 6.1-6.1 0-3.365-2.735-6.1-6.1-6.1z"/>
        </g>
    </g>
</svg>
