<svg xmlns="http://www.w3.org/2000/svg" width="18" height="16" viewBox="0 0 18 16">
    <g fill="none" fill-rule="evenodd">
        <path fill="tranparent" d="M-637-429H803v2326H-637z"/>
        <g fill="#464646">
            <path d="M8.939 6.43c-.74 0-1.37.269-1.895.808a2.692 2.692 0 0 0-.787 1.947c0 .759.263 1.408.787 1.947.525.539 1.156.808 1.895.808.738 0 1.37-.27 1.895-.808a2.69 2.69 0 0 0 .787-1.947c0-.759-.263-1.408-.787-1.947-.525-.539-1.157-.809-1.895-.809"/>
            <path d="M11.886 12.213c-.816.839-1.799 1.258-2.947 1.258-1.149 0-2.131-.42-2.947-1.258-.817-.838-1.225-1.848-1.225-3.028s.409-2.189 1.225-3.028C6.808 5.318 7.79 4.9 8.939 4.9c1.148 0 2.13.42 2.947 1.258.816.839 1.224 1.848 1.224 3.028s-.408 2.19-1.224 3.028m5.293-9.046a2.267 2.267 0 0 0-1.685-.717h-2.086l-.474-1.301c-.119-.313-.334-.582-.648-.81C11.973.115 11.652 0 11.323 0H6.555c-.329 0-.65.114-.963.34-.314.227-.53.496-.648.809l-.475 1.3H2.384c-.659 0-1.22.24-1.686.718A2.393 2.393 0 0 0 0 4.899v8.572c0 .676.233 1.254.698 1.732a2.267 2.267 0 0 0 1.686.717h13.11c.658 0 1.22-.239 1.685-.717a2.393 2.393 0 0 0 .698-1.732V4.9c0-.676-.232-1.254-.698-1.732"/>
        </g>
    </g>
</svg>
