<svg xmlns="http://www.w3.org/2000/svg" width="34" height="26" viewBox="0 0 34 26">
    <g fill="#BEBEBE" fill-rule="evenodd">
        <path d="M1.174 24.868H32.83V1.132H1.174v23.736zM33.417 0H.587A.577.577 0 0 0 0 .566v24.868c0 .312.263.566.587.566h32.83a.575.575 0 0 0 .583-.566V.566A.574.574 0 0 0 33.417 0z"/>
        <path d="M8.722 6.787c1.164 0 2.11.926 2.11 2.063s-.946 2.062-2.11 2.062c-1.163 0-2.11-.925-2.11-2.059 0-1.137.947-2.066 2.11-2.066m0 5.282c1.816 0 3.292-1.444 3.292-3.216 0-1.777-1.476-3.219-3.292-3.219-1.816 0-3.294 1.442-3.294 3.216 0 1.775 1.478 3.22 3.294 3.22M3.402 23.111a.598.598 0 0 0 .39-.144l9.645-8.296 6.092 5.95a.6.6 0 0 0 .835 0 .567.567 0 0 0 0-.816l-2.841-2.78 5.428-5.808 6.658 5.964c.242.217.615.2.837-.034a.573.573 0 0 0-.037-.818l-7.097-6.356a.622.622 0 0 0-.425-.15.588.588 0 0 0-.41.186l-5.792 6.198-2.806-2.739a.6.6 0 0 0-.808-.025L3.008 22.099a.57.57 0 0 0-.051.817c.115.13.28.195.445.195"/>
    </g>
</svg>
