<?xml version="1.0" encoding="UTF-8"?>
<svg width="75px" height="69px" viewBox="0 0 75 69" version="1.1" xmlns="http://www.w3.org/2000/svg" xmlns:xlink="http://www.w3.org/1999/xlink">
    <!-- Generator: sketchtool 51.1 (57501) - http://www.bohemiancoding.com/sketch -->
    <title>6782A667-8318-41FD-A618-C360E6D3986F</title>
    <desc>Created with sketchtool.</desc>
    <defs></defs>
    <g id="mobile" stroke="none" stroke-width="1" fill="none" fill-rule="evenodd">
        <g id="m-blog-pop_up-01_02" transform="translate(-143.000000, -190.000000)" fill-rule="nonzero">
            <g id="icn-subscribe" transform="translate(143.000000, 190.000000)">
                <path d="M1.5,23.2616352 L1.5,67.5 L72.5,67.5 L72.5,23.2616352 L37,4.69280673 L1.5,23.2616352 Z" id="Rectangle-Copy" stroke="#58CDF9" stroke-width="3" fill="#FFFFFF"></path>
                <rect id="Rectangle-2-Copy" stroke="#58CDF9" stroke-width="3" fill="#FFFFFF" transform="translate(37.000000, 19.000000) rotate(-90.000000) translate(-37.000000, -19.000000) " x="19.5" y="-2.5" width="35" height="43"></rect>
                <ellipse id="Oval-2-Copy" stroke="#58CDF9" stroke-width="3" fill="#FFFFFF" cx="24.8571429" cy="13.4453501" rx="2.5" ry="2.49223834"></ellipse>
                <ellipse id="Oval-2-Copy-2" stroke="#58CDF9" stroke-width="3" fill="#FFFFFF" cx="24.8571429" cy="26.1547278" rx="2.5" ry="2.49223834"></ellipse>
                <path d="M69.9984569,36.8439025 L3.97170286,36.5195301 L36.7597512,65.6210461 L69.9984569,36.8439025 Z" id="Triangle-2-Copy-2" stroke="#58CDF9" stroke-width="3" transform="translate(37.000000, 51.307876) scale(1, -1) translate(-37.000000, -51.307876) "></path>
                <path d="M71.9749748,25 L49.8607919,47.1141829" id="Line-2-Copy-4" stroke="#58CDF9" stroke-width="3" fill="#FFFFFF" stroke-linecap="square"></path>
                <path d="M25.9749748,25 L3.96929372,47.0056811" id="Line-2-Copy-5" stroke="#58CDF9" stroke-width="3" fill="#FFFFFF" stroke-linecap="square" transform="translate(14.500000, 36.500000) scale(-1, 1) translate(-14.500000, -36.500000) "></path>
                <rect id="Rectangle-19" fill="#58CDF9" x="32.5892857" y="12.0551957" width="20" height="3"></rect>
                <rect id="Rectangle-19-Copy" fill="#58CDF9" x="32.5892857" y="24.7645734" width="20" height="3"></rect>
            </g>
        </g>
    </g>
</svg>