<svg xmlns="http://www.w3.org/2000/svg" width="74" height="74" viewBox="0 0 74 74">
    <g fill="none" fill-rule="nonzero">
        <path d="M0 0h74v74H0z"/>
        <g fill="#58CDF9">
            <path d="M29 69.434a3.434 3.434 0 1 0 0-6.868 3.434 3.434 0 0 0 0 6.868zM29 73a7 7 0 1 1 0-14 7 7 0 0 1 0 14zM55 69.434a3.434 3.434 0 1 0 0-6.868 3.434 3.434 0 0 0 0 6.868zM55 73a7 7 0 1 1 0-14 7 7 0 0 1 0 14zM0 5V1h13.532l11.339 50.19-3.902.882L10.335 5z"/>
            <path d="M22.425 39H63.05l5.028-24H17.004l5.421 24zM12 11h61.002l-6.704 32h-47.07L12 11zM23 54a2 2 0 1 1 0-4h40a2 2 0 1 1 0 4H23z"/>
            <path d="M23.038 15.389a2 2 0 0 1 3.924-.778l4.744 23.943a2 2 0 0 1-3.923.778l-4.745-23.943zM58.027 14.672a2 2 0 1 1 3.946.656l-4 24.085a2 2 0 1 1-3.946-.655l4-24.086zM35.007 15.167a2 2 0 0 1 3.986-.334l2 23.81a2 2 0 0 1-3.986.334l-2-23.81zM46.002 14.916a2 2 0 0 1 3.996.168l-1 23.787a2 2 0 0 1-3.996-.168l1-23.787z"/>
        </g>
    </g>
</svg>
