<svg xmlns="http://www.w3.org/2000/svg" width="16" height="16" viewBox="0 0 16 16">
    <path fill="#71BCD8" fill-rule="evenodd" d="M.826 3.455c.04-.441.21-.81.53-1.128l1.237-1.233C2.786.909 3 .812 3.206.812c.203 0 .409.097.599.289.223.205.432.42.659.65.113.116.23.232.346.35l.991.989c.207.205.313.414.313.62 0 .205-.106.414-.313.62l-.309.312c-.31.311-.6.606-.919.888l-.016.017c-.276.275-.233.537-.167.736l.01.026c.257.613.613 1.197 1.169 1.893.998 1.227 2.05 2.178 3.208 2.911.143.093.296.166.439.239.133.066.256.13.366.199l.037.02c.11.056.216.083.322.083.267 0 .44-.17.496-.226l1.245-1.24c.193-.192.403-.295.609-.295.253 0 .46.156.589.295l2.007 1.996c.4.398.396.829-.01 1.25-.14.15-.286.292-.443.44-.233.226-.476.458-.695.72-.383.411-.839.604-1.428.604-.057 0-.117-.004-.173-.007-1.092-.07-2.107-.494-2.869-.855a16.18 16.18 0 0 1-5.394-4.21c-1.242-1.49-2.077-2.875-2.63-4.36C.903 4.854.773 4.12.826 3.455m2.416 7.18a17.03 17.03 0 0 0 5.668 4.423c.828.392 1.937.856 3.171.935.077.004.15.007.227.007.828 0 1.494-.285 2.036-.872a.068.068 0 0 0 .014-.016c.193-.233.412-.441.642-.663.156-.15.316-.305.47-.465.708-.736.708-1.67-.007-2.383l-2-1.993c-.34-.351-.746-.537-1.172-.537-.426 0-.835.186-1.185.534l-1.191 1.187c-.11-.063-.223-.12-.33-.173a4.101 4.101 0 0 1-.366-.199C8.134 9.734 7.15 8.84 6.208 7.688c-.476-.6-.796-1.104-1.019-1.618.313-.281.606-.576.889-.865.1-.103.203-.205.306-.308.36-.358.552-.773.552-1.194 0-.42-.19-.835-.552-1.193l-.992-.988c-.116-.116-.226-.229-.34-.345C4.834.952 4.604.719 4.378.51 4.034.176 3.632 0 3.206 0c-.423 0-.829.176-1.185.514L.776 1.754c-.452.45-.709.998-.762 1.631-.063.792.083 1.635.463 2.652.582 1.575 1.46 3.037 2.765 4.599"/>
</svg>
