<?xml version="1.0" encoding="UTF-8"?>
<svg width="16px" height="16px" viewBox="0 0 16 16" version="1.1" xmlns="http://www.w3.org/2000/svg" xmlns:xlink="http://www.w3.org/1999/xlink">
    <!-- Generator: Sketch 52.2 (67145) - http://www.bohemiancoding.com/sketch -->
    <title>icn-question</title>
    <desc>Created with Sketch.</desc>
    <g id="Page-1" stroke="none" stroke-width="1" fill="none" fill-rule="evenodd">
        <g id="w-design_upload-step_02-01" transform="translate(-188.000000, -816.000000)">
            <rect fill="#FFFFFF" x="0" y="0" width="1440" height="3172"></rect>
            <g id="icn-question" transform="translate(188.000000, 816.000000)">
                <circle id="Oval-2" fill="#BEBEBE" cx="8" cy="8" r="8"></circle>
                <path d="M6.76953125,10.0292969 C6.76953125,9.48241914 6.83593684,9.04687662 6.96875,8.72265625 C7.10156316,8.39843588 7.34472479,8.07910313 7.69824219,7.76464844 C8.05175958,7.45019374 8.28710879,7.19433692 8.40429688,6.99707031 C8.52148496,6.7998037 8.58007812,6.59179797 8.58007812,6.37304688 C8.58007812,5.71288732 8.27539367,5.3828125 7.66601562,5.3828125 C7.37695168,5.3828125 7.14550868,5.4716788 6.97167969,5.64941406 C6.79785069,5.82714933 6.70703129,6.07226406 6.69921875,6.38476562 L5,6.38476562 C5.00781254,5.63866814 5.24902106,5.05468961 5.72363281,4.6328125 C6.19824456,4.21093539 6.84569902,4 7.66601562,4 C8.49414477,4 9.13671646,4.20019331 9.59375,4.60058594 C10.0507835,5.00097856 10.2792969,5.5664026 10.2792969,6.296875 C10.2792969,6.62890791 10.2050789,6.94238134 10.0566406,7.23730469 C9.90820238,7.53222804 9.64843936,7.8593732 9.27734375,8.21875 L8.80273438,8.66992188 C8.50585789,8.95507955 8.33593771,9.28906059 8.29296875,9.671875 L8.26953125,10.0292969 L6.76953125,10.0292969 Z M6.59960938,11.828125 C6.59960938,11.5664049 6.68847567,11.3505868 6.86621094,11.1806641 C7.0439462,11.0107413 7.27148299,10.9257812 7.54882812,10.9257812 C7.82617326,10.9257812 8.05371005,11.0107413 8.23144531,11.1806641 C8.40918058,11.3505868 8.49804688,11.5664049 8.49804688,11.828125 C8.49804688,12.0859388 8.41113368,12.2988273 8.23730469,12.4667969 C8.06347569,12.6347665 7.8339858,12.71875 7.54882812,12.71875 C7.26367045,12.71875 7.03418056,12.6347665 6.86035156,12.4667969 C6.68652257,12.2988273 6.59960938,12.0859388 6.59960938,11.828125 Z" id="?" fill="#FFFFFF"></path>
            </g>
        </g>
    </g>
</svg>