<svg xmlns="http://www.w3.org/2000/svg" width="26" height="26" viewBox="0 0 26 26">
    <g fill="none" fill-rule="evenodd">
        <!--<path fill="#FFF" d="M-25-1347h360v2535H-25z"/>-->
        <g fill="#6B6B6B">
            <path d="M20.546 14.803H15.62c0 1.764 1.674 1.652 1.674 1.652 1.579 0 1.523-1.02 1.523-1.02h1.673c0 2.712-3.252 2.526-3.252 2.526-3.9 0-3.651-3.633-3.651-3.633s-.003-3.651 3.65-3.651c3.847 0 3.31 4.126 3.31 4.126zm-7.335.155c0 2.9-3.019 2.805-3.019 2.805H5.248V8.26h4.944c1.503 0 2.69.83 2.69 2.531 0 1.699-1.449 1.808-1.449 1.808 1.91 0 1.778 2.359 1.778 2.359zm1.983-4.967h3.92v-1.17h-3.92v1.17zM12.909.181C5.792.18 0 5.971 0 13.088 0 20.208 5.792 26 12.91 26c7.12 0 12.91-5.792 12.91-12.91S20.03.18 12.91.18z"/>
            <path d="M10.865 10.936c0-.988-.673-.988-.673-.988H7.427v2.122h2.595c.446 0 .843-.144.843-1.134M17.273 12.07c-1.465 0-1.67 1.463-1.67 1.463h3.12s.02-1.463-1.45-1.463M10.192 13.533H7.427v2.542h2.625c.394-.01 1.143-.125 1.143-1.237 0-1.317-1.003-1.305-1.003-1.305"/>
        </g>
    </g>
</svg>
