<svg xmlns="http://www.w3.org/2000/svg" width="16" height="16" viewBox="0 0 16 16">
    <path fill="#71BCD8" fill-rule="evenodd" d="M7.6 1.13v2.927a9.344 9.344 0 0 1-1.987-.298A9.325 9.325 0 0 1 7.6 1.129zM3.13 2.7A7.13 7.13 0 0 1 6.675.921a10.082 10.082 0 0 0-1.836 2.597A9.334 9.334 0 0 1 3.131 2.7zM7.6 4.855V7.6H4.61a9.308 9.308 0 0 1 .668-3.104c.753.208 1.533.33 2.323.36zM4.515 4.25A10.123 10.123 0 0 0 3.813 7.6H.81a7.2 7.2 0 0 1 1.75-4.314c.613.389 1.27.712 1.953.963zm3.087 7.422v3.2A9.312 9.312 0 0 1 5.495 12a9.38 9.38 0 0 1 2.106-.33zM4.61 8.4H7.6v2.475c-.827.031-1.638.161-2.417.385A9.328 9.328 0 0 1 4.61 8.4zm.12 3.852a10.117 10.117 0 0 0 1.942 2.827 7.23 7.23 0 0 1-3.714-1.94 9.323 9.323 0 0 1 1.773-.887zm-.918-3.852c.04 1.068.247 2.114.615 3.114-.708.266-1.384.611-2.014 1.027A7.116 7.116 0 0 1 .81 8.4h3.003zM15.19 7.6h-3.003a10.114 10.114 0 0 0-.702-3.351 10.19 10.19 0 0 0 1.954-.963A7.202 7.202 0 0 1 15.19 7.6zm0 .799a7.115 7.115 0 0 1-1.605 4.141 10.16 10.16 0 0 0-2.012-1.027c.366-.996.573-2.043.614-3.114h3.003zM8.399 4.057V1.129a9.3 9.3 0 0 1 1.99 2.63c-.65.17-1.318.27-1.99.298zm2.764-.54A10.116 10.116 0 0 0 9.326.922a7.128 7.128 0 0 1 3.545 1.78 9.421 9.421 0 0 1-1.708.817zm.228 4.083H8.399V4.855c.79-.03 1.57-.15 2.325-.36.398.987.622 2.03.667 3.105zm1.651 5.537a7.236 7.236 0 0 1-3.715 1.94c.808-.83 1.46-1.779 1.942-2.826.617.23 1.212.528 1.773.886zM8.4 10.874V8.399h2.992a9.315 9.315 0 0 1-.574 2.861 10.076 10.076 0 0 0-2.418-.386zM10.505 12a9.281 9.281 0 0 1-2.106 2.87v-3.2c.719.03 1.426.142 2.106.33zm3.356-9.439l-.035-.038A7.957 7.957 0 0 0 8.276.006L8.125.002a3.727 3.727 0 0 0-.247 0l-.153.004A7.952 7.952 0 0 0 2.21 2.488l-.039.04A7.97 7.97 0 0 0 0 8a7.989 7.989 0 0 0 2.004 5.287l.034.04a7.927 7.927 0 0 0 5.686 2.666L8 16l.123-.003.155-.004a8.035 8.035 0 0 0 5.685-2.666l.028-.015.01-.027a7.984 7.984 0 0 0-.14-10.723z"/>
</svg>
