<svg xmlns="http://www.w3.org/2000/svg" width="32" height="32" viewBox="0 0 32 32">
    <g fill="none" fill-rule="evenodd">
        <path fill-rule="nonzero" d="M0 0h32v32H0z"/>
        <path stroke="#FFF" stroke-width="3" d="M14.394 2.5a4.997 4.997 0 0 0 .024-.002zm.151.003L8.5 14.666V29.5h17.046c1.41.014 2.597-.916 2.807-2.16l2.113-12.322c.235-1.384-.807-2.692-2.366-2.903a3.246 3.246 0 0 0-.465-.028h-8.902V6.413c0-2.1-1.841-3.833-4.188-3.91zM8.5 29.5v-15H4.247c-1.524 0-2.747 1.17-2.747 2.618v9.764c0 1.448 1.223 2.618 2.747 2.618H8.5z"/>
    </g>
</svg>
