<svg xmlns="http://www.w3.org/2000/svg" width="80" height="80" viewBox="0 0 80 80">
    <g fill="none" fill-rule="evenodd">
        <path fill="#01579B" d="M77.037 40.5c0 20.708-16.806 37.5-37.53 37.5C18.78 78 1.974 61.208 1.974 40.5S18.781 3 39.506 3c20.725 0 37.531 16.792 37.531 37.5z"/>
        <path fill="#0277BD" d="M59.26 34.186c0-1.188 0-5.728-2.964-9.275-.2-.2-.393-.593-.393-.795-.201-.192-.201-.392-.394-.785l-.4-.594-.395-.594c-.393-.593-.594-.987-.594-.987-.787-1.18-.987-2.76-.192-4.14.192-.4.593-.794.786-1.187-.193-.2-.393-.393-.594-.393h-.192c-.595-.394-1.19-.794-1.582-1.188l-1.381-.987c-.988-.593-1.582-.785-1.582-.987-1.381-.785-2.176-2.166-1.976-3.746.2-1.58 1.189-2.96 2.763-3.354.2 0 .593-.2.988-.2l-.193-.2C47.407 3.593 43.457 3 39.506 3c-14.614 0-27.454 8.489-33.58 20.724v.987c0 14.208 12.446 25.657 27.654 25.657 11.652 0 21.528-6.707 25.68-16.182z"/>
        <path fill="#FFF176" d="M51.358 8.921s.595-.2 1.775-.2h1.975c.795 0 1.581.2 2.569.4.988.193 1.975.587 2.963.987.988.394 2.177.987 3.164 1.774.988.594 1.976 1.58 2.963 2.366.988.794 1.774 1.974 2.57 2.96.586 1.189 1.381 2.176 1.975 3.355.586 1.187.987 2.374 1.381 3.553.393 1.189.594 2.368.787 3.355.201 1.187.201 2.174.201 2.96v1.388c0 .393 0 .786-.201 1.179 0 .794-.193 1.38-.193 1.974 0 .987-.2 1.58-.2 1.58s-.394-.593-.788-1.58c-.2-.393-.593-.987-.795-1.773-.192-.594-.593-1.38-.987-2.175-.394-.785-.787-1.58-1.18-2.566-.402-.787-.988-1.774-1.39-2.76-.393-.987-.987-1.774-1.574-2.76-.593-.988-1.188-1.782-1.782-2.568-.594-.794-1.18-1.78-1.976-2.367-.786-.794-1.38-1.58-2.168-2.174-.593-.787-1.388-1.38-2.175-1.974-.788-.594-1.381-1.187-2.176-1.58-.587-.594-1.382-.988-1.976-1.38-.586-.393-1.18-.787-1.574-.987-.593-.594-1.188-.987-1.188-.987z"/>
        <path fill="#FDD835" d="M77.238 27.871c-.594-4.348-2.377-8.295-4.352-11.055-.988-1.38-1.975-2.367-2.562-2.96-.795-.595-1.188-.988-1.188-.988s0 .595.2 1.581c.193.987.193 2.166.394 3.746.193.795.193 1.581.393 2.368-.787-1.18-1.774-2.368-2.762-3.153-.988-.987-2.176-1.581-2.77-1.974-.988-.394-1.381-.594-1.381-.594s.2.393.393 1.187c.201.787.595 1.774.988 3.153.394 1.38.987 3.162 1.582 4.934-1.188-1.38-2.369-2.566-3.558-3.353-1.38-.786-2.569-1.38-3.556-1.58-1.18-.394-1.775-.394-1.775-.394s.393.393.787 1.188c.2.393.594.786.795 1.38.393.593.594 1.18.988 1.773.593 1.188 1.38 2.567 1.975 4.148.393.786.594 1.58.988 2.367.192.786.786 1.58.987 2.567.394.786.594 1.58.988 2.567.193.787.594 1.573.786 2.56.202.795.595 1.58.795 2.374.193.787.394 1.574.787 2.167.595 1.38.988 2.567 1.381 3.354.394.794.595 1.187.595 1.187s.2-.393.594-1.38c.193-.393.393-.986.393-1.58.201-.595.394-1.38.394-2.174 0-.587.201-1.18.201-1.774.193.594.393.987.393.987s.2-.393.595-1.187c.192-.394.393-.787.593-1.38v-.193c0 .394 0 .987.193 1.38 0 .786.201 1.38.201 1.974v1.772c0 .987.193 1.581.193 1.581s.4-.392.988-1.187c.2-.394.593-.786.987-1.38.401-.593.594-1.18.988-1.974.4-.786.593-1.58.795-2.567.193-.987.393-1.974.594-2.96.192-.987.192-2.166.192-3.153.202-1.188 0-2.368-.192-3.355z"/>
        <path fill="#FFB300" d="M79.213 32.212c0-.986-.2-1.58-.2-1.58s-.394.594-.988 1.38c-.595.986-1.188 2.174-1.976 3.754-.594 1.38-1.38 2.96-2.175 4.534 0-1.573 0-2.96-.193-4.341a98.736 98.736 0 0 0-.595-3.153c-.393-.987-.594-1.974-.987-2.768-.595-1.773-1.381-2.961-1.976-3.948-.594-.987-.987-1.38-.987-1.38s-.2 2.367-.2 5.922c0 1.773-.193 3.554-.395 5.72 0 .987-.192 1.974-.192 3.161 0 .987-.2 2.174-.401 3.161v.787c-.193-1.774-.788-3.555-1.575-4.734a9.512 9.512 0 0 0-1.975-2.96c-.795-.988-1.188-1.188-1.188-1.188v1.38c0 .794 0 1.973-.2 3.354-.193 2.567-.587 5.92-.988 9.082-.193.786-.394 1.58-.394 2.366-.193.795-.393 1.581-.393 2.368-.2.794-.394 1.58-.595 2.174-.193.786-.393 1.38-.393 1.973-.2.594-.2 1.38-.393 1.774-.202.593-.202.987-.394 1.58-.2.986-.2 1.58-.2 1.58s.392-.2 1.187-.786c.788-.593 1.775-1.187 2.763-2.374.393-.587.988-1.18 1.582-1.974.393-.787.988-1.38 1.38-2.166 0 .593-.2 1.18-.2 1.772-.192.594-.192 1.38-.394 1.781-.393 1.18-.393 1.774-.393 1.774.2-.2.787 0 1.38.2 0 .193-.192.394-.192.394-.2.593-.4 1.18-.593 1.772-.394.987-.595 1.581-.595 1.581s.595-.2 1.38-.786c.395-.401.989-.593 1.583-1.187.595-.393 1.188-.987 1.775-1.774.594-.593 1.188-1.387 1.975-2.174.594-.786 1.188-1.773 1.783-2.76 1.18-1.974 2.168-4.148 2.963-6.322.786-2.166 1.581-4.533 1.975-6.707.393-2.174.594-4.148.786-5.921 0-1.774 0-3.161-.192-4.34z"/>
        <path fill="#FF9800" d="M73.874 53.129c-.788.4-1.575 1.187-2.763 1.973-1.582 1.187-3.356 2.768-5.139 4.54.2-.592.594-1.179.795-1.772.594-1.78.787-3.354.988-4.741 0-1.381 0-2.56-.201-3.355-.193-.986-.394-1.38-.394-1.38s-.393.394-.787.988c-.4.594-1.188 1.58-1.975 2.567-.795.987-1.581 2.367-2.376 3.554-.193.192-.193.394-.394.586.394-1.18.394-2.56.394-3.747 0-1.58-.394-3.16-.787-4.34-.394-1.188-.988-2.175-1.381-2.768-.202-.394-.595-.787-.595-.787s-.2.393-.393 1.188c-.201.586-.594 1.573-.987 2.76-.395.987-.595 2.174-.988 3.554-.202.593-.394 1.18-.595 1.974-.2.593-.393 1.18-.594 1.58-3.75 3.747-8.295 4.734-12.638 4.934-2.37 0-4.545-.4-6.52-.987-2.964-.987-5.726-2.768-8.295-5.134 3.749.393 7.307-.393 10.27-1.774l4.938-3.16c.594-.2 1.188-.2 1.775 0 1.188-.2 1.58-.787 1.188-1.974-.595-.787-1.582-1.581-2.57-2.174-2.569-1.38-5.131-1.18-7.901.593-2.57 1.38-4.939 1.188-7.508-.192-6.118-3.161-3.75-11.256 2.77-7.109.394-1.973-.2-4.147-1.38-6.314-5.734-10.462.786-18.95 2.962-20.33-3.95.392-7.507 2.174-10.672 5.134C1.775 14.642 0 34.38 0 34.58l2.368-2.174c-.786 2.174-1.38 4.348-1.58 6.715C0 46.814 2.175 54.316 7.306 61.818 15.207 71.878 27.654 78 39.507 78c13.433 0 22.12-4.934 27.854-11.248.394-.394.787-.794 1.18-1.188 1.19-1.38 2.37-2.76 3.357-4.34.988-1.38 1.582-2.96 2.176-4.34.393-1.381.787-2.568.988-3.355v-1.187s-.393.2-1.188.787z"/>
        <path fill="#EF6C00" d="M15.802 48.395c-.393-13.816 8.496-12.629 13.04-11.056-3.163-.586-4.544 2.374-3.163 5.135-.595 0-6.713-.594-9.877 5.92zm12.447 5.72c3.749.401 7.307-.393 10.27-1.773l4.938-3.16c.393-.193.987-.193 1.38 0-5.724-3.355-11.851 3.754-25.284 1.58 3.364 2.567 8.696 3.353 8.696 3.353zm-.59-32.194c-.401 2.96.192 6.515 2.168 10.261 2.77-1.58 5.532-3.353 5.532-3.353s3.951-3.947 0-3.947c-3.75 0-6.319-1.581-7.7-2.96zm-15.213-4.319c-1.782-1.573-4.545-4.734-4.545-8.68 0 0-4.738 7.693-2.963 13.815 1.775-2.174 4.344-3.948 7.508-5.135z"/>
        <path fill="#FFCC80" d="M29.975 32.327c2.77-1.58 5.533-3.353 5.533-3.353l.787-.787L35.508 27H28c.394 1.773.988 3.555 1.975 5.327z"/>
        <path fill="#5D4037" d="M34.975 25.2c-.594 0-1.188 0-1.775-.2l-.2.2s1.582 2.568 1.975 3.948c0 0 3.95-3.948 0-3.948z"/>
    </g>
</svg>
