<svg xmlns="http://www.w3.org/2000/svg" width="40" height="40" viewBox="0 0 40 40">
    <path fill="#71BCD8" fill-rule="evenodd" d="M28.923 15.424c.008.196.012.397.012.598 0 6.081-4.63 13.094-13.098 13.094-2.6 0-5.02-.759-7.057-2.069a9.234 9.234 0 0 0 6.816-1.904 4.61 4.61 0 0 1-4.299-3.198 4.556 4.556 0 0 0 2.077-.079 4.604 4.604 0 0 1-3.694-4.51c0-.021 0-.04.005-.06.616.346 1.33.55 2.085.574a4.61 4.61 0 0 1-1.428-6.144 13.07 13.07 0 0 0 9.486 4.81 4.625 4.625 0 0 1-.116-1.05c0-2.54 2.06-4.602 4.601-4.602 1.326 0 2.522.56 3.36 1.451a9.094 9.094 0 0 0 2.926-1.116 4.619 4.619 0 0 1-2.026 2.548 9.123 9.123 0 0 0 2.643-.723 9.348 9.348 0 0 1-2.293 2.38M19.997 0C8.973 0 0 8.973 0 19.998 0 31.028 8.973 40 19.997 40 31.027 40 40 31.028 40 19.998 40 8.973 31.027 0 19.997 0"/>
</svg>
