<svg xmlns="http://www.w3.org/2000/svg" width="80" height="80" viewBox="0 0 80 80">
    <g fill="none" fill-rule="evenodd">
        <path fill="#4CAF50" d="M80 40c0 22.086-17.914 40-40 40S0 62.086 0 40 17.914 0 40 0s40 17.914 40 40z"/>
        <path fill="#FFC107" d="M40 0v40l16 8-17.687 32H40c22.109 0 40-17.891 40-40S62.109 0 40 0z"/>
        <path fill="#4CAF50" d="M80 40c0 22.086-17.914 40-40 40S0 62.086 0 40 17.914 0 40 0s40 17.914 40 40z"/>
        <path fill="#FFC107" d="M40 0v40l16 8-17.687 32H40c22.109 0 40-17.891 40-40S62.109 0 40 0z"/>
        <path fill="#F44336" d="M75.68 22H40v26l-6-2L6.32 18.523h-.039C13.359 7.383 25.82 0 40 0c15.602 0 29.102 8.961 35.68 22z"/>
        <path fill="#DD2C00" d="M6.313 18.531L24 48.25 34 46z"/>
        <path fill="#558B2F" d="M38.313 80L56.18 47.883 48 42z"/>
        <path fill="#F9A825" d="M75.727 22H40l-3.156 9.156z"/>
        <path fill="#FFF" d="M58 40c0 9.938-8.062 18-18 18-9.937 0-18-8.062-18-18 0-9.937 8.063-18 18-18 9.938 0 18 8.063 18 18z"/>
        <path fill="#2196F3" d="M54 40c0 7.734-6.266 14-14 14s-14-6.266-14-14 6.266-14 14-14 14 6.266 14 14z"/>
    </g>
</svg>
