<svg xmlns="http://www.w3.org/2000/svg" width="26" height="26" viewBox="0 0 26 26">
    <g fill="none" fill-rule="evenodd">
        <path fill="#FFF" d="M-25-1281h360v2535H-25z"/>
        <path fill="#6B6B6B" d="M18.8 10.025c.005.128.008.258.008.39 0 3.952-3.01 8.51-8.514 8.51a8.45 8.45 0 0 1-4.587-1.344 6.002 6.002 0 0 0 4.43-1.238 2.996 2.996 0 0 1-2.794-2.079 2.962 2.962 0 0 0 1.35-.051 2.992 2.992 0 0 1-2.401-2.932c0-.013 0-.026.003-.039.4.225.864.358 1.355.373a2.996 2.996 0 0 1-.928-3.993 8.495 8.495 0 0 0 6.166 3.127 3.006 3.006 0 0 1-.076-.683 2.992 2.992 0 0 1 5.175-2.048 5.911 5.911 0 0 0 1.902-.726 3.002 3.002 0 0 1-1.317 1.657 5.93 5.93 0 0 0 1.719-.47 6.076 6.076 0 0 1-1.49 1.546M12.997 0C5.833 0 0 5.833 0 12.999 0 20.169 5.833 26 12.998 26 20.168 26 26 20.168 26 12.999 26 5.833 20.167 0 12.998 0"/>
    </g>
</svg>
