<svg xmlns="http://www.w3.org/2000/svg" width="80" height="80" viewBox="0 0 80 80">
    <g fill="none" fill-rule="evenodd">
        <path fill="#CFD8DC" d="M80 40c0 22.086-17.914 40-40 40S0 62.086 0 40 17.914 0 40 0s40 17.914 40 40z"/>
        <path fill="#448AFF" d="M74 40c0 18.781-15.219 34-34 34S6 58.781 6 40 21.219 6 40 6s34 15.219 34 34z"/>
        <path fill="#FF3D00" d="M35.797 35.797l8.406 8.406 18.399-26.805z"/>
        <path fill="#BF360C" d="M40 40l22.602-22.602-18.399 26.805z"/>
        <path fill="#FFF" d="M35.797 35.797L17.398 62.602l26.805-18.399z"/>
        <path fill="#C9C9C9" d="M40 40L17.398 62.602l26.805-18.399z"/>
        <path fill="#BBDEFB" d="M26.203 13.398c1.195-.601 2.399-1.195 3.594-1.601l2.406 5.406-3.601 1.594-2.399-5.399zM64 42h5.797c0-.602.203-1.398.203-2 0-.602 0-1.398-.203-2H64v4zM17.398 20.203l4.204 4.195 2.796-2.796-4.195-4.204-2.805 2.805zm24.602-10C41.398 10 40.602 10 40 10c-.602 0-1.398 0-2 .203V16h4v-5.797zM52.797 13c-1.195-.602-2.399-1-3.797-1.398l-2.203 5.601 3.805 1.399L52.797 13zM17 33l1.398-3.797L13 27c-.602 1.203-1 2.398-1.398 3.797L17 33zm-1 5h-5.797C10 38.602 10 39.398 10 40c0 .602 0 1.398.203 2H16v-4zm47 9l-1.398 3.797L67 53c.602-1.203 1-2.398 1.398-3.797L63 47zm5.203-17.203c-.406-1.195-1-2.399-1.601-3.594l-5.399 2.399 1.594 3.601 5.406-2.406zm-5.601 30l-4.204-4.195-2.796 2.796 4.195 4.204 2.805-2.805zm-43.805-8.399l-1.594-3.601-5.406 2.406c.406 1.195 1 2.399 1.601 3.594l5.399-2.399zm32.601 9.805l-3.601 1.594 2.406 5.406c1.195-.406 2.399-1 3.594-1.601l-2.399-5.399zM33 63l-3.797-1.398L27 67c1.203.602 2.398 1 3.797 1.398L33 63zm9 6.797V64h-4v5.797c.602 0 1.398.203 2 .203.602 0 1.398 0 2-.203z"/>
    </g>
</svg>
