<svg xmlns="http://www.w3.org/2000/svg" width="90" height="90" viewBox="0 0 90 90">
    <g fill="none" fill-rule="nonzero">
        <path d="M0 0h90v90H0z"/>
        <g transform="translate(0 3)">
            <path stroke="#DADADA" stroke-width="4" d="M45 14.647L3.526 84h82.948L45 14.647z"/>
            <path stroke="#DADADA" stroke-linecap="round" stroke-linejoin="round" stroke-width="4" d="M51.3 3.583l-7.2 12.542M38.7 3.583l7.2 12.542M45 0v16.125"/>
            <path stroke="#DADADA" stroke-width="4" d="M59.2 84H30.8V67.263c0-7.843 6.358-14.2 14.2-14.2s14.2 6.357 14.2 14.2V84z"/>
            <path stroke="#DADADA" stroke-linecap="square" stroke-width="4" d="M34.2 34.49h21.6M18 61.365h12.34M59.4 61.365h11.7"/>
            <circle cx="5.6" cy="3.792" r="2" fill="#DADADA"/>
            <circle cx="20" cy="18.125" r="2" fill="#DADADA"/>
            <circle cx="11" cy="36.938" r="2" fill="#DADADA"/>
            <circle cx="80.3" cy="4.688" r="2" fill="#DADADA"/>
            <circle cx="67.7" cy="25.292" r="2" fill="#DADADA"/>
        </g>
    </g>
</svg>
