<?xml version="1.0" encoding="UTF-8"?>
<svg width="18px" height="18px" viewBox="0 0 18 18" version="1.1" xmlns="http://www.w3.org/2000/svg" xmlns:xlink="http://www.w3.org/1999/xlink">
    <!-- Generator: Sketch 52.5 (67469) - http://www.bohemiancoding.com/sketch -->
    <title>icn-store</title>
    <desc>Created with Sketch.</desc>
    <g id="Page-1" stroke="none" stroke-width="1" fill="none" fill-rule="evenodd">
        <g id="w-new-main-04" transform="translate(-1261.000000, -23.000000)" fill-rule="nonzero">
            <g id="gnb">
                <g id="icn-store" transform="translate(1261.000000, 23.000000)">
                    <rect id="Rectangle" x="0" y="0" width="18" height="18"></rect>
                    <g id="Group-4" fill="#464646">
                        <path d="M13.1586897,2 L4.84131025,2 L3.28786141,5 L14.7121386,5 L13.1586897,2 Z M3.62471396,0 L14.375286,0 L18,7 L0,7 L3.62471396,0 Z" id="Rectangle-12-Copy"></path>
                        <path d="M0,7 L2,7 C2,8.03185425 3.290861,9 5,9 C6.709139,9 8,8.03185425 8,7 L10,7 C10,9.28185425 7.709139,11 5,11 C2.290861,11 0,9.28185425 0,7 Z" id="Path"></path>
                        <path d="M8,7 L10,7 C10,8.03185425 11.290861,9 13,9 C14.709139,9 16,8.03185425 16,7 L18,7 C18,9.28185425 15.709139,11 13,11 C10.290861,11 8,9.28185425 8,7 Z" id="Path"></path>
                        <polygon id="Path" points="4 16 14 16 14 9 16 9 16 18 2 18 2 9 4 9"></polygon>
                    </g>
                </g>
            </g>
        </g>
    </g>
</svg>