<svg xmlns="http://www.w3.org/2000/svg" width="14" height="14" viewBox="0 0 14 14">
    <g fill="none" fill-rule="evenodd">
        <path d="M0 0h14v14H0z"/>
        <path fill="#466DFF" d="M13.929.053a.208.208 0 0 0-.227-.033L.122 6.412a.213.213 0 0 0-.005.382l3.844 1.91c.07.036.154.028.217-.02l3.737-2.829L4.98 8.912a.214.214 0 0 0-.058.164l.292 3.853a.211.211 0 0 0 .209.196c.06 0 .117-.026.158-.074l2.04-2.394 2.522 1.22a.206.206 0 0 0 .174.003.21.21 0 0 0 .116-.13L13.99.275a.214.214 0 0 0-.061-.222z"/>
    </g>
</svg>
