<svg xmlns="http://www.w3.org/2000/svg" width="40" height="40" viewBox="0 0 40 40">
    <g fill="#71BCD8" fill-rule="evenodd">
        <path d="M31.61 22.773H24.03c0 2.715 2.574 2.543 2.574 2.543 2.43 0 2.344-1.57 2.344-1.57h2.574c0 4.172-5.004 3.886-5.004 3.886-6 0-5.617-5.589-5.617-5.589s-.004-5.617 5.617-5.617c5.918 0 5.09 6.347 5.09 6.347zm-11.286.24c0 4.46-4.644 4.315-4.644 4.315H8.074v-14.62h7.606c2.312 0 4.14 1.276 4.14 3.894 0 2.613-2.23 2.781-2.23 2.781 2.937 0 2.734 3.63 2.734 3.63zm3.051-7.642h6.031v-1.8h-6.03v1.8zM19.86.277C8.91.277 0 9.188 0 20.137 0 31.09 8.91 40 19.86 40c10.952 0 19.862-8.91 19.862-19.863 0-10.949-8.91-19.86-19.863-19.86z"/>
        <path d="M16.715 16.824c0-1.52-1.035-1.52-1.035-1.52h-4.254v3.266h3.992c.687 0 1.297-.222 1.297-1.746M26.574 18.57c-2.254 0-2.57 2.25-2.57 2.25h4.8s.032-2.25-2.23-2.25M15.68 20.82h-4.254v3.911h4.04c.604-.016 1.757-.192 1.757-1.903 0-2.027-1.543-2.008-1.543-2.008"/>
    </g>
</svg>
