<svg xmlns="http://www.w3.org/2000/svg" width="14" height="12" viewBox="0 0 14 12">
    <path fill="#6B6B6B" fill-rule="nonzero" d="M3.912 7.612l.658-1.436a.806.806 0 0 1 1.075-.39c.408.19.59.67.405 1.075l-1.374 3a.805.805 0 0 1-1.003.42L.524 9.166A.817.817 0 0 1 .02 8.134a.804.804 0 0 1 1.032-.49l1.324.469C2.227 7.512 2.157 6.807 2.157 6c0-3.314 2.651-6 5.922-6C11.349 0 14 2.686 14 6s-2.651 6-5.921 6a.81.81 0 0 1-.805-.816c0-.45.36-.815.805-.815 2.38 0 4.311-1.956 4.311-4.369s-1.93-4.369-4.311-4.369C5.697 1.631 3.767 3.587 3.767 6c0 .644.051 1.181.145 1.612z"/>
</svg>
