<svg xmlns="http://www.w3.org/2000/svg" width="90" height="90" viewBox="0 0 90 90">
    <g fill="none" fill-rule="nonzero">
        <path d="M0 0h90v90H0z"/>
        <g transform="translate(0 4)">
            <path stroke="#DADADA" stroke-width="4" d="M87.903 23.189L69.557 6.798 56.47 2.096c-.09 1.385-.61 3.518-1.642 5.41-1.898 3.476-5.166 5.64-9.913 5.714-4.704-.074-7.982-2.235-9.888-5.712a14.02 14.02 0 0 1-1.384-3.761A13.637 13.637 0 0 1 33.38 2.1l-13.06 4.75L2.096 23.188l14.926 15.396V80h55.98V38.584l.562-.581 14.338-14.814zM69.525 6.769l-.004-.004a.224.224 0 0 0 .004.004zM56.166 1.987l-.002-.001h.002zm31.89 21.043l.013-.013a.232.232 0 0 0-.013.013zm.005.297z"/>
            <rect width="4" height="20" x="15" y="24.33" fill="#DADADA" rx="2"/>
            <rect width="4" height="20" x="71" y="24" fill="#DADADA" rx="2"/>
            <path fill="#DADADA" d="M33.3.901h24v4h-24z"/>
            <path stroke="#DADADA" stroke-width="4" d="M62.8 29.033H50.6v11.348l6.1 4.072 6.1-4.072V29.033z"/>
        </g>
    </g>
</svg>
