<svg xmlns="http://www.w3.org/2000/svg" width="16" height="16" viewBox="0 0 16 16">
    <g fill="none" fill-rule="evenodd">
        <path fill="#F6F6F6" d="M-319-136H41v1894h-360z"/>
        <path fill="#6B6B6B" d="M8.013 10.685a2.671 2.671 0 0 1-2.669-2.668A2.671 2.671 0 0 1 8.013 5.35a2.671 2.671 0 0 1 2.668 2.668 2.671 2.671 0 0 1-2.668 2.668m7.937-3.573c-.026-.225-.288-.394-.514-.394-.734 0-1.384-.43-1.657-1.096a1.782 1.782 0 0 1 .447-1.979.444.444 0 0 0 .05-.603 7.915 7.915 0 0 0-1.268-1.28.446.446 0 0 0-.608.05c-.477.527-1.334.724-1.996.447A1.777 1.777 0 0 1 9.324.521.444.444 0 0 0 8.93.053a7.982 7.982 0 0 0-1.8-.004.445.445 0 0 0-.396.457A1.78 1.78 0 0 1 5.64 2.213c-.654.267-1.505.073-1.98-.45a.446.446 0 0 0-.605-.051 7.95 7.95 0 0 0-1.294 1.28.445.445 0 0 0 .048.607c.557.504.737 1.306.447 1.996-.276.658-.959 1.081-1.74 1.081a.435.435 0 0 0-.462.393c-.07.601-.072 1.214-.004 1.82.025.225.295.393.525.393a1.754 1.754 0 0 1 1.646 1.096c.28.682.1 1.477-.447 1.979a.444.444 0 0 0-.049.602c.371.474.798.904 1.265 1.28.184.148.45.128.61-.048.478-.529 1.334-.725 1.994-.448.69.289 1.125.987 1.082 1.736a.444.444 0 0 0 .393.467 7.91 7.91 0 0 0 1.8.006.445.445 0 0 0 .396-.459 1.778 1.778 0 0 1 1.094-1.706c.659-.269 1.505-.072 1.982.45.158.173.419.194.603.051a7.973 7.973 0 0 0 1.294-1.279.445.445 0 0 0-.047-.608 1.772 1.772 0 0 1-.448-1.996 1.791 1.791 0 0 1 1.636-1.084l.099.002c.23.019.44-.158.468-.392.07-.601.072-1.213.004-1.82"/>
    </g>
</svg>
