<?xml version="1.0" encoding="UTF-8"?>
<svg width="18px" height="18px" viewBox="0 0 18 18" version="1.1" xmlns="http://www.w3.org/2000/svg" xmlns:xlink="http://www.w3.org/1999/xlink">
    <!-- Generator: sketchtool 51 (57462) - http://www.bohemiancoding.com/sketch -->
    <title>E473104D-DBFE-40A0-B157-16F9B1EDF869</title>
    <desc>Created with sketchtool.</desc>
    <defs></defs>
    <g id="Web" stroke="none" stroke-width="1" fill="none" fill-rule="evenodd">
        <g id="w-group-create_a_group-02_01" transform="translate(-604.000000, -301.000000)">
            <rect fill="#FFFFFF" x="0" y="0" width="1440" height="2326"></rect>
            <g id="img-notification" transform="translate(574.000000, 287.000000)">
                <g id="icn-notification" transform="translate(30.000000, 14.000000)">
                    <path d="M8.955,10.485 C8.48220039,10.485 8.1,10.1505747 8.1,9.736875 L8.1,5.248125 C8.1,4.83439027 8.48220039,4.5 8.955,4.5 C9.42779961,4.5 9.81,4.83439027 9.81,5.248125 L9.81,9.736875 C9.81,10.149803 9.42779961,10.485 8.955,10.485" id="Fill-4" fill="#3DC5E6"></path>
                    <path d="M8.9554412,13.41 C8.8442194,13.41 8.73303772,13.3843534 8.6303591,13.3416357 C8.5277206,13.298918 8.43362528,13.2390491 8.34807313,13.1621492 C8.27110428,13.0767138 8.21118169,12.9827029 8.16842567,12.8801163 C8.12566965,12.7775698 8.1,12.6664477 8.1,12.5553656 C8.1,12.4442035 8.12566965,12.3331214 8.16842567,12.2305349 C8.21118169,12.1194528 8.27110428,12.0254419 8.34807313,11.9485019 C8.54396468,11.752826 8.8442194,11.6579335 9.1171199,11.7177623 C9.17700239,11.7262978 9.22830159,11.7425674 9.2796409,11.7690556 C9.3309802,11.7870082 9.3822794,11.8117733 9.42503542,11.8459554 C9.47641483,11.8716021 9.51917085,11.9143598 9.56196697,11.9485019 C9.63893583,12.0254419 9.69881831,12.1194528 9.74157433,12.2305349 C9.78437046,12.3331214 9.81,12.4442035 9.81,12.5553656 C9.81,12.6664477 9.78437046,12.7775698 9.74157433,12.8801163 C9.69881831,12.9826628 9.63893583,13.0767138 9.56196697,13.1621492 C9.47553244,13.2390491 9.3822794,13.298918 9.2796409,13.3416357 C9.17700239,13.3843534 9.06666299,13.41 8.9554412,13.41" id="Fill-6" fill="#3DC5E6"></path>
                    <circle id="Oval-2" stroke="#3DC5E6" stroke-width="2" cx="9" cy="9" r="8"></circle>
                </g>
            </g>
        </g>
    </g>
</svg>