<svg xmlns="http://www.w3.org/2000/svg" width="18" height="18" viewBox="0 0 18 18">
    <g fill="none" fill-rule="evenodd">
        <path fill-rule="nonzero" d="M0 0h18v18H0z"/>
        <path stroke="#464646" stroke-width="2" d="M5 17V9H1.6c-.3 0-.6.34-.6.818v6.364c0 .478.3.818.6.818H5zM6 17h9.218c.29.004.574-.262.629-.664l1.145-8.473c.058-.422-.225-.81-.602-.876.037.007.006.006-.026.007l-.077.002L16.14 7h-4.604l-.005-.995a690.496 690.496 0 0 1-.008-3.32c0-.614-.842-1.356-1.702-1.602L6 8.25V17zM16.39 6.987z"/>
    </g>
</svg>
