<svg xmlns="http://www.w3.org/2000/svg" width="26" height="26" viewBox="0 0 26 26">
    <g fill="none" fill-rule="evenodd">
        <path fill="#FFF" d="M-25-1215h360v2535H-25z"/>
        <path fill="#6B6B6B" d="M16.233 13.457H14.12v7.54h-3.135v-7.54h-1.49v-2.664h1.49V9.069c0-1.232.586-3.162 3.162-3.162l2.322.01v2.585h-1.685c-.276 0-.664.138-.664.726v1.568h2.388l-.274 2.66zM12.998 0C5.832 0 0 5.833 0 12.999 0 20.169 5.832 26 12.998 26 20.168 26 26 20.168 26 12.999 26 5.833 20.167 0 12.998 0z"/>
    </g>
</svg>
