<svg xmlns="http://www.w3.org/2000/svg" xmlns:xlink="http://www.w3.org/1999/xlink" width="15" height="15" viewBox="0 0 15 15">
    <defs>
        <path id="a" d="M0 0h16v16H0z"/>
    </defs>
    <g fill="none" fill-rule="evenodd">
        <mask id="b" fill="#fff">
            <use xlink:href="#a"/>
        </mask>
        <g fill-rule="nonzero" stroke="#466DFF" mask="url(#b)">
            <g transform="translate(-1 -1)">
                <path stroke-width="1.13" d="M15.233 14.429v-.002.002zm0 .003l-.906-2.101-1.413-.66-.087-.187-.574-1.227-1.414-.661-.087-.186-.573-1.228-1.346-.63.159-.476c.425-1.278.088-2.854-.868-3.81-1.351-1.351-3.594-1.34-4.89-.044-1.296 1.296-1.306 3.563.045 4.915.995.995 2.64 1.3 3.951.79l.344-.132 6.353 6.353c.348.348.869.37 1.158.08.195-.195.256-.496.149-.796z"/>
                <circle cx="5" cy="5" r="1" stroke-width=".879"/>
            </g>
        </g>
    </g>
</svg>
