<svg xmlns="http://www.w3.org/2000/svg" width="25" height="25" viewBox="0 0 25 25">
    <g fill="#000" fill-rule="nonzero">
        <path d="M18.1 0H6.9A6.907 6.907 0 0 0 0 6.9v11.2C0 21.906 3.095 25 6.899 25H18.1C21.905 25 25 21.905 25 18.1V6.9C25 3.094 21.905 0 18.1 0zm4.682 18.1c0 2.582-2.1 4.682-4.681 4.682H6.899c-2.581 0-4.68-2.1-4.68-4.681V6.899c0-2.58 2.099-4.68 4.68-4.68H18.1c2.58 0 4.68 2.1 4.68 4.68v11.202h.001z"/>
        <path d="M12.5 6.071a6.436 6.436 0 0 0-6.429 6.43 6.436 6.436 0 0 0 6.429 6.428 6.436 6.436 0 0 0 6.429-6.429A6.436 6.436 0 0 0 12.5 6.071zm0 10.644A4.22 4.22 0 0 1 8.285 12.5 4.22 4.22 0 0 1 12.5 8.285a4.22 4.22 0 0 1 4.215 4.215 4.22 4.22 0 0 1-4.215 4.215zM19.107 4.286c-.422 0-.837.17-1.135.47-.3.298-.472.713-.472 1.137 0 .422.172.837.472 1.137.298.298.713.47 1.135.47.424 0 .837-.172 1.137-.47.3-.3.47-.715.47-1.137 0-.424-.17-.839-.47-1.137-.298-.3-.713-.47-1.137-.47z"/>
    </g>
</svg>
