<svg xmlns="http://www.w3.org/2000/svg" width="242" height="242" viewBox="0 0 242 242">
    <g fill="#3D3D3D" fill-rule="nonzero">
        <path d="M234.438 105.875H207.65l-65.234-76.003c.756-2.269 1.27-4.659 1.27-7.184C143.688 10.178 133.508 0 121 0c-12.508 0-22.688 10.18-22.688 22.688 0 2.525.515 4.915 1.271 7.184l-65.25 76.003H7.564A7.565 7.565 0 0 0 0 113.438v121A7.565 7.565 0 0 0 7.563 242h226.875a7.565 7.565 0 0 0 7.562-7.563v-121a7.565 7.565 0 0 0-7.563-7.562zM121 15.125a7.565 7.565 0 0 1 7.563 7.563A7.565 7.565 0 0 1 121 30.25a7.565 7.565 0 0 1-7.563-7.563A7.565 7.565 0 0 1 121 15.125zm-11.843 26.817c3.449 2.132 7.487 3.433 11.843 3.433s8.394-1.3 11.843-3.433l54.889 63.933H54.268l54.89-63.933zm-56.22 124.433a7.565 7.565 0 0 1 7.563 7.563 7.565 7.565 0 0 1-7.563 7.562h-7.562v22.688a7.565 7.565 0 0 1-7.563 7.562 7.565 7.565 0 0 1-7.562-7.563v-60.5a7.565 7.565 0 0 1 7.563-7.562h15.124a7.565 7.565 0 0 1 7.563 7.563 7.565 7.565 0 0 1-7.563 7.562h-7.562v15.125h7.563zm66.55 33.275c2.511 3.343 1.83 8.077-1.512 10.588a7.474 7.474 0 0 1-4.537 1.512 7.534 7.534 0 0 1-6.05-3.025L90.75 186.537v17.65a7.565 7.565 0 0 1-7.563 7.563 7.565 7.565 0 0 1-7.562-7.563v-60.5a7.565 7.565 0 0 1 7.563-7.562h15.124c12.509 0 22.688 10.18 22.688 22.688 0 10.163-6.76 18.679-15.972 21.553l14.46 19.284zm39.326-33.275a7.565 7.565 0 0 1 7.562 7.563 7.565 7.565 0 0 1-7.563 7.562h-7.562v15.125h7.563a7.565 7.565 0 0 1 7.562 7.563 7.565 7.565 0 0 1-7.563 7.562h-15.125a7.565 7.565 0 0 1-7.562-7.563v-60.5a7.565 7.565 0 0 1 7.563-7.562h15.125a7.565 7.565 0 0 1 7.562 7.563 7.565 7.565 0 0 1-7.563 7.562h-7.562v15.125h7.563zm45.375 0a7.565 7.565 0 0 1 7.562 7.563 7.565 7.565 0 0 1-7.563 7.562h-7.562v15.125h7.563a7.565 7.565 0 0 1 7.562 7.563 7.565 7.565 0 0 1-7.563 7.562h-15.125a7.565 7.565 0 0 1-7.562-7.563v-60.5a7.565 7.565 0 0 1 7.563-7.562h15.125a7.565 7.565 0 0 1 7.562 7.563 7.565 7.565 0 0 1-7.563 7.562h-7.562v15.125h7.563z"/>
        <path d="M98.5 151H91v15h7.5c4.14 0 7.5-3.375 7.5-7.5s-3.36-7.5-7.5-7.5z"/>
    </g>
</svg>
