<svg xmlns="http://www.w3.org/2000/svg" xmlns:xlink="http://www.w3.org/1999/xlink" width="137" height="121" viewBox="0 0 137 121">
    <defs>
        <path id="a" d="M0 121h137V0H0z"/>
    </defs>
    <g fill="none" fill-rule="evenodd">
        <path fill="#FFF" d="M118 69a3.001 3.001 0 0 0 0 6 3 3 0 0 0 0-6M107 69a3 3 0 1 0 .002 6.002A3 3 0 0 0 107 69"/>
        <mask id="b" fill="#fff">
            <use xlink:href="#a"/>
        </mask>
        <path fill="#FFF" d="M101 48h6v-6h-6zM96 69a3 3 0 0 0 0 6 3.001 3.001 0 0 0 0-6M87 48h6v-6h-6zM76 48h6v-6h-6zM67 48h6v-6h-6zM42 80a3.001 3.001 0 0 0 0 6 3.001 3.001 0 0 0 0-6" mask="url(#b)"/>
        <path fill="#FFF" d="M115.669 94.007c-2.85.417-5.572 1.762-7.915 3.926-3.84 3.54-8.609 3.54-12.447 0-5.88-5.422-13.779-5.423-19.658 0-3.839 3.54-8.608 3.54-12.447 0-2.845-2.624-6.478-4.07-10.23-4.07-3.752 0-7.385 1.446-10.23 4.07-3.838 3.54-9.41 3.54-13.249 0-5.804-5.353-13.576-5.418-19.431-.2l-4.711-4.24V75.766h74.643c1.013 0 1.94-.58 2.392-1.496l4.612-9.329h44.529c-.824 10.984-6.61 21.645-15.858 29.066zM16.855 54.118h7.543l2.676 16.236h-10.22V54.118zm0-10.823h5.76l.891 5.412h-6.651v-5.412zm44.036-5.412h52.229l-3.415 6.908c-.186.375-.283.79-.283 1.21v13.53H85.344c-1.013 0-1.94.579-2.393 1.495l-4.61 9.328H56.016l4.874-32.471zm16.427-5.412H88.02v-5.412H77.318v5.412zm57.036 68.117c-2.047-.023-4.988-.852-6.942-2.655-1.431-1.32-3.01-2.332-4.668-3.018 8.996-8.841 14.235-20.697 14.235-32.679 0-1.494-1.198-2.706-2.675-2.706h-19.53V46.64l5.068-10.253a2.733 2.733 0 0 0-.117-2.633 2.668 2.668 0 0 0-2.277-1.283H93.37v-8.118c0-1.494-1.198-2.706-2.675-2.706h-5.35V10.823h2.675c1.477 0 2.675-1.211 2.675-2.706 0-1.494-1.198-2.705-2.675-2.705h-2.676V2.706C85.344 1.212 84.146 0 82.67 0c-1.478 0-2.675 1.212-2.675 2.706v2.706h-2.675c-1.478 0-2.676 1.211-2.676 2.705 0 1.495 1.198 2.706 2.676 2.706h2.675v10.824h-5.351c-1.477 0-2.675 1.211-2.675 2.706v8.117H58.59a2.685 2.685 0 0 0-2.645 2.3l-5.34 35.583H32.499l-4.979-30.21a2.684 2.684 0 0 0-2.638-2.26H14.18c-1.478 0-2.676 1.21-2.676 2.705v29.765H2.675C1.198 70.353 0 71.564 0 73.06v21.647c0 .773.326 1.508.897 2.022l4.022 3.62c-.717.154-1.432.239-2.106.239h-.13c-1.463 0-2.657 1.19-2.675 2.673-.017 1.495 1.166 2.72 2.643 2.738 2.714.044 5.737-.779 8.202-2.187.348-.124.676-.324.956-.596a13.664 13.664 0 0 0 1.631-1.285c3.84-3.54 8.608-3.54 12.447 0 2.845 2.625 6.478 4.07 10.23 4.07 3.752 0 7.385-1.445 10.23-4.07 3.839-3.54 9.411-3.54 13.25 0 5.878 5.423 13.778 5.423 19.657 0 3.84-3.54 8.609-3.54 12.447 0 5.88 5.423 13.779 5.423 19.659 0 1.69-1.56 3.62-2.47 5.582-2.63h.01c2.407-.198 4.776.714 6.854 2.63 2.635 2.431 6.752 4.027 10.49 4.068h.03c1.463 0 2.658-1.193 2.674-2.677.016-1.493-1.169-2.717-2.646-2.733zM134.353 115.648c-2.047-.022-4.988-.842-6.942-2.625-5.88-5.36-13.78-5.36-19.66 0-3.839 3.5-8.608 3.5-12.447 0-5.88-5.36-13.78-5.36-19.66 0-3.838 3.5-8.608 3.5-12.446 0C60.352 110.43 56.719 109 52.967 109s-7.386 1.429-10.23 4.023c-3.84 3.5-9.412 3.5-13.25 0-5.88-5.361-13.78-5.36-19.66 0-1.995 1.82-4.943 2.625-7.022 2.625h-.13a2.675 2.675 0 0 0-.032 5.35c3.82.049 8.06-1.532 10.79-4.022 3.84-3.5 8.609-3.5 12.448 0 2.845 2.595 6.478 4.024 10.23 4.024 3.753 0 7.386-1.429 10.231-4.024 3.84-3.5 9.411-3.5 13.25 0 5.88 5.362 13.78 5.362 19.66 0 3.838-3.5 8.608-3.5 12.447 0 5.879 5.362 13.78 5.362 19.658 0 3.84-3.5 8.61-3.5 12.448 0 2.635 2.404 6.753 3.982 10.491 4.022h.03a2.676 2.676 0 0 0 .027-5.35" mask="url(#b)"/>
        <path fill="#FFF" d="M29.375 80h-15.75C12.175 80 11 81.343 11 83s1.175 3 2.625 3h15.75C30.825 86 32 84.657 32 83s-1.175-3-2.625-3" mask="url(#b)"/>
    </g>
</svg>
