<?xml version="1.0" encoding="UTF-8"?>
<svg width="24px" height="24px" viewBox="0 0 24 24" version="1.1" xmlns="http://www.w3.org/2000/svg" xmlns:xlink="http://www.w3.org/1999/xlink">
    <!-- Generator: sketchtool 48.2 (47327) - http://www.bohemiancoding.com/sketch -->
    <title>490402DC-7B7C-48EF-8360-E8AE622426A9</title>
    <desc>Created with sketchtool.</desc>
    <defs></defs>
    <g id="1-MAIN" stroke="none" stroke-width="1" fill="none" fill-rule="evenodd" transform="translate(-1278.000000, -291.000000)">
        <g id="GNB" transform="translate(0.000000, -2.000000)" fill="#000000">
            <g id="top-bar">
                <g id="icon-cart" transform="translate(1262.000000, 274.000000)">
                    <g id="icon-cart-glyph" transform="translate(16.000000, 19.000000)">
                        <path d="M8,20 C7.449,20 7,20.448 7,21 C7,21.552 7.449,22 8,22 C8.551,22 9,21.552 9,21 C9,20.448 8.551,20 8,20 M8,24 C6.346,24 5,22.654 5,21 C5,19.346 6.346,18 8,18 C9.654,18 11,19.346 11,21 C11,22.654 9.654,24 8,24" id="Fill-1"></path>
                        <path d="M20,20 C19.448,20 19,20.448 19,21 C19,21.552 19.448,22 20,22 C20.552,22 21,21.552 21,21 C21,20.448 20.552,20 20,20 M20,24 C18.346,24 17,22.654 17,21 C17,19.346 18.346,18 20,18 C21.654,18 23,19.346 23,21 C23,22.654 21.654,24 20,24" id="Fill-3"></path>
                        <path d="M19.5367156,15 C20.0123498,14.979 20.4629506,14.67 20.5580774,14.194 L22,7 L7,7 L7.94225634,14.129 C8.00734312,14.627 8.43391188,15 8.93457944,15 L8.94359146,15 L19.5367156,15 Z M19.3593519,16.9999334 L19.3003508,16.9999334 L8.75015904,16.9999334 C7.21913121,17.0099334 5.95510824,15.8919378 5.75810466,14.3899437 L4.23807703,2.87098876 C4.17307585,2.3749907 3.74806812,1.99999217 3.24805903,1.99999217 L1.00001818,1.99999217 C0.447008124,1.99999217 0,1.55199392 0,0.999996085 C0,0.447998246 0.447008124,0 1.00001818,0 L3.25005907,0 C4.75008633,0.00199999217 6.02710954,1.1239956 6.22111307,2.60998978 L6.53711881,4.99998043 L23.000418,4.99998043 C23.2994235,4.99998043 23.5834286,5.1339799 23.7734321,5.36597899 C23.9634355,5.59797808 24.0394369,5.90197689 23.9804359,6.19597574 L22.3004053,14.5859429 C22.0204002,15.9929374 20.7883778,16.9999334 19.3593519,16.9999334 Z" id="Fill-5"></path>
                    </g>
                </g>
            </g>
        </g>
    </g>
</svg>