<svg xmlns="http://www.w3.org/2000/svg" width="150" height="150" viewBox="0 0 150 150">
    <g fill="none" fill-rule="evenodd">
        <path d="M0 0h150v150H0z"/>
        <g fill="#FFF">
            <path d="M75.2 69.95v60.171a10.217 10.217 0 0 0 4.55-1.08l40.894-20.447a10.224 10.224 0 0 0 5.674-9.15V50.729c0-1.996-.587-3.902-1.626-5.518L75.2 69.949z"/>
            <path d="M147.573 33.38L126.66 44.351l-20.953 10.892-10.46 5.477-5.248 2.704c-1.756.889-3.52 1.76-5.286 2.63l-5.316 2.567c-1.78.84-3.553 1.696-5.342 2.519-3.569 1.663-7.153 3.295-10.782 4.84a.09.09 0 0 1-.082-.16c3.397-2.006 6.837-3.923 10.293-5.81 1.724-.952 3.464-1.871 5.196-2.806l5.221-2.757c1.747-.907 3.495-1.81 5.253-2.696l5.289-2.621 10.615-5.173 21.196-10.409 21.238-10.328a.09.09 0 0 1 .08.16M83.973 14.18c-5.983 3.169-11.987 6.293-17.98 9.442l-18.02 9.36-8.993 4.713-4.515 2.32c-1.51.763-3.03 1.507-4.552 2.248l-4.582 2.185c-1.536.712-3.064 1.44-4.608 2.136-3.08 1.408-6.175 2.785-9.315 4.074a.09.09 0 0 1-.08-.16c2.907-1.75 5.859-3.413 8.826-5.045 1.48-.825 2.975-1.617 4.463-2.424l4.488-2.375c1.502-.779 3.006-1.555 4.518-2.312l4.556-2.24 9.148-4.406 18.262-8.879c6.102-2.931 12.191-5.886 18.303-8.798a.09.09 0 0 1 .12.043.09.09 0 0 1-.04.118"/>
            <path d="M10.173 37.42l18.612 8.978 18.571 9.059 9.302 4.497 4.634 2.284c1.538.773 3.068 1.564 4.596 2.358l4.564 2.42c1.514.822 3.035 1.63 4.54 2.469 3.019 1.661 6.022 3.354 8.98 5.134a.09.09 0 0 1-.08.161c-3.191-1.32-6.338-2.727-9.47-4.165-1.57-.71-3.123-1.453-4.685-2.181l-4.66-2.23a378.845 378.845 0 0 1-4.629-2.292l-4.592-2.367-9.148-4.802-18.328-9.541-18.288-9.622a.09.09 0 0 1 .08-.16M51.266 6.833l21.66 10.532L94.55 27.964l10.827 5.272 5.398 2.666c1.795.898 3.582 1.812 5.368 2.727l5.341 2.78c1.774.939 3.555 1.866 5.322 2.82a458.754 458.754 0 0 1 10.559 5.804.075.075 0 0 1-.067.134 457.485 457.485 0 0 1-10.966-4.996c-1.82-.846-3.627-1.72-5.441-2.58l-5.42-2.62a621.136 621.136 0 0 1-5.396-2.673l-5.364-2.734-10.699-5.528-21.424-11L51.2 6.965a.075.075 0 0 1 .067-.133M147.573 95.33l-20.913 10.971-20.953 10.892-10.46 5.477-5.248 2.704c-1.756.889-3.52 1.76-5.286 2.63l-5.316 2.567c-1.78.84-3.553 1.696-5.342 2.519-3.569 1.663-7.153 3.295-10.782 4.84a.09.09 0 0 1-.082-.16c3.397-2.006 6.837-3.923 10.293-5.81 1.724-.952 3.464-1.871 5.196-2.806l5.221-2.757c1.747-.907 3.495-1.81 5.253-2.696l5.289-2.621 10.615-5.173 21.196-10.409 21.238-10.328a.09.09 0 0 1 .08.16"/>
            <path d="M126.592 35.25l.24 21.037.18 21.038c.065 7.012.199 14.025.12 21.037-.043 3.506-.086 7.013-.181 10.519l-.145 5.26c-.072 1.752-.122 3.506-.214 5.259a.06.06 0 1 1-.12 0c-.092-1.753-.141-3.507-.214-5.26l-.144-5.26a715.064 715.064 0 0 1-.182-10.518c-.078-7.012.055-14.025.12-21.037l.18-21.038.24-21.037a.06.06 0 0 1 .12 0M23.542 37.95l.24 21.262.18 21.263c.065 7.087.199 14.175.12 21.262a726.213 726.213 0 0 1-.181 10.631l-.145 5.316c-.072 1.772-.122 3.544-.214 5.316a.06.06 0 0 1-.12 0c-.092-1.772-.142-3.544-.214-5.316l-.144-5.316c-.095-3.543-.138-7.087-.182-10.63-.078-7.088.055-14.176.12-21.263l.18-21.263.24-21.262a.06.06 0 0 1 .12 0M26.543 44.854L74.9 69.058l48.377-24.18a9.462 9.462 0 0 0-3.267-2.68L79.114 21.75a9.526 9.526 0 0 0-8.43.001L29.792 42.198a9.463 9.463 0 0 0-3.25 2.656M74.9 70.647a.746.746 0 0 1-.336-.08L25.09 45.805a.752.752 0 0 1-.294-1.078 10.978 10.978 0 0 1 4.328-3.87l40.892-20.447a11.033 11.033 0 0 1 9.768-.001l40.897 20.448a10.973 10.973 0 0 1 4.343 3.897.75.75 0 0 1-.295 1.076L75.236 70.568a.75.75 0 0 1-.336.08"/>
            <path d="M75.65 70.36v58.927a9.527 9.527 0 0 0 3.464-.968l40.894-20.448a9.42 9.42 0 0 0 5.26-8.48V50.678a9.438 9.438 0 0 0-1.164-4.536L75.65 70.361zm-.75 60.46a.751.751 0 0 1-.75-.75V69.896a.75.75 0 0 1 .415-.67l49.492-24.74a.75.75 0 0 1 .966.266 10.948 10.948 0 0 1 1.745 5.923v48.716a10.912 10.912 0 0 1-6.09 9.822L79.785 129.66a11.03 11.03 0 0 1-4.883 1.16H74.9z"/>
            <path d="M25.71 46.115a9.437 9.437 0 0 0-1.178 4.562v48.664a9.42 9.42 0 0 0 5.21 8.532l40.893 20.445a9.516 9.516 0 0 0 3.515.973v-58.93L25.71 46.114zm49.165 84.704c-1.697 0-3.395-.4-4.911-1.159L29.07 109.213a10.91 10.91 0 0 1-6.038-9.877V50.677a10.95 10.95 0 0 1 1.763-5.95.75.75 0 0 1 .966-.264l49.475 24.764a.749.749 0 0 1 .414.67v60.172a.75.75 0 0 1-.748.75h-.027z"/>
        </g>
    </g>
</svg>
