<?xml version="1.0" encoding="UTF-8"?>
<svg width="18px" height="20px" viewBox="0 0 18 20" version="1.1" xmlns="http://www.w3.org/2000/svg" xmlns:xlink="http://www.w3.org/1999/xlink">
    <!-- Generator: sketchtool 48.2 (47327) - http://www.bohemiancoding.com/sketch -->
    <title>FACD8535-524F-47E8-92BB-FC6980E00C63</title>
    <desc>Created with sketchtool.</desc>
    <defs></defs>
    <g id="1-MAIN" stroke="none" stroke-width="1" fill="none" fill-rule="evenodd" transform="translate(-1343.000000, -293.000000)">
        <g id="GNB" transform="translate(0.000000, -2.000000)" fill="#000000">
            <g id="top-bar">
                <g id="icon-account" transform="translate(1321.000000, 274.000000)">
                    <g id="icon-account-glyph" transform="translate(22.000000, 21.000000)">
                        <path d="M17,20 C16.447,20 16,19.553 16,19 L16,17 C16,15.346 14.654,14 13,14 L5,14 C3.346,14 2,15.346 2,17 L2,19 C2,19.553 1.552,20 1,20 C0.448,20 0,19.553 0,19 L0,17 C0,14.243 2.243,12 5,12 L13,12 C15.757,12 18,14.243 18,17 L18,19 C18,19.553 17.553,20 17,20" id="Fill-1"></path>
                        <path d="M9,2 C7.346,2 6,3.346 6,5 C6,6.654 7.346,8 9,8 C10.654,8 12,6.654 12,5 C12,3.346 10.654,2 9,2 M9,10 C6.243,10 4,7.757 4,5 C4,2.243 6.243,0 9,0 C11.757,0 14,2.243 14,5 C14,7.757 11.757,10 9,10" id="Fill-3"></path>
                    </g>
                </g>
            </g>
        </g>
    </g>
</svg>