<svg xmlns="http://www.w3.org/2000/svg" width="25" height="25" viewBox="0 0 25 25">
    <g fill="#000" fill-rule="nonzero">
        <path d="M18.1 0H6.9A6.907 6.907 0 0 0 0 6.9v11.2C0 21.906 3.095 25 6.899 25H18.1C21.905 25 25 21.905 25 18.1V6.9C25 3.094 21.905 0 18.1 0zm4.682 18.1c0 2.582-2.1 4.682-4.681 4.682H6.899c-2.581 0-4.68-2.1-4.68-4.681V6.899c0-2.58 2.099-4.68 4.68-4.68H18.1c2.58 0 4.68 2.1 4.68 4.68v11.202h.001z"/>
        <path d="M9.491 13.443h1.395v5.641c0 .111.092.202.205.202h2.365c.114 0 .206-.09.206-.202V13.47h1.603a.204.204 0 0 0 .204-.179l.244-2.076a.2.2 0 0 0-.05-.158.207.207 0 0 0-.154-.067h-1.847V9.688c0-.392.215-.591.64-.591h1.207c.113 0 .205-.09.205-.202V6.989a.203.203 0 0 0-.205-.202h-1.664l-.077-.001c-.288 0-1.292.055-2.085.772-.879.794-.757 1.745-.728 1.91v1.522H9.491a.203.203 0 0 0-.205.201v2.05c0 .112.092.202.205.202z"/>
    </g>
</svg>
