<svg xmlns="http://www.w3.org/2000/svg" xmlns:xlink="http://www.w3.org/1999/xlink" width="54" height="54" viewBox="0 0 54 54">
    <defs>
        <path id="a" d="M0 0h59v54H0z"/>
    </defs>
    <g fill="none" fill-rule="evenodd" transform="translate(-4)">
        <mask id="b" fill="#fff">
            <use xlink:href="#a"/>
        </mask>
        <path fill="#FFF" d="M47.164 25.2a42.753 42.753 0 0 0-.886-7.2h6.33a23.401 23.401 0 0 1 1.724 7.2h-7.168zM52.607 36h-6.329c.483-2.275.789-4.69.886-7.2h7.164a23.295 23.295 0 0 1-1.72 7.2zM41.094 48.114c1.743-2.315 3.19-5.21 4.245-8.514h5.382a23.475 23.475 0 0 1-9.627 8.514zM32.8 50.17V39.6h8.82c-1.933 5.605-5.123 9.58-8.82 10.57zm0-21.37h10.764a39.905 39.905 0 0 1-.936 7.2H32.8v-7.2zm0-10.8h9.828c.511 2.243.824 4.666.936 7.2H32.8V18zm0-14.166c3.697.986 6.887 4.96 8.82 10.566H32.8V3.834zM50.72 14.4H45.34c-1.055-3.305-2.495-6.203-4.245-8.514a23.5 23.5 0 0 1 9.627 8.514zm-21.52 0h-8.82c1.933-5.605 5.12-9.58 8.82-10.566V14.4zm0 10.8H18.436c.104-2.534.425-4.957.932-7.2H29.2v7.2zm0 10.8h-9.832a40.235 40.235 0 0 1-.932-7.2H29.2V36zm0 14.17c-3.7-.99-6.887-4.965-8.82-10.57h8.82v10.57zM11.276 39.6h5.389c1.051 3.305 2.495 6.203 4.237 8.514a23.498 23.498 0 0 1-9.626-8.514zM7.668 28.8h7.168c.097 2.51.403 4.925.886 7.2h-6.33a23.197 23.197 0 0 1-1.724-7.2zM9.393 18h6.329a42.753 42.753 0 0 0-.886 7.2H7.668c.191-2.534.789-4.957 1.725-7.2zM20.902 5.886c-1.739 2.311-3.182 5.21-4.234 8.514h-5.392a23.523 23.523 0 0 1 9.626-8.514zM57.935 25.2C57.05 11.722 46.278.947 32.8.061V0h-3.6v.061C15.722.947 4.947 11.721 4.061 25.2H4v3.6h.061c.886 13.478 11.66 24.25 25.139 25.135V54h3.6v-.065C46.278 53.05 57.05 42.278 57.935 28.8H58v-3.6h-.065z" mask="url(#b)"/>
    </g>
</svg>
