<svg xmlns="http://www.w3.org/2000/svg" width="34" height="34" viewBox="0 0 34 34">
    <g fill="none" fill-rule="evenodd">
        <path d="M0 0h34v34H0z"/>
        <path fill="#828894" fill-rule="nonzero" d="M5.667 22.08l3.022-3.023a4.25 4.25 0 0 1 5.363-.53l1.35.9 4.26-4.259a4.25 4.25 0 0 1 6.01 0l2.661 2.662V7.083c0-.782-.634-1.416-1.416-1.416H7.083c-.782 0-1.416.634-1.416 1.416V22.08zm0 4.007v.83c0 .782.634 1.416 1.416 1.416h19.834c.782 0 1.416-.634 1.416-1.416v-5.08l-4.665-4.665a1.417 1.417 0 0 0-2.003 0l-5.08 5.08a1.417 1.417 0 0 1-1.787.177l-2.318-1.545a1.417 1.417 0 0 0-1.787.177l-5.026 5.026zM7.083 2.833h19.834a4.25 4.25 0 0 1 4.25 4.25v19.834a4.25 4.25 0 0 1-4.25 4.25H7.083a4.25 4.25 0 0 1-4.25-4.25V7.083a4.25 4.25 0 0 1 4.25-4.25zm3.542 9.917a2.125 2.125 0 1 1 0-4.25 2.125 2.125 0 0 1 0 4.25z"/>
    </g>
</svg>
