<svg xmlns="http://www.w3.org/2000/svg" width="18" height="18" viewBox="0 0 18 18">
    <g fill="#466DFF" fill-rule="nonzero" transform="translate(.583 .583)">
        <path d="M8.313 15.042a6.73 6.73 0 1 0 0-13.459 6.73 6.73 0 0 0 0 13.459zm0 1.583A8.312 8.312 0 1 1 8.313 0a8.312 8.312 0 0 1 0 16.625z"/>
        <path d="M8.313 12.469c-.135 0-.27-.031-.395-.083a1.201 1.201 0 0 1-.343-.218 1.198 1.198 0 0 1-.218-.343 1.033 1.033 0 0 1-.084-.395c0-.135.032-.27.084-.395a.97.97 0 0 1 .218-.342 1.04 1.04 0 0 1 .935-.28c.072.01.135.03.197.062a.601.601 0 0 1 .177.093c.062.031.114.083.166.125a.97.97 0 0 1 .218.342c.052.125.084.26.084.395s-.032.27-.084.395a1.199 1.199 0 0 1-.218.343 1.216 1.216 0 0 1-.343.218 1.03 1.03 0 0 1-.394.083"/>
        <rect width="2.078" height="5.195" x="7.273" y="4.156" rx="1.039"/>
    </g>
</svg>
