<svg xmlns="http://www.w3.org/2000/svg" width="150" height="150" viewBox="0 0 150 150">
    <g fill="none" fill-rule="evenodd">
        <path d="M1 0h150v150H1z"/>
        <path fill="#F2F2F2" d="M124.75 45.203a10.185 10.185 0 0 0-4.05-3.604L79.792 21.31a10.303 10.303 0 0 0-9.102 0L29.783 41.6a10.184 10.184 0 0 0-4.033 3.579L75.241 69.75l49.509-24.547z"/>
        <path fill="#FFF" d="M26.869 44.897l48.373 24.026 48.392-24.002a9.448 9.448 0 0 0-3.268-2.66L79.457 21.964a9.594 9.594 0 0 0-8.433 0L30.12 42.26a9.451 9.451 0 0 0-3.25 2.637M75.242 71.25a.755.755 0 0 1-.336-.079l-49.492-24.58a.739.739 0 0 1-.294-1.07 10.953 10.953 0 0 1 4.33-3.844l40.905-20.295a11.113 11.113 0 0 1 9.771 0l40.91 20.296a10.947 10.947 0 0 1 4.345 3.87.739.739 0 0 1-.296 1.067L75.577 71.171a.755.755 0 0 1-.335.079"/>
        <path fill="#FFF" d="M75.997 71.129v59.328c1.199-.1 2.38-.432 3.456-.975l40.803-20.586c3.235-1.623 5.245-4.894 5.247-8.538V51.311c0-1.6-.4-3.165-1.16-4.567L75.996 71.13zM75.248 132a.745.745 0 0 1-.528-.22.759.759 0 0 1-.22-.535V70.662c0-.286.16-.547.414-.675l49.38-24.907a.745.745 0 0 1 .965.267A11.095 11.095 0 0 1 127 51.31v49.047c-.002 4.222-2.33 8.01-6.077 9.89l-40.8 20.585A10.929 10.929 0 0 1 75.25 132h-.002z"/>
        <path fill="#FFF" d="M26.173 46.743a9.565 9.565 0 0 0-1.176 4.592v48.981c-.025 3.656 1.967 6.944 5.199 8.587l40.8 20.58c1.09.55 2.29.883 3.507.979V71.147l-48.33-24.404zM75.227 132c-1.694 0-3.388-.403-4.9-1.167l-40.803-20.58c-3.745-1.904-6.053-5.714-6.024-9.942V51.334a11.09 11.09 0 0 1 1.76-5.989.745.745 0 0 1 .963-.265l49.364 24.925c.253.128.413.39.413.675v60.565a.752.752 0 0 1-.747.755h-.026z"/>
        <path fill="#E6E6E6" d="M9.389 55.5a10.345 10.345 0 0 0-1.639 5.58v48.988c-.027 3.912 2.147 7.501 5.61 9.262l40.8 20.583A10.126 10.126 0 0 0 58.75 141V80.428L9.389 55.5z"/>
        <path fill="#FFF" d="M9.673 55.961a9.521 9.521 0 0 0-1.176 4.58v48.856c-.025 3.647 1.967 6.927 5.199 8.565l40.8 20.527c1.09.55 2.29.882 3.507.977V80.302L9.673 55.961zM58.727 141c-1.693 0-3.388-.402-4.9-1.164l-40.803-20.528C9.28 117.41 6.971 113.61 7 109.392V60.54a11.04 11.04 0 0 1 1.76-5.974L9.122 54 59.5 79.372v61.626l-.747.002h-.026z"/>
        <path fill="#B3B3B3" d="M93.25 79.66v60.59a10.117 10.117 0 0 0 4.539-1.087l40.8-20.59c3.466-1.738 5.659-5.307 5.661-9.213V60.307c0-2.01-.586-3.93-1.622-5.557L93.25 79.66z"/>
        <path fill="#FFF" d="M93.997 80.284v59.175c1.199-.1 2.38-.43 3.456-.972l40.803-20.533c3.235-1.619 5.245-4.882 5.247-8.516v-48.92c0-1.596-.4-3.157-1.161-4.555L93.997 80.284zM92.5 141V79.353L142.896 54l.363.57A11.046 11.046 0 0 1 145 60.516v48.921c-.002 4.21-2.33 7.99-6.077 9.864l-40.8 20.532a10.952 10.952 0 0 1-4.873 1.164l-.75.002z"/>
    </g>
</svg>
