<svg xmlns="http://www.w3.org/2000/svg" width="102" height="24" viewBox="0 0 102 24">
    <g fill="#464646" fill-rule="evenodd">
        <path d="M84.265.75v22.492h17.685v-4.938H90.176V.75zM17.69 16.435a6.874 6.874 0 0 1-2.764 5.513c-1.909 1.413-3.785 2.042-6.166 2.042-2.359 0-4.196-.632-6.063-2.062A6.928 6.928 0 0 1 0 16.435v-.24l5.578-.002v.427c0 1.61 1.714 2.43 3.095 2.43 1.382 0 3.096-.82 3.096-2.43a1.743 1.743 0 0 0-.126-.654 1.955 1.955 0 0 0-.344-.565 3.145 3.145 0 0 0-1.23-.884L3.553 11.84c-1.028-.423-1.718-1.025-2.274-1.984a5.395 5.395 0 0 1-.586-1.462 6.595 6.595 0 0 1-.185-1.569C.513 2.484 4.897.033 8.739 0 12.573-.032 17 2.335 17.123 6.663h-5.752c0-2.468-4.858-2.516-4.945-.05a1.458 1.458 0 0 0 .145.672c.104.213.236.388.413.545a2.139 2.139 0 0 0 .65.4l5.431 2.231c.902.371 1.687.858 2.419 1.501a7.168 7.168 0 0 1 1.79 2.479c.284.648.417 1.287.416 1.994M74.738 10.86h-5.213V5.685h5.213a2.591 2.591 0 0 1 2.596 2.587 2.591 2.591 0 0 1-2.596 2.586M75.4.75H63.616v22.493h5.91v-7.445H75.4c4.171 0 7.553-3.369 7.553-7.524 0-4.156-3.382-7.524-7.553-7.524M53.082 14.464h-4.213l2.106-5.467 2.107 5.467zm9.222 8.778L53.637.749h-5.323l-8.667 22.493h5.84l1.48-3.84h8.018l1.48 3.84h5.84zM32.428.749V9.527h-7.52V.749h-5.91v22.493h5.91v-8.778H32.428v8.778h5.91V.749z"/>
    </g>
</svg>
