<svg xmlns="http://www.w3.org/2000/svg" width="40" height="46" viewBox="0 0 40 46">
    <g fill="none" fill-rule="evenodd">
        <path fill="#58CDF9" d="M3 5h20l3 28H0z"/>
        <path stroke="#464646" stroke-width="2" d="M8 9V4a3 3 0 0 1 3-3h4a3 3 0 0 1 3 3v5"/>
        <g fill-rule="nonzero">
            <path fill="#464646" d="M20.5 44a1.5 1.5 0 1 0 0-3 1.5 1.5 0 0 0 0 3zm0 2a3.5 3.5 0 1 1 0-7 3.5 3.5 0 0 1 0 7zM32.5 44a1.5 1.5 0 1 0 0-3 1.5 1.5 0 0 0 0 3zm0 2a3.5 3.5 0 1 1 0-7 3.5 3.5 0 0 1 0 7zM11.999 18H9v-2h4.616l4.892 22.826-1.955.419z"/>
            <path fill="#464646" d="M12.652 21H40l-2.4 15H15.858z"/>
            <path fill="#FFF" d="M15.124 23l2.352 11h18.419l1.76-11z"/>
            <path fill="#464646" d="M18.978 27.27a1 1 0 1 1 1.93-.526l1.085 3.983a1 1 0 0 1-1.93.526l-1.085-3.983zM33.91 27.196a1 1 0 1 0-1.949-.448l-.932 4.059a1 1 0 1 0 1.949.448l.933-4.06zM25.995 27.073a1 1 0 1 1 2 0v3.917a1 1 0 1 1-2 0v-3.917zM17.5 40a1 1 0 0 1 0-2H36a1 1 0 0 1 0 2H17.5z"/>
        </g>
    </g>
</svg>
