<svg xmlns="http://www.w3.org/2000/svg" width="518" height="47" viewBox="0 0 518 47">
    <g fill="#464646" fill-rule="evenodd">
        <path d="M32.1 22.445c.039-9.09-6.396-15.602-14.731-15.636L7.283 6.767 7.155 37.79l10.388.043c8.213.034 14.52-6.36 14.558-15.387m7.187-.034c-.053 12.841-9.333 22.21-22.135 22.157L0 44.498.184 0l17.334.072C30.2.125 39.34 9.507 39.288 22.412M75.978.314l-.027 6.737-23.071-.094-.05 12.077 20.654.086-.026 6.674-20.655-.085-.051 12.268 23.794.1-.027 6.737-30.922-.128L45.781.19zM97.51 7.142c-4.166-.018-6.891 1.624-6.903 4.61-.04 9.728 22.81 4.61 22.684 20.628-.033 7.947-6.697 12.813-15.998 12.775-6.643-.028-12.912-2.914-17.242-7.127l3.106-6.472c4.33 4.214 9.757 6.524 14.287 6.543 4.952.02 7.919-1.937 7.934-5.37.04-9.916-22.811-4.481-22.745-20.31.03-7.628 6.27-12.37 15.45-12.331 5.497.023 10.864 1.889 14.779 4.638l-2.987 6.599c-4.578-2.944-9.163-4.17-12.364-4.183M127.675.528l-.184 44.497-7.127-.029L120.549.5zM166.414 23.32l6.22.024-.068 16.401c-4.3 3.415-10.653 5.74-16.45 5.716-12.502-.052-22.184-9.945-22.132-22.659.053-12.712 9.937-22.398 22.741-22.344 6.04.024 12.07 2.465 16.22 6.296l-4.07 5.513c-3.248-3.19-7.77-5.117-12.178-5.135-8.637-.036-15.429 6.865-15.466 15.701-.037 8.9 6.76 15.857 15.396 15.892 3.141.014 6.708-1.116 9.736-3.01l.051-12.396zM188.612.78l22.515 32.068.132-31.974 7.006.03-.184 44.496-7.006-.029-22.394-32.004-.132 31.911-7.127-.029.184-44.497zM263.956 7.576c-8.455-.035-15.127 6.803-15.163 15.575-.037 8.773 6.58 15.73 15.033 15.764 4.228.017 8.585-1.999 11.8-5.228l4.206 4.977c-4.306 4.432-10.418 7.266-16.397 7.241-12.38-.05-21.942-9.943-21.89-22.72.053-12.65 9.817-22.336 22.317-22.284 5.98.025 11.948 2.655 16.037 6.931l-4.19 5.45c-3.065-3.509-7.465-5.688-11.753-5.706M289.678 23.447c-.036 8.836 6.88 15.858 15.154 15.893 8.274.034 15.068-6.932 15.104-15.768.037-8.836-6.7-15.729-14.973-15.763-8.335-.035-15.248 6.802-15.285 15.638m37.565.155c-.052 12.714-9.877 22.527-22.5 22.474-12.622-.052-22.364-9.945-22.311-22.659.054-12.777 9.875-22.399 22.498-22.346 12.622.052 22.366 9.818 22.313 22.531M340.743 1.41l22.515 32.068.132-31.974 7.006.03-.184 44.496-7.006-.029-22.396-32.004-.13 31.911-7.127-.029.184-44.497zM409.23 1.694l-.029 6.737-13.406-.055-.156 37.76-7.127-.03.156-37.76-13.346-.055.027-6.738zM444.318 1.839l-.028 6.738-23.072-.095-.049 12.078 20.655.085-.027 6.674-20.656-.084-.05 12.268 23.795.098-.028 6.738-30.922-.128.185-44.497zM465.85 8.666c-4.167-.017-6.892 1.625-6.904 4.612-.04 9.726 22.81 4.608 22.683 20.626-.032 7.947-6.696 12.814-15.997 12.775-6.643-.028-12.912-2.913-17.243-7.127l3.107-6.472c4.332 4.215 9.757 6.525 14.287 6.544 4.952.021 7.919-1.937 7.933-5.37.04-9.917-22.81-4.482-22.745-20.31.032-7.628 6.272-12.369 15.452-12.331 5.495.023 10.864 1.888 14.778 4.637l-2.987 6.6c-4.578-2.944-9.163-4.17-12.364-4.184M517.756 2.143l-.028 6.738-13.407-.056-.156 37.76-7.127-.03.156-37.76-13.346-.053.028-6.74z"/>
    </g>
</svg>
