<svg xmlns="http://www.w3.org/2000/svg" width="40" height="40" viewBox="0 0 40 40">
    <g fill="none" fill-rule="evenodd">
        <path d="M0 0h40v40H0z"/>
        <g fill="#BEBEBE">
            <path d="M3.661 10.687a3.289 3.289 0 0 0-.513 1.762v15.474a3.258 3.258 0 0 0 1.756 2.925l12.77 6.502c.451.23.944.345 1.436.343V18.561L3.66 10.687zM19.86 18.56v19.133a3.146 3.146 0 0 0 1.42-.343l12.77-6.502a3.258 3.258 0 0 0 1.77-2.909v-15.49c0-.634-.182-1.24-.507-1.754L19.86 18.561zM34.938 10.2a3.208 3.208 0 0 0-1.264-1.155l-12.769-6.5a3.14 3.14 0 0 0-2.841 0l-12.77 6.5a3.208 3.208 0 0 0-1.258 1.147l15.449 7.874L34.938 10.2z"/>
        </g>
    </g>
</svg>
