<?xml version="1.0" encoding="UTF-8"?>
<svg width="204px" height="78px" viewBox="0 0 204 78" version="1.1" xmlns="http://www.w3.org/2000/svg" xmlns:xlink="http://www.w3.org/1999/xlink">
    <!-- Generator: Sketch 52.2 (67145) - http://www.bohemiancoding.com/sketch -->
    <title>img-star</title>
    <desc>Created with Sketch.</desc>
    <g id="Page-1" stroke="none" stroke-width="1" fill="none" fill-rule="evenodd">
        <g id="Artboard">
            <g id="img-star">
                <g id="stars5.0-copy" fill="#DADADA">
                    <polygon id="star1.0" points="18 27.3306316 29.124 34 26.181 21.4217895 36 12.9629474 23.0562 11.8588421 18 0 12.9438 11.8588421 0 12.9629474 9.819 21.4217895 6.876 34"></polygon>
                </g>
                <g id="stars5.0-copy-2" transform="translate(42.000000, 0.000000)" fill="#DADADA">
                    <polygon id="star1.0" points="18 27.3306316 29.124 34 26.181 21.4217895 36 12.9629474 23.0562 11.8588421 18 0 12.9438 11.8588421 0 12.9629474 9.819 21.4217895 6.876 34"></polygon>
                </g>
                <g id="stars5.0-copy-3" transform="translate(84.000000, 0.000000)" fill="#DADADA">
                    <polygon id="star1.0" points="18 27.3306316 29.124 34 26.181 21.4217895 36 12.9629474 23.0562 11.8588421 18 0 12.9438 11.8588421 0 12.9629474 9.819 21.4217895 6.876 34"></polygon>
                </g>
                <g id="stars5.0-copy-4" transform="translate(126.000000, 0.000000)" fill="#DADADA">
                    <polygon id="star1.0" points="18 27.3306316 29.124 34 26.181 21.4217895 36 12.9629474 23.0562 11.8588421 18 0 12.9438 11.8588421 0 12.9629474 9.819 21.4217895 6.876 34"></polygon>
                </g>
                <g id="stars5.0-copy-5" transform="translate(168.000000, 0.000000)" fill="#DADADA">
                    <polygon id="star1.0" points="18 27.3306316 29.124 34 26.181 21.4217895 36 12.9629474 23.0562 11.8588421 18 0 12.9438 11.8588421 0 12.9629474 9.819 21.4217895 6.876 34"></polygon>
                </g>
                <g id="stars5.0-copy" transform="translate(0.000000, 44.000000)" fill="#FCC851">
                    <polygon id="star1.0" points="18 27.3306316 29.124 34 26.181 21.4217895 36 12.9629474 23.0562 11.8588421 18 0 12.9438 11.8588421 0 12.9629474 9.819 21.4217895 6.876 34"></polygon>
                </g>
                <g id="stars5.0-copy-2" transform="translate(42.000000, 44.000000)" fill="#FCC851">
                    <polygon id="star1.0" points="18 27.3306316 29.124 34 26.181 21.4217895 36 12.9629474 23.0562 11.8588421 18 0 12.9438 11.8588421 0 12.9629474 9.819 21.4217895 6.876 34"></polygon>
                </g>
                <g id="stars5.0-copy-3" transform="translate(84.000000, 44.000000)" fill="#FCC851">
                    <polygon id="star1.0" points="18 27.3306316 29.124 34 26.181 21.4217895 36 12.9629474 23.0562 11.8588421 18 0 12.9438 11.8588421 0 12.9629474 9.819 21.4217895 6.876 34"></polygon>
                </g>
                <g id="stars5.0-copy-4" transform="translate(126.000000, 44.000000)" fill="#FCC851">
                    <polygon id="star1.0" points="18 27.3306316 29.124 34 26.181 21.4217895 36 12.9629474 23.0562 11.8588421 18 0 12.9438 11.8588421 0 12.9629474 9.819 21.4217895 6.876 34"></polygon>
                </g>
                <g id="stars5.0-copy-5" transform="translate(168.000000, 44.000000)" fill="#FCC851">
                    <polygon id="star1.0" points="18 27.3306316 29.124 34 26.181 21.4217895 36 12.9629474 23.0562 11.8588421 18 0 12.9438 11.8588421 0 12.9629474 9.819 21.4217895 6.876 34"></polygon>
                </g>
            </g>
        </g>
    </g>
</svg>