<svg xmlns="http://www.w3.org/2000/svg" xmlns:xlink="http://www.w3.org/1999/xlink" width="16" height="16" viewBox="0 0 16 16">
    <defs>
        <path id="a" d="M8.161 3.196c1.198 0 2.274.403 3.12 1.193l2.34-2.288C12.208.814 10.361.023 8.161.023c-3.19 0-5.95 1.788-7.293 4.395l2.727 2.067C4.236 4.6 6.035 3.196 8.16 3.196z"/>
    </defs>
    <g fill="none" fill-rule="evenodd">
        <path fill="#3E82F1" d="M15.996 8.182c0-.565-.052-1.11-.149-1.631H8.161v3.086h4.392a3.667 3.667 0 0 1-1.628 2.408v2.001h2.637c1.543-1.389 2.434-3.434 2.434-5.864z"/>
        <path fill="#31A753" d="M8.161 15.98c2.203 0 4.05-.715 5.401-1.934l-2.637-2.001c-.731.478-1.666.761-2.764.761-2.126 0-3.925-1.403-4.566-3.29H.868v2.068c1.343 2.607 4.103 4.395 7.293 4.395z"/>
        <path fill="#F9BB00" d="M3.595 9.517A4.697 4.697 0 0 1 3.339 8c0-.526.092-1.037.256-1.516V4.418H.868a7.83 7.83 0 0 0 0 7.166l2.727-2.067z"/>
        <use fill="#E74133" xlink:href="#a"/>
    </g>
</svg>
