<svg xmlns="http://www.w3.org/2000/svg" width="102" height="60" viewBox="0 0 102 60">
    <g fill="none" fill-rule="evenodd">
        <text fill="#466DFF" font-family="AppleSDGothicNeo-Bold, Apple SD Gothic Neo" font-size="26" font-weight="bold" transform="translate(-785 -149)">
            <tspan x="646.055" y="230">제품</tspan> <tspan x="691.035" y="230" font-family="Roboto-Bold, Roboto"> </tspan> <tspan x="697.51" y="230">등록</tspan> <tspan x="742.49" y="230" font-family="Roboto-Bold, Roboto"> </tspan> <tspan x="748.965" y="230">완료</tspan>
        </text>
        <g fill-rule="nonzero">
            <path fill="#FF8C8F" d="M2.838 41c.66-9.629-.285-15.088-2.838-16.377L6.635 18c2.578 4.406 3.049 10.975 1.41 19.707-2.467 1.97 0 0-5.207 3.293z"/>
            <path fill="#7C97FF" d="M81 3.988L77.724 14 68 10.353 71.133 0z"/>
            <path fill="#69E6C9" d="M41 56.728L49.032 60 56 46.587 50.224 45z"/>
            <path fill="#FCC851" d="M83.83 44.027c6.683 7.162 9.406 12.086 8.17 14.771l9.583.888c-.733-5.16-4.549-10.649-11.448-16.465-3.25.058 0 0-6.305.806z"/>
        </g>
    </g>
</svg>
