<svg xmlns="http://www.w3.org/2000/svg" width="40" height="40" viewBox="0 0 40 40">
    <g fill="none" fill-rule="evenodd">
        <path d="M0 0h40v40H0z"/>
        <g fill="#BEBEBE">
            <path d="M29.535 15.729a.269.269 0 0 0-.267.27c0 .148.12.27.267.27.148 0 .268-.122.268-.27 0-.15-.12-.27-.268-.27M31.161 15.729a.269.269 0 0 0-.267.27c0 .148.12.27.267.27.148 0 .268-.122.268-.27 0-.15-.12-.27-.268-.27M32.463 15.729a.269.269 0 0 0-.268.27c0 .148.12.27.268.27.147 0 .266-.122.266-.27 0-.15-.12-.27-.266-.27M34.089 16.268c.147 0 .266-.12.266-.27 0-.149-.12-.27-.266-.27a.27.27 0 0 0-.268.27c0 .15.12.27.268.27M28.885 16.386a.268.268 0 0 0-.267.27c0 .149.119.27.267.27.147 0 .266-.121.266-.27a.268.268 0 0 0-.266-.27M30.185 16.386a.268.268 0 0 0-.266.27c0 .149.118.27.266.27.148 0 .267-.121.267-.27a.268.268 0 0 0-.267-.27M31.811 16.386a.268.268 0 0 0-.266.27c0 .149.119.27.266.27.148 0 .267-.121.267-.27a.268.268 0 0 0-.267-.27M33.112 16.386a.268.268 0 0 0-.266.27c0 .149.12.27.266.27.148 0 .267-.121.267-.27a.268.268 0 0 0-.267-.27M23.032 19.014a.269.269 0 0 0-.268.27c0 .15.12.27.268.27.147 0 .267-.12.267-.27 0-.149-.12-.27-.267-.27M24.332 19.014a.268.268 0 0 0-.267.27c0 .15.119.27.267.27.147 0 .266-.12.266-.27 0-.149-.12-.27-.266-.27M25.958 19.014a.268.268 0 0 0-.267.27c0 .15.119.27.267.27.147 0 .267-.12.267-.27 0-.149-.12-.27-.267-.27M27.259 19.014a.268.268 0 0 0-.267.27c0 .15.119.27.267.27.147 0 .266-.12.266-.27a.268.268 0 0 0-.266-.27M28.885 19.014a.268.268 0 0 0-.267.27c0 .15.119.27.267.27.147 0 .266-.12.266-.27a.268.268 0 0 0-.266-.27M30.185 19.014a.268.268 0 0 0-.266.27c0 .15.118.27.266.27.148 0 .267-.12.267-.27a.268.268 0 0 0-.267-.27M31.811 19.014a.268.268 0 0 0-.266.27c0 .15.119.27.266.27.148 0 .267-.12.267-.27a.268.268 0 0 0-.267-.27M33.112 19.014a.268.268 0 0 0-.266.27c0 .15.12.27.266.27.148 0 .267-.12.267-.27a.268.268 0 0 0-.267-.27M23.681 19.671a.268.268 0 0 0-.266.27c0 .15.12.27.266.27.148 0 .267-.12.267-.27a.268.268 0 0 0-.267-.27M25.307 19.671a.268.268 0 0 0-.266.27c0 .15.12.27.266.27.148 0 .267-.12.267-.27a.268.268 0 0 0-.267-.27M26.608 19.671a.268.268 0 0 0-.267.27c0 .15.12.27.267.27.148 0 .268-.12.268-.27 0-.149-.12-.27-.268-.27M28.234 19.671a.268.268 0 0 0-.267.27c0 .15.12.27.267.27.148 0 .268-.12.268-.27 0-.149-.12-.27-.268-.27M29.535 19.671a.268.268 0 0 0-.267.27c0 .15.12.27.267.27.148 0 .268-.12.268-.27 0-.149-.12-.27-.268-.27M31.161 19.671a.268.268 0 0 0-.267.27c0 .15.12.27.267.27.148 0 .268-.12.268-.27 0-.149-.12-.27-.268-.27M32.463 19.671a.268.268 0 0 0-.268.27c0 .15.12.27.268.27.147 0 .266-.12.266-.27 0-.149-.12-.27-.266-.27M34.089 20.21c.147 0 .266-.12.266-.27 0-.148-.12-.269-.266-.269a.269.269 0 0 0-.268.27c0 .15.12.27.268.27M20.755 23.614a.268.268 0 0 0-.267.27c0 .149.12.27.267.27.147 0 .266-.121.266-.27a.268.268 0 0 0-.266-.27M22.055 23.614a.268.268 0 0 0-.266.27c0 .149.12.27.266.27.148 0 .267-.121.267-.27a.268.268 0 0 0-.267-.27M23.681 23.614a.268.268 0 0 0-.266.27c0 .149.12.27.266.27.148 0 .267-.121.267-.27a.268.268 0 0 0-.267-.27M25.307 23.614a.268.268 0 0 0-.266.27c0 .149.12.27.266.27.148 0 .267-.121.267-.27a.268.268 0 0 0-.267-.27M26.608 23.614a.268.268 0 0 0-.267.27c0 .149.12.27.267.27.148 0 .268-.121.268-.27 0-.15-.12-.27-.268-.27M28.234 23.614a.268.268 0 0 0-.267.27c0 .149.12.27.267.27.148 0 .268-.121.268-.27 0-.15-.12-.27-.268-.27M29.535 23.614a.268.268 0 0 0-.267.27c0 .149.12.27.267.27.148 0 .268-.121.268-.27 0-.15-.12-.27-.268-.27M31.161 23.614a.268.268 0 0 0-.267.27c0 .149.12.27.267.27.148 0 .268-.121.268-.27 0-.15-.12-.27-.268-.27M32.463 23.614a.268.268 0 0 0-.268.27c0 .149.12.27.268.27.147 0 .266-.121.266-.27 0-.15-.12-.27-.266-.27M34.089 24.154c.147 0 .266-.121.266-.27 0-.15-.12-.27-.266-.27a.27.27 0 1 0 0 .54M20.755 27.229a.269.269 0 0 0-.267.27c0 .148.12.27.267.27.147 0 .266-.122.266-.27a.268.268 0 0 0-.266-.27M22.055 27.229a.269.269 0 0 0-.266.27c0 .148.12.27.266.27.148 0 .267-.122.267-.27a.268.268 0 0 0-.267-.27M23.681 27.229a.269.269 0 0 0-.266.27c0 .148.12.27.266.27.148 0 .267-.122.267-.27a.268.268 0 0 0-.267-.27M25.307 27.229a.269.269 0 0 0-.266.27c0 .148.12.27.266.27.148 0 .267-.122.267-.27a.268.268 0 0 0-.267-.27M26.608 27.229a.269.269 0 0 0-.267.27c0 .148.12.27.267.27.148 0 .268-.122.268-.27 0-.15-.12-.27-.268-.27M28.234 27.229a.269.269 0 0 0-.267.27c0 .148.12.27.267.27.148 0 .268-.122.268-.27 0-.15-.12-.27-.268-.27M29.535 27.229a.269.269 0 0 0-.267.27c0 .148.12.27.267.27.148 0 .268-.122.268-.27 0-.15-.12-.27-.268-.27M31.161 27.229a.269.269 0 0 0-.267.27c0 .148.12.27.267.27.148 0 .268-.122.268-.27 0-.15-.12-.27-.268-.27M32.463 27.229a.269.269 0 0 0-.268.27c0 .148.12.27.268.27.147 0 .266-.122.266-.27 0-.15-.12-.27-.266-.27M34.089 27.768c.147 0 .266-.12.266-.27 0-.148-.12-.27-.266-.27a.27.27 0 0 0-.268.27c0 .15.12.27.268.27M20.755 33.8a.268.268 0 0 0-.267.27c0 .149.12.27.267.27a.268.268 0 0 0 .266-.27.268.268 0 0 0-.266-.27M22.055 33.8a.268.268 0 0 0-.266.27c0 .149.12.27.266.27a.268.268 0 0 0 .267-.27.268.268 0 0 0-.267-.27M23.681 33.8a.268.268 0 0 0-.266.27c0 .149.12.27.266.27a.268.268 0 0 0 .267-.27.268.268 0 0 0-.267-.27M25.307 33.8a.268.268 0 0 0-.266.27c0 .149.12.27.266.27a.268.268 0 0 0 .267-.27.268.268 0 0 0-.267-.27M26.608 33.8a.268.268 0 0 0-.267.27c0 .149.12.27.267.27a.269.269 0 0 0 .268-.27c0-.15-.12-.27-.268-.27M34.089 13.64c.147 0 .266-.121.266-.27 0-.15-.12-.27-.266-.27a.27.27 0 0 0-.268.27c0 .149.12.27.268.27M33.112 13.757a.268.268 0 0 0-.266.27c0 .149.12.27.266.27.148 0 .267-.121.267-.27a.268.268 0 0 0-.267-.27M31.161 14.414a.268.268 0 0 0-.267.27c0 .15.12.27.267.27.148 0 .268-.12.268-.27 0-.15-.12-.27-.268-.27M32.463 14.414a.268.268 0 0 0-.268.27c0 .15.12.27.268.27.147 0 .266-.12.266-.27 0-.15-.12-.27-.266-.27M34.089 14.954c.147 0 .266-.12.266-.27 0-.15-.12-.27-.266-.27a.269.269 0 0 0-.268.27c0 .15.12.27.268.27M30.185 15.071a.268.268 0 0 0-.266.27c0 .149.118.27.266.27a.268.268 0 0 0 .267-.27c0-.149-.119-.27-.267-.27M31.811 15.071a.268.268 0 0 0-.266.27c0 .149.119.27.266.27a.268.268 0 0 0 .267-.27c0-.149-.119-.27-.267-.27M33.112 15.071a.268.268 0 0 0-.266.27c0 .149.12.27.266.27a.268.268 0 0 0 .267-.27c0-.149-.119-.27-.267-.27M27.259 16.386a.268.268 0 0 0-.267.27c0 .149.119.27.267.27.147 0 .266-.121.266-.27a.268.268 0 0 0-.266-.27M26.608 17.043a.268.268 0 0 0-.267.27c0 .149.12.27.267.27.148 0 .268-.121.268-.27 0-.15-.12-.27-.268-.27M28.234 17.043a.268.268 0 0 0-.267.27c0 .149.12.27.267.27.148 0 .268-.121.268-.27 0-.15-.12-.27-.268-.27M29.535 17.043a.268.268 0 0 0-.267.27c0 .149.12.27.267.27.148 0 .268-.121.268-.27 0-.15-.12-.27-.268-.27M31.161 17.043a.268.268 0 0 0-.267.27c0 .149.12.27.267.27.148 0 .268-.121.268-.27 0-.15-.12-.27-.268-.27M32.463 17.043a.268.268 0 0 0-.268.27c0 .149.12.27.268.27.147 0 .266-.121.266-.27 0-.15-.12-.27-.266-.27M34.089 17.582c.147 0 .266-.12.266-.27 0-.148-.12-.27-.266-.27a.269.269 0 0 0-.268.27c0 .15.12.27.268.27M25.958 17.7a.268.268 0 0 0-.267.27c0 .149.119.27.267.27.147 0 .267-.121.267-.27 0-.15-.12-.27-.267-.27M27.259 17.7a.268.268 0 0 0-.267.27c0 .149.119.27.267.27.147 0 .266-.121.266-.27 0-.15-.119-.27-.266-.27M28.885 17.7a.268.268 0 0 0-.267.27c0 .149.119.27.267.27.147 0 .266-.121.266-.27 0-.15-.119-.27-.266-.27M30.185 17.7a.268.268 0 0 0-.266.27c0 .149.118.27.266.27.148 0 .267-.121.267-.27 0-.15-.119-.27-.267-.27M31.811 17.7a.268.268 0 0 0-.266.27c0 .149.119.27.266.27.148 0 .267-.121.267-.27 0-.15-.119-.27-.267-.27M33.112 17.7a.268.268 0 0 0-.266.27c0 .149.12.27.266.27.148 0 .267-.121.267-.27 0-.15-.119-.27-.267-.27M23.681 18.357a.269.269 0 0 0-.266.27c0 .149.12.27.266.27.148 0 .267-.121.267-.27a.268.268 0 0 0-.267-.27M25.307 18.357a.269.269 0 0 0-.266.27c0 .149.12.27.266.27.148 0 .267-.121.267-.27a.268.268 0 0 0-.267-.27M26.608 18.357a.269.269 0 0 0-.267.27c0 .149.12.27.267.27.148 0 .268-.121.268-.27 0-.149-.12-.27-.268-.27M28.234 18.357a.269.269 0 0 0-.267.27c0 .149.12.27.267.27.148 0 .268-.121.268-.27 0-.149-.12-.27-.268-.27M29.535 18.357a.269.269 0 0 0-.267.27c0 .149.12.27.267.27.148 0 .268-.121.268-.27 0-.149-.12-.27-.268-.27M31.161 18.357a.269.269 0 0 0-.267.27c0 .149.12.27.267.27.148 0 .268-.121.268-.27 0-.149-.12-.27-.268-.27M32.463 18.357a.269.269 0 0 0-.268.27c0 .149.12.27.268.27.147 0 .266-.121.266-.27 0-.149-.12-.27-.266-.27M34.089 18.897c.147 0 .266-.121.266-.27 0-.149-.12-.27-.266-.27a.27.27 0 0 0-.268.27c0 .149.12.27.268.27M20.755 19.671a.268.268 0 0 0-.267.27c0 .15.12.27.267.27.147 0 .266-.12.266-.27a.268.268 0 0 0-.266-.27M22.055 19.671a.268.268 0 0 0-.266.27c0 .15.12.27.266.27.148 0 .267-.12.267-.27a.268.268 0 0 0-.267-.27M23.032 20.329a.268.268 0 0 0-.268.27c0 .148.12.27.268.27a.269.269 0 0 0 .267-.27c0-.15-.12-.27-.267-.27M24.332 20.329a.268.268 0 0 0-.267.27c0 .148.119.27.267.27a.269.269 0 0 0 .266-.27c0-.15-.12-.27-.266-.27M25.958 20.329a.268.268 0 0 0-.267.27c0 .148.119.27.267.27a.269.269 0 0 0 .267-.27c0-.15-.12-.27-.267-.27M27.259 20.329a.268.268 0 0 0-.267.27c0 .148.119.27.267.27a.268.268 0 0 0 .266-.27.268.268 0 0 0-.266-.27M28.885 20.329a.268.268 0 0 0-.267.27c0 .148.119.27.267.27a.268.268 0 0 0 .266-.27.268.268 0 0 0-.266-.27M30.185 20.329a.268.268 0 0 0-.266.27c0 .148.118.27.266.27a.268.268 0 0 0 .267-.27.268.268 0 0 0-.267-.27M31.811 20.329a.268.268 0 0 0-.266.27c0 .148.119.27.266.27a.268.268 0 0 0 .267-.27.268.268 0 0 0-.267-.27M33.112 20.329a.268.268 0 0 0-.266.27c0 .148.12.27.266.27a.268.268 0 0 0 .267-.27.268.268 0 0 0-.267-.27M20.755 20.986a.269.269 0 0 0-.267.27c0 .149.12.27.267.27.147 0 .266-.121.266-.27a.268.268 0 0 0-.266-.27M23.681 20.986a.269.269 0 0 0-.266.27c0 .149.12.27.266.27.148 0 .267-.121.267-.27a.268.268 0 0 0-.267-.27M25.307 20.986a.269.269 0 0 0-.266.27c0 .149.12.27.266.27.148 0 .267-.121.267-.27a.268.268 0 0 0-.267-.27M26.608 20.986a.269.269 0 0 0-.267.27c0 .149.12.27.267.27.148 0 .268-.121.268-.27 0-.15-.12-.27-.268-.27M28.234 20.986a.269.269 0 0 0-.267.27c0 .149.12.27.267.27.148 0 .268-.121.268-.27 0-.15-.12-.27-.268-.27M29.535 20.986a.269.269 0 0 0-.267.27c0 .149.12.27.267.27.148 0 .268-.121.268-.27 0-.15-.12-.27-.268-.27M31.161 20.986a.269.269 0 0 0-.267.27c0 .149.12.27.267.27.148 0 .268-.121.268-.27 0-.15-.12-.27-.268-.27M32.463 20.986a.269.269 0 0 0-.268.27c0 .149.12.27.268.27.147 0 .266-.121.266-.27 0-.15-.12-.27-.266-.27M34.089 21.525c.147 0 .266-.12.266-.27 0-.148-.12-.27-.266-.27a.27.27 0 0 0 0 .54M19.958 21.643a.259.259 0 0 0-.12.032v.475a.263.263 0 0 0 .12.032c.147 0 .267-.12.267-.27 0-.148-.12-.27-.267-.27M21.406 21.643a.269.269 0 0 0-.268.27c0 .149.12.27.268.27.147 0 .266-.121.266-.27 0-.15-.12-.27-.266-.27M23.032 21.643a.269.269 0 0 0-.268.27c0 .149.12.27.268.27.147 0 .267-.121.267-.27 0-.15-.12-.27-.267-.27M24.332 21.643a.268.268 0 0 0-.267.27c0 .149.119.27.267.27.147 0 .266-.121.266-.27 0-.15-.12-.27-.266-.27M25.958 21.643a.268.268 0 0 0-.267.27c0 .149.119.27.267.27.147 0 .267-.121.267-.27 0-.15-.12-.27-.267-.27M27.259 21.643a.268.268 0 0 0-.267.27c0 .149.119.27.267.27.147 0 .266-.121.266-.27a.268.268 0 0 0-.266-.27M28.885 21.643a.268.268 0 0 0-.267.27c0 .149.119.27.267.27.147 0 .266-.121.266-.27a.268.268 0 0 0-.266-.27M30.185 21.643a.268.268 0 0 0-.266.27c0 .149.118.27.266.27.148 0 .267-.121.267-.27a.268.268 0 0 0-.267-.27M31.811 21.643a.268.268 0 0 0-.266.27c0 .149.119.27.266.27.148 0 .267-.121.267-.27a.268.268 0 0 0-.267-.27M33.112 21.643a.268.268 0 0 0-.266.27c0 .149.12.27.266.27.148 0 .267-.121.267-.27a.268.268 0 0 0-.267-.27M20.755 22.3a.268.268 0 0 0-.267.27c0 .149.12.27.267.27.147 0 .266-.121.266-.27a.268.268 0 0 0-.266-.27M22.055 22.3a.268.268 0 0 0-.266.27c0 .149.12.27.266.27.148 0 .267-.121.267-.27a.268.268 0 0 0-.267-.27M23.681 22.3a.268.268 0 0 0-.266.27c0 .149.12.27.266.27.148 0 .267-.121.267-.27a.268.268 0 0 0-.267-.27M25.307 22.3a.268.268 0 0 0-.266.27c0 .149.12.27.266.27.148 0 .267-.121.267-.27a.268.268 0 0 0-.267-.27M26.608 22.3a.268.268 0 0 0-.267.27c0 .149.12.27.267.27.148 0 .268-.121.268-.27 0-.15-.12-.27-.268-.27M28.234 22.3a.268.268 0 0 0-.267.27c0 .149.12.27.267.27.148 0 .268-.121.268-.27 0-.15-.12-.27-.268-.27M29.535 22.3a.268.268 0 0 0-.267.27c0 .149.12.27.267.27.148 0 .268-.121.268-.27 0-.15-.12-.27-.268-.27M31.161 22.3a.269.269 0 0 0-.267.27c0 .149.12.27.267.27.148 0 .268-.121.268-.27 0-.15-.12-.27-.268-.27M32.463 22.3a.269.269 0 0 0-.268.27c0 .149.12.27.268.27.147 0 .266-.121.266-.27 0-.15-.12-.27-.266-.27M34.089 22.84c.147 0 .266-.121.266-.27 0-.15-.12-.27-.266-.27a.27.27 0 0 0-.268.27c0 .149.12.27.268.27M19.958 22.957a.257.257 0 0 0-.12.033v.474c.036.02.076.033.12.033.147 0 .267-.121.267-.27 0-.15-.12-.27-.267-.27M21.406 22.957a.268.268 0 0 0-.268.27c0 .149.12.27.268.27.147 0 .266-.121.266-.27 0-.15-.12-.27-.266-.27M23.032 22.957a.268.268 0 0 0-.268.27c0 .149.12.27.268.27.147 0 .267-.121.267-.27 0-.15-.12-.27-.267-.27M24.332 22.957a.268.268 0 0 0-.267.27c0 .149.119.27.267.27.147 0 .266-.121.266-.27 0-.15-.12-.27-.266-.27M25.958 22.957a.268.268 0 0 0-.267.27c0 .149.119.27.267.27.147 0 .267-.121.267-.27 0-.15-.12-.27-.267-.27M27.259 22.957a.268.268 0 0 0-.267.27c0 .149.119.27.267.27.147 0 .266-.121.266-.27a.268.268 0 0 0-.266-.27M28.885 22.957a.268.268 0 0 0-.267.27c0 .149.119.27.267.27.147 0 .266-.121.266-.27a.268.268 0 0 0-.266-.27M30.185 22.957a.268.268 0 0 0-.266.27c0 .149.118.27.266.27.148 0 .267-.121.267-.27a.268.268 0 0 0-.267-.27M31.811 22.957a.268.268 0 0 0-.266.27c0 .149.119.27.266.27.148 0 .267-.121.267-.27a.268.268 0 0 0-.267-.27M33.112 22.957a.268.268 0 0 0-.266.27c0 .149.12.27.266.27.148 0 .267-.121.267-.27a.268.268 0 0 0-.267-.27M19.958 24.271a.261.261 0 0 0-.12.033v.475a.263.263 0 0 0 .12.032c.147 0 .267-.12.267-.27 0-.149-.12-.27-.267-.27M21.406 24.271a.269.269 0 0 0-.268.27c0 .15.12.27.268.27.147 0 .266-.12.266-.27 0-.149-.12-.27-.266-.27M23.032 24.271a.269.269 0 0 0-.268.27c0 .15.12.27.268.27.147 0 .267-.12.267-.27 0-.149-.12-.27-.267-.27M24.332 24.271a.268.268 0 0 0-.267.27c0 .15.119.27.267.27.147 0 .266-.12.266-.27 0-.149-.12-.27-.266-.27M25.958 24.271a.268.268 0 0 0-.267.27c0 .15.119.27.267.27.147 0 .267-.12.267-.27 0-.149-.12-.27-.267-.27M27.259 24.271a.268.268 0 0 0-.267.27c0 .15.119.27.267.27.147 0 .266-.12.266-.27a.268.268 0 0 0-.266-.27M28.885 24.271a.268.268 0 0 0-.267.27c0 .15.119.27.267.27.147 0 .266-.12.266-.27a.268.268 0 0 0-.266-.27M30.185 24.271a.268.268 0 0 0-.266.27c0 .15.118.27.266.27.148 0 .267-.12.267-.27a.268.268 0 0 0-.267-.27M31.811 24.271a.268.268 0 0 0-.266.27c0 .15.119.27.266.27.148 0 .267-.12.267-.27a.268.268 0 0 0-.267-.27M33.112 24.271a.269.269 0 0 0-.266.27c0 .15.12.27.266.27.148 0 .267-.12.267-.27a.268.268 0 0 0-.267-.27M20.755 24.929a.269.269 0 0 0-.267.27c0 .149.12.27.267.27.147 0 .266-.121.266-.27a.268.268 0 0 0-.266-.27M22.055 24.929a.269.269 0 0 0-.266.27c0 .149.12.27.266.27.148 0 .267-.121.267-.27a.268.268 0 0 0-.267-.27M23.681 24.929a.269.269 0 0 0-.266.27c0 .149.12.27.266.27.148 0 .267-.121.267-.27a.268.268 0 0 0-.267-.27M25.307 24.929a.269.269 0 0 0-.266.27c0 .149.12.27.266.27.148 0 .267-.121.267-.27a.268.268 0 0 0-.267-.27M26.608 24.929a.269.269 0 0 0-.267.27c0 .149.12.27.267.27.148 0 .268-.121.268-.27 0-.15-.12-.27-.268-.27M28.234 24.929a.269.269 0 0 0-.267.27c0 .149.12.27.267.27.148 0 .268-.121.268-.27 0-.15-.12-.27-.268-.27M29.535 24.929a.269.269 0 0 0-.267.27c0 .149.12.27.267.27.148 0 .268-.121.268-.27 0-.15-.12-.27-.268-.27M31.161 24.929a.269.269 0 0 0-.267.27c0 .149.12.27.267.27.148 0 .268-.121.268-.27 0-.15-.12-.27-.268-.27M32.463 24.929a.269.269 0 0 0-.268.27c0 .149.12.27.268.27.147 0 .266-.121.266-.27 0-.15-.12-.27-.266-.27M34.089 25.468c.147 0 .266-.12.266-.27 0-.148-.12-.27-.266-.27a.27.27 0 0 0-.268.27c0 .15.12.27.268.27M19.958 25.586a.259.259 0 0 0-.12.032v.475a.259.259 0 0 0 .12.032c.147 0 .267-.12.267-.27 0-.149-.12-.27-.267-.27M21.406 25.586a.268.268 0 0 0-.268.27c0 .149.12.27.268.27.147 0 .266-.121.266-.27 0-.15-.12-.27-.266-.27M23.032 25.586a.268.268 0 0 0-.268.27c0 .149.12.27.268.27.147 0 .267-.121.267-.27 0-.15-.12-.27-.267-.27M24.332 25.586a.268.268 0 0 0-.267.27c0 .149.119.27.267.27.147 0 .266-.121.266-.27 0-.15-.12-.27-.266-.27M25.958 25.586a.268.268 0 0 0-.267.27c0 .149.119.27.267.27.147 0 .267-.121.267-.27 0-.15-.12-.27-.267-.27M27.259 25.586a.268.268 0 0 0-.267.27c0 .149.119.27.267.27.147 0 .266-.121.266-.27a.268.268 0 0 0-.266-.27M28.885 25.586a.268.268 0 0 0-.267.27c0 .149.119.27.267.27.147 0 .266-.121.266-.27a.268.268 0 0 0-.266-.27M30.185 25.586a.268.268 0 0 0-.266.27c0 .149.118.27.266.27.148 0 .267-.121.267-.27a.268.268 0 0 0-.267-.27M31.811 25.586a.268.268 0 0 0-.266.27c0 .149.119.27.266.27.148 0 .267-.121.267-.27a.268.268 0 0 0-.267-.27M33.112 25.586a.268.268 0 0 0-.266.27c0 .149.12.27.266.27.148 0 .267-.121.267-.27a.268.268 0 0 0-.267-.27M20.755 26.243a.268.268 0 0 0-.267.27c0 .148.12.27.267.27.147 0 .266-.122.266-.27a.268.268 0 0 0-.266-.27M22.055 26.243a.268.268 0 0 0-.266.27c0 .148.12.27.266.27.148 0 .267-.122.267-.27a.268.268 0 0 0-.267-.27M23.681 26.243a.268.268 0 0 0-.266.27c0 .148.12.27.266.27.148 0 .267-.122.267-.27a.268.268 0 0 0-.267-.27M25.307 26.243a.268.268 0 0 0-.266.27c0 .148.12.27.266.27.148 0 .267-.122.267-.27a.268.268 0 0 0-.267-.27M26.608 26.243a.268.268 0 0 0-.267.27c0 .148.12.27.267.27.148 0 .268-.122.268-.27 0-.15-.12-.27-.268-.27M28.234 26.243a.268.268 0 0 0-.267.27c0 .148.12.27.267.27.148 0 .268-.122.268-.27 0-.15-.12-.27-.268-.27M29.535 26.243a.268.268 0 0 0-.267.27c0 .148.12.27.267.27.148 0 .268-.122.268-.27 0-.15-.12-.27-.268-.27M31.161 26.243a.268.268 0 0 0-.267.27c0 .148.12.27.267.27.148 0 .268-.122.268-.27 0-.15-.12-.27-.268-.27M32.463 26.243a.268.268 0 0 0-.268.27c0 .148.12.27.268.27.147 0 .266-.122.266-.27 0-.15-.12-.27-.266-.27M34.089 26.782c.147 0 .266-.12.266-.27 0-.149-.12-.27-.266-.27a.27.27 0 1 0 0 .54M19.958 26.9a.257.257 0 0 0-.12.033v.474a.263.263 0 0 0 .12.032c.147 0 .267-.12.267-.27 0-.148-.12-.269-.267-.269M21.406 26.9a.269.269 0 0 0-.268.27c0 .149.12.27.268.27.147 0 .266-.121.266-.27 0-.15-.12-.27-.266-.27M23.032 26.9a.269.269 0 0 0-.268.27c0 .149.12.27.268.27.147 0 .267-.121.267-.27 0-.15-.12-.27-.267-.27M24.332 26.9a.268.268 0 0 0-.267.27c0 .149.119.27.267.27.147 0 .266-.121.266-.27 0-.15-.12-.27-.266-.27M25.958 26.9a.268.268 0 0 0-.267.27c0 .149.119.27.267.27.147 0 .267-.121.267-.27 0-.15-.12-.27-.267-.27M27.259 26.9a.268.268 0 0 0-.267.27c0 .149.119.27.267.27.147 0 .266-.121.266-.27a.268.268 0 0 0-.266-.27M28.885 26.9a.268.268 0 0 0-.267.27c0 .149.119.27.267.27.147 0 .266-.121.266-.27a.268.268 0 0 0-.266-.27M30.185 26.9a.268.268 0 0 0-.266.27c0 .149.118.27.266.27.148 0 .267-.121.267-.27a.268.268 0 0 0-.267-.27M31.811 26.9a.268.268 0 0 0-.266.27c0 .149.119.27.266.27.148 0 .267-.121.267-.27a.268.268 0 0 0-.267-.27M33.112 26.9a.269.269 0 0 0-.266.27c0 .149.12.27.266.27.148 0 .267-.121.267-.27a.268.268 0 0 0-.267-.27M19.958 27.886a.257.257 0 0 0-.12.032v.475c.036.019.076.032.12.032.147 0 .267-.12.267-.27 0-.149-.12-.27-.267-.27M21.406 27.886a.268.268 0 0 0-.268.27c0 .149.12.27.268.27.147 0 .266-.121.266-.27 0-.15-.12-.27-.266-.27M23.032 27.886a.268.268 0 0 0-.268.27c0 .149.12.27.268.27.147 0 .267-.121.267-.27 0-.15-.12-.27-.267-.27M24.332 27.886a.268.268 0 0 0-.267.27c0 .149.119.27.267.27.147 0 .266-.121.266-.27 0-.15-.12-.27-.266-.27M25.958 27.886a.268.268 0 0 0-.267.27c0 .149.119.27.267.27.147 0 .267-.121.267-.27 0-.15-.12-.27-.267-.27M27.259 27.886a.268.268 0 0 0-.267.27c0 .149.119.27.267.27.147 0 .266-.121.266-.27a.268.268 0 0 0-.266-.27M28.885 27.886a.268.268 0 0 0-.267.27c0 .149.119.27.267.27.147 0 .266-.121.266-.27a.268.268 0 0 0-.266-.27M30.185 27.886a.268.268 0 0 0-.266.27c0 .149.118.27.266.27.148 0 .267-.121.267-.27a.268.268 0 0 0-.267-.27M31.811 27.886a.268.268 0 0 0-.266.27c0 .149.119.27.266.27.148 0 .267-.121.267-.27a.268.268 0 0 0-.267-.27M33.112 27.886a.268.268 0 0 0-.266.27c0 .149.12.27.266.27.148 0 .267-.121.267-.27a.268.268 0 0 0-.267-.27M20.755 28.543a.268.268 0 0 0-.267.27c0 .148.12.27.267.27.147 0 .266-.122.266-.27a.268.268 0 0 0-.266-.27M22.055 28.543a.268.268 0 0 0-.266.27c0 .148.12.27.266.27.148 0 .267-.122.267-.27a.268.268 0 0 0-.267-.27M23.681 28.543a.268.268 0 0 0-.266.27c0 .148.12.27.266.27.148 0 .267-.122.267-.27a.268.268 0 0 0-.267-.27M25.307 28.543a.268.268 0 0 0-.266.27c0 .148.12.27.266.27.148 0 .267-.122.267-.27a.268.268 0 0 0-.267-.27M26.608 28.543a.268.268 0 0 0-.267.27c0 .148.12.27.267.27.148 0 .268-.122.268-.27 0-.15-.12-.27-.268-.27M28.234 28.543a.268.268 0 0 0-.267.27c0 .148.12.27.267.27.148 0 .268-.122.268-.27 0-.15-.12-.27-.268-.27M29.535 28.543a.268.268 0 0 0-.267.27c0 .148.12.27.267.27.148 0 .268-.122.268-.27 0-.15-.12-.27-.268-.27M31.161 28.543a.268.268 0 0 0-.267.27c0 .148.12.27.267.27.148 0 .268-.122.268-.27 0-.15-.12-.27-.268-.27M32.463 28.543a.268.268 0 0 0-.268.27c0 .148.12.27.268.27.147 0 .266-.122.266-.27 0-.15-.12-.27-.266-.27M34.089 29.082c.147 0 .266-.12.266-.27 0-.149-.12-.27-.266-.27a.27.27 0 1 0 0 .54M19.958 29.2a.257.257 0 0 0-.12.033v.474a.263.263 0 0 0 .12.032c.147 0 .267-.12.267-.27 0-.148-.12-.269-.267-.269M21.406 29.2a.269.269 0 0 0-.268.27c0 .149.12.27.268.27.147 0 .266-.121.266-.27 0-.15-.12-.27-.266-.27M23.032 29.2a.269.269 0 0 0-.268.27c0 .149.12.27.268.27.147 0 .267-.121.267-.27 0-.15-.12-.27-.267-.27M24.332 29.2a.268.268 0 0 0-.267.27c0 .149.119.27.267.27.147 0 .266-.121.266-.27 0-.15-.12-.27-.266-.27M25.958 29.2a.268.268 0 0 0-.267.27c0 .149.119.27.267.27.147 0 .267-.121.267-.27 0-.15-.12-.27-.267-.27M27.259 29.2a.268.268 0 0 0-.267.27c0 .149.119.27.267.27.147 0 .266-.121.266-.27a.268.268 0 0 0-.266-.27M28.885 29.2a.268.268 0 0 0-.267.27c0 .149.119.27.267.27.147 0 .266-.121.266-.27a.268.268 0 0 0-.266-.27M30.185 29.2a.268.268 0 0 0-.266.27c0 .149.118.27.266.27.148 0 .267-.121.267-.27a.268.268 0 0 0-.267-.27M31.811 29.2a.268.268 0 0 0-.266.27c0 .149.119.27.266.27.148 0 .267-.121.267-.27a.268.268 0 0 0-.267-.27M33.112 29.2a.269.269 0 0 0-.266.27c0 .149.12.27.266.27.148 0 .267-.121.267-.27a.268.268 0 0 0-.267-.27M20.755 29.857a.268.268 0 0 0-.267.27c0 .149.12.27.267.27.147 0 .266-.121.266-.27a.268.268 0 0 0-.266-.27M22.055 29.857a.268.268 0 0 0-.266.27c0 .149.12.27.266.27.148 0 .267-.121.267-.27a.268.268 0 0 0-.267-.27M23.681 29.857a.268.268 0 0 0-.266.27c0 .149.12.27.266.27.148 0 .267-.121.267-.27a.268.268 0 0 0-.267-.27M25.307 29.857a.268.268 0 0 0-.266.27c0 .149.12.27.266.27.148 0 .267-.121.267-.27a.268.268 0 0 0-.267-.27M26.608 29.857a.268.268 0 0 0-.267.27c0 .149.12.27.267.27.148 0 .268-.121.268-.27 0-.149-.12-.27-.268-.27M28.234 29.857a.268.268 0 0 0-.267.27c0 .149.12.27.267.27.148 0 .268-.121.268-.27 0-.149-.12-.27-.268-.27M29.535 29.857a.268.268 0 0 0-.267.27c0 .149.12.27.267.27.148 0 .268-.121.268-.27 0-.149-.12-.27-.268-.27M31.161 29.857a.269.269 0 0 0-.267.27c0 .149.12.27.267.27.148 0 .268-.121.268-.27 0-.149-.12-.27-.268-.27M32.463 29.857a.269.269 0 0 0-.268.27c0 .149.12.27.268.27.147 0 .266-.121.266-.27 0-.149-.12-.27-.266-.27M19.958 30.514a.257.257 0 0 0-.12.033v.474a.259.259 0 0 0 .12.033c.147 0 .267-.12.267-.27 0-.15-.12-.27-.267-.27M21.406 30.514a.268.268 0 0 0-.268.27c0 .15.12.27.268.27.147 0 .266-.12.266-.27 0-.15-.12-.27-.266-.27M23.032 30.514a.268.268 0 0 0-.268.27c0 .15.12.27.268.27.147 0 .267-.12.267-.27 0-.15-.12-.27-.267-.27M24.332 30.514a.268.268 0 0 0-.267.27c0 .15.119.27.267.27.147 0 .266-.12.266-.27 0-.15-.12-.27-.266-.27M25.958 30.514a.268.268 0 0 0-.267.27c0 .15.119.27.267.27.147 0 .267-.12.267-.27 0-.15-.12-.27-.267-.27M27.259 30.514a.268.268 0 0 0-.267.27c0 .15.119.27.267.27.147 0 .266-.12.266-.27a.268.268 0 0 0-.266-.27M28.885 30.514a.268.268 0 0 0-.267.27c0 .15.119.27.267.27.147 0 .266-.12.266-.27a.268.268 0 0 0-.266-.27M30.185 30.514a.268.268 0 0 0-.266.27c0 .15.118.27.266.27.148 0 .267-.12.267-.27a.268.268 0 0 0-.267-.27M31.811 30.514a.268.268 0 0 0-.266.27c0 .15.119.27.266.27.148 0 .267-.12.267-.27a.268.268 0 0 0-.267-.27M20.755 31.171a.268.268 0 0 0-.267.27c0 .149.12.27.267.27a.268.268 0 0 0 .266-.27.268.268 0 0 0-.266-.27M22.055 31.171a.268.268 0 0 0-.266.27c0 .149.12.27.266.27a.268.268 0 0 0 .267-.27.268.268 0 0 0-.267-.27M23.681 31.171a.268.268 0 0 0-.266.27c0 .149.12.27.266.27a.268.268 0 0 0 .267-.27.268.268 0 0 0-.267-.27M25.307 31.171a.268.268 0 0 0-.266.27c0 .149.12.27.266.27a.268.268 0 0 0 .267-.27.268.268 0 0 0-.267-.27M26.608 31.171a.268.268 0 0 0-.267.27c0 .149.12.27.267.27a.269.269 0 0 0 .268-.27c0-.149-.12-.27-.268-.27M28.234 31.171a.268.268 0 0 0-.267.27c0 .149.12.27.267.27a.269.269 0 0 0 .268-.27c0-.149-.12-.27-.268-.27M29.535 31.171a.268.268 0 0 0-.267.27c0 .149.12.27.267.27a.269.269 0 0 0 .268-.27c0-.149-.12-.27-.268-.27M31.161 31.171a.268.268 0 0 0-.267.27c0 .149.12.27.267.27a.269.269 0 0 0 .268-.27c0-.149-.12-.27-.268-.27M19.958 31.829a.257.257 0 0 0-.12.032v.475c.036.019.076.032.12.032.147 0 .267-.12.267-.27 0-.149-.12-.27-.267-.27M21.406 31.829a.269.269 0 0 0-.268.27c0 .148.12.269.268.269.147 0 .266-.12.266-.27 0-.149-.12-.27-.266-.27M23.032 31.829a.269.269 0 0 0-.268.27c0 .148.12.269.268.269.147 0 .267-.12.267-.27 0-.149-.12-.27-.267-.27M24.332 31.829a.268.268 0 0 0-.267.27c0 .148.119.269.267.269.147 0 .266-.12.266-.27 0-.149-.12-.27-.266-.27M25.958 31.829a.268.268 0 0 0-.267.27c0 .148.119.269.267.269.147 0 .267-.12.267-.27 0-.149-.12-.27-.267-.27M27.259 31.829a.268.268 0 0 0-.267.27c0 .148.119.269.267.269.147 0 .266-.12.266-.27a.268.268 0 0 0-.266-.27M28.885 31.829a.268.268 0 0 0-.267.27c0 .148.119.269.267.269.147 0 .266-.12.266-.27a.268.268 0 0 0-.266-.27M30.185 31.829a.268.268 0 0 0-.266.27c0 .148.118.269.266.269.148 0 .267-.12.267-.27a.268.268 0 0 0-.267-.27M20.755 32.486a.269.269 0 0 0-.267.27c0 .148.12.27.267.27a.268.268 0 0 0 .266-.27.268.268 0 0 0-.266-.27M22.055 32.486a.269.269 0 0 0-.266.27c0 .148.12.27.266.27a.268.268 0 0 0 .267-.27.268.268 0 0 0-.267-.27M23.681 32.486a.269.269 0 0 0-.266.27c0 .148.12.27.266.27a.268.268 0 0 0 .267-.27.268.268 0 0 0-.267-.27M25.307 32.486a.269.269 0 0 0-.266.27c0 .148.12.27.266.27a.268.268 0 0 0 .267-.27.268.268 0 0 0-.267-.27M26.608 32.486a.269.269 0 0 0-.267.27c0 .148.12.27.267.27a.269.269 0 0 0 .268-.27c0-.15-.12-.27-.268-.27M28.234 32.486a.269.269 0 0 0-.267.27c0 .148.12.27.267.27a.269.269 0 0 0 .268-.27c0-.15-.12-.27-.268-.27M19.958 33.143a.257.257 0 0 0-.12.032v.475a.259.259 0 0 0 .12.032c.147 0 .267-.12.267-.27 0-.149-.12-.27-.267-.27M21.406 33.143a.268.268 0 0 0-.268.27c0 .149.12.27.268.27.147 0 .266-.121.266-.27 0-.15-.12-.27-.266-.27M23.032 33.143a.268.268 0 0 0-.268.27c0 .149.12.27.268.27.147 0 .267-.121.267-.27 0-.15-.12-.27-.267-.27M24.332 33.143a.268.268 0 0 0-.267.27c0 .149.119.27.267.27.147 0 .266-.121.266-.27 0-.15-.12-.27-.266-.27M25.958 33.143a.268.268 0 0 0-.267.27c0 .149.119.27.267.27.147 0 .267-.121.267-.27 0-.15-.12-.27-.267-.27M27.259 33.143a.268.268 0 0 0-.267.27c0 .149.119.27.267.27.147 0 .266-.121.266-.27a.268.268 0 0 0-.266-.27M19.958 34.457a.252.252 0 0 0-.12.032v.474c.036.02.076.033.12.033.147 0 .267-.12.267-.27 0-.149-.12-.269-.267-.269M21.406 34.457a.268.268 0 0 0-.268.27c0 .148.12.27.268.27.147 0 .266-.122.266-.27 0-.15-.12-.27-.266-.27M23.032 34.457a.268.268 0 0 0-.268.27c0 .148.12.27.268.27.147 0 .267-.122.267-.27 0-.15-.12-.27-.267-.27M24.332 34.457a.267.267 0 0 0-.267.27c0 .148.119.27.267.27.147 0 .266-.122.266-.27 0-.15-.12-.27-.266-.27M20.755 35.114a.269.269 0 0 0-.267.27c0 .148.12.27.267.27.147 0 .266-.122.266-.27a.268.268 0 0 0-.266-.27M22.055 35.114a.269.269 0 0 0-.266.27c0 .148.12.27.266.27.148 0 .267-.122.267-.27a.268.268 0 0 0-.267-.27M23.681 35.114a.269.269 0 0 0-.266.27c0 .148.12.27.266.27.148 0 .267-.122.267-.27a.268.268 0 0 0-.267-.27M19.958 35.771a.252.252 0 0 0-.12.033v.474c.036.02.076.032.12.032.147 0 .267-.12.267-.27 0-.147-.12-.269-.267-.269M21.406 35.771a.269.269 0 0 0-.268.27.268.268 0 0 0 .534 0c0-.148-.12-.27-.266-.27M20.755 36.429a.269.269 0 0 0-.267.27c0 .148.12.27.267.27.147 0 .266-.122.266-.27 0-.15-.119-.27-.266-.27M19.958 37.086a.263.263 0 0 0-.12.032v.475a.263.263 0 0 0 .12.032.269.269 0 0 0 .267-.27c0-.15-.12-.27-.267-.27"/>
            <path d="M33.27 31.184a.267.267 0 0 0 .062-.168.268.268 0 0 0-.267-.27.268.268 0 0 0-.267.27c0 .15.12.27.267.27.017 0 .032-.006.048-.01-.062.038-.121.078-.187.111l-.316.16a.265.265 0 0 0-.234-.147.269.269 0 0 0-.268.27c0 .042.012.08.029.116l-2.44 1.232c.003-.014.009-.027.009-.042 0-.149-.12-.27-.268-.27a.269.269 0 0 0-.123.506l-.462.233a.263.263 0 0 0-.193-.085.268.268 0 0 0-.267.27c0 .015.007.028.01.043l-1.975.997-.447.22a.264.264 0 0 0-.258-.223.267.267 0 0 0-.195.45l-.424.217c-.023-.007-.046-.014-.07-.014a.266.266 0 0 0-.249.177l-.295.15-.097.052-1.4.707c.036-.046.06-.101.06-.164 0-.148-.12-.27-.266-.27a.269.269 0 0 0-.268.27c0 .149.119.268.266.27l-.47.237a.26.26 0 0 0-.218-.124.269.269 0 0 0-.267.27c0 .032.008.061.018.09l-1.167.589a2.829 2.829 0 0 1-1.033.292V20.288l.084.038-.003.001v.475a.259.259 0 0 0 .121.033c.147 0 .267-.121.267-.27 0-.025-.008-.048-.014-.07.575.261 1.153.517 1.735.764.02.129.126.228.259.228.148 0 .266-.12.266-.27a.268.268 0 0 0-.266-.269.264.264 0 0 0-.254.206 58.729 58.729 0 0 0-.546-.324c.008 0 .014.005.021.005.147 0 .267-.121.267-.27 0-.15-.12-.27-.267-.27a.268.268 0 0 0-.267.27c0 .056.021.106.05.15-.428-.25-.858-.495-1.29-.737.232-.111.465-.22.698-.33l.568-.277a.266.266 0 0 0 .241.157c.147 0 .267-.12.267-.27a.264.264 0 0 0-.03-.118l.461-.224c.5-.247 1-.495 1.499-.749l.48-.248c-.001.011-.007.021-.007.033 0 .149.119.27.267.27a.268.268 0 0 0 .126-.503l.458-.238a.262.262 0 0 0 .194.087c.148 0 .267-.12.267-.27 0-.018-.007-.035-.01-.052l2.417-1.272c0 .006-.004.012-.004.018 0 .15.12.27.267.27.148 0 .268-.12.268-.27a.266.266 0 0 0-.128-.224l.408-.206a.257.257 0 0 0 .142.047.266.266 0 0 0 .263-.252l2.427-1.225a.265.265 0 1 0 .47-.238l2.333-1.178c.177.329.287.688.327 1.057a.265.265 0 0 0-.213.259c0 .137.102.246.233.263v.781a.266.266 0 0 0-.233.263c0 .137.102.245.233.263v.78a.266.266 0 0 0-.233.263c0 .137.102.245.233.263v.781a.266.266 0 0 0-.233.263c0 .137.102.245.233.263v.78a.266.266 0 0 0-.233.263c0 .137.102.246.233.263v.78a.266.266 0 0 0-.233.264c0 .136.102.245.233.263v.78a.266.266 0 0 0-.233.263c0 .137.102.246.233.263v.78a.266.266 0 0 0-.233.264c0 .137.102.245.233.263v.78a.266.266 0 0 0-.233.263c0 .137.102.245.233.263v.78a.266.266 0 0 0-.233.264c0 .137.102.245.233.263v.78a.266.266 0 0 0-.233.263c0 .137.102.245.233.263v.78a.266.266 0 0 0-.233.263c0 .138.102.246.233.264v.157c0 .22-.031.435-.078.643a.27.27 0 0 0-.155.243c0 .05.017.095.041.136a2.847 2.847 0 0 1-.211.448.264.264 0 0 0-.253-.2.27.27 0 0 0 0 .539c.008 0 .014-.004.022-.004-.17.21-.37.398-.596.555zM19.42 19.643l-3.802-1.923c-.09-.047-.18-.095-.27-.14l-.446-.222-1.096-.555-8.86-4.481c.182-.237.402-.44.647-.607l.358-.173c.456-.224.911-.45 1.364-.68l1.351-.702 1.152-.61 8.342-4.215a2.823 2.823 0 0 1 2.521 0l12.246 6.187c.38.191.714.467.975.807l-9.008 4.55-.123.06-1.5.746c-.402.204-.802.412-1.202.62l-1.95.985-.698.353zm-.227 18.224a2.822 2.822 0 0 1-1.048-.293L5.9 31.387a2.851 2.851 0 0 1-1.558-2.578V14.085c0-.483.12-.955.35-1.377l4.554 2.303 1.732.911 2.739 1.454 1.374.716c.46.235.923.465 1.387.694l1.395.674 1.084.51-.126.068a98.082 98.082 0 0 0-2.917 1.657.026.026 0 0 0-.01.032c.005.013.02.02.033.014a98.46 98.46 0 0 0 3.058-1.377c.066-.03.132-.062.198-.094v17.597zM39.845 9.574a.026.026 0 0 0-.035-.012l-4.995 2.44-.031-2.78a.018.018 0 0 0-.018-.018.018.018 0 0 0-.019.019l-.032 2.775-1.044-.562-.097-.05a3.24 3.24 0 0 0-.444-.276L20.884 4.923a3.225 3.225 0 0 0-.689-.25l-.15-.076-.434-.213c.842-.447 1.686-.892 2.526-1.342a.028.028 0 0 0 .012-.036.027.027 0 0 0-.036-.013c-.896.43-1.789.867-2.683 1.302l-5.464-2.693a.021.021 0 0 0-.028.01.021.021 0 0 0 .01.029l5.261 2.761-.545.265c-.243.058-.48.143-.707.257l-5.582 2.82-1.212.595-2.74 1.332-1.364.678c-.453.23-.903.464-1.353.7l-1.343.719-.397.218-3.927-1.913a.027.027 0 0 0-.036.012.028.028 0 0 0 .011.037l3.732 1.985c-.24.13-.481.26-.72.395-.888.494-1.771.997-2.642 1.528a.028.028 0 0 0-.01.034.027.027 0 0 0 .035.015c.94-.389 1.868-.805 2.79-1.23.346-.158.69-.322 1.033-.484l.107.057a3.334 3.334 0 0 0-.452 1.663v14.722a3.307 3.307 0 0 0 1.81 2.991l12.244 6.187c.455.23.964.351 1.472.351h.008c.076 0 .153-.008.229-.014a.021.021 0 0 0 .027.012l.038-.016a3.278 3.278 0 0 0 1.17-.333l4.25-2.147.008-.004 7.986-4.036c.245-.122.463-.277.662-.452l.665-.345.172-.09c.003.197.005.394.01.59l.044 1.591c.022.53.037 1.061.065 1.592 0 .009.008.017.017.017.01 0 .02-.007.02-.017.028-.53.043-1.061.064-1.592l.044-1.59c.007-.246.008-.49.013-.735l4.429-2.315a.022.022 0 0 0 .01-.029.02.02 0 0 0-.029-.01l-4.406 2.129c.008-.47.018-.939.024-1.408.01-.103.022-.205.022-.31v-14.74c0-.306-.045-.607-.126-.898l-.01-.776a125.657 125.657 0 0 0 3.287 1.52c.01.005.023.001.028-.009a.022.022 0 0 0-.008-.029c-.98-.565-1.968-1.116-2.962-1.653l-.158-.085 4.827-2.546a.026.026 0 0 0 .012-.034z"/>
        </g>
    </g>
</svg>
