<svg xmlns="http://www.w3.org/2000/svg" width="200" height="46" viewBox="0 0 200 46">
    <g fill="#464646" fill-rule="evenodd">
        <path d="M181.095 1.116l-.148 35.725 18.118.075-.036 8.772-27.66-.114.184-44.498zM157.536 16.783c.021-4.958-2.989-7.45-8.304-7.472l-7.91-.033-.063 15.066 7.911.033c5.315.022 8.345-2.509 8.366-7.594m9.061-.28c-.043 10.362-6.229 16.312-16.979 16.267l-8.394-.035-.052 12.714-9.543-.04.184-44.497 17.937.074c10.75.045 16.887 5.664 16.847 15.517M111.89 28.61l-6.572-17.319-6.776 17.263 13.347.055zm3.046 8.085l-19.568-.08-3.357 8.63-9.844-.04L100.711.785l9.844.04 17.874 44.571-10.207-.042-3.286-8.659zM50.404.575l-.077 18.561 19.145.08.077-18.562 9.542.04-.184 44.497-9.542-.04.072-17.545-19.145-.079-.072 17.545-9.543-.039.185-44.498zM18.24 8.579c-3.2-.013-5.38 1.185-5.39 3.6-.033 8.2 22.512 3.717 22.386 19.736-.036 8.709-7.242 13.384-16.603 13.345-6.946-.03-13.88-2.854-18.633-7.134l3.839-8.184c4.332 4.086 10.48 6.718 14.95 6.737 3.926.016 6.287-1.5 6.299-4.233.034-8.391-22.513-3.59-22.448-19.355C2.674 5.018 9.278-.04 19.062 0 24.98.025 30.89 1.957 35.106 4.899l-3.72 8.31c-4.456-2.815-9.763-4.616-13.145-4.63"/>
    </g>
</svg>
