<svg xmlns="http://www.w3.org/2000/svg" width="100" height="100" viewBox="0 0 100 100">
    <g fill="none" fill-rule="evenodd">
        <path fill-rule="nonzero" d="M0 0h100v100H0z"/>
        <path fill="#CCDEE5" stroke="#464646" stroke-width="4" d="M74.6 44.503a32.843 32.843 0 0 0-3.452-1.307c-6.565-2.092-14.019-2.63-21.916-.656-8.477 2.12-16.205.947-22.861-2.3a32.156 32.156 0 0 1-2.15-1.15v21.757c.131.096.278.2.44.313a26.586 26.586 0 0 0 3.463 2.012c5.86 2.858 12.645 3.887 20.138 2.014 8.679-2.17 16.872-1.578 24.1.725a41.6 41.6 0 0 1 2.238.782v-22.19z"/>
        <path fill="#FFF" stroke="#464646" stroke-width="4" d="M81.895 37.208a32.843 32.843 0 0 0-3.452-1.307c-6.565-2.091-14.02-2.63-21.916-.655-8.477 2.119-16.206.946-22.861-2.3a32.156 32.156 0 0 1-2.15-1.15v21.757c.13.095.278.2.44.312a26.586 26.586 0 0 0 3.463 2.012c5.86 2.858 12.645 3.888 20.138 2.014 8.678-2.17 16.872-1.577 24.1.726a41.6 41.6 0 0 1 2.238.78V37.209z"/>
        <path fill="#464646" d="M54.58 39.21v1.48c-1.484.522-2.551 1.927-2.551 3.573 0 2.09 1.716 3.79 3.827 3.79.704 0 1.276.566 1.276 1.263 0 .696-.572 1.263-1.276 1.263-.544 0-1.133-.34-1.656-.956a1.285 1.285 0 0 0-1.798-.154 1.254 1.254 0 0 0-.155 1.78c.681.803 1.484 1.363 2.334 1.645v1.474a1.27 1.27 0 0 0 1.275 1.264 1.27 1.27 0 0 0 1.276-1.264v-1.48c1.485-.521 2.552-1.925 2.552-3.572 0-2.09-1.717-3.79-3.828-3.79a1.27 1.27 0 0 1-1.275-1.263c0-.696.572-1.263 1.275-1.263.453 0 .93.229 1.38.66a1.285 1.285 0 0 0 1.805-.03c.49-.5.476-1.3-.03-1.785-.647-.62-1.295-.971-1.879-1.163V39.21a1.27 1.27 0 0 0-1.276-1.264 1.27 1.27 0 0 0-1.275 1.264z"/>
        <path fill="#58CDF9" fill-rule="nonzero" stroke="#464646" stroke-width="4" d="M23.107 29.713l3.656-3.657-6.144-6.144 1.596-1.408A41.841 41.841 0 0 1 50 8c23.196 0 42 18.804 42 42a41.841 41.841 0 0 1-10.504 27.785l-1.408 1.596-6.567-6.567-3.657 3.657 6.395 6.395-1.926 1.371A41.812 41.812 0 0 1 50 92C26.804 92 8 73.196 8 50c0-8.843 2.742-17.28 7.763-24.333l1.371-1.926 5.973 5.972zM50 98c26.51 0 48-21.49 48-48S76.51 2 50 2 2 23.49 2 50s21.49 48 48 48z"/>
        <path fill-rule="nonzero" stroke="#464646" stroke-width="4" d="M68 40l8.18 1.193"/>
    </g>
</svg>
