<svg xmlns="http://www.w3.org/2000/svg" width="40" height="40" viewBox="0 0 40 40">
    <g fill="none" fill-rule="evenodd">
        <path d="M0 0h40v40H0z"/>
        <path fill="#BEBEBE" d="M21.45 36.04c-.34.168-.714.271-1.093.303V17.837l15.357-7.606c.24.436.366.923.367 1.42v2.303l-12.587 6.234v14.84l-2.043 1.011zm-4.981-1.138V20.094l-12.318-6.11v-2.332c0-.501.129-.99.372-1.43l15.352 7.615v18.507a3.034 3.034 0 0 1-1.11-.305l-2.296-1.137zM5.817 8.99l12.964-6.423a3.04 3.04 0 0 1 2.67 0L34.415 8.99c.404.198.756.485 1.033.838l-14.658 7.26-.674.334-5.365-2.661-9.96-4.94c.275-.35.625-.634 1.026-.831zm33.367 3.426l-2.622 1.298v-2.063a3.42 3.42 0 0 0-.553-1.863 3.471 3.471 0 0 0-1.379-1.225L21.665 2.14a3.53 3.53 0 0 0-3.099 0L5.602 8.563A3.473 3.473 0 0 0 4.23 9.781a3.418 3.418 0 0 0-.56 1.87v2.095L.785 12.315c-.332.51-.52 1.11-.52 1.741v15.287a3.208 3.208 0 0 0 1.782 2.89l12.964 6.424c.46.228.96.34 1.459.34v-3.562l2.08 1.031c.482.239 1.02.365 1.56.365h.007a3.53 3.53 0 0 0 1.55-.365l1.828-.905v3.53a3.268 3.268 0 0 0 1.442-.34L37.9 32.328a3.209 3.209 0 0 0 1.8-2.874V14.15c-.001-.627-.187-1.225-.516-1.733z"/>
    </g>
</svg>
