<svg xmlns="http://www.w3.org/2000/svg" width="100" height="100" viewBox="0 0 100 100">
    <g fill="none" fill-rule="nonzero">
        <path d="M0 0h100v100H0z"/>
        <g stroke="#464646" stroke-width="4" transform="translate(2 6)">
            <path fill="#CCDEE5" stroke-linejoin="round" d="M78.086 86.712l15.347-22.118c1.556-2.33 2.334-5.125 2.334-8.387V26.893a4.893 4.893 0 1 0-9.786 0v24.833c.201 1.318-.26 2.812-1.386 4.481-1.125 1.67-4.99 5.833-11.595 12.49l.052-.112 10.023-10.337a5.64 5.64 0 0 0-.201-8.05 6.02 6.02 0 0 0-8.266.049c-3.335 3.186-5.975 5.496-7.92 6.932-4.018 2.964-6.401 7.5-7.456 11.406-.703 2.604-1.855 8.611-3.456 18.023M17.914 86.712L2.567 64.594C1.011 62.264.233 59.469.233 56.207V26.893a4.893 4.893 0 1 1 9.786 0v24.833c-.201 1.318.26 2.812 1.386 4.481 1.125 1.67 4.99 5.833 11.595 12.49l-.052-.112-10.023-10.337a5.64 5.64 0 0 1 .201-8.05 6.02 6.02 0 0 1 8.266.049c3.335 3.186 5.975 5.496 7.92 6.932 4.018 2.964 6.401 7.5 7.456 11.406.703 2.604 1.855 8.611 3.456 18.023"/>
            <rect width="12" height="17" x="60" y="6" fill="#FFF" rx="6"/>
            <rect width="12" height="17" x="23" y="6" fill="#FFF" rx="6"/>
            <path fill="#FFF" d="M55 38h22v-3.805C77 30.77 74.254 28 70.875 28h-9.75C57.746 28 55 30.77 55 34.195V38zM18 38h22v-3.805C40 30.77 37.254 28 33.875 28h-9.75C20.746 28 18 30.77 18 34.195V38z"/>
            <rect width="17" height="24" x="39" y="2" fill="#58CDF9" rx="8.5"/>
            <path fill="#58CDF9" d="M29 48.353h36V41.5C65 35.701 60.299 31 54.5 31h-15C33.701 31 29 35.701 29 41.5v6.853z"/>
        </g>
    </g>
</svg>
