<svg xmlns="http://www.w3.org/2000/svg" width="600" height="140" viewBox="0 0 600 140">
    <g fill="none" fill-rule="evenodd">
        <g fill="#464646">
            <path d="M107.988 66.599h-51.53v4.44h51.53v3.482c0 .226.238.373.44.272l11.446-5.771a.303.303 0 0 0-.005-.544l-11.446-5.54a.303.303 0 0 0-.435.274v3.387zM20.764 69.657l-.062-5.006a1.14 1.14 0 0 0-1.15-1.124 1.14 1.14 0 0 0-1.122 1.152l.04 3.17.935.915-.912.936a1.14 1.14 0 0 0 1.15 1.11 1.14 1.14 0 0 0 1.121-1.153M30.767 68.623l-.912.936c.016.62.529 1.117 1.149 1.11a1.14 1.14 0 0 0 1.122-1.153l-.062-5.006a1.14 1.14 0 0 0-1.15-1.124 1.141 1.141 0 0 0-1.123 1.152l.04 3.17.936.915z"/>
            <path d="M34.564 87.35a14.6 14.6 0 0 1-1.631 1.614l-.001.001a14.5 14.5 0 0 1-1.807 1.3 14.81 14.81 0 0 1-.928.52l-.04.02c-.3.153-.604.296-.915.428-.09.038-.182.07-.273.106-.244.098-.488.195-.738.28-.357.119-.718.227-1.087.319a14.172 14.172 0 0 1-1.63.305c-.539.069-1.086.11-1.642.118a14.347 14.347 0 0 1-4.693-.731 14.516 14.516 0 0 1-1.246-.488c-.126-.055-.249-.115-.372-.174a14.342 14.342 0 0 1-2.945-1.863v-.001a14.385 14.385 0 0 1-.515-.445l-.152-.139a14.612 14.612 0 0 1-1.923-2.174c-.07-.098-.137-.199-.205-.299a14.853 14.853 0 0 1-.479-.75c-.081-.137-.162-.274-.24-.414a14.434 14.434 0 0 1-.465-.929c-.053-.115-.11-.229-.16-.345a14.069 14.069 0 0 1-.324-.838c-.04-.111-.076-.224-.113-.336a14.22 14.22 0 0 1-.2-.665c-.027-.1-.056-.2-.081-.3a14.438 14.438 0 0 1-.206-.954c-.013-.073-.022-.147-.034-.22-.044-.27-.08-.543-.11-.818-.01-.096-.02-.192-.027-.288-.03-.344-.05-.69-.055-1.04l-.19-15.348a14.315 14.315 0 0 1 1.84-7.21c4.873 3.047 12.353 3.925 20.052 1.813a32.796 32.796 0 0 0 5.004-1.818 14.314 14.314 0 0 1 1.837 6.859l.19 15.347a14.483 14.483 0 0 1-.055 1.402c-.03.36-.07.717-.127 1.07-.007.045-.018.09-.026.135a14.115 14.115 0 0 1-.273 1.25c-.08.301-.167.6-.266.892-.043.128-.091.253-.138.379a14.383 14.383 0 0 1-.432 1.051c-.077.166-.16.328-.242.49a14.509 14.509 0 0 1-1.878 2.819l-.059.069zm-10.61 10.96l-1.424.017a1.637 1.637 0 0 1-1.654-1.616l-.037-2.972a15.952 15.952 0 0 0 4.695.154l.034 2.76a1.637 1.637 0 0 1-1.614 1.657zM7.501 74.692c-1.843-.44-3.248-1.583-3.248-4.426S7.5 67.393 7.5 67.393v7.299zm32.283 18.121a15.419 15.419 0 0 0-5.04-3.263c.382-.367.747-.753 1.093-1.156l.037-.045c.152-.178.3-.36.444-.546l.082-.106c.13-.171.258-.345.382-.521l.08-.114c.132-.191.26-.386.384-.583l.037-.058c.276-.442.53-.9.762-1.369l.059-.124c.09-.186.177-.374.26-.565l.082-.193c.073-.173.143-.348.21-.524l.078-.208c.067-.186.131-.374.192-.563l.055-.169c.153-.492.282-.994.386-1.505l.043-.222c.034-.18.066-.36.094-.542l.04-.277a17.027 17.027 0 0 0 .125-1.337l.014-.251c.01-.265.015-.531.011-.799l-.19-15.348a15.949 15.949 0 0 0-2.003-7.56c8.018-4.21 12.715-11.257 10.987-17.578-2.154-7.876-13.462-11.638-25.258-8.403C12.025 31.957 4.417 40.239 5.53 47.812c-2.313 2.327-4.083 5.654-4.816 9.533-.845 4.474-.137 8.768 1.667 11.968v-.083l.024 2.024c.036 2.846 2.353 5.161 5.27 5.384l.019 1.532c.004.402.03.798.064 1.193a15.589 15.589 0 0 0 .178 1.392c.012.065.026.13.039.194.062.33.134.657.217.98.02.076.036.153.057.23.096.351.204.697.322 1.04.031.092.066.183.1.274.11.302.228.6.356.893.024.055.045.112.07.167a15.959 15.959 0 0 0 .631 1.244c.166.296.338.587.521.87.055.086.114.168.17.251.149.221.303.438.462.65.075.1.148.201.226.3.199.254.406.502.62.743.087.099.177.194.267.29.17.183.344.36.522.535.083.081.163.165.248.244a16.23 16.23 0 0 0-6.083 3.98 16.23 16.23 0 0 0-4.573 11.628l.239 10.545c.01.449.38.805.827.8h.009a.817.817 0 0 0 .797-.833v-.004l-.238-10.54a14.6 14.6 0 0 1 4.114-10.458 14.573 14.573 0 0 1 6.402-3.886c.366.269.743.523 1.132.76l.017.011c.365.222.738.43 1.12.623l.11.058c.35.173.707.331 1.07.479.068.028.135.06.204.087.422.165.852.315 1.29.444l.042 3.377a3.275 3.275 0 0 0 3.309 3.233l1.424-.018a3.275 3.275 0 0 0 3.227-3.314l-.037-3.015c.26-.057.515-.123.77-.193l.234-.069a14.79 14.79 0 0 0 1.305-.443l.222-.087c.483-.196.954-.416 1.413-.657.068-.035.135-.073.203-.11a15.928 15.928 0 0 0 1.177-.708l.183-.12c.215-.147.426-.297.633-.454a13.735 13.735 0 0 1 5.343 3.215 13.745 13.745 0 0 1 4.212 9.707l.254 11.401v.004a.818.818 0 0 0 1.634-.036l-.254-11.401a15.37 15.37 0 0 0-4.71-10.853z"/>
            <path d="M31.765 72.427c-.682.064-2.62.329-3.06-.452-.519-.917-1.92-.074-1.402.844.534.944 1.674 1.15 2.674 1.276.512.065 1.001.06 1.514.007.04-.004.611-.135.639-.012.062.282-.745.62-.898.68-.972.378-.53 1.955.454 1.573 1.234-.48 2.79-1.807 1.84-3.287-.408-.637-1.072-.694-1.76-.63M27.764 82.087c-2.518.97-4.926-.01-6.058-2.453-.638-1.377-2.657-.151-2.022 1.218 1.542 3.329 5.325 4.819 8.735 3.505 1.405-.54.766-2.818-.655-2.27M574.708 70.073c.628 0 1.141-.513 1.148-1.14l-.937-.936.936-.94-.004-3.213c0-.635-.52-1.153-1.153-1.152-.633 0-1.15.52-1.15 1.155l.007 5.074c0 .635.52 1.153 1.153 1.152M563.192 70.088c.628-.001 1.142-.513 1.149-1.14l-.937-.937.936-.94-.004-3.213c0-.634-.52-1.152-1.153-1.152-.633.001-1.15.52-1.15 1.155l.006 5.075c.001.634.52 1.152 1.153 1.152M566.972 72.215c.513-.937-.92-1.772-1.432-.835-.436.797-2.402.556-3.096.5-.699-.056-1.37.01-1.776.662-.942 1.513.654 2.837 1.911 3.305 1.002.374 1.428-1.23.438-1.6-.156-.058-.978-.39-.919-.677.027-.125.607 0 .648.004a6.56 6.56 0 0 0 1.533-.028c1.013-.142 2.165-.367 2.693-1.33"/>
            <path d="M586.947 74.142v-7.298s3.248.03 3.248 2.873c0 2.843-1.404 3.986-3.248 4.425m-1.726 4.281a15.566 15.566 0 0 1-.124 1.123l-.031.223c-.054.327-.12.65-.196.97-.024.102-.052.203-.079.305-.059.228-.123.453-.193.676-.036.115-.07.23-.109.343-.098.288-.203.573-.318.854-.05.118-.104.234-.156.352a14.334 14.334 0 0 1-.46.948 14.748 14.748 0 0 1-.711 1.19c-.068.101-.134.205-.205.305a14.523 14.523 0 0 1-.54.72 14.801 14.801 0 0 1-1.378 1.51l-.152.143a14.836 14.836 0 0 1-1.38 1.132 15.275 15.275 0 0 1-2.094 1.255c-.125.061-.248.124-.374.182-.126.057-.252.113-.38.167-.289.122-.579.24-.876.344a14.29 14.29 0 0 1-1.656.468c-.996.218-2.029.336-3.09.338a14.58 14.58 0 0 1-4.428-.692 14.098 14.098 0 0 1-.752-.273c-.092-.035-.187-.066-.278-.104a14.52 14.52 0 0 1-.932-.42l-.042-.02a14.645 14.645 0 0 1-2.796-1.807c-.601-.493-1.161-1.033-1.676-1.614l-.06-.07a14.7 14.7 0 0 1-1.943-2.83c-.085-.163-.172-.326-.251-.493a14.917 14.917 0 0 1-.453-1.06c-.05-.126-.1-.252-.146-.38a14.661 14.661 0 0 1-.372-1.246 14.661 14.661 0 0 1-.204-.918c-.008-.046-.02-.09-.028-.137a14.35 14.35 0 0 1-.168-1.368c-.029-.375-.05-.751-.05-1.133l-.02-15.556a14.503 14.503 0 0 1 1.768-6.976c.598-.903 2.172-3.096 4.841-4.777 6.329 4.812 14.12 7.651 22.051 8.097.299 1.157.46 2.37.462 3.62l.02 15.555c0 .355-.016.705-.04 1.054M572.16 97.998l-1.443.002a1.66 1.66 0 0 1-1.659-1.656l-.004-2.798a16.202 16.202 0 0 0 4.756-.22l.004 3.012a1.66 1.66 0 0 1-1.654 1.66m23.235-25.12c3.372-7.959 1.662-15.663 1.217-17.467-1.386-5.616-4.146-9.26-4.766-10.056-1.258-1.616-5.397-6.78-12.845-8.791a15.75 15.75 0 0 0-.575-.143c-2.01-2.811-5.596-5.214-10.02-6.375-7.741-2.03-15.113.514-16.464 5.683-.756 2.89.53 5.987 3.164 8.513a3.91 3.91 0 0 0-1.843.92c-.771.703-1.24 1.673-1.638 2.638-2.917 7.056-2.97 15.25-.147 22.344a29.157 29.157 0 0 0 3.002 5.63l.003 1.633c0 .272.009.542.022.81.004.085.012.169.017.254.012.184.027.367.045.55l.032.288a18.749 18.749 0 0 0 .113.795c.032.184.067.366.104.548l.045.225c.113.516.251 1.023.413 1.52.018.057.038.113.058.17.064.19.131.38.202.568l.082.21a15.16 15.16 0 0 0 .577 1.291c.021.042.04.084.062.125.241.473.505.932.79 1.377.012.02.026.038.039.057.128.199.26.394.397.586.027.039.055.076.083.114a16.92 16.92 0 0 0 .936 1.177l.038.045c.356.403.731.79 1.125 1.156a15.62 15.62 0 0 0-5.063 3.377 15.578 15.578 0 0 0-4.624 11.063l-.1 11.557a.829.829 0 1 0 1.657.014v-.004l.1-11.557a13.928 13.928 0 0 1 4.134-9.896 13.928 13.928 0 0 1 5.37-3.331c.212.155.428.305.648.45l.187.12a15.969 15.969 0 0 0 1.202.701l.208.11c.468.237.948.453 1.44.646.075.029.15.056.226.084a15.161 15.161 0 0 0 1.329.431c.08.022.159.046.239.067.258.067.519.13.782.185l.004 3.056a3.319 3.319 0 0 0 3.316 3.313l1.444-.002a3.319 3.319 0 0 0 3.308-3.322l-.004-3.423c.442-.136.875-.295 1.301-.467.07-.029.136-.062.206-.092.365-.154.725-.32 1.077-.5.037-.018.073-.04.11-.06a16.232 16.232 0 0 0 1.144-.657c.118-.074.233-.153.348-.23a8.022 8.022 0 0 0 2.28 1.882c1.369.75 3.134 1.184 4.743 1.11.103.1.206.199.307.3a14.797 14.797 0 0 1 4.314 10.54l-.097 10.685v.004a.829.829 0 0 0 .82.833h.01a.829.829 0 0 0 .826-.821l.097-10.69c.016-4.2-1.52-8.164-4.338-11.238a3.951 3.951 0 0 0 1.261-.777c2.36-2.205-.436-5.797 1.21-11.964 1.04-3.9 2.41-3.406 4.31-7.891"/>
            <path d="M574.076 78.343c-1.14 2.54-3.617 3.584-6.232 2.614-1.477-.549-2.109 1.815-.649 2.356 3.542 1.314 7.435-.275 8.988-3.736.639-1.425-1.465-2.666-2.107-1.234M497.039 52.874c.177-.09.436-.3.436-.754 0-.091-.01-.172-.025-.245a.734.734 0 0 0-.719-.57h-2.909a.06.06 0 0 1-.06-.07l.29-1.675c.031-.18.025-.365-.018-.543a4.932 4.932 0 0 0-.579-1.385.346.346 0 0 0-.131-.122c-.49-.262-.882-.08-1.1.085a.48.48 0 0 0-.19.381v1.434a.348.348 0 0 1-.013.096c-.262.889-1.427 2.283-1.608 2.496a.33.33 0 0 1-.053.05l-.432.333a.348.348 0 0 0-.136.275v3.645c0 .131.074.252.192.31l.711.357a.349.349 0 0 0 .155.037h5.052c.416 0 .85-.345.85-.779 0-.266-.082-.45-.145-.554a.11.11 0 0 1 .031-.151c.173-.116.403-.378.403-.69 0-.26-.11-.426-.18-.505a.07.07 0 0 1 .01-.102c.12-.096.369-.33.369-.659a.728.728 0 0 0-.226-.528.104.104 0 0 1 .025-.167M488.84 51.954h-2.734a.356.356 0 0 0-.356.356v4.52c0 .196.16.356.356.356h2.735c.196 0 .355-.16.355-.357V52.31a.356.356 0 0 0-.355-.356M486.689 66.375h51.53v4.44h-51.53v3.482a.303.303 0 0 1-.439.271l-11.446-5.77a.303.303 0 0 1 .005-.544l11.446-5.54a.303.303 0 0 1 .434.273v3.388zM71.58 50.085v5.818h.813c.18-.008.34-.05.482-.125a.871.871 0 0 0 .441-.546c.027-.096.04-.207.04-.332v-3.7c0-.137-.013-.26-.04-.366a1.098 1.098 0 0 0-.11-.279.856.856 0 0 0-.156-.2.981.981 0 0 0-.175-.132 1.137 1.137 0 0 0-.482-.138h-.814zm.863-1.467c.38 0 .734.048 1.061.144.328.096.613.239.858.43.244.19.436.427.575.711.14.284.21.616.21.997v3.887c0 .326-.035.613-.106.862a2.478 2.478 0 0 1-.279.646 2.09 2.09 0 0 1-.39.464c-.147.127-.295.23-.446.31-.358.192-.765.301-1.22.326h-2.079c-.237 0-.421-.04-.55-.122a.709.709 0 0 1-.282-.326 1.367 1.367 0 0 1-.103-.461 8.797 8.797 0 0 1-.016-.533v-5.906c0-.18.005-.355.016-.527a1.34 1.34 0 0 1 .103-.457.714.714 0 0 1 .282-.323c.129-.081.313-.122.55-.122h1.816zM79.955 48.618c.167 0 .336.006.507.018.171.013.326.049.463.107.138.059.25.147.338.267.088.118.132.285.132.498 0 .213-.044.38-.132.498a.799.799 0 0 1-.338.267 1.448 1.448 0 0 1-.463.106c-.171.013-.34.02-.507.02h-1.49v1.705h.789c.167 0 .335.005.504.015.169.01.319.044.45.1a.76.76 0 0 1 .323.258c.083.114.125.275.125.48 0 .208-.042.37-.125.482a.77.77 0 0 1-.322.254c-.132.056-.282.09-.451.1-.17.01-.337.016-.504.016h-.789v1.806h1.49c.167 0 .336.006.507.018.171.013.326.047.463.104.138.056.25.144.338.263.088.12.132.283.132.492 0 .218-.045.387-.134.508a.819.819 0 0 1-.342.27 1.446 1.446 0 0 1-.463.106 6.845 6.845 0 0 1-.5.02H77.5c-.234 0-.414-.043-.541-.126a.734.734 0 0 1-.28-.33 1.371 1.371 0 0 1-.102-.46 8.703 8.703 0 0 1-.016-.527V50.06c0-.18.005-.356.016-.527.01-.171.045-.325.103-.46a.736.736 0 0 1 .279-.33c.127-.083.307-.125.541-.125h2.454zM84.35 50.825a.84.84 0 0 0 .153.473c.098.14.227.273.388.398.16.125.343.248.548.367.204.119.414.244.629.376a7.8 7.8 0 0 1 .63.43 3.3 3.3 0 0 1 .55.526 2.39 2.39 0 0 1 .557 1.505v.05c0 .343-.042.642-.125.897a2.267 2.267 0 0 1-.332.658 1.879 1.879 0 0 1-.482.454c-.184.12-.377.215-.579.286a3.216 3.216 0 0 1-.614.15c-.206.03-.401.046-.585.05h-.063c-.354 0-.665-.035-.932-.106a2.523 2.523 0 0 1-.689-.285 1.928 1.928 0 0 1-.479-.411 2.152 2.152 0 0 1-.303-.48 2.271 2.271 0 0 1-.163-.492 2.262 2.262 0 0 1-.05-.458.91.91 0 0 1 .075-.382.763.763 0 0 1 .479-.42c.106-.034.218-.05.335-.05.108 0 .22.016.335.05.114.033.219.084.313.153a.798.798 0 0 1 .329.636c.007.314.079.529.212.643.134.115.326.173.576.173.125-.004.241-.02.347-.047a.62.62 0 0 0 .273-.144.711.711 0 0 0 .178-.276c.044-.115.066-.26.066-.436 0-.217-.05-.414-.147-.59a2.059 2.059 0 0 0-.385-.488 4.046 4.046 0 0 0-.545-.43 42.308 42.308 0 0 0-.626-.408c-.213-.135-.42-.277-.623-.426a3.804 3.804 0 0 1-.547-.486 2.203 2.203 0 0 1-.392-.583 1.788 1.788 0 0 1-.153-.727v-.1c.004-.447.063-.82.178-1.116.115-.297.284-.533.508-.709.223-.175.497-.3.823-.373.325-.073.698-.11 1.12-.11h.163c.384 0 .71.042.976.126.268.084.49.19.667.32.178.13.317.276.42.439a2.112 2.112 0 0 1 .322.927c.013.138.019.25.019.333a.776.776 0 0 1-.266.602.887.887 0 0 1-.288.166c-.11.04-.23.06-.36.06-.1 0-.2-.02-.3-.06-.1-.04-.19-.091-.27-.154a.82.82 0 0 1-.194-.216.467.467 0 0 1-.075-.248c0-.343-.062-.58-.185-.714s-.303-.201-.541-.201c-.113 0-.222.006-.329.019a.609.609 0 0 0-.282.103.563.563 0 0 0-.193.26 1.35 1.35 0 0 0-.073.496M89.257 50.06c0-.18.01-.356.029-.527a1.33 1.33 0 0 1 .13-.46.813.813 0 0 1 .31-.33c.138-.083.328-.125.57-.125.243 0 .432.042.57.125.138.084.241.193.31.33.069.135.112.289.131.46.02.171.029.347.029.527v5.893c0 .184-.009.362-.025.533-.017.172-.06.325-.129.46a.786.786 0 0 1-.313.327c-.14.081-.33.122-.573.122-.242 0-.432-.04-.57-.122a.792.792 0 0 1-.31-.326 1.327 1.327 0 0 1-.13-.461 4.835 4.835 0 0 1-.029-.533V50.06zM99.086 56.818c0 .054-.006.117-.016.188a.485.485 0 0 1-.082.204.538.538 0 0 1-.19.166.703.703 0 0 1-.339.07.877.877 0 0 1-.375-.067.514.514 0 0 1-.304-.367.968.968 0 0 1-.022-.194v-.376c-.2.297-.456.539-.766.724-.311.186-.694.28-1.15.28a5.49 5.49 0 0 1-.369-.02 3.402 3.402 0 0 1-1.208-.345 2.082 2.082 0 0 1-.604-.454 2.312 2.312 0 0 1-.447-.727c-.117-.29-.176-.645-.176-1.063v-3.511c0-.342.042-.646.126-.909a2.51 2.51 0 0 1 .328-.687c.136-.194.291-.357.467-.489.175-.131.354-.24.538-.329.426-.2.912-.315 1.458-.344.464 0 .86.052 1.19.156.33.105.61.24.839.408.23.167.413.356.55.567a2.94 2.94 0 0 1 .467 1.27c.023.2.034.374.034.52 0 .063-.005.14-.015.229a.515.515 0 0 1-.11.257.707.707 0 0 1-.297.207c-.136.056-.329.084-.58.084-.087 0-.194-.005-.322-.015a1.4 1.4 0 0 1-.366-.079.815.815 0 0 1-.3-.184.447.447 0 0 1-.125-.336c0-.226-.014-.427-.041-.605a1.316 1.316 0 0 0-.147-.454.707.707 0 0 0-.294-.286 1.049 1.049 0 0 0-.483-.097c-.204 0-.362.042-.472.126a.803.803 0 0 0-.241.275c-.059.118-.092.251-.1.402v4.012c0 .134.024.26.072.376a.935.935 0 0 0 .513.514c.119.05.25.076.391.076a.939.939 0 0 0 .454-.11c.136-.073.258-.171.366-.295.109-.123.206-.263.291-.42.086-.157.162-.32.229-.492h-.601a.834.834 0 0 1-.32-.094.646.646 0 0 1-.222-.188.552.552 0 0 1-.097-.345c0-.159.033-.28.097-.367a.634.634 0 0 1 .223-.19.83.83 0 0 1 .319-.082h1.628c.029 0 .076.005.14.015.065.01.132.041.2.091.07.05.13.125.182.223a.889.889 0 0 1 .079.41v2.671zM105.346 54.8h.15v-5.204c0-.134.008-.26.025-.38a.762.762 0 0 1 .11-.31.59.59 0 0 1 .25-.21c.11-.052.262-.078.454-.078.213 0 .38.026.504.078a.637.637 0 0 1 .278.21.688.688 0 0 1 .12.31c.016.12.024.246.024.38v6.357c0 .184-.005.362-.015.533-.011.172-.044.325-.1.46a.695.695 0 0 1-.276.327c-.127.081-.306.122-.535.122h-.827a.954.954 0 0 1-.49-.116 1.17 1.17 0 0 1-.33-.282 1.533 1.533 0 0 1-.21-.348 4.89 4.89 0 0 1-.122-.307l-1.89-5.129h-.15v5.204c0 .134-.009.26-.025.38a.764.764 0 0 1-.11.31.584.584 0 0 1-.25.21 1.08 1.08 0 0 1-.454.078c-.217 0-.388-.026-.513-.078a.636.636 0 0 1-.282-.21.689.689 0 0 1-.12-.31 2.71 2.71 0 0 1-.024-.38V50.06c0-.18.005-.357.016-.53.01-.174.044-.328.103-.464a.715.715 0 0 1 .278-.326c.128-.081.308-.122.542-.122h.826c.209 0 .379.04.51.122.132.082.24.17.323.266.091.113.165.243.22.389l1.99 5.405zM500.31 50.06c0-.18.008-.356.025-.527.016-.171.057-.325.122-.46a.803.803 0 0 1 .285-.33c.125-.083.298-.125.52-.125.237 0 .423.042.556.125a.76.76 0 0 1 .294.33c.063.135.101.289.116.46.015.171.022.347.022.527v5.492h1.227c.171 0 .34.008.507.025.167.017.317.056.448.12a.763.763 0 0 1 .316.275c.079.121.119.286.119.495 0 .213-.04.382-.119.505a.76.76 0 0 1-.316.279c-.131.063-.281.102-.448.12a5.154 5.154 0 0 1-.507.024H501.7c-.22 0-.417-.008-.588-.025a1.175 1.175 0 0 1-.435-.119.628.628 0 0 1-.272-.279c-.063-.123-.095-.292-.095-.505V50.06zM506.307 50.06c0-.18.009-.356.028-.527.019-.171.062-.325.131-.46a.81.81 0 0 1 .31-.33c.138-.083.328-.125.57-.125.242 0 .432.042.57.125a.81.81 0 0 1 .31.33c.068.135.112.289.13.46.02.171.029.347.029.527v5.893c0 .184-.009.362-.025.533-.017.172-.06.325-.129.46a.783.783 0 0 1-.312.327c-.14.081-.331.122-.574.122-.241 0-.431-.04-.569-.122a.79.79 0 0 1-.31-.326 1.335 1.335 0 0 1-.131-.461 4.837 4.837 0 0 1-.028-.533V50.06zM510.3 50.047c0-.18.009-.355.025-.527.017-.17.057-.323.12-.457a.768.768 0 0 1 .281-.323c.125-.081.296-.122.514-.122.22 0 .396.04.525.122.13.081.227.19.291.323.065.134.105.286.122.457.017.172.026.348.026.527v2.257h.713c.138-.36.276-.712.413-1.06l.182-.454.185-.46.175-.437c.056-.14.11-.264.16-.373.05-.117.103-.23.159-.338a1.38 1.38 0 0 1 .197-.288.923.923 0 0 1 .254-.201.687.687 0 0 1 .328-.075c.121 0 .24.018.357.056a.937.937 0 0 1 .313.17.804.804 0 0 1 .307.652c0 .108-.018.237-.053.385a2.743 2.743 0 0 1-.148.442l-1.126 2.67c.217.08.409.21.576.39a1.908 1.908 0 0 1 .394.645c.054.143.098.304.132.486.033.182.05.386.05.611v.89c0 .047.017.084.05.114.033.029.067.062.1.1.084.096.132.18.144.25.012.072.019.13.019.176 0 .15-.028.276-.085.377a.706.706 0 0 1-.225.244.906.906 0 0 1-.326.132 1.89 1.89 0 0 1-.378.037 1.48 1.48 0 0 1-.42-.062 1.241 1.241 0 0 1-.388-.192 1.001 1.001 0 0 1-.285-.323.9.9 0 0 1-.11-.451v-1.292c0-.18-.012-.347-.037-.504a1.105 1.105 0 0 0-.144-.408.732.732 0 0 0-.294-.27 1.066 1.066 0 0 0-.488-.097h-.701v2.107c0 .184-.009.362-.026.533a1.371 1.371 0 0 1-.122.46.769.769 0 0 1-.29.327c-.13.081-.306.122-.526.122-.218 0-.389-.04-.514-.122a.762.762 0 0 1-.282-.326 1.432 1.432 0 0 1-.119-.461 5.561 5.561 0 0 1-.024-.533v-5.906zM520.842 48.618c.167 0 .336.006.508.018.171.013.325.049.463.107a.8.8 0 0 1 .338.267c.088.118.132.285.132.498 0 .213-.044.38-.132.498a.797.797 0 0 1-.338.267 1.446 1.446 0 0 1-.463.106c-.172.013-.34.02-.508.02h-1.49v1.705h.79c.166 0 .335.005.503.015.17.01.32.044.451.1a.765.765 0 0 1 .322.258c.084.114.126.275.126.48 0 .208-.042.37-.126.482a.774.774 0 0 1-.322.254c-.131.056-.281.09-.45.1-.17.01-.338.016-.505.016h-.788v1.806h1.49c.166 0 .335.006.507.018.171.013.325.047.463.104.138.056.25.144.338.263.088.12.132.283.132.492 0 .218-.045.387-.135.508a.818.818 0 0 1-.341.27 1.448 1.448 0 0 1-.464.106 6.838 6.838 0 0 1-.5.02h-2.454c-.234 0-.415-.043-.542-.126a.732.732 0 0 1-.278-.33 1.363 1.363 0 0 1-.104-.46 8.7 8.7 0 0 1-.015-.527V50.06c0-.18.005-.356.015-.527.01-.171.045-.325.104-.46a.734.734 0 0 1 .278-.33c.127-.083.308-.125.542-.125h2.453zM2.418 8.122v5.818h.814c.18-.008.34-.05.482-.125a.871.871 0 0 0 .441-.546c.027-.096.04-.207.04-.332v-3.7c0-.137-.013-.26-.04-.366a1.098 1.098 0 0 0-.11-.279.856.856 0 0 0-.156-.2.981.981 0 0 0-.175-.132 1.137 1.137 0 0 0-.482-.138h-.814zm.864-1.467c.38 0 .734.048 1.061.144.328.096.613.24.858.43.244.19.436.427.576.711.14.285.21.617.21.997v3.887c0 .326-.036.614-.107.862a2.478 2.478 0 0 1-.279.646 2.09 2.09 0 0 1-.39.464c-.147.127-.295.23-.446.31-.358.192-.765.301-1.22.326H1.467c-.238 0-.422-.04-.551-.122a.709.709 0 0 1-.282-.326 1.367 1.367 0 0 1-.103-.46 8.797 8.797 0 0 1-.016-.534V8.084c0-.18.005-.355.016-.526A1.34 1.34 0 0 1 .634 7.1a.714.714 0 0 1 .282-.323c.129-.081.313-.122.55-.122h1.816zM10.794 6.655c.167 0 .336.006.507.018.171.013.326.049.463.107.138.059.251.148.338.267.088.119.132.285.132.498 0 .213-.044.38-.132.499a.799.799 0 0 1-.338.266 1.448 1.448 0 0 1-.463.107c-.171.012-.34.018-.507.018h-1.49v1.706h.789c.167 0 .335.005.504.015.169.011.32.044.45.1a.76.76 0 0 1 .323.258c.083.115.125.275.125.48 0 .208-.042.37-.125.482a.77.77 0 0 1-.322.254c-.132.056-.282.09-.45.1-.17.01-.338.016-.505.016h-.789v1.806h1.49c.167 0 .336.006.507.019.171.012.326.047.463.103.138.056.251.144.338.263.088.12.132.283.132.493 0 .217-.045.386-.134.508a.819.819 0 0 1-.342.27 1.446 1.446 0 0 1-.463.105 6.845 6.845 0 0 1-.5.02H8.34c-.234 0-.414-.043-.541-.126a.734.734 0 0 1-.279-.329 1.371 1.371 0 0 1-.103-.461 8.703 8.703 0 0 1-.016-.527V8.097c0-.18.005-.356.016-.527.01-.171.045-.325.103-.46a.736.736 0 0 1 .279-.33c.127-.083.307-.125.541-.125h2.454zM15.189 8.862a.84.84 0 0 0 .153.473c.098.14.227.273.388.398.16.126.343.248.548.367.204.119.414.244.629.376a7.8 7.8 0 0 1 .63.43 3.3 3.3 0 0 1 .55.526 2.39 2.39 0 0 1 .557 1.505v.05c0 .343-.042.642-.125.897a2.267 2.267 0 0 1-.332.658 1.879 1.879 0 0 1-.482.455c-.183.119-.377.214-.579.285a3.216 3.216 0 0 1-.613.15c-.207.03-.402.046-.586.05h-.062c-.355 0-.666-.035-.933-.106a2.523 2.523 0 0 1-.689-.285 1.928 1.928 0 0 1-.478-.411 2.152 2.152 0 0 1-.304-.48 2.271 2.271 0 0 1-.163-.492 2.262 2.262 0 0 1-.05-.457.91.91 0 0 1 .075-.383.763.763 0 0 1 .479-.42c.106-.033.218-.05.335-.05.109 0 .22.017.335.05.114.033.219.085.313.154a.798.798 0 0 1 .329.636c.008.313.079.528.212.643.134.114.326.172.576.172.125-.004.241-.02.347-.047a.62.62 0 0 0 .273-.144.711.711 0 0 0 .178-.276c.044-.115.066-.26.066-.436 0-.217-.05-.414-.147-.589a2.059 2.059 0 0 0-.385-.49 4.046 4.046 0 0 0-.545-.429 42.309 42.309 0 0 0-.626-.407c-.212-.136-.42-.278-.622-.427a3.804 3.804 0 0 1-.548-.486 2.203 2.203 0 0 1-.392-.583 1.788 1.788 0 0 1-.153-.727v-.1c.004-.447.063-.82.179-1.116.114-.297.283-.533.507-.709.223-.175.497-.3.823-.373.325-.073.699-.11 1.12-.11h.163c.384 0 .71.043.976.126.268.084.49.19.668.32.177.13.316.276.419.439a2.112 2.112 0 0 1 .322.928c.013.137.019.248.019.332a.776.776 0 0 1-.266.602.887.887 0 0 1-.288.166c-.11.04-.23.06-.36.06-.1 0-.2-.02-.3-.06-.1-.04-.19-.09-.27-.154a.82.82 0 0 1-.194-.216.467.467 0 0 1-.075-.248c0-.342-.062-.58-.185-.714s-.303-.2-.541-.2c-.113 0-.222.005-.329.018a.609.609 0 0 0-.282.103.563.563 0 0 0-.193.26 1.35 1.35 0 0 0-.072.496M20.096 8.097c0-.18.01-.356.029-.527a1.33 1.33 0 0 1 .13-.46.813.813 0 0 1 .31-.33c.139-.083.329-.125.57-.125.243 0 .432.042.57.125.138.084.241.194.31.33.069.135.113.289.132.46.018.171.028.347.028.527v5.893c0 .184-.009.362-.025.533-.017.172-.06.325-.129.461a.786.786 0 0 1-.312.326c-.14.082-.331.122-.574.122-.241 0-.431-.04-.57-.122a.792.792 0 0 1-.31-.326 1.327 1.327 0 0 1-.13-.46 4.835 4.835 0 0 1-.029-.534V8.097zM29.925 14.855c0 .055-.006.117-.016.189a.485.485 0 0 1-.081.203.538.538 0 0 1-.192.167.703.703 0 0 1-.338.069.877.877 0 0 1-.375-.066.514.514 0 0 1-.304-.367.968.968 0 0 1-.022-.195v-.376c-.2.297-.455.539-.766.724-.311.187-.694.28-1.149.28a5.49 5.49 0 0 1-.37-.02 3.402 3.402 0 0 1-1.208-.345 2.082 2.082 0 0 1-.604-.454 2.312 2.312 0 0 1-.447-.727c-.117-.29-.176-.645-.176-1.063v-3.51c0-.343.042-.647.126-.91a2.51 2.51 0 0 1 .328-.686c.136-.195.292-.358.467-.49.175-.131.354-.24.538-.329.426-.2.912-.315 1.459-.344.463 0 .86.052 1.189.156.33.105.61.24.839.408.23.167.413.356.55.567a2.94 2.94 0 0 1 .467 1.27c.023.2.034.374.034.52 0 .063-.005.14-.015.23a.515.515 0 0 1-.11.256.707.707 0 0 1-.297.207c-.136.057-.329.085-.58.085-.087 0-.194-.005-.322-.016a1.4 1.4 0 0 1-.365-.078.815.815 0 0 1-.301-.185.447.447 0 0 1-.125-.336c0-.225-.014-.427-.041-.605a1.316 1.316 0 0 0-.147-.454.707.707 0 0 0-.294-.286 1.049 1.049 0 0 0-.482-.097c-.205 0-.362.042-.473.126a.803.803 0 0 0-.241.275c-.058.118-.092.251-.1.402v4.012c0 .134.024.26.072.377a.935.935 0 0 0 .513.514c.119.05.25.075.391.075a.939.939 0 0 0 .454-.11c.136-.073.258-.171.366-.295.109-.123.206-.263.291-.42.086-.156.162-.32.23-.492h-.602a.834.834 0 0 1-.319-.094.646.646 0 0 1-.223-.188.552.552 0 0 1-.097-.345c0-.158.033-.28.097-.366a.634.634 0 0 1 .223-.192.83.83 0 0 1 .319-.081h1.628c.029 0 .076.005.14.015.065.011.132.041.2.091.07.05.13.125.183.223a.889.889 0 0 1 .078.41v2.671zM36.185 12.837h.15V7.633c0-.134.008-.26.025-.38a.762.762 0 0 1 .11-.31.59.59 0 0 1 .25-.21c.11-.052.262-.078.454-.078.213 0 .38.026.504.078a.637.637 0 0 1 .278.21.688.688 0 0 1 .12.31c.016.12.024.246.024.38v6.357c0 .184-.005.362-.015.533-.01.172-.044.325-.1.46a.695.695 0 0 1-.276.327c-.127.082-.306.122-.535.122h-.826a.954.954 0 0 1-.492-.116 1.17 1.17 0 0 1-.329-.282 1.533 1.533 0 0 1-.21-.348 4.89 4.89 0 0 1-.121-.307l-1.89-5.129h-.151v5.204c0 .134-.009.26-.025.38a.764.764 0 0 1-.11.31.584.584 0 0 1-.25.21 1.08 1.08 0 0 1-.454.078c-.217 0-.388-.026-.513-.078a.636.636 0 0 1-.282-.21.689.689 0 0 1-.119-.31 2.71 2.71 0 0 1-.025-.38V8.097c0-.18.005-.357.016-.53.01-.173.044-.328.103-.464a.715.715 0 0 1 .278-.326c.128-.081.308-.122.542-.122h.827c.208 0 .378.04.51.122.131.082.239.17.322.267.092.112.165.242.22.388l1.99 5.405zM43.234 6.655c.166 0 .335.006.507.018.17.013.325.049.463.107.137.059.25.148.338.267.088.119.131.285.131.498 0 .213-.043.38-.131.499a.799.799 0 0 1-.338.266 1.448 1.448 0 0 1-.463.107c-.172.012-.34.018-.507.018h-1.49v1.706h.788c.167 0 .335.005.504.015.17.011.32.044.451.1a.76.76 0 0 1 .322.258c.084.115.126.275.126.48 0 .208-.042.37-.126.482a.77.77 0 0 1-.322.254c-.132.056-.282.09-.45.1-.17.01-.338.016-.505.016h-.788v1.806h1.49c.166 0 .335.006.507.019.17.012.325.047.463.103.137.056.25.144.338.263.088.12.131.283.131.493 0 .217-.044.386-.134.508a.819.819 0 0 1-.342.27 1.446 1.446 0 0 1-.463.105 6.845 6.845 0 0 1-.5.02h-2.455c-.233 0-.414-.043-.54-.126a.734.734 0 0 1-.28-.329 1.371 1.371 0 0 1-.103-.461 8.704 8.704 0 0 1-.015-.527V8.097c0-.18.005-.356.015-.527.01-.171.045-.325.103-.46a.736.736 0 0 1 .28-.33c.126-.083.307-.125.54-.125h2.455zM48.767 10.48c.209-.009.397-.06.564-.151.07-.038.14-.086.206-.145a.964.964 0 0 0 .182-.219c.054-.088.097-.19.128-.307a1.59 1.59 0 0 0 .047-.408c0-.137-.016-.26-.047-.366a1.1 1.1 0 0 0-.122-.28.85.85 0 0 0-.172-.2 1.043 1.043 0 0 0-.197-.132 1.385 1.385 0 0 0-.539-.138h-.901v2.345h.851zm-2.742-2.396c0-.18.006-.355.016-.526a1.34 1.34 0 0 1 .103-.458.72.72 0 0 1 .279-.323c.127-.081.308-.122.541-.122h2.066c.514.025.972.134 1.377.326.171.083.34.187.504.31.165.123.312.276.442.458.129.181.233.396.312.642a2.8 2.8 0 0 1 .1 1.126c-.012.11-.039.232-.08.363a2.858 2.858 0 0 1-.17.411 1.818 1.818 0 0 1-.281.408c-.117.13-.26.248-.43.357-.168.109-.368.196-.597.263.146.06.294.135.444.23.15.093.286.214.408.36.12.146.22.322.297.526.077.205.116.444.116.715v.89c0 .05.012.092.037.126.025.033.05.062.075.087.1.101.159.188.176.26a.852.852 0 0 1 .024.18c0 .146-.029.27-.087.37a.739.739 0 0 1-.228.244.953.953 0 0 1-.32.135c-.119.027-.24.04-.366.04a1.418 1.418 0 0 1-.808-.256 1 1 0 0 1-.284-.314.846.846 0 0 1-.11-.433V13.15c0-.184-.012-.353-.037-.508a1.065 1.065 0 0 0-.145-.4.723.723 0 0 0-.294-.264 1.095 1.095 0 0 0-.488-.094h-.701v2.094c0 .184-.005.363-.016.539-.01.175-.045.331-.103.467a.709.709 0 0 1-.282.326c-.13.081-.313.122-.55.122-.234 0-.415-.04-.542-.122a.715.715 0 0 1-.279-.326 1.382 1.382 0 0 1-.103-.467 9.124 9.124 0 0 1-.016-.54V8.085zM544.14 6.605c.46 0 .855.052 1.187.157.331.104.611.24.838.407a2.2 2.2 0 0 1 .548.567c.138.212.243.426.317.643.072.217.12.426.143.627.023.2.035.374.035.52 0 .063-.006.14-.016.229a.538.538 0 0 1-.11.26.717.717 0 0 1-.297.214c-.135.058-.329.087-.579.087-.084 0-.188-.005-.313-.015a1.348 1.348 0 0 1-.363-.082.854.854 0 0 1-.3-.188.456.456 0 0 1-.126-.342c0-.225-.013-.428-.04-.608a1.335 1.335 0 0 0-.147-.457.726.726 0 0 0-.295-.29 1.021 1.021 0 0 0-.482-.1c-.204 0-.362.044-.472.13a.825.825 0 0 0-.241.278 1.07 1.07 0 0 0-.1.408v3.975a1.4 1.4 0 0 0 .1.482c.05.122.13.232.24.333.111.1.269.15.473.15a.87.87 0 0 0 .482-.122.849.849 0 0 0 .295-.329c.07-.138.12-.297.147-.477.027-.18.04-.367.04-.564 0-.063.01-.127.032-.194a.378.378 0 0 1 .144-.185.954.954 0 0 1 .331-.141c.147-.038.344-.057.595-.057.25 0 .444.028.58.085a.786.786 0 0 1 .297.194.441.441 0 0 1 .11.214c.01.069.015.113.015.134 0 .46-.077.87-.232 1.232a2.563 2.563 0 0 1-.654.919 2.88 2.88 0 0 1-1.008.573 3.999 3.999 0 0 1-1.653.18 3.408 3.408 0 0 1-1.211-.345 2.082 2.082 0 0 1-.604-.455 2.32 2.32 0 0 1-.448-.727c-.117-.29-.175-.645-.175-1.063V9.363c0-.342.042-.645.125-.909.084-.263.193-.492.329-.686.136-.195.29-.358.467-.49.174-.13.354-.24.538-.329.425-.2.912-.315 1.458-.344M550.338 13.125c.008.155.044.29.106.408a.845.845 0 0 0 .247.282c.111.083.268.125.473.125.2 0 .355-.042.463-.125a.858.858 0 0 0 .244-.282c.059-.117.094-.253.107-.408V9.037a1.144 1.144 0 0 0-.107-.407.918.918 0 0 0-.244-.28c-.108-.085-.263-.128-.463-.128-.205 0-.362.043-.473.129a.903.903 0 0 0-.247.279.99.99 0 0 0-.106.407v4.088zm-2.079-3.987c0-.402.059-.743.176-1.026a2.124 2.124 0 0 1 1.048-1.147c.22-.107.432-.187.639-.242.206-.053.393-.087.56-.1.167-.012.29-.018.37-.018h.212c.08 0 .202.006.37.018.167.013.352.047.557.1.204.055.416.135.635.242.22.107.417.254.595.442.177.188.323.423.438.705.115.283.172.624.172 1.026v3.749c0 .414-.057.765-.172 1.053-.115.289-.26.53-.438.721a2.093 2.093 0 0 1-.595.455 3.265 3.265 0 0 1-1.192.348c-.168.012-.29.018-.37.018h-.213c-.079 0-.202-.006-.37-.018a3.24 3.24 0 0 1-1.199-.348 2.172 2.172 0 0 1-.6-.455 2.29 2.29 0 0 1-.447-.72c-.117-.29-.176-.64-.176-1.054v-3.75zM560.404 12.837h.15V7.633c0-.134.008-.26.025-.38a.768.768 0 0 1 .11-.31.587.587 0 0 1 .25-.21c.11-.052.262-.078.454-.078.213 0 .38.026.504.078a.638.638 0 0 1 .278.21.683.683 0 0 1 .12.31c.016.12.025.246.025.38v6.357a8.8 8.8 0 0 1-.016.533c-.011.172-.044.325-.1.46a.696.696 0 0 1-.276.327c-.127.082-.306.122-.535.122h-.827a.954.954 0 0 1-.49-.116 1.176 1.176 0 0 1-.33-.282 1.56 1.56 0 0 1-.21-.348 4.857 4.857 0 0 1-.121-.307l-1.89-5.129h-.151v5.204c0 .134-.009.26-.025.38a.764.764 0 0 1-.11.31.585.585 0 0 1-.25.21c-.11.052-.262.078-.454.078-.217 0-.388-.026-.513-.078a.636.636 0 0 1-.282-.21.689.689 0 0 1-.119-.31 2.768 2.768 0 0 1-.025-.38V8.097c0-.18.006-.357.016-.53.01-.173.045-.328.103-.464a.715.715 0 0 1 .279-.326c.127-.081.308-.122.541-.122h.826c.21 0 .379.04.51.122.132.082.24.17.323.267.092.112.165.242.22.388l1.99 5.405zM565.675 8.862a.84.84 0 0 0 .153.473c.098.14.227.273.388.398.16.126.344.248.548.367.204.119.414.244.629.376a7.8 7.8 0 0 1 .63.43c.204.154.388.33.55.526.163.197.294.418.395.665.1.246.154.526.162.84v.05c0 .343-.042.642-.125.897a2.267 2.267 0 0 1-.332.658 1.884 1.884 0 0 1-.482.455c-.183.119-.376.214-.579.285a3.206 3.206 0 0 1-.613.15c-.207.03-.402.046-.586.05h-.062c-.355 0-.666-.035-.933-.106a2.523 2.523 0 0 1-.688-.285 1.936 1.936 0 0 1-.48-.411 2.176 2.176 0 0 1-.303-.48 2.271 2.271 0 0 1-.163-.492 2.262 2.262 0 0 1-.05-.457c0-.147.025-.274.075-.383a.763.763 0 0 1 .48-.42 1.11 1.11 0 0 1 .334-.05c.108 0 .22.017.335.05a1 1 0 0 1 .313.154.798.798 0 0 1 .328.636c.009.313.08.528.214.643.133.114.325.172.575.172.126-.004.241-.02.348-.047a.621.621 0 0 0 .45-.42c.044-.115.066-.26.066-.436 0-.217-.049-.414-.147-.589a2.059 2.059 0 0 0-.385-.49 4.024 4.024 0 0 0-.545-.429 42.362 42.362 0 0 0-.626-.407c-.212-.136-.42-.278-.622-.427a3.804 3.804 0 0 1-.548-.486 2.203 2.203 0 0 1-.391-.583 1.794 1.794 0 0 1-.154-.727v-.1c.005-.447.064-.82.179-1.116.115-.297.283-.533.507-.709.223-.175.497-.3.823-.373.325-.073.699-.11 1.12-.11h.163c.384 0 .71.043.977.126.267.084.489.19.666.32.178.13.318.276.42.439a2.112 2.112 0 0 1 .323.928c.012.137.018.248.018.332a.793.793 0 0 1-.266.602.881.881 0 0 1-.288.166c-.11.04-.23.06-.36.06-.1 0-.2-.02-.3-.06-.1-.04-.19-.09-.27-.154a.816.816 0 0 1-.193-.216.466.466 0 0 1-.075-.248c0-.342-.062-.58-.185-.714-.124-.134-.304-.2-.542-.2-.112 0-.222.005-.329.018a.61.61 0 0 0-.281.103.568.568 0 0 0-.194.26 1.35 1.35 0 0 0-.072.496M570.42 8.084c0-.18.009-.355.028-.526.019-.172.063-.324.131-.458a.795.795 0 0 1 .31-.323c.138-.081.328-.122.57-.122.242 0 .433.04.573.122.14.082.244.19.313.323.069.134.112.286.128.458.017.171.025.347.025.526v4.94c.013.185.05.348.113.49a.875.875 0 0 0 .247.338.655.655 0 0 0 .2.11c.077.027.166.041.267.041.1 0 .19-.014.268-.04a.65.65 0 0 0 .204-.11.812.812 0 0 0 .247-.34c.063-.141.099-.304.107-.488v-4.94c0-.18.008-.356.025-.527.016-.172.06-.324.128-.458a.794.794 0 0 1 .31-.323c.138-.081.33-.122.576-.122.242 0 .432.04.57.122.137.082.24.19.31.323.068.134.112.286.131.458.019.171.028.347.028.526v4.778c0 .435-.07.815-.21 1.141-.14.326-.337.599-.594.818-.257.22-.563.385-.92.495-.357.111-.75.166-1.18.166-.434 0-.829-.057-1.183-.172a2.62 2.62 0 0 1-.918-.505 2.227 2.227 0 0 1-.594-.821c-.14-.326-.21-.7-.21-1.122V8.084zM582.001 13.401a.648.648 0 0 1-.31-.069.789.789 0 0 1-.222-.175 1.117 1.117 0 0 1-.16-.239 2.234 2.234 0 0 1-.11-.257l-1.189-3.436h-.163v5.23c0 .133-.008.258-.024.375a.791.791 0 0 1-.11.31.574.574 0 0 1-.25.214c-.111.052-.262.078-.454.078-.217 0-.388-.026-.514-.078a.621.621 0 0 1-.281-.213.707.707 0 0 1-.119-.31 2.642 2.642 0 0 1-.025-.377v-6.37c0-.18.005-.355.015-.526a1.34 1.34 0 0 1 .104-.458.718.718 0 0 1 .278-.323c.127-.081.308-.122.542-.122h.851c.142 0 .262.005.36.015a.56.56 0 0 1 .272.107c.084.06.166.158.248.292.08.133.17.322.269.567.098.245.212.556.341.934l.476 1.395.163.502h.15l.2-.627c.171-.527.317-.972.438-1.336.121-.363.228-.663.32-.9.091-.236.174-.417.247-.545a.901.901 0 0 1 .232-.282.536.536 0 0 1 .266-.107c.095-.01.213-.015.35-.015h.914c.234 0 .414.04.541.122a.72.72 0 0 1 .279.323c.058.134.093.286.103.458.01.171.016.346.016.526v6.37c0 .134-.008.26-.025.376a.707.707 0 0 1-.119.31.625.625 0 0 1-.282.214 1.363 1.363 0 0 1-.513.078c-.192 0-.344-.026-.454-.078a.576.576 0 0 1-.25-.213.786.786 0 0 1-.11-.31 2.697 2.697 0 0 1-.025-.377V9.225h-.175l-1.177 3.436c-.034.084-.07.17-.113.257a1.03 1.03 0 0 1-.156.239.813.813 0 0 1-.22.175.614.614 0 0 1-.3.069h-.125zM591.34 6.655c.168 0 .337.006.508.018.171.013.325.049.463.107a.8.8 0 0 1 .338.267c.088.119.132.285.132.498 0 .213-.044.38-.132.499a.797.797 0 0 1-.338.266 1.446 1.446 0 0 1-.463.107c-.171.012-.34.018-.507.018h-1.49v1.706h.789c.167 0 .335.005.504.015.169.011.319.044.45.1a.765.765 0 0 1 .323.258c.083.115.125.275.125.48 0 .208-.042.37-.125.482a.774.774 0 0 1-.322.254c-.132.056-.282.09-.451.1-.17.01-.337.016-.504.016h-.789v1.806h1.49c.167 0 .336.006.507.019.171.012.325.047.463.103.138.056.25.144.338.263.088.12.132.283.132.493 0 .217-.045.386-.135.508a.818.818 0 0 1-.341.27 1.448 1.448 0 0 1-.463.105 6.838 6.838 0 0 1-.501.02h-2.454c-.234 0-.414-.043-.541-.126a.732.732 0 0 1-.279-.329 1.363 1.363 0 0 1-.103-.461 8.7 8.7 0 0 1-.016-.527V8.097c0-.18.005-.356.016-.527.01-.171.045-.325.103-.46a.734.734 0 0 1 .279-.33c.127-.083.307-.125.541-.125h2.454zM596.875 10.48c.208-.009.396-.06.563-.151.071-.038.14-.086.207-.145a.964.964 0 0 0 .181-.219c.054-.088.097-.19.129-.307.031-.117.047-.253.047-.408 0-.137-.016-.26-.047-.366a1.087 1.087 0 0 0-.123-.28.867.867 0 0 0-.172-.2 1.032 1.032 0 0 0-.197-.132 1.387 1.387 0 0 0-.538-.138h-.902v2.345h.852zm-2.742-2.396c0-.18.005-.355.016-.526a1.34 1.34 0 0 1 .103-.458.72.72 0 0 1 .278-.323c.127-.081.308-.122.542-.122h2.065c.514.025.973.134 1.378.326.171.083.339.187.504.31.164.123.312.276.441.458.13.181.234.396.313.642a2.812 2.812 0 0 1 .1 1.126c-.012.11-.04.232-.081.363a2.858 2.858 0 0 1-.17.411c-.07.142-.164.278-.28.408-.117.13-.26.248-.43.357-.168.109-.368.196-.597.263.146.06.294.135.444.23.15.093.286.214.407.36.12.146.22.322.297.526.077.205.116.444.116.715v.89c0 .05.013.092.038.126.025.033.05.062.075.087.1.101.158.188.175.26a.852.852 0 0 1 .025.18c0 .146-.03.27-.088.37a.732.732 0 0 1-.228.244.948.948 0 0 1-.32.135c-.119.027-.24.04-.366.04a1.416 1.416 0 0 1-.807-.256 1 1 0 0 1-.285-.314.842.842 0 0 1-.11-.433V13.15a3.22 3.22 0 0 0-.037-.508 1.065 1.065 0 0 0-.144-.4.721.721 0 0 0-.294-.264 1.095 1.095 0 0 0-.488-.094h-.702v2.094c0 .184-.005.363-.015.539-.01.175-.045.331-.104.467a.709.709 0 0 1-.281.326c-.13.081-.313.122-.551.122-.234 0-.415-.04-.542-.122a.715.715 0 0 1-.278-.326 1.382 1.382 0 0 1-.103-.467 8.83 8.83 0 0 1-.016-.54V8.085zM67.824 93.85h51.53v4.44h-51.53v3.482a.303.303 0 0 1-.44.27l-11.445-5.77a.303.303 0 0 1 .004-.543l11.446-5.54a.303.303 0 0 1 .435.273v3.387zM524.717 93.625h-51.53v4.44h51.53v3.483c0 .225.238.372.44.27l11.445-5.77a.303.303 0 0 0-.004-.544l-11.446-5.54a.303.303 0 0 0-.435.274v3.387zM60.234 107.918c.46 0 .855.052 1.187.157.331.105.61.24.838.407.228.168.41.357.548.568.138.21.243.425.316.642.073.218.121.427.144.627.023.201.035.374.035.521 0 .063-.006.139-.016.228a.534.534 0 0 1-.11.261.716.716 0 0 1-.297.213c-.136.059-.329.088-.579.088-.084 0-.188-.006-.313-.016a1.336 1.336 0 0 1-.363-.081.85.85 0 0 1-.3-.189.455.455 0 0 1-.126-.341c0-.226-.013-.429-.04-.608a1.337 1.337 0 0 0-.147-.458.727.727 0 0 0-.295-.288 1.02 1.02 0 0 0-.482-.1c-.204 0-.362.042-.472.128a.828.828 0 0 0-.241.279 1.064 1.064 0 0 0-.1.407v3.975c.008.184.041.345.1.483.05.121.13.232.24.332.111.1.269.15.473.15.196 0 .357-.04.482-.122a.851.851 0 0 0 .295-.329c.07-.138.12-.297.147-.476.027-.18.04-.368.04-.564a.64.64 0 0 1 .032-.195.379.379 0 0 1 .144-.185.95.95 0 0 1 .331-.14c.147-.039.345-.057.595-.057s.443.028.58.084a.781.781 0 0 1 .296.195c.063.073.1.144.11.213.01.069.016.114.016.135 0 .46-.078.87-.232 1.232a2.548 2.548 0 0 1-.654.918c-.282.251-.618.442-1.008.574-.39.132-.82.197-1.286.197-.075 0-.198-.006-.367-.018a3.406 3.406 0 0 1-1.211-.345 2.077 2.077 0 0 1-.604-.455 2.314 2.314 0 0 1-.448-.727c-.116-.29-.175-.645-.175-1.063v-3.498c0-.343.042-.646.125-.91a2.53 2.53 0 0 1 .329-.686c.135-.194.29-.357.466-.489a3.17 3.17 0 0 1 .539-.329c.425-.2.911-.316 1.458-.345M66.169 112.959h1.99l-.926-3.36h-.138l-.926 3.36zm3.931.614c.009.285.019.575.032.872.012.297.018.583.018.859v.188a6.6 6.6 0 0 1-.016.46c-.01.15-.042.283-.096.402a.642.642 0 0 1-.257.285c-.117.071-.282.107-.495.107-.217 0-.384-.036-.5-.107a.662.662 0 0 1-.26-.282 1.084 1.084 0 0 1-.1-.4 6.748 6.748 0 0 1-.016-.465v-.878h-2.504v.878c0 .159-.005.313-.016.464-.01.15-.043.284-.1.401a.663.663 0 0 1-.26.282c-.116.071-.283.107-.5.107-.217 0-.385-.036-.501-.107a.638.638 0 0 1-.257-.285 1.11 1.11 0 0 1-.094-.401 7.978 7.978 0 0 1-.012-.461v-.188a28.258 28.258 0 0 1 .012-.86l.013-.447.012-.424c.209-.727.428-1.464.658-2.21.229-.746.448-1.485.657-2.216a3.78 3.78 0 0 1 .15-.448c.058-.145.136-.27.232-.376.096-.107.219-.193.369-.258.15-.064.342-.096.576-.096h.626c.23 0 .42.032.573.096.152.065.276.15.372.258.096.106.172.231.229.376.056.144.107.293.153.448l1.302 4.426zM73.105 110.175a.84.84 0 0 0 .153.473c.098.14.227.273.388.399.161.125.343.247.548.366.204.12.414.245.63.377.214.131.424.275.629.429.204.155.387.33.55.527.163.196.294.418.395.664.1.247.154.527.162.84v.05c0 .343-.042.642-.125.897a2.258 2.258 0 0 1-.332.658 1.874 1.874 0 0 1-.482.455c-.183.12-.376.214-.579.285a3.19 3.19 0 0 1-.613.15 4.98 4.98 0 0 1-.585.05h-.063a3.63 3.63 0 0 1-.933-.106 2.535 2.535 0 0 1-.688-.285 1.928 1.928 0 0 1-.48-.41 2.152 2.152 0 0 1-.303-.48 2.275 2.275 0 0 1-.213-.95.91.91 0 0 1 .075-.383.76.76 0 0 1 .48-.42c.106-.033.217-.05.334-.05.109 0 .22.017.335.05.115.034.22.085.313.154a.797.797 0 0 1 .329.636c.008.314.08.528.212.643.134.115.326.172.576.172.126-.004.242-.02.348-.047a.62.62 0 0 0 .272-.144.711.711 0 0 0 .179-.276c.043-.115.065-.26.065-.435 0-.218-.049-.414-.147-.59a2.059 2.059 0 0 0-.385-.489 4.018 4.018 0 0 0-.544-.43 39.592 39.592 0 0 0-.626-.407c-.213-.136-.42-.278-.623-.426a3.804 3.804 0 0 1-.548-.486 2.21 2.21 0 0 1-.391-.583 1.787 1.787 0 0 1-.154-.727v-.1c.004-.448.064-.82.179-1.117.115-.296.284-.533.507-.708.223-.176.497-.3.823-.373.325-.073.699-.11 1.12-.11h.163c.384 0 .71.042.977.126.267.083.49.19.667.32.177.129.317.275.42.438a2.105 2.105 0 0 1 .321.928c.013.138.019.249.019.333a.781.781 0 0 1-.266.602.88.88 0 0 1-.288.165c-.11.04-.23.06-.36.06-.1 0-.2-.02-.3-.06-.1-.04-.19-.09-.27-.153a.824.824 0 0 1-.193-.216.469.469 0 0 1-.076-.248c0-.343-.061-.581-.184-.715-.124-.134-.304-.2-.542-.2-.112 0-.222.006-.328.018a.609.609 0 0 0-.282.104.563.563 0 0 0-.194.26 1.35 1.35 0 0 0-.072.495M77.875 109.41c0-.18.008-.355.025-.526.017-.172.057-.325.122-.461a.805.805 0 0 1 .285-.33c.125-.083.298-.125.52-.125.216 0 .389.042.516.126a.797.797 0 0 1 .288.329c.065.136.105.29.122.46.017.172.025.347.025.527v1.969h1.715v-1.969c0-.18.008-.355.025-.526.017-.172.058-.325.123-.461a.805.805 0 0 1 .284-.33c.125-.083.299-.125.52-.125.217 0 .389.042.516.126a.8.8 0 0 1 .288.329c.065.136.106.29.122.46.017.172.025.347.025.527v5.894c0 .184-.008.361-.025.533a1.371 1.371 0 0 1-.122.46.778.778 0 0 1-.288.327c-.127.081-.3.122-.516.122-.221 0-.395-.041-.52-.122a.783.783 0 0 1-.284-.326 1.363 1.363 0 0 1-.123-.461 5.445 5.445 0 0 1-.025-.533v-2.082h-1.715v2.082c0 .184-.008.361-.025.533a1.371 1.371 0 0 1-.122.46.776.776 0 0 1-.288.327c-.127.081-.3.122-.516.122-.222 0-.395-.041-.52-.122a.783.783 0 0 1-.285-.326 1.363 1.363 0 0 1-.122-.461 5.445 5.445 0 0 1-.025-.533v-5.894zM92.9 111.793c.208-.013.396-.063.563-.15a1.003 1.003 0 0 0 .516-.665 1.56 1.56 0 0 0 .047-.401c0-.143-.016-.267-.047-.374a1.055 1.055 0 0 0-.122-.276.934.934 0 0 0-.169-.197 1.203 1.203 0 0 0-.194-.138 1.45 1.45 0 0 0-.533-.144h-.913v2.345h.851zm-.852 1.492v2.031c0 .18-.006.356-.016.527-.01.172-.046.324-.106.458a.732.732 0 0 1-.285.322c-.13.082-.315.123-.557.123-.234 0-.415-.04-.542-.123a.718.718 0 0 1-.278-.322 1.337 1.337 0 0 1-.104-.458 8.703 8.703 0 0 1-.015-.527v-5.918c0-.18.005-.355.015-.527a1.34 1.34 0 0 1 .104-.458.72.72 0 0 1 .278-.322c.127-.082.308-.122.542-.122h2.065c.518.024.981.133 1.39.326.176.083.345.187.51.313a2.165 2.165 0 0 1 .76 1.106c.08.249.12.537.12.863 0 .446-.07.838-.21 1.175-.14.337-.342.619-.607.846a2.63 2.63 0 0 1-.97.515 4.486 4.486 0 0 1-1.293.172h-.801zM99.66 111.793c.208-.009.396-.059.563-.15.071-.038.14-.086.207-.145a.966.966 0 0 0 .181-.22c.055-.087.098-.19.129-.307.03-.116.047-.252.047-.407 0-.138-.016-.26-.047-.367a1.094 1.094 0 0 0-.123-.279.843.843 0 0 0-.172-.2 1.007 1.007 0 0 0-.197-.132 1.38 1.38 0 0 0-.538-.138h-.901v2.345h.85zm-2.742-2.395c0-.18.005-.355.016-.527a1.34 1.34 0 0 1 .103-.458.72.72 0 0 1 .278-.322c.128-.082.308-.122.542-.122h2.066a3.58 3.58 0 0 1 1.377.326c.17.083.339.186.504.31.165.123.312.276.441.457.13.182.234.396.313.643a2.798 2.798 0 0 1 .1 1.125c-.012.111-.04.233-.081.364a2.896 2.896 0 0 1-.17.411 1.816 1.816 0 0 1-.28.407c-.118.13-.26.25-.43.358-.169.108-.368.196-.597.263.146.059.294.135.444.229.15.094.286.214.407.36.121.147.22.322.297.527.077.205.116.443.116.714v.891c0 .05.013.092.038.125.025.034.05.063.075.088.1.1.158.187.175.26a.852.852 0 0 1 .025.179c0 .146-.029.27-.087.37a.737.737 0 0 1-.229.244.953.953 0 0 1-.32.135c-.118.027-.24.041-.365.041a1.418 1.418 0 0 1-.808-.257 1.01 1.01 0 0 1-.285-.313.847.847 0 0 1-.11-.433v-1.33c0-.183-.012-.352-.037-.507a1.068 1.068 0 0 0-.144-.401.72.72 0 0 0-.294-.264 1.09 1.09 0 0 0-.488-.094h-.701v2.094c0 .184-.006.364-.016.54-.01.175-.045.33-.103.466a.709.709 0 0 1-.282.326c-.13.082-.313.123-.551.123-.234 0-.414-.04-.542-.123a.715.715 0 0 1-.278-.326 1.382 1.382 0 0 1-.103-.467 9.115 9.115 0 0 1-.016-.539v-5.893zM104.23 109.41c0-.18.009-.355.028-.526.019-.172.062-.325.131-.461a.813.813 0 0 1 .31-.33c.138-.083.328-.125.57-.125.242 0 .432.042.57.126.137.083.24.193.31.329.068.136.112.29.13.46.02.172.03.347.03.527v5.894c0 .184-.01.361-.026.533-.017.171-.06.325-.128.46a.786.786 0 0 1-.313.327c-.14.081-.331.122-.573.122-.242 0-.432-.041-.57-.122a.792.792 0 0 1-.31-.326 1.327 1.327 0 0 1-.131-.461 4.833 4.833 0 0 1-.028-.533v-5.894zM111.103 109.862l-.1-.1H109.2c-.167 0-.334-.009-.5-.026a1.581 1.581 0 0 1-.454-.11.796.796 0 0 1-.332-.25c-.086-.11-.129-.262-.129-.455 0-.217.043-.39.129-.517a.819.819 0 0 1 .332-.288c.135-.065.286-.106.453-.123.167-.016.334-.024.501-.024h3.293c.158 0 .3.028.422.084a.944.944 0 0 1 .501.53.923.923 0 0 1 .047.52.577.577 0 0 1-.056.157l-3.218 5.605.088.088h1.803c.163 0 .327.008.494.025a1.5 1.5 0 0 1 .457.116c.138.06.25.15.335.266.086.117.128.278.128.483 0 .209-.042.373-.128.492a.803.803 0 0 1-.335.27c-.137.06-.29.1-.457.115a4.913 4.913 0 0 1-.494.026h-3.293c-.159 0-.3-.026-.422-.079a1.004 1.004 0 0 1-.314-.203.876.876 0 0 1-.266-.62c0-.076.005-.142.016-.199a.54.54 0 0 1 .072-.178l3.23-5.605zM118.14 107.968c.166 0 .335.007.507.02.17.012.325.047.463.106.137.058.25.147.338.266.088.12.131.285.131.498 0 .214-.043.38-.131.499a.799.799 0 0 1-.338.266 1.449 1.449 0 0 1-.463.107c-.172.013-.34.019-.507.019h-1.49v1.705h.788c.167 0 .335.005.504.016.17.01.32.044.451.1.132.056.239.143.322.257.084.115.126.275.126.48 0 .209-.042.37-.126.483a.772.772 0 0 1-.322.254 1.34 1.34 0 0 1-.45.1 8.21 8.21 0 0 1-.505.016h-.788v1.805h1.49c.166 0 .335.007.507.019.17.012.325.047.463.104.137.056.25.144.338.263.088.119.131.283.131.492 0 .217-.044.387-.134.508a.819.819 0 0 1-.342.27 1.437 1.437 0 0 1-.463.106 6.65 6.65 0 0 1-.5.019h-2.455c-.233 0-.414-.042-.54-.126a.734.734 0 0 1-.28-.329 1.367 1.367 0 0 1-.103-.46 8.69 8.69 0 0 1-.015-.527v-5.894c0-.18.005-.355.015-.526a1.37 1.37 0 0 1 .103-.461.734.734 0 0 1 .28-.33c.126-.083.307-.125.54-.125h2.455zM475.795 109.41c0-.18.009-.355.025-.526.017-.172.058-.325.123-.461a.804.804 0 0 1 .285-.33c.125-.083.298-.125.519-.125.238 0 .424.042.557.126a.76.76 0 0 1 .294.329c.063.136.101.29.116.46.015.172.022.347.022.527v5.493h1.227c.171 0 .34.008.507.024.167.017.316.057.448.12a.768.768 0 0 1 .316.276c.079.121.119.286.119.495 0 .213-.04.381-.119.505a.758.758 0 0 1-.316.279c-.132.062-.281.102-.448.118a5.045 5.045 0 0 1-.507.026h-1.778a6.06 6.06 0 0 1-.588-.026 1.175 1.175 0 0 1-.435-.118.626.626 0 0 1-.272-.28c-.063-.123-.095-.291-.095-.504v-6.408zM483.47 114.438c.008.155.044.291.107.408a.849.849 0 0 0 .247.282c.11.084.268.126.472.126.2 0 .355-.042.464-.126a.862.862 0 0 0 .244-.282c.058-.117.094-.253.106-.408v-4.087a1.14 1.14 0 0 0-.106-.408.915.915 0 0 0-.244-.279c-.109-.085-.263-.128-.464-.128-.204 0-.362.043-.472.128a.9.9 0 0 0-.247.28.986.986 0 0 0-.107.407v4.087zm-2.078-3.987c0-.401.058-.743.175-1.025.117-.282.266-.517.448-.705.181-.188.381-.336.6-.442.22-.107.432-.188.64-.242a3.17 3.17 0 0 1 .56-.1c.166-.013.29-.019.369-.019h.213c.079 0 .202.006.369.019.167.013.353.046.557.1.205.054.416.135.635.242.22.106.418.254.595.442.178.188.324.423.438.705.115.282.173.624.173 1.025v3.75c0 .413-.058.764-.173 1.053-.114.288-.26.528-.438.72a2.094 2.094 0 0 1-.595.455 3.286 3.286 0 0 1-1.192.348c-.167.013-.29.019-.37.019h-.212c-.08 0-.203-.006-.37-.019a3.261 3.261 0 0 1-1.199-.348 2.174 2.174 0 0 1-.6-.455 2.29 2.29 0 0 1-.448-.72c-.117-.289-.175-.64-.175-1.054v-3.749zM493.073 108.006c.117 0 .227.021.329.063a.95.95 0 0 1 .275.172 1.139 1.139 0 0 1 .335.593l1.077 5.003h.213l.538-2.499c.183-.85.367-1.685.551-2.504.037-.16.094-.304.17-.433.066-.109.159-.208.277-.298a.755.755 0 0 1 .467-.134.859.859 0 0 1 .66.279.83.83 0 0 1 .216.548c0 .05-.002.098-.006.144a.782.782 0 0 1-.019.12c-.008.041-.017.079-.025.112l-1.715 6.822a1.327 1.327 0 0 1-.591.636c-.14.077-.315.116-.523.116h-.213c-.21 0-.38-.039-.514-.116a1.104 1.104 0 0 1-.525-.636l-.877-3.675h-.212c-.134.594-.277 1.206-.43 1.838-.152.63-.297 1.243-.435 1.837a1.294 1.294 0 0 1-.219.376 1.283 1.283 0 0 1-.322.26.997.997 0 0 1-.51.116h-.213c-.209 0-.385-.039-.53-.116a1.405 1.405 0 0 1-.353-.26 1.234 1.234 0 0 1-.257-.376l-1.69-6.822a2.37 2.37 0 0 1-.044-.232 1.696 1.696 0 0 1-.006-.144.822.822 0 0 1 .216-.549.86.86 0 0 1 .66-.278c.192 0 .348.045.467.134.119.09.212.19.278.298.076.13.132.274.17.433l1.089 5.003h.213c.08-.385.165-.79.257-1.214a916.62 916.62 0 0 1 .56-2.57l.272-1.22a1.18 1.18 0 0 1 .338-.592.848.848 0 0 1 .601-.235M506.87 111.793c.209-.013.396-.063.563-.15a.992.992 0 0 0 .388-.36c.055-.087.098-.188.13-.306a1.56 1.56 0 0 0 .046-.4c0-.143-.016-.267-.047-.374a1.043 1.043 0 0 0-.122-.276.925.925 0 0 0-.17-.197 1.2 1.2 0 0 0-.193-.138 1.449 1.449 0 0 0-.532-.144h-.914v2.345h.851zm-.851 1.492v2.031c0 .18-.006.356-.016.527-.01.172-.046.324-.106.458a.732.732 0 0 1-.285.322c-.13.082-.315.123-.557.123-.234 0-.414-.04-.542-.123a.718.718 0 0 1-.279-.322 1.345 1.345 0 0 1-.103-.458 8.706 8.706 0 0 1-.015-.527v-5.918c0-.18.005-.355.015-.527a1.35 1.35 0 0 1 .103-.458.72.72 0 0 1 .28-.322c.127-.082.307-.122.54-.122h2.066c.518.024.981.133 1.39.326.175.083.346.187.51.313a2.174 2.174 0 0 1 .761 1.106c.08.249.119.537.119.863 0 .446-.07.838-.21 1.175-.14.337-.342.619-.607.846a2.63 2.63 0 0 1-.97.515 4.486 4.486 0 0 1-1.293.172h-.801zM513.631 111.793c.209-.009.396-.059.563-.15.071-.038.14-.086.207-.145a.966.966 0 0 0 .182-.22c.054-.087.097-.19.128-.307.031-.116.047-.252.047-.407 0-.138-.016-.26-.047-.367a1.081 1.081 0 0 0-.122-.279.86.86 0 0 0-.172-.2.997.997 0 0 0-.198-.132 1.38 1.38 0 0 0-.538-.138h-.901v2.345h.851zm-2.742-2.395c0-.18.005-.355.016-.527a1.34 1.34 0 0 1 .103-.458.72.72 0 0 1 .279-.322c.127-.082.307-.122.541-.122h2.066a3.58 3.58 0 0 1 1.377.326c.171.083.339.186.504.31.165.123.312.276.441.457.13.182.234.396.314.643a2.81 2.81 0 0 1 .1 1.125c-.013.111-.04.233-.082.364a2.896 2.896 0 0 1-.169.411c-.07.142-.165.278-.281.407a2.1 2.1 0 0 1-.429.358c-.17.108-.369.196-.598.263.146.059.294.135.444.229.15.094.286.214.407.36.121.147.22.322.297.527.078.205.116.443.116.714v.891c0 .05.013.092.038.125.025.034.05.063.075.088.1.1.159.187.175.26a.852.852 0 0 1 .025.179c0 .146-.029.27-.087.37a.731.731 0 0 1-.229.244.948.948 0 0 1-.319.135c-.12.027-.24.041-.366.041a1.416 1.416 0 0 1-.808-.257 1.01 1.01 0 0 1-.285-.313.843.843 0 0 1-.11-.433v-1.33c0-.183-.012-.352-.037-.507a1.068 1.068 0 0 0-.144-.401.718.718 0 0 0-.294-.264 1.09 1.09 0 0 0-.488-.094h-.701v2.094c0 .184-.006.364-.016.54-.01.175-.045.33-.103.466a.709.709 0 0 1-.282.326c-.13.082-.313.123-.55.123-.235 0-.415-.04-.542-.123a.715.715 0 0 1-.279-.326 1.382 1.382 0 0 1-.103-.467 8.822 8.822 0 0 1-.016-.539v-5.893zM518.2 109.41c0-.18.01-.355.029-.526a1.34 1.34 0 0 1 .131-.461.81.81 0 0 1 .31-.33c.138-.083.328-.125.57-.125.242 0 .432.042.57.126a.81.81 0 0 1 .31.329c.068.136.112.29.131.46.018.172.028.347.028.527v5.894c0 .184-.009.361-.025.533-.017.171-.06.325-.128.46a.783.783 0 0 1-.313.327c-.14.081-.331.122-.573.122-.242 0-.432-.041-.57-.122a.79.79 0 0 1-.31-.326 1.335 1.335 0 0 1-.131-.461 4.835 4.835 0 0 1-.028-.533v-5.894zM524.799 107.918c.459 0 .854.052 1.186.157.332.105.612.24.839.407.227.168.41.357.548.568.137.21.243.425.316.642.073.218.12.427.144.627.022.201.034.374.034.521 0 .063-.005.139-.015.228a.54.54 0 0 1-.11.261.72.72 0 0 1-.297.213c-.136.059-.33.088-.58.088-.083 0-.187-.006-.312-.016a1.335 1.335 0 0 1-.364-.081.85.85 0 0 1-.3-.189.455.455 0 0 1-.125-.341c0-.226-.014-.429-.04-.608a1.337 1.337 0 0 0-.148-.458.725.725 0 0 0-.294-.288 1.021 1.021 0 0 0-.482-.1c-.205 0-.363.042-.473.128a.826.826 0 0 0-.24.279 1.07 1.07 0 0 0-.101.407v3.975c.008.184.042.345.1.483.05.121.13.232.241.332.11.1.268.15.473.15a.87.87 0 0 0 .482-.122.849.849 0 0 0 .294-.329c.07-.138.12-.297.147-.476.027-.18.04-.368.04-.564a.65.65 0 0 1 .032-.195.379.379 0 0 1 .144-.185.948.948 0 0 1 .332-.14c.146-.039.344-.057.595-.057.25 0 .443.028.579.084a.786.786 0 0 1 .297.195.44.44 0 0 1 .11.213c.01.069.015.114.015.135 0 .46-.077.87-.231 1.232a2.56 2.56 0 0 1-.654.918 2.88 2.88 0 0 1-1.009.574c-.39.132-.819.197-1.286.197-.075 0-.197-.006-.366-.018a3.406 3.406 0 0 1-1.211-.345 2.077 2.077 0 0 1-.604-.455 2.315 2.315 0 0 1-.448-.727c-.117-.29-.175-.645-.175-1.063v-3.498c0-.343.042-.646.125-.91a2.53 2.53 0 0 1 .328-.686 2.13 2.13 0 0 1 .467-.489c.175-.132.354-.241.538-.329a3.88 3.88 0 0 1 1.459-.345M532.536 107.968c.167 0 .336.007.507.02.172.012.326.047.463.106.138.058.25.147.338.266.088.12.132.285.132.498 0 .214-.044.38-.132.499a.797.797 0 0 1-.338.266 1.446 1.446 0 0 1-.463.107 6.93 6.93 0 0 1-.507.019h-1.49v1.705h.789c.167 0 .335.005.504.016.17.01.32.044.45.1a.765.765 0 0 1 .323.257c.084.115.125.275.125.48 0 .209-.041.37-.125.483a.777.777 0 0 1-.322.254 1.34 1.34 0 0 1-.451.1 8.19 8.19 0 0 1-.504.016h-.789v1.805h1.49c.167 0 .336.007.507.019.172.012.326.047.463.104.138.056.25.144.338.263.088.119.132.283.132.492 0 .217-.045.387-.135.508a.818.818 0 0 1-.34.27 1.439 1.439 0 0 1-.464.106 6.643 6.643 0 0 1-.501.019h-2.454c-.233 0-.414-.042-.541-.126a.732.732 0 0 1-.279-.329 1.359 1.359 0 0 1-.103-.46 8.687 8.687 0 0 1-.016-.527v-5.894c0-.18.006-.355.016-.526a1.36 1.36 0 0 1 .103-.461.732.732 0 0 1 .279-.33c.127-.083.308-.125.541-.125h2.454z"/>
        </g>
        <g fill="#466DFF">
            <path d="M153.655 11.476a4.156 4.156 0 0 1-4.152 4.16 4.155 4.155 0 0 1-4.152-4.16 4.155 4.155 0 0 1 4.152-4.158 4.155 4.155 0 0 1 4.152 4.158M164.834 11.583a4.156 4.156 0 0 1-4.152 4.159 4.155 4.155 0 0 1-4.152-4.159 4.155 4.155 0 0 1 4.152-4.159 4.156 4.156 0 0 1 4.152 4.16M175.694 11.37a4.156 4.156 0 0 1-4.152 4.159 4.155 4.155 0 0 1-4.152-4.16 4.155 4.155 0 0 1 4.152-4.158 4.156 4.156 0 0 1 4.152 4.159"/>
            <path d="M454.579 118.822v11.82a4.322 4.322 0 0 1-4.314 4.32H140.088a4.322 4.322 0 0 1-4.314-4.32V22.343h318.805V118.822zM135.774 9a4.323 4.323 0 0 1 4.314-4.321h310.177A4.322 4.322 0 0 1 454.579 9v9.023H135.774V9zM450.264.359H140.089c-4.757 0-8.628 3.877-8.628 8.642V130.642c0 4.765 3.87 8.642 8.628 8.642h310.177c4.757 0 8.628-3.877 8.628-8.642V9.001c0-4.765-3.87-8.642-8.628-8.642z"/>
            <path d="M276.99 9.312a.84.84 0 0 0 .153.473c.098.14.227.272.388.398.16.125.343.248.548.367.204.119.414.244.629.376a7.8 7.8 0 0 1 .63.43 3.3 3.3 0 0 1 .55.526c.163.196.294.418.395.665.1.246.154.526.162.84v.05c0 .343-.042.642-.125.897a2.267 2.267 0 0 1-.332.658 1.879 1.879 0 0 1-.482.454c-.183.12-.377.215-.579.286a3.216 3.216 0 0 1-.613.15c-.207.03-.402.046-.586.05h-.062c-.355 0-.666-.035-.933-.107a2.523 2.523 0 0 1-.688-.285 1.928 1.928 0 0 1-.48-.41 2.152 2.152 0 0 1-.303-.48 2.271 2.271 0 0 1-.163-.492 2.262 2.262 0 0 1-.05-.458.91.91 0 0 1 .075-.382.763.763 0 0 1 .479-.42c.106-.034.218-.05.335-.05.109 0 .22.016.335.05.115.033.22.084.313.153a.798.798 0 0 1 .329.636c.008.314.079.528.212.643.134.115.326.173.576.173.125-.004.242-.02.348-.047a.62.62 0 0 0 .272-.144.711.711 0 0 0 .179-.276c.043-.115.065-.26.065-.436 0-.217-.049-.414-.147-.59a2.059 2.059 0 0 0-.385-.489 4.046 4.046 0 0 0-.545-.429 42.31 42.31 0 0 0-.625-.408c-.213-.135-.42-.278-.623-.426a3.804 3.804 0 0 1-.548-.486 2.203 2.203 0 0 1-.391-.583 1.788 1.788 0 0 1-.154-.727v-.1c.004-.448.064-.82.179-1.116.114-.297.284-.533.507-.709.223-.175.497-.3.823-.373.325-.073.699-.11 1.12-.11h.163c.384 0 .71.042.977.126.267.084.49.19.667.32.177.129.317.275.42.438a2.112 2.112 0 0 1 .321.928c.013.138.019.25.019.333a.776.776 0 0 1-.266.602.887.887 0 0 1-.288.166c-.11.04-.23.06-.36.06-.1 0-.2-.02-.3-.06-.1-.04-.19-.091-.27-.154a.82.82 0 0 1-.194-.216.467.467 0 0 1-.075-.248c0-.343-.061-.581-.184-.715-.124-.133-.304-.2-.542-.2-.112 0-.222.006-.329.018a.609.609 0 0 0-.281.104.563.563 0 0 0-.194.26 1.35 1.35 0 0 0-.072.496M281.76 8.547c0-.18.008-.356.025-.527.016-.171.057-.325.122-.461a.805.805 0 0 1 .285-.33c.125-.082.298-.124.52-.124.216 0 .389.042.516.125a.797.797 0 0 1 .288.329c.065.136.105.29.122.461.016.171.025.347.025.527v1.968h1.715V8.547c0-.18.008-.356.025-.527.017-.171.058-.325.122-.461a.805.805 0 0 1 .285-.33c.125-.082.299-.124.52-.124.217 0 .389.042.516.125a.8.8 0 0 1 .288.329c.065.136.105.29.122.461.017.171.025.347.025.527v5.893c0 .184-.008.362-.025.533a1.371 1.371 0 0 1-.122.46.778.778 0 0 1-.288.327c-.127.081-.3.122-.516.122-.221 0-.395-.04-.52-.122a.783.783 0 0 1-.285-.326 1.363 1.363 0 0 1-.122-.461 5.447 5.447 0 0 1-.025-.533v-2.081h-1.715v2.08c0 .185-.009.363-.025.534a1.371 1.371 0 0 1-.122.46.776.776 0 0 1-.288.327c-.127.081-.3.122-.517.122-.22 0-.394-.04-.52-.122a.783.783 0 0 1-.284-.326 1.363 1.363 0 0 1-.122-.461 5.447 5.447 0 0 1-.025-.533V8.547zM290.612 12.095h1.99l-.926-3.36h-.138l-.926 3.36zm3.93.615c.01.284.02.574.032.871.013.297.019.583.019.859v.188c0 .16-.005.313-.016.461a1.16 1.16 0 0 1-.097.401.64.64 0 0 1-.256.285c-.117.072-.282.107-.495.107-.217 0-.384-.035-.5-.107a.66.66 0 0 1-.26-.282 1.082 1.082 0 0 1-.1-.4 6.732 6.732 0 0 1-.017-.465v-.878h-2.503v.878c0 .16-.006.314-.016.464-.01.15-.044.285-.1.401a.661.661 0 0 1-.26.282c-.117.072-.284.107-.5.107-.218 0-.385-.035-.502-.107a.635.635 0 0 1-.256-.285 1.112 1.112 0 0 1-.094-.401 7.969 7.969 0 0 1-.013-.46v-.189a28.253 28.253 0 0 1 .013-.859l.012-.448.013-.423c.209-.728.428-1.464.657-2.21.23-.746.449-1.485.658-2.217.041-.154.091-.304.15-.448.058-.144.135-.27.231-.376.096-.107.22-.192.37-.257a1.47 1.47 0 0 1 .576-.097h.626c.23 0 .42.032.572.097.153.065.277.15.373.257.096.106.172.232.229.376.056.144.107.294.153.448l1.302 4.427zM298.7 10.929c.208-.013.396-.062.563-.15a1 1 0 0 0 .516-.665c.032-.117.047-.25.047-.401 0-.142-.015-.267-.047-.373a1.057 1.057 0 0 0-.122-.276.934.934 0 0 0-.169-.198 1.203 1.203 0 0 0-.194-.138 1.458 1.458 0 0 0-.532-.144h-.914v2.345h.851zm-.852 1.492v2.032c0 .18-.005.355-.016.526-.01.172-.045.324-.106.458a.732.732 0 0 1-.285.323c-.13.081-.315.122-.557.122-.234 0-.414-.04-.541-.122a.718.718 0 0 1-.279-.323 1.34 1.34 0 0 1-.103-.458 8.7 8.7 0 0 1-.016-.526v-5.92c0-.179.005-.354.016-.526a1.34 1.34 0 0 1 .103-.457.72.72 0 0 1 .279-.323c.127-.082.307-.123.541-.123h2.066c.517.026.98.134 1.39.326.175.084.345.189.51.314a2.17 2.17 0 0 1 .76 1.107c.08.248.12.536.12.862 0 .447-.07.84-.21 1.175-.14.337-.343.619-.608.847a2.636 2.636 0 0 1-.97.514 4.486 4.486 0 0 1-1.293.172h-.8zM302.944 8.547c0-.18.008-.356.025-.527.017-.171.057-.325.122-.461a.803.803 0 0 1 .285-.33c.125-.082.298-.124.52-.124.237 0 .423.042.557.125a.76.76 0 0 1 .294.329c.062.136.1.29.116.461.014.171.022.347.022.527v5.492h1.226c.171 0 .34.008.508.025.166.017.316.056.447.12a.763.763 0 0 1 .316.275c.08.121.12.286.12.495 0 .213-.04.381-.12.505a.76.76 0 0 1-.316.279c-.131.063-.28.102-.447.12a5.154 5.154 0 0 1-.508.024h-1.777c-.221 0-.418-.008-.589-.025a1.175 1.175 0 0 1-.435-.12.628.628 0 0 1-.272-.278c-.063-.124-.094-.292-.094-.505V8.547zM225.543 87.085h11.553v2.448l4.985-6.858-5.076-6.984.033 2.64h-11.495v8.754zm10.484 5.735v-4.665h-11.552V77.261h11.482l-.064-4.917 7.51 10.33-7.376 10.146zM224.1 42.732a8.6 8.6 0 0 1 .524.017c.176.01.332.045.47.104a.79.79 0 0 1 .335.268c.087.12.13.286.13.5 0 .217-.043.384-.13.502a.802.802 0 0 1-.336.265 1.4 1.4 0 0 1-.47.104 8.32 8.32 0 0 1-.524.016h-.821v1.88h1.551c.174 0 .35.007.528.02.178.014.34.05.483.108a.81.81 0 0 1 .352.275c.091.123.137.294.137.512 0 .226-.047.403-.14.529a.846.846 0 0 1-.356.281 1.52 1.52 0 0 1-.482.111 7.21 7.21 0 0 1-.522.02h-2.556c-.243 0-.43-.044-.564-.13a.764.764 0 0 1-.29-.344 1.422 1.422 0 0 1-.107-.48 9.116 9.116 0 0 1-.017-.549v-6.138c0-.187.006-.37.017-.548.01-.179.046-.338.107-.48a.764.764 0 0 1 .29-.343c.133-.087.32-.13.564-.13h2.556c.174 0 .35.006.528.019.178.013.34.05.483.111.143.061.26.153.352.278.091.124.137.297.137.519 0 .222-.046.395-.137.52a.833.833 0 0 1-.352.276 1.514 1.514 0 0 1-.483.111c-.178.013-.354.02-.528.02h-1.551v1.776h.821zm-4.314 5.133a.734.734 0 0 1-.235.255.952.952 0 0 1-.339.137c-.128.026-.26.039-.394.039-.144 0-.29-.022-.437-.066a1.297 1.297 0 0 1-.405-.199 1.05 1.05 0 0 1-.296-.336.938.938 0 0 1-.114-.47V45.88c0-.187-.013-.363-.04-.526a1.143 1.143 0 0 0-.15-.424.766.766 0 0 0-.306-.281c-.13-.068-.3-.102-.508-.102h-.73v2.194c0 .192-.01.377-.026.555-.018.18-.06.34-.128.48a.802.802 0 0 1-.303.34c-.135.085-.317.127-.548.127-.226 0-.404-.042-.534-.127a.794.794 0 0 1-.294-.34 1.473 1.473 0 0 1-.123-.48 5.66 5.66 0 0 1-.026-.555v-6.15c0-.188.008-.37.026-.55.017-.178.058-.337.123-.476a.797.797 0 0 1 .294-.336c.13-.085.308-.128.534-.128.23 0 .413.043.548.128a.806.806 0 0 1 .303.336c.068.14.11.298.128.477.017.178.026.361.026.548v2.351h.743c.143-.374.287-.742.43-1.104l.19-.473c.064-.163.128-.323.192-.48l.182-.454c.059-.145.114-.275.167-.388.052-.122.107-.24.166-.353.058-.113.127-.213.205-.3a.965.965 0 0 1 .264-.21.718.718 0 0 1 .342-.078c.127 0 .25.02.372.06.122.038.23.097.326.176a.84.84 0 0 1 .32.68c0 .112-.019.246-.056.4a2.843 2.843 0 0 1-.153.46l-1.173 2.782c.225.083.425.218.6.405a1.977 1.977 0 0 1 .41.673c.057.148.102.317.137.506.035.19.052.401.052.637v.927a.15.15 0 0 0 .052.118c.035.03.07.065.104.104.087.1.137.187.15.261.014.074.02.135.02.183a.79.79 0 0 1-.088.392zm-7.932-1.124c0 .192-.009.377-.026.555a1.34 1.34 0 0 1-.133.48.819.819 0 0 1-.326.34c-.146.085-.345.127-.597.127s-.45-.042-.593-.127a.82.82 0 0 1-.323-.34 1.386 1.386 0 0 1-.137-.48 5.047 5.047 0 0 1-.03-.555v-6.138a5 5 0 0 1 .03-.548c.02-.179.065-.338.137-.48a.842.842 0 0 1 .323-.343c.143-.087.34-.13.593-.13.252 0 .45.043.593.13a.844.844 0 0 1 .323.343c.072.142.118.301.137.48a5 5 0 0 1 .03.548v6.138zm-3.788 1.062a.79.79 0 0 1-.329.29 1.395 1.395 0 0 1-.466.124c-.174.018-.35.026-.528.026h-1.852c-.23 0-.435-.008-.613-.026a1.215 1.215 0 0 1-.453-.124.655.655 0 0 1-.284-.29c-.065-.129-.097-.304-.097-.526v-6.674c0-.187.008-.37.026-.548a1.42 1.42 0 0 1 .127-.48.839.839 0 0 1 .296-.343c.13-.087.311-.13.542-.13.248 0 .44.043.58.13a.79.79 0 0 1 .306.343c.066.142.106.301.121.48s.023.361.023.548v5.72h1.278c.178 0 .354.01.528.027.174.017.33.059.466.124a.797.797 0 0 1 .33.287c.082.127.123.298.123.516 0 .222-.041.397-.124.526zm17.588-13.253h-23.76c-3.161 0-5.748 2.59-5.748 5.758V54.556l5.748-2.064h23.76c3.162 0 5.749-2.591 5.749-5.758v-6.426c0-3.167-2.587-5.758-5.75-5.758zM314.823 40.327l-.965 3.5h2.073l-.965-3.5z"/>
            <path d="M329.65 42.26c.173 0 .348.006.524.016.176.011.333.046.47.105.137.058.248.148.335.268.087.12.13.286.13.499 0 .218-.043.385-.13.503a.804.804 0 0 1-.336.264 1.403 1.403 0 0 1-.469.105 8.61 8.61 0 0 1-.525.016h-.821v1.88h1.551c.174 0 .35.008.529.02.178.013.338.05.482.108a.81.81 0 0 1 .352.274c.092.124.137.295.137.513 0 .226-.046.402-.14.529a.845.845 0 0 1-.355.28 1.517 1.517 0 0 1-.483.112c-.178.013-.352.02-.522.02h-2.555c-.243 0-.432-.044-.564-.131a.765.765 0 0 1-.29-.343 1.435 1.435 0 0 1-.108-.48 8.829 8.829 0 0 1-.016-.549v-6.138c0-.187.005-.37.016-.548.011-.179.047-.339.107-.48a.768.768 0 0 1 .29-.343c.133-.087.322-.13.565-.13h2.555c.174 0 .35.006.529.019.178.013.338.05.482.11.144.062.26.154.352.278.092.125.137.298.137.52 0 .222-.045.395-.137.519a.832.832 0 0 1-.352.277 1.51 1.51 0 0 1-.482.111c-.178.013-.355.02-.529.02h-1.551v1.776h.821zm-4.314 5.132a.735.735 0 0 1-.234.255.95.95 0 0 1-.34.137c-.128.026-.26.04-.394.04a1.54 1.54 0 0 1-.437-.066 1.289 1.289 0 0 1-.404-.199 1.043 1.043 0 0 1-.297-.336.941.941 0 0 1-.114-.47v-1.346c0-.187-.013-.362-.039-.525a1.143 1.143 0 0 0-.15-.424.768.768 0 0 0-.306-.282c-.13-.067-.3-.1-.509-.1h-.73v2.193c0 .192-.009.377-.026.555-.017.179-.06.34-.127.48a.807.807 0 0 1-.304.34c-.134.085-.317.127-.547.127-.226 0-.404-.042-.534-.127a.796.796 0 0 1-.294-.34 1.477 1.477 0 0 1-.124-.48 5.773 5.773 0 0 1-.026-.555v-6.15c0-.188.009-.37.026-.55.017-.178.059-.337.124-.476a.8.8 0 0 1 .294-.336c.13-.085.308-.128.534-.128.23 0 .413.043.547.128a.811.811 0 0 1 .304.336c.067.14.11.298.127.476.017.18.026.362.026.55v2.35h.743c.144-.374.287-.742.43-1.104l.19-.473.192-.48.183-.454c.058-.146.114-.275.166-.389a5.92 5.92 0 0 1 .166-.352c.059-.113.127-.213.205-.3a.966.966 0 0 1 .265-.21.716.716 0 0 1 .342-.078c.126 0 .25.02.371.06.122.038.23.097.327.175a.84.84 0 0 1 .32.68c-.001.113-.02.247-.057.401a2.816 2.816 0 0 1-.153.46l-1.173 2.782c.226.083.426.218.6.405.073.078.146.173.218.284.071.111.136.24.192.389.057.148.102.316.137.506.035.19.052.401.052.636v.928a.15.15 0 0 0 .052.117c.035.03.07.066.105.105.086.1.137.187.15.26.013.075.02.136.02.184a.79.79 0 0 1-.089.391zm-7.331-.927c0 .166-.006.326-.017.48-.01.155-.044.294-.1.418a.665.665 0 0 1-.268.297c-.122.074-.294.111-.515.111-.226 0-.4-.037-.522-.11a.687.687 0 0 1-.27-.294 1.134 1.134 0 0 1-.105-.419 7.054 7.054 0 0 1-.016-.483v-.914h-2.608v.914c0 .166-.006.327-.016.483a1.141 1.141 0 0 1-.105.419.687.687 0 0 1-.27.293c-.122.074-.296.111-.522.111-.226 0-.4-.037-.521-.11a.662.662 0 0 1-.268-.298 1.157 1.157 0 0 1-.098-.418 8.634 8.634 0 0 1-.012-.48v-.196a30.66 30.66 0 0 1 .012-.894c.005-.157.01-.313.013-.467.005-.155.01-.302.013-.441.218-.757.446-1.525.685-2.302.24-.777.467-1.546.685-2.308.043-.161.095-.317.156-.467.061-.15.142-.28.241-.392.1-.111.229-.2.385-.268.157-.067.357-.1.6-.1h.652c.24 0 .438.033.597.1.158.068.287.157.388.268.1.111.179.242.237.392.06.15.112.306.16.467l1.357 4.61c.008.296.019.599.032.908.013.31.02.607.02.894v.196zm-7.785.288c0 .14-.009.27-.026.391a.647.647 0 0 1-.417.545c-.131.055-.31.082-.536.082-.2 0-.357-.027-.472-.081a.598.598 0 0 1-.26-.222.816.816 0 0 1-.115-.324 2.748 2.748 0 0 1-.026-.391v-5.447h-.182l-1.226 3.579a4.89 4.89 0 0 1-.117.268 1.076 1.076 0 0 1-.164.248.835.835 0 0 1-.228.183.638.638 0 0 1-.313.071h-.13a.67.67 0 0 1-.323-.071.818.818 0 0 1-.231-.183 1.15 1.15 0 0 1-.167-.248 2.203 2.203 0 0 1-.114-.268l-1.238-3.579h-.17v5.447c0 .14-.009.27-.026.391a.816.816 0 0 1-.114.324.6.6 0 0 1-.26.222 1.124 1.124 0 0 1-.474.081 1.42 1.42 0 0 1-.534-.081.643.643 0 0 1-.418-.546 2.748 2.748 0 0 1-.026-.391v-6.635c0-.187.006-.37.017-.549.01-.178.046-.337.107-.476a.748.748 0 0 1 .29-.336c.133-.085.32-.128.564-.128h.887c.148 0 .273.006.375.016a.584.584 0 0 1 .283.112c.087.063.173.164.258.303.085.14.178.336.28.591.102.255.22.58.356.973l.495 1.453.17.522h.156l.209-.653c.178-.548.33-1.011.456-1.39.126-.38.237-.692.333-.937a4.37 4.37 0 0 1 .257-.569.948.948 0 0 1 .242-.293.561.561 0 0 1 .277-.112c.1-.01.221-.016.365-.016h.951c.244 0 .432.043.565.128a.754.754 0 0 1 .29.336c.06.14.096.298.107.476.01.18.017.362.017.55v6.634zm18.387-12.676h-23.76c-3.162 0-5.749 2.591-5.749 5.758v14.248l5.75-2.063h23.759c3.161 0 5.749-2.591 5.749-5.758v-6.427c0-3.167-2.588-5.758-5.75-5.758zM434.816 48.14a.787.787 0 0 1-.33.29 1.401 1.401 0 0 1-.466.124c-.173.018-.35.026-.528.026h-1.851c-.23 0-.435-.008-.613-.026a1.225 1.225 0 0 1-.453-.124.656.656 0 0 1-.284-.29c-.065-.129-.098-.304-.098-.526V40.94c0-.187.01-.37.027-.548.017-.179.06-.339.127-.48a.84.84 0 0 1 .296-.343c.13-.087.311-.13.541-.13.248 0 .442.043.58.13.14.087.242.202.307.343.065.141.106.301.12.48.016.178.024.361.024.548v5.72h1.277c.179 0 .355.01.528.027.175.017.33.058.467.124a.792.792 0 0 1 .33.287c.081.127.123.298.123.516 0 .222-.042.397-.124.526zm-6.311 0a.796.796 0 0 1-.33.29 1.406 1.406 0 0 1-.466.124c-.174.018-.35.026-.528.026h-1.852c-.23 0-.434-.008-.613-.026a1.223 1.223 0 0 1-.453-.124.656.656 0 0 1-.283-.29c-.065-.129-.098-.304-.098-.526V40.94c0-.187.009-.37.026-.548.017-.179.06-.339.127-.48a.84.84 0 0 1 .297-.343c.13-.087.31-.13.541-.13.248 0 .44.043.58.13.14.087.242.202.306.343.066.141.106.301.121.48.015.178.023.361.023.548v5.72h1.278c.178 0 .354.01.528.027.174.017.33.058.467.124a.801.801 0 0 1 .329.287c.082.127.124.298.124.516 0 .222-.042.397-.124.526zm-8.496-5.07c.174 0 .349.005.525.015.176.011.333.046.47.105a.797.797 0 0 1 .335.268c.087.12.13.286.13.5 0 .217-.043.384-.13.502a.806.806 0 0 1-.335.264 1.397 1.397 0 0 1-.47.105c-.176.011-.35.016-.525.016h-.822v1.881h1.552c.174 0 .35.006.528.02.178.012.34.048.483.107a.81.81 0 0 1 .352.274c.091.125.137.295.137.513 0 .226-.047.403-.14.53a.846.846 0 0 1-.356.28 1.5 1.5 0 0 1-.482.11 7.23 7.23 0 0 1-.522.02h-2.556c-.243 0-.43-.043-.564-.13a.764.764 0 0 1-.29-.343 1.422 1.422 0 0 1-.107-.48 9.121 9.121 0 0 1-.017-.548V40.94c0-.187.006-.37.017-.548.01-.179.046-.339.107-.48a.764.764 0 0 1 .29-.343c.133-.087.321-.13.564-.13h2.556c.174 0 .35.006.528.019.178.013.34.05.483.111.143.06.26.153.352.277.091.124.137.297.137.52 0 .222-.046.395-.137.519a.832.832 0 0 1-.352.277 1.5 1.5 0 0 1-.483.111c-.178.013-.354.02-.528.02h-1.552v1.776h.822zm-4.134 2.964c0 .357-.043.668-.13.934a2.364 2.364 0 0 1-.345.685c-.144.192-.312.35-.503.473a2.812 2.812 0 0 1-.603.298c-.21.074-.423.126-.639.156-.215.03-.418.048-.61.053h-.064c-.37 0-.694-.037-.972-.111a2.637 2.637 0 0 1-.717-.298 1.997 1.997 0 0 1-.499-.427 2.226 2.226 0 0 1-.316-.5 2.386 2.386 0 0 1-.222-.99c0-.151.026-.284.078-.397a.792.792 0 0 1 .5-.438 1.16 1.16 0 0 1 .697 0c.12.035.228.088.326.16a.822.822 0 0 1 .342.663c.009.327.083.55.222.67s.339.179.6.179c.13-.004.25-.021.361-.05a.645.645 0 0 0 .284-.15.741.741 0 0 0 .186-.287c.046-.12.068-.27.068-.454 0-.226-.05-.43-.153-.614a2.149 2.149 0 0 0-.4-.509 4.163 4.163 0 0 0-.568-.447c-.213-.142-.43-.283-.652-.424-.222-.142-.438-.29-.649-.445a3.957 3.957 0 0 1-.57-.506 2.294 2.294 0 0 1-.408-.607 1.854 1.854 0 0 1-.16-.757v-.105c.005-.466.067-.853.186-1.162.12-.31.296-.555.528-.738a2.11 2.11 0 0 1 .858-.388 5.36 5.36 0 0 1 1.167-.115h.17c.4 0 .738.044 1.017.13.278.088.51.199.694.334.185.135.33.287.437.457a2.183 2.183 0 0 1 .336.966c.013.144.019.26.019.346a.826.826 0 0 1-.277.627.93.93 0 0 1-.3.173c-.115.042-.24.062-.375.062a.845.845 0 0 1-.313-.062 1.094 1.094 0 0 1-.28-.16.858.858 0 0 1-.202-.225.49.49 0 0 1-.079-.258c0-.357-.064-.605-.192-.744-.128-.14-.316-.21-.564-.21-.117 0-.231.007-.342.02a.632.632 0 0 0-.293.108.59.59 0 0 0-.203.271c-.05.122-.075.294-.075.516a.876.876 0 0 0 .16.493c.102.146.237.284.404.414.167.131.358.259.57.382.214.125.432.255.656.392.224.138.443.287.655.448.213.16.404.344.574.548.17.205.307.436.411.692.104.257.16.55.17.875v.053zm18.512-11.147h-23.759c-3.162 0-5.749 2.59-5.749 5.758v14.247l5.75-2.063h23.758c3.162 0 5.75-2.591 5.75-5.758v-6.426c0-3.167-2.588-5.758-5.75-5.758zM364.561 68.702a5.695 5.695 0 0 0-.914 3.089v27.117a5.698 5.698 0 0 0 3.129 5.127l22.752 11.394a5.681 5.681 0 0 0 2.56.602V82.5L364.56 68.7zM393.423 82.501v33.53a5.682 5.682 0 0 0 2.531-.602l22.753-11.394a5.698 5.698 0 0 0 3.157-5.099V71.791a5.694 5.694 0 0 0-.905-3.075l-27.536 13.785zM420.291 67.85a5.683 5.683 0 0 0-2.252-2.025l-22.753-11.393a5.68 5.68 0 0 0-5.062 0l-22.752 11.393a5.682 5.682 0 0 0-2.244 2.01l27.527 13.799 27.536-13.785zM290.629 114.567a5.3 5.3 0 0 1-1.92.539V82.28l26.951-13.492c.422.773.644 1.637.645 2.52v4.083l-22.09 11.059v26.321l-3.586 1.796zm-8.743-2.018V86.283l-21.618-10.837v-4.138c.001-.888.225-1.757.653-2.535l26.943 13.506v32.829a5.28 5.28 0 0 1-1.948-.54l-4.03-2.02zm-18.694-45.961l22.751-11.394a5.286 5.286 0 0 1 4.686 0l22.753 11.394a5.264 5.264 0 0 1 1.811 1.486L289.47 80.952l-1.184.593-9.415-4.72-17.481-8.763a5.264 5.264 0 0 1 1.802-1.474zm58.558 6.077l-4.6 2.303v-3.66a6.115 6.115 0 0 0-.972-3.304 6.114 6.114 0 0 0-2.419-2.173l-22.753-11.395a6.135 6.135 0 0 0-5.44 0L262.815 65.83a6.116 6.116 0 0 0-2.41 2.16 6.11 6.11 0 0 0-.982 3.318v3.714l-5.064-2.538a5.697 5.697 0 0 0-.914 3.089v27.117a5.698 5.698 0 0 0 3.129 5.127l22.752 11.393a5.68 5.68 0 0 0 2.56.602v-6.316l3.651 1.828c.845.424 1.79.647 2.736.647H288.287a6.14 6.14 0 0 0 2.72-.647l3.207-1.606v6.262a5.685 5.685 0 0 0 2.531-.602l22.753-11.394a5.698 5.698 0 0 0 3.157-5.099V75.74a5.696 5.696 0 0 0-.905-3.075zM334.818 87.27h11.553v2.447l4.986-6.858-5.077-6.983.035 2.64h-11.497v8.753zm10.485 5.735v-4.666H333.75V77.445h11.482l-.064-4.917 7.51 10.33-7.375 10.147zM203.78 74.598a.493.493 0 1 0 .001.987.493.493 0 0 0-.002-.987M206.488 74.598a.493.493 0 1 0 .003.987.493.493 0 0 0-.003-.987M209.199 74.598a.494.494 0 1 0 0 .987.494.494 0 0 0 0-.987M211.908 75.585a.493.493 0 1 0-.002-.986.493.493 0 0 0 .002.986M202.344 75.793a.492.492 0 0 0-.493.493.492.492 0 1 0 .985 0 .492.492 0 0 0-.492-.493M205.053 75.793a.492.492 0 0 0-.493.493.492.492 0 1 0 .985 0 .492.492 0 0 0-.492-.493M207.762 75.793a.492.492 0 1 0 0 .984.492.492 0 0 0 0-.984M210.47 75.793a.493.493 0 1 0 .003.986.493.493 0 0 0-.002-.986M191.507 80.571a.493.493 0 1 0 0 .987.493.493 0 0 0 0-.987M194.216 80.571a.492.492 0 0 0-.492.493.492.492 0 1 0 .984 0 .493.493 0 0 0-.492-.493M196.925 80.571a.492.492 0 1 0 0 .984.492.492 0 0 0 0-.984M199.634 80.571a.492.492 0 1 0 0 .984.492.492 0 0 0 0-.984M202.344 80.571a.492.492 0 0 0-.493.493.492.492 0 1 0 .985 0 .492.492 0 0 0-.492-.493M205.053 80.571a.492.492 0 0 0-.493.493.492.492 0 1 0 .985 0 .492.492 0 0 0-.492-.493M207.762 80.571a.492.492 0 1 0 0 .984.492.492 0 0 0 0-.984M210.47 80.571a.493.493 0 1 0 .003.986.493.493 0 0 0-.002-.986M192.943 81.766a.493.493 0 1 0 0 .985.493.493 0 0 0 0-.985M195.652 81.766a.493.493 0 1 0 .001.985.493.493 0 0 0-.001-.985M198.361 81.766a.493.493 0 1 0 .001.985.493.493 0 0 0-.001-.985M201.07 81.766a.493.493 0 1 0 .001.985.493.493 0 0 0 0-.985M203.78 81.766a.493.493 0 1 0 0 .985.493.493 0 0 0 0-.985M206.488 81.766a.493.493 0 1 0 .002.985.493.493 0 0 0-.002-.985M209.199 81.766a.493.493 0 1 0-.001.986.493.493 0 0 0 .001-.986M211.908 82.752a.493.493 0 1 0-.001-.985.493.493 0 0 0 .001.985M187.525 88.934a.493.493 0 1 0 0 .985.493.493 0 0 0 0-.985M190.234 88.934a.493.493 0 1 0 0 .985.493.493 0 0 0 0-.985M192.943 88.934a.493.493 0 1 0 0 .985.493.493 0 0 0 0-.985M195.652 88.934a.493.493 0 1 0 .001.985.493.493 0 0 0-.001-.985M198.361 88.934a.493.493 0 1 0 .001.985.493.493 0 0 0-.001-.985M201.07 88.934a.493.493 0 1 0 .001.985.493.493 0 0 0 0-.985M203.78 88.934a.493.493 0 1 0 0 .985.493.493 0 0 0 0-.985M206.488 88.934a.493.493 0 1 0 .002.985.493.493 0 0 0-.002-.985M209.199 88.934a.493.493 0 1 0-.001.986.493.493 0 0 0 .001-.986M211.908 89.92a.493.493 0 1 0-.002-.986.493.493 0 0 0 .002.986M187.525 96.1a.493.493 0 1 0 .002.987.493.493 0 0 0-.002-.986M190.234 96.1a.493.493 0 1 0 .002.987.493.493 0 0 0-.002-.986M192.943 96.1a.493.493 0 1 0 .002.987.493.493 0 0 0-.002-.986M195.652 96.1a.493.493 0 1 0 .002.987.493.493 0 0 0-.002-.986M198.361 96.1a.493.493 0 1 0 .002.987.493.493 0 0 0-.002-.986M201.07 96.1a.493.493 0 1 0 .003.987.493.493 0 0 0-.003-.986M203.78 96.1a.493.493 0 1 0 .002.987.493.493 0 0 0-.003-.986M206.488 96.1a.494.494 0 1 0 .003.988.494.494 0 0 0-.003-.987M209.199 96.1a.494.494 0 1 0 0 .988.494.494 0 0 0 0-.987M211.908 97.087a.493.493 0 1 0-.001-.985.493.493 0 0 0 .001.985M187.525 108.047a.493.493 0 1 0 0 .985.493.493 0 0 0 0-.985M190.234 108.047a.493.493 0 1 0 0 .985.493.493 0 0 0 0-.985M192.943 108.047a.493.493 0 1 0 0 .985.493.493 0 0 0 0-.985M195.652 108.047a.493.493 0 1 0 .001.985.493.493 0 0 0-.001-.985M198.361 108.047a.493.493 0 1 0 .001.985.493.493 0 0 0-.001-.985M211.908 70.807a.493.493 0 1 0-.002-.986.493.493 0 0 0 .002.986M210.47 71.015a.493.493 0 1 0 .003.986.493.493 0 0 0-.002-.986M206.488 72.21a.493.493 0 1 0 .002.985.493.493 0 0 0-.002-.986M209.199 72.21a.493.493 0 1 0-.001.985.493.493 0 0 0 .001-.986M211.908 73.196a.493.493 0 1 0 0-.985.493.493 0 0 0 0 .985M205.053 73.404a.492.492 0 0 0-.493.494.492.492 0 1 0 .493-.494M207.762 73.404a.492.492 0 1 0 .492.494.492.492 0 0 0-.492-.494M210.47 73.404a.493.493 0 1 0 .002.986.493.493 0 0 0-.001-.986M199.634 75.793a.492.492 0 1 0 0 .984.492.492 0 0 0 0-.984M198.361 76.987a.493.493 0 1 0 .001.986.493.493 0 0 0-.001-.986M201.07 76.987a.493.493 0 1 0 .001.986.493.493 0 0 0 0-.986M203.78 76.987a.493.493 0 1 0 0 .986.493.493 0 0 0 0-.986M206.488 76.987a.493.493 0 1 0 .002.986.493.493 0 0 0-.002-.986M209.199 76.987a.493.493 0 1 0-.001.986.493.493 0 0 0 .001-.986M211.908 77.974a.493.493 0 1 0-.001-.985.493.493 0 0 0 .001.985M196.925 78.182a.492.492 0 1 0 .492.494.493.493 0 0 0-.492-.494M199.634 78.182a.492.492 0 1 0 .492.494.492.492 0 0 0-.492-.494M202.344 78.182a.492.492 0 0 0-.493.494.492.492 0 1 0 .985 0 .492.492 0 0 0-.492-.494M205.053 78.182a.492.492 0 0 0-.493.494.492.492 0 1 0 .985 0 .492.492 0 0 0-.492-.494M207.762 78.182a.492.492 0 1 0 .492.494.492.492 0 0 0-.492-.494M210.47 78.182a.493.493 0 1 0 .002.986.493.493 0 0 0-.001-.986M192.943 79.376a.493.493 0 1 0 .002.987.493.493 0 0 0-.002-.987M195.652 79.376a.493.493 0 1 0 .002.987.493.493 0 0 0-.002-.987M198.361 79.376a.493.493 0 1 0 .002.987.493.493 0 0 0-.002-.987M201.07 79.376a.493.493 0 1 0 .002.987.493.493 0 0 0-.002-.987M203.78 79.376a.493.493 0 1 0 .001.987.493.493 0 0 0-.002-.987M206.488 79.376a.493.493 0 1 0 .003.987.493.493 0 0 0-.003-.987M209.199 79.376a.494.494 0 1 0 0 .987.494.494 0 0 0 0-.987M211.908 80.364a.493.493 0 1 0-.002-.987.493.493 0 0 0 .002.987M187.525 81.766a.493.493 0 1 0 0 .985.493.493 0 0 0 0-.985M190.234 81.766a.493.493 0 1 0 0 .985.493.493 0 0 0 0-.985M191.507 82.96a.493.493 0 1 0-.002.986.493.493 0 0 0 .002-.986M194.216 82.96a.492.492 0 1 0 .492.493.493.493 0 0 0-.492-.493M196.925 82.96a.493.493 0 1 0 .492.493.493.493 0 0 0-.492-.493M199.634 82.96a.493.493 0 1 0 .492.493.492.492 0 0 0-.492-.493M202.344 82.96a.492.492 0 1 0 .492.493.492.492 0 0 0-.492-.493M205.053 82.96a.492.492 0 1 0 .492.493.492.492 0 0 0-.492-.493M207.762 82.96a.493.493 0 1 0 .492.493.492.492 0 0 0-.492-.493M210.47 82.96a.493.493 0 1 0 .002.986.493.493 0 0 0-.001-.986M187.525 84.155a.493.493 0 1 0 .002.986.493.493 0 0 0-.002-.986M192.943 84.155a.493.493 0 1 0 .002.986.493.493 0 0 0-.002-.986M195.652 84.155a.493.493 0 1 0 .002.986.493.493 0 0 0-.002-.986M198.361 84.155a.493.493 0 1 0 .002.986.493.493 0 0 0-.002-.986M201.07 84.155a.493.493 0 1 0 .002.986.493.493 0 0 0-.002-.986M203.78 84.155a.493.493 0 1 0 .001.986.493.493 0 0 0-.002-.986M206.488 84.155a.493.493 0 1 0 .003.986.493.493 0 0 0-.003-.986M209.199 84.155a.494.494 0 1 0 0 .987.494.494 0 0 0 0-.987M211.908 85.141a.493.493 0 1 0 0-.985.493.493 0 0 0 0 .985M186.089 85.35a.48.48 0 0 0-.223.059v.868a.489.489 0 0 0 .223.059.493.493 0 0 0 0-.987M188.798 85.35a.493.493 0 1 0 0 .986.493.493 0 0 0 0-.987M191.507 85.35a.493.493 0 1 0 0 .986.493.493 0 0 0 0-.987M194.216 85.35a.492.492 0 0 0-.492.492.492.492 0 1 0 .984 0 .493.493 0 0 0-.492-.493M196.925 85.35a.492.492 0 1 0 0 .984.492.492 0 0 0 0-.985M199.634 85.35a.492.492 0 1 0 0 .984.492.492 0 0 0 0-.985M202.344 85.35a.492.492 0 0 0-.493.492.492.492 0 1 0 .985 0 .492.492 0 0 0-.492-.493M205.053 85.35a.492.492 0 0 0-.493.492.492.492 0 1 0 .985 0 .492.492 0 0 0-.492-.493M207.762 85.35a.492.492 0 1 0 0 .984.492.492 0 0 0 0-.985M210.47 85.35a.493.493 0 1 0 .003.986.493.493 0 0 0-.002-.987M187.525 86.544a.493.493 0 1 0 .002.986.493.493 0 0 0-.002-.986M190.234 86.544a.493.493 0 1 0 .002.986.493.493 0 0 0-.002-.986M192.943 86.544a.493.493 0 1 0 .002.986.493.493 0 0 0-.002-.986M195.652 86.544a.493.493 0 1 0 .002.986.493.493 0 0 0-.002-.986M198.361 86.544a.493.493 0 1 0 .002.986.493.493 0 0 0-.002-.986M201.07 86.544a.493.493 0 1 0 .002.986.493.493 0 0 0-.002-.986M203.78 86.544a.493.493 0 1 0 .001.986.493.493 0 0 0-.002-.986M206.488 86.544a.493.493 0 1 0 .003.987.493.493 0 0 0-.003-.987M209.199 86.544a.493.493 0 1 0 0 .987.493.493 0 0 0 0-.987M211.908 87.53a.493.493 0 1 0-.001-.985.493.493 0 0 0 .001.986M186.089 87.739a.477.477 0 0 0-.223.06v.867c.067.035.142.06.223.06a.493.493 0 0 0 0-.987M188.798 87.739a.493.493 0 1 0-.001.986.493.493 0 0 0 .001-.986M191.507 87.739a.493.493 0 1 0-.002.986.493.493 0 0 0 .002-.986M194.216 87.739a.491.491 0 0 0-.492.493.492.492 0 1 0 .984 0 .493.493 0 0 0-.492-.493M196.925 87.739a.492.492 0 0 0-.492.493.492.492 0 1 0 .984 0 .493.493 0 0 0-.492-.493M199.634 87.739a.492.492 0 0 0-.492.493.492.492 0 1 0 .985 0 .492.492 0 0 0-.493-.493M202.344 87.739a.491.491 0 0 0-.493.493.492.492 0 1 0 .985 0 .492.492 0 0 0-.492-.493M205.053 87.739a.491.491 0 0 0-.493.493.492.492 0 1 0 .985 0 .492.492 0 0 0-.492-.493M207.762 87.739a.492.492 0 0 0-.493.493.492.492 0 1 0 .985 0 .492.492 0 0 0-.492-.493M210.47 87.739a.493.493 0 1 0 .002.985.493.493 0 0 0-.001-.985M186.089 90.128a.485.485 0 0 0-.223.06v.867a.489.489 0 0 0 .223.06.493.493 0 0 0 0-.987M188.798 90.128a.494.494 0 1 0 0 .987.494.494 0 0 0 0-.987M191.507 90.128a.494.494 0 1 0 0 .987.494.494 0 0 0 0-.987M194.216 90.128a.492.492 0 0 0-.492.493.492.492 0 1 0 .984 0 .493.493 0 0 0-.492-.493M196.925 90.128a.492.492 0 1 0 0 .984.492.492 0 0 0 0-.984M199.634 90.128a.492.492 0 1 0 0 .984.492.492 0 0 0 0-.984M202.344 90.128a.492.492 0 0 0-.493.493.492.492 0 1 0 .985 0 .492.492 0 0 0-.492-.493M205.053 90.128a.492.492 0 0 0-.493.493.492.492 0 1 0 .985 0 .492.492 0 0 0-.492-.493M207.762 90.128a.492.492 0 1 0 0 .984.492.492 0 0 0 0-.984M210.47 90.128a.493.493 0 1 0 .003.986.493.493 0 0 0-.002-.986M187.525 91.322a.493.493 0 1 0 .002.987.493.493 0 0 0-.002-.987M190.234 91.322a.493.493 0 1 0 .002.987.493.493 0 0 0-.002-.987M192.943 91.322a.493.493 0 1 0 .002.987.493.493 0 0 0-.002-.987M195.652 91.322a.493.493 0 1 0 .002.987.493.493 0 0 0-.002-.987M198.361 91.322a.493.493 0 1 0 .002.987.493.493 0 0 0-.002-.987M201.07 91.322a.493.493 0 1 0 .003.987.493.493 0 0 0-.003-.987M203.78 91.322a.493.493 0 1 0 .002.987.493.493 0 0 0-.003-.987M206.488 91.322a.494.494 0 1 0 .003.987.494.494 0 0 0-.003-.987M209.199 91.322a.494.494 0 1 0 0 .987.494.494 0 0 0 0-.987M211.908 92.309a.493.493 0 1 0-.001-.986.493.493 0 0 0 .001.986M186.089 92.517a.48.48 0 0 0-.223.06v.867a.48.48 0 0 0 .223.06.493.493 0 0 0 0-.987M188.798 92.517a.493.493 0 1 0-.001.986.493.493 0 0 0 .001-.986M191.507 92.517a.493.493 0 1 0-.002.986.493.493 0 0 0 .002-.986M194.216 92.517a.491.491 0 0 0-.492.493.492.492 0 1 0 .984 0 .493.493 0 0 0-.492-.493M196.925 92.517a.492.492 0 0 0-.492.493.492.492 0 1 0 .984 0 .493.493 0 0 0-.492-.493M199.634 92.517a.492.492 0 0 0-.492.493.492.492 0 1 0 .985 0 .492.492 0 0 0-.493-.493M202.344 92.517a.491.491 0 0 0-.493.493.492.492 0 1 0 .985 0 .492.492 0 0 0-.492-.493M205.053 92.517a.491.491 0 0 0-.493.493.492.492 0 1 0 .985 0 .492.492 0 0 0-.492-.493M207.762 92.517a.492.492 0 0 0-.493.493.492.492 0 1 0 .985 0 .492.492 0 0 0-.492-.493M210.47 92.517a.493.493 0 1 0 .002.985.493.493 0 0 0-.001-.985M187.525 93.712a.493.493 0 1 0 0 .985.493.493 0 0 0 0-.985M190.234 93.712a.493.493 0 1 0 0 .985.493.493 0 0 0 0-.985M192.943 93.712a.493.493 0 1 0 0 .985.493.493 0 0 0 0-.985M195.652 93.712a.493.493 0 1 0 .001.985.493.493 0 0 0-.001-.985M198.361 93.712a.493.493 0 1 0 .001.985.493.493 0 0 0-.001-.985M201.07 93.712a.493.493 0 1 0 .001.985.493.493 0 0 0 0-.985M203.78 93.712a.493.493 0 1 0 0 .985.493.493 0 0 0 0-.985M206.488 93.712a.493.493 0 1 0 .002.986.493.493 0 0 0-.002-.986M209.199 93.712a.493.493 0 1 0-.001.986.493.493 0 0 0 .001-.986M211.908 94.698a.493.493 0 1 0-.002-.986.493.493 0 0 0 .002.986M186.089 94.906a.477.477 0 0 0-.223.06v.868a.489.489 0 0 0 .223.058.493.493 0 0 0 0-.986M188.798 94.906a.494.494 0 1 0 0 .987.494.494 0 0 0 0-.987M191.507 94.906a.494.494 0 1 0 0 .987.494.494 0 0 0 0-.987M194.216 94.906a.492.492 0 1 0 0 .984.492.492 0 0 0 0-.984M196.925 94.906a.492.492 0 1 0 0 .984.492.492 0 0 0 0-.984M199.634 94.906a.492.492 0 1 0 0 .984.492.492 0 0 0 0-.984M202.344 94.906a.492.492 0 1 0 0 .984.492.492 0 0 0 0-.984M205.053 94.906a.492.492 0 1 0 0 .984.492.492 0 0 0 0-.984M207.762 94.906a.492.492 0 1 0 0 .984.492.492 0 0 0 0-.984M210.47 94.906a.493.493 0 1 0 .003.986.493.493 0 0 0-.002-.986M186.089 97.295a.477.477 0 0 0-.223.06v.868c.067.035.142.06.223.06a.493.493 0 0 0 0-.988M188.798 97.295a.493.493 0 1 0-.001.986.493.493 0 0 0 .001-.986M191.507 97.295a.493.493 0 1 0-.002.986.493.493 0 0 0 .002-.986M194.216 97.295a.491.491 0 0 0-.492.493.492.492 0 1 0 .984 0 .493.493 0 0 0-.492-.493M196.925 97.295a.492.492 0 0 0-.492.493.492.492 0 1 0 .984 0 .493.493 0 0 0-.492-.493M199.634 97.295a.492.492 0 0 0-.492.493.492.492 0 1 0 .985 0 .492.492 0 0 0-.493-.493M202.344 97.295a.491.491 0 0 0-.493.493.492.492 0 1 0 .985 0 .492.492 0 0 0-.492-.493M205.053 97.295a.491.491 0 0 0-.493.493.492.492 0 1 0 .985 0 .492.492 0 0 0-.492-.493M207.762 97.295a.492.492 0 0 0-.493.493.492.492 0 1 0 .985 0 .492.492 0 0 0-.492-.493M210.47 97.295a.493.493 0 1 0 .002.986.493.493 0 0 0-.001-.986M187.525 98.49a.493.493 0 1 0 0 .985.493.493 0 0 0 0-.985M190.234 98.49a.493.493 0 1 0 0 .985.493.493 0 0 0 0-.985M192.943 98.49a.493.493 0 1 0 0 .985.493.493 0 0 0 0-.985M195.652 98.49a.493.493 0 1 0 .001.985.493.493 0 0 0-.001-.985M198.361 98.49a.493.493 0 1 0 .001.985.493.493 0 0 0-.001-.985M201.07 98.49a.493.493 0 1 0 .001.985.493.493 0 0 0 0-.985M203.78 98.49a.493.493 0 1 0 0 .985.493.493 0 0 0 0-.985M206.488 98.49a.493.493 0 1 0 .002.986.493.493 0 0 0-.002-.986M209.199 98.49a.493.493 0 1 0-.001.986.493.493 0 0 0 .001-.986M211.908 99.477a.493.493 0 1 0-.002-.987.493.493 0 0 0 .002.987M186.089 99.684a.477.477 0 0 0-.223.06v.868a.489.489 0 0 0 .223.059.493.493 0 0 0 0-.987M188.798 99.684a.494.494 0 1 0 0 .987.494.494 0 0 0 0-.987M191.507 99.684a.494.494 0 1 0 0 .987.494.494 0 0 0 0-.987M194.216 99.684a.492.492 0 1 0 0 .984.492.492 0 0 0 0-.984M196.925 99.684a.492.492 0 1 0 0 .985.492.492 0 0 0 0-.985M199.634 99.684a.492.492 0 1 0 0 .985.492.492 0 0 0 0-.985M202.344 99.684a.492.492 0 1 0 0 .984.492.492 0 0 0 0-.984M205.053 99.684a.492.492 0 1 0 0 .984.492.492 0 0 0 0-.984M207.762 99.684a.492.492 0 1 0 0 .985.492.492 0 0 0 0-.985M210.47 99.684a.493.493 0 1 0 .003.987.493.493 0 0 0-.002-.987M187.525 100.879a.493.493 0 1 0 .002.986.493.493 0 0 0-.002-.986M190.234 100.879a.493.493 0 1 0 .002.986.493.493 0 0 0-.002-.986M192.943 100.879a.493.493 0 1 0 .002.986.493.493 0 0 0-.002-.986M195.652 100.879a.493.493 0 1 0 .002.986.493.493 0 0 0-.002-.986M198.361 100.879a.493.493 0 1 0 .002.986.493.493 0 0 0-.002-.986M201.07 100.879a.493.493 0 1 0 .002.986.493.493 0 0 0-.002-.986M203.78 100.879a.493.493 0 1 0 .001.986.493.493 0 0 0-.002-.986M206.488 100.879a.493.493 0 1 0 .003.987.493.493 0 0 0-.003-.987M209.199 100.879a.493.493 0 1 0 0 .987.493.493 0 0 0 0-.987M186.089 102.074a.477.477 0 0 0-.223.06V103a.48.48 0 0 0 .223.06.493.493 0 0 0 0-.987M188.798 102.074a.493.493 0 1 0-.001.985.493.493 0 0 0 .001-.985M191.507 102.074a.493.493 0 1 0-.002.986.493.493 0 0 0 .002-.986M194.216 102.074a.491.491 0 0 0-.492.492.492.492 0 1 0 .984 0 .493.493 0 0 0-.492-.492M196.925 102.074a.492.492 0 0 0-.492.492.492.492 0 1 0 .984 0 .493.493 0 0 0-.492-.492M199.634 102.074a.492.492 0 0 0-.492.492.492.492 0 1 0 .985 0 .492.492 0 0 0-.493-.492M202.344 102.074a.491.491 0 0 0-.493.492.492.492 0 1 0 .985 0 .492.492 0 0 0-.492-.492M205.053 102.074a.491.491 0 0 0-.493.492.492.492 0 1 0 .985 0 .492.492 0 0 0-.492-.492M207.762 102.074a.492.492 0 0 0-.493.492.492.492 0 1 0 .985 0 .492.492 0 0 0-.492-.492M187.525 103.268a.493.493 0 1 0 0 .986.493.493 0 0 0 0-.986M190.234 103.268a.493.493 0 1 0 0 .986.493.493 0 0 0 0-.986M192.943 103.268a.493.493 0 1 0 0 .986.493.493 0 0 0 0-.986M195.652 103.268a.493.493 0 1 0 .001.986.493.493 0 0 0-.001-.986M198.361 103.268a.493.493 0 1 0 .001.986.493.493 0 0 0-.001-.986M201.07 103.268a.493.493 0 1 0 .001.986.493.493 0 0 0 0-.986M203.78 103.268a.493.493 0 1 0 0 .986.493.493 0 0 0 0-.986M206.488 103.268a.493.493 0 1 0 .002.986.493.493 0 0 0-.002-.986M186.089 104.462a.477.477 0 0 0-.223.06v.868c.067.035.142.059.223.059a.493.493 0 0 0 0-.987M188.798 104.462a.494.494 0 1 0 0 .987.494.494 0 0 0 0-.987M191.507 104.462a.494.494 0 1 0 0 .988.494.494 0 0 0 0-.988M194.216 104.462a.492.492 0 1 0 0 .985.492.492 0 0 0 0-.985M196.925 104.462a.492.492 0 1 0 0 .985.492.492 0 0 0 0-.985M199.634 104.462a.492.492 0 1 0 0 .985.492.492 0 0 0 0-.985M202.344 104.462a.492.492 0 1 0 0 .985.492.492 0 0 0 0-.985M205.053 104.462a.492.492 0 1 0 0 .985.492.492 0 0 0 0-.985M187.525 105.657a.493.493 0 1 0 .002.987.493.493 0 0 0-.002-.987M190.234 105.657a.493.493 0 1 0 .002.987.493.493 0 0 0-.002-.987M192.943 105.657a.493.493 0 1 0 .002.987.493.493 0 0 0-.002-.987M195.652 105.657a.493.493 0 1 0 .002.987.493.493 0 0 0-.002-.987M198.361 105.657a.493.493 0 1 0 .002.987.493.493 0 0 0-.002-.987M201.07 105.657a.493.493 0 1 0 .003.987.493.493 0 0 0-.003-.987M186.089 106.852a.477.477 0 0 0-.223.06v.867a.48.48 0 0 0 .223.06.493.493 0 0 0 0-.987M188.798 106.852a.493.493 0 1 0-.001.986.493.493 0 0 0 .001-.986M191.507 106.852a.493.493 0 1 0-.002.986.493.493 0 0 0 .002-.986M194.216 106.852a.491.491 0 0 0-.492.493.492.492 0 1 0 .984 0 .493.493 0 0 0-.492-.493M196.925 106.852a.492.492 0 0 0-.492.493.492.492 0 1 0 .984 0 .493.493 0 0 0-.492-.493M199.634 106.852a.492.492 0 0 0-.492.493.492.492 0 1 0 .985 0 .492.492 0 0 0-.493-.493M186.089 109.242a.467.467 0 0 0-.223.058v.868c.067.035.142.06.223.06a.493.493 0 0 0 0-.986M188.798 109.242a.492.492 0 1 0-.002.985.492.492 0 0 0 .002-.985M191.507 109.242a.493.493 0 1 0-.002.985.493.493 0 0 0 .002-.985M194.216 109.242a.492.492 0 1 0 .492.493.492.492 0 0 0-.492-.493M187.525 110.436a.493.493 0 1 0 .002.986.493.493 0 0 0-.002-.986M190.234 110.436a.493.493 0 1 0 .002.986.493.493 0 0 0-.002-.986M192.943 110.436a.493.493 0 1 0 .002.986.493.493 0 0 0-.002-.986M186.089 111.63a.469.469 0 0 0-.223.06v.867a.467.467 0 0 0 .223.058.492.492 0 1 0 0-.985M188.798 111.63a.494.494 0 1 0 0 .987.494.494 0 0 0 0-.987M187.525 112.824a.493.493 0 0 0 0 .987.492.492 0 1 0 0-.987M186.089 114.02a.489.489 0 0 0-.223.058v.869a.489.489 0 0 0 .223.058.493.493 0 0 0 0-.986"/>
            <path d="M210.848 102.873a.486.486 0 0 0 .115-.307.492.492 0 1 0-.984 0c0 .274.22.494.492.494.031 0 .058-.012.088-.018-.114.069-.224.142-.344.203l-.584.292a.488.488 0 0 0-.873.437l-4.5 2.254c.004-.027.015-.05.015-.078a.494.494 0 0 0-.986 0c0 .189.11.348.265.431l-.852.427a.492.492 0 0 0-.848.337c0 .028.01.052.015.08l-3.641 1.823-.826.403a.485.485 0 0 0-.475-.41.491.491 0 0 0-.36.825c-.261.13-.522.264-.783.396-.042-.012-.084-.026-.13-.026a.49.49 0 0 0-.458.324c-.181.092-.363.182-.544.275l-.18.094-2.581 1.293a.485.485 0 0 0 .11-.3.494.494 0 1 0-.496.493l-.867.434a.481.481 0 0 0-.402-.225.493.493 0 0 0-.492.494c0 .058.014.111.033.163l-2.153 1.077a5.255 5.255 0 0 1-1.906.535V82.948l.155.07-.005.001v.869a.48.48 0 0 0 .223.06.493.493 0 0 0 .492-.495c0-.045-.014-.086-.026-.128a133 133 0 0 0 3.202 1.399.486.486 0 0 0 .969-.076.486.486 0 1 0-.96-.117c-.335-.2-.67-.397-1.007-.592.013.001.025.008.039.008a.493.493 0 1 0-.494-.494c0 .104.04.195.094.274-.79-.455-1.584-.904-2.38-1.347l1.286-.604 1.05-.504a.49.49 0 0 0 .936-.208.48.48 0 0 0-.055-.216l.85-.409c.924-.452 1.847-.906 2.765-1.37l.886-.454c-.002.02-.012.04-.012.06a.492.492 0 1 0 .984 0 .488.488 0 0 0-.259-.426l.845-.434c.09.097.216.16.358.16.273 0 .492-.221.492-.495 0-.034-.013-.063-.02-.095l4.461-2.327c-.001.012-.007.022-.007.034a.493.493 0 1 0 .986 0 .485.485 0 0 0-.235-.41l.753-.377c.077.05.163.086.261.086a.49.49 0 0 0 .486-.46l4.477-2.241a.492.492 0 0 0 .948-.182.484.484 0 0 0-.08-.253l4.303-2.154c.328.6.53 1.257.604 1.933a.487.487 0 0 0-.393.473c0 .251.189.45.43.482v1.428a.488.488 0 0 0-.43.48c0 .25.189.449.43.48v1.429a.488.488 0 0 0-.43.48c0 .25.189.449.43.48v1.429a.487.487 0 0 0-.43.48c0 .25.189.45.43.481v1.428a.488.488 0 0 0-.43.48c0 .251.189.45.43.48v1.43a.487.487 0 0 0-.43.48c0 .25.189.449.43.48v1.428a.488.488 0 0 0-.43.48c0 .251.189.45.43.481v1.428a.487.487 0 0 0-.43.48c0 .252.189.45.43.482v1.427a.488.488 0 0 0-.43.481c0 .25.189.448.43.48v1.429a.487.487 0 0 0-.43.48c0 .251.189.45.43.481v1.427a.488.488 0 0 0-.43.481c0 .25.189.449.43.48v1.43a.487.487 0 0 0-.43.479c0 .251.189.45.43.481v.288a5.3 5.3 0 0 1-.144 1.176.492.492 0 0 0-.286.445c0 .092.032.174.076.248-.108.284-.234.56-.39.82a.486.486 0 0 0-.466-.367.494.494 0 0 0 0 .986c.014 0 .026-.007.04-.008a5.216 5.216 0 0 1-1.1 1.016zm-25.551-21.105l-7.016-3.517c-.167-.085-.333-.173-.5-.257l-.82-.405-2.024-1.015-16.347-8.194a5.233 5.233 0 0 1 1.194-1.11l.662-.317c.84-.41 1.68-.821 2.515-1.243l2.494-1.284 2.124-1.115 15.391-7.708a5.25 5.25 0 0 1 4.652 0l22.594 11.314c.702.35 1.317.855 1.798 1.476l-16.62 8.32-.225.11-2.767 1.364c-.743.373-1.481.754-2.22 1.135l-3.597 1.801-1.288.645zm-.42 33.327a5.242 5.242 0 0 1-1.934-.537l-22.591-11.313a5.208 5.208 0 0 1-2.876-4.716V71.603c0-.882.223-1.745.648-2.516l8.4 4.21 3.195 1.667 5.054 2.659 2.536 1.31c.85.429 1.703.849 2.558 1.267l2.575 1.234c.666.31 1.332.622 2 .931-.078.042-.157.083-.234.126a181.401 181.401 0 0 0-5.381 3.029.048.048 0 0 0 .043.085 182.464 182.464 0 0 0 5.64-2.518c.123-.056.245-.115.367-.172v32.18zm38.102-51.74a.048.048 0 0 0-.064-.023l-9.215 4.462-.059-5.082a.034.034 0 0 0-.067 0l-.059 5.076-1.927-1.027-.178-.093a5.985 5.985 0 0 0-.82-.503L187.997 54.85a5.985 5.985 0 0 0-1.271-.459l-.278-.137-.801-.39c1.555-.817 3.111-1.63 4.662-2.454a.05.05 0 0 0 .022-.066.05.05 0 0 0-.067-.024c-1.653.787-3.3 1.586-4.95 2.38l-10.08-4.923a.039.039 0 0 0-.053.017.039.039 0 0 0 .017.054l9.709 5.05-1.007.484a6 6 0 0 0-1.305.469l-10.297 5.156-2.237 1.09-5.054 2.436-2.517 1.239c-.836.42-1.667.849-2.496 1.28l-2.48 1.314-.732.4-7.244-3.499a.05.05 0 0 0-.046.09l6.884 3.63c-.443.239-.887.476-1.326.722a141.612 141.612 0 0 0-4.875 2.795.05.05 0 0 0 .046.09 142.074 142.074 0 0 0 5.147-2.251c.639-.288 1.271-.587 1.905-.884l.198.104a6.056 6.056 0 0 0-.834 3.04v26.923a6.042 6.042 0 0 0 3.338 5.47l22.592 11.314a6.09 6.09 0 0 0 2.716.642h.015c.14 0 .28-.015.421-.026v.001c.008.02.03.03.051.022l.07-.03a6.09 6.09 0 0 0 2.158-.61l7.84-3.925.016-.008 14.735-7.38a5.733 5.733 0 0 0 1.22-.827l1.228-.63.318-.164c.005.359.009.719.019 1.078l.08 2.91c.04.97.069 1.94.12 2.91a.034.034 0 0 0 .032.032.034.034 0 0 0 .035-.032c.052-.97.08-1.94.12-2.91l.081-2.91c.012-.448.015-.895.023-1.343l8.172-4.233a.04.04 0 0 0 .017-.053.038.038 0 0 0-.051-.02l-8.13 3.894c.015-.858.033-1.716.044-2.574.018-.188.04-.375.04-.566V71.603c0-.56-.082-1.11-.232-1.643l-.017-1.418c.13.06.257.123.387.183 1.88.89 3.772 1.756 5.678 2.597a.04.04 0 0 0 .05-.017.04.04 0 0 0-.015-.054 233.733 233.733 0 0 0-5.465-3.022c-.097-.053-.195-.104-.292-.156l8.907-4.656a.047.047 0 0 0 .02-.063z"/>
        </g>
    </g>
</svg>
