<?xml version="1.0" encoding="UTF-8"?>
<svg width="57px" height="58px" viewBox="0 0 57 58" version="1.1" xmlns="http://www.w3.org/2000/svg" xmlns:xlink="http://www.w3.org/1999/xlink">
    <!-- Generator: sketchtool 48.2 (47327) - http://www.bohemiancoding.com/sketch -->
    <title>FADCE04A-57B4-44AF-80EA-3CD5B8F2767F</title>
    <desc>Created with sketchtool.</desc>
    <defs>
        <polygon id="path-1" points="0 0 57 0 57 58 0 58"></polygon>
    </defs>
    <g id="1-MAIN" stroke="none" stroke-width="1" fill="none" fill-rule="evenodd" transform="translate(-356.000000, -571.000000)">
        <g id="concept-01-like" transform="translate(0.000000, 473.000000)">
            <g id="infographic-finger" transform="translate(356.000000, 98.000000)">
                <mask id="mask-2" fill="white">
                    <use xlink:href="#path-1"></use>
                </mask>
                <g id="Clip-2"></g>
                <path d="M7.88622292,29 C6.4351579,29 5.25748194,30.1837273 5.25748194,31.6363636 L5.25748194,50.0909091 C5.25748194,51.5435455 6.4351579,52.7272727 7.88622292,52.7272727 L13.1437049,52.7272727 L13.1437049,29 L7.88622292,29 Z M18.4011868,52.7272727 L45.424644,52.7272727 C46.7100983,52.7088182 47.890403,51.7781818 48.0849299,50.4863636 L51.7125924,26.7538182 C51.817742,26.0630909 51.6442451,25.3670909 51.2289041,24.8002727 C50.813563,24.2334545 50.2010663,23.8617273 49.50445,23.7562727 C49.3677555,23.7351818 49.2336897,23.7299091 49.0891089,23.7272727 L34.1736326,23.7272727 C32.7199389,23.7272727 31.5448917,22.5461818 31.5448917,21.0909091 L31.5448917,10.5454545 C31.5448917,8.19645455 30.0044495,6.20336364 27.8830555,5.52054545 L18.4011868,26.9225455 L18.4011868,52.7272727 Z M45.485105,58 L45.3957278,58 L7.88622292,58 C3.53828535,58 0,54.4514545 0,50.0909091 L0,31.6363636 C0,27.2758182 3.53828535,23.7272727 7.88622292,23.7272727 L14.0663929,23.7272727 L23.8847405,1.566 C24.3079678,0.614272727 25.2464283,0 26.2874097,0 C32.0864123,0 36.8023736,4.72963636 36.8023736,10.5454545 L36.8023736,18.4545455 L49.0523065,18.4545455 C49.4518752,18.4598182 49.8751025,18.4809091 50.2930723,18.5441818 C52.3776639,18.8605455 54.2125251,19.9730909 55.4638058,21.6735455 C56.7124577,23.374 57.227691,25.462 56.9069846,27.55 L53.2819508,51.2799091 C52.700999,55.1237273 49.3546117,58 45.485105,58 Z" id="Fill-1" fill="#FFFFFF" mask="url(#mask-2)"></path>
            </g>
        </g>
    </g>
</svg>