<?xml version="1.0" encoding="utf-8"?>
<!-- Generator: Adobe Illustrator 16.0.0, SVG Export Plug-In . SVG Version: 6.00 Build 0)  -->
<!DOCTYPE svg PUBLIC "-//W3C//DTD SVG 1.1//EN" "http://www.w3.org/Graphics/SVG/1.1/DTD/svg11.dtd">
<svg version="1.1" id="Layer_1" xmlns="http://www.w3.org/2000/svg" xmlns:xlink="http://www.w3.org/1999/xlink" x="0px" y="0px"
	 width="33px" height="33px" viewBox="0 0 33 33" enable-background="new 0 0 33 33" xml:space="preserve">
<title>E83BD9DE-11B2-4090-8081-322ECBDBF72D</title>
<desc>Created with sketchtool.</desc>
<g id="footer---large-screen" transform="translate(-630.000000, -184.000000)">
	<g id="footer" transform="translate(0.000000, 1.000000)">
		<g id="social-media-icon" transform="translate(562.000000, 183.000000)">
			<g id="instagram-logo" transform="translate(68.000000, 0.000000)">
				<g>
					<path id="Shape" fill="#231F20" d="M23.893,0H9.106C4.085,0,0,4.085,0,9.107v14.786C0,28.914,4.085,33,9.106,33h14.786
						C28.914,33,33,28.914,33,23.893V9.107C33,4.085,28.914,0,23.893,0z M30.072,23.893c0,3.408-2.771,6.18-6.18,6.18H9.106
						c-3.407,0-6.179-2.771-6.179-6.18V9.107c0-3.407,2.772-6.179,6.179-6.179h14.786c3.408,0,6.18,2.772,6.18,6.179V23.893
						L30.072,23.893z"/>
					<path id="Shape_1_" fill="#231F20" d="M16.5,8.014c-4.679,0-8.486,3.807-8.486,8.486c0,4.68,3.807,8.486,8.486,8.486
						c4.68,0,8.486-3.807,8.486-8.486C24.986,11.821,21.18,8.014,16.5,8.014z M16.5,22.063c-3.068,0-5.564-2.495-5.564-5.563
						c0-3.068,2.496-5.564,5.564-5.564c3.068,0,5.564,2.496,5.564,5.564C22.064,19.568,19.568,22.063,16.5,22.063z"/>
					<path id="Shape_2_" fill="#231F20" d="M25.221,5.657c-0.557,0-1.104,0.226-1.498,0.621c-0.395,0.393-0.623,0.941-0.623,1.5
						c0,0.558,0.229,1.105,0.623,1.5C24.116,9.672,24.664,9.9,25.221,9.9c0.561,0,1.105-0.228,1.501-0.621
						c0.396-0.395,0.621-0.943,0.621-1.5c0-0.559-0.226-1.107-0.621-1.5C26.328,5.883,25.781,5.657,25.221,5.657z"/>
				</g>
			</g>
		</g>
	</g>
</g>
</svg>
