<svg xmlns="http://www.w3.org/2000/svg" width="27" height="27" viewBox="0 0 27 27">
    <g fill="#FFF" fill-rule="evenodd">
        <path d="M20.902 20.14c0 .558-.456 1.014-1.014 1.014H6.519a1.016 1.016 0 0 1-1.013-1.014V7.212c0-.557.455-1.013 1.013-1.013h13.37c.558 0 1.014.456 1.014 1.013V20.14zM13.108.295C5.916.295.086 6.125.086 13.317S5.916 26.34 13.108 26.34c7.191 0 13.023-5.83 13.023-13.022S20.3.295 13.108.295z"/>
        <path d="M13.203 16.813a3.137 3.137 0 1 0 0-6.274 3.137 3.137 0 0 0 0 6.274M19.072 7.63h-2.565c-.17 0-.31.14-.31.311v2.473c0 .17.14.31.31.31h2.565c.17 0 .31-.14.31-.31V7.94a.312.312 0 0 0-.31-.31"/>
        <path d="M19.074 12.773h-1.463a4.499 4.499 0 1 1-8.816 0H7.332a.31.31 0 0 0-.308.308v6.622c0 .17.14.306.308.306h11.742a.308.308 0 0 0 .308-.306v-6.622a.31.31 0 0 0-.308-.308"/>
    </g>
</svg>
