<?xml version="1.0" encoding="utf-8"?>
<!-- Generator: Adobe Illustrator 23.0.1, SVG Export Plug-In . SVG Version: 6.00 Build 0)  -->
<svg version="1.1" id="레이어_1" xmlns="http://www.w3.org/2000/svg" xmlns:xlink="http://www.w3.org/1999/xlink" x="0px"
	 y="0px" viewBox="0 0 16 16" style="enable-background:new 0 0 16 16;" xml:space="preserve">
<style type="text/css">
	.st0{fill:#371E1E;}
	.st1{fill:url(#SVGID_1_);}
	.st2{fill:url(#SVGID_2_);}
	.st3{fill:url(#SVGID_3_);}
	.st4{fill:url(#SVGID_4_);}
</style>
<g>
	<path class="st0" d="M8,0.62c-4.42,0-8,2.83-8,6.32c0,2.27,1.52,4.27,3.8,5.38c-0.17,0.62-0.61,2.26-0.69,2.61
		c-0.11,0.44,0.16,0.43,0.33,0.31c0.14-0.09,2.19-1.49,3.08-2.09C7,13.23,7.49,13.27,8,13.27c4.42,0,8-2.83,8-6.32
		S12.42,0.62,8,0.62z"/>
	<g>
		<g>
			<g>
				<linearGradient id="SVGID_1_" gradientUnits="userSpaceOnUse" x1="1.8971" y1="6.8577" x2="5.1878" y2="6.8577">
					<stop  offset="0" style="stop-color:#DCD44E"/>
					<stop  offset="0.104" style="stop-color:#DCD247"/>
					<stop  offset="0.3411" style="stop-color:#DBCF3F"/>
					<stop  offset="1" style="stop-color:#DBCE3C"/>
				</linearGradient>
				<path class="st1" d="M4.8,4.9c-0.58,0-2.54,0-2.54,0c-0.49,0-0.49,0.82,0,0.82H3.1c0,0,0.01,2.27,0,2.81
					c0,0.39,0.87,0.39,0.87,0l0-2.8c0,0,0.28,0,0.83,0C5.32,5.72,5.32,4.9,4.8,4.9z"/>
			</g>
			<g>
				<g>
					<linearGradient id="SVGID_2_" gradientUnits="userSpaceOnUse" x1="4.5163" y1="6.8616" x2="7.9672" y2="6.8616">
						<stop  offset="0" style="stop-color:#DCD44E"/>
						<stop  offset="0.104" style="stop-color:#DCD247"/>
						<stop  offset="0.3411" style="stop-color:#DBCF3F"/>
						<stop  offset="1" style="stop-color:#DBCE3C"/>
					</linearGradient>
					<path class="st2" d="M6.75,5.15c-0.12-0.27-0.84-0.39-1.02,0C5.53,5.6,4.79,7.74,4.54,8.3C4.37,8.71,5.13,9.05,5.31,8.64
						l0.17-0.58l1.53,0c0,0-0.05,0.02,0.15,0.56c0.16,0.43,0.96,0.13,0.79-0.3C7.71,7.69,6.9,5.47,6.75,5.15z M5.75,7.29l0.5-1.45
						l0.46,1.45H5.75z"/>
				</g>
			</g>
			<g>
				<linearGradient id="SVGID_3_" gradientUnits="userSpaceOnUse" x1="8.2368" y1="6.8565" x2="10.5393" y2="6.8565">
					<stop  offset="0" style="stop-color:#DCD44E"/>
					<stop  offset="0.104" style="stop-color:#DCD247"/>
					<stop  offset="0.3411" style="stop-color:#DBCF3F"/>
					<stop  offset="1" style="stop-color:#DBCE3C"/>
				</linearGradient>
				<path class="st3" d="M10.24,7.97c-0.39,0-1.11,0-1.11,0s0-2.16,0-2.69c0-0.51-0.9-0.51-0.9,0c0,0.73,0,3.06,0,3.06
					S8.17,8.81,8.57,8.81s1.28,0,1.67,0C10.64,8.81,10.64,7.97,10.24,7.97z"/>
			</g>
			<g>
				<linearGradient id="SVGID_4_" gradientUnits="userSpaceOnUse" x1="10.7329" y1="6.8655" x2="13.6819" y2="6.8655">
					<stop  offset="0" style="stop-color:#DCD44E"/>
					<stop  offset="0.104" style="stop-color:#DCD247"/>
					<stop  offset="0.3411" style="stop-color:#DBCF3F"/>
					<stop  offset="1" style="stop-color:#DBCE3C"/>
				</linearGradient>
				<path class="st4" d="M13.64,8.21l-1.17-1.54c0,0,0.79-0.86,1.1-1.17c0.18-0.18-0.38-0.75-0.56-0.57
					c-0.18,0.18-1.42,1.42-1.42,1.42s0.01-0.78,0-1.21c-0.01-0.34-0.86-0.32-0.85,0.02c0.01,0.32-0.01,3.19-0.01,3.41
					c0,0.34,0.86,0.34,0.86,0c0-0.39,0-1.13,0-1.13l0.25-0.2l1.1,1.5C13.16,9.04,13.86,8.51,13.64,8.21z"/>
			</g>
		</g>
	</g>
</g>
</svg>
