<svg xmlns="http://www.w3.org/2000/svg" xmlns:xlink="http://www.w3.org/1999/xlink" width="1229" height="304" viewBox="0 0 1229 304">
    <defs>
        <path id="a" d="M0 311h838.297V.799H0z"/>
        <path id="c" d="M0 311h838.297V.799H0z"/>
    </defs>
    <g fill="none" fill-rule="evenodd">
        <path fill="#0967A7" d="M374.864 108.453h40.391c4.886 0 8.848-3.893 8.848-8.694V86.29c0-4.802-3.962-8.694-8.848-8.694H373.92c-4.886 0-8.848 3.892-8.848 8.693V99.76c0 .322.018.64.054.953l-.001-.006v11.691l9.74-3.944z"/>
        <path fill="#A6CAEC" d="M374.864 107.293h40.391c4.886 0 8.848-3.893 8.848-8.694v-13.47c0-4.802-3.962-8.694-8.848-8.694H373.92c-4.886 0-8.848 3.892-8.848 8.694v13.47c0 .322.018.64.054.953l-.001-.006v11.691l9.74-3.944z"/>
        <text fill="#3B6AFF" font-family="ConcertOne-Regular, Concert One" font-size="22.089" transform="translate(193.17)">
            <tspan x="180.134" y="99">LI</tspan> <tspan x="197.758" y="99" letter-spacing="-.011">K</tspan> <tspan x="210.064" y="99">E</tspan>
        </text>
        <path fill="#FFF" d="M346.755 157.115v59.11l41.56-20.257c3.842-1.874 6.272-5.717 6.272-9.923v-48.22c0-2.048-1.13-3.936-2.956-4.933l-41.533-22.697a6.987 6.987 0 0 0-6.687 0l-41.533 22.697c-1.825.997-2.956 2.885-2.956 4.932v48.221c0 4.206 2.43 8.05 6.273 9.923l41.56 20.256v-59.109"/>
        <path fill="#FFF" d="M301.879 132.892l44.876 24.223 44.875-24.223"/>
        <path fill="#EAEBEC" d="M391.63 132.892l-44.875 24.223v59.11l41.559-20.257c3.844-1.873 6.273-5.717 6.273-9.923v-48.22c0-2.048-1.13-3.935-2.956-4.933"/>
        <path fill="#FFF" d="M301.879 132.892c-1.826.998-2.957 2.885-2.957 4.933v48.22c0 4.206 2.43 8.05 6.273 9.923l41.56 20.256v-59.109l-44.876-24.223z"/>
        <path fill="#3F5393" d="M336.227 163.196s55.057-30.232 78.836-40.868c0 0-57.7 32.41-78.836 40.868"/>
        <path fill="#3F5393" d="M357.227 163.196s-55.058-30.232-78.835-40.868c0 0 57.699 32.41 78.835 40.868M394.696 123.315s-1.683 58.282-.359 82.403c0 0 2.38-61.394.359-82.403"/>
        <path fill="#3F5393" d="M298.948 125.289s-1.683 58.282-.358 82.403c0 0 2.38-61.394.358-82.403M336.227 222.115s55.057-30.232 78.836-40.867c0 0-57.7 32.409-78.836 40.867"/>
        <path fill="#3F5393" d="M357.227 222.115s-55.058-30.232-78.835-40.867c0 0 57.699 32.409 78.835 40.867M288.149 138.732s55.057-30.232 78.835-40.867c0 0-57.699 32.409-78.835 40.867"/>
        <path fill="#3F5393" d="M405.258 138.732s-55.057-30.232-78.835-40.867c0 0 57.699 32.409 78.835 40.867M346.755 217.036a.82.82 0 0 1-.826-.812v-57.99a.82.82 0 0 1 .826-.813.82.82 0 0 1 .827.812v57.991a.82.82 0 0 1-.827.812"/>
        <text fill="#FFF" font-family="ConcertOne-Regular, Concert One" font-size="11.595" transform="translate(193.17)">
            <tspan x="204.559" y="238">100%</tspan>
        </text>
        <g transform="translate(193.17)">
            <path fill="#FFF" d="M197.955 239.418H98.99v-.696h98.965c1.452 0 2.633-1.16 2.633-2.587 0-1.425-1.18-2.587-2.633-2.587H98.99v-.696h98.965c1.843 0 3.341 1.474 3.341 3.284 0 1.81-1.498 3.282-3.34 3.282"/>
            <mask id="b" fill="#fff">
                <use xlink:href="#a"/>
            </mask>
            <path fill="#FFF" d="M100.754 236.599h94.98v-.928h-94.98z" mask="url(#b)"/>
            <path fill="#FFF" d="M199.506 236.135l-1.989.826-1.987.827v-3.306l1.987.827zM78.68 236.6c0-5.202 4.291-9.418 9.585-9.418 5.293 0 9.583 4.216 9.583 9.417s-4.29 9.417-9.583 9.417c-5.294 0-9.584-4.216-9.584-9.417" mask="url(#b)"/>
            <path fill="#466DFF" d="M84.127 234.44a.579.579 0 0 0-.583.574v4.432c0 .317.262.574.583.574h.695a.58.58 0 0 0 .584-.574v-4.432a.58.58 0 0 0-.584-.574h-.695zm.695 6.276h-.695a1.283 1.283 0 0 1-1.292-1.27v-4.432c0-.7.58-1.27 1.292-1.27h.695c.713 0 1.292.57 1.292 1.27v4.432c0 .7-.58 1.27-1.292 1.27z" mask="url(#b)"/>
            <path fill="#466DFF" d="M91.178 241.443h-1.959a7.177 7.177 0 0 1-2.617-.479c-.827-.322-1.196-.64-1.196-1.03a.35.35 0 0 1 .354-.348.35.35 0 0 1 .352.316c.03.038.174.19.751.415.732.285 1.525.43 2.356.43h1.959c.344 0 .694-.269.694-.532 0-.279-.236-.509-.535-.53l-.081-.002a.352.352 0 0 1-.354-.344.353.353 0 0 1 .347-.352h.042c.028 0 .054 0 .082.002l.098.003c.282.011.665.025.828-.129.078-.073.118-.205.118-.39 0-.189 0-.622-.682-.653-.027-.002-.055-.002-.08-.002a.35.35 0 0 1-.353-.348.35.35 0 0 1 .354-.348c.042 0 .081.001.12.003.054.002.113.006.176.01.325.018.87.051 1.07-.134.041-.038.095-.11.095-.288 0-.338-.18-.55-.49-.585-.066.002-.134.002-.203.002a.364.364 0 0 1-.253-.102.347.347 0 0 1-.11-.246c0-.132.064-.355.476-.355.04 0 .08.002.118.005.866-.02.866-.164.866-.57 0-.22-.07-.38-.194-.45-.09-.052-.275-.079-.549-.079h-3.765a.358.358 0 0 1-.291-.149.343.343 0 0 1-.04-.32c.28-.739.332-1.33.184-2.11-.118-.612-.437-.639-.757-.613-.123.01-.255.245-.255.61 0 2.051-1.916 2.923-1.998 2.96a.356.356 0 0 1-.468-.175.346.346 0 0 1 .176-.46c.067-.029 1.581-.73 1.581-2.326 0-.736.365-1.26.908-1.303 1.042-.087 1.399.596 1.508 1.18.14.734.125 1.346-.06 2.01h3.277c.281 0 .637.02.904.171.348.198.547.582.547 1.054 0 .622-.204.95-.61 1.114.132.203.208.454.208.737 0 .332-.108.6-.32.794-.15.141-.339.225-.54.275.103.193.157.425.157.691 0 .382-.112.681-.333.891a1.084 1.084 0 0 1-.386.233c.11.182.175.393.175.618 0 .724-.74 1.228-1.402 1.228" mask="url(#b)"/>
        </g>
        <text fill="#FFF" font-family="NotoSansCJKkr-Bold, Noto Sans CJK KR" font-size="13.546" font-weight="bold" transform="translate(193.17)">
            <tspan x="65.133" y="271">소비자의</tspan> <tspan x="114.981" y="271" font-family="LucidaGrande-Bold, Lucida Grande"> </tspan> <tspan x="119.445" y="271">좋아요로</tspan> <tspan x="169.293" y="271" font-family="LucidaGrande-Bold, Lucida Grande"> </tspan> <tspan x="173.757" y="271">디자인</tspan> <tspan x="211.143" y="271" font-family="LucidaGrande-Bold, Lucida Grande"> </tspan> <tspan x="215.607" y="271">선정</tspan>
        </text>
        <text fill="#FFF" font-family="NotoSansCJKkr-Bold, Noto Sans CJK KR" font-size="13.546" font-weight="bold" transform="translate(193.17)">
            <tspan x="339.914" y="271">선정된</tspan> <tspan x="377.3" y="271" font-family="LucidaGrande-Bold, Lucida Grande"> </tspan> <tspan x="381.764" y="271">디자인을</tspan> <tspan x="431.611" y="271" font-family="LucidaGrande-Bold, Lucida Grande"> </tspan> <tspan x="436.076" y="271">샤플에서</tspan> <tspan x="485.923" y="271" font-family="LucidaGrande-Bold, Lucida Grande"> </tspan> <tspan x="490.388" y="271">생산</tspan>
        </text>
        <text fill="#FFF" font-family="NotoSansCJKkr-Bold, Noto Sans CJK KR" font-size="13.546" font-weight="bold" transform="translate(193.17)">
            <tspan x="615.712" y="271">합리적인</tspan> <tspan x="665.56" y="271" font-family="LucidaGrande-Bold, Lucida Grande"> </tspan> <tspan x="670.024" y="271">가격으로</tspan> <tspan x="719.872" y="271" font-family="LucidaGrande-Bold, Lucida Grande"> </tspan> <tspan x="724.336" y="271">직접</tspan> <tspan x="749.26" y="271" font-family="LucidaGrande-Bold, Lucida Grande"> </tspan> <tspan x="753.724" y="271">판매</tspan>
        </text>
        <path fill="#0967A7" d="M649.762 106.089h40.391c4.887 0 8.848-3.893 8.848-8.694V83.924c0-4.801-3.96-8.693-8.848-8.693h-41.335c-4.886 0-8.847 3.892-8.847 8.693v13.47c0 .323.018.64.054.954l-.001-.007v11.692l9.738-3.944z"/>
        <path fill="#A6CAEC" d="M649.762 104.929h40.391c4.887 0 8.848-3.893 8.848-8.694V82.764c0-4.801-3.96-8.693-8.848-8.693h-41.335c-4.886 0-8.847 3.892-8.847 8.693v13.47c0 .323.018.64.054.954l-.001-.006v11.69l9.738-3.943z"/>
        <text fill="#3B6AFF" font-family="ConcertOne-Regular, Concert One" font-size="22.089" transform="translate(193.17)">
            <tspan x="449.826" y="97">MAKE</tspan>
        </text>
        <path fill="#FFF" d="M621.317 157.1v58.235l40.826-19.957c3.775-1.846 6.163-5.633 6.163-9.777v-47.508a5.549 5.549 0 0 0-2.906-4.859l-40.799-22.362a6.847 6.847 0 0 0-6.569 0l-40.799 22.362a5.549 5.549 0 0 0-2.905 4.86V185.6c0 4.144 2.387 7.931 6.163 9.777l40.826 19.957V157.1"/>
        <path fill="#3F5393" d="M622.143 157.1v56.924l39.63-19.373c3.52-1.72 5.706-5.188 5.706-9.05v-47.508c0-1.72-.95-3.31-2.481-4.15l-40.8-22.362a5.97 5.97 0 0 0-5.763 0l-40.8 22.362a4.743 4.743 0 0 0-2.48 4.15v47.508c0 3.862 2.186 7.33 5.705 9.05l39.63 19.373V157.1c0-.449.37-.812.827-.812.457 0 .826.363.826.812zm-.826 59.047h-.014a.749.749 0 0 1-.152-.017h-.005c-.001-.002-.003-.002-.004-.002h-.004-.003c-.001-.002-.002-.003-.003-.002h-.002a.771.771 0 0 1-.186-.067l-40.82-19.954c-4.085-1.997-6.622-6.02-6.622-10.504v-47.508c0-2.309 1.275-4.444 3.329-5.569l40.798-22.36a7.638 7.638 0 0 1 7.376 0l40.798 22.36c2.054 1.125 3.329 3.26 3.329 5.57V185.6c0 4.483-2.537 8.507-6.621 10.504l-40.822 19.954a.78.78 0 0 1-.184.066l-.003.001-.003.001h-.003l-.003.001-.004.001-.003.001h-.003l-.003.001a.741.741 0 0 1-.149.015l-.004.001h-.01z"/>
        <path fill="#EAEBEC" d="M577.233 133.234l44.084 23.865 44.084-23.865"/>
        <path fill="#9D9FA2" d="M621.316 157.911a.84.84 0 0 1-.399-.1l-44.083-23.866a.803.803 0 0 1-.324-1.103.834.834 0 0 1 1.121-.32l43.685 23.65 43.686-23.65a.835.835 0 0 1 1.123.32.805.805 0 0 1-.325 1.103l-44.084 23.865a.841.841 0 0 1-.4.101"/>
        <path fill="#EAEBEC" d="M681.807 144.101a5.548 5.548 0 0 1 2.905 4.86v47.508c0 4.144-2.388 7.93-6.164 9.776l-40.825 19.957v-58.236l44.084-23.865z"/>
        <path fill="#3F5393" d="M638.55 168.446v56.445l39.63-19.373c3.518-1.72 5.706-5.187 5.706-9.05v-47.507a4.733 4.733 0 0 0-2.103-3.92l-43.233 23.405zm-.827 58.568a.846.846 0 0 1-.435-.121.81.81 0 0 1-.391-.691v-58.235a.81.81 0 0 1 .427-.712l44.083-23.865a.84.84 0 0 1 .802.002c2.053 1.125 3.33 3.259 3.33 5.569v47.508c0 4.482-2.538 8.507-6.622 10.503l-40.825 19.957a.835.835 0 0 1-.369.085z"/>
        <path fill="#EAEBEC" d="M560.822 144.101a5.548 5.548 0 0 0-2.904 4.86v47.508c0 4.144 2.386 7.93 6.162 9.776l40.826 19.957v-58.236l-44.084-23.865z"/>
        <path fill="#3F5393" d="M560.846 145.041a4.733 4.733 0 0 0-2.101 3.919v47.509c0 3.862 2.185 7.329 5.704 9.049l39.63 19.373v-56.445l-43.233-23.405zm44.06 81.973a.835.835 0 0 1-.368-.085l-40.826-19.957c-4.083-1.996-6.62-6.021-6.62-10.503V148.96c0-2.309 1.274-4.443 3.328-5.568a.834.834 0 0 1 .8-.002l44.086 23.865a.811.811 0 0 1 .426.711v58.236a.811.811 0 0 1-.39.691.843.843 0 0 1-.435.121z"/>
        <path fill="#EAEBEC" d="M665.4 133.234l-44.082 23.865-44.085-23.865 40.006-22.107a8.444 8.444 0 0 1 8.156 0l40.006 22.107z"/>
        <path fill="#3F5393" d="M578.932 133.227l42.384 22.945 42.386-22.945-38.711-21.392a7.657 7.657 0 0 0-7.348 0l-38.71 21.392zm42.384 24.799l-45.783-24.784 41.3-22.823a9.345 9.345 0 0 1 8.968 0l41.3 22.823-45.785 24.784z"/>
        <path fill="#0967A7" d="M919.494 108.617h40.391c4.886 0 8.848-3.893 8.848-8.694V86.452c0-4.801-3.962-8.693-8.848-8.693H918.55c-4.885 0-8.847 3.892-8.847 8.693v13.47c0 .323.018.64.054.954l-.001-.006v11.69l9.74-3.943z"/>
        <path fill="#A6CAEC" d="M919.494 107.457h40.391c4.886 0 8.848-3.892 8.848-8.694v-13.47c0-4.803-3.962-8.695-8.848-8.695H918.55c-4.885 0-8.847 3.893-8.847 8.695v13.47c0 .321.018.64.054.952l-.001-.005v11.69l9.74-3.944z"/>
        <text fill="#3B6AFF" font-family="ConcertOne-Regular, Concert One" font-size="22.089" transform="translate(193.17)">
            <tspan x="725.625" y="99">SELL</tspan>
        </text>
        <g>
            <path fill="#EAEBEC" d="M891.048 162.242v63.916l44.807-21.904c4.145-2.026 6.764-6.18 6.764-10.729v-52.142c0-2.215-1.219-4.255-3.187-5.334l-44.78-24.542a7.51 7.51 0 0 0-7.208 0l-44.78 24.542c-1.968 1.08-3.187 3.12-3.187 5.334v52.142c0 4.548 2.62 8.703 6.764 10.73l44.807 21.903v-63.916"/>
            <path fill="#3F5393" d="M891.955 162.242v62.477l43.496-21.263c3.863-1.887 6.261-5.693 6.261-9.93v-52.143a5.207 5.207 0 0 0-2.722-4.556l-44.78-24.542a6.552 6.552 0 0 0-6.325 0l-44.778 24.542a5.208 5.208 0 0 0-2.724 4.556v52.142c0 4.238 2.4 8.044 6.262 9.931l43.496 21.263v-62.477h1.814zm0 65.354l-.907-.443-.907.443v-.886l-44.304-21.658c-4.483-2.19-7.267-6.608-7.267-11.527v-52.142c0-2.536 1.4-4.878 3.652-6.112l44.78-24.543a8.381 8.381 0 0 1 8.093 0l44.778 24.543c2.254 1.234 3.654 3.576 3.654 6.112v52.142c0 4.92-2.786 9.336-7.268 11.527l-44.304 21.658v.886z"/>
            <path fill="#EAEBEC" d="M841.414 136.73l49.635 26.87 49.632-26.87"/>
            <path fill="#9D9FA2" d="M891.048 164.644l-50.083-27.113.898-1.601 49.185 26.626 49.185-26.626.898 1.601z"/>
            <path fill="#D9DEE1" d="M939.432 136.05l-48.384 26.192v63.915l44.807-21.903c4.145-2.026 6.764-6.182 6.764-10.729v-52.143c0-2.214-1.219-4.254-3.187-5.333"/>
            <path fill="#3F5393" d="M891.955 162.769v61.95l43.496-21.262c3.862-1.888 6.261-5.693 6.261-9.932v-52.142a5.198 5.198 0 0 0-2.306-4.302l-47.451 25.688zm-1.814 64.828v-65.881l49.293-26.685.44.24c2.253 1.235 3.653 3.577 3.653 6.112v52.142c0 4.92-2.786 9.337-7.268 11.528l-46.118 22.544z"/>
            <path fill="#DDDEDD" d="M842.664 136.05c-1.968 1.078-3.187 3.118-3.187 5.332v52.143c0 4.547 2.62 8.703 6.764 10.73l44.807 21.902v-63.915l-48.384-26.193z"/>
            <path fill="#3F5393" d="M842.69 137.08a5.196 5.196 0 0 0-2.307 4.303v52.142c0 4.239 2.4 8.044 6.262 9.932l43.496 21.262v-61.95l-47.45-25.688zm49.264 90.517l-46.117-22.544c-4.482-2.192-7.267-6.608-7.267-11.528v-52.142c0-2.535 1.399-4.877 3.652-6.112l.44-.24 49.292 26.685v65.88z"/>
        </g>
        <text fill="#FFF" font-family="ConcertOne-Regular, Concert One" font-size="26.183" transform="translate(193.17)">
            <tspan x="358.403" y="30">SHAPL.com</tspan>
        </text>
        <g transform="translate(193.17)">
            <path fill="#FFF" d="M17.743 3.963c-8.008 0-14.524 6.402-14.524 14.271v267.603c0 7.868 6.516 14.27 14.524 14.27h802.811c8.008 0 14.523-6.402 14.523-14.27V18.234c0-7.869-6.515-14.27-14.523-14.27H17.743zm802.811 299.308H17.743C7.959 303.271 0 295.451 0 285.837V18.234C0 8.62 7.96.8 17.743.8h802.811c9.784 0 17.742 7.821 17.742 17.435v267.603c0 9.613-7.958 17.434-17.742 17.434z"/>
            <mask id="d" fill="#fff">
                <use xlink:href="#c"/>
            </mask>
            <path fill="#FFF" d="M1.61 40.792h835.076v-3.164H1.61z" mask="url(#d)"/>
            <path fill="#EFF0F1" d="M302.273 162.636l-7.046-6.242v24.966l7.046-6.242 7.046-6.24z" mask="url(#d)"/>
            <path fill="#EFF0F1" d="M274.945 174.227h20.283v-10.909h-20.283zM582.262 162.636l-7.047-6.242v24.966l7.047-6.242 7.045-6.24z" mask="url(#d)"/>
            <path fill="#EFF0F1" d="M554.933 174.227h20.283v-10.909h-20.283z" mask="url(#d)"/>
        </g>
        <path fill="#CED6F1" d="M90.666 169.5s2.439 34.15 4.878 41.938l-11.583-1.801s.965 19.214-14.885 17.417c-7.926-1.198-18.648-5.435-18.648-5.435v18.235l-23.776 1.6s-10.975-46.194-9.755-65.963c0 0 2.438-7.189 73.77-5.991"/>
        <path fill="#617DC0" d="M81.092 186.659c.846-2.288.493-4.513-.787-4.971-1.283-.458-3.008 1.025-3.855 3.313-.846 2.287-.494 4.513.788 4.97 1.283.459 3.008-1.024 3.854-3.312"/>
        <path stroke="#617DC0" stroke-linecap="round" stroke-linejoin="round" stroke-width=".599" d="M80.302 217.425s-10.365-3.595-14.632-12.58"/>
        <path fill="#808084" d="M121.253 242.212l-17.551-6.832c-1.466-.57-2.004-2.169-1.137-3.373l26.49-36.748c.656-.91 1.926-1.304 3.07-.954l16.867 5.17c1.56.478 2.225 2.111 1.375 3.377l-25.804 38.411c-.616.916-1.848 1.348-2.995 1.051a2.808 2.808 0 0 1-.315-.102"/>
        <path fill="#FFF" d="M142.989 208.858l-19.024 26.648c-.496.692-1.45.952-2.266.617l-13.14-5.4c-1.046-.428-1.421-1.638-.783-2.523l18.52-25.66c.464-.643 1.334-.915 2.12-.661l13.648 4.41c1.133.368 1.59 1.636.925 2.569"/>
        <path fill="#CED6F1" d="M111.09 271.94H94.63l12.802-22.166s-.904-10.72 2.44-15.575c3.224-4.68 5.486-7.788 7.315-7.189 1.829.599 0 5.392 0 5.392s-1.295 4.058-.076 8.252c0 0 .687-1.064 1.905-.464 1.219.599 3.658 3.594 5.487.599 1.83-2.995 19.51-28.755 19.51-28.755s.61 14.976-7.317 26.359c-7.924 11.381-9.144 11.381-14.631 16.773-5.487 5.392-10.974 14.378-10.974 16.774"/>
        <path fill="#CED6F1" d="M108.04 239.466s-9.753 4.318-17.678 22.889l-11.584-5.991s14.632-18.57 15.852-19.77c1.219-1.197 0-2.395 3.048-5.39 3.048-2.995 7.316-13.18 18.9-17.972l-8.535 12.58s4.877.599 2.437 3.594c-2.437 2.996-7.315 3.595-5.486 4.793 1.83 1.198 4.065 1.61 4.065 1.61s-1.021 2.334-1.02 3.657"/>
        <path fill="#899ED8" d="M17.062 178.983l73.684-5.89c2.734-.217 4.787-2.592 4.565-5.277l-.674-8.15c-.223-2.684-2.64-4.703-5.372-4.484L15.58 161.07c-2.734.219-4.787 2.594-4.564 5.279l.674 8.15c.222 2.685 2.639 4.703 5.371 4.484"/>
        <path fill="#899ED8" d="M13.251 162.76c-1.56-18.838 14.99-34.557 36.866-36.305 21.876-1.749 40.794 11.136 42.352 29.973l-79.218 6.331z"/>
        <path stroke="#617DC0" stroke-linecap="round" stroke-linejoin="round" stroke-width=".609" d="M85.585 155.476l1.433 17.316M91.378 154.712s-62.399-.09-76.874 6.31M76.215 155.023l1.532 18.51M66.894 155.167l1.582 19.107M57.623 155.907l1.582 19.107M48.302 156.051l1.632 19.704M39.032 156.792l1.63 19.704M29.81 158.13l1.581 19.107M20.588 159.468l1.532 18.51"/>
        <path fill="#FFF" d="M127.704 159.801c0 9.674 13.684 17.517 13.684 17.517s11.246-7.843 11.246-17.517-10.043-12.072-13.075 0c-2.863-12.309-11.855-9.674-11.855 0"/>
        <text fill="#FFF" font-family="ConcertOne-Regular, Concert One" font-size="26.089" transform="translate(11)">
            <tspan x="20.87" y="92.197">DESIGNER</tspan>
        </text>
        <path fill="#808084" d="M1090.748 235.497l18.291-6.59-4.878-8.986-14.631-26.36s-2.44-4.791-6.707-4.192c-4.267.599-14.632 2.995-14.632 2.995s-1.83.599-1.83 1.798c0 1.197 2.44 5.99 2.44 5.99l20.118 36.543 1.83-1.198z"/>
        <path fill="#FFF" d="M1103.404 224.612l-14.048 5.112a1.262 1.262 0 0 1-1.553-.596l-15.218-29.354a1.229 1.229 0 0 1 .845-1.764l13.962-3.05a1.26 1.26 0 0 1 1.371.61l15.304 27.29c.372.66.056 1.49-.663 1.752"/>
        <path fill="#CED6F1" d="M1141.351 233.1c-.416-.497-.74-.78-1.188-1.25-7.549-7.924-9.793-9.937-21.98-17.92-12.803-8.387-27.435-8.387-28.044-7.189-.61 1.198 1.829 4.193 7.926 5.392 6.096 1.198 12.803 7.19 12.803 7.19-3.659 3.593-4.267 4.791-3.659 10.183.61 5.391 7.926 10.184 14.633 9.585 6.706-.599 17.728 10.231 17.728 10.231l13.974-6.637s-10.77-7.889-12.193-9.585M1114.526 257.885l-17.68 9.362s-.611-11.383-12.803-23.364c-12.194-11.98-12.804-28.156-12.804-31.15v-8.987l16.461 31.151s3.048 2.397 4.268-1.796c1.219-4.195.61-9.585.61-9.585s0-4.194 3.048-1.797c3.048 2.395 6.707 11.382 5.487 19.17 0 0 13.413 15.2 13.413 16.996"/>
        <path fill="#FFF" d="M1082.638 153.547h4.39c-.149-4.23 1.184-8.352 2.752-9.951 2.187-2.231 2.788.833 2.788.833s.269 4.035 1.882 6.908c.452.8 1.796 2.685 2.012 4.48 1.058.84 1.774 1.856 1.774 2.952v10.61c0 2.879-4.933 5.222-8.1 5.222l-7.498-.6c-3.165 0-5.74-2.342-5.74-5.221v-10.011c0-2.88 2.575-5.222 5.74-5.222M1101.076 173.904h7.498c.689 0 1.246-.548 1.246-1.224v-14.784c0-.676-.557-1.223-1.246-1.223h-7.498c-.689 0-1.246.547-1.246 1.223v14.784c0 .676.557 1.224 1.246 1.224"/>
        <path fill="#CED6F1" d="M1210.244 195.36s-3.048 27.556-4.878 28.155c-1.829.6-28.653 0-28.653 0l.608-9.585s-14.714 7.955-25.297 5.555c-2.705-.613-4.554-2.134-5.8-4.095-3.985-6.269-1.824-17.035-1.824-17.035h-10.974s3.657-13.18 4.267-19.769c.61-6.59 2.438-22.765 4.878-23.963 2.438-1.198 11.583-10.784 11.583-10.784l14.023 9.586 32.312 20.967 7.926 13.18 1.83 7.787z"/>
        <path stroke="#617DC0" stroke-linecap="round" stroke-linejoin="round" stroke-width=".599" d="M1169.396 197.756s0-2.995-4.267-4.792M1163.575 198.488s-9.449 8.319-18.225 5.726"/>
        <path fill="#617DC0" d="M1152.904 176.13c-.376-2.12-1.704-3.662-2.966-3.446-1.263.216-1.981 2.11-1.607 4.227.376 2.12 1.704 3.661 2.966 3.446 1.263-.217 1.981-2.109 1.607-4.228"/>
        <path fill="#7583C0" d="M1215.121 149.83c-7.315-21.566-31.093-26.359-42.677-25.76-4.257.22-11.478.766-18.245 2.734-4.79.864-9.905 2.121-15.241 3.91 0 0-7.498 2.214-15.012.638 0 0 1.72 15.695 16.659 23.577.046.1.088.194.137.293l.275-.073c.044.023.086.048.131.071 0 0 2.55-.627 6.454-1.433 3.48-.554 7.631-.932 10.82-.362 0 0 17.072 28.755 20.12 28.755 0 0-3.66-15.576 4.267-13.18 7.926 2.396 4.878 11.382 4.878 11.382s-4.268 8.987-3.659 10.783l25.606 6.59s12.803-26.359 5.487-47.925"/>
        <text fill="#FFF" font-family="ConcertOne-Regular, Concert One" font-size="26.089" transform="translate(11)">
            <tspan x="1063.79" y="92.198">CONSUMERS</tspan>
        </text>
    </g>
</svg>
