<svg xmlns="http://www.w3.org/2000/svg" xmlns:xlink="http://www.w3.org/1999/xlink" width="72" height="72" viewBox="0 0 72 72">
    <defs>
        <linearGradient id="c" x1="82.201%" x2="-10.213%" y1="89.744%" y2="-54.544%">
            <stop offset="0%" stop-color="#466DFF" stop-opacity=".7"/>
            <stop offset="100%" stop-color="#7E2AB8"/>
        </linearGradient>
        <circle id="b" cx="30" cy="30" r="30"/>
        <filter id="a" width="135%" height="135%" x="-17.5%" y="-12.5%" filterUnits="objectBoundingBox">
            <feOffset dy="3" in="SourceAlpha" result="shadowOffsetOuter1"/>
            <feGaussianBlur in="shadowOffsetOuter1" result="shadowBlurOuter1" stdDeviation="3"/>
            <feColorMatrix in="shadowBlurOuter1" values="0 0 0 0 0 0 0 0 0 0 0 0 0 0 0 0 0 0 0.2 0"/>
        </filter>
    </defs>
    <g fill="none" fill-rule="evenodd">
        <g fill-rule="nonzero" transform="translate(6 3)">
            <use fill="#000" filter="url(#a)" xlink:href="#b"/>
            <use fill="url(#c)" xlink:href="#b"/>
        </g>
        <text fill="#FFF" font-family="Roboto-Bold, Roboto" font-size="14.005" font-weight="bold" letter-spacing=".545">
            <tspan x="23.694" y="48">LIKE</tspan>
        </text>
        <path d="M21.134 29v11.134H10V29z"/>
        <path stroke="#FFF" stroke-width="9.617" d="M18.544 41.401l.082.078 3.493-3.305-7.995-8.447-1.995 1.889-.082-.078-3.493 3.306 7.995 8.446 1.995-1.889z"/>
        <path stroke="#FFF" stroke-width="9.617" d="M18.581 25.083l-1.995-1.888-7.924 8.371 3.493 3.306.082-.078 1.995 1.888 7.924-8.371-3.492-3.306-.083.078z"/>
        <g stroke="#FFF" stroke-linecap="round" stroke-linejoin="round" stroke-width="2.161">
            <path d="M32.948 31.082H29.98c-1.092 0-1.979-.705-1.979-1.574v-5.51c0-.87.887-1.575 1.98-1.575h2.968v8.66z"/>
            <path d="M39.73 20.744v-3.331c0-1.333-1.3-2.413-2.906-2.413l-3.876 7.238v8.844h10.93c.966.01 1.793-.574 1.938-1.367l1.337-7.122c.161-.878-.566-1.698-1.626-1.831a2.367 2.367 0 0 0-.311-.018H39.73z"/>
        </g>
    </g>
</svg>
