<svg xmlns="http://www.w3.org/2000/svg" viewBox="0 0 177.17 177.17"><defs><style>.cls-1{fill:#9d9d9c;}.cls-2{fill:#757575;}</style></defs><title>자산 2</title><g id="레이어_2" data-name="레이어 2"><g id="Layer_5" data-name="Layer 5"><circle class="cls-1" cx="88.59" cy="88.59" r="88.59"/><path class="cls-2" d="M31.06,65.58a3.4,3.4,0,1,1,4.8,4.81L17.63,88.62l18.23,18.24a3.4,3.4,0,1,1-4.8,4.81L10.42,91a3.41,3.41,0,0,1-.75-3.68,3.49,3.49,0,0,1,.75-1.13h0Z"/><path class="cls-2" d="M55,132.82V104.29h4.87l0,23.93H74.27v4.6Z"/><path class="cls-2" d="M77.92,132.9V104.33h4.87V132.9Z"/><path class="cls-2" d="M106.87,132.94l-10.69-13.2-1.48,1.35c-.51.47-.94.85-1.29,1.16V132.9H88.5V104.33h4.91v11.75c1.72-1.64,3.65-3.55,5.78-5.7s4-4.19,5.51-6.09h6q-2.67,3.34-5.6,6.45t-5.4,5.61l13.09,16.59Z"/><path class="cls-2" d="M114.86,132.9V104.33h19.93v4.6h-15V116h14.3v4.56h-14.3v7.72l15.44,0v4.64Z"/><path class="cls-2" d="M122.83,58.06a7.76,7.76,0,0,0-6.19-3.17H103.31V46c0-5.94-5.86-8.09-9.79-8.09-2.7,0-4.79,2.38-6.37,7.29a116.26,116.26,0,0,1-6,10.54l-1.53,2.28H69.93a4.81,4.81,0,0,0-4.73,4.81V87.5a4.8,4.8,0,0,0,4.73,4.8H80.21A4.76,4.76,0,0,0,83.49,91a23.09,23.09,0,0,0,6.33,1.33h18.83c2.6,0,9.51,0,11.11-5.06.51-1.6,1.73-6.41,3-11.5.63-2.46,1.25-4.9,1.76-6.86C125.59,64.87,125,60.81,122.83,58.06ZM79,81.07v5.69H70.74V63.6H79Zm40.1-13.57c-.52,2-1.14,4.42-1.77,6.89-.81,3.22-1.71,6.73-2.32,9h0l0,.19a4.48,4.48,0,0,1-4.08,3l-.41,0-.29,0H110l-.35,0H84.56V60.83l1.33-2,.06-.1c1.35-2.2,5.82-9.58,6.53-11.79A11.89,11.89,0,0,1,94,43.59c1.1.11,3.7.57,3.7,2.45V60.5h18.93a2.25,2.25,0,0,1,1.75,1A7.09,7.09,0,0,1,119.12,67.5Z"/></g></g></svg>