<svg xmlns="http://www.w3.org/2000/svg" xmlns:xlink="http://www.w3.org/1999/xlink" viewBox="0 0 107.1 107.1"><defs><style>.cls-1{fill:url(#linear-gradient);}.cls-2{fill:#fff;}.cls-3{fill:#fcfcfc;}</style><linearGradient id="linear-gradient" x1="6.81" y1="6.81" x2="82.54" y2="82.54" gradientUnits="userSpaceOnUse"><stop offset="0" stop-color="#906dff"/><stop offset="0.6" stop-color="#556cff"/></linearGradient></defs><title>자산 1</title><g id="레이어_2" data-name="레이어 2"><g id="Layer_5" data-name="Layer 5"><circle class="cls-1" cx="53.55" cy="53.55" r="53.55"/><path class="cls-2" d="M18.78,39.64a2.05,2.05,0,0,1,2.9,2.91l-11,11,11,11a2.05,2.05,0,0,1-2.9,2.9L6.3,55a2.05,2.05,0,0,1-.45-2.22,2,2,0,0,1,.45-.68h0Z"/><path class="cls-2" d="M33.26,80.29V63H36.2l0,14.47h8.66v2.78Z"/><path class="cls-2" d="M47.1,80.33V63.06h2.95V80.33Z"/><path class="cls-2" d="M64.6,80.36l-6.46-8-.9.81c-.3.29-.56.52-.78.7v6.44h-3V63.06h3v7.11Q58,68.67,60,66.72T63.29,63H66.9q-1.61,2-3.38,3.9t-3.26,3.39l7.9,10Z"/><path class="cls-2" d="M69.43,80.33V63.06h12v2.79H72.4v4.27H81v2.76H72.4v4.67l9.33,0v2.8Z"/><path class="cls-3" d="M74.25,35.1a4.69,4.69,0,0,0-3.74-1.92H62.45V27.83c0-3.59-3.54-4.89-5.92-4.89-1.63,0-2.89,1.44-3.85,4.4a70,70,0,0,1-3.6,6.38l-.92,1.38H42.27A2.9,2.9,0,0,0,39.41,38V52.89a2.9,2.9,0,0,0,2.86,2.9h6.21a2.89,2.89,0,0,0,2-.79,13.87,13.87,0,0,0,3.82.8H65.67c1.58,0,5.76,0,6.72-3.05.31-1,1-3.88,1.83-7,.38-1.48.75-3,1.06-4.14A7.64,7.64,0,0,0,74.25,35.1ZM47.76,49v3.44h-5v-14h5ZM72,40.8c-.31,1.19-.68,2.67-1.06,4.17-.5,1.94-1,4.06-1.41,5.46h0l0,.11A2.7,2.7,0,0,1,67,52.38l-.25,0H51.11V36.77l.81-1.2,0,0a65.08,65.08,0,0,0,3.95-7.14,7.21,7.21,0,0,1,.93-2c.66.06,2.23.34,2.23,1.48v8.74H70.51a1.36,1.36,0,0,1,1.06.6A4.24,4.24,0,0,1,72,40.8Z"/></g></g></svg>