<svg xmlns="http://www.w3.org/2000/svg" width="27" height="27" viewBox="0 0 27 27">
    <path fill="#FFF" fill-rule="evenodd" d="M20.839 20.236h-2.583v-5.832c0-1.627-.581-2.44-1.742-2.44a1.73 1.73 0 0 0-1.384.645c-.362.432-.544.978-.544 1.641v5.986h-2.593V9.74h2.593v1.66h.041C15.4 10.122 16.524 9.699 18 9.699c1.372 0 2.839.95 2.839 4.11v6.427zM8.654 8.929a1.48 1.48 0 1 1 0-2.962 1.482 1.482 0 1 1 0 2.962zM7.358 20.236h2.593V9.74H7.358v10.496zM13.575.296C6.383.296.553 6.126.553 13.317c0 7.192 5.83 13.023 13.022 13.023s13.022-5.831 13.022-13.023c0-7.191-5.83-13.021-13.022-13.021z"/>
</svg>
