<?xml version="1.0" encoding="utf-8"?>
<!-- Generator: Adobe Illustrator 23.0.1, SVG Export Plug-In . SVG Version: 6.00 Build 0)  -->
<svg version="1.1" id="레이어_1" xmlns="http://www.w3.org/2000/svg" xmlns:xlink="http://www.w3.org/1999/xlink" x="0px"
	 y="0px" viewBox="0 0 16 16" style="enable-background:new 0 0 16 16;" xml:space="preserve">
<style type="text/css">
	.st0{fill:#0B6292;}
	.st1{fill:#FFFFFF;}
</style>
<g>
	<path class="st0" d="M15.88,14.39c0,0.88-0.71,1.6-1.59,1.6H1.66c-0.88,0-1.59-0.72-1.59-1.6V1.59c0-0.88,0.71-1.6,1.59-1.6h12.62
		c0.88,0,1.59,0.72,1.59,1.6V14.39z"/>
	<g>
		<path class="st1" d="M5.14,3.9c0,0.59-0.43,1.06-1.15,1.06c-0.67,0-1.11-0.48-1.11-1.06c0-0.6,0.45-1.06,1.13-1.06
			C4.71,2.84,5.13,3.3,5.14,3.9z M2.95,12.65V5.8h2.13v6.84H2.95z"/>
		<path class="st1" d="M6.35,7.99c0-0.85-0.03-1.57-0.06-2.18h1.85l0.1,0.95h0.04c0.28-0.45,0.97-1.11,2.11-1.11
			c1.4,0,2.45,0.94,2.45,2.95v4.04h-2.13V8.86c0-0.88-0.31-1.48-1.08-1.48c-0.59,0-0.94,0.41-1.09,0.8C8.49,8.31,8.47,8.51,8.47,8.7
			v3.95H6.35V7.99z"/>
	</g>
</g>
</svg>
