<svg xmlns="http://www.w3.org/2000/svg" xmlns:xlink="http://www.w3.org/1999/xlink" width="80" height="30" viewBox="0 0 80 30">
    <defs>
        <path id="a" d="M0 .399h12.082V18.06H0z"/>
        <path id="c" d="M.37.255h12.239v16.82H.369z"/>
        <path id="e" d="M.418.207H7.68v10.725H.418z"/>
    </defs>
    <g fill="none" fill-rule="evenodd">
        <path d="M0 0h80v30H0z"/>
        <g transform="translate(2 10.6)">
            <mask id="b" fill="#fff">
                <use xlink:href="#a"/>
            </mask>
            <path fill="#353535" d="M7.407 4.204c-.384-.378-.832-.567-1.345-.567-.512 0-.967.161-1.366.483-.399.323-.597.708-.597 1.156 0 .786.427 1.333 1.28 1.64a32.59 32.59 0 0 1 2.476 1.01c.997.449 1.95.973 2.861 1.577.91.603 1.366 1.73 1.366 3.384 0 1.318-.58 2.517-1.738 3.595-1.158 1.08-2.572 1.605-4.24 1.577-1.978 0-3.49-.616-4.535-1.85C.522 14.976 0 13.73 0 12.467H3.63c0 .533.208 1.059.624 1.577.417.519 1.027.777 1.831.777.776 0 1.364-.244 1.766-.735.402-.49.603-.876.603-1.157 0-.504-.143-.931-.426-1.282-.286-.35-.784-.666-1.495-.946-1.167-.505-2.47-1.065-3.906-1.682C1.188 8.402.47 7.183.47 5.36c0-1.29.555-2.439 1.666-3.449C3.248.903 4.556.4 6.062.4c1.68 0 3.024.519 4.035 1.556 1.01 1.037 1.558 2.172 1.644 3.406H7.984c0-.392-.193-.779-.577-1.157" mask="url(#b)"/>
        </g>
        <path fill="#353535" d="M16.385 11.852h3.672v6.301H27.1v-6.301h3.672v16.367h-3.672v-6.915h-7.042v6.915h-3.672zM40.453 15.74l-2.402 5.564h4.805l-2.403-5.565zm-1.878-3.888h3.756l7.251 16.367H45.87l-1.66-3.765h-7.556l-1.616 3.765h-3.713l7.251-16.367zM54.943 15.003v3.764h3.712c.501 0 .987-.136 1.458-.409.471-.272.708-.75.708-1.432 0-.71-.237-1.207-.708-1.494a2.775 2.775 0 0 0-1.458-.43h-3.712zm7.912-1.74c1.11.942 1.666 2.163 1.666 3.663 0 1.473-.559 2.674-1.677 3.6-1.117.928-2.343 1.392-3.678 1.392h-4.223v6.301h-3.7V11.852H59.2c1.327 0 2.546.47 3.655 1.411z"/>
        <g transform="translate(65.627 11.852)">
            <mask id="d" fill="#fff">
                <use xlink:href="#c"/>
            </mask>
            <path fill="#353535" d="M.37.255h3.663v13.582h8.576v3.238H.369z" mask="url(#d)"/>
        </g>
        <g transform="translate(11.853)">
            <mask id="f" fill="#fff">
                <use xlink:href="#e"/>
            </mask>
            <path fill="#353535" d="M.418 10.648l.025-3.089.19.008c.232.785.509 1.405.83 1.858.602.835 1.359 1.253 2.27 1.253.636 0 1.161-.192 1.576-.576.414-.383.621-.87.621-1.458 0-.255-.045-.514-.136-.778a2.206 2.206 0 0 0-.369-.68 2.731 2.731 0 0 0-.676-.561c-.29-.18-.734-.407-1.33-.681-.526-.24-.928-.441-1.207-.606a3.434 3.434 0 0 1-.675-.501 2.313 2.313 0 0 1-.713-1.713c0-.413.092-.812.277-1.197a2.91 2.91 0 0 1 .776-.986c.586-.489 1.28-.734 2.08-.734.26 0 .5.025.721.072.222.047.518.14.888.28.276.1.464.163.563.19.1.029.188.042.266.042.193 0 .323-.127.39-.381h.19l.058 2.969h-.19a12.612 12.612 0 0 0-.385-1.089 3.93 3.93 0 0 0-.385-.699c-.27-.389-.569-.676-.894-.863A2.213 2.213 0 0 0 4.053.447c-.617 0-1.105.19-1.464.569a1.718 1.718 0 0 0-.352.546 1.66 1.66 0 0 0-.128.63c0 .832.593 1.504 1.78 2.013l1.167.51c.899.384 1.548.808 1.945 1.272.453.519.679 1.123.679 1.812 0 .457-.102.895-.307 1.313a3.038 3.038 0 0 1-1.293 1.346c-.575.316-1.252.474-2.031.474a5.648 5.648 0 0 1-2.056-.381 12.963 12.963 0 0 0-.614-.232.782.782 0 0 0-.224-.03c-.265 0-.447.12-.547.359h-.19z" mask="url(#f)"/>
        </g>
        <path fill="#353535" d="M24.742 5.553h5.766V3.03c0-.539-.031-.937-.093-1.194a1.318 1.318 0 0 0-.345-.636 1.36 1.36 0 0 0-.516-.33 2.737 2.737 0 0 0-.76-.126v-.18h5.19v.18a2.712 2.712 0 0 0-.751.126 1.365 1.365 0 0 0-.516.33 1.312 1.312 0 0 0-.345.64c-.062.26-.093.656-.093 1.19v5.79c0 .534.03.93.093 1.187.062.256.177.47.345.643.152.147.324.256.516.326s.443.115.75.13v.18h-5.188v-.18c.313-.015.567-.06.76-.13.191-.07.363-.179.515-.326.168-.167.283-.38.345-.636s.093-.654.093-1.194V5.922h-5.766v2.899c0 .534.031.93.094 1.19.062.26.177.473.345.64.146.147.315.256.507.326.193.07.446.115.76.13v.18h-5.19v-.18c.314-.015.567-.06.76-.13.192-.07.361-.179.507-.326.173-.167.29-.38.35-.636s.089-.654.089-1.194V3.03c0-.539-.03-.937-.09-1.194a1.263 1.263 0 0 0-.349-.636 1.293 1.293 0 0 0-.511-.33 2.757 2.757 0 0 0-.756-.126v-.18h5.19v.18c-.309.016-.56.058-.751.126a1.363 1.363 0 0 0-.516.33 1.317 1.317 0 0 0-.345.64c-.063.26-.094.656-.094 1.19v2.522zM41.477 6.653l-1.75-4.07-1.65 4.07h3.4zm5.232 4.635h-5.474v-.181c.495-.042.84-.12 1.034-.235.344-.205.516-.488.516-.85 0-.214-.078-.502-.234-.864l-.141-.33-.8-1.853h-3.665l-.434 1.084-.208.487c-.25.576-.375 1.03-.375 1.359a1.153 1.153 0 0 0 .508.95c.217.142.494.226.833.252v.18h-3.732v-.18c.294-.016.553-.084.775-.204.222-.121.439-.314.65-.581.177-.216.35-.492.52-.83.17-.337.393-.844.671-1.52l3.05-7.408h.474l3.624 8.257c.272.623.49 1.068.65 1.335.161.268.336.47.525.605.133.094.286.166.458.216.172.05.431.093.775.13v.18zM50.669 5.749h.778c.524 0 .927-.037 1.21-.113a1.8 1.8 0 0 0 .759-.42c.519-.467.778-1.087.778-1.863 0-.43-.075-.823-.227-1.182a2.18 2.18 0 0 0-.647-.876 2.117 2.117 0 0 0-1.15-.471c-.122-.01-.4-.016-.834-.016h-.667V5.75zm0 .251v2.82c0 .535.03.932.09 1.191a1.327 1.327 0 0 0 .835.966c.187.07.435.114.742.13v.18h-5.073v-.18a2.51 2.51 0 0 0 .742-.13c.188-.07.353-.18.496-.326.17-.167.283-.38.342-.636.058-.256.087-.655.087-1.195V3.032c0-.45-.02-.798-.06-1.041a1.604 1.604 0 0 0-.202-.594 1.296 1.296 0 0 0-.524-.467c-.212-.103-.487-.163-.826-.184h-.055V.564h4.787c.837 0 1.453.043 1.85.126.397.084.76.252 1.088.503.752.566 1.127 1.32 1.127 2.263 0 .958-.381 1.66-1.143 2.104-.397.231-.879.37-1.445.417-.18.016-.614.023-1.302.023H50.67zM57.222 11.288v-.189c.555 0 .984-.15 1.287-.448.17-.167.287-.38.35-.64s.095-.656.095-1.19V3.03c0-.555-.034-.965-.103-1.23a1.281 1.281 0 0 0-.383-.647 1.484 1.484 0 0 0-.516-.3 2.685 2.685 0 0 0-.73-.109v-.18h5.272v.18c-.302.015-.55.055-.742.118a1.375 1.375 0 0 0-.512.298 1.3 1.3 0 0 0-.38.652c-.066.262-.099.668-.099 1.218v4.533c0 .697.02 1.215.058 1.555.038.341.113.619.223.833.193.377.478.654.859.83.378.174.882.262 1.51.262.653 0 1.205-.082 1.653-.247.449-.165.816-.42 1.102-.767.192-.235.35-.502.474-.801a7.01 7.01 0 0 0 .343-1.178l.198.015-.108 3.222h-9.851z"/>
    </g>
</svg>
