<svg xmlns="http://www.w3.org/2000/svg" xmlns:xlink="http://www.w3.org/1999/xlink" width="49" height="43" viewBox="0 0 49 43">
    <defs>
        <path id="a" d="M0 0h49v46H0z"/>
    </defs>
    <g fill="none" fill-rule="evenodd" transform="translate(0 -2)">
        <mask id="b" fill="#fff">
            <use xlink:href="#a"/>
        </mask>
        <g mask="url(#b)">
            <path fill="#F2F2F2" d="M41.947 11.138a3.607 3.607 0 0 0-1.435-1.276L26.023 2.679a3.65 3.65 0 0 0-3.223 0L8.31 9.862a3.606 3.606 0 0 0-1.428 1.267l17.53 8.7 17.535-8.691z"/>
            <path fill="#B3B3B3" d="M7.278 11.03l17.134 8.504 17.14-8.495a3.346 3.346 0 0 0-1.158-.941l-14.49-7.184a3.4 3.4 0 0 0-2.986 0L8.429 10.098c-.449.222-.842.541-1.15.934m17.132 9.061a.268.268 0 0 1-.118-.028l-17.53-8.7a.265.265 0 0 1-.104-.378c.38-.583.91-1.053 1.533-1.36l14.489-7.183a3.939 3.939 0 0 1 3.46 0l14.49 7.183a3.876 3.876 0 0 1 1.54 1.37.261.261 0 0 1-.105.377L24.53 20.064a.267.267 0 0 1-.119.028"/>
            <path fill="#B3B3B3" d="M24.677 19.991v20.702c.426-.035.846-.151 1.227-.34l14.49-7.184a3.307 3.307 0 0 0 1.863-2.979V13.076c0-.558-.142-1.104-.412-1.593L24.677 19.99zm-.266 21.24a.267.267 0 0 1-.265-.263v-21.14c0-.1.057-.19.147-.235l17.535-8.69c.122-.061.269-.02.342.092.404.624.618 1.344.618 2.081V30.19a3.83 3.83 0 0 1-2.157 3.45l-14.489 7.184a3.937 3.937 0 0 1-1.73.407z"/>
            <path fill="#B3B3B3" d="M6.984 11.474a3.294 3.294 0 0 0-.418 1.603v17.095a3.306 3.306 0 0 0 1.846 2.998L22.9 40.352c.388.193.813.309 1.246.342V19.991L6.984 11.474zM24.403 41.23c-.602 0-1.203-.14-1.74-.407L8.173 33.64a3.83 3.83 0 0 1-2.138-3.47V13.076c0-.741.216-1.464.624-2.09a.267.267 0 0 1 .342-.093l17.53 8.7c.09.045.146.136.146.236v21.139a.265.265 0 0 1-.265.263h-.01z"/>
            <path fill="#F2F2F2" d="M.93 14.712a3.565 3.565 0 0 0-.582 1.948v17.096a3.588 3.588 0 0 0 1.992 3.232l14.49 7.183c.512.255 1.07.381 1.63.38V23.41L.93 14.713z"/>
            <path fill="#B3B3B3" d="M1.031 15.057a3.294 3.294 0 0 0-.417 1.603v17.096a3.306 3.306 0 0 0 1.846 2.997l14.488 7.183c.387.192.813.308 1.245.341V23.575L1.031 15.057zm17.42 29.757c-.602 0-1.204-.14-1.74-.407L2.22 37.224a3.83 3.83 0 0 1-2.139-3.47V16.66c0-.742.217-1.465.625-2.09l.13-.199 17.888 8.878v21.565h-.275z"/>
            <path fill="#F2F2F2" d="M30.576 23.517v21.14a3.645 3.645 0 0 0 1.612-.38l14.49-7.183a3.589 3.589 0 0 0 2.01-3.215V16.765c0-.701-.209-1.37-.576-1.938l-17.536 8.69z"/>
            <path fill="#B3B3B3" d="M30.842 23.68v20.701c.426-.035.846-.15 1.227-.34l14.49-7.183a3.307 3.307 0 0 0 1.863-2.979V16.765c0-.558-.142-1.104-.413-1.593L30.842 23.68zm-.531 21.24V23.354l17.895-8.869.129.2c.404.623.618 1.342.618 2.08v17.114a3.83 3.83 0 0 1-2.158 3.45l-14.488 7.184a3.937 3.937 0 0 1-1.73.407h-.266z"/>
        </g>
    </g>
</svg>
