<svg xmlns="http://www.w3.org/2000/svg" xmlns:xlink="http://www.w3.org/1999/xlink" viewBox="0 0 107.1 107.1"><defs><style>.cls-1{fill:#f4f4f4;}.cls-2{fill:#476bff;}.cls-3{fill:url(#linear-gradient);}</style><linearGradient id="linear-gradient" x1="-305.17" y1="30.01" x2="-328.66" y2="53.5" gradientTransform="matrix(-1, 0, 0, 1, -270.31, 0)" gradientUnits="userSpaceOnUse"><stop offset="0" stop-color="#906dff"/><stop offset="0.24" stop-color="#766dff"/><stop offset="0.53" stop-color="#5e6cff"/><stop offset="0.7" stop-color="#556cff"/></linearGradient></defs><title>자산 2</title><g id="레이어_2" data-name="레이어 2"><g id="Layer_5" data-name="Layer 5"><circle class="cls-1" cx="53.55" cy="53.55" r="53.55"/><path class="cls-2" d="M88.32,39.62a2.05,2.05,0,0,0-2.9,2.9l11,11-11,11a2.05,2.05,0,0,0,2.9,2.91L100.8,55a2,2,0,0,0,0-2.9h0Z"/><path class="cls-3" d="M71.81,38A4.84,4.84,0,0,0,67,33.19H49.57a4.68,4.68,0,0,0-3.13-2.63c-3.72-.85-7.94,3.36-8.75,4.21h0a1.75,1.75,0,0,0-.29.42l-.26,0-.22,0h-6A2.89,2.89,0,0,0,28,38h0V52.92a2.89,2.89,0,0,0,2.86,2.9h6a2.6,2.6,0,0,0,.4,0l.09,0a2.34,2.34,0,0,0,.38-.09h0a2.75,2.75,0,0,0,.36-.15l.05,0a2.39,2.39,0,0,0,.34-.21h0a1.69,1.69,0,0,0,1.23.54H50c1.58,0,5.76,0,6.72-3.06.31-1,1-3.88,1.83-7,.26-1,.52-2,.75-3H67A4.83,4.83,0,0,0,71.81,38ZM36.39,52.48h-5V50.05h0V40.9h0V38.48h5V40.9h0v9.15h0ZM68.43,38A1.45,1.45,0,0,1,67,39.48H56.54a5.68,5.68,0,0,1-.19,1.34C56,42,55.67,43.49,55.29,45c-.5,1.94-1,4.06-1.41,5.46h0l0,.11a2.7,2.7,0,0,1-2.46,1.84l-.25,0H39.74V38h0c0-.1,0-.2,0-.3h0a2.36,2.36,0,0,0,0-.28,1.6,1.6,0,0,0,.47-.35h0c1.47-1.55,4.21-3.54,5.54-3.24.46.11.84.63,1.13,1.54h0a1.68,1.68,0,0,0,1.58,1.18H67A1.45,1.45,0,0,1,68.43,38Z"/><path class="cls-2" d="M76.39,72.68a5.36,5.36,0,0,0-2-1.81,11.5,11.5,0,0,0-2.73-1,21.72,21.72,0,0,1-2.26-.62,6.59,6.59,0,0,1-1.55-.84A1.5,1.5,0,0,1,67.2,67a2.24,2.24,0,0,1,.69-1.43,3.29,3.29,0,0,1,2.37-.66,3.19,3.19,0,0,1,2.5.88,3,3,0,0,1,.81,2h3a6,6,0,0,0-1.35-3.63q-1.45-2.1-5-2.1a6.17,6.17,0,0,0-4.6,1.53A5,5,0,0,0,64,66.8a4,4,0,0,0,.81,2.91,6.31,6.31,0,0,0,2.59,1.83A12,12,0,0,0,70,72.3a7.93,7.93,0,0,1,2.35.78,3.1,3.1,0,0,1,1.25,1,1.68,1.68,0,0,1,.27,1.43,2.44,2.44,0,0,1-1,1.5,4.26,4.26,0,0,1-2.4.57,4.19,4.19,0,0,1-2.88-1A3.27,3.27,0,0,1,66.33,74H63.39a5.83,5.83,0,0,0,1.8,4.29,6.74,6.74,0,0,0,5.19,2.08,7.12,7.12,0,0,0,4.76-1.48A5,5,0,0,0,77,75.47,4.1,4.1,0,0,0,76.39,72.68Z"/><path class="cls-2" d="M60,70.87a11.5,11.5,0,0,0-2.73-1A21.72,21.72,0,0,1,55,69.24a6.79,6.79,0,0,1-1.55-.84A1.47,1.47,0,0,1,52.79,67a2.24,2.24,0,0,1,.69-1.43,3.25,3.25,0,0,1,2.36-.66,3.19,3.19,0,0,1,2.5.88,3.08,3.08,0,0,1,.82,2H62.1a6,6,0,0,0-1.35-3.63q-1.45-2.1-5-2.1a6.18,6.18,0,0,0-4.6,1.53,5.06,5.06,0,0,0-1.61,3.16,4,4,0,0,0,.82,2.91A6.28,6.28,0,0,0,53,71.54a12,12,0,0,0,2.55.76,7.93,7.93,0,0,1,2.35.78,3,3,0,0,1,1.25,1,1.68,1.68,0,0,1,.27,1.43,2.44,2.44,0,0,1-1,1.5,4.26,4.26,0,0,1-2.4.57,4.21,4.21,0,0,1-2.88-1A3.27,3.27,0,0,1,51.91,74H49a5.83,5.83,0,0,0,1.8,4.29A6.74,6.74,0,0,0,56,80.37a7.12,7.12,0,0,0,4.76-1.48,5,5,0,0,0,1.88-3.42A4.1,4.1,0,0,0,62,72.68,5.36,5.36,0,0,0,60,70.87Z"/><path class="cls-2" d="M32,64.23a5.75,5.75,0,0,0-4.12-1.64H20.8V79.91h3V73.63h4.12A5.75,5.75,0,0,0,32,72a5.24,5.24,0,0,0,0-7.76Zm-2.41,6a4,4,0,0,1-2.13.62h-3.7V65.4h3.7a3.94,3.94,0,0,1,2.13.63,2.27,2.27,0,0,1,1,2.08A2.3,2.3,0,0,1,29.62,70.23Z"/><path class="cls-2" d="M39.68,62.55l-6.6,17.31h3.08l1.5-3.93h7.49l1.5,3.91h3.12L43.15,62.55Zm-1,10.64,2.72-7.1,2.66,7.1Z"/></g></g></svg>