<svg xmlns="http://www.w3.org/2000/svg" width="16" height="14" viewBox="0 0 16 14">
    <path fill="none" fill-rule="evenodd" stroke="#466DFF" stroke-width="2" d="M8 12.985c.527-.453.968-.825 1.799-1.522 2.258-1.892 3.086-2.639 3.85-3.544C14.586 6.804 15 5.808 15 4.729c0-1.044-.358-1.991-.999-2.675A3.337 3.337 0 0 0 11.531 1c-.705 0-1.338.215-1.91.65a4.097 4.097 0 0 0-.815.84L8 3.585 7.194 2.49a4.102 4.102 0 0 0-.816-.84A3.068 3.068 0 0 0 4.47 1c-.961 0-1.833.373-2.471 1.054C1.358 2.738 1 3.685 1 4.729c0 1.079.413 2.075 1.352 3.19.762.905 1.59 1.65 3.865 3.558l-.013-.01c.831.695 1.27 1.066 1.796 1.518zm.034.029z"/>
</svg>
