<?xml version="1.0" encoding="UTF-8"?>
<svg width="179px" height="166px" viewBox="0 0 179 166" version="1.1" xmlns="http://www.w3.org/2000/svg" xmlns:xlink="http://www.w3.org/1999/xlink">
    <!-- Generator: sketchtool 48.2 (47327) - http://www.bohemiancoding.com/sketch -->
    <title>BEE77393-F9FE-444F-AF0F-A29A388E3A34</title>
    <desc>Created with sketchtool.</desc>
    <defs>
        <polygon id="path-1" points="0 0.0835 136.6258 0.0835 136.6258 118.1515 0 118.1515"></polygon>
        <polygon id="path-3" points="0.2797 0.408549952 42.529 0.408549952 42.529 35.5673 0.2797 35.5673"></polygon>
    </defs>
    <g id="5-SHOP_living_Thermal-Bottle-(SHAPL)-" stroke="none" stroke-width="1" fill="none" fill-rule="evenodd" transform="translate(-383.000000, -4338.000000)">
        <g id="Group-9" transform="translate(0.000000, 4249.000000)">
            <g id="Page-1" transform="translate(383.000000, 89.000000)">
                <path d="M117.6104,32.7231 L106.1844,42.1981 C114.6274,51.3641 119.7974,63.5871 119.7974,77.0291 C119.7974,105.4631 96.7444,128.5071 68.3084,128.5071 C39.8824,128.5071 16.8304,105.4631 16.8304,77.0291 C16.8304,60.0111 25.0934,44.9231 37.8234,35.5501 L22.0114,29.5901 C9.6714,41.6271 2.0004,58.4261 2.0004,77.0291 C2.0004,113.6531 31.6934,143.3371 68.3084,143.3371 C104.9324,143.3371 134.6264,113.6531 134.6264,77.0291 C134.6264,59.9861 128.1794,44.4641 117.6104,32.7231" id="Fill-1" fill="#FFFFFF"></path>
                <g id="Group-5" transform="translate(0.000000, 27.186000)">
                    <mask id="mask-2" fill="white">
                        <use xlink:href="#path-1"></use>
                    </mask>
                    <g id="Clip-4"></g>
                    <path d="M22.5098,4.7295 C10.5628,16.8345 3.9998,32.8045 3.9998,49.8425 C3.9998,85.3025 32.8488,114.1515 68.3088,114.1515 C103.7738,114.1515 132.6258,85.3025 132.6258,49.8425 C132.6258,34.5955 127.2288,19.9275 117.3868,8.3205 L109.0518,15.2325 C117.2858,24.9025 121.7968,37.1105 121.7968,49.8425 C121.7968,79.3315 97.8018,103.3215 68.3088,103.3215 C38.8208,103.3215 14.8298,79.3315 14.8298,49.8425 C14.8298,34.1205 21.8638,19.1035 33.8088,8.9885 L22.5098,4.7295 Z M68.3088,118.1515 C30.6438,118.1515 -0.0002,87.5075 -0.0002,49.8425 C-0.0002,31.2945 7.3218,13.9395 20.6148,0.9725 L21.5268,0.0835 L41.9748,7.7925 L39.0088,9.9745 C26.3738,19.2785 18.8298,34.1825 18.8298,49.8425 C18.8298,77.1255 41.0268,99.3215 68.3088,99.3215 C95.5968,99.3215 117.7968,77.1255 117.7968,49.8425 C117.7968,37.4155 113.1508,25.5265 104.7138,16.3665 L103.2858,14.8175 L117.8118,2.7715 L119.0968,4.1995 C130.4008,16.7555 136.6258,32.9655 136.6258,49.8425 C136.6258,87.5075 105.9788,118.1515 68.3088,118.1515 Z" id="Fill-3" fill="#000000" mask="url(#mask-2)"></path>
                </g>
                <path d="M80.2637,72.0698 C73.1187,74.5998 76.9747,69.9658 69.8297,72.4968 C61.8077,75.3388 58.1587,80.0198 52.9957,86.7868 C46.9557,94.7038 60.4727,100.8168 49.8047,115.3908 C65.5177,116.4088 55.9587,128.5318 55.3947,135.7518 C55.0887,139.6568 52.3617,143.2338 48.7297,144.7028 C45.0977,146.1728 40.7347,145.5408 37.5747,143.2248 C30.9047,138.3388 34.7097,126.3488 32.9957,119.7868 C31.5757,114.3428 26.5027,110.2468 26.3847,104.6218 C26.0777,90.0058 23.7317,72.3918 30.6397,58.0158 C35.2987,48.3208 44.1597,40.7348 54.4557,37.6248 C64.7537,34.5148 76.3307,35.9278 85.5787,41.4238 C90.0667,44.0908 94.3967,48.7168 93.3887,53.8398 C96.2207,51.4728 100.8067,51.5738 103.5327,54.0628 C105.0007,55.4038 105.8927,57.2528 106.6517,59.0908 C112.1977,72.5358 112.2807,88.1448 106.8767,101.6488 C101.4737,115.1518 90.6477,126.3958 77.3577,132.3038 C74.1747,108.7898 69.3917,93.1618 80.2637,72.0698" id="Fill-6" fill="#000000"></path>
                <path d="M42.9961,163.186 L42.9961,135.648 C42.9961,125.824 51.0341,117.787 60.8581,117.787 L73.1351,117.787 C82.9591,117.787 90.9961,125.824 90.9961,135.648 L90.9961,163.186" id="Fill-8" fill="#FFFFFF"></path>
                <path d="M90.9961,165.186 C89.8921,165.186 88.9961,164.29 88.9961,163.186 L88.9961,135.648 C88.9961,126.902 81.8811,119.787 73.1351,119.787 L60.8581,119.787 C52.1121,119.787 44.9961,126.902 44.9961,135.648 L44.9961,163.186 C44.9961,164.29 44.1001,165.186 42.9961,165.186 C41.8921,165.186 40.9961,164.29 40.9961,163.186 L40.9961,135.648 C40.9961,124.697 49.9061,115.787 60.8581,115.787 L73.1351,115.787 C84.0861,115.787 92.9961,124.697 92.9961,135.648 L92.9961,163.186 C92.9961,164.29 92.1001,165.186 90.9961,165.186" id="Fill-10" fill="#000000"></path>
                <path d="M68.9961,135.2866 C66.5211,135.2866 64.4961,133.2616 64.4961,130.7866 L64.4961,119.7856 C64.4961,117.3106 66.5211,115.2866 68.9961,115.2866 C71.4721,115.2866 73.4961,117.3106 73.4961,119.7856 L73.4961,130.7866 C73.4961,133.2616 71.4721,135.2866 68.9961,135.2866" id="Fill-12" fill="#FFFFFF"></path>
                <path d="M68.9961,116.7866 C67.3421,116.7866 65.9961,118.1326 65.9961,119.7856 L65.9961,130.7866 C65.9961,132.4406 67.3421,133.7866 68.9961,133.7866 C70.6501,133.7866 71.9961,132.4406 71.9961,130.7866 L71.9961,119.7856 C71.9961,118.1326 70.6501,116.7866 68.9961,116.7866 M68.9961,136.7866 C65.6871,136.7866 62.9961,134.0956 62.9961,130.7866 L62.9961,119.7856 C62.9961,116.4776 65.6871,113.7866 68.9961,113.7866 C72.3051,113.7866 74.9961,116.4776 74.9961,119.7856 L74.9961,130.7866 C74.9961,134.0956 72.3051,136.7866 68.9961,136.7866" id="Fill-14" fill="#000000"></path>
                <path d="M69.5967,125.1421 C57.7787,125.1421 48.1977,115.5611 48.1977,103.7431 L48.1977,83.8291 C48.1977,72.0111 57.7787,62.4301 69.5967,62.4301 C81.4147,62.4301 90.9957,72.0111 90.9957,83.8291 L90.9957,103.7431 C90.9957,115.5611 81.4147,125.1421 69.5967,125.1421" id="Fill-16" fill="#FFFFFF"></path>
                <path d="M69.5967,64.4301 C58.8997,64.4301 50.1977,73.1321 50.1977,83.8291 L50.1977,103.7431 C50.1977,114.4401 58.8997,123.1421 69.5967,123.1421 C80.2937,123.1421 88.9957,114.4401 88.9957,103.7431 L88.9957,83.8291 C88.9957,73.1321 80.2937,64.4301 69.5967,64.4301 M69.5967,127.1421 C56.6947,127.1421 46.1977,116.6451 46.1977,103.7431 L46.1977,83.8291 C46.1977,70.9271 56.6947,60.4301 69.5967,60.4301 C82.4987,60.4301 92.9957,70.9271 92.9957,83.8291 L92.9957,103.7431 C92.9957,116.6451 82.4987,127.1421 69.5967,127.1421" id="Fill-18" fill="#000000"></path>
                <path d="M64.3594,91.8462 C63.4704,91.8462 62.7434,91.1192 62.7434,90.2302 L62.7434,83.1182 C62.7434,82.2302 63.4704,81.5022 64.3594,81.5022 C65.2494,81.5022 65.9764,82.2302 65.9764,83.1182 L65.9764,90.2302 C65.9764,91.1192 65.2494,91.8462 64.3594,91.8462" id="Fill-20" fill="#000000"></path>
                <path d="M80.5225,91.8462 C79.6335,91.8462 78.9065,91.1192 78.9065,90.2302 L78.9065,83.1182 C78.9065,82.2302 79.6335,81.5022 80.5225,81.5022 C81.4115,81.5022 82.1385,82.2302 82.1385,83.1182 L82.1385,90.2302 C82.1385,91.1192 81.4115,91.8462 80.5225,91.8462" id="Fill-22" fill="#000000"></path>
                <polygon id="Fill-24" fill="#FFFFFF" points="61.7734 91.2231 59.4884 88.9371 61.7734 86.6521 64.0594 88.9371"></polygon>
                <polygon id="Fill-26" fill="#FFFFFF" points="77.9365 91.2231 75.6505 88.9371 77.9365 86.6521 80.2225 88.9371"></polygon>
                <path d="M74.8945,94.4965 C75.7185,95.9335 77.2065,96.5945 78.8265,96.6425 C79.7665,96.6715 80.7065,96.3695 81.6445,96.4425 C82.0435,96.4735 81.9175,96.3535 81.6695,96.5245 C81.2825,96.7945 80.9185,97.0385 80.4805,97.2505 C78.7425,98.0895 80.2615,100.6775 81.9945,99.8405 C83.9465,98.8985 85.9965,96.5245 84.1005,94.4435 C83.3895,93.6635 82.3025,93.4155 81.2795,93.4425 C80.1625,93.4735 78.1815,94.1985 77.4845,92.9815 C76.5245,91.3085 73.9315,92.8165 74.8945,94.4965" id="Fill-28" fill="#000000"></path>
                <path d="M59.6846,103.0073 C61.5926,107.2553 66.3786,109.2063 70.7346,107.5933 C72.5296,106.9293 71.7526,104.0283 69.9366,104.7003 C66.7206,105.8923 63.6746,104.6113 62.2746,101.4923 C61.4856,99.7353 58.8996,101.2583 59.6846,103.0073" id="Fill-30" fill="#000000"></path>
                <path d="M86.0518,62.9946 C72.1858,73.7156 54.5388,79.4406 37.0198,78.9026 C43.0928,72.3866 49.3418,65.7346 57.2948,61.7226 C65.2468,57.7096 75.3868,56.8146 82.7758,61.7916" id="Fill-32" fill="#000000"></path>
                <path d="M45.9961,101.7866 C42.6961,101.7866 39.9961,99.0866 39.9961,95.7866 L39.9961,91.7856 C39.9961,88.4856 42.6961,85.7866 45.9961,85.7866" id="Fill-34" fill="#FFFFFF"></path>
                <path d="M45.9961,103.7866 C41.5851,103.7866 37.9961,100.1976 37.9961,95.7866 L37.9961,91.7856 C37.9961,87.3746 41.5851,83.7866 45.9961,83.7866 L45.9961,87.7866 C43.7901,87.7866 41.9961,89.5806 41.9961,91.7856 L41.9961,95.7866 C41.9961,97.9926 43.7901,99.7866 45.9961,99.7866 L45.9961,103.7866 Z" id="Fill-36" fill="#0F0F0F"></path>
                <polygon id="Fill-38" fill="#FFFFFF" points="124.0742 36.2212 115.6372 26.3162 114.6722 25.1832 111.7512 27.0052 106.7212 18.7432 97.8352 10.8552 92.3612 8.3542 80.7042 4.0792 73.7832 1.2562 73.5652 3.8642 74.2492 7.0092 85.3042 12.9032 87.1422 15.0212 90.9682 22.3682 93.6632 32.5132 101.6342 36.5122 99.1742 38.7072 109.4412 50.2292"></polygon>
                <path d="M73.9727,3.4926 C74.0307,3.4396 74.2057,3.3976 74.4997,3.4866 L94.2577,10.9116 C95.2577,11.3076 96.2597,11.9396 96.9697,12.7186 L109.8107,26.8056 L101.9017,34.0146 C99.8437,33.2756 94.7237,30.9296 93.9817,26.3776 C93.1727,21.0526 89.5677,17.5636 87.5017,15.8826 C87.2067,15.6756 87.0867,15.3096 87.1427,15.0206 L87.2017,14.9676 C87.3167,14.7436 87.4917,14.7026 87.7267,14.7256 C87.7857,14.7916 87.8437,14.7386 87.9027,14.8036 C89.6097,15.6246 92.0847,17.1716 93.9237,19.7736 C94.5167,20.5406 95.5157,20.8186 96.2147,20.3006 C96.9137,19.7826 97.0807,18.7986 96.4887,18.0306 C96.0737,17.4586 95.5997,16.9386 95.1257,16.4196 C93.0547,14.1476 90.6987,12.7296 88.9327,11.8446 C88.6967,11.7026 88.4027,11.6136 88.1677,11.5906 L73.9857,5.0256 C73.6327,4.8716 73.3947,4.4946 73.5087,4.1526 L73.5657,3.8636 C73.7387,3.5866 73.8547,3.4806 73.9727,3.4926 Z M114.5037,27.2816 L122.2557,35.7856 L109.1127,47.7666 L101.3607,39.2626 L114.5037,27.2816 Z M70.4507,2.8996 L70.3947,3.1876 C70.0587,5.0396 71.1897,7.0976 73.0737,7.9966 L84.2537,13.1376 C84.1967,13.1896 84.1377,13.2426 84.1977,13.3076 L84.1387,13.3606 C83.3907,14.9936 83.9957,17.1756 85.5897,18.4566 C87.1837,19.7376 90.0207,22.5006 90.6417,26.5686 C91.4507,31.8936 96.1647,34.9656 99.2267,36.4536 L97.7727,37.7786 C97.1327,38.3616 97.1417,39.4236 97.7927,40.1376 L107.9107,51.2386 C108.5627,51.9526 109.6187,52.0596 110.2577,51.4766 L125.7857,37.3226 C126.4257,36.7396 126.4157,35.6786 125.7657,34.9636 L115.6467,23.8626 C114.9957,23.1486 113.9397,23.0416 113.2997,23.6246 L112.1367,24.6846 L99.2957,10.5976 C98.1127,9.3006 96.6977,8.3316 95.1107,7.7586 L75.2917,0.2676 C74.1747,-0.1394 73.0627,-0.0754 72.1287,0.4186 C71.2537,0.9776 70.6167,1.7976 70.4507,2.8996 Z" id="Fill-40" fill="#000000"></path>
                <polygon id="Fill-42" fill="#FFFFFF" points="13.293 35.9819 21.803 26.1389 22.776 25.0129 25.684 26.8569 30.774 18.6329 39.718 10.8089 45.21 8.3489 56.898 4.1599 63.84 1.3869 64.039 3.9959 63.332 7.1359 52.233 12.9489 50.38 15.0529 46.501 22.3729 43.731 32.4979 35.73 36.4379 38.175 38.6509 27.823 50.0969"></polygon>
                <path d="M64.0391,3.9956 L64.0931,4.2856 C64.2041,4.6286 63.9641,5.0036 63.6091,5.1546 L49.3801,11.6146 C49.1441,11.6376 48.8511,11.7246 48.6131,11.8636 C46.8411,12.7366 44.4741,14.1376 42.3861,16.3936 C41.9091,16.9096 41.4321,17.4256 41.0131,17.9946 C40.4141,18.7576 40.5741,19.7436 41.2691,20.2666 C41.9641,20.7896 42.9651,20.5186 43.5631,19.7566 C45.4221,17.1686 47.9081,15.6396 49.6211,14.8306 C49.6811,14.7666 49.7381,14.8186 49.7981,14.7546 C50.0331,14.7326 50.2081,14.7746 50.3221,14.9996 L50.3801,15.0536 C50.4341,15.3426 50.3101,15.7076 50.0151,15.9116 C47.9351,17.5796 44.3051,21.0406 43.4581,26.3596 C42.6821,30.9066 37.5451,33.2156 35.4811,33.9386 L27.6261,26.6716 L40.5691,12.6796 C41.2851,11.9056 42.2921,11.2806 43.2951,10.8916 L63.1061,3.6126 C63.4011,3.5256 63.5761,3.5686 63.6351,3.6216 C63.7521,3.6106 63.8671,3.7186 64.0391,3.9956 Z M35.9841,39.1896 L28.1701,47.6376 L15.1151,35.5596 L22.9291,27.1136 L35.9841,39.1896 Z M65.5001,0.5616 C64.5701,0.0606 63.4581,-0.0114 62.3381,0.3886 L42.4661,7.7326 C40.8741,8.2946 39.4521,9.2526 38.2591,10.5416 L25.3151,24.5346 L24.1601,23.4656 C23.5241,22.8776 22.4681,22.9766 21.8111,23.6856 L11.6111,34.7126 C10.9551,35.4226 10.9381,36.4826 11.5741,37.0706 L26.9971,51.3386 C27.6331,51.9266 28.6891,51.8266 29.3461,51.1176 L39.5461,40.0916 C40.2021,39.3826 40.2191,38.3206 39.5831,37.7326 L38.1391,36.3966 C41.2111,34.9316 45.9491,31.8946 46.7961,26.5756 C47.4471,22.5116 50.3051,19.7696 51.9071,18.5006 C53.5111,17.2306 54.1311,15.0536 53.3951,13.4156 L53.3381,13.3616 C53.3971,13.2976 53.3401,13.2446 53.2821,13.1906 L64.5001,8.1326 C66.3911,7.2486 67.5371,5.1976 67.2151,3.3446 L67.1601,3.0556 C67.0021,1.9516 66.3711,1.1276 65.5001,0.5616 Z" id="Fill-44" fill="#000000"></path>
                <path d="M168.6104,48.7202 L157.4054,59.9252 L146.1994,48.7202 L140.5964,43.1172 C137.5024,40.0232 137.5024,35.0052 140.5964,31.9102 C143.6914,28.8162 148.7084,28.8162 151.8024,31.9102 L157.4054,37.5142 L163.0074,31.9102 C166.1024,28.8172 171.1194,28.8172 174.2144,31.9102 C177.3074,35.0062 177.3074,40.0232 174.2144,43.1172 L168.6104,48.7202 Z" id="Fill-46" fill="#FFFFFF"></path>
                <g id="Group-50" transform="translate(136.000000, 27.186000)">
                    <mask id="mask-4" fill="white">
                        <use xlink:href="#path-3"></use>
                    </mask>
                    <g id="Clip-49"></g>
                    <path d="M10.2002,4.4063 C8.6822,4.4063 7.1662,4.9833 6.0112,6.1383 C3.7012,8.4493 3.7012,12.2073 6.0112,14.5173 L21.4052,29.9113 L36.8002,14.5173 C39.1082,12.2083 39.1082,8.4493 36.7992,6.1383 C34.4892,3.8303 30.7312,3.8303 28.4222,6.1383 L21.4052,13.1573 L14.3882,6.1383 C13.2332,4.9843 11.7172,4.4063 10.2002,4.4063 Z M21.4052,35.5673 L3.1822,17.3453 C-0.6878,13.4763 -0.6878,7.1793 3.1822,3.3103 C7.0542,-0.5587 13.3492,-0.5577 17.2172,3.3103 L21.4052,7.4993 L25.5942,3.3103 C29.4622,-0.5577 35.7582,-0.5597 39.6282,3.3103 C43.4962,7.1803 43.4962,13.4763 39.6282,17.3453 L21.4052,35.5673 Z" id="Fill-48" fill="#000000" mask="url(#mask-4)"></path>
                </g>
                <path d="M73.6885,158.1626 L68.3135,163.5376 L62.9375,158.1626 L60.2505,155.4746 C58.7655,153.9906 58.7655,151.5846 60.2505,150.0996 C61.7355,148.6146 64.1415,148.6146 65.6255,150.0996 L68.3135,152.7876 L71.0005,150.0996 C72.4855,148.6156 74.8915,148.6156 76.3765,150.0996 C77.8605,151.5846 77.8605,153.9906 76.3765,155.4746 L73.6885,158.1626 Z" id="Fill-51" fill="#000000"></path>
            </g>
        </g>
    </g>
</svg>