<svg xmlns="http://www.w3.org/2000/svg" width="16" height="14" viewBox="0 0 16 14">
    <path fill="#ff0000" fill-rule="evenodd" d="M8 15a.948.948 0 0 1-.619-.229c-.646-.555-1.27-1.078-1.819-1.538l-.003-.003c-1.612-1.351-3.004-2.518-3.972-3.667C.504 8.278 0 7.06 0 5.729 0 4.436.45 3.243 1.27 2.37A4.336 4.336 0 0 1 4.47 1c.923 0 1.77.287 2.514.854A5.1 5.1 0 0 1 8 2.897c.3-.408.64-.758 1.016-1.043A4.068 4.068 0 0 1 11.53 1c1.236 0 2.373.487 3.2 1.37.82.873 1.27 2.066 1.27 3.36 0 1.33-.504 2.548-1.587 3.833-.968 1.15-2.36 2.316-3.972 3.667-.55.461-1.175.985-1.823 1.542A.948.948 0 0 1 8 15z" transform="translate(0 -1)"/>
</svg>
