<svg xmlns="http://www.w3.org/2000/svg" xmlns:xlink="http://www.w3.org/1999/xlink" width="76" height="82" viewBox="0 0 76 82">
    <defs>
        <path id="a" d="M0 0h100v94H0z"/>
    </defs>
    <g fill="none" fill-rule="evenodd" transform="translate(-12 -6)">
        <mask id="b" fill="#fff">
            <use xlink:href="#a"/>
        </mask>
        <g mask="url(#b)">
            <path fill="#E0EFEB" d="M86.414 24.71a7.461 7.461 0 0 0-2.955-2.66L53.603 7.064a7.439 7.439 0 0 0-6.643 0L17.104 22.05a7.461 7.461 0 0 0-2.943 2.643l36.12 18.147L86.414 24.71z"/>
            <path fill="#97C3B8" d="M14.977 24.968l35.305 17.737 35.317-17.72a6.913 6.913 0 0 0-2.384-1.963L53.358 8.038a6.929 6.929 0 0 0-6.154 0L17.35 23.021a6.908 6.908 0 0 0-2.373 1.947M50.281 43.87a.545.545 0 0 1-.245-.058l-36.12-18.147a.55.55 0 0 1-.215-.79 8.024 8.024 0 0 1 3.16-2.837L46.715 7.055a8.028 8.028 0 0 1 7.132-.001l29.856 14.984a8.023 8.023 0 0 1 3.172 2.856.551.551 0 0 1-.216.789L50.526 43.81a.547.547 0 0 1-.245.058"/>
            <path fill="#CDE7E1" d="M13.723 25.393a7.501 7.501 0 0 0-1.199 4.062v35.66a7.495 7.495 0 0 0 4.105 6.743l29.856 14.984a7.436 7.436 0 0 0 3.358.791V43.54l-36.12-18.146z"/>
            <path fill="#BDDED6" d="M50.72 43.54v44.093a7.436 7.436 0 0 0 3.321-.791l29.855-14.984a7.495 7.495 0 0 0 4.143-6.705V29.455a7.503 7.503 0 0 0-1.187-4.044L50.72 43.539z"/>
            <path fill="#97C3B8" d="M14.37 25.892a6.938 6.938 0 0 0-.86 3.343v35.66a6.905 6.905 0 0 0 3.804 6.253L47.168 86.13c.797.401 1.675.644 2.566.713V43.66L14.37 25.892zm35.894 62.071c-1.24 0-2.48-.294-3.586-.85L16.822 72.13a7.997 7.997 0 0 1-4.407-7.238V29.235c0-1.547.445-3.055 1.287-4.36a.546.546 0 0 1 .704-.194l36.12 18.147a.55.55 0 0 1 .303.491v44.094a.549.549 0 0 1-.546.55h-.02z"/>
            <path fill="#97C3B8" d="M50.829 43.659V86.84a6.933 6.933 0 0 0 2.529-.71l29.856-14.983a6.906 6.906 0 0 0 3.84-6.214V29.235a6.936 6.936 0 0 0-.85-3.324L50.829 43.66zm-.548 44.304a.546.546 0 0 1-.547-.55V43.32a.55.55 0 0 1 .303-.491l36.132-18.129a.547.547 0 0 1 .706.195 8.046 8.046 0 0 1 1.274 4.34v35.699a8 8 0 0 1-4.447 7.198L53.848 87.113a8.025 8.025 0 0 1-3.565.85h-.002z"/>
        </g>
    </g>
</svg>
