<svg xmlns="http://www.w3.org/2000/svg" width="27" height="27" viewBox="0 0 27 27">
    <g fill="#000" fill-rule="nonzero">
        <path d="M19.388 1H8.548C4.865 1 1.87 4.095 1.87 7.9v11.2c0 3.805 2.995 6.9 6.676 6.9h10.84c3.682 0 6.678-3.095 6.678-6.9V7.9c0-3.805-2.996-6.9-6.677-6.9zm4.53 18.1c0 2.582-2.032 4.682-4.53 4.682H8.548c-2.498 0-4.53-2.1-4.53-4.681V7.899c0-2.58 2.032-4.68 4.53-4.68h10.84c2.498 0 4.53 2.1 4.53 4.68v11.202z"/>
        <path d="M17.011 15.553h-2.864c-.398 0-.736-.141-1.014-.426a1.418 1.418 0 0 1-.418-1.034v-1.035h4.08c.369 0 .686-.134.95-.4.262-.27.395-.591.395-.965 0-.376-.133-.697-.397-.965a1.292 1.292 0 0 0-.951-.402h-4.077V8.188c0-.405-.142-.751-.424-1.04-.281-.289-.621-.434-1.016-.434-.405 0-.751.143-1.032.426a1.43 1.43 0 0 0-.423 1.05v5.904c0 1.214.423 2.252 1.269 3.113.846.863 1.867 1.293 3.06 1.293h2.863c.398 0 .74-.145 1.023-.434.284-.288.426-.635.426-1.04 0-.404-.142-.75-.426-1.04a1.387 1.387 0 0 0-1.024-.433z"/>
    </g>
</svg>
