<svg xmlns="http://www.w3.org/2000/svg" width="27" height="27" viewBox="0 0 27 27">
    <g fill="#000" fill-rule="nonzero">
        <path d="M19.517 1H8.677C4.994 1 2 4.095 2 7.9v11.2C2 22.906 4.995 26 8.676 26h10.84c3.683 0 6.678-3.095 6.678-6.9V7.9c0-3.805-2.995-6.9-6.677-6.9zm4.53 18.1c0 2.582-2.032 4.682-4.53 4.682H8.677c-2.498 0-4.53-2.1-4.53-4.681V7.899c0-2.58 2.032-4.68 4.53-4.68h10.84c2.498 0 4.53 2.1 4.53 4.68v11.202z"/>
        <path d="M14.097 7.071c-3.43 0-6.221 2.884-6.221 6.43 0 3.544 2.79 6.428 6.22 6.428 3.431 0 6.222-2.884 6.222-6.429 0-3.545-2.79-6.429-6.221-6.429zm0 10.644c-2.25 0-4.08-1.89-4.08-4.215 0-2.324 1.83-4.215 4.08-4.215 2.249 0 4.079 1.89 4.079 4.215 0 2.324-1.83 4.215-4.08 4.215zM20.49 5.286c-.408 0-.81.17-1.098.47a1.642 1.642 0 0 0 0 2.274c.289.298.69.47 1.099.47.41 0 .81-.172 1.1-.47a1.647 1.647 0 0 0 0-2.274c-.289-.3-.69-.47-1.1-.47z"/>
    </g>
</svg>
