<svg xmlns="http://www.w3.org/2000/svg" width="26" height="26" viewBox="0 0 26 26">
    <g fill="#000" fill-rule="evenodd">
        <path fill-rule="nonzero" d="M19.323 1H8.483C4.8 1 1.806 4.095 1.806 7.9v11.2c0 3.805 2.995 6.9 6.677 6.9h10.84C23.005 26 26 22.905 26 19.1V7.9C26 4.094 23.005 1 19.323 1zm4.53 18.1c0 2.582-2.032 4.682-4.53 4.682H8.483c-2.498 0-4.53-2.1-4.53-4.681V7.899c0-2.58 2.032-4.68 4.53-4.68h10.84c2.498 0 4.53 2.1 4.53 4.68v11.202z"/>
        <path d="M12.169 17.35l-1.514 1.564a.978.978 0 0 1-1.415 0l-1.414-1.461a1.058 1.058 0 0 1 0-1.462l4.243-4.385a.98.98 0 0 1 1.415 0l1.414 1.462 1.415-1.462-1.415-1.462a2.933 2.933 0 0 0-4.243 0L6.41 14.53a3.174 3.174 0 0 0 0 4.385l1.415 1.462a2.932 2.932 0 0 0 4.243 0l2.391-2.471a3.897 3.897 0 0 1-2.291-.555m8.387-5.744l-4.243 4.385a2.932 2.932 0 0 1-4.244 0l-1.414-1.462 1.414-1.461 1.415 1.461a.978.978 0 0 0 1.414 0l4.244-4.385a1.06 1.06 0 0 0 0-1.462L17.727 7.22a.98.98 0 0 0-1.414 0l-1.515 1.566a3.876 3.876 0 0 0-2.291-.555l2.391-2.472a2.933 2.933 0 0 1 4.244 0l1.414 1.461a3.174 3.174 0 0 1 0 4.386"/>
    </g>
</svg>
