<svg xmlns="http://www.w3.org/2000/svg" width="27" height="27" viewBox="0 0 27 27">
    <g fill="#000" fill-rule="nonzero">
        <path d="M19.452 1H8.612C4.93 1 1.935 4.095 1.935 7.9v11.2c0 3.805 2.996 6.9 6.677 6.9h10.84c3.682 0 6.677-3.095 6.677-6.9V7.9c0-3.805-2.995-6.9-6.677-6.9zm4.53 18.1c0 2.582-2.032 4.682-4.53 4.682H8.612c-2.498 0-4.53-2.1-4.53-4.681V7.899c0-2.58 2.032-4.68 4.53-4.68h10.84c2.498 0 4.53 2.1 4.53 4.68v11.202z"/>
        <path d="M11.12 14.443h1.35v5.641a.2.2 0 0 0 .199.202h2.289a.2.2 0 0 0 .199-.202V14.47h1.551a.2.2 0 0 0 .198-.179l.236-2.076a.204.204 0 0 0-.05-.158.197.197 0 0 0-.148-.067h-1.787v-1.302c0-.392.208-.591.618-.591h1.17a.2.2 0 0 0 .198-.202V7.989a.2.2 0 0 0-.199-.202h-1.61l-.074-.001c-.28 0-1.251.055-2.019.772-.85.794-.732 1.745-.703 1.91v1.522H11.12a.2.2 0 0 0-.198.201v2.05a.2.2 0 0 0 .198.202z"/>
    </g>
</svg>
