<?xml version="1.0" encoding="UTF-8"?>
<svg width="145px" height="27px" viewBox="0 0 145 27" version="1.1" xmlns="http://www.w3.org/2000/svg" xmlns:xlink="http://www.w3.org/1999/xlink">
    <!-- Generator: Sketch 49.3 (51167) - http://www.bohemiancoding.com/sketch -->
    <title>Star_fill</title>
    <desc>Created with Sketch.</desc>
    <defs></defs>
    <g id="Page-1" stroke="none" stroke-width="1" fill="none" fill-rule="evenodd">
        <g id="W_DetailPage_wReview_reviewwphotos_post" transform="translate(-60.000000, -1542.000000)">
            <g id="star_fill" transform="translate(60.000000, 1542.000000)">
                <g id="Star_fill">
                    <g id="Group-2" transform="translate(0.000000, 0.000000)" fill="#FCC851">
                        <polygon id="Star" points="43.0268102 21.3343949 34.6667817 25.729522 36.2634051 16.4204935 29.5 9.82780288 38.846796 8.46963392 43.0268102 0 47.2068244 8.46963392 56.5536204 9.82780288 49.7902153 16.4204935 51.3868387 25.729522"></polygon>
                        <polygon id="Star" points="13.5268102 21.3343949 5.16678174 25.729522 6.7634051 16.4204935 2.22044605e-16 9.82780288 9.34679597 8.46963392 13.5268102 0 17.7068244 8.46963392 27.0536204 9.82780288 20.2902153 16.4204935 21.8868387 25.729522"></polygon>
                        <polygon id="Star" points="72.5268102 21.3343949 64.1667817 25.729522 65.7634051 16.4204935 59 9.82780288 68.346796 8.46963392 72.5268102 0 76.7068244 8.46963392 86.0536204 9.82780288 79.2902153 16.4204935 80.8868387 25.729522"></polygon>
                        <polygon id="Star" points="102.02681 21.3343949 93.6667817 25.729522 95.2634051 16.4204935 88.5 9.82780288 97.846796 8.46963392 102.02681 0 106.206824 8.46963392 115.55362 9.82780288 108.790215 16.4204935 110.386839 25.729522"></polygon>
                        <polygon id="Star" points="131.52681 21.3343949 123.166782 25.729522 124.763405 16.4204935 118 9.82780288 127.346796 8.46963392 131.52681 0 135.706824 8.46963392 145.05362 9.82780288 138.290215 16.4204935 139.886839 25.729522"></polygon>
                    </g>
                </g>
            </g>
        </g>
    </g>
</svg>