<?xml version="1.0" encoding="utf-8"?>
<!-- Generator: Adobe Illustrator 17.1.0, SVG Export Plug-In . SVG Version: 6.00 Build 0)  -->
<!DOCTYPE svg PUBLIC "-//W3C//DTD SVG 1.1//EN" "http://www.w3.org/Graphics/SVG/1.1/DTD/svg11.dtd">
<svg version="1.1" id="Layer_1" xmlns="http://www.w3.org/2000/svg" xmlns:xlink="http://www.w3.org/1999/xlink" x="0px" y="0px"
	 viewBox="0 0 18 18" enable-background="new 0 0 18 18" xml:space="preserve">
<g id="_x35_-SHOP_x5F_living_x5F_Thermal-Bottle-_x28_SHAPL_x29_-" transform="translate(-160.000000, -1956.000000)">
	<g id="_x30_1_x5F_products-description" transform="translate(0.000000, 1508.000000)">
		<g id="spec01" transform="translate(155.000000, 405.000000)">
			<g id="Group-8">
				<g id="Group" transform="translate(5.000000, 43.000000)">
					<g id="_x31_0-days">
						<g id="timer">
							<g id="timer_icon">
								<g id="Group-3" transform="translate(0.000000, 0.153739)">
									<g id="Clip-2">
									</g>
									<defs>
										<filter id="Adobe_OpacityMaskFilter" filterUnits="userSpaceOnUse" x="0" y="-0.2" width="18" height="18">
											<feColorMatrix  type="matrix" values="1 0 0 0 0  0 1 0 0 0  0 0 1 0 0  0 0 0 1 0"/>
										</filter>
									</defs>
									<mask maskUnits="userSpaceOnUse" x="0" y="-0.2" width="18" height="18" id="mask-2_1_">
										<g filter="url(#Adobe_OpacityMaskFilter)">
											<polygon id="path-1_1_" fill="#FFFFFF" points="0,-0.2 18,-0.2 18,17.8 0,17.8 											"/>
										</g>
									</mask>
									<path id="Fill-1" mask="url(#mask-2_1_)" fill="#090606" d="M9,16.4c-4.1,0-7.5-3.4-7.5-7.5S4.9,1.3,9,1.3
										c4.1,0,7.5,3.4,7.5,7.5S13.1,16.4,9,16.4 M9-0.2c-5,0-9,4-9,9s4,9,9,9c5,0,9-4,9-9S14-0.2,9-0.2"/>
								</g>
								<path id="Fill-4" fill="#090606" d="M9.7,8.7V3.6c0-0.4-0.3-0.7-0.7-0.7c-0.4,0-0.7,0.3-0.7,0.7V9c0,0.2,0.1,0.4,0.3,0.6
									c0,0,0,0,0,0l2.8,3.2c0.1,0.2,0.4,0.3,0.6,0.3c0.2,0,0.3-0.1,0.5-0.2c0.3-0.3,0.3-0.7,0.1-1L9.7,8.7z"/>
							</g>
						</g>
					</g>
				</g>
			</g>
		</g>
	</g>
</g>
</svg>
