<?xml version="1.0" encoding="utf-8"?>
<!-- Generator: Adobe Illustrator 17.1.0, SVG Export Plug-In . SVG Version: 6.00 Build 0)  -->
<!DOCTYPE svg PUBLIC "-//W3C//DTD SVG 1.1//EN" "http://www.w3.org/Graphics/SVG/1.1/DTD/svg11.dtd">
<svg version="1.1" id="Layer_1" xmlns="http://www.w3.org/2000/svg" xmlns:xlink="http://www.w3.org/1999/xlink" x="0px" y="0px"
	 viewBox="0 0 25 18" enable-background="new 0 0 25 18" xml:space="preserve">
<g id="_x35_-SHOP_x5F_living_x5F_Thermal-Bottle-_x28_SHAPL_x29_-" transform="translate(-401.000000, -1958.000000)">
	<g id="_x30_1_x5F_products-description" transform="translate(0.000000, 1508.000000)">
		<g id="spec01" transform="translate(155.000000, 405.000000)">
			<g id="Group-8">
				<g id="Group" transform="translate(5.000000, 43.000000)">
					<g id="ems" transform="translate(241.000000, 1.000000)">
						<g id="truck" transform="translate(0.000000, 1.000000)">
							<g>
								<g id="Group-3" transform="translate(13.948805, 9.849472)">
									<g id="Clip-2">
									</g>
									<defs>
										<filter id="Adobe_OpacityMaskFilter" filterUnits="userSpaceOnUse" x="2.5" y="1.7" width="6.4" height="6.5">
											<feColorMatrix  type="matrix" values="1 0 0 0 0  0 1 0 0 0  0 0 1 0 0  0 0 0 1 0"/>
										</filter>
									</defs>
									<mask maskUnits="userSpaceOnUse" x="2.5" y="1.7" width="6.4" height="6.5" id="mask-2_2_">
										<g filter="url(#Adobe_OpacityMaskFilter)">
											<polygon id="path-1_2_" fill="#FFFFFF" points="2.5,1.7 8.9,1.7 8.9,8.2 2.5,8.2 											"/>
										</g>
									</mask>
									<path id="Fill-1" mask="url(#mask-2_2_)" fill="#090606" d="M5.7,6.4C4.9,6.4,4.3,5.7,4.3,5c0-0.8,0.6-1.4,1.4-1.4
										c0.8,0,1.4,0.6,1.4,1.4C7.1,5.7,6.5,6.4,5.7,6.4 M5.7,1.7C3.9,1.7,2.5,3.2,2.5,5c0,1.8,1.4,3.3,3.2,3.3
										c1.8,0,3.2-1.5,3.2-3.3C8.9,3.2,7.5,1.7,5.7,1.7"/>
								</g>
								<g id="Group-6" transform="translate(0.000000, 0.158043)">
									<g id="Clip-5">
									</g>
									<defs>
										<filter id="Adobe_OpacityMaskFilter_1_" filterUnits="userSpaceOnUse" x="0" y="-0.2" width="15.9" height="15.7">
											<feColorMatrix  type="matrix" values="1 0 0 0 0  0 1 0 0 0  0 0 1 0 0  0 0 0 1 0"/>
										</filter>
									</defs>
									<mask maskUnits="userSpaceOnUse" x="0" y="-0.2" width="15.9" height="15.7" id="mask-4_2_">
										<g filter="url(#Adobe_OpacityMaskFilter_1_)">
											<polygon id="path-3_2_" fill="#FFFFFF" points="0,-0.2 15.9,-0.2 15.9,15.5 0,15.5 											"/>
										</g>
									</mask>
									<path id="Fill-4" mask="url(#mask-4_2_)" fill="#090606" d="M15-0.2H0.9C0.4-0.2,0,0.3,0,0.8v13.8c0,0.5,0.4,0.9,0.9,0.9
										h2.8v-1.8H1.8v-12h12.3v12.9h1.8V0.8C15.9,0.3,15.5-0.2,15-0.2"/>
								</g>
								<polygon id="Fill-7" fill="#090606" points="8.2,15.7 17.3,15.7 17.3,13.8 8.2,13.8 								"/>
								<path id="Fill-9" fill="#090606" d="M5.9,16.2c-0.8,0-1.4-0.6-1.4-1.4c0-0.8,0.6-1.4,1.4-1.4c0.8,0,1.4,0.6,1.4,1.4
									C7.4,15.6,6.7,16.2,5.9,16.2 M5.9,11.5c-1.8,0-3.2,1.5-3.2,3.3c0,1.8,1.4,3.3,3.2,3.3s3.2-1.5,3.2-3.3
									C9.2,13,7.7,11.5,5.9,11.5"/>
								<path id="Fill-10" fill="#090606" d="M24.1,7.6H15v1.8h8.2v4.4h-1.3v1.8h2.2c0.5,0,0.9-0.4,0.9-0.9V8.5
									C25,8,24.6,7.6,24.1,7.6"/>
								<path id="Fill-11" fill="#090606" d="M21.4,3.8c-0.2-0.3-0.5-0.5-0.8-0.5H15v1.8h5l2.1,3.8L23.7,8L21.4,3.8z"/>
							</g>
						</g>
					</g>
				</g>
			</g>
		</g>
	</g>
</g>
</svg>
