<?xml version="1.0" encoding="utf-8"?>
<!-- Generator: Adobe Illustrator 16.0.0, SVG Export Plug-In . SVG Version: 6.00 Build 0)  -->
<!DOCTYPE svg PUBLIC "-//W3C//DTD SVG 1.1//EN" "http://www.w3.org/Graphics/SVG/1.1/DTD/svg11.dtd">
<svg version="1.1" id="Layer_1" xmlns="http://www.w3.org/2000/svg" xmlns:xlink="http://www.w3.org/1999/xlink" x="0px" y="0px"
	 width="34px" height="33px" viewBox="0 0 34 33" enable-background="new 0 0 34 33" xml:space="preserve">
<title>B40CDE38-3907-43F5-9F22-434B95098CD4</title>
<desc>Created with sketchtool.</desc>
<g id="footer---large-screen" transform="translate(-717.000000, -184.000000)">
	<g id="footer" transform="translate(0.000000, 1.000000)">
		<g id="social-media-icon" transform="translate(562.000000, 183.000000)">
			<g id="twitter-letter-logo" transform="translate(68.000000, 0.000000)">
				<g transform="translate(87.000000, 0.000000)">
					<path id="Shape" fill="#231F20" d="M24.617,0H9.383C4.209,0,0,4.085,0,9.107v14.786C0,28.914,4.209,33,9.383,33h15.234
						C29.791,33,34,28.914,34,23.893V9.107C34,4.085,29.791,0,24.617,0z M30.983,23.893c0,3.408-2.855,6.18-6.365,6.18H9.383
						c-3.51,0-6.366-2.771-6.366-6.18V9.107c0-3.407,2.856-6.179,6.366-6.179h15.234c3.511,0,6.366,2.772,6.366,6.179V23.893
						L30.983,23.893z"/>
					<path id="Twitter" fill="#231F20" d="M21.276,19.21h-4.024c-0.56,0-1.035-0.187-1.426-0.562
						c-0.393-0.375-0.586-0.83-0.586-1.365v-1.366h5.734c0.518,0,0.963-0.177,1.334-0.529c0.37-0.355,0.555-0.78,0.555-1.273
						c0-0.496-0.185-0.919-0.557-1.273c-0.371-0.353-0.818-0.53-1.338-0.53h-5.729V9.488c0-0.534-0.2-0.991-0.596-1.373
						c-0.395-0.381-0.872-0.573-1.427-0.573c-0.57,0-1.055,0.188-1.45,0.562c-0.396,0.375-0.594,0.836-0.594,1.385v7.793
						c0,1.604,0.594,2.973,1.783,4.109c1.19,1.14,2.624,1.707,4.301,1.707h4.023c0.559,0,1.038-0.191,1.438-0.572
						c0.399-0.38,0.598-0.838,0.598-1.372s-0.198-0.991-0.598-1.372S21.837,19.21,21.276,19.21z"/>
				</g>
			</g>
		</g>
	</g>
</g>
</svg>
