<?xml version="1.0" encoding="utf-8"?>
<!-- Generator: Adobe Illustrator 23.0.1, SVG Export Plug-In . SVG Version: 6.00 Build 0)  -->
<svg version="1.1" id="레이어_1" xmlns="http://www.w3.org/2000/svg" xmlns:xlink="http://www.w3.org/1999/xlink" x="0px"
	 y="0px" viewBox="0 0 16 16" style="enable-background:new 0 0 16 16;" xml:space="preserve">
<style type="text/css">
	.st0{fill:#3596D4;}
</style>
<g id="XMLID_33_">
	<g id="XMLID_35_">
		<path id="XMLID_32_" class="st0" d="M5.03,14.5c6.04,0,9.34-5,9.34-9.34c0-0.14,0-0.28-0.01-0.42C15,4.27,15.56,3.7,16,3.04
			c-0.59,0.26-1.22,0.44-1.89,0.52c0.68-0.41,1.2-1.05,1.44-1.82c-0.63,0.38-1.34,0.65-2.08,0.8c-0.6-0.64-1.45-1.04-2.4-1.04
			c-1.81,0-3.28,1.47-3.28,3.28c0,0.26,0.03,0.51,0.09,0.75C5.15,5.39,2.73,4.09,1.11,2.1C0.83,2.58,0.67,3.15,0.67,3.75
			c0,1.14,0.58,2.14,1.46,2.73C1.59,6.47,1.09,6.32,0.64,6.07c0,0.01,0,0.03,0,0.04c0,1.59,1.13,2.92,2.63,3.22
			C3,9.41,2.71,9.45,2.41,9.45c-0.21,0-0.42-0.02-0.62-0.06c0.42,1.3,1.63,2.25,3.07,2.28c-1.12,0.88-2.54,1.41-4.08,1.41
			c-0.26,0-0.53-0.02-0.78-0.05C1.45,13.96,3.18,14.5,5.03,14.5"/>
	</g>
</g>
</svg>
