<svg xmlns="http://www.w3.org/2000/svg" width="27" height="27" viewBox="0 0 27 27">
    <path fill="#FFF" fill-rule="evenodd" d="M19.558 11.228A8.062 8.062 0 0 1 7.11 18.242c.18.011.363.011.548.02 1.539.073 2.9-.247 3.836-1.24a2.727 2.727 0 0 1-2.592-1.895c.217.056.442.09.676.09.228 0 .448-.032.66-.085a2.727 2.727 0 0 1-2.256-2.685c0-.018.002-.035.003-.053a2.707 2.707 0 0 0 1.52.3A2.728 2.728 0 0 1 8.28 9.008c1.097 1.168 2.247 1.93 3.316 2.361a5.746 5.746 0 0 0 1.764.424c.292.02.569.011.824-.026a.014.014 0 0 0 .004.003 2.725 2.725 0 0 1-.083-.654 2.725 2.725 0 0 1 1.789-2.56 2.711 2.711 0 0 1 3.036.812c.018.021.033.044.05.065a4.44 4.44 0 0 0 1.594-.723c-.241.627-.585 1.216-1.132 1.597a4.453 4.453 0 0 0 1.505-.586 3.557 3.557 0 0 1-1.39 1.507M13.598.295C6.407.295.577 6.125.577 13.317S6.406 26.34 13.598 26.34c7.19 0 13.022-5.83 13.022-13.022S20.789.295 13.598.295"/>
</svg>
