<svg xmlns="http://www.w3.org/2000/svg" width="27" height="27" viewBox="0 0 27 27">
    <g fill="#FFF" fill-rule="evenodd">
        <path d="M20.643 15.656a2.992 2.992 0 0 1-2.984 2.984H8.515a2.992 2.992 0 0 1-2.985-2.984V10.98a2.993 2.993 0 0 1 2.985-2.985h9.144a2.994 2.994 0 0 1 2.984 2.985v4.676zM13.086.296C5.894.296.064 6.126.064 13.316c0 7.194 5.83 13.024 13.022 13.024 7.193 0 13.023-5.83 13.023-13.023 0-7.191-5.83-13.021-13.023-13.021z"/>
        <path d="M11.474 16.063l4.508-2.852-4.508-2.85z"/>
    </g>
</svg>
