<svg xmlns="http://www.w3.org/2000/svg" xmlns:xlink="http://www.w3.org/1999/xlink" width="16" height="16" viewBox="0 0 16 16">
    <defs>
        <circle id="a" cx="7" cy="7" r="7"/>
    </defs>
    <g fill="none" fill-rule="evenodd" transform="translate(1 1)">
        <mask id="b" fill="#fff">
            <use xlink:href="#a"/>
        </mask>
        <use fill="#00008B" xlink:href="#a"/>
        <circle cx="7" cy="7" r="7.1" stroke="#AAA" stroke-width=".2"/>
        <g mask="url(#b)">
            <path fill="#00008B" fill-rule="nonzero" d="M-5 1h23v11.5H-5z"/>
            <path fill="#FFF" fill-rule="nonzero" d="M1.325 7.9l.444 1.034 1.354-.385-.801.905 1.245.555-1.443.094.199 1.076-.998-.787-.998.787.199-1.076-1.443-.094 1.245-.555-.801-.905 1.354.385zM13.729 9.762l.443.69 1.355-.257-.802.603 1.246.37-1.443.063.199.717-.998-.525-.998.525.198-.717-1.443-.063 1.246-.37-.802-.603 1.355.256zM10.854 5.21l.443.69 1.355-.257-.802.603 1.246.37-1.443.062.199.718-.998-.525-.998.525.198-.718-1.443-.062 1.246-.37-.802-.603 1.355.256zM13.729 2.095l.443.69 1.355-.257-.802.604 1.246.37-1.443.062.199.717-.998-.525-.998.525.198-.717-1.443-.063 1.246-.37-.802-.603 1.355.257zM16.284 4.443l.444.69 1.354-.257-.801.603 1.245.37-1.443.063.2.717-.999-.525-.998.525.199-.717-1.443-.063 1.246-.37-.802-.603 1.355.257zM15.22 6.75l.602.78 1.586.061-1.215.544.38.818-1.352-.444-1.352.444.38-.818-1.216-.544 1.587-.061zM-.208 1h1.916v1.917H6.5v1.916H1.708V6.75H-.208V4.833H-5V2.917h4.792z"/>
            <path fill="#FFF" fill-rule="nonzero" d="M-5 1h1.286L6.5 6.107v.643H5.214L-5 1.643z"/>
            <path fill="#FFF" fill-rule="nonzero" d="M6.5 1H5.214L-5 6.107v.643h1.286L6.5 1.643z"/>
            <path fill="#F00" fill-rule="nonzero" d="M.175 1h1.15v2.3H6.5v1.15H1.325v2.3H.175v-2.3H-5V3.3H.175z"/>
            <path fill="#F00" fill-rule="nonzero" d="M-5 1l3.833 2.3h-.857L-5 1.514V1zM6.5 1h-.857L1.81 3.3h.857L6.5 1zM6.5 7.133l-3.833-2.3h.857L6.5 6.62v.514zm-11.5 0h.857l3.833-2.3h-.857L-5 7.133z"/>
        </g>
    </g>
</svg>
