<svg xmlns="http://www.w3.org/2000/svg" width="24" height="24" viewBox="0 0 24 24">
    <g fill="none" fill-rule="evenodd">
        <path d="M0 0h24v24H0z"/>
        <path stroke="#58CDF9" stroke-linecap="round" stroke-linejoin="round" stroke-width="2" d="M8.059 19H5.623C4.727 19 4 18.373 4 17.6v-4.9c0-.773.727-1.4 1.623-1.4H8.06V19zm5.681-9.1V7.1c0-1.16-1.09-2.1-2.435-2.1L8.06 11.3V19h9.156c.809.008 1.502-.5 1.623-1.19l1.12-6.3c.135-.764-.475-1.478-1.362-1.595a1.91 1.91 0 0 0-.261-.015H13.74z"/>
    </g>
</svg>
