<?xml version="1.0" encoding="utf-8"?>
<!-- Generator: Adobe Illustrator 16.0.0, SVG Export Plug-In . SVG Version: 6.00 Build 0)  -->
<!DOCTYPE svg PUBLIC "-//W3C//DTD SVG 1.1//EN" "http://www.w3.org/Graphics/SVG/1.1/DTD/svg11.dtd">
<svg version="1.1" id="Layer_1" xmlns="http://www.w3.org/2000/svg" xmlns:xlink="http://www.w3.org/1999/xlink" x="0px" y="0px"
	 width="24px" height="50px" viewBox="0 -13 24 50" enable-background="new 0 -13 24 50" xml:space="preserve">
<path fill="none" stroke="#BEBEBE" d="M1.5-12h21c0.553,0,1,0.448,1,1v21c0,0.553-0.447,1-1,1h-21c-0.552,0-1-0.447-1-1v-21
	C0.5-11.552,0.948-12,1.5-12z"/>
<g>
	<path fill="none" stroke="#58CDF9" d="M1.5,13h21c0.553,0,1,0.447,1,1v21c0,0.553-0.447,1-1,1h-21c-0.553,0-1-0.447-1-1V14
		C0.5,13.447,0.947,13,1.5,13z"/>
	<path fill="none" stroke="#58CDF9" stroke-width="2" stroke-linecap="round" stroke-linejoin="round" d="M9,29.5l10-10 M5,25.5l4,4
		"/>
</g>
</svg>
