<?xml version="1.0" encoding="utf-8"?>
<!-- Generator: Adobe Illustrator 22.1.0, SVG Export Plug-In . SVG Version: 6.00 Build 0)  -->
<svg version="1.1" id="레이어_1" xmlns="http://www.w3.org/2000/svg" xmlns:xlink="http://www.w3.org/1999/xlink" x="0px"
	 y="0px" viewBox="0 0 24 24" style="enable-background:new 0 0 24 24;" xml:space="preserve">
<style type="text/css">
	.st0{fill:#353535;}
</style>
<path class="st0" d="M17.4,0H6.6C3,0,0,3,0,6.6v10.8C0,21,3,24,6.6,24h10.8c3.7,0,6.6-3,6.6-6.6V6.6C24,3,21,0,17.4,0z M21.9,17.4
	c0,2.5-2,4.5-4.5,4.5H6.6c-2.5,0-4.5-2-4.5-4.5V6.6c0-2.5,2-4.5,4.5-4.5h10.8c2.5,0,4.5,2,4.5,4.5L21.9,17.4L21.9,17.4z"/>
<polygon class="st0" points="9.4,7 9.4,17.8 17,12.4 "/>
</svg>
