<svg xmlns="http://www.w3.org/2000/svg" width="100" height="100" viewBox="0 0 100 100">
    <g fill="#58CDF9" fill-rule="nonzero">
        <path d="M50 96c25.405 0 46-20.595 46-46S75.405 4 50 4 4 24.595 4 50s20.595 46 46 46zm0 4C22.386 100 0 77.614 0 50S22.386 0 50 0s50 22.386 50 50-22.386 50-50 50z"/>
        <path d="M30.6 33.502a2.051 2.051 0 1 1 2.902-2.901l35.897 35.897a2.051 2.051 0 1 1-2.9 2.901L30.6 33.502z"/>
        <path d="M69.4 33.502a2.051 2.051 0 1 0-2.902-2.901L30.601 66.498a2.051 2.051 0 1 0 2.9 2.901L69.4 33.502z"/>
    </g>
</svg>
