<svg xmlns="http://www.w3.org/2000/svg" xmlns:xlink="http://www.w3.org/1999/xlink" width="24" height="24" viewBox="0 0 24 24">
    <defs>
        <path id="a" d="M0 .025h17.398v17.693H0z"/>
    </defs>
    <g fill="none" fill-rule="evenodd">
        <path d="M0 0h24v24H0z"/>
        <g transform="translate(3.5 3.154)">
            <mask id="b" fill="#fff">
                <use xlink:href="#a"/>
            </mask>
            <path fill="#353535" d="M8.699 16.26c-4.007 0-7.266-3.314-7.266-7.388s3.26-7.39 7.266-7.39 7.265 3.316 7.265 7.39S12.705 16.26 8.7 16.26m0-16.236c-4.797 0-8.7 3.969-8.7 8.847s3.903 8.847 8.7 8.847c4.796 0 8.699-3.97 8.699-8.847 0-4.878-3.903-8.847-8.7-8.847" mask="url(#b)"/>
        </g>
        <path fill="#353535" d="M12.916 11.736v-5.01a.723.723 0 0 0-.717-.729.723.723 0 0 0-.717.729v5.3c0 .226.104.425.263.559.006.008.01.018.018.026l2.687 3.103a.71.71 0 0 0 1.011.065.738.738 0 0 0 .065-1.029l-2.61-3.014z"/>
    </g>
</svg>
