<svg xmlns="http://www.w3.org/2000/svg" xmlns:xlink="http://www.w3.org/1999/xlink" width="24" height="24" viewBox="0 0 24 24">
    <defs>
        <path id="a" d="M.172.143h5.546V5.67H.172z"/>
        <path id="c" d="M0 .025h13.68V13.32H0z"/>
    </defs>
    <g fill="none" fill-rule="evenodd">
        <g transform="translate(14.949 13.85)">
            <mask id="b" fill="#fff">
                <use xlink:href="#a"/>
            </mask>
            <path fill="#353535" d="M2.945 4.12a1.217 1.217 0 0 1-1.218-1.214 1.217 1.217 0 1 1 2.436 0c0 .669-.547 1.213-1.218 1.213m0-3.976A2.77 2.77 0 0 0 .172 2.906a2.771 2.771 0 0 0 2.773 2.763 2.77 2.77 0 0 0 2.773-2.763A2.771 2.771 0 0 0 2.945.143" mask="url(#b)"/>
        </g>
        <g transform="translate(1 4.158)">
            <mask id="d" fill="#fff">
                <use xlink:href="#c"/>
            </mask>
            <path fill="#353535" d="M12.902.025H.777A.776.776 0 0 0 0 .799v11.747c0 .427.348.774.777.774h2.437v-1.55h-1.66V1.575h10.57v10.972h1.556V.799a.776.776 0 0 0-.778-.774" mask="url(#d)"/>
        </g>
        <path fill="#353535" d="M8.023 17.478h7.875v-1.55H8.023z"/>
        <path fill="#353535" d="M6.106 17.969a1.217 1.217 0 0 1-1.219-1.214c0-.67.547-1.213 1.219-1.213.671 0 1.218.544 1.218 1.213 0 .67-.547 1.214-1.218 1.214m0-3.976a2.771 2.771 0 0 0-2.774 2.763 2.771 2.771 0 0 0 2.774 2.762 2.771 2.771 0 0 0 2.772-2.762 2.77 2.77 0 0 0-2.772-2.763M21.729 10.612h-7.827v1.55h7.05v3.767h-1.115v1.55h1.892c.43 0 .777-.347.777-.775v-5.317a.776.776 0 0 0-.777-.775"/>
        <path fill="#353535" d="M19.378 7.399a.777.777 0 0 0-.681-.402h-4.795v1.55h4.335l1.774 3.213 1.363-.747L19.378 7.4z"/>
    </g>
</svg>
