<svg xmlns="http://www.w3.org/2000/svg" width="24" height="24" viewBox="0 0 24 24">
    <g fill="none" fill-rule="evenodd">
        <path d="M0 0h24v24H0z"/>
        <g fill="#353535">
            <path d="M11.845 7.578v3.1H9.237v-3.1H7.814v3.816c0 .395.319.716.711.716h4.03c.394 0 .712-.32.712-.716V7.578h-1.422z"/>
            <path d="M19.05 16l-2.429 2.443H4.422V7.874l2.429-2.443h12.198V16zm.71-12H6.556a.708.708 0 0 0-.503.21L3.21 7.072A.717.717 0 0 0 3 7.578v11.58c0 .396.318.716.711.716h13.205a.71.71 0 0 0 .503-.21l2.844-2.862a.717.717 0 0 0 .209-.506V4.716A.713.713 0 0 0 19.76 4z"/>
            <path d="M19.258 4.21L16.62 6.862H3.711v1.432h13.205c.188 0 .37-.076.503-.21l2.844-2.863-1.005-1.011z"/>
            <path d="M16.205 19.159h1.422V7.578h-1.422z"/>
        </g>
    </g>
</svg>
