<svg xmlns="http://www.w3.org/2000/svg" xmlns:xlink="http://www.w3.org/1999/xlink" width="280" height="217" viewBox="0 0 280 217">
    <defs>
        <path id="a" d="M67.255 0s-2.88 19.164-2.88 30.662c0 11.498 7.68 27.788 7.68 27.788l1.92 30.66s-14.4 9.583-20.16 9.583h-9.6l1.358-27.45-32.078-9.919L.214 64.398S-.905 52.7 1.975 32.578c0 0-2.88-20.123 0-26.829l6.72-2.876s1.92 23.955 2.88 28.746l45.12-.957S58.615 3.832 60.535 0h6.72z"/>
    </defs>
    <g fill="none" fill-rule="evenodd">
        <path stroke="#DADADA" stroke-linecap="round" stroke-linejoin="round" stroke-width="4" d="M90.844 197.929c6.266 4.231 2.775 3.295 10.533 2.587M138.637 214.302c14.535.99 14.474-4.985 23.429-18.145M127.94 77.572c7.06 0 12.537-2.572 19.06-9.812"/>
        <path fill="#58CDF9" d="M82.988 153.453s16.32-7.666 33.6-10.54l31.679 8.622v27.789s-4.799 0-8.639 2.875c-3.84 2.873-13.44 3.832-13.44 3.832s-4.8.959-.96 3.832c0 0 2.88 1.917 10.56 0 0 0 0 2.876-3.84 4.79-3.84 1.918-10.56 5.751-10.56 5.751l-4.8 1.917h-1.92l-13.44-4.791s.96-1.917-.96-2.876c0 0 .96-1.915-.96-2.874l-2.88-1.917s3.84-.957 3.84-2.873c0-1.918-1.92-1.918-1.92-1.918l-5.76-1.915s4.8-.958 5.76-2.876c.96-1.915-.96-3.832-.96-3.832h-5.76c-1.92 0-7.68-1.916-8.64-4.79v-18.206z"/>
        <g transform="translate(103 82.075)">
            <mask id="b" fill="#fff">
                <use xlink:href="#a"/>
            </mask>
            <use fill="#F6F6F6" xlink:href="#a"/>
            <g fill="#58CDF9" mask="url(#b)">
                <path d="M43.2 64.678c0 .662-.536 1.198-1.2 1.198a1.198 1.198 0 1 1 0-2.396c.664 0 1.2.536 1.2 1.198M48 64.678c0 .662-.536 1.198-1.2 1.198a1.198 1.198 0 1 1 0-2.396c.664 0 1.2.536 1.2 1.198M52.8 64.678c0 .662-.536 1.198-1.2 1.198a1.198 1.198 0 1 1 0-2.396c.664 0 1.2.536 1.2 1.198M57.6 64.678c0 .662-.536 1.198-1.2 1.198a1.198 1.198 0 1 1 0-2.396c.664 0 1.2.536 1.2 1.198M62.4 64.678c0 .662-.536 1.198-1.2 1.198a1.198 1.198 0 1 1 0-2.396c.664 0 1.2.536 1.2 1.198M67.2 64.678c0 .662-.536 1.198-1.2 1.198a1.198 1.198 0 1 1 0-2.396c.664 0 1.2.536 1.2 1.198M72 64.678c0 .662-.536 1.198-1.2 1.198a1.198 1.198 0 1 1 0-2.396c.664 0 1.2.536 1.2 1.198M40.8 68.271c0 .663-.536 1.198-1.2 1.198a1.198 1.198 0 1 1 0-2.396c.664 0 1.2.536 1.2 1.198M45.6 68.271c0 .663-.536 1.198-1.2 1.198a1.198 1.198 0 1 1 0-2.396c.664 0 1.2.536 1.2 1.198M50.4 68.271c0 .663-.536 1.198-1.2 1.198a1.198 1.198 0 1 1 0-2.396c.664 0 1.2.536 1.2 1.198M55.2 68.271c0 .663-.536 1.198-1.2 1.198a1.198 1.198 0 1 1 0-2.396c.664 0 1.2.536 1.2 1.198M60 68.271c0 .663-.536 1.198-1.2 1.198a1.198 1.198 0 1 1 0-2.396c.664 0 1.2.536 1.2 1.198M64.8 68.271c0 .663-.536 1.198-1.2 1.198a1.198 1.198 0 1 1 0-2.396c.664 0 1.2.536 1.2 1.198M69.6 68.271c0 .663-.536 1.198-1.2 1.198a1.198 1.198 0 1 1 0-2.396c.664 0 1.2.536 1.2 1.198M74.4 68.271c0 .663-.536 1.198-1.2 1.198a1.198 1.198 0 1 1 0-2.396c.664 0 1.2.536 1.2 1.198M48 71.864c0 .663-.536 1.198-1.2 1.198a1.198 1.198 0 1 1 0-2.395c.664 0 1.2.535 1.2 1.197M52.8 71.864c0 .663-.536 1.198-1.2 1.198a1.198 1.198 0 1 1 0-2.395c.664 0 1.2.535 1.2 1.197M57.6 71.864c0 .663-.536 1.198-1.2 1.198a1.198 1.198 0 1 1 0-2.395c.664 0 1.2.535 1.2 1.197M62.4 71.864c0 .663-.536 1.198-1.2 1.198a1.198 1.198 0 1 1 0-2.395c.664 0 1.2.535 1.2 1.197M67.2 71.864c0 .663-.536 1.198-1.2 1.198a1.198 1.198 0 1 1 0-2.395c.664 0 1.2.535 1.2 1.197M72 71.864c0 .663-.536 1.198-1.2 1.198a1.198 1.198 0 1 1 0-2.395c.664 0 1.2.535 1.2 1.197M45.6 75.458c0 .662-.536 1.197-1.2 1.197a1.198 1.198 0 1 1 0-2.395c.664 0 1.2.535 1.2 1.198M50.4 75.458c0 .662-.536 1.197-1.2 1.197a1.198 1.198 0 1 1 0-2.395c.664 0 1.2.535 1.2 1.198M55.2 75.458c0 .662-.536 1.197-1.2 1.197a1.198 1.198 0 1 1 0-2.395c.664 0 1.2.535 1.2 1.198M60 75.458c0 .662-.536 1.197-1.2 1.197a1.198 1.198 0 1 1 0-2.395c.664 0 1.2.535 1.2 1.198M64.8 75.458c0 .662-.536 1.197-1.2 1.197a1.198 1.198 0 1 1 0-2.395c.664 0 1.2.535 1.2 1.198M69.6 75.458c0 .662-.536 1.197-1.2 1.197a1.198 1.198 0 1 1 0-2.395c.664 0 1.2.535 1.2 1.198M74.4 75.458c0 .662-.536 1.197-1.2 1.197a1.198 1.198 0 1 1 0-2.395c.664 0 1.2.535 1.2 1.198M48 79.05c0 .663-.536 1.199-1.2 1.199a1.198 1.198 0 1 1 0-2.396c.664 0 1.2.535 1.2 1.198M52.8 79.05c0 .663-.536 1.199-1.2 1.199a1.198 1.198 0 1 1 0-2.396c.664 0 1.2.535 1.2 1.198M57.6 79.05c0 .663-.536 1.199-1.2 1.199a1.198 1.198 0 1 1 0-2.396c.664 0 1.2.535 1.2 1.198M62.4 79.05c0 .663-.536 1.199-1.2 1.199a1.198 1.198 0 1 1 0-2.396c.664 0 1.2.535 1.2 1.198M67.2 79.05c0 .663-.536 1.199-1.2 1.199a1.198 1.198 0 1 1 0-2.396c.664 0 1.2.535 1.2 1.198M72 79.05c0 .663-.536 1.199-1.2 1.199a1.198 1.198 0 1 1 0-2.396c.664 0 1.2.535 1.2 1.198M45.6 82.644c0 .662-.536 1.198-1.2 1.198a1.198 1.198 0 1 1 0-2.396c.664 0 1.2.536 1.2 1.198M50.4 82.644c0 .662-.536 1.198-1.2 1.198a1.198 1.198 0 1 1 0-2.396c.664 0 1.2.536 1.2 1.198M55.2 82.644c0 .662-.536 1.198-1.2 1.198a1.198 1.198 0 1 1 0-2.396c.664 0 1.2.536 1.2 1.198M60 82.644c0 .662-.536 1.198-1.2 1.198a1.198 1.198 0 1 1 0-2.396c.664 0 1.2.536 1.2 1.198M64.8 82.644c0 .662-.536 1.198-1.2 1.198a1.198 1.198 0 1 1 0-2.396c.664 0 1.2.536 1.2 1.198M69.6 82.644c0 .662-.536 1.198-1.2 1.198a1.198 1.198 0 1 1 0-2.396c.664 0 1.2.536 1.2 1.198M74.4 82.644c0 .662-.536 1.198-1.2 1.198a1.198 1.198 0 1 1 0-2.396c.664 0 1.2.536 1.2 1.198M48 86.237c0 .663-.536 1.198-1.2 1.198a1.198 1.198 0 1 1 0-2.395c.664 0 1.2.535 1.2 1.197M52.8 86.237c0 .663-.536 1.198-1.2 1.198a1.198 1.198 0 1 1 0-2.395c.664 0 1.2.535 1.2 1.197M57.6 86.237c0 .663-.536 1.198-1.2 1.198a1.198 1.198 0 1 1 0-2.395c.664 0 1.2.535 1.2 1.197M62.4 86.237c0 .663-.536 1.198-1.2 1.198a1.198 1.198 0 1 1 0-2.395c.664 0 1.2.535 1.2 1.197M67.2 86.237c0 .663-.536 1.198-1.2 1.198a1.198 1.198 0 1 1 0-2.395c.664 0 1.2.535 1.2 1.197M72 86.237c0 .663-.536 1.198-1.2 1.198a1.198 1.198 0 1 1 0-2.395c.664 0 1.2.535 1.2 1.197M45.6 89.83c0 .663-.536 1.198-1.2 1.198a1.198 1.198 0 1 1 0-2.395c.664 0 1.2.535 1.2 1.198M50.4 89.83c0 .663-.536 1.198-1.2 1.198a1.198 1.198 0 1 1 0-2.395c.664 0 1.2.535 1.2 1.198M55.2 89.83c0 .663-.536 1.198-1.2 1.198a1.198 1.198 0 1 1 0-2.395c.664 0 1.2.535 1.2 1.198M60 89.83c0 .663-.536 1.198-1.2 1.198a1.198 1.198 0 1 1 0-2.395c.664 0 1.2.535 1.2 1.198M64.8 89.83c0 .663-.536 1.198-1.2 1.198a1.198 1.198 0 1 1 0-2.395c.664 0 1.2.535 1.2 1.198M69.6 89.83c0 .663-.536 1.198-1.2 1.198a1.198 1.198 0 1 1 0-2.395c.664 0 1.2.535 1.2 1.198M74.4 89.83c0 .663-.536 1.198-1.2 1.198a1.198 1.198 0 1 1 0-2.395c.664 0 1.2.535 1.2 1.198M48 93.424c0 .662-.536 1.197-1.2 1.197a1.198 1.198 0 1 1 0-2.395c.664 0 1.2.535 1.2 1.198M52.8 93.424c0 .662-.536 1.197-1.2 1.197a1.198 1.198 0 1 1 0-2.395c.664 0 1.2.535 1.2 1.198M57.6 93.424c0 .662-.536 1.197-1.2 1.197a1.198 1.198 0 1 1 0-2.395c.664 0 1.2.535 1.2 1.198M62.4 93.424c0 .662-.536 1.197-1.2 1.197a1.198 1.198 0 1 1 0-2.395c.664 0 1.2.535 1.2 1.198M67.2 93.424c0 .662-.536 1.197-1.2 1.197a1.198 1.198 0 1 1 0-2.395c.664 0 1.2.535 1.2 1.198M45.6 97.017c0 .662-.536 1.198-1.2 1.198a1.198 1.198 0 1 1 0-2.396c.664 0 1.2.536 1.2 1.198M50.4 97.017c0 .662-.536 1.198-1.2 1.198a1.198 1.198 0 1 1 0-2.396c.664 0 1.2.536 1.2 1.198M55.2 97.017c0 .662-.536 1.198-1.2 1.198a1.198 1.198 0 1 1 0-2.396c.664 0 1.2.536 1.2 1.198M60 97.017c0 .662-.536 1.198-1.2 1.198a1.198 1.198 0 1 1 0-2.396c.664 0 1.2.536 1.2 1.198M57.6 28.746c0 .662-.536 1.198-1.2 1.198a1.198 1.198 0 1 1 0-2.396c.664 0 1.2.535 1.2 1.198M62.4 28.746c0 .662-.536 1.198-1.2 1.198a1.198 1.198 0 1 1 0-2.396c.664 0 1.2.535 1.2 1.198M4.8 28.746c0 .662-.536 1.198-1.2 1.198a1.198 1.198 0 1 1 0-2.396c.664 0 1.2.535 1.2 1.198M9.6 28.746c0 .662-.536 1.198-1.2 1.198a1.198 1.198 0 1 1 0-2.396c.664 0 1.2.535 1.2 1.198M40.8 32.339c0 .662-.536 1.198-1.2 1.198a1.198 1.198 0 1 1 0-2.396c.664 0 1.2.536 1.2 1.198M45.6 32.339c0 .662-.536 1.198-1.2 1.198a1.198 1.198 0 1 1 0-2.396c.664 0 1.2.536 1.2 1.198M50.4 32.339c0 .662-.536 1.198-1.2 1.198a1.198 1.198 0 1 1 0-2.396c.664 0 1.2.536 1.2 1.198M55.2 32.339c0 .662-.536 1.198-1.2 1.198a1.198 1.198 0 1 1 0-2.396c.664 0 1.2.536 1.2 1.198M60 32.339c0 .662-.536 1.198-1.2 1.198a1.198 1.198 0 1 1 0-2.396c.664 0 1.2.536 1.2 1.198M64.8 32.339c0 .662-.536 1.198-1.2 1.198a1.198 1.198 0 1 1 0-2.396c.664 0 1.2.536 1.2 1.198M43.2 35.932c0 .663-.536 1.198-1.2 1.198a1.198 1.198 0 1 1 0-2.396c.664 0 1.2.536 1.2 1.198M48 35.932c0 .663-.536 1.198-1.2 1.198a1.198 1.198 0 1 1 0-2.396c.664 0 1.2.536 1.2 1.198M52.8 35.932c0 .663-.536 1.198-1.2 1.198a1.198 1.198 0 1 1 0-2.396c.664 0 1.2.536 1.2 1.198M57.6 35.932c0 .663-.536 1.198-1.2 1.198a1.198 1.198 0 1 1 0-2.396c.664 0 1.2.536 1.2 1.198M62.4 35.932c0 .663-.536 1.198-1.2 1.198a1.198 1.198 0 1 1 0-2.396c.664 0 1.2.536 1.2 1.198M40.8 39.525c0 .663-.536 1.198-1.2 1.198a1.198 1.198 0 1 1 0-2.395c.664 0 1.2.535 1.2 1.197M45.6 39.525c0 .663-.536 1.198-1.2 1.198a1.198 1.198 0 1 1 0-2.395c.664 0 1.2.535 1.2 1.197M50.4 39.525c0 .663-.536 1.198-1.2 1.198a1.198 1.198 0 1 1 0-2.395c.664 0 1.2.535 1.2 1.197M55.2 39.525c0 .663-.536 1.198-1.2 1.198a1.198 1.198 0 1 1 0-2.395c.664 0 1.2.535 1.2 1.197M60 39.525c0 .663-.536 1.198-1.2 1.198a1.198 1.198 0 1 1 0-2.395c.664 0 1.2.535 1.2 1.197M64.8 39.525c0 .663-.536 1.198-1.2 1.198a1.198 1.198 0 1 1 0-2.395c.664 0 1.2.535 1.2 1.197M43.2 43.119c0 .662-.536 1.197-1.2 1.197a1.198 1.198 0 1 1 0-2.395c.664 0 1.2.535 1.2 1.198M48 43.119c0 .662-.536 1.197-1.2 1.197a1.198 1.198 0 1 1 0-2.395c.664 0 1.2.535 1.2 1.198M52.8 43.119c0 .662-.536 1.197-1.2 1.197a1.198 1.198 0 1 1 0-2.395c.664 0 1.2.535 1.2 1.198M57.6 43.119c0 .662-.536 1.197-1.2 1.197a1.198 1.198 0 1 1 0-2.395c.664 0 1.2.535 1.2 1.198M62.4 43.119c0 .662-.536 1.197-1.2 1.197a1.198 1.198 0 1 1 0-2.395c.664 0 1.2.535 1.2 1.198M67.2 43.119c0 .662-.536 1.197-1.2 1.197a1.198 1.198 0 1 1 0-2.395c.664 0 1.2.535 1.2 1.198M40.8 46.712c0 .662-.536 1.198-1.2 1.198a1.198 1.198 0 1 1 0-2.396c.664 0 1.2.536 1.2 1.198M45.6 46.712c0 .662-.536 1.198-1.2 1.198a1.198 1.198 0 1 1 0-2.396c.664 0 1.2.536 1.2 1.198M50.4 46.712c0 .662-.536 1.198-1.2 1.198a1.198 1.198 0 1 1 0-2.396c.664 0 1.2.536 1.2 1.198M55.2 46.712c0 .662-.536 1.198-1.2 1.198a1.198 1.198 0 1 1 0-2.396c.664 0 1.2.536 1.2 1.198M60 46.712c0 .662-.536 1.198-1.2 1.198a1.198 1.198 0 1 1 0-2.396c.664 0 1.2.536 1.2 1.198M64.8 46.712c0 .662-.536 1.198-1.2 1.198a1.198 1.198 0 1 1 0-2.396c.664 0 1.2.536 1.2 1.198M69.6 46.712c0 .662-.536 1.198-1.2 1.198a1.198 1.198 0 1 1 0-2.396c.664 0 1.2.536 1.2 1.198M43.2 50.305c0 .662-.536 1.198-1.2 1.198a1.198 1.198 0 1 1 0-2.396c.664 0 1.2.536 1.2 1.198M48 50.305c0 .662-.536 1.198-1.2 1.198a1.198 1.198 0 1 1 0-2.396c.664 0 1.2.536 1.2 1.198M52.8 50.305c0 .662-.536 1.198-1.2 1.198a1.198 1.198 0 1 1 0-2.396c.664 0 1.2.536 1.2 1.198M57.6 50.305c0 .662-.536 1.198-1.2 1.198a1.198 1.198 0 1 1 0-2.396c.664 0 1.2.536 1.2 1.198M62.4 50.305c0 .662-.536 1.198-1.2 1.198a1.198 1.198 0 1 1 0-2.396c.664 0 1.2.536 1.2 1.198M67.2 50.305c0 .662-.536 1.198-1.2 1.198a1.198 1.198 0 1 1 0-2.396c.664 0 1.2.536 1.2 1.198M40.8 53.898c0 .663-.536 1.198-1.2 1.198a1.198 1.198 0 1 1 0-2.395c.664 0 1.2.535 1.2 1.197M45.6 53.898c0 .663-.536 1.198-1.2 1.198a1.198 1.198 0 1 1 0-2.395c.664 0 1.2.535 1.2 1.197M50.4 53.898c0 .663-.536 1.198-1.2 1.198a1.198 1.198 0 1 1 0-2.395c.664 0 1.2.535 1.2 1.197M55.2 53.898c0 .663-.536 1.198-1.2 1.198a1.198 1.198 0 1 1 0-2.395c.664 0 1.2.535 1.2 1.197M60 53.898c0 .663-.536 1.198-1.2 1.198a1.198 1.198 0 1 1 0-2.395c.664 0 1.2.535 1.2 1.197M64.8 53.898c0 .663-.536 1.198-1.2 1.198a1.198 1.198 0 1 1 0-2.395c.664 0 1.2.535 1.2 1.197M69.6 53.898c0 .663-.536 1.198-1.2 1.198a1.198 1.198 0 1 1 0-2.395c.664 0 1.2.535 1.2 1.197M43.2 57.492c0 .662-.536 1.197-1.2 1.197a1.198 1.198 0 1 1 0-2.395c.664 0 1.2.535 1.2 1.198M48 57.492c0 .662-.536 1.197-1.2 1.197a1.198 1.198 0 1 1 0-2.395c.664 0 1.2.535 1.2 1.198M52.8 57.492c0 .662-.536 1.197-1.2 1.197a1.198 1.198 0 1 1 0-2.395c.664 0 1.2.535 1.2 1.198M57.6 57.492c0 .662-.536 1.197-1.2 1.197a1.198 1.198 0 1 1 0-2.395c.664 0 1.2.535 1.2 1.198M62.4 57.492c0 .662-.536 1.197-1.2 1.197a1.198 1.198 0 1 1 0-2.395c.664 0 1.2.535 1.2 1.198M67.2 57.492c0 .662-.536 1.197-1.2 1.197a1.198 1.198 0 1 1 0-2.395c.664 0 1.2.535 1.2 1.198M72 57.492c0 .662-.536 1.197-1.2 1.197a1.198 1.198 0 1 1 0-2.395c.664 0 1.2.535 1.2 1.198M40.8 61.085c0 .662-.536 1.197-1.2 1.197a1.198 1.198 0 1 1 0-2.395c.664 0 1.2.535 1.2 1.198M45.6 61.085c0 .662-.536 1.197-1.2 1.197a1.198 1.198 0 1 1 0-2.395c.664 0 1.2.535 1.2 1.198M50.4 61.085c0 .662-.536 1.197-1.2 1.197a1.198 1.198 0 1 1 0-2.395c.664 0 1.2.535 1.2 1.198M55.2 61.085c0 .662-.536 1.197-1.2 1.197a1.198 1.198 0 1 1 0-2.395c.664 0 1.2.535 1.2 1.198M60 61.085c0 .662-.536 1.197-1.2 1.197a1.198 1.198 0 1 1 0-2.395c.664 0 1.2.535 1.2 1.198M64.8 61.085c0 .662-.536 1.197-1.2 1.197a1.198 1.198 0 1 1 0-2.395c.664 0 1.2.535 1.2 1.198M69.6 61.085c0 .662-.536 1.197-1.2 1.197a1.198 1.198 0 1 1 0-2.395c.664 0 1.2.535 1.2 1.198M74.4 61.085c0 .662-.536 1.197-1.2 1.197a1.198 1.198 0 1 1 0-2.395c.664 0 1.2.535 1.2 1.198M36 68.271c0 .663-.536 1.198-1.2 1.198a1.198 1.198 0 1 1 0-2.396c.664 0 1.2.536 1.2 1.198M2.4 32.339c0 .662-.536 1.198-1.2 1.198a1.198 1.198 0 1 1 0-2.396c.664 0 1.2.536 1.2 1.198M7.2 32.339c0 .662-.536 1.198-1.2 1.198a1.198 1.198 0 1 1 0-2.396c.664 0 1.2.536 1.2 1.198M12 32.339c0 .662-.536 1.198-1.2 1.198a1.198 1.198 0 1 1 0-2.396c.664 0 1.2.536 1.2 1.198M16.8 32.339c0 .662-.536 1.198-1.2 1.198a1.198 1.198 0 1 1 0-2.396c.664 0 1.2.536 1.2 1.198M21.6 32.339c0 .662-.536 1.198-1.2 1.198a1.198 1.198 0 1 1 0-2.396c.664 0 1.2.536 1.2 1.198M26.4 32.339c0 .662-.536 1.198-1.2 1.198a1.198 1.198 0 1 1 0-2.396c.664 0 1.2.536 1.2 1.198M31.2 32.339c0 .662-.536 1.198-1.2 1.198a1.198 1.198 0 1 1 0-2.396c.664 0 1.2.536 1.2 1.198M36 32.339c0 .662-.536 1.198-1.2 1.198a1.198 1.198 0 1 1 0-2.396c.664 0 1.2.536 1.2 1.198M4.8 35.932c0 .663-.536 1.198-1.2 1.198a1.198 1.198 0 1 1 0-2.396c.664 0 1.2.536 1.2 1.198M9.6 35.932c0 .663-.536 1.198-1.2 1.198a1.198 1.198 0 1 1 0-2.396c.664 0 1.2.536 1.2 1.198M14.4 35.932c0 .663-.536 1.198-1.2 1.198a1.198 1.198 0 1 1 0-2.396c.664 0 1.2.536 1.2 1.198M19.2 35.932c0 .663-.536 1.198-1.2 1.198a1.198 1.198 0 1 1 0-2.396c.664 0 1.2.536 1.2 1.198M24 35.932c0 .663-.536 1.198-1.2 1.198a1.198 1.198 0 1 1 0-2.396c.664 0 1.2.536 1.2 1.198M28.8 35.932c0 .663-.536 1.198-1.2 1.198a1.198 1.198 0 1 1 0-2.396c.664 0 1.2.536 1.2 1.198M33.6 35.932c0 .663-.536 1.198-1.2 1.198a1.198 1.198 0 1 1 0-2.396c.664 0 1.2.536 1.2 1.198M38.4 35.932c0 .663-.536 1.198-1.2 1.198a1.198 1.198 0 1 1 0-2.396c.664 0 1.2.536 1.2 1.198M2.4 39.525c0 .663-.536 1.198-1.2 1.198a1.198 1.198 0 1 1 0-2.395c.664 0 1.2.535 1.2 1.197M7.2 39.525c0 .663-.536 1.198-1.2 1.198a1.198 1.198 0 1 1 0-2.395c.664 0 1.2.535 1.2 1.197M12 39.525c0 .663-.536 1.198-1.2 1.198a1.198 1.198 0 1 1 0-2.395c.664 0 1.2.535 1.2 1.197M16.8 39.525c0 .663-.536 1.198-1.2 1.198a1.198 1.198 0 1 1 0-2.395c.664 0 1.2.535 1.2 1.197M21.6 39.525c0 .663-.536 1.198-1.2 1.198a1.198 1.198 0 1 1 0-2.395c.664 0 1.2.535 1.2 1.197M26.4 39.525c0 .663-.536 1.198-1.2 1.198a1.198 1.198 0 1 1 0-2.395c.664 0 1.2.535 1.2 1.197M31.2 39.525c0 .663-.536 1.198-1.2 1.198a1.198 1.198 0 1 1 0-2.395c.664 0 1.2.535 1.2 1.197M36 39.525c0 .663-.536 1.198-1.2 1.198a1.198 1.198 0 1 1 0-2.395c.664 0 1.2.535 1.2 1.197M4.8 43.119c0 .662-.536 1.197-1.2 1.197a1.198 1.198 0 1 1 0-2.395c.664 0 1.2.535 1.2 1.198M9.6 43.119c0 .662-.536 1.197-1.2 1.197a1.198 1.198 0 1 1 0-2.395c.664 0 1.2.535 1.2 1.198M14.4 43.119c0 .662-.536 1.197-1.2 1.197a1.198 1.198 0 1 1 0-2.395c.664 0 1.2.535 1.2 1.198M19.2 43.119c0 .662-.536 1.197-1.2 1.197a1.198 1.198 0 1 1 0-2.395c.664 0 1.2.535 1.2 1.198M24 43.119c0 .662-.536 1.197-1.2 1.197a1.198 1.198 0 1 1 0-2.395c.664 0 1.2.535 1.2 1.198M28.8 43.119c0 .662-.536 1.197-1.2 1.197a1.198 1.198 0 1 1 0-2.395c.664 0 1.2.535 1.2 1.198M33.6 43.119c0 .662-.536 1.197-1.2 1.197a1.198 1.198 0 1 1 0-2.395c.664 0 1.2.535 1.2 1.198M38.4 43.119c0 .662-.536 1.197-1.2 1.197a1.198 1.198 0 1 1 0-2.395c.664 0 1.2.535 1.2 1.198M2.4 46.712c0 .662-.536 1.198-1.2 1.198a1.198 1.198 0 1 1 0-2.396c.664 0 1.2.536 1.2 1.198M7.2 46.712c0 .662-.536 1.198-1.2 1.198a1.198 1.198 0 1 1 0-2.396c.664 0 1.2.536 1.2 1.198M12 46.712c0 .662-.536 1.198-1.2 1.198a1.198 1.198 0 1 1 0-2.396c.664 0 1.2.536 1.2 1.198M16.8 46.712c0 .662-.536 1.198-1.2 1.198a1.198 1.198 0 1 1 0-2.396c.664 0 1.2.536 1.2 1.198M21.6 46.712c0 .662-.536 1.198-1.2 1.198a1.198 1.198 0 1 1 0-2.396c.664 0 1.2.536 1.2 1.198M26.4 46.712c0 .662-.536 1.198-1.2 1.198a1.198 1.198 0 1 1 0-2.396c.664 0 1.2.536 1.2 1.198M31.2 46.712c0 .662-.536 1.198-1.2 1.198a1.198 1.198 0 1 1 0-2.396c.664 0 1.2.536 1.2 1.198M36 46.712c0 .662-.536 1.198-1.2 1.198a1.198 1.198 0 1 1 0-2.396c.664 0 1.2.536 1.2 1.198M4.8 50.305c0 .662-.536 1.198-1.2 1.198a1.198 1.198 0 1 1 0-2.396c.664 0 1.2.536 1.2 1.198M9.6 50.305c0 .662-.536 1.198-1.2 1.198a1.198 1.198 0 1 1 0-2.396c.664 0 1.2.536 1.2 1.198M14.4 50.305c0 .662-.536 1.198-1.2 1.198a1.198 1.198 0 1 1 0-2.396c.664 0 1.2.536 1.2 1.198M19.2 50.305c0 .662-.536 1.198-1.2 1.198a1.198 1.198 0 1 1 0-2.396c.664 0 1.2.536 1.2 1.198M24 50.305c0 .662-.536 1.198-1.2 1.198a1.198 1.198 0 1 1 0-2.396c.664 0 1.2.536 1.2 1.198M28.8 50.305c0 .662-.536 1.198-1.2 1.198a1.198 1.198 0 1 1 0-2.396c.664 0 1.2.536 1.2 1.198M33.6 50.305c0 .662-.536 1.198-1.2 1.198a1.198 1.198 0 1 1 0-2.396c.664 0 1.2.536 1.2 1.198M38.4 50.305c0 .662-.536 1.198-1.2 1.198a1.198 1.198 0 1 1 0-2.396c.664 0 1.2.536 1.2 1.198M2.4 53.898c0 .663-.536 1.198-1.2 1.198a1.198 1.198 0 1 1 0-2.395c.664 0 1.2.535 1.2 1.197M7.2 53.898c0 .663-.536 1.198-1.2 1.198a1.198 1.198 0 1 1 0-2.395c.664 0 1.2.535 1.2 1.197M12 53.898c0 .663-.536 1.198-1.2 1.198a1.198 1.198 0 1 1 0-2.395c.664 0 1.2.535 1.2 1.197M16.8 53.898c0 .663-.536 1.198-1.2 1.198a1.198 1.198 0 1 1 0-2.395c.664 0 1.2.535 1.2 1.197M21.6 53.898c0 .663-.536 1.198-1.2 1.198a1.198 1.198 0 1 1 0-2.395c.664 0 1.2.535 1.2 1.197M26.4 53.898c0 .663-.536 1.198-1.2 1.198a1.198 1.198 0 1 1 0-2.395c.664 0 1.2.535 1.2 1.197M31.2 53.898c0 .663-.536 1.198-1.2 1.198a1.198 1.198 0 1 1 0-2.395c.664 0 1.2.535 1.2 1.197M36 53.898c0 .663-.536 1.198-1.2 1.198a1.198 1.198 0 1 1 0-2.395c.664 0 1.2.535 1.2 1.197M62.4 0c0 .662-.536 1.198-1.2 1.198a1.198 1.198 0 1 1 0-2.396c.664 0 1.2.536 1.2 1.198M67.2 0c0 .662-.536 1.198-1.2 1.198a1.198 1.198 0 1 1 0-2.396c.664 0 1.2.536 1.2 1.198M60 3.593c0 .663-.536 1.198-1.2 1.198a1.198 1.198 0 1 1 0-2.396c.664 0 1.2.536 1.2 1.198M64.8 3.593c0 .663-.536 1.198-1.2 1.198a1.198 1.198 0 1 1 0-2.396c.664 0 1.2.536 1.2 1.198M62.4 7.186c0 .663-.536 1.198-1.2 1.198a1.198 1.198 0 1 1 0-2.395c.664 0 1.2.535 1.2 1.197M67.2 7.186c0 .663-.536 1.198-1.2 1.198a1.198 1.198 0 1 1 0-2.395c.664 0 1.2.535 1.2 1.197M60 10.78c0 .662-.536 1.197-1.2 1.197a1.198 1.198 0 1 1 0-2.395c.664 0 1.2.535 1.2 1.198M64.8 10.78c0 .662-.536 1.197-1.2 1.197a1.198 1.198 0 1 1 0-2.395c.664 0 1.2.535 1.2 1.198M62.4 14.373c0 .662-.536 1.198-1.2 1.198a1.198 1.198 0 1 1 0-2.396c.664 0 1.2.536 1.2 1.198M67.2 14.373c0 .662-.536 1.198-1.2 1.198a1.198 1.198 0 1 1 0-2.396c.664 0 1.2.536 1.2 1.198M60 17.966c0 .662-.536 1.198-1.2 1.198a1.198 1.198 0 1 1 0-2.396c.664 0 1.2.536 1.2 1.198M64.8 17.966c0 .662-.536 1.198-1.2 1.198a1.198 1.198 0 1 1 0-2.396c.664 0 1.2.536 1.2 1.198M57.6 21.56c0 .662-.536 1.197-1.2 1.197a1.198 1.198 0 1 1 0-2.395c.664 0 1.2.535 1.2 1.197M62.4 21.56c0 .662-.536 1.197-1.2 1.197a1.198 1.198 0 1 1 0-2.395c.664 0 1.2.535 1.2 1.197M60 25.153c0 .662-.536 1.197-1.2 1.197a1.198 1.198 0 1 1 0-2.395c.664 0 1.2.535 1.2 1.198M64.8 25.153c0 .662-.536 1.197-1.2 1.197a1.198 1.198 0 1 1 0-2.395c.664 0 1.2.535 1.2 1.198M7.2 3.593c0 .663-.536 1.198-1.2 1.198a1.198 1.198 0 1 1 0-2.396c.664 0 1.2.536 1.2 1.198M4.8 7.186c0 .663-.536 1.198-1.2 1.198a1.198 1.198 0 1 1 0-2.395c.664 0 1.2.535 1.2 1.197M9.6 7.186c0 .663-.536 1.198-1.2 1.198a1.198 1.198 0 1 1 0-2.395c.664 0 1.2.535 1.2 1.197M2.4 10.78c0 .662-.536 1.197-1.2 1.197a1.198 1.198 0 1 1 0-2.395c.664 0 1.2.535 1.2 1.198M7.2 10.78c0 .662-.536 1.197-1.2 1.197a1.198 1.198 0 1 1 0-2.395c.664 0 1.2.535 1.2 1.198M4.8 14.373c0 .662-.536 1.198-1.2 1.198a1.198 1.198 0 1 1 0-2.396c.664 0 1.2.536 1.2 1.198M9.6 14.373c0 .662-.536 1.198-1.2 1.198a1.198 1.198 0 1 1 0-2.396c.664 0 1.2.536 1.2 1.198M2.4 17.966c0 .662-.536 1.198-1.2 1.198a1.198 1.198 0 1 1 0-2.396c.664 0 1.2.536 1.2 1.198M7.2 17.966c0 .662-.536 1.198-1.2 1.198a1.198 1.198 0 1 1 0-2.396c.664 0 1.2.536 1.2 1.198M12 17.966c0 .662-.536 1.198-1.2 1.198a1.198 1.198 0 1 1 0-2.396c.664 0 1.2.536 1.2 1.198M4.8 21.56c0 .662-.536 1.197-1.2 1.197a1.198 1.198 0 1 1 0-2.395c.664 0 1.2.535 1.2 1.197M9.6 21.56c0 .662-.536 1.197-1.2 1.197a1.198 1.198 0 1 1 0-2.395c.664 0 1.2.535 1.2 1.197M2.4 25.153c0 .662-.536 1.197-1.2 1.197a1.198 1.198 0 1 1 0-2.395c.664 0 1.2.535 1.2 1.198M7.2 25.153c0 .662-.536 1.197-1.2 1.197a1.198 1.198 0 1 1 0-2.395c.664 0 1.2.535 1.2 1.198M12 25.153c0 .662-.536 1.197-1.2 1.197a1.198 1.198 0 1 1 0-2.395c.664 0 1.2.535 1.2 1.198M4.8 57.492c0 .662-.536 1.197-1.2 1.197a1.198 1.198 0 1 1 0-2.395c.664 0 1.2.535 1.2 1.198M9.6 57.492c0 .662-.536 1.197-1.2 1.197a1.198 1.198 0 1 1 0-2.395c.664 0 1.2.535 1.2 1.198M14.4 57.492c0 .662-.536 1.197-1.2 1.197a1.198 1.198 0 1 1 0-2.395c.664 0 1.2.535 1.2 1.198M19.2 57.492c0 .662-.536 1.197-1.2 1.197a1.198 1.198 0 1 1 0-2.395c.664 0 1.2.535 1.2 1.198M24 57.492c0 .662-.536 1.197-1.2 1.197a1.198 1.198 0 1 1 0-2.395c.664 0 1.2.535 1.2 1.198M28.8 57.492c0 .662-.536 1.197-1.2 1.197a1.198 1.198 0 1 1 0-2.395c.664 0 1.2.535 1.2 1.198M33.6 57.492c0 .662-.536 1.197-1.2 1.197a1.198 1.198 0 1 1 0-2.395c.664 0 1.2.535 1.2 1.198M38.4 57.492c0 .662-.536 1.197-1.2 1.197a1.198 1.198 0 1 1 0-2.395c.664 0 1.2.535 1.2 1.198M2.4 61.085c0 .662-.536 1.197-1.2 1.197a1.198 1.198 0 1 1 0-2.395c.664 0 1.2.535 1.2 1.198M7.2 61.085c0 .662-.536 1.197-1.2 1.197a1.198 1.198 0 1 1 0-2.395c.664 0 1.2.535 1.2 1.198M12 61.085c0 .662-.536 1.197-1.2 1.197a1.198 1.198 0 1 1 0-2.395c.664 0 1.2.535 1.2 1.198M16.8 61.085c0 .662-.536 1.197-1.2 1.197a1.198 1.198 0 1 1 0-2.395c.664 0 1.2.535 1.2 1.198M21.6 61.085c0 .662-.536 1.197-1.2 1.197a1.198 1.198 0 1 1 0-2.395c.664 0 1.2.535 1.2 1.198M26.4 61.085c0 .662-.536 1.197-1.2 1.197a1.198 1.198 0 1 1 0-2.395c.664 0 1.2.535 1.2 1.198M31.2 61.085c0 .662-.536 1.197-1.2 1.197a1.198 1.198 0 1 1 0-2.395c.664 0 1.2.535 1.2 1.198M36 61.085c0 .662-.536 1.197-1.2 1.197a1.198 1.198 0 1 1 0-2.395c.664 0 1.2.535 1.2 1.198M24 64.678c0 .662-.536 1.198-1.2 1.198a1.198 1.198 0 1 1 0-2.396c.664 0 1.2.536 1.2 1.198M28.8 64.678c0 .662-.536 1.198-1.2 1.198a1.198 1.198 0 1 1 0-2.396c.664 0 1.2.536 1.2 1.198M33.6 64.678c0 .662-.536 1.198-1.2 1.198a1.198 1.198 0 1 1 0-2.396c.664 0 1.2.536 1.2 1.198M38.4 64.678c0 .662-.536 1.198-1.2 1.198a1.198 1.198 0 1 1 0-2.396c.664 0 1.2.536 1.2 1.198"/>
            </g>
        </g>
        <path fill="#A1DDF3" fill-rule="nonzero" d="M85.477 152.839l29.688 10 31.998-10.756-30.5-8.901z"/>
        <path fill="#6D9EC2" fill-rule="nonzero" d="M115 202.22v-39.38l33.22-10.008v26.631c-2.694.124-5.59 1.058-8.691 2.802-3.1 1.745-7.129 2.895-12.085 3.451-5.24 2.173-5.609 3.66-1.104 4.463 4.504.803 7.588.803 9.252 0-3.75 4.387-7.858 7.49-12.327 9.31"/>
        <g transform="translate(79 1.826)">
            <path stroke="#464646" stroke-linecap="round" stroke-linejoin="round" stroke-width="3" d="M72.885 43.562c.66-.333 1.33-.67 2.057-.804.727-.134 1.53-.038 2.107.423.344.276.583.66.811 1.038.288.478.57.965.77 1.484.556 1.46.412 3.124-.16 4.577-.57 1.455-1.539 2.723-2.614 3.856-.638.672-1.334 1.315-2.177 1.697-.843.383-1.862.475-2.683.048M67.225 15.521c-2.478.512-5.041.212-7.559-.03-4.156-.4-8.359-.645-12.499-.103-4.141.543-8.245 1.913-11.541 4.472-3.546 2.752-6.022 6.843-6.81 11.257M68.163 15.592c.142.784-.004 1.591.047 2.387.133 2.029 1.506 3.723 2.489 5.504 3.205 5.808 2.35 12.91 1.408 19.472M72.574 10.168c1.584 1.481 3.886 1.94 5.617 3.25 1.923 1.458 2.944 3.82 3.497 6.168 1.85 7.865-.702 16.023-3.227 23.7"/>
            <path stroke="#464646" stroke-linecap="round" stroke-linejoin="round" stroke-width="3" d="M71.495 9.176c-.647-.46-.794-1.332-1.081-2.07-1.036-2.666-4.104-3.843-6.87-4.588-8.868-2.385-18.563-3.353-27.06.128-4.959 2.031-9.761 5.585-15.071 4.87-.358 1.095.662 2.095 1.438 2.946.776.853 1.274 2.42.267 2.98-.29.158-.648.186-.903.396-.544.445-.26 1.306.024 1.95a15.494 15.494 0 0 1 1.288 7.137c-.182 3.108-1.304 6.12-1.336 9.233-.048 4.632 2.518 9.201 6.502 11.575M70.074 56.26a71.542 71.542 0 0 0-.225 19.982M46.84 73.466c.129 2.62.065 5.248-.192 7.86"/>
            <path stroke="#464646" stroke-linecap="round" stroke-linejoin="round" stroke-width="3" d="M70.515 75.824c-.269 1.042-1.229 1.735-2.138 2.315a65.435 65.435 0 0 1-12.827 6.323c3.727 2.267 7.566 4.797 9.61 8.647 7.04-2.596 13.06-7.73 16.312-14.481-3.817-2.068-7.333-5.41-11.54-6.483M46.7 81.045c1.698 2.276 4.554 3.64 7.396 3.531-2.868 1.896-5.03 4.979-6.1 8.242-4.146-2.328-7.489-6.183-9.044-10.669 1.664-2.18 4.109-3.663 6.842-3.927M35.583 110.734c-.97-9.351-1.6-18.737-1.893-28.132-2.689.478-5.142 1.02-7.686 2.016-.925 8.812-.768 17.735.762 26.462M81.482 108.41c.256-9.882 1.518-19.68 3.675-29.326 2.365.014 3.682-.113 5.9.707-1.497 9.722-1.898 19.351-2.441 29.17"/>
            <path stroke="#464646" stroke-linecap="round" stroke-linejoin="round" stroke-width="2" d="M54.53 85.361c-.427 8.56-.398 17.142.087 25.698"/>
            <path stroke="#464646" stroke-linecap="round" stroke-linejoin="round" stroke-width="3" d="M24.7 141.979c-.237-4.414-.469-8.83-.37-13.248.128-5.705.772-11.895 1.994-17.47 20.928.148 41.86-.075 62.781-.669 1.102 9.418 3.65 18.926 7.5 27.592.502 10.567.902 20.644 1.335 30.77"/>
            <path stroke="#464646" stroke-linecap="round" stroke-linejoin="round" stroke-width="3" d="M37.607 141.355c-11.5 2.23-22.778 5.524-33.74 9.65 10.602 3.85 21.347 7.303 32.298 10.008.576-.374 1.222-.623 1.864-.869 1.174-.45 2.347-.901 3.528-1.336 5.617-2.07 11.36-3.776 17.1-5.48 3.576-1.061 7.153-2.122 10.73-3.185-10.348-2.625-23.16-6.182-31.78-8.788z"/>
            <path stroke="#464646" stroke-linecap="round" stroke-linejoin="round" stroke-width="3" d="M4.112 168.408c-.474-5.65-.148-11.735-.244-17.402 10.602 3.85 21.346 7.302 32.297 10.007-.256 12.998-.497 26.066-.497 39.48"/>
            <path stroke="#464646" stroke-linecap="round" stroke-linejoin="round" stroke-width="3" d="M35.668 200.494c0-13.415.241-26.483.498-39.481.576-.374 1.221-.623 1.862-.869 1.175-.45 2.349-.901 3.528-1.336 5.617-2.07 11.362-3.776 17.101-5.48 3.576-1.061 7.154-2.122 10.73-3.185-.015 9.19-.086 18.414-.53 27.594"/>
            <path stroke="#464646" stroke-linecap="round" stroke-linejoin="round" stroke-width="3.6" d="M38.87 82.465c-1.249.311-2.497.624-3.745.934-.243.061-.514.143-.627.367"/>
            <path stroke="#464646" stroke-linecap="round" stroke-linejoin="round" stroke-width="3" d="M25.287 85.741a61.418 61.418 0 0 1-6.094 2.525c-1.863.658-3.882 1.308-5.077 2.882-1.307 1.72-2.2 3.749-3.004 5.754-.592 1.483-1.063 3.01-1.532 4.534l-1.297 4.215c-1.815 5.893-3.636 11.827-4.356 17.95-.606 5.16-1.332 10.313-1.5 15.504 7.268.972 14.54 1.57 21.875 1.546"/>
            <path stroke="#464646" stroke-linecap="round" stroke-linejoin="round" stroke-width="2.4" d="M81.425 79.592c.777.203 1.566.356 2.36.46"/>
            <path stroke="#464646" stroke-linecap="round" stroke-linejoin="round" stroke-width="3" d="M91.636 81.175c3.392 1.01 6.785 2.02 10.178 3.033 1.113.331 2.232.666 3.272 1.184 3.379 1.688 5.518 5.107 7.137 8.516 6.832 14.372 15.353 27.824 23.173 41.684-8.762 5.724-17.877 10.969-27.452 15.2-1.248.55-2.592 1.02-3.838 1.578-.373.167-.68-.424-.866-.788l-6.338-12.439"/>
            <path stroke="#464646" stroke-linecap="round" stroke-linejoin="round" stroke-width="2" d="M106.086 91.033c-.93 1.168-2.112 2.103-3.248 3.07a63.426 63.426 0 0 0-12.68 14.682M17.7 92.8c1.036.956 1.885 2.093 2.708 3.236 1.273 1.77 2.502 3.57 3.684 5.399M92.06 109.969l6.445-5.235c2.122-1.723 4.342-3.495 7.005-4.121.013.726-.402 1.381-.802 1.986-.552.834-1.111 1.676-1.848 2.351-.738.676-1.685 1.176-2.685 1.181M93.163 85.88c.955.611 2.118.777 3.217 1.062a14.487 14.487 0 0 1 5.896 3.123M21.648 92.709a5.563 5.563 0 0 0 1.898-1.094"/>
            <path stroke="#464646" stroke-linecap="round" stroke-linejoin="round" stroke-width="3.6" d="M108.246 151.012c.973 1.123 1.523 2.537 2.2 3.858a20.555 20.555 0 0 0 2.365 3.607"/>
            <path stroke="#464646" stroke-linecap="round" stroke-linejoin="round" stroke-width="3" d="M117.21 158.77c-2.813-.026-5.379 1.486-7.779 2.95l-12.64 7.713c-5.43 3.314-10.946 6.667-17.062 8.422-2.524.725-5.294.653-7.921.622-2.609-.029-5.259-.332-7.798.266-2.816.663-5.257 2.376-7.949 3.439-3.163 1.248-6.61 1.569-9.88 2.51-.638.183-1.359.48-1.534 1.118-.103.373.017.775.203 1.114.943 1.72 3.241 2.09 5.205 2.03a24.888 24.888 0 0 0 8.585-1.82"/>
            <path stroke="#464646" stroke-linecap="round" stroke-linejoin="round" stroke-width="3" d="M132.403 137.993c2.399 3.105 3.574 6.956 4.7 10.714l3.525 11.76c.766 2.551 1.538 5.21 1.104 7.837-.511 3.1-2.68 5.737-5.284 7.505-2.604 1.769-5.632 2.79-8.629 3.757A424.827 424.827 0 0 1 84.805 191M56.548 188.353c.224.618.005 1.324-.394 1.848-.399.522-.957.897-1.505 1.261l-6.53 4.34c-2.932 1.948-6.13 3.507-9.566 4.289.02.903.48 1.974 1.224 2.489.745.516 1.739.65 2.593.352 1.562-.544 3.279-.453 4.857-.944 1.66-.516 3.37-.87 5.099-1.054 1.372-.146 3.04-1.372 4.042-2.318M4.31 170.754a26.267 26.267 0 0 0 5.562 3.793c1.944.987 4.314.276 6.496.265 1.229-.007 2.693.078 3.32 1.132.515.864.161 2.035-.552 2.745-.711.71-1.699 1.062-2.657 1.371a63.601 63.601 0 0 1-4.162 1.187c-1.115.277-2.255.526-3.401.453-1.857-.12-3.543-1.067-5.155-1.99-.761-.437-1.53-.879-2.152-1.495-1.414-1.405-1.865-3.59-1.475-5.542.39-1.953 1.527-3.69 2.9-5.135-.05 1.351.263 2.315 1.275 3.216zM44.265 203.515c.704.724 1.436 1.466 2.37 1.85.922.38 1.95.374 2.948.365 1.48-.017 2.96-.034 4.44-.048 1.267-.014 2.566-.035 3.746-.491 1.182-.456 2.24-1.452 2.398-2.705"/>
            <path stroke="#464646" stroke-linecap="round" stroke-linejoin="round" stroke-width="3" d="M3.415 180.439c-.5 1.029-.085 2.314.691 3.155.776.84 1.848 1.336 2.89 1.81l3.252 1.479c.426.194.854.389 1.306.514.7.19 1.436.206 2.16.203a47.201 47.201 0 0 0 6.641-.491c-.123-.582.114-1.171.243-1.755.128-.58.098-1.293-.388-1.637-.295-.208-.68-.223-1.04-.255-2.285-.193-4.382-1.296-6.405-2.376M52.127 206.164c-.005.568.437 1.064.955 1.299.518.233 1.103.262 1.67.285l5.04.213c.813.034 1.64.066 2.424-.153.784-.22 1.528-.736 1.808-1.497"/>
            <path stroke="#464646" stroke-linecap="round" stroke-linejoin="round" stroke-width="3" d="M7.065 185.949a6.217 6.217 0 0 0 1.526 4.392c1.032 1.172 2.488 1.914 4 2.301 1.514.386 3.093.438 4.656.404 1.23-.03 2.46-.11 3.682-.246.192-1.086.304-2.404-.561-3.09-.811-.643-2.09-.365-2.905-1.006M56.592 208.597c3.016 2.955 8.124 2.718 11.781.604 3.659-2.113 6.203-5.671 8.633-9.122l7.408-10.522M12.776 193.469c.187.955.788 1.82 1.617 2.33.783.481 1.719.64 2.633.731 1.17.118 2.35.144 3.522.077.208-.012.426-.029.598-.145.215-.145.31-.41.381-.659.165-.582.257-1.213.057-1.786-.2-.572-.766-1.05-1.368-.977"/>
            <path stroke="#464646" stroke-linecap="round" stroke-linejoin="round" stroke-width="2" d="M65.524 10.808a13.875 13.875 0 0 0-6.265-3.685M76.214 28A56.336 56.336 0 0 1 75 41.398M63.487 12.336a44.157 44.157 0 0 0-11.289-2.58c-2.491-.232-5.005-.251-7.492.013M78.518 32.094c-.272 3.691-1.92 7.664-2.518 10.012M20.052 120.307a61.426 61.426 0 0 1-5.12 9.235M87.094 180.56a2.755 2.755 0 0 1 2.558.59"/>
            <path stroke="#464646" stroke-linecap="round" stroke-linejoin="round" stroke-width="2.5" d="M35.493 35.433c1.227-1.195 3.215-1.528 4.765-.799M56.806 34.888c1.478-1.022 3.752-.622 4.79.844M43.143 61.024c1.41 1.148 3.4 1.223 5.215 1.07 2.814-.238 5.83-1.045 7.52-3.303"/>
            <path stroke="#464646" stroke-linecap="round" stroke-linejoin="round" stroke-width="2" d="M48.444 65.662a2.863 2.863 0 0 0 1.819-.173M75.476 47.122a5.999 5.999 0 0 1-1.803 3.61M105.61 142.752l3.53-.546c.716-.112 1.435-.224 2.126-.437.647-.2 1.263-.489 1.876-.776l2.461-1.153M59.163 140.008c3.42.563 6.693-1.39 9.605-3.261l6.876-4.416M69.22 140.426a14.63 14.63 0 0 0 3.51-1.463"/>
            <path stroke="#464646" stroke-linecap="round" stroke-linejoin="round" stroke-width="3" d="M21.92 196.115a377.699 377.699 0 0 1 13.462 4.286c1.224.416 2.584.114 3.804-.317M6.477 140.22v10.037"/>
            <rect width="9" height="7" x="33" y="46" fill="#FFDEDE" fill-rule="nonzero" rx="3.5"/>
            <rect width="10" height="7" x="57" y="46" fill="#FFDEDE" fill-rule="nonzero" rx="3.5"/>
            <path fill="#464646" stroke="#464646" stroke-width="1.5" d="M38.266 42.874a4.82 4.82 0 0 0 .023 3.225c.089.244.213.497.438.63.377.221.89-.005 1.128-.372.239-.364.277-.821.309-1.257l.104-1.464c.102-1.433-1.412-2.44-2.002-.762M58.229 42.779c-.187.422-.2.9-.207 1.361l-.02 1.209c-.007.348-.005.722.202 1.002.342.463 1.102.409 1.533.028.43-.382.597-.976.691-1.541.092-.537.132-1.094.003-1.623-.29-1.185-1.596-1.804-2.202-.436"/>
            <path stroke="#464646" stroke-linecap="round" stroke-linejoin="round" stroke-width="2.5" d="M46.443 47.07c.262.734.078 1.54.04 2.318-.039.779.158 1.686.857 2.033"/>
            <path stroke="#464646" stroke-linecap="round" stroke-linejoin="round" stroke-width="3" d="M28.305 30.39a13.383 13.383 0 0 0 .046 9.151c.438 1.17 1.043 2.285 1.336 3.501.402 1.668.193 3.415.177 5.132-.072 8.496 4.81 16.486 11.407 21.857 1.954 1.59 4.134 3.02 6.609 3.503 3.584.7 7.259-.692 10.41-2.536 5.732-3.353 10.671-8.618 12.105-15.093"/>
        </g>
        <path stroke="#464646" stroke-linecap="round" stroke-linejoin="round" stroke-width="3" d="M198 184.5h80M2 184.5h80"/>
        <path fill="#CC8086" fill-rule="nonzero" d="M66.638 115.9l-.943 1.17-2.04-3.301 2.594-3.357z"/>
        <path fill="#FFAFB5" fill-rule="nonzero" d="M42.608 118.594l1.08-.86-1.256-4.628-3.056 2.302z"/>
        <path fill="#FFCF23" fill-rule="nonzero" d="M251 146.437l1.002 1.157 4.408-2.3-2.705-3.294z"/>
        <path fill="#BEBEBE" fill-rule="nonzero" d="M76.41 149.437l-1.002 1.157-4.408-2.3L73.705 145z"/>
        <path fill="#09FFAE" fill-rule="nonzero" d="M35.732 99.827l1.502.295 2.057-4.526-4.16-.93z"/>
        <path fill="#89E86F" fill-rule="nonzero" d="M66.919 150.114l.295 1.241-3.455.828.23-2.755z"/>
        <path fill="#09FFAE" fill-rule="nonzero" d="M223.123 138.582l-.627-1.671 5.097-1.128.055 3.711z"/>
        <path fill="#FFCF23" fill-rule="nonzero" d="M35.271 142.118l-.422-1.445-5.338 4.634L32.565 147z"/>
        <path fill="#CC8086" fill-rule="nonzero" d="M234.26 104.24l-.618-1.372L229 108.2l3.26 1.252z"/>
        <path fill="#BC80CC" fill-rule="nonzero" d="M58.827 137.573h-2.124L52 140.032l3.575 1.029z"/>
        <path fill="#83D9F7" fill-rule="nonzero" d="M61.278 134.181l1.251-.379L56.814 130 56 132.364z"/>
        <path fill="#C1D86C" fill-rule="nonzero" d="M242.052 108.68l-.959.89 6.804.911-.305-2.481z"/>
        <path fill="#23ABFF" fill-rule="nonzero" d="M18.552 129.11l1.133.651-6.424 2.42-.261-2.487z"/>
        <path fill="#83D9F7" fill-rule="nonzero" d="M204.61 138.067l.087 1.305 4.99-4.714-2.12-1.324z"/>
        <path fill="#FFAFB5" fill-rule="nonzero" d="M229.385 153.133l-1.504-.096 2.524 6.605 2.642-2.296z"/>
        <path fill="#F46064" fill-rule="nonzero" d="M83.868 104.202l-.253 1.485 6.833-1.82L88.44 101z"/>
        <path fill="#2388D9" fill-rule="nonzero" d="M198.056 150.059l-.677 1.344 7.065.252-1.08-3.321z"/>
    </g>
</svg>
