<svg xmlns="http://www.w3.org/2000/svg" xmlns:xlink="http://www.w3.org/1999/xlink" width="421" height="291" viewBox="0 0 421 291">
    <defs>
        <path id="a" d="M.728 144.348c0 24.445 6.08 47.466 16.808 67.64 24.23 45.559 72.175 76.577 127.361 76.577 55.102 0 102.984-30.921 127.25-76.365 10.8-20.223 16.922-43.324 16.922-67.852C289.069 64.698 224.52.13 144.897.13 65.275.13.727 64.699.727 144.348z"/>
        <path id="c" d="M.728 144.348c0 24.445 6.08 47.466 16.808 67.64 24.23 45.559 72.175 76.577 127.361 76.577 55.102 0 102.984-30.921 127.25-76.365 10.8-20.223 16.922-43.324 16.922-67.852C289.069 64.698 224.52.13 144.897.13 65.275.13.727 64.699.727 144.348z"/>
        <path id="e" d="M.728 144.348c0 24.445 6.08 47.466 16.808 67.64 24.23 45.559 72.175 76.577 127.361 76.577 55.102 0 102.984-30.921 127.25-76.365 10.8-20.223 16.922-43.324 16.922-67.852C289.069 64.698 224.52.13 144.897.13 65.275.13.727 64.699.727 144.348z"/>
        <path id="g" d="M.728 144.348c0 24.445 6.08 47.466 16.808 67.64 24.23 45.559 72.175 76.577 127.361 76.577 55.102 0 102.984-30.921 127.25-76.365 10.8-20.223 16.922-43.324 16.922-67.852C289.069 64.698 224.52.13 144.897.13 65.275.13.727 64.699.727 144.348z"/>
        <path id="i" d="M.728 144.348c0 24.445 6.08 47.466 16.808 67.64 24.23 45.559 72.175 76.577 127.361 76.577 55.102 0 102.984-30.921 127.25-76.365 10.8-20.223 16.922-43.324 16.922-67.852C289.069 64.698 224.52.13 144.897.13 65.275.13.727 64.699.727 144.348z"/>
    </defs>
    <g fill="none" fill-rule="evenodd">
        <path fill="#C4E9FB" d="M89.243 270.817a143.524 143.524 0 0 1-3.239-5.766c-10.728-20.172-16.808-43.195-16.808-67.64 0-79.649 64.547-144.215 144.171-144.215s144.17 64.566 144.17 144.215c0 24.53-6.123 47.631-16.922 67.852a142.129 142.129 0 0 1-3.124 5.554"/>
        <path stroke="#466DFF" stroke-width="1.771" d="M392.093 172.567a5.274 5.274 0 1 1 5.273 5.275 5.274 5.274 0 0 1-5.273-5.275zM153.28 6.453a5.274 5.274 0 1 1 5.273 5.275 5.274 5.274 0 0 1-5.273-5.275zM275.696 91.355a5.274 5.274 0 1 1 5.271 5.275 5.274 5.274 0 0 1-5.271-5.275zM1.145 151.675a5.274 5.274 0 1 1 5.274 5.274 5.274 5.274 0 0 1-5.274-5.274zM25.252 219.648a5.274 5.274 0 1 1 5.273 5.275 5.274 5.274 0 0 1-5.273-5.275z"/>
        <path stroke="#466DFF" stroke-linecap="round" stroke-linejoin="round" stroke-width="1.771" d="M410.385 234.155l8.94-8.94M419.324 234.155l-8.94-8.94M400.645 101.1l8.94-8.942M409.583 101.1l-8.94-8.942M328.687 53.566l8.94-8.942M337.626 53.566l-8.94-8.942M174.191 81.412l8.94-8.942M183.13 81.412l-8.94-8.942M36.885 101.1l8.939-8.942M45.823 101.1l-8.94-8.942"/>
        <path stroke="#466DFF" stroke-linecap="round" stroke-linejoin="round" stroke-width="1.342" d="M75.587 270.585a157.694 157.694 0 0 1-1.639-3.168"/>
        <path stroke="#466DFF" stroke-dasharray="7.158516800588188,7.158516800588188" stroke-linecap="round" stroke-linejoin="round" stroke-width="1.342" d="M70.89 260.97c-8.667-19.413-13.487-40.924-13.487-63.558 0-86.164 69.828-156.013 155.963-156.013 86.139 0 155.965 69.849 155.965 156.013 0 23.993-5.415 46.719-15.087 67.025"/>
        <path stroke="#466DFF" stroke-linecap="round" stroke-linejoin="round" stroke-width="1.342" d="M352.667 267.65a149.058 149.058 0 0 1-1.644 3.166"/>
        <g transform="translate(68.468 53.064)">
            <mask id="b" fill="#fff">
                <use xlink:href="#a"/>
            </mask>
            <path fill="#FFFDFE" d="M254.207 22.646H166.04a5.794 5.794 0 1 1 0-11.588h88.166v11.588z" mask="url(#b)"/>
        </g>
        <g transform="translate(68.468 53.064)">
            <mask id="d" fill="#fff">
                <use xlink:href="#c"/>
            </mask>
            <path fill="#FFFDFE" d="M323.624 104.924h-88.166a5.794 5.794 0 0 1 0-11.588h88.166v11.588z" mask="url(#d)"/>
        </g>
        <g transform="translate(68.468 53.064)">
            <mask id="f" fill="#fff">
                <use xlink:href="#e"/>
            </mask>
            <path fill="#FFFDFE" d="M-13.804 93.336h88.166a5.794 5.794 0 1 0 0-11.589h-88.166v11.589z" mask="url(#f)"/>
        </g>
        <g transform="translate(68.468 53.064)">
            <mask id="h" fill="#fff">
                <use xlink:href="#g"/>
            </mask>
            <path fill="#FFFDFE" d="M-19.17 39.937h88.166c3.2 0 5.792-2.596 5.792-5.795 0-3.2-2.593-5.794-5.792-5.794H-19.17v11.589z" mask="url(#h)"/>
        </g>
        <g transform="translate(68.468 53.064)">
            <mask id="j" fill="#fff">
                <use xlink:href="#i"/>
            </mask>
            <path fill="#FFFDFE" d="M358.647 123.29h-88.166a5.795 5.795 0 1 1 0-11.59h88.166v11.59z" mask="url(#j)"/>
        </g>
        <g stroke="#466DFF" stroke-width="1.771">
            <path d="M63.644 281.882h298.76v-10.19H63.644zM63.644 281.882l10.428 7.764h278.39l9.943-7.764"/>
            <path d="M92.745 271.694V122.269c0-6.7 5.428-12.13 12.126-12.13H320.45c6.696 0 12.128 5.43 12.128 12.13v149.425"/>
            <path d="M103.899 262.522h217.766V120.57H103.9z"/>
        </g>
        <path fill="#72B7E5" d="M159.627 204.306h-12.874l13.342-21.695-.468 21.695zm13.904-.171h-4.237v-26.799c0-1.674-1.333-3.033-2.977-3.033h-8.925c-.988 0-1.91.498-2.464 1.33l-20.697 31.049c-1.694 2.54.093 5.976 3.108 5.976h21.352v10.574h10.292v-10.574h4.548c1.253 0 2.27-1.035 2.27-2.314v-3.895c0-1.278-1.017-2.314-2.27-2.314zM266.707 204.306h-12.874l13.342-21.695-.468 21.695zm13.902-.171h-4.235v-26.799c0-1.674-1.333-3.033-2.978-3.033h-8.926a2.96 2.96 0 0 0-2.462 1.33l-20.697 31.049c-1.694 2.54.093 5.976 3.108 5.976h21.352v10.574h10.292v-10.574h4.546c1.255 0 2.272-1.035 2.272-2.314v-3.895c0-1.278-1.017-2.314-2.272-2.314zM203.603 211.076c-6.92 0-12.531-5.58-12.531-12.465 0-6.884 5.61-12.464 12.531-12.464 6.92 0 12.531 5.58 12.531 12.464 0 6.885-5.61 12.465-12.53 12.465m17.265-22.136l-7.627-7.473.05-.05a19.748 19.748 0 0 0-4.39-1.79l-10.597-.002a19.773 19.773 0 0 0-4.869 2.08l-7.095 7.231a19.504 19.504 0 0 0-1.823 4.394l.066 10.623h-.048a19.486 19.486 0 0 0 1.782 4.297l.051-.05 7.509 7.586a19.794 19.794 0 0 0 9.725 2.545 19.81 19.81 0 0 0 9.69-2.524l-.051-.051 7.625-7.471a19.452 19.452 0 0 0 1.893-4.674l-.039-10.149a19.497 19.497 0 0 0-1.852-4.522"/>
        <path fill="#72B7E5" d="M208.903 179.626h.072v-3.655a2.02 2.02 0 0 0-2.026-2.013h-6.693c-1.117 0-2.023.9-2.023 2.013v3.655h.072a19.849 19.849 0 0 1 5.298-.735c1.838 0 3.61.269 5.3.735M198.303 217.608h-.07v3.655a2.02 2.02 0 0 0 2.024 2.014h6.693a2.02 2.02 0 0 0 2.023-2.014v-3.655h-.072c-1.688.467-3.46.735-5.298.735s-3.61-.268-5.3-.735M193.437 181.705l.378-.385-2.508-2.496a2.032 2.032 0 0 0-2.863 0l-4.733 4.708a2.005 2.005 0 0 0 0 2.847l2.6 2.587.028-.03a19.855 19.855 0 0 1 7.098-7.23M184.519 193.33v-.06h-3.677c-1.118 0-2.024.9-2.024 2.012v6.66c0 1.11.906 2.012 2.024 2.012h3.693a19.608 19.608 0 0 1-.756-5.342c0-1.832.27-3.599.74-5.282M186.318 208.25l-2.607 2.594a2.005 2.005 0 0 0 0 2.847l4.733 4.708a2.032 2.032 0 0 0 2.863 0l2.599-2.586-.028-.028a19.843 19.843 0 0 1-7.56-7.535M213.293 215.806l2.607 2.594a2.032 2.032 0 0 0 2.863 0l4.732-4.708a2.007 2.007 0 0 0 0-2.85l-2.6-2.584-.027.027a19.86 19.86 0 0 1-7.575 7.521M226.364 193.27h-3.643v.192c.446 1.645.706 3.365.706 5.15 0 1.73-.245 3.4-.667 4.999l.001.342h3.603c1.118 0 2.024-.9 2.024-2.012v-6.658a2.018 2.018 0 0 0-2.024-2.013M220.869 188.94l.026.026 2.6-2.586a2.005 2.005 0 0 0 0-2.848l-4.731-4.708a2.032 2.032 0 0 0-2.863 0l-2.608 2.594a19.853 19.853 0 0 1 7.576 7.521M229.579 179.625c0-4.029 3.193-7.297 7.13-7.297 3.94 0 7.132 3.268 7.132 7.297 0 4.032-3.192 7.298-7.131 7.298-3.938 0-7.131-3.266-7.131-7.298m12.646 10.068l-.029-.03 4.34-4.374c.47-.85.828-1.768 1.077-2.736l-.023-5.943c-.246-.933-.6-1.821-1.053-2.646l-4.34-4.376.028-.028a11.02 11.02 0 0 0-2.5-1.05h-6.03c-.985.28-1.912.691-2.77 1.218l-4.04 4.232c-.443.804-.789 1.666-1.036 2.574l.037 6.22h-.026c.241.885.582 1.73 1.013 2.515l.028-.03 4.274 4.44c.786.455 1.632.81 2.52 1.061h6.03c.882-.249 1.72-.598 2.5-1.047"/>
        <path fill="#72B7E5" d="M239.726 168.51h.04v-2.139c0-.652-.515-1.18-1.15-1.18h-3.81c-.636 0-1.151.528-1.151 1.18v2.14h.039c.962-.273 1.97-.432 3.016-.432 1.047 0 2.055.16 3.016.431M236.71 191.17c-1.046 0-2.054-.156-3.015-.428h-.04v2.139c0 .652.515 1.18 1.15 1.18h3.81c.636 0 1.151-.528 1.151-1.18v-2.14h-.04c-.963.273-1.97.43-3.016.43M230.925 169.728l.215-.227-1.429-1.46a1.134 1.134 0 0 0-1.628 0l-2.693 2.755a1.198 1.198 0 0 0 0 1.668l1.48 1.514.016-.018a11.47 11.47 0 0 1 4.039-4.232M225.85 176.533v-.035h-2.094c-.635 0-1.151.528-1.151 1.178v3.899c0 .652.516 1.178 1.151 1.178h2.102a11.77 11.77 0 0 1-.431-3.128c0-1.071.155-2.106.422-3.092M226.873 185.27l-1.484 1.517a1.198 1.198 0 0 0 0 1.667l2.693 2.756c.45.461 1.18.461 1.63 0l1.478-1.514-.015-.016a11.47 11.47 0 0 1-4.302-4.41M242.225 189.692l1.483 1.518c.45.461 1.18.461 1.63 0l2.692-2.756c.45-.46.45-1.206 0-1.667l-1.48-1.514-.016.016a11.434 11.434 0 0 1-4.31 4.403M247.612 182.553v.201h2.05c.637 0 1.152-.528 1.152-1.18v-3.897c0-.651-.515-1.18-1.151-1.18h-2.073v.113c.254.963.402 1.97.402 3.016 0 1.014-.14 1.99-.38 2.927M246.536 173.964l.014.014 1.48-1.514c.45-.46.45-1.207 0-1.666l-2.693-2.757c-.45-.46-1.18-.46-1.63 0l-1.481 1.519a11.45 11.45 0 0 1 4.31 4.404"/>
        <path stroke="#466DFF" stroke-linejoin="round" stroke-width="1.771" d="M159.813 182.61l-13.584 21.696h13.107z"/>
        <path stroke="#FFF" stroke-linecap="round" stroke-linejoin="round" stroke-width="1.771" d="M143.725 202.518l11.807-17.881M166.844 180.227v22.53M166.844 212.77v8.583"/>
        <path stroke="#466DFF" stroke-linecap="round" stroke-linejoin="round" stroke-width="1.771" d="M198.632 217.608v5.625h-29.767v-10.574h4.628a2.315 2.315 0 0 0 2.316-2.315v-3.895a2.314 2.314 0 0 0-2.316-2.314h-4.312v-26.798a3.033 3.033 0 0 0-3.032-3.033h-9.09a3.031 3.031 0 0 0-2.507 1.328l-21.077 31.049c-1.725 2.542.095 5.978 3.164 5.978h21.743v10.574h-46.32"/>
        <path stroke="#466DFF" stroke-linejoin="round" stroke-width="1.771" d="M191.566 198.768c0-6.83 5.537-12.369 12.366-12.369s12.363 5.538 12.363 12.37c0 6.83-5.534 12.369-12.363 12.369-6.83 0-12.366-5.539-12.366-12.37z"/>
        <path stroke="#466DFF" stroke-linejoin="round" stroke-width="1.771" d="M184.369 198.768c0-10.807 8.757-19.567 19.563-19.567 10.803 0 19.562 8.76 19.562 19.567 0 10.808-8.76 19.568-19.562 19.568-10.806 0-19.563-8.76-19.563-19.568z"/>
        <path stroke="#466DFF" stroke-linejoin="round" stroke-width="1.771" d="M209.231 179.93v-3.628c0-1.104-.893-2-1.997-2h-6.605a1.998 1.998 0 0 0-1.997 2v3.627M194.272 181.61l-2.474-2.476a1.997 1.997 0 0 0-2.825 0l-4.671 4.671a2 2 0 0 0 0 2.825l2.566 2.567M185.1 193.467h-3.628a1.997 1.997 0 0 0-1.997 1.998v6.607c0 1.104.893 1.998 1.997 1.998h3.692M186.925 208.282l-2.622 2.624c-.78.78-.78 2.045 0 2.826l4.67 4.67c.78.782 2.044.782 2.825 0l2.564-2.564M213.443 215.78l2.622 2.624c.78.779 2.045.779 2.824 0l4.67-4.673c.781-.78.781-2.044 0-2.824l-2.565-2.567M222.835 204.07h3.555c1.104 0 2-.894 2-1.998v-6.607a1.998 1.998 0 0 0-2-1.998h-3.593M220.994 189.197l2.566-2.566c.781-.781.781-2.046 0-2.827l-4.67-4.67a1.997 1.997 0 0 0-2.826 0l-2.62 2.623"/>
        <path stroke="#FFF" stroke-linecap="round" stroke-linejoin="round" stroke-width="2.128" d="M189.506 202.362a14.875 14.875 0 0 1-.438-3.593c0-4.351 1.87-8.264 4.847-10.983"/>
        <path stroke="#FFF" stroke-linecap="round" stroke-linejoin="round" stroke-width="2.017" d="M226.103 195.8v5.884M221.577 212.317l-4.16 4.16"/>
        <path stroke="#466DFF" stroke-linejoin="round" stroke-width="1.771" d="M229.415 179.93a7.296 7.296 0 1 1 14.59 0 7.296 7.296 0 1 1-14.59 0z"/>
        <path stroke="#466DFF" stroke-linejoin="round" stroke-width="1.771" d="M225.168 179.93c0-6.378 5.167-11.547 11.542-11.547 6.374 0 11.543 5.169 11.543 11.546 0 6.375-5.17 11.544-11.543 11.544-6.375 0-11.542-5.169-11.542-11.544z"/>
        <path stroke="#466DFF" stroke-linejoin="round" stroke-width="1.771" d="M239.836 168.813v-2.139c0-.652-.526-1.18-1.177-1.18h-3.898a1.18 1.18 0 0 0-1.178 1.18v2.14M233.583 191.044v2.14c0 .651.528 1.18 1.178 1.18h3.897c.652 0 1.178-.529 1.178-1.18v-2.14M231.012 169.805l-1.46-1.46a1.178 1.178 0 0 0-1.668 0l-2.755 2.755a1.178 1.178 0 0 0 0 1.668l1.514 1.514M225.6 176.8h-2.141c-.652 0-1.178.529-1.178 1.179v3.899c0 .651.526 1.18 1.178 1.18h2.177M226.677 185.542l-1.547 1.547a1.178 1.178 0 0 0 0 1.668l2.755 2.756c.46.46 1.206.46 1.665 0l1.514-1.514M242.321 189.966l1.547 1.547c.461.461 1.208.461 1.668 0l2.754-2.755c.461-.461.461-1.207 0-1.668l-1.513-1.514M247.864 183.057h2.096c.652 0 1.178-.528 1.178-1.179v-3.898c0-.652-.526-1.18-1.178-1.18h-2.12M246.778 174.281l1.511-1.514c.461-.461.461-1.206 0-1.668l-2.753-2.755a1.178 1.178 0 0 0-1.667 0l-1.547 1.547"/>
        <path stroke="#FFF" stroke-linecap="round" stroke-linejoin="round" stroke-width=".885" d="M228.012 181.861a8.733 8.733 0 0 1-.258-2.12 8.747 8.747 0 0 1 2.859-6.48M249.79 178.176v3.472M247.121 187.922l-2.455 2.456"/>
        <path stroke="#466DFF" stroke-linejoin="round" stroke-width="1.771" d="M266.952 182.61l-13.586 21.696h13.107z"/>
        <path stroke="#FFF" stroke-linecap="round" stroke-linejoin="round" stroke-width="1.771" d="M250.863 202.518l11.808-17.881M273.981 180.227v22.53M273.981 212.77v8.583"/>
        <path stroke="#466DFF" stroke-linecap="round" stroke-linejoin="round" stroke-width="1.771" d="M311.925 223.233h-35.921V212.66h4.627a2.314 2.314 0 0 0 2.315-2.314v-3.896a2.313 2.313 0 0 0-2.315-2.314h-4.313v-26.798a3.033 3.033 0 0 0-3.032-3.033h-9.088a3.03 3.03 0 0 0-2.51 1.328l-21.074 31.049c-1.726 2.542.093 5.978 3.164 5.978h21.743v10.574h-56.29v-5.625"/>
    </g>
</svg>
