<svg xmlns="http://www.w3.org/2000/svg" xmlns:xlink="http://www.w3.org/1999/xlink" width="421" height="291" viewBox="0 0 421 291">
    <defs>
        <path id="a" d="M.73 145.716c0 24.482 6.093 47.54 16.846 67.745 24.285 45.629 72.34 76.693 127.657 76.693 55.227 0 103.22-30.969 127.542-76.482 10.824-20.253 16.96-43.389 16.96-67.956 0-79.77-64.696-144.437-144.502-144.437C65.426 1.28.73 65.946.73 145.716z"/>
        <path id="c" d="M.73 145.716c0 24.482 6.093 47.54 16.846 67.745 24.285 45.629 72.34 76.693 127.657 76.693 55.227 0 103.22-30.969 127.542-76.482 10.824-20.253 16.96-43.389 16.96-67.956 0-79.77-64.696-144.437-144.502-144.437C65.426 1.28.73 65.946.73 145.716z"/>
        <path id="e" d="M.73 145.716c0 24.482 6.093 47.54 16.846 67.745 24.285 45.629 72.34 76.693 127.657 76.693 55.227 0 103.22-30.969 127.542-76.482 10.824-20.253 16.96-43.389 16.96-67.956 0-79.77-64.696-144.437-144.502-144.437C65.426 1.28.73 65.946.73 145.716z"/>
        <path id="g" d="M.73 145.716c0 24.482 6.093 47.54 16.846 67.745 24.285 45.629 72.34 76.693 127.657 76.693 55.227 0 103.22-30.969 127.542-76.482 10.824-20.253 16.96-43.389 16.96-67.956 0-79.77-64.696-144.437-144.502-144.437C65.426 1.28.73 65.946.73 145.716z"/>
        <path id="i" d="M.73 145.716c0 24.482 6.093 47.54 16.846 67.745 24.285 45.629 72.34 76.693 127.657 76.693 55.227 0 103.22-30.969 127.542-76.482 10.824-20.253 16.96-43.389 16.96-67.956 0-79.77-64.696-144.437-144.502-144.437C65.426 1.28.73 65.946.73 145.716z"/>
    </defs>
    <g fill="none" fill-rule="evenodd">
        <path fill="#C4E9FB" d="M89.174 270.937a141.567 141.567 0 0 1-3.246-5.775c-10.753-20.203-16.847-43.261-16.847-67.744 0-79.771 64.696-144.436 144.504-144.436 79.807 0 144.504 64.665 144.504 144.436 0 24.568-6.137 47.704-16.963 67.956a140.088 140.088 0 0 1-3.133 5.563"/>
        <path stroke="#466DFF" stroke-width="1.768" d="M392.723 172.536a5.284 5.284 0 0 1 5.284-5.283 5.285 5.285 0 0 1 5.287 5.283 5.285 5.285 0 0 1-5.287 5.283 5.284 5.284 0 0 1-5.284-5.283zM153.359 6.167a5.284 5.284 0 0 1 5.285-5.283 5.284 5.284 0 0 1 5.285 5.283 5.284 5.284 0 0 1-5.285 5.283 5.284 5.284 0 0 1-5.285-5.283zM276.056 91.2a5.284 5.284 0 0 1 5.286-5.284 5.284 5.284 0 0 1 5.285 5.283 5.284 5.284 0 0 1-5.285 5.283 5.284 5.284 0 0 1-5.286-5.283zM.875 151.611a5.284 5.284 0 0 1 5.283-5.283 5.285 5.285 0 0 1 5.287 5.283 5.285 5.285 0 0 1-5.287 5.283 5.284 5.284 0 0 1-5.283-5.283zM25.035 219.689a5.284 5.284 0 0 1 5.285-5.283 5.284 5.284 0 0 1 5.285 5.283 5.284 5.284 0 0 1-5.285 5.282 5.284 5.284 0 0 1-5.285-5.282z"/>
        <path stroke="#466DFF" stroke-linecap="round" stroke-linejoin="round" stroke-width="1.768" d="M411.056 234.218l8.96-8.954M420.015 234.218l-8.96-8.954M401.295 100.96l8.96-8.957M410.254 100.96l-8.96-8.957M329.171 53.352l8.96-8.955M338.13 53.352l-8.96-8.955M174.317 81.241l8.96-8.956M183.277 81.241l-8.96-8.956M36.696 100.96l8.96-8.957M45.655 100.96l-8.96-8.957"/>
        <path stroke="#466DFF" stroke-linecap="round" stroke-linejoin="round" stroke-width="1.34" d="M75.488 270.703c-.56-1.05-1.108-2.107-1.643-3.172"/>
        <path stroke="#466DFF" stroke-dasharray="7.148024525714845,7.148024525714845" stroke-linecap="round" stroke-linejoin="round" stroke-width="1.34" d="M70.779 261.074c-8.687-19.442-13.518-40.986-13.518-63.655 0-86.296 69.987-156.252 156.324-156.252 86.334 0 156.323 69.956 156.323 156.252 0 24.03-5.427 46.79-15.122 67.128"/>
        <path stroke="#466DFF" stroke-linecap="round" stroke-linejoin="round" stroke-width="1.34" d="M353.207 267.765a157.952 157.952 0 0 1-1.648 3.17"/>
        <g>
            <g transform="translate(68.352 51.702)">
                <mask id="b" fill="#fff">
                    <use xlink:href="#a"/>
                </mask>
                <path fill="#FFFDFE" d="M254.794 23.829h-88.371a5.804 5.804 0 0 1-5.806-5.803c0-3.204 2.6-5.803 5.806-5.803h88.37v11.606z" mask="url(#b)"/>
            </g>
            <g transform="translate(68.352 51.702)">
                <mask id="d" fill="#fff">
                    <use xlink:href="#c"/>
                </mask>
                <path fill="#FFFDFE" d="M324.371 106.233h-88.37a5.804 5.804 0 0 1-5.806-5.803c0-3.205 2.6-5.804 5.806-5.804h88.37v11.607z" mask="url(#d)"/>
            </g>
            <g transform="translate(68.352 51.702)">
                <mask id="f" fill="#fff">
                    <use xlink:href="#e"/>
                </mask>
                <path fill="#FFFDFE" d="M-13.835 94.626h88.369a5.804 5.804 0 0 0 5.806-5.803c0-3.205-2.6-5.803-5.806-5.803h-88.37v11.606z" mask="url(#f)"/>
            </g>
            <g transform="translate(68.352 51.702)">
                <mask id="h" fill="#fff">
                    <use xlink:href="#g"/>
                </mask>
                <path fill="#FFFDFE" d="M-19.214 41.145h88.369a5.806 5.806 0 0 0 5.805-5.803c0-3.206-2.6-5.803-5.805-5.803h-88.37v11.606z" mask="url(#h)"/>
            </g>
            <g transform="translate(68.352 51.702)">
                <mask id="j" fill="#fff">
                    <use xlink:href="#i"/>
                </mask>
                <path fill="#FFFDFE" d="M359.475 124.626h-88.371a5.806 5.806 0 0 1-5.806-5.803c0-3.206 2.6-5.805 5.806-5.805h88.37v11.608z" mask="url(#j)"/>
            </g>
        </g>
        <g>
            <path stroke="#466DFF" stroke-width="1.768" d="M63.516 282.019h299.45v-10.205H63.515zM63.517 282.019l10.45 7.775H353l9.967-7.775M92.683 271.814V122.16c0-6.71 5.443-12.149 12.155-12.149h216.075c6.714 0 12.157 5.439 12.157 12.15v149.653"/>
            <path stroke="#466DFF" stroke-width="1.768" d="M103.866 262.628h218.266v-142.17H103.866z"/>
            <path fill="#72B7E5" d="M159.815 225.757h10.317"/>
            <path stroke="#466DFF" stroke-linecap="round" stroke-linejoin="round" stroke-width="1.768" d="M150.348 225.757h-37.27M199.848 225.757H162.62M253.37 225.757h-42.898M313.404 225.757h-49.41"/>
            <path fill="#72B7E5" d="M258.354 213.234c-6.936 0-12.56-5.59-12.56-12.484 0-6.895 5.624-12.484 12.56-12.484 6.937 0 12.56 5.59 12.56 12.484 0 6.895-5.623 12.484-12.56 12.484m17.304-22.172l-7.643-7.482.052-.052a19.892 19.892 0 0 0-4.4-1.794h-10.625a19.776 19.776 0 0 0-4.878 2.084l-7.112 7.24a19.573 19.573 0 0 0-1.826 4.402l.065 10.64h-.05a19.428 19.428 0 0 0 1.788 4.303l.052-.051 7.524 7.597a19.865 19.865 0 0 0 9.75 2.55c3.53 0 6.839-.924 9.712-2.53l-.052-.05 7.643-7.482a19.503 19.503 0 0 0 1.898-4.68l-.04-10.164a19.568 19.568 0 0 0-1.858-4.531"/>
            <path fill="#72B7E5" d="M263.666 181.735h.07v-3.66a2.022 2.022 0 0 0-2.026-2.018H255c-1.12 0-2.028.903-2.028 2.017v3.66h.07a19.932 19.932 0 0 1 5.312-.735c1.843 0 3.62.269 5.312.736M253.042 219.775h-.07v3.66c0 1.115.908 2.018 2.028 2.018h6.709c1.12 0 2.028-.903 2.028-2.017v-3.66h-.07c-1.695.466-3.47.735-5.313.735-1.842 0-3.618-.269-5.312-.736M248.164 183.818l.38-.386-2.514-2.5a2.038 2.038 0 0 0-2.87 0l-4.743 4.715a2.007 2.007 0 0 0 0 2.852l2.605 2.59.029-.03a19.879 19.879 0 0 1 7.113-7.241M239.226 195.46v-.062h-3.685c-1.12 0-2.03.904-2.03 2.017v6.668c0 1.113.91 2.017 2.03 2.017h3.701a19.624 19.624 0 0 1-.758-5.35c0-1.835.271-3.604.742-5.29M241.03 210.404L238.416 213a2.007 2.007 0 0 0 0 2.852l4.743 4.715a2.038 2.038 0 0 0 2.87 0l2.605-2.59-.03-.029a19.877 19.877 0 0 1-7.576-7.545M268.067 217.97l2.614 2.598a2.036 2.036 0 0 0 2.868 0l4.744-4.715a2.007 2.007 0 0 0 0-2.852l-2.606-2.59-.028.026a19.874 19.874 0 0 1-7.592 7.533M281.168 195.399h-3.652v.193c.448 1.647.708 3.37.708 5.157 0 1.734-.248 3.406-.669 5.007l.002.345h3.61c1.121 0 2.03-.904 2.03-2.017v-6.668a2.022 2.022 0 0 0-2.03-2.017M275.659 191.062l.028.027 2.606-2.59a2.007 2.007 0 0 0 0-2.852l-4.744-4.715a2.038 2.038 0 0 0-2.87 0l-2.612 2.597a19.886 19.886 0 0 1 7.592 7.533M284.39 181.735c0-4.038 3.2-7.309 7.147-7.309 3.95 0 7.148 3.271 7.148 7.309 0 4.035-3.199 7.309-7.148 7.309-3.947 0-7.147-3.274-7.147-7.31m12.675 10.084l-.028-.03 4.349-4.381c.47-.853.83-1.773 1.08-2.74l-.024-5.952a11.699 11.699 0 0 0-1.055-2.652l-4.35-4.38.028-.031c-.78-.45-1.621-.8-2.505-1.05h-6.044c-.99.28-1.919.693-2.776 1.218l-4.05 4.24a11.588 11.588 0 0 0-1.037 2.579l.036 6.23h-.027c.243.886.584 1.731 1.016 2.517l.028-.03 4.284 4.448a11.1 11.1 0 0 0 2.526 1.063h6.044c.882-.25 1.724-.6 2.505-1.05M294.56 170.602h.041v-2.143c0-.652-.518-1.18-1.156-1.18h-3.816c-.637 0-1.154.528-1.154 1.18v2.143h.04c.964-.272 1.975-.43 3.022-.43 1.05 0 2.06.158 3.024.43M291.537 193.298c-1.048 0-2.058-.158-3.021-.43h-.041v2.142c0 .652.517 1.18 1.154 1.18h3.816a1.17 1.17 0 0 0 1.156-1.18v-2.142h-.04c-.965.272-1.974.43-3.024.43"/>
            <path fill="#72B7E5" d="M285.74 171.821l.214-.225-1.43-1.465a1.137 1.137 0 0 0-1.632 0l-2.701 2.762a1.197 1.197 0 0 0 0 1.669l1.483 1.518.016-.018a11.488 11.488 0 0 1 4.05-4.241M280.653 178.638l-.002-.036h-2.098c-.637 0-1.154.53-1.154 1.18v3.905c0 .651.517 1.18 1.154 1.18h2.108a11.789 11.789 0 0 1-.431-3.133c0-1.074.155-2.109.423-3.096M281.678 187.386l-1.487 1.52a1.2 1.2 0 0 0 0 1.67l2.7 2.76c.45.462 1.181.462 1.631 0l1.483-1.516-.014-.016a11.472 11.472 0 0 1-4.313-4.418M297.065 191.817l1.487 1.52a1.137 1.137 0 0 0 1.634 0l2.697-2.76a1.2 1.2 0 0 0 0-1.67l-1.481-1.516-.018.015a11.467 11.467 0 0 1-4.319 4.411M302.465 184.666v.202h2.055c.637 0 1.154-.53 1.154-1.182v-3.903c0-.651-.517-1.18-1.154-1.18h-2.078v.113c.255.964.404 1.97.404 3.018 0 1.016-.14 1.994-.38 2.932M301.387 176.063l.015.016 1.482-1.518a1.197 1.197 0 0 0 0-1.668l-2.7-2.762a1.14 1.14 0 0 0-1.633 0l-1.485 1.522a11.484 11.484 0 0 1 4.32 4.41"/>
            <path stroke="#466DFF" stroke-linecap="round" stroke-linejoin="round" stroke-width="1.768" d="M253.37 219.776v5.633"/>
            <path stroke="#466DFF" stroke-linejoin="round" stroke-width="1.768" d="M246.29 200.907c0-6.842 5.55-12.388 12.393-12.388 6.844 0 12.393 5.546 12.393 12.388s-5.549 12.386-12.393 12.386c-6.843 0-12.392-5.544-12.392-12.386z"/>
            <path stroke="#466DFF" stroke-linejoin="round" stroke-width="1.768" d="M239.076 200.907c0-10.824 8.78-19.6 19.607-19.6 10.829 0 19.606 8.776 19.606 19.6 0 10.824-8.777 19.598-19.606 19.598-10.828 0-19.607-8.774-19.607-19.598z"/>
            <path stroke="#466DFF" stroke-linejoin="round" stroke-width="1.768" d="M263.995 182.038v-3.632a2 2 0 0 0-2.002-2.001h-6.618a2.002 2.002 0 0 0-2.004 2v3.633M249.003 183.722l-2.482-2.48a2 2 0 0 0-2.83 0l-4.682 4.679a1.998 1.998 0 0 0 0 2.829l2.572 2.57M239.809 195.597h-3.638a2 2 0 0 0-2.002 2.001v6.617a2 2 0 0 0 2.002 2.001h3.701M241.64 210.435l-2.63 2.627a1.997 1.997 0 0 0 0 2.83l4.68 4.679a2 2 0 0 0 2.831 0l2.572-2.57M268.217 217.944l2.627 2.628a2.003 2.003 0 0 0 2.832 0l4.682-4.68a1.998 1.998 0 0 0 0-2.829l-2.572-2.569M277.631 206.216h3.565a2.002 2.002 0 0 0 2.002-2v-6.618a2.002 2.002 0 0 0-2.002-2h-3.604M275.787 191.32l2.57-2.57a1.995 1.995 0 0 0 0-2.83l-4.68-4.679a2.003 2.003 0 0 0-2.832 0l-2.627 2.628"/>
            <path stroke="#FFF" stroke-linecap="round" stroke-linejoin="round" stroke-width="2.125" d="M244.225 204.505a14.887 14.887 0 0 1-.439-3.599c0-4.357 1.873-8.276 4.857-10.999"/>
            <path stroke="#FFF" stroke-linecap="round" stroke-linejoin="round" stroke-width="2.014" d="M280.907 197.933v5.893M276.37 214.476l-4.17 4.166"/>
            <path stroke="#466DFF" stroke-linejoin="round" stroke-width="1.768" d="M284.226 182.038a7.31 7.31 0 0 1 7.312-7.309 7.31 7.31 0 0 1 7.312 7.31 7.31 7.31 0 0 1-7.312 7.308 7.31 7.31 0 0 1-7.312-7.309z"/>
            <path stroke="#466DFF" stroke-linejoin="round" stroke-width="1.768" d="M279.97 182.038c0-6.385 5.179-11.564 11.567-11.564 6.39 0 11.569 5.179 11.569 11.564s-5.18 11.564-11.569 11.564c-6.388 0-11.567-5.179-11.567-11.564z"/>
            <path stroke="#466DFF" stroke-linejoin="round" stroke-width="1.768" d="M294.671 170.905v-2.142c0-.653-.529-1.18-1.18-1.18h-3.907a1.18 1.18 0 0 0-1.18 1.18v2.142M288.403 193.171v2.143c0 .652.53 1.18 1.181 1.18h3.906a1.18 1.18 0 0 0 1.181-1.18v-2.143M285.826 171.899l-1.464-1.464a1.184 1.184 0 0 0-1.67 0l-2.762 2.76a1.18 1.18 0 0 0 0 1.67l1.517 1.517M280.402 178.906h-2.147c-.652 0-1.18.529-1.18 1.18v3.904c0 .652.528 1.18 1.18 1.18h2.184M281.48 187.66l-1.55 1.55a1.18 1.18 0 0 0 0 1.67l2.763 2.76a1.179 1.179 0 0 0 1.67 0l1.516-1.516M297.162 192.09l1.55 1.55a1.18 1.18 0 0 0 1.671 0l2.762-2.76a1.18 1.18 0 0 0 0-1.67l-1.517-1.516M302.717 185.17h2.101a1.18 1.18 0 0 0 1.181-1.18v-3.904a1.18 1.18 0 0 0-1.18-1.18h-2.126M301.629 176.382l1.515-1.516a1.18 1.18 0 0 0 0-1.67l-2.76-2.76a1.18 1.18 0 0 0-1.67 0l-1.551 1.55"/>
            <path stroke="#FFF" stroke-linecap="round" stroke-linejoin="round" stroke-width=".884" d="M282.819 183.974a8.839 8.839 0 0 1-.259-2.123 8.766 8.766 0 0 1 2.868-6.491M304.648 180.284v3.476M301.973 190.044l-2.46 2.459"/>
            <path stroke="#466DFF" stroke-linecap="round" stroke-linejoin="round" stroke-width="1.768" d="M263.995 225.41V219.773"/>
            <path fill="#72B7E5" d="M204.849 213.234c-6.937 0-12.56-5.59-12.56-12.484 0-6.895 5.623-12.484 12.56-12.484s12.56 5.59 12.56 12.484c0 6.895-5.623 12.484-12.56 12.484m17.304-22.172l-7.643-7.482.051-.052a19.892 19.892 0 0 0-4.4-1.794h-10.624a19.776 19.776 0 0 0-4.878 2.084l-7.112 7.24a19.573 19.573 0 0 0-1.827 4.402l.066 10.64h-.05a19.428 19.428 0 0 0 1.788 4.303l.051-.051 7.526 7.597a19.853 19.853 0 0 0 9.748 2.55c3.531 0 6.84-.924 9.712-2.53l-.051-.05 7.643-7.482a19.503 19.503 0 0 0 1.897-4.68l-.039-10.164a19.568 19.568 0 0 0-1.858-4.531"/>
            <path fill="#72B7E5" d="M210.16 181.735h.071v-3.66a2.022 2.022 0 0 0-2.026-2.018h-6.71c-1.121 0-2.029.903-2.029 2.017v3.66h.07a19.932 19.932 0 0 1 5.313-.735c1.842 0 3.62.269 5.312.736M199.537 219.775h-.07v3.66c0 1.115.907 2.018 2.028 2.018h6.708c1.12 0 2.029-.903 2.029-2.017v-3.66h-.071c-1.694.466-3.47.735-5.312.735-1.843 0-3.618-.269-5.312-.736M194.659 183.818l.38-.386-2.515-2.5a2.038 2.038 0 0 0-2.869 0l-4.744 4.715a2.007 2.007 0 0 0 0 2.852l2.606 2.59.028-.03a19.879 19.879 0 0 1 7.114-7.241M185.72 195.46v-.062h-3.685c-1.12 0-2.03.904-2.03 2.017v6.668c0 1.113.91 2.017 2.03 2.017h3.702a19.624 19.624 0 0 1-.758-5.35c0-1.835.27-3.604.742-5.29M187.524 210.404L184.91 213a2.007 2.007 0 0 0 0 2.852l4.744 4.715a2.038 2.038 0 0 0 2.869 0l2.605-2.59-.028-.029a19.87 19.87 0 0 1-7.577-7.545M214.562 217.97l2.614 2.598a2.036 2.036 0 0 0 2.867 0l4.744-4.715a2.007 2.007 0 0 0 0-2.852l-2.605-2.59-.029.026a19.874 19.874 0 0 1-7.591 7.533M227.662 195.399h-3.651v.193c.447 1.647.708 3.37.708 5.157 0 1.734-.248 3.406-.67 5.007l.002.345h3.611c1.12 0 2.029-.904 2.029-2.017v-6.668a2.022 2.022 0 0 0-2.029-2.017M222.153 191.062l.029.027 2.605-2.59a2.007 2.007 0 0 0 0-2.852l-4.744-4.715a2.038 2.038 0 0 0-2.869 0l-2.612 2.597a19.874 19.874 0 0 1 7.591 7.533"/>
            <path stroke="#466DFF" stroke-linecap="round" stroke-linejoin="round" stroke-width="1.768" d="M199.865 219.776v5.633"/>
            <path stroke="#466DFF" stroke-linejoin="round" stroke-width="1.768" d="M192.785 200.907c0-6.842 5.55-12.388 12.392-12.388 6.845 0 12.394 5.546 12.394 12.388s-5.55 12.386-12.394 12.386c-6.843 0-12.392-5.544-12.392-12.386z"/>
            <path stroke="#466DFF" stroke-linejoin="round" stroke-width="1.768" d="M185.57 200.907c0-10.824 8.78-19.6 19.607-19.6 10.83 0 19.608 8.776 19.608 19.6 0 10.824-8.779 19.598-19.608 19.598-10.827 0-19.607-8.774-19.607-19.598z"/>
            <path stroke="#466DFF" stroke-linejoin="round" stroke-width="1.768" d="M210.49 182.038v-3.632a2 2 0 0 0-2.003-2.001h-6.618a2.002 2.002 0 0 0-2.004 2v3.633M195.497 183.722l-2.48-2.48a2.003 2.003 0 0 0-2.831 0l-4.682 4.679a1.998 1.998 0 0 0 0 2.829l2.572 2.57M186.303 195.597h-3.637a2 2 0 0 0-2.002 2.001v6.617a2 2 0 0 0 2.002 2.001h3.7M188.134 210.435l-2.629 2.627a1.997 1.997 0 0 0 0 2.83l4.68 4.679a2.003 2.003 0 0 0 2.832 0l2.57-2.57M214.712 217.944l2.627 2.628a2.003 2.003 0 0 0 2.832 0l4.681-4.68a1.998 1.998 0 0 0 0-2.829l-2.571-2.569M224.126 206.216h3.564a2.002 2.002 0 0 0 2.002-2v-6.618a2.002 2.002 0 0 0-2.002-2h-3.603M222.281 191.32l2.57-2.57a1.995 1.995 0 0 0 0-2.83l-4.68-4.679a2.003 2.003 0 0 0-2.832 0l-2.626 2.628"/>
            <path stroke="#FFF" stroke-linecap="round" stroke-linejoin="round" stroke-width="2.125" d="M190.72 204.505a14.887 14.887 0 0 1-.44-3.599c0-4.357 1.873-8.276 4.858-10.999"/>
            <path stroke="#FFF" stroke-linecap="round" stroke-linejoin="round" stroke-width="2.014" d="M227.401 197.933v5.893M222.864 214.476l-4.169 4.166"/>
            <path stroke="#466DFF" stroke-linecap="round" stroke-linejoin="round" stroke-width="1.768" d="M210.49 225.41V219.773"/>
            <path fill="#72B7E5" d="M162.619 225.735a21.49 21.49 0 0 0 2.11-.59c2.382-.815 4.407-1.979 6.073-3.49 1.667-1.51 2.959-3.346 3.876-5.504.919-2.158 1.379-4.58 1.379-7.266 0-2.879-.46-5.336-1.38-7.376-.916-2.038-2.17-3.707-3.764-5.002-1.597-1.293-3.464-2.252-5.607-2.877-2.144-.622-4.464-.935-6.958-.935-1.392 0-2.592.084-3.599.25l-.03.006c-1.52.257-2.892-.941-2.79-2.479l.225-3.391a2.388 2.388 0 0 1 2.383-2.23h16.886a2.386 2.386 0 0 0 2.386-2.386v-4.942a2.385 2.385 0 0 0-2.386-2.385h-26.37c-1.266 0-2.31.986-2.384 2.25l-1.23 21.203c-.048.85.355 1.66 1.065 2.129l4.214 2.792c.655.435 1.475.499 2.213.22.87-.323 1.788-.61 2.758-.856 1.416-.36 2.917-.54 4.5-.54 2.734 0 4.906.602 6.515 1.807 1.607 1.207 2.41 2.92 2.41 5.136 0 2.316-.755 4.075-2.267 5.281-1.513 1.205-3.563 1.807-6.156 1.807-2.255 0-4.344-.478-6.263-1.439-1.329-.665-2.658-1.514-3.987-2.545a2.388 2.388 0 0 0-3.298.334l-3.659 4.356c-.872 1.037-.697 2.581.358 3.43a28.209 28.209 0 0 0 6.34 3.866c1.352.595 2.823 1.035 4.384 1.366"/>
            <path stroke="#466DFF" stroke-linecap="round" stroke-linejoin="round" stroke-width="1.768" d="M162.619 225.735a21.49 21.49 0 0 0 2.11-.59c2.382-.815 4.407-1.979 6.073-3.49 1.667-1.51 2.959-3.346 3.876-5.504.919-2.158 1.379-4.58 1.379-7.266 0-2.879-.46-5.336-1.38-7.376-.916-2.038-2.17-3.707-3.764-5.002-1.597-1.293-3.464-2.252-5.607-2.877-2.144-.622-4.464-.935-6.958-.935-1.392 0-2.592.084-3.599.25l-.03.006c-1.52.257-2.892-.941-2.79-2.479l.225-3.391a2.388 2.388 0 0 1 2.383-2.23h16.886a2.386 2.386 0 0 0 2.386-2.386v-4.942a2.385 2.385 0 0 0-2.386-2.385h-26.37c-1.266 0-2.31.986-2.384 2.25l-1.23 21.203c-.048.85.355 1.66 1.065 2.129l4.214 2.792c.655.435 1.475.499 2.213.22.87-.323 1.788-.61 2.758-.856 1.416-.36 2.917-.54 4.5-.54 2.734 0 4.906.602 6.515 1.807 1.607 1.207 2.41 2.92 2.41 5.136 0 2.316-.755 4.075-2.267 5.281-1.513 1.205-3.563 1.807-6.156 1.807-2.255 0-4.344-.478-6.263-1.439-1.329-.665-2.658-1.514-3.987-2.545a2.388 2.388 0 0 0-3.298.334l-3.659 4.356c-.872 1.037-.697 2.581.358 3.43a28.209 28.209 0 0 0 6.34 3.866c1.352.595 2.823 1.035 4.384 1.366"/>
            <path stroke="#FFF" stroke-linecap="round" stroke-linejoin="round" stroke-width="1.616" d="M159.481 222.666a24.82 24.82 0 0 0 2.11-.491c2.383-.683 4.408-1.655 6.073-2.916 1.668-1.262 2.96-2.794 3.877-4.597.918-1.802 1.378-3.826 1.378-6.07 0-2.402-.46-4.457-1.378-6.16M153.81 178.57h15.759"/>
        </g>
    </g>
</svg>
