<?xml version="1.0" encoding="utf-8"?>
<!-- Generator: Adobe Illustrator 16.0.0, SVG Export Plug-In . SVG Version: 6.00 Build 0)  -->
<!DOCTYPE svg PUBLIC "-//W3C//DTD SVG 1.1//EN" "http://www.w3.org/Graphics/SVG/1.1/DTD/svg11.dtd">
<svg version="1.1" id="Layer_1" xmlns="http://www.w3.org/2000/svg" xmlns:xlink="http://www.w3.org/1999/xlink" x="0px" y="0px"
	 width="178.529px" height="166px" viewBox="0 0 178.529 166" enable-background="new 0 0 178.529 166" xml:space="preserve">
<path fill="#FFFFFF" d="M117.61,32.723l-11.426,9.475c8.443,9.166,13.613,21.39,13.613,34.831c0,28.434-23.053,51.478-51.489,51.478
	c-28.426,0-51.478-23.044-51.478-51.478c0-17.018,8.263-32.106,20.993-41.479l-15.812-5.96C9.671,41.627,2.001,58.426,2.001,77.03
	c0,36.623,29.692,66.307,66.307,66.307c36.624,0,66.318-29.685,66.318-66.308C134.626,59.986,128.179,44.464,117.61,32.723"/>
<g transform="translate(0 27.186)">
	<defs>
		<filter id="Adobe_OpacityMaskFilter" filterUnits="userSpaceOnUse" x="-0.001" y="0.083" width="136.628" height="118.068">
			<feColorMatrix  type="matrix" values="1 0 0 0 0  0 1 0 0 0  0 0 1 0 0  0 0 0 1 0"/>
		</filter>
	</defs>
	<mask maskUnits="userSpaceOnUse" x="-0.001" y="0.083" width="136.628" height="118.068" id="b">
		<g filter="url(#Adobe_OpacityMaskFilter)">
			<path id="a" fill="#FFFFFF" d="M0,0.084h136.626V118.15H0V0.084z"/>
		</g>
	</mask>
	<path mask="url(#b)" d="M22.51,4.73C10.563,16.834,4,32.803,4,49.842c0,35.46,28.849,64.31,64.309,64.31
		c35.465,0,64.317-28.85,64.317-64.31c0.006-15.21-5.395-29.927-15.24-41.522l-8.334,6.912c8.235,9.651,12.754,21.924,12.745,34.61
		c0,29.49-23.995,53.48-53.488,53.48c-29.488,0-53.48-23.99-53.48-53.48c0-15.721,7.035-30.738,18.98-40.853L22.51,4.73L22.51,4.73z
		 M68.309,118.15c-37.665,0-68.31-30.645-68.31-68.308C0,31.294,7.323,13.938,20.616,0.973l0.912-0.89l20.448,7.71L39.01,9.975
		c-12.635,9.304-20.18,24.207-20.18,39.868c0,27.282,22.198,49.478,49.48,49.478c27.288,0,49.488-22.194,49.488-49.478
		c0-12.428-4.646-24.317-13.083-33.477l-1.428-1.548l14.526-12.046l1.285,1.427c11.291,12.521,17.536,28.785,17.529,45.644
		C136.627,87.507,105.98,118.151,68.309,118.15L68.309,118.15z"/>
</g>
<path d="M80.264,72.07c-7.145,2.53-3.29-2.104-10.434,0.427c-8.022,2.842-11.671,7.523-16.834,14.29
	c-6.04,7.917,7.477,14.029-3.191,28.604c15.713,1.019,6.154,13.141,5.59,20.36c-0.306,3.906-3.033,7.483-6.665,8.952
	c-3.632,1.47-7.995,0.838-11.155-1.479c-6.67-4.886-2.865-16.875-4.58-23.438c-1.42-5.444-6.492-9.54-6.61-15.165
	c-0.307-14.616-2.653-32.23,4.255-46.606c4.659-9.695,13.52-17.281,23.816-20.391c10.298-3.11,21.875-1.697,31.123,3.799
	c4.488,2.667,8.818,7.293,7.81,12.416c2.832-2.367,7.418-2.266,10.144,0.223c1.468,1.34,2.36,3.19,3.119,5.028
	c5.546,13.445,5.629,29.054,0.225,42.558c-5.403,13.504-16.23,24.748-29.52,30.656C74.175,108.79,69.392,93.162,80.264,72.07"/>
<path fill="#FFFFFF" d="M42.996,163.186v-27.537c0-9.824,8.038-17.861,17.862-17.861h12.277c9.824,0,17.861,8.037,17.861,17.861
	v27.537"/>
<path d="M90.996,165.186c-1.104,0-2-0.895-2-2v-27.537c0-8.746-7.115-15.861-15.86-15.861H60.857
	c-8.746,0-15.862,7.115-15.862,15.861v27.537c0,1.105-0.896,2-2,2s-2-0.895-2-2v-27.537c0-10.951,8.91-19.861,19.862-19.861h12.277
	c10.951,0,19.861,8.91,19.861,19.861v27.537C92.995,164.291,92.1,165.186,90.996,165.186"/>
<path fill="#FFFFFF" d="M68.996,135.287c-2.482-0.008-4.493-2.018-4.5-4.5v-11.001c0.006-2.482,2.018-4.493,4.5-4.5
	c2.476,0,4.5,2.024,4.5,4.5v11C73.496,133.262,71.472,135.286,68.996,135.287"/>
<path d="M68.996,116.787c-1.654,0-3,1.346-3,2.999v11c0,1.655,1.346,3,3,3c1.654,0,3-1.345,3-3v-11
	C71.994,118.13,70.652,116.787,68.996,116.787 M68.996,136.786c-3.309,0-6-2.69-6-6v-11c0.003-3.312,2.688-5.997,6-6
	c3.31,0,6,2.692,6,6v11C74.996,134.096,72.306,136.786,68.996,136.786"/>
<path fill="#FFFFFF" d="M69.597,125.143c-11.818,0-21.4-9.58-21.4-21.399V83.83c0-11.818,9.582-21.399,21.4-21.399
	c11.818,0,21.399,9.581,21.399,21.4v19.913c0,11.818-9.581,21.4-21.4,21.4"/>
<path d="M69.597,64.43c-10.697,0-19.4,8.702-19.4,19.4v19.913c0,10.696,8.703,19.399,19.4,19.399
	c10.697,0,19.399-8.703,19.399-19.399V83.83C88.996,73.133,80.294,64.431,69.597,64.43 M69.596,127.143
	c-12.901,0-23.398-10.496-23.398-23.398V83.83c0-12.902,10.497-23.399,23.399-23.399c12.902,0,23.399,10.497,23.399,23.4v19.913
	c0,12.902-10.497,23.4-23.4,23.4"/>
<path d="M64.36,91.846c-0.892-0.002-1.615-0.724-1.617-1.615v-7.112c0-0.888,0.727-1.616,1.616-1.616
	c0.89,0,1.617,0.728,1.617,1.616v7.112C65.974,91.122,65.251,91.844,64.36,91.846 M80.522,91.846
	c-0.892-0.002-1.614-0.725-1.616-1.615v-7.112c0-0.888,0.727-1.616,1.616-1.616c0.89,0,1.616,0.728,1.616,1.616v7.112
	C82.136,91.121,81.414,91.844,80.522,91.846"/>
<path fill="#FFFFFF" d="M61.773,91.223l-2.285-2.285l2.285-2.285l2.286,2.285L61.773,91.223z M77.936,91.223l-2.286-2.285
	l2.286-2.285l2.286,2.285L77.936,91.223z"/>
<path d="M74.894,94.496c0.825,1.438,2.313,2.1,3.932,2.146c0.94,0.028,1.88-0.272,2.819-0.199c0.398,0.029,0.273-0.09,0.025,0.082
	c-0.388,0.27-0.752,0.513-1.19,0.725c-1.737,0.84-0.219,3.427,1.514,2.59c1.953-0.941,4.002-3.316,2.106-5.396
	c-0.71-0.78-1.797-1.028-2.82-1c-1.118,0.029-3.099,0.755-3.796-0.463C76.524,91.309,73.932,92.816,74.894,94.496 M59.685,103.007
	c1.908,4.248,6.694,6.2,11.05,4.586c1.795-0.663,1.018-3.565-0.798-2.893c-3.216,1.192-6.262-0.089-7.662-3.208
	C61.485,99.734,58.9,101.258,59.685,103.007 M86.052,62.995C72.186,73.715,54.539,79.44,37.02,78.903
	c6.073-6.516,12.322-13.168,20.275-17.18c7.952-4.013,18.092-4.908,25.48,0.069"/>
<path fill="#FFFFFF" d="M45.996,101.787c-3.3,0-6-2.7-6-6v-4.001c0-3.3,2.7-6,6-6"/>
<path fill="#0F0F0F" d="M45.996,103.787c-4.41,0-8-3.59-8-8v-4.001c0-4.411,3.59-8,8-8v4c-2.206,0-4,1.795-4,4v4
	c0,2.207,1.794,4,4,4V103.787L45.996,103.787z"/>
<path fill="#FFFFFF" d="M124.074,36.221l-8.437-9.905l-0.965-1.133l-2.92,1.822l-5.03-8.262l-8.887-7.888l-5.474-2.5L80.704,4.079
	l-6.92-2.823l-0.219,2.608l0.684,3.145l11.055,5.894l1.838,2.118l3.826,7.347l2.695,10.145l7.971,4l-2.46,2.194l10.267,11.522
	L124.074,36.221z"/>
<path d="M73.973,3.493c0.058-0.053,0.233-0.095,0.527-0.006l19.758,7.425c1,0.396,2.002,1.028,2.712,1.807l12.84,14.087
	l-7.908,7.209c-2.058-0.74-7.178-3.085-7.92-7.637c-0.81-5.325-4.414-8.814-6.48-10.495c-0.274-0.195-0.414-0.529-0.36-0.862
	l0.06-0.053c0.115-0.224,0.29-0.265,0.525-0.242c0.059,0.066,0.117,0.013,0.176,0.078c1.707,0.82,4.182,2.368,6.02,4.97
	c0.594,0.767,1.593,1.045,2.292,0.527c0.699-0.518,0.866-1.502,0.274-2.27c-0.415-0.572-0.89-1.092-1.363-1.611
	c-2.071-2.272-4.427-3.69-6.193-4.575c-0.234-0.137-0.495-0.224-0.765-0.254L73.986,5.026c-0.353-0.154-0.591-0.531-0.477-0.873
	l0.057-0.29C73.739,3.587,73.855,3.481,73.973,3.493z M114.503,27.282l7.753,8.504l-13.143,11.98l-7.752-8.503L114.503,27.282
	L114.503,27.282z M70.452,2.9l-0.056,0.288c-0.336,1.852,0.795,3.91,2.679,4.809l11.18,5.14c-0.057,0.053-0.116,0.106-0.056,0.17
	l-0.06,0.054c-0.747,1.633-0.142,3.815,1.452,5.096c1.594,1.28,4.43,4.044,5.052,8.112c0.809,5.325,5.523,8.397,8.585,9.885
	l-1.454,1.325c-0.64,0.583-0.631,1.645,0.02,2.359l10.118,11.1c0.652,0.715,1.708,0.822,2.347,0.239l15.528-14.154
	c0.64-0.583,0.63-1.644-0.02-2.36l-10.12-11.1c-0.65-0.714-1.706-0.821-2.346-0.238l-1.163,1.06L99.297,10.598
	c-1.183-1.297-2.598-2.266-4.185-2.84L75.29,0.269c-1.116-0.407-2.228-0.343-3.162,0.15c-0.875,0.56-1.512,1.38-1.678,2.482
	L70.452,2.9z"/>
<path fill="#FFFFFF" d="M13.293,35.982l8.51-9.843l0.973-1.126l2.908,1.844l5.09-8.224l8.944-7.824l5.492-2.46l11.688-4.19
	l6.942-2.772l0.199,2.609l-0.707,3.14l-11.099,5.813l-1.853,2.104l-3.879,7.32l-2.77,10.125l-8.001,3.94l2.445,2.213L27.823,50.097
	L13.293,35.982z"/>
<path d="M64.04,3.996l0.053,0.29c0.111,0.343-0.129,0.718-0.484,0.869l-14.229,6.46c-0.236,0.023-0.529,0.11-0.767,0.249
	c-1.772,0.873-4.139,2.274-6.227,4.53c-0.477,0.516-0.954,1.032-1.373,1.6c-0.599,0.764-0.439,1.75,0.256,2.273
	s1.696,0.252,2.294-0.51c1.86-2.588,4.345-4.117,6.058-4.926c0.06-0.064,0.117-0.012,0.177-0.076c0.235-0.022,0.41,0.02,0.524,0.245
	l0.058,0.054c0.052,0.332-0.09,0.665-0.365,0.858c-2.08,1.668-5.71,5.129-6.557,10.448c-0.776,4.547-5.913,6.856-7.977,7.579
	l-7.855-7.267L40.57,12.68c0.716-0.774,1.723-1.4,2.726-1.788l19.811-7.28c0.295-0.086,0.47-0.043,0.53,0.01
	C63.753,3.611,63.868,3.719,64.04,3.996z M35.983,39.19l-7.814,8.448L15.115,35.56l7.814-8.446L35.983,39.19L35.983,39.19z
	 M65.5,0.562c-0.93-0.501-2.042-0.573-3.162-0.173L42.466,7.733c-1.592,0.562-3.014,1.52-4.207,2.809L25.315,24.535l-1.155-1.07
	c-0.636-0.587-1.692-0.488-2.349,0.22l-10.2,11.028c-0.656,0.71-0.673,1.77-0.037,2.358l15.423,14.268
	c0.636,0.588,1.692,0.488,2.35-0.221l10.2-11.026c0.655-0.71,0.672-1.771,0.036-2.36l-1.444-1.335
	c3.072-1.465,7.81-4.502,8.657-9.821c0.651-4.064,3.51-6.806,5.111-8.075c1.604-1.27,2.224-3.447,1.488-5.085l-0.057-0.054
	c0.06-0.064,0.002-0.117-0.056-0.171L64.5,8.133c1.891-0.884,3.037-2.935,2.715-4.788l-0.055-0.29
	C67.002,1.952,66.371,1.128,65.5,0.562z"/>
<path fill="#FFFFFF" d="M168.61,48.72l-11.205,11.205L146.2,48.72l-5.603-5.603c-3.051-3.139-2.979-8.156,0.16-11.207
	c3.075-2.989,7.971-2.989,11.046,0l5.603,5.604l5.602-5.604c3.096-3.093,8.112-3.093,11.207,0c3.093,3.095,3.093,8.111,0,11.207
	L168.61,48.72L168.61,48.72z"/>
<g transform="translate(136 27.186)">
	<defs>
		<filter id="Adobe_OpacityMaskFilter_1_" filterUnits="userSpaceOnUse" x="0.279" y="0.408" width="42.25" height="35.159">
			<feColorMatrix  type="matrix" values="1 0 0 0 0  0 1 0 0 0  0 0 1 0 0  0 0 0 1 0"/>
		</filter>
	</defs>
	<mask maskUnits="userSpaceOnUse" x="0.279" y="0.408" width="42.25" height="35.159" id="d">
		<g filter="url(#Adobe_OpacityMaskFilter_1_)">
			<path id="c" fill="#FFFFFF" d="M0.28,0.409h42.249v35.158H0.279L0.28,0.409z"/>
		</g>
	</mask>
	<path mask="url(#d)" d="M10.2,4.406C8.629,4.403,7.121,5.026,6.011,6.138c-2.311,2.315-2.311,6.064,0,8.38L21.405,29.91
		L36.8,14.517c2.309-2.316,2.309-6.063,0-8.379c-2.315-2.309-6.062-2.309-8.378,0l-7.017,7.02l-7.017-7.02
		C13.278,5.027,11.771,4.403,10.2,4.406z M21.405,35.567L3.182,17.345c-3.87-3.869-3.87-10.166,0-14.035
		c3.872-3.869,10.167-3.868,14.035,0l4.188,4.19l4.19-4.19c3.867-3.868,10.163-3.87,14.033,0c3.868,3.87,3.868,10.166,0,14.035
		L21.405,35.567z"/>
</g>
<path d="M73.689,158.163l-5.375,5.375l-5.376-5.375l-2.688-2.688c-1.484-1.483-1.485-3.889-0.001-5.373c0-0.001,0-0.001,0.001-0.002
	c1.483-1.484,3.89-1.484,5.374-0.002c0,0.001,0.001,0.002,0.002,0.002l2.688,2.688L71,150.1c1.484-1.484,3.891-1.484,5.375,0
	s1.485,3.891,0,5.375l0,0l-2.689,2.688H73.689z"/>
</svg>
