<svg xmlns="http://www.w3.org/2000/svg" xmlns:xlink="http://www.w3.org/1999/xlink" width="421" height="291" viewBox="0 0 421 291">
    <defs>
        <path id="a" d="M.728 144.348c0 24.445 6.08 47.466 16.808 67.64 24.23 45.559 72.175 76.577 127.361 76.577 55.102 0 102.984-30.921 127.25-76.365 10.8-20.223 16.922-43.324 16.922-67.852C289.069 64.698 224.52.13 144.897.13 65.275.13.727 64.699.727 144.348z"/>
        <path id="c" d="M.728 144.348c0 24.445 6.08 47.466 16.808 67.64 24.23 45.559 72.175 76.577 127.361 76.577 55.102 0 102.984-30.921 127.25-76.365 10.8-20.223 16.922-43.324 16.922-67.852C289.069 64.698 224.52.13 144.897.13 65.275.13.727 64.699.727 144.348z"/>
        <path id="e" d="M.728 144.348c0 24.445 6.08 47.466 16.808 67.64 24.23 45.559 72.175 76.577 127.361 76.577 55.102 0 102.984-30.921 127.25-76.365 10.8-20.223 16.922-43.324 16.922-67.852C289.069 64.698 224.52.13 144.897.13 65.275.13.727 64.699.727 144.348z"/>
        <path id="g" d="M.728 144.348c0 24.445 6.08 47.466 16.808 67.64 24.23 45.559 72.175 76.577 127.361 76.577 55.102 0 102.984-30.921 127.25-76.365 10.8-20.223 16.922-43.324 16.922-67.852C289.069 64.698 224.52.13 144.897.13 65.275.13.727 64.699.727 144.348z"/>
        <path id="i" d="M.728 144.348c0 24.445 6.08 47.466 16.808 67.64 24.23 45.559 72.175 76.577 127.361 76.577 55.102 0 102.984-30.921 127.25-76.365 10.8-20.223 16.922-43.324 16.922-67.852C289.069 64.698 224.52.13 144.897.13 65.275.13.727 64.699.727 144.348z"/>
    </defs>
    <g fill="none" fill-rule="evenodd">
        <path fill="#C4E9FB" d="M89.243 270.817a143.524 143.524 0 0 1-3.239-5.766c-10.728-20.172-16.808-43.195-16.808-67.64 0-79.649 64.547-144.215 144.171-144.215s144.17 64.566 144.17 144.215c0 24.53-6.123 47.631-16.922 67.852a142.129 142.129 0 0 1-3.124 5.554"/>
        <path stroke="#466DFF" stroke-width="1.771" d="M392.093 172.567a5.274 5.274 0 1 1 5.273 5.275 5.274 5.274 0 0 1-5.273-5.275zM153.28 6.453a5.274 5.274 0 1 1 5.273 5.275 5.274 5.274 0 0 1-5.273-5.275zM275.696 91.355a5.274 5.274 0 1 1 5.271 5.275 5.274 5.274 0 0 1-5.271-5.275zM1.145 151.675a5.274 5.274 0 1 1 5.274 5.274 5.274 5.274 0 0 1-5.274-5.274zM25.252 219.648a5.274 5.274 0 1 1 5.273 5.275 5.274 5.274 0 0 1-5.273-5.275z"/>
        <path stroke="#466DFF" stroke-linecap="round" stroke-linejoin="round" stroke-width="1.771" d="M410.385 234.155l8.94-8.94M419.324 234.155l-8.94-8.94M400.645 101.1l8.94-8.942M409.583 101.1l-8.94-8.942M328.687 53.566l8.94-8.942M337.626 53.566l-8.94-8.942M174.191 81.412l8.94-8.942M183.13 81.412l-8.94-8.942M36.885 101.1l8.939-8.942M45.823 101.1l-8.94-8.942"/>
        <path stroke="#466DFF" stroke-linecap="round" stroke-linejoin="round" stroke-width="1.342" d="M75.587 270.585a157.694 157.694 0 0 1-1.639-3.168"/>
        <path stroke="#466DFF" stroke-dasharray="7.158516800588188,7.158516800588188" stroke-linecap="round" stroke-linejoin="round" stroke-width="1.342" d="M70.89 260.97c-8.667-19.413-13.487-40.924-13.487-63.558 0-86.164 69.828-156.013 155.963-156.013 86.139 0 155.965 69.849 155.965 156.013 0 23.993-5.415 46.719-15.087 67.025"/>
        <path stroke="#466DFF" stroke-linecap="round" stroke-linejoin="round" stroke-width="1.342" d="M352.667 267.65a149.058 149.058 0 0 1-1.644 3.166"/>
        <g>
            <g transform="translate(68.468 53.064)">
                <mask id="b" fill="#fff">
                    <use xlink:href="#a"/>
                </mask>
                <path fill="#FFFDFE" d="M254.207 22.646H166.04a5.794 5.794 0 1 1 0-11.588h88.166v11.588z" mask="url(#b)"/>
            </g>
            <g transform="translate(68.468 53.064)">
                <mask id="d" fill="#fff">
                    <use xlink:href="#c"/>
                </mask>
                <path fill="#FFFDFE" d="M323.624 104.924h-88.166a5.794 5.794 0 0 1 0-11.588h88.166v11.588z" mask="url(#d)"/>
            </g>
            <g transform="translate(68.468 53.064)">
                <mask id="f" fill="#fff">
                    <use xlink:href="#e"/>
                </mask>
                <path fill="#FFFDFE" d="M-13.804 93.336h88.166a5.794 5.794 0 1 0 0-11.589h-88.166v11.589z" mask="url(#f)"/>
            </g>
            <g transform="translate(68.468 53.064)">
                <mask id="h" fill="#fff">
                    <use xlink:href="#g"/>
                </mask>
                <path fill="#FFFDFE" d="M-19.17 39.937h88.166c3.2 0 5.792-2.596 5.792-5.795 0-3.2-2.593-5.794-5.792-5.794H-19.17v11.589z" mask="url(#h)"/>
            </g>
            <g transform="translate(68.468 53.064)">
                <mask id="j" fill="#fff">
                    <use xlink:href="#i"/>
                </mask>
                <path fill="#FFFDFE" d="M358.647 123.29h-88.166a5.795 5.795 0 1 1 0-11.59h88.166v11.59z" mask="url(#j)"/>
            </g>
        </g>
        <g stroke="#466DFF" stroke-width="1.771">
            <path d="M63.644 281.882h298.76v-10.19H63.644zM63.644 281.882l10.428 7.764h278.39l9.943-7.764"/>
            <path d="M92.745 271.694V122.269c0-6.7 5.428-12.13 12.126-12.13H320.45c6.696 0 12.128 5.43 12.128 12.13v149.425"/>
            <path d="M103.899 262.522h217.766V120.57H103.9z"/>
        </g>
        <g>
            <path fill="#72B7E5" d="M152.517 197.164c0-6.918 5.603-12.525 12.514-12.525 6.912 0 12.515 5.607 12.515 12.525 0 6.917-5.603 12.524-12.515 12.524-6.911 0-12.514-5.607-12.514-12.524m-6.579-5.175l-.039 10.198a19.756 19.756 0 0 0 1.89 4.697l7.616 7.506-.05.05a19.66 19.66 0 0 0 9.676 2.538c3.533 0 6.842-.937 9.714-2.56l7.498-7.621.05.053a19.787 19.787 0 0 0 1.782-4.319h-.05l.064-10.675a19.785 19.785 0 0 0-1.816-4.416l-7.088-7.263a19.605 19.605 0 0 0-4.86-2.091h-10.586a19.664 19.664 0 0 0-4.385 1.802l.051.05-7.617 7.506a19.782 19.782 0 0 0-1.85 4.545"/>
            <path fill="#72B7E5" d="M159.74 178.087h-.073v-3.673c0-1.118.906-2.023 2.023-2.023h6.684c1.116 0 2.021.905 2.021 2.023v3.673h-.072a19.71 19.71 0 0 0-5.291-.739c-1.836 0-3.605.27-5.293.739M170.324 216.25h.072v3.673a2.023 2.023 0 0 1-2.023 2.024h-6.684a2.022 2.022 0 0 1-2.021-2.024v-3.672h.072c1.686.468 3.455.738 5.293.738 1.836 0 3.603-.27 5.29-.738M175.185 180.176l-.378-.387 2.505-2.508a2.02 2.02 0 0 1 2.859 0l4.726 4.73c.79.79.79 2.072 0 2.862l-2.596 2.599-.028-.03a19.88 19.88 0 0 0-7.088-7.266M184.09 191.857v-.062h3.674c1.114 0 2.02.907 2.02 2.023v6.69a2.023 2.023 0 0 1-2.02 2.024h-3.69c.482-1.71.755-3.504.755-5.368 0-1.84-.27-3.616-.74-5.307M182.294 206.849l2.604 2.606c.788.79.788 2.071 0 2.86l-4.727 4.731a2.02 2.02 0 0 1-2.859 0l-2.596-2.598.028-.029a19.878 19.878 0 0 0 7.55-7.57M155.354 214.44l-2.603 2.606a2.02 2.02 0 0 1-2.859 0l-4.726-4.73a2.023 2.023 0 0 1 0-2.862l2.596-2.598.026.026a19.874 19.874 0 0 0 7.566 7.558M142.3 191.795h3.64v.194a19.8 19.8 0 0 0-.706 5.174c0 1.74.245 3.417.667 5.023l-.002.346H142.3a2.022 2.022 0 0 1-2.021-2.023v-6.69c0-1.118.905-2.024 2.02-2.024M147.789 187.444l-.026.027-2.597-2.599c-.79-.79-.79-2.07 0-2.86l4.725-4.731a2.02 2.02 0 0 1 2.86 0l2.604 2.605a19.899 19.899 0 0 0-7.566 7.558M131.969 185.419c-3.933 0-7.123-3.282-7.123-7.333 0-4.05 3.19-7.332 7.123-7.332 3.933 0 7.121 3.282 7.121 7.332 0 4.051-3.188 7.333-7.121 7.333m-3.012 3.838h6.022a11.131 11.131 0 0 0 2.517-1.067l4.266-4.463.03.029c.43-.788.771-1.637 1.014-2.526h-.028l.035-6.25a11.624 11.624 0 0 0-1.033-2.584l-4.033-4.255a10.99 10.99 0 0 0-2.766-1.223h-6.024c-.88.25-1.718.604-2.496 1.053l.03.03-4.335 4.397c-.455.827-.806 1.72-1.053 2.66l-.023 5.97c.247.97.607 1.894 1.076 2.75l4.335 4.394-.03.03c.78.451 1.615.802 2.496 1.055"/>
            <path fill="#72B7E5" d="M128.957 166.917h-.041v-2.15c0-.654.515-1.183 1.15-1.183h3.804c.635 0 1.15.529 1.15 1.184v2.15h-.039a10.984 10.984 0 0 0-3.012-.432c-1.046 0-2.053.158-3.012.431M131.969 189.687c1.044 0 2.051-.157 3.01-.43h.04v2.149c0 .653-.514 1.184-1.149 1.184h-3.804c-.635 0-1.15-.531-1.15-1.184v-2.15h.04c.96.274 1.969.431 3.013.431M137.746 168.14l-.215-.225 1.427-1.47a1.128 1.128 0 0 1 1.626 0l2.69 2.771a1.21 1.21 0 0 1 0 1.676l-1.479 1.52-.015-.017a11.487 11.487 0 0 0-4.034-4.255M142.814 174.98v-.036h2.09c.635 0 1.15.53 1.15 1.184v3.917c0 .654-.515 1.184-1.15 1.184h-2.099c.274-1 .43-2.052.43-3.143 0-1.078-.153-2.116-.42-3.107M141.793 183.756l1.481 1.525a1.213 1.213 0 0 1 0 1.676l-2.691 2.77a1.128 1.128 0 0 1-1.626 0l-1.476-1.52.014-.018a11.461 11.461 0 0 0 4.298-4.433M126.46 188.202l-1.48 1.525a1.127 1.127 0 0 1-1.628 0l-2.69-2.77a1.213 1.213 0 0 1 0-1.675l1.478-1.521.016.016a11.473 11.473 0 0 0 4.305 4.425M121.08 181.028v.2h-2.047c-.635 0-1.15-.53-1.15-1.183v-3.918c0-.653.515-1.184 1.15-1.184h2.07v.114a11.9 11.9 0 0 0-.402 3.03c0 1.019.14 2 .38 2.941M122.155 172.397l-.014.016-1.478-1.522a1.21 1.21 0 0 1 0-1.675l2.69-2.77a1.13 1.13 0 0 1 1.627 0l1.48 1.526a11.485 11.485 0 0 0-4.305 4.425"/>
            <path stroke="#466DFF" stroke-linejoin="round" stroke-width="1.767" d="M177.053 197.321c0-6.864-5.53-12.428-12.35-12.428-6.82 0-12.348 5.564-12.348 12.428 0 6.864 5.529 12.427 12.349 12.427s12.349-5.563 12.349-12.427z"/>
            <path stroke="#466DFF" stroke-linejoin="round" stroke-width="1.767" d="M184.24 197.321c0-10.86-8.746-19.661-19.536-19.661-10.79 0-19.536 8.802-19.536 19.661 0 10.86 8.746 19.662 19.536 19.662 10.79 0 19.536-8.802 19.536-19.662z"/>
            <path stroke="#466DFF" stroke-linejoin="round" stroke-width="1.767" d="M159.411 178.39v-3.643a2 2 0 0 1 1.995-2.008h6.596a2 2 0 0 1 1.994 2.008v3.644M174.35 180.08l2.472-2.488a1.984 1.984 0 0 1 2.82 0l4.665 4.694a2.018 2.018 0 0 1 0 2.839l-2.563 2.579M183.51 191.995h3.625c1.1 0 1.994.898 1.994 2.007v6.639c0 1.109-.894 2.007-1.994 2.007h-3.688M181.687 206.881l2.62 2.636c.779.784.779 2.055 0 2.84l-4.664 4.693a1.986 1.986 0 0 1-2.822 0l-2.56-2.577M155.204 214.414l-2.619 2.636a1.984 1.984 0 0 1-2.82 0l-4.664-4.693a2.02 2.02 0 0 1 0-2.84l2.562-2.577M145.824 202.648h-3.55a2 2 0 0 1-1.995-2.008v-6.638a2 2 0 0 1 1.995-2.008h3.59M147.662 187.704l-2.562-2.58a2.018 2.018 0 0 1 0-2.838l4.665-4.695a1.986 1.986 0 0 1 2.821 0l2.618 2.636"/>
            <path stroke="#FFF" stroke-linecap="round" stroke-linejoin="round" stroke-width="2.124" d="M179.11 200.931c.286-1.155.436-2.366.436-3.61a14.94 14.94 0 0 0-4.84-11.035"/>
            <path stroke="#FFF" stroke-linecap="round" stroke-linejoin="round" stroke-width="2.013" d="M142.56 194.337v5.913M147.081 210.935l4.153 4.18"/>
            <path stroke="#466DFF" stroke-linejoin="round" stroke-width="1.767" d="M139.254 178.39c0-4.048-3.263-7.332-7.286-7.332-4.024 0-7.285 3.284-7.285 7.333 0 4.05 3.26 7.332 7.285 7.332 4.023 0 7.286-3.282 7.286-7.332z"/>
            <path stroke="#466DFF" stroke-linejoin="round" stroke-width="1.767" d="M143.494 178.39c0-6.405-5.16-11.6-11.527-11.6-6.365 0-11.525 5.195-11.525 11.6 0 6.407 5.16 11.602 11.525 11.602 6.367 0 11.527-5.195 11.527-11.601z"/>
            <path stroke="#466DFF" stroke-linejoin="round" stroke-width="1.767" d="M128.845 167.223v-2.15c0-.655.528-1.186 1.177-1.186h3.892c.65 0 1.178.531 1.178 1.186v2.15M135.091 189.56v2.15a1.18 1.18 0 0 1-1.176 1.183h-3.892a1.18 1.18 0 0 1-1.178-1.183v-2.15M137.66 168.218l1.458-1.468a1.174 1.174 0 0 1 1.665 0l2.75 2.77a1.19 1.19 0 0 1 0 1.675l-1.51 1.521M143.064 175.248h2.137c.651 0 1.179.53 1.179 1.184v3.918c0 .653-.528 1.183-1.179 1.183h-2.174M141.988 184.031l1.545 1.555a1.19 1.19 0 0 1 0 1.676l-2.751 2.769a1.169 1.169 0 0 1-1.663 0l-1.512-1.521M126.363 188.476l-1.544 1.555a1.17 1.17 0 0 1-1.665 0l-2.752-2.77a1.19 1.19 0 0 1 0-1.675l1.512-1.521M120.829 181.533h-2.093c-.651 0-1.179-.53-1.179-1.183v-3.918c0-.653.528-1.184 1.179-1.184h2.118M121.914 172.717l-1.511-1.522a1.19 1.19 0 0 1 0-1.675l2.75-2.77a1.17 1.17 0 0 1 1.666 0l1.545 1.556"/>
            <path stroke="#FFF" stroke-linecap="round" stroke-linejoin="round" stroke-width=".883" d="M140.655 180.333a8.926 8.926 0 0 0 .258-2.13 8.82 8.82 0 0 0-2.856-6.512M118.904 176.63v3.488M121.571 186.423l2.452 2.467"/>
            <path stroke="#466DFF" stroke-linecap="round" stroke-linejoin="round" stroke-width="1.767" d="M296.004 222.242h13.217M116.881 222.242h42.786v-5.756l.073-.234"/>
            <path fill="#72B7E5" d="M220.67 205.51a11 11 0 0 1-.622 3.721 9.126 9.126 0 0 1-1.799 3.062 8.433 8.433 0 0 1-2.846 2.075c-1.111.504-2.388.758-3.827.758-1.397 0-2.651-.265-3.762-.79a9.36 9.36 0 0 1-2.912-2.14 9.37 9.37 0 0 1-1.898-3.096 10.48 10.48 0 0 1-.654-3.72v-.132c0-1.317.206-2.558.62-3.722a9.183 9.183 0 0 1 1.802-3.062 8.452 8.452 0 0 1 2.846-2.073c1.111-.504 2.388-.758 3.827-.758 1.351 0 2.594.263 3.729.79a9.306 9.306 0 0 1 2.945 2.14c.827.9 1.46 1.933 1.897 3.096.436 1.163.655 2.403.655 3.72v.132zm8.376 7.014c.958-2.215 1.44-4.6 1.44-7.145v-.131c0-2.547-.482-4.927-1.44-7.146a18.099 18.099 0 0 0-3.96-5.794c-1.678-1.647-3.675-2.94-5.987-3.885-2.312-.945-4.82-1.417-7.523-1.417-2.748 0-5.279.485-7.59 1.449-2.313.967-4.318 2.284-6.02 3.95a18.266 18.266 0 0 0-3.991 5.828c-.96 2.219-1.44 4.601-1.44 7.146v.132c0 2.547.48 4.929 1.44 7.144.959 2.217 2.278 4.15 3.959 5.795 1.628 1.598 3.559 2.856 5.785 3.792h15.444c2.256-.959 4.222-2.253 5.892-3.89a18.207 18.207 0 0 0 3.991-5.828zM261.9 205.379c0 1.493-.23 2.831-.688 4.017-.457 1.186-1.08 2.206-1.864 3.062a8.244 8.244 0 0 1-2.716 1.977 7.975 7.975 0 0 1-3.303.69c-1.178 0-2.28-.23-3.305-.69a7.907 7.907 0 0 1-2.683-1.977c-.763-.856-1.374-1.887-1.83-3.094-.459-1.209-.688-2.537-.688-3.985v-.131c0-1.449.229-2.776.688-3.985.456-1.207 1.067-2.238 1.83-3.094a7.902 7.902 0 0 1 2.683-1.976 7.956 7.956 0 0 1 3.305-.692c1.178 0 2.278.23 3.303.692a8.238 8.238 0 0 1 2.716 1.976c.785.856 1.407 1.887 1.864 3.094.459 1.209.688 2.536.688 3.985v.131zm8.603-7.934c-.894-2.262-2.083-4.171-3.566-5.73-1.482-1.558-3.183-2.733-5.102-3.523a15.513 15.513 0 0 0-5.956-1.186c-2.616 0-4.787.54-6.51 1.613-.724.453-1.403.957-2.04 1.515-.931.816-2.376.2-2.376-1.044a1.42 1.42 0 0 0-1.416-1.425h-6.19a2.347 2.347 0 0 0-2.339 2.353V231.145c0 1.3 1.048 2.354 2.339 2.354h5.268a2.347 2.347 0 0 0 2.338-2.354v-7.622c0-.486.145-.92.378-1.281.665-1.026 2.09-1.445 3.234-.675.24.16.487.318.74.472.126.078.272.132.405.203h12.594a14.392 14.392 0 0 0 4.666-3.33c1.463-1.557 2.639-3.469 3.533-5.73.894-2.26 1.342-4.862 1.342-7.803v-.131c0-2.942-.448-5.542-1.342-7.803zM298.466 220.855a9.388 9.388 0 0 0 2.847-3.524c.675-1.427 1.014-3.127 1.014-5.103v-.133c0-1.622-.328-3.005-.983-4.148a9.897 9.897 0 0 0-2.485-2.897 15.418 15.418 0 0 0-3.403-2.01 41.184 41.184 0 0 0-3.729-1.414 74.358 74.358 0 0 1-2.716-.923 20.161 20.161 0 0 1-2.257-.955c-.654-.328-1.178-.68-1.57-1.052-.393-.373-.589-.8-.589-1.285v-.132c0-.701.305-1.283.915-1.745.61-.461 1.528-.692 2.748-.692 1.267 0 2.727.297 4.385.89 1.026.367 2.068.814 3.128 1.341a2.33 2.33 0 0 0 3.087-.962l1.578-2.879c.639-1.16.2-2.625-.966-3.241a25.638 25.638 0 0 0-4.242-1.766c-2.29-.726-4.548-1.086-6.772-1.086-1.789 0-3.459.241-5.005.724-1.55.483-2.903 1.207-4.057 2.172a10.584 10.584 0 0 0-2.75 3.524c-.675 1.382-1.013 2.975-1.013 4.775v.13c0 1.714.315 3.162.948 4.346a9.615 9.615 0 0 0 2.454 2.996 13.14 13.14 0 0 0 3.37 1.976c1.243.506 2.474.933 3.697 1.285.959.307 1.874.593 2.747.855.873.265 1.646.54 2.323.824.677.286 1.212.625 1.603 1.02.393.397.59.856.59 1.383v.132c0 .791-.338 1.427-1.015 1.91-.677.484-1.734.724-3.173.724-1.657 0-3.435-.35-5.333-1.053a21.888 21.888 0 0 1-3.855-1.9 2.314 2.314 0 0 0-3.154.725l-1.742 2.7a2.384 2.384 0 0 0 .705 3.284 23.572 23.572 0 0 0 5.265 2.572h14.943c.887-.389 1.725-.833 2.462-1.388"/>
            <path stroke="#466DFF" stroke-linecap="round" stroke-linejoin="round" stroke-width="1.767" d="M262.36 222.242h18.702M259.404 198.168a8.245 8.245 0 0 0-2.716-1.976 7.947 7.947 0 0 0-3.303-.69c-1.178 0-2.28.229-3.305.69a7.925 7.925 0 0 0-2.682 1.976c-.764.856-1.374 1.889-1.831 3.096-.459 1.207-.688 2.534-.688 3.983v.131c0 1.45.23 2.778.688 3.985.457 1.209 1.067 2.238 1.83 3.096a7.925 7.925 0 0 0 2.683 1.975c1.025.46 2.127.69 3.305.69 1.178 0 2.279-.23 3.303-.69a8.245 8.245 0 0 0 2.716-1.975c.785-.858 1.408-1.877 1.866-3.062.457-1.186.686-2.524.686-4.019v-.131c0-1.449-.229-2.776-.686-3.983-.458-1.207-1.08-2.24-1.866-3.096zM218.12 198.563a9.306 9.306 0 0 0-2.946-2.14c-1.134-.526-2.378-.79-3.728-.79-1.441 0-2.716.253-3.83.758a8.47 8.47 0 0 0-2.844 2.073 9.153 9.153 0 0 0-1.8 3.062 11.017 11.017 0 0 0-.622 3.722v.131c0 1.317.217 2.558.655 3.72a9.37 9.37 0 0 0 1.897 3.096 9.36 9.36 0 0 0 2.912 2.14c1.111.526 2.365.79 3.762.79 1.44 0 2.716-.253 3.827-.757a8.433 8.433 0 0 0 2.847-2.075 9.126 9.126 0 0 0 1.799-3.062 11 11 0 0 0 .622-3.72v-.132c0-1.317-.219-2.558-.654-3.72a9.446 9.446 0 0 0-1.898-3.096z"/>
            <path stroke="#466DFF" stroke-linecap="round" stroke-linejoin="round" stroke-width="1.767" d="M220.67 205.51a11 11 0 0 1-.622 3.721 9.126 9.126 0 0 1-1.799 3.062 8.433 8.433 0 0 1-2.846 2.075c-1.111.504-2.388.758-3.827.758-1.397 0-2.651-.265-3.762-.79a9.36 9.36 0 0 1-2.912-2.14 9.37 9.37 0 0 1-1.898-3.096 10.48 10.48 0 0 1-.654-3.72v-.132c0-1.317.206-2.558.62-3.722a9.183 9.183 0 0 1 1.802-3.062 8.452 8.452 0 0 1 2.846-2.073c1.111-.504 2.388-.758 3.827-.758 1.351 0 2.594.263 3.729.79a9.306 9.306 0 0 1 2.945 2.14c.827.9 1.46 1.933 1.897 3.096.436 1.163.655 2.403.655 3.72v.132zM261.957 205.379c0 1.493-.23 2.831-.688 4.017-.457 1.186-1.08 2.206-1.864 3.062a8.244 8.244 0 0 1-2.716 1.977 7.975 7.975 0 0 1-3.303.69c-1.179 0-2.28-.23-3.306-.69a7.907 7.907 0 0 1-2.682-1.977c-.764-.856-1.374-1.887-1.83-3.094-.46-1.209-.689-2.537-.689-3.985v-.131c0-1.449.23-2.776.688-3.985.457-1.207 1.067-2.238 1.831-3.094a7.902 7.902 0 0 1 2.682-1.976 7.956 7.956 0 0 1 3.306-.692c1.178 0 2.278.23 3.303.692a8.238 8.238 0 0 1 2.716 1.976c.785.856 1.407 1.887 1.864 3.094.459 1.209.688 2.536.688 3.985v.131zm-16.57 16.863c.665-1.026 2.089-1.445 3.235-.675.24.16.487.318.739.472.127.078.273.132.404.203h-4.378z"/>
            <path stroke="#466DFF" stroke-linecap="round" stroke-linejoin="round" stroke-width="1.767" d="M245.387 222.242a2.344 2.344 0 0 0-.377 1.282v7.622c0 1.3-1.048 2.352-2.339 2.352h-5.268a2.344 2.344 0 0 1-2.338-2.352V190.017c0-1.299 1.046-2.352 2.338-2.352h6.19a1.42 1.42 0 0 1 1.417 1.426c0 1.242 1.443 1.86 2.376 1.042a15.928 15.928 0 0 1 2.04-1.513c1.723-1.075 3.894-1.613 6.51-1.613 2.05 0 4.035.394 5.956 1.184 1.918.791 3.62 1.966 5.102 3.523 1.483 1.56 2.672 3.469 3.566 5.73.894 2.261 1.342 4.863 1.342 7.803v.133c0 2.941-.448 5.543-1.342 7.803-.894 2.261-2.07 4.171-3.533 5.73a14.446 14.446 0 0 1-4.666 3.33M296.004 222.242c.887-.388 1.725-.832 2.462-1.388 1.22-.92 2.17-2.096 2.847-3.523.675-1.425 1.014-3.128 1.014-5.103v-.131c0-1.625-.328-3.007-.983-4.15a9.92 9.92 0 0 0-2.485-2.897 15.344 15.344 0 0 0-3.403-2.008 41.21 41.21 0 0 0-3.729-1.416 78.013 78.013 0 0 1-2.716-.921 20.846 20.846 0 0 1-2.257-.955c-.654-.33-1.178-.682-1.57-1.055-.393-.372-.589-.8-.589-1.283v-.131c0-.703.305-1.286.915-1.747.61-.462 1.528-.692 2.748-.692 1.267 0 2.727.296 4.385.889 1.026.367 2.068.815 3.128 1.342a2.33 2.33 0 0 0 3.087-.962l1.578-2.877a2.376 2.376 0 0 0-.966-3.242 25.492 25.492 0 0 0-4.242-1.767c-2.29-.725-4.548-1.087-6.772-1.087-1.789 0-3.459.242-5.005.724-1.55.483-2.903 1.21-4.057 2.173a10.584 10.584 0 0 0-2.75 3.523c-.675 1.383-1.013 2.975-1.013 4.775v.132c0 1.712.315 3.16.948 4.346a9.635 9.635 0 0 0 2.454 2.997 13.192 13.192 0 0 0 3.37 1.975c1.243.504 2.474.932 3.697 1.284.959.307 1.874.592 2.747.857.873.263 1.646.538 2.323.822.677.287 1.212.625 1.603 1.02.393.396.59.858.59 1.383v.133c0 .79-.338 1.426-1.015 1.908-.677.485-1.734.726-3.173.726-1.657 0-3.435-.351-5.333-1.054a21.888 21.888 0 0 1-3.855-1.901 2.313 2.313 0 0 0-3.154.728l-1.742 2.698a2.384 2.384 0 0 0 .705 3.283 23.572 23.572 0 0 0 5.265 2.572"/>
            <path stroke="#FFF" stroke-linecap="round" stroke-linejoin="round" stroke-width="2.124" d="M238.51 192.608v24.208"/>
            <path stroke="#FFF" stroke-linecap="round" stroke-linejoin="round" stroke-width="2.301" d="M218.998 217.656a10.021 10.021 0 0 0 3.64-2.276c1.052-1.022 1.91-2.258 2.577-3.704.665-1.443 1.102-3.02 1.31-4.723l.022-.17c.208-1.705.15-3.341-.175-4.91a12.63 12.63 0 0 0-1.718-4.276 11.077 11.077 0 0 0-3.09-3.194"/>
            <path stroke="#FFF" stroke-linecap="round" stroke-linejoin="round" stroke-width="2.124" d="M282.942 191.382c-1.157.774-2.072 1.716-2.747 2.824-.678 1.11-1.015 2.385-1.015 3.828v.105c0 1.374.316 2.535.95 3.484a8.392 8.392 0 0 0 2.453 2.404"/>
            <path stroke="#FFF" stroke-linecap="round" stroke-linejoin="round" stroke-width="2.092" d="M294.339 219.29c1.19-.695 2.148-1.563 2.87-2.605.728-1.042 1.123-2.263 1.188-3.66l.005-.102c.06-1.329-.203-2.47-.792-3.42a8.286 8.286 0 0 0-2.342-2.442"/>
            <path stroke="#466DFF" stroke-linecap="round" stroke-linejoin="round" stroke-width="1.767" d="M170.324 216.25h.072v5.992h33.322c-2.224-.934-4.157-2.194-5.785-3.792a18.046 18.046 0 0 1-3.957-5.793c-.962-2.217-1.441-4.6-1.441-7.147v-.131c0-2.545.48-4.927 1.44-7.144a18.197 18.197 0 0 1 3.992-5.83c1.7-1.666 3.705-2.983 6.02-3.95 2.31-.964 4.84-1.449 7.59-1.449 2.703 0 5.211.474 7.523 1.416 2.313.945 4.307 2.239 5.988 3.886a18.122 18.122 0 0 1 3.958 5.794c.959 2.218 1.439 4.6 1.439 7.146v.131c0 2.547-.48 4.93-1.44 7.144a18.206 18.206 0 0 1-3.99 5.83c-1.67 1.636-3.635 2.93-5.893 3.889h15.903"/>
        </g>
    </g>
</svg>
