<?xml version="1.0" encoding="utf-8"?>
<!-- Generator: Adobe Illustrator 16.0.0, SVG Export Plug-In . SVG Version: 6.00 Build 0)  -->
<!DOCTYPE svg PUBLIC "-//W3C//DTD SVG 1.1//EN" "http://www.w3.org/Graphics/SVG/1.1/DTD/svg11.dtd">
<svg version="1.1" id="Layer_1" xmlns="http://www.w3.org/2000/svg" xmlns:xlink="http://www.w3.org/1999/xlink" x="0px" y="0px"
	 width="80px" height="30px" viewBox="0 0 80 30" enable-background="new 0 0 80 30" xml:space="preserve">
<g transform="translate(2 10.6)">
	<defs>
		<filter id="Adobe_OpacityMaskFilter" filterUnits="userSpaceOnUse" x="0" y="0.4" width="12.082" height="17.66">
			<feColorMatrix  type="matrix" values="1 0 0 0 0  0 1 0 0 0  0 0 1 0 0  0 0 0 1 0"/>
		</filter>
	</defs>
	<mask maskUnits="userSpaceOnUse" x="0" y="0.4" width="12.082" height="17.66" id="b">
		<g filter="url(#Adobe_OpacityMaskFilter)">
			<path id="a" fill="#FFFFFF" d="M0,0.399h12.082V18.06H0V0.399z"/>
		</g>
	</mask>
	<path mask="url(#b)" fill="#FFFFFF" d="M7.407,4.204C7.023,3.826,6.575,3.637,6.062,3.637c-0.512,0-0.967,0.161-1.366,0.483
		C4.297,4.443,4.099,4.828,4.099,5.276c0,0.786,0.427,1.333,1.28,1.64c0.839,0.303,1.665,0.641,2.476,1.01
		c0.997,0.449,1.95,0.974,2.861,1.578c0.91,0.603,1.366,1.729,1.366,3.383c0,1.318-0.58,2.518-1.738,3.596
		c-1.158,1.08-2.572,1.605-4.24,1.577c-1.978,0-3.49-0.616-4.535-1.851C0.522,14.976,0,13.73,0,12.466h3.63
		c0,0.533,0.208,1.06,0.624,1.578c0.417,0.519,1.027,0.776,1.831,0.776c0.776,0,1.364-0.244,1.766-0.735
		c0.402-0.49,0.603-0.875,0.603-1.156c0-0.504-0.143-0.932-0.426-1.282c-0.286-0.351-0.784-0.666-1.495-0.946
		c-1.167-0.505-2.47-1.064-3.906-1.682C1.188,8.402,0.47,7.183,0.47,5.36c0-1.29,0.555-2.439,1.666-3.449
		C3.248,0.903,4.556,0.4,6.062,0.4c1.68,0,3.024,0.519,4.035,1.556c1.01,1.037,1.558,2.172,1.644,3.406H7.984
		C7.984,4.97,7.791,4.583,7.407,4.204"/>
</g>
<path fill="#FFFFFF" d="M16.385,11.852h3.672v6.3H27.1v-6.3h3.672v16.367H27.1v-6.914h-7.042v6.914h-3.672L16.385,11.852z
	 M40.453,15.74l-2.402,5.564h4.805L40.453,15.74L40.453,15.74z M38.575,11.852h3.756l7.251,16.367H45.87l-1.66-3.765h-7.556
	l-1.616,3.765h-3.713L38.575,11.852L38.575,11.852z M54.943,15.003v3.765h3.711c0.502,0,0.988-0.137,1.459-0.41
	c0.471-0.271,0.707-0.75,0.707-1.432c0-0.71-0.236-1.207-0.707-1.494c-0.438-0.276-0.941-0.425-1.459-0.43L54.943,15.003
	L54.943,15.003z M62.855,13.263c1.109,0.942,1.666,2.163,1.666,3.663c0,1.473-0.56,2.674-1.678,3.6
	c-1.117,0.929-2.343,1.393-3.678,1.393h-4.223v6.301h-3.7V11.852H59.2C60.527,11.852,61.746,12.322,62.855,13.263z"/>
<g transform="translate(65.627 11.852)">
	<defs>
		<filter id="Adobe_OpacityMaskFilter_1_" filterUnits="userSpaceOnUse" x="0.369" y="0.255" width="12.24" height="16.82">
			<feColorMatrix  type="matrix" values="1 0 0 0 0  0 1 0 0 0  0 0 1 0 0  0 0 0 1 0"/>
		</filter>
	</defs>
	<mask maskUnits="userSpaceOnUse" x="0.369" y="0.255" width="12.24" height="16.82" id="d">
		<g filter="url(#Adobe_OpacityMaskFilter_1_)">
			<path id="c" fill="#FFFFFF" d="M0.37,0.255h12.239v16.82H0.369L0.37,0.255z"/>
		</g>
	</mask>
	<path mask="url(#d)" fill="#FFFFFF" d="M0.37,0.255h3.663v13.583h8.576v3.237H0.369L0.37,0.255z"/>
</g>
<g transform="translate(11.853)">
	<defs>
		<filter id="Adobe_OpacityMaskFilter_2_" filterUnits="userSpaceOnUse" x="0.418" y="0.207" width="7.262" height="10.725">
			<feColorMatrix  type="matrix" values="1 0 0 0 0  0 1 0 0 0  0 0 1 0 0  0 0 0 1 0"/>
		</filter>
	</defs>
	<mask maskUnits="userSpaceOnUse" x="0.418" y="0.207" width="7.262" height="10.725" id="f">
		<g filter="url(#Adobe_OpacityMaskFilter_2_)">
			<path id="e" fill="#FFFFFF" d="M0.418,0.207H7.68v10.725H0.418V0.207z"/>
		</g>
	</mask>
	<path mask="url(#f)" fill="#FFFFFF" d="M0.418,10.648l0.025-3.089l0.19,0.008c0.232,0.785,0.509,1.405,0.83,1.858
		c0.602,0.835,1.359,1.253,2.27,1.253c0.636,0,1.161-0.192,1.576-0.576C5.723,9.719,5.93,9.232,5.93,8.644
		c0-0.255-0.045-0.514-0.136-0.778c-0.082-0.247-0.207-0.477-0.369-0.68C5.231,6.964,5.003,6.774,4.749,6.625
		c-0.29-0.18-0.734-0.407-1.33-0.681c-0.526-0.24-0.928-0.441-1.207-0.606C1.967,5.199,1.741,5.031,1.537,4.837
		C1.071,4.391,0.812,3.77,0.824,3.124c0-0.413,0.092-0.812,0.277-1.197C1.285,1.546,1.55,1.209,1.877,0.941
		c0.586-0.489,1.28-0.734,2.08-0.734c0.26,0,0.5,0.025,0.721,0.072c0.222,0.047,0.518,0.14,0.888,0.28
		c0.276,0.1,0.464,0.163,0.563,0.19c0.1,0.029,0.188,0.042,0.266,0.042c0.193,0,0.323-0.127,0.39-0.381h0.19l0.058,2.969h-0.19
		C6.731,3.01,6.603,2.647,6.458,2.29C6.354,2.044,6.225,1.811,6.073,1.591c-0.27-0.389-0.569-0.676-0.894-0.863
		C4.835,0.536,4.447,0.439,4.053,0.447c-0.617,0-1.105,0.19-1.464,0.569C2.438,1.174,2.318,1.359,2.237,1.562
		c-0.083,0.2-0.126,0.414-0.128,0.63c0,0.832,0.593,1.504,1.78,2.013l1.167,0.51c0.899,0.384,1.548,0.808,1.945,1.272
		C7.454,6.506,7.68,7.11,7.68,7.799c0,0.457-0.102,0.895-0.307,1.313c-0.279,0.573-0.731,1.044-1.293,1.346
		c-0.575,0.316-1.252,0.474-2.031,0.474c-0.703,0.002-1.4-0.127-2.056-0.381c-0.203-0.082-0.408-0.16-0.614-0.232
		c-0.073-0.021-0.148-0.031-0.224-0.03c-0.265,0-0.447,0.12-0.547,0.359H0.418z"/>
</g>
<path fill="#FFFFFF" d="M24.742,5.553h5.766V3.03c0-0.539-0.031-0.937-0.093-1.194c-0.053-0.24-0.173-0.46-0.345-0.636
	c-0.145-0.148-0.321-0.261-0.516-0.33c-0.246-0.078-0.502-0.12-0.76-0.126v-0.18h5.19v0.18c-0.255,0.006-0.508,0.049-0.751,0.126
	c-0.195,0.069-0.371,0.182-0.516,0.33c-0.173,0.176-0.292,0.398-0.345,0.64c-0.062,0.26-0.093,0.656-0.093,1.19v5.79
	c0,0.534,0.03,0.93,0.093,1.187c0.062,0.256,0.177,0.47,0.345,0.643c0.152,0.147,0.324,0.256,0.516,0.326s0.443,0.115,0.75,0.13
	v0.18h-5.188v-0.18c0.313-0.015,0.567-0.06,0.76-0.13c0.191-0.07,0.363-0.179,0.515-0.326c0.168-0.167,0.283-0.38,0.345-0.636
	c0.062-0.256,0.093-0.654,0.093-1.194V5.922h-5.766v2.899c0,0.534,0.031,0.93,0.094,1.19c0.062,0.26,0.177,0.473,0.345,0.64
	c0.146,0.147,0.315,0.256,0.507,0.326c0.193,0.07,0.446,0.115,0.76,0.13v0.18h-5.19v-0.18c0.314-0.015,0.567-0.06,0.76-0.13
	c0.192-0.07,0.361-0.179,0.507-0.326c0.173-0.167,0.29-0.38,0.35-0.636c0.06-0.256,0.089-0.654,0.089-1.194V3.03
	c0-0.539-0.03-0.937-0.09-1.194c-0.052-0.242-0.173-0.462-0.349-0.636c-0.142-0.149-0.317-0.262-0.511-0.33
	c-0.245-0.077-0.5-0.12-0.756-0.126v-0.18h5.19v0.18c-0.309,0.016-0.56,0.058-0.751,0.126c-0.195,0.069-0.371,0.182-0.516,0.33
	c-0.173,0.177-0.292,0.398-0.345,0.64c-0.063,0.26-0.094,0.656-0.094,1.19v2.522V5.553z M41.477,6.653l-1.75-4.07l-1.65,4.07H41.477
	z M46.709,11.288h-5.475v-0.181c0.496-0.042,0.841-0.12,1.035-0.235c0.344-0.205,0.516-0.488,0.516-0.85
	c0-0.214-0.078-0.502-0.234-0.864l-0.141-0.33l-0.801-1.853h-3.665l-0.434,1.084l-0.208,0.487c-0.25,0.576-0.375,1.03-0.375,1.359
	c0.001,0.381,0.192,0.737,0.508,0.95c0.217,0.142,0.494,0.226,0.833,0.252v0.18h-3.732v-0.18c0.294-0.016,0.553-0.084,0.775-0.204
	c0.222-0.121,0.439-0.314,0.65-0.581c0.177-0.216,0.35-0.492,0.52-0.83c0.17-0.337,0.393-0.844,0.671-1.52l3.05-7.408h0.474
	l3.624,8.257c0.272,0.623,0.49,1.068,0.65,1.335c0.16,0.268,0.336,0.47,0.525,0.604c0.133,0.094,0.285,0.166,0.457,0.216
	c0.172,0.05,0.432,0.093,0.775,0.13V11.288L46.709,11.288z M50.669,5.749h0.778c0.523,0,0.927-0.037,1.21-0.113
	c0.283-0.076,0.544-0.22,0.759-0.42c0.52-0.467,0.777-1.087,0.777-1.863c0-0.43-0.074-0.823-0.227-1.182
	c-0.138-0.342-0.36-0.644-0.646-0.876c-0.328-0.269-0.729-0.433-1.15-0.471c-0.122-0.01-0.4-0.016-0.834-0.016h-0.667V5.749
	L50.669,5.749z M50.669,6v2.82c0,0.535,0.03,0.932,0.09,1.191c0.095,0.444,0.41,0.808,0.835,0.966
	c0.188,0.07,0.436,0.114,0.742,0.13v0.18h-5.072v-0.18c0.252-0.006,0.502-0.049,0.741-0.13c0.188-0.07,0.353-0.18,0.496-0.326
	c0.17-0.167,0.283-0.38,0.342-0.636C48.9,9.759,48.93,9.36,48.93,8.82V3.032c0-0.45-0.02-0.798-0.06-1.041
	c-0.028-0.209-0.097-0.412-0.202-0.594c-0.129-0.201-0.31-0.362-0.523-0.467c-0.213-0.103-0.487-0.163-0.826-0.184h-0.055V0.564
	h4.786c0.837,0,1.453,0.043,1.851,0.126c0.396,0.084,0.76,0.252,1.088,0.503c0.752,0.566,1.127,1.32,1.127,2.263
	c0,0.958-0.381,1.66-1.143,2.104c-0.397,0.231-0.88,0.37-1.445,0.417C53.348,5.993,52.913,6,52.225,6H50.669L50.669,6z
	 M57.223,11.288v-0.189c0.555,0,0.983-0.15,1.286-0.448c0.171-0.167,0.287-0.38,0.351-0.64c0.062-0.26,0.095-0.656,0.095-1.19V3.03
	c0-0.555-0.034-0.965-0.103-1.23c-0.061-0.249-0.193-0.474-0.384-0.647c-0.149-0.134-0.325-0.236-0.516-0.3
	c-0.237-0.07-0.483-0.106-0.729-0.109v-0.18h5.271v0.18c-0.303,0.015-0.551,0.055-0.742,0.118c-0.19,0.061-0.365,0.163-0.512,0.298
	c-0.188,0.175-0.32,0.402-0.381,0.652c-0.065,0.262-0.098,0.668-0.098,1.218v4.533c0,0.697,0.02,1.215,0.057,1.555
	c0.039,0.341,0.113,0.619,0.224,0.833c0.192,0.377,0.478,0.654,0.858,0.83c0.379,0.174,0.883,0.262,1.511,0.262
	c0.653,0,1.205-0.082,1.653-0.247c0.449-0.165,0.815-0.42,1.102-0.767c0.191-0.235,0.35-0.502,0.475-0.801
	c0.148-0.382,0.263-0.776,0.342-1.178l0.199,0.015l-0.108,3.222L57.223,11.288L57.223,11.288z"/>
</svg>
