<?xml version="1.0" encoding="utf-8"?>
<!-- Generator: Adobe Illustrator 16.0.0, SVG Export Plug-In . SVG Version: 6.00 Build 0)  -->
<!DOCTYPE svg PUBLIC "-//W3C//DTD SVG 1.1//EN" "http://www.w3.org/Graphics/SVG/1.1/DTD/svg11.dtd">
<svg version="1.1" id="Layer_1" xmlns="http://www.w3.org/2000/svg" xmlns:xlink="http://www.w3.org/1999/xlink" x="0px" y="0px"
	 width="206px" height="190px" viewBox="0 0 206 190" enable-background="new 0 0 206 190" xml:space="preserve">
<g id="_x31_.2-MAIN---TYPE-B---confirm---modify" transform="translate(-550.000000, -3431.000000)">
	<g id="concept-02-make-copy" transform="translate(0.000000, 3355.000000)">
		<g id="content" transform="translate(0.000000, 34.000000)">
			<g id="box---infographic-copy" transform="translate(503.000000, 6.000000)">
				<g id="box-sell" transform="translate(47.000000, 36.000000)">
					<g id="box---sell">
						<g id="box">
							<g id="box---top" transform="translate(2.384868, 0.000000)">
								<g id="Clip-2">
								</g>
								<defs>
									
										<filter id="Adobe_OpacityMaskFilter" filterUnits="userSpaceOnUse" x="45.318" y="32.865" width="111.047" height="56.993">
										<feColorMatrix  type="matrix" values="1 0 0 0 0  0 1 0 0 0  0 0 1 0 0  0 0 0 1 0"/>
									</filter>
								</defs>
								<mask maskUnits="userSpaceOnUse" x="45.318" y="32.865" width="111.047" height="56.993" id="mask-2_2_">
									<g filter="url(#Adobe_OpacityMaskFilter)">
										<polygon id="path-1_2_" fill="#FFFFFF" points="45.318,32.866 156.366,32.866 156.366,89.859 45.318,89.859 										"/>
									</g>
								</mask>
								
									<linearGradient id="Fill-1_3_" gradientUnits="userSpaceOnUse" x1="96.5604" y1="100.9746" x2="97.5069" y2="99.775" gradientTransform="matrix(111.0482 0 0 -56.9929 -10638.5732 5805.0225)">
									<stop  offset="0" style="stop-color:#F1EFEF"/>
									<stop  offset="1" style="stop-color:#C0BEBE"/>
								</linearGradient>
								<path id="Fill-1" mask="url(#mask-2_2_)" fill="url(#Fill-1_3_)" d="M156.337,61.797c0.062-0.219,0.022-0.453-0.098-0.643
									c-1.185-1.851-2.843-3.344-4.791-4.316l-45.229-22.71c-3.371-1.684-7.398-1.683-10.773,0.001L50.218,56.837
									c-1.939,0.967-3.59,2.45-4.773,4.287c-0.123,0.191-0.159,0.425-0.099,0.644c0.059,0.219,0.209,0.402,0.411,0.503
									l54.72,27.503c0.111,0.056,0.232,0.084,0.355,0.084c0.121,0,0.244-0.028,0.355-0.084l54.738-27.475
									C156.128,62.198,156.278,62.015,156.337,61.797"/>
							</g>
							<g id="box---front" transform="translate(0.000000, 28.338706)">
								<g id="Clip-2_1_">
								</g>
								<defs>
									
										<filter id="Adobe_OpacityMaskFilter_1_" filterUnits="userSpaceOnUse" x="45.318" y="32.866" width="58.125" height="95.929">
										<feColorMatrix  type="matrix" values="1 0 0 0 0  0 1 0 0 0  0 0 1 0 0  0 0 0 1 0"/>
									</filter>
								</defs>
								<mask maskUnits="userSpaceOnUse" x="45.318" y="32.866" width="58.125" height="95.929" id="mask-5_2_">
									<g filter="url(#Adobe_OpacityMaskFilter_1_)">
										<polygon id="path-4_2_" fill="#FFFFFF" points="45.318,32.866 103.444,32.866 103.444,128.794 45.318,128.794 										
											"/>
									</g>
								</mask>
								
									<linearGradient id="Fill-1_4_" gradientUnits="userSpaceOnUse" x1="110.7334" y1="78.3273" x2="111.4773" y2="77.0571" gradientTransform="matrix(58.1263 0 0 -95.9281 -6379.1567 7544.5488)">
									<stop  offset="0" style="stop-color:#FFFFFF"/>
									<stop  offset="1" style="stop-color:#D0D1D2"/>
								</linearGradient>
								<path id="Fill-1_1_" mask="url(#mask-5_2_)" fill="url(#Fill-1_4_)" d="M103.005,60.454L48.286,32.951
									c-0.363-0.182-0.803-0.062-1.023,0.28c-1.271,1.973-1.943,4.251-1.944,6.59v54.042c-0.032,4.652,2.518,8.845,6.658,10.938
									l45.229,22.709c1.672,0.84,3.543,1.285,5.416,1.285h0.029c0.438-0.002,0.793-0.358,0.793-0.8V61.167
									C103.444,60.865,103.274,60.589,103.005,60.454"/>
							</g>
							<g id="box---back" transform="translate(57.236832, 28.338706)">
								<g id="Clip-2_2_">
								</g>
								<defs>
									
										<filter id="Adobe_OpacityMaskFilter_2_" filterUnits="userSpaceOnUse" x="45.318" y="32.866" width="58.128" height="95.899">
										<feColorMatrix  type="matrix" values="1 0 0 0 0  0 1 0 0 0  0 0 1 0 0  0 0 0 1 0"/>
									</filter>
								</defs>
								<mask maskUnits="userSpaceOnUse" x="45.318" y="32.866" width="58.128" height="95.899" id="mask-8_2_">
									<g filter="url(#Adobe_OpacityMaskFilter_2_)">
										<polygon id="path-7_2_" fill="#FFFFFF" points="45.317,32.866 103.444,32.866 103.444,128.766 45.317,128.766 										
											"/>
									</g>
								</mask>
								
									<linearGradient id="Fill-1_5_" gradientUnits="userSpaceOnUse" x1="-61.1314" y1="77.9845" x2="-59.6588" y2="77.3624" gradientTransform="matrix(58.1264 0 0 -95.9004 3601.7021 7542.1191)">
									<stop  offset="0" style="stop-color:#D7D7D6"/>
									<stop  offset="1" style="stop-color:#B4B4B4"/>
								</linearGradient>
								<path id="Fill-1_2_" mask="url(#mask-8_2_)" fill="url(#Fill-1_5_)" d="M100.498,32.95L45.757,60.425
									c-0.27,0.135-0.439,0.412-0.439,0.715v66.829c0,0.211,0.084,0.416,0.234,0.563c0.148,0.148,0.35,0.232,0.561,0.232
									c1.863-0.004,3.727-0.447,5.389-1.283l45.228-22.709c4.142-2.063,6.715-6.231,6.717-10.877V39.793
									c0-2.326-0.666-4.594-1.924-6.56C101.3,32.89,100.858,32.768,100.498,32.95z"/>
							</g>
						</g>
					</g>
				</g>
			</g>
		</g>
	</g>
</g>
</svg>
