<?xml version="1.0" encoding="utf-8"?>
<!-- Generator: Adobe Illustrator 16.0.0, SVG Export Plug-In . SVG Version: 6.00 Build 0)  -->
<!DOCTYPE svg PUBLIC "-//W3C//DTD SVG 1.1//EN" "http://www.w3.org/Graphics/SVG/1.1/DTD/svg11.dtd">
<svg version="1.1" id="Layer_1" xmlns="http://www.w3.org/2000/svg" xmlns:xlink="http://www.w3.org/1999/xlink" x="0px" y="0px"
	 width="206px" height="190px" viewBox="0 0 206 190" enable-background="new 0 0 206 190" xml:space="preserve">
<g id="_x31_.2-MAIN---TYPE-B---confirm---modify" transform="translate(-503.000000, -2435.000000)">
	<g id="concept-02-make" transform="translate(0.000000, 2395.000000)">
		<g id="content" transform="translate(0.000000, 34.000000)">
			<g id="box---infographic-copy" transform="translate(503.000000, 6.000000)">
				<g id="box-wireframe" transform="translate(49.000000, 37.000000)">
					<g id="box-wirframe">
						<path id="Stroke-1" fill="none" stroke="#FFFFFF" stroke-width="8" stroke-linecap="round" stroke-linejoin="round" d="
							M110.602,42.733c-1.08-1.681-2.605-3.079-4.466-4.002L61.02,16.194c-3.162-1.57-6.877-1.57-10.039,0L5.864,38.731
							c-1.85,0.918-3.368,2.307-4.448,3.975L56,70L110.602,42.733z"/>
						<path id="Stroke-3" fill="none" stroke="#FFFFFF" stroke-width="8" stroke-linecap="round" stroke-linejoin="round" d="M56,70
							v66.32c1.72-0.004,3.439-0.4,5.02-1.19l45.116-22.536c3.833-1.902,6.258-5.81,6.261-10.086V48.816
							c-0.002-2.201-0.648-4.301-1.794-6.083L56,70z"/>
						<path id="Stroke-5" fill="none" stroke="#FFFFFF" stroke-width="8" stroke-linecap="round" stroke-linejoin="round" d="
							M1.416,42.706c-1.157,1.788-1.811,3.898-1.812,6.11v53.637c-0.03,4.283,2.374,8.213,6.204,10.141l45.117,22.536
							c1.597,0.799,3.337,1.195,5.076,1.19V70L1.416,42.706z"/>
					</g>
				</g>
				<g id="box---make" transform="translate(11.000000, 0.000000)">
					<g id="box---top" transform="translate(37.924237, 0.000000)">
						<path id="Fill-1" fill="#FFFFFF" d="M109.943,43.242c0.06-0.217,0.024-0.448-0.097-0.636c-1.177-1.831-2.824-3.308-4.761-4.27
							L60.13,15.87c-3.352-1.666-7.354-1.665-10.707,0.001L4.474,38.334c-1.927,0.958-3.568,2.424-4.744,4.241
							c-0.122,0.189-0.158,0.42-0.099,0.637c0.059,0.217,0.208,0.398,0.408,0.498l54.385,27.208
							c0.111,0.056,0.233,0.084,0.354,0.084c0.121,0,0.242-0.028,0.354-0.083l54.403-27.18
							C109.736,43.638,109.884,43.458,109.943,43.242"/>
					</g>
					<g id="box---front" transform="translate(0.000000, 63.570728)">
						<path id="Fill-1_1_" fill="#FFFFFF" d="M56.938,41.912L2.553,14.705c-0.361-0.18-0.798-0.062-1.017,0.277
							c-1.263,1.952-1.931,4.206-1.933,6.52v53.461c-0.032,4.603,2.503,8.748,6.618,10.821l44.952,22.464
							c1.662,0.832,3.522,1.271,5.383,1.271h0.029c0.436-0.002,0.788-0.355,0.788-0.79v-66.11
							C57.374,42.32,57.205,42.046,56.938,41.912"/>
					</g>
					<g id="box---back" transform="translate(127.994300, 63.570728)">
						<path id="Fill-1_2_" fill="#FFFFFF" d="M54.443,14.705L0.041,41.884c-0.269,0.134-0.438,0.407-0.438,0.707v66.11
							c0,0.21,0.084,0.411,0.232,0.56c0.148,0.146,0.349,0.23,0.559,0.23c1.851-0.006,3.701-0.444,5.354-1.271l44.95-22.464
							c4.115-2.045,6.674-6.168,6.677-10.761V21.474c-0.002-2.301-0.663-4.545-1.913-6.49
							C55.244,14.645,54.805,14.524,54.443,14.705z"/>
					</g>
				</g>
			</g>
		</g>
	</g>
</g>
</svg>
