<?xml version="1.0" encoding="utf-8"?>
<!-- Generator: Adobe Illustrator 16.0.0, SVG Export Plug-In . SVG Version: 6.00 Build 0)  -->
<!DOCTYPE svg PUBLIC "-//W3C//DTD SVG 1.1//EN" "http://www.w3.org/Graphics/SVG/1.1/DTD/svg11.dtd">
<svg version="1.1" id="Layer_1" xmlns="http://www.w3.org/2000/svg" xmlns:xlink="http://www.w3.org/1999/xlink" x="0px" y="0px"
	 width="206px" height="190px" viewBox="0 0 206 190" enable-background="new 0 0 206 190" xml:space="preserve">
<g id="_x31_.2-MAIN---TYPE-B---confirm---modify---768-Copy" transform="translate(-476.000000, -1083.000000)">
	<g id="_x30_2-concept-01-like" transform="translate(0.000000, 1048.000000)">
		<g id="box---infographic" transform="translate(476.000000, 35.000000)">
			<g id="sketch">
				<ellipse id="Oval-2" fill="#FFFFFF" cx="55.098" cy="73.16" rx="1.489" ry="41.696"/>
				
					<ellipse id="Oval-2-Copy-5" transform="matrix(-0.8988 -0.4384 0.4384 -0.8988 146.3167 207.9931)" fill="#FFFFFF" cx="97.168" cy="87.107" rx="41.696" ry="1.489"/>
				
					<ellipse id="Oval-2-Copy-8" transform="matrix(-0.8988 -0.4384 0.4384 -0.8988 89.0553 273.9295)" fill="#FFFFFF" cx="76.149" cy="126.685" rx="26.146" ry="1.49"/>
				
					<ellipse id="Oval-2-Copy-6" transform="matrix(-0.8988 -0.4384 0.4384 -0.8988 173.185 136.7625)" fill="#FFFFFF" cx="102.38" cy="48.39" rx="41.696" ry="1.489"/>
				
					<ellipse id="Oval-2-Copy-2" transform="matrix(0.8988 -0.4384 0.4384 0.8988 -20.9677 35.1667)" fill="#FFFFFF" cx="65.677" cy="62.994" rx="41.696" ry="1.49"/>
				
					<ellipse id="Oval-2-Copy-3" transform="matrix(0.8988 -0.4384 0.4384 0.8988 -17.2236 66.2753)" fill="#FFFFFF" cx="134.922" cy="70.439" rx="41.695" ry="1.489"/>
				
					<ellipse id="Oval-2-Copy-7" transform="matrix(0.8988 -0.4384 0.4384 0.8988 -38.4654 72.5585)" fill="#FFFFFF" cx="137.9" cy="119.58" rx="41.696" ry="1.491"/>
				<ellipse id="Oval-2-Copy" fill="#FFFFFF" cx="141.467" cy="78.372" rx="1.489" ry="41.696"/>
				<ellipse id="Oval-2-Copy-4" fill="#FFFFFF" cx="98.283" cy="109.271" rx="1.489" ry="22.709"/>
				<path id="Fill-11-Copy-3" fill="#FFFFFF" d="M205.484,100.654l-69.507-35.515l-17.374-8.883l-17.398-8.837l-17.439-8.744
					l-8.721-4.371l-8.741-4.327c-0.014-0.007-0.03-0.001-0.035,0.013c-0.007,0.014-0.001,0.031,0.012,0.038l8.657,4.507L83.615,39
					l17.354,8.925l17.398,8.833l17.421,8.786l69.672,35.161c0.014,0.008,0.03,0.002,0.036-0.012
					C205.504,100.678,205.498,100.662,205.484,100.654"/>
				<path id="Fill-11-Copy-4" fill="#FFFFFF" d="M148.153,114.057L78.646,78.542l-17.375-8.883l-17.396-8.838l-17.439-8.744
					l-8.72-4.37L8.973,43.38c-0.013-0.007-0.029-0.001-0.035,0.012c-0.006,0.014-0.001,0.031,0.013,0.038l8.656,4.507l8.677,4.464
					l17.355,8.926l17.398,8.833l17.42,8.787l69.672,35.161c0.013,0.008,0.03,0.002,0.035-0.012
					C148.172,114.08,148.167,114.064,148.153,114.057"/>
				<path id="Fill-11" fill="#FFFFFF" d="M0.01,143.115l45.719-22.057l11.429-5.516l11.443-5.488l11.471-5.432l5.736-2.715
					l5.749-2.687c0.009-0.005,0.02,0,0.023,0.008c0.004,0.009,0.001,0.019-0.008,0.024l-5.694,2.797l-5.708,2.773l-11.416,5.543
					l-11.444,5.486l-11.458,5.455L0.025,143.146c-0.008,0.006-0.019,0-0.023-0.008S0.001,143.119,0.01,143.115"/>
				<path id="Fill-11-Copy" fill="#FFFFFF" d="M42.455,166.922l69.508-35.516l17.375-8.883l17.396-8.838l17.439-8.744l8.721-4.369
					l8.742-4.328c0.013-0.007,0.028-0.001,0.034,0.014c0.007,0.014,0.001,0.03-0.012,0.037l-8.656,4.508l-8.678,4.463l-17.355,8.926
					l-17.397,8.832l-17.421,8.787l-69.672,35.162c-0.014,0.006-0.029,0-0.036-0.014C42.437,166.945,42.442,166.928,42.455,166.922"
					/>
				<path id="Fill-11-Copy-2" fill="#FFFFFF" d="M5.227,93.954l69.507-35.516l17.375-8.882l17.396-8.838l17.439-8.744l8.722-4.37
					l8.741-4.327c0.013-0.007,0.028-0.001,0.034,0.013c0.007,0.014,0.002,0.031-0.013,0.038l-8.655,4.506l-8.678,4.464
					l-17.354,8.926l-17.399,8.832l-17.42,8.787L5.251,94.005c-0.014,0.007-0.03,0.001-0.036-0.014
					C5.208,93.978,5.214,93.961,5.227,93.954"/>
			</g>
		</g>
	</g>
</g>
</svg>
