<?xml version="1.0" encoding="UTF-8"?>
<svg width="26px" height="23px" viewBox="0 0 26 23" version="1.1" xmlns="http://www.w3.org/2000/svg" xmlns:xlink="http://www.w3.org/1999/xlink">
    <!-- Generator: sketchtool 48.2 (47327) - http://www.bohemiancoding.com/sketch -->
    <title>6504E4D1-EC11-4BD0-9FD3-7075EB262421</title>
    <desc>Created with sketchtool.</desc>
    <defs></defs>
    <g id="6-1-LIKE-Detail-desk1440-1a-TOY-Copy" stroke="none" stroke-width="1" fill="none" fill-rule="evenodd" transform="translate(-257.000000, -980.000000)" stroke-linecap="round" stroke-linejoin="round">
        <g id="toast-popup-step01" transform="translate(83.000000, 950.000000)" stroke="#58CDF9" stroke-width="2">
            <g id="inner-contents" transform="translate(19.000000, 17.000000)">
                <g id="title" transform="translate(1.000000, 0.000000)">
                    <g id="icon_like" transform="translate(154.000000, 13.000000)">
                        <path d="M6.84261026,20.9998765 L3.33704411,20.9998765 C2.04699576,20.9998765 1,20.103882 1,18.9998889 L1,11.9999321 C1,10.8959389 2.04699576,9.99994443 3.33704411,9.99994443 L6.84261026,9.99994443 L6.84261026,20.9998765 Z M15.0222646,7.99995678 L15.0222646,3.99998148 C15.0222646,2.34299171 13.4529395,1 11.5166985,1 L6.84261026,9.99994443 L6.84261026,21 L20.023539,20.9998765 C21.1885555,21.0108764 22.1864733,20.2858809 22.3605831,19.299887 L23.9731436,10.2999426 C24.1671182,9.20794932 23.2895582,8.18795561 22.0123636,8.02195664 C21.8885002,8.00595674 21.7622998,7.99895678 21.6360995,7.99995678 L15.0222646,7.99995678 Z" id="Page-1"></path>
                    </g>
                </g>
            </g>
        </g>
    </g>
</svg>