<?xml version="1.0" encoding="UTF-8"?>
<svg width="18px" height="16px" viewBox="0 0 18 16" version="1.1" xmlns="http://www.w3.org/2000/svg" xmlns:xlink="http://www.w3.org/1999/xlink">
    <!-- Generator: sketchtool 48.2 (47327) - http://www.bohemiancoding.com/sketch -->
    <title>147A35FE-9ED1-42EF-8A44-968D29004391</title>
    <desc>Created with sketchtool.</desc>
    <defs></defs>
    <g id="product_like-module-360x620" stroke="none" stroke-width="1" fill="none" fill-rule="evenodd" transform="translate(-17.000000, -414.000000)" stroke-linecap="round" stroke-linejoin="round">
        <g id="product-module-360x620" stroke="#58CDF9" stroke-width="2">
            <g id="like" transform="translate(15.000000, 10.000000)">
                <g id="icon-state" transform="translate(2.000000, 403.000000)">
                    <g id="icon_like" transform="translate(0.000000, 1.000000)">
                        <path d="M5.05852009,15.0000135 L2.62340803,15.0000135 C1.7272868,15.0000135 1,14.3728129 1,13.6000122 L1,8.70000745 C1,7.9272067 1.7272868,7.3000061 2.62340803,7.3000061 L5.05852009,7.3000061 L5.05852009,15.0000135 Z M10.7404482,5.90000474 L10.7404482,3.10000203 C10.7404482,1.94010091 9.65032971,1 8.30533615,1 L5.05852009,7.3000061 L5.05852009,15.0001 L14.2145414,15.0000135 C15.0238103,15.0077136 15.7170055,14.5002131 15.8379494,13.8100124 L16.958101,7.5100063 C17.0928438,6.74560556 16.4832541,6.03160487 15.5960616,5.91540476 C15.510021,5.90420475 15.422357,5.89930474 15.3346929,5.90000474 L10.7404482,5.90000474 Z" id="Page-1"></path>
                    </g>
                </g>
            </g>
        </g>
    </g>
</svg>