<?xml version="1.0" encoding="UTF-8"?>
<svg width="107px" height="141px" viewBox="0 0 107 141" version="1.1" xmlns="http://www.w3.org/2000/svg" xmlns:xlink="http://www.w3.org/1999/xlink">
    <!-- Generator: sketchtool 48.2 (47327) - http://www.bohemiancoding.com/sketch -->
    <title>876A88EF-C9EE-4A30-AB3A-A915D0E6C5D1</title>
    <desc>Created with sketchtool.</desc>
    <defs></defs>
    <g id="6-LIKE-Detail-desk1440-1a-TOY---chractor" stroke="none" stroke-width="1" fill="none" fill-rule="evenodd" transform="translate(-440.000000, -4208.000000)">
        <g id="01_products-description" transform="translate(0.000000, 4183.000000)">
            <g id="Group-4" transform="translate(440.000000, 25.000000)">
                <g id="illust">
                    <path d="M15.4797351,62.7643237 C7.21455264,61.0636724 2.31362764,50.611931 4.53470895,39.420487 C6.75579025,28.229043 15.2559486,20.5348066 23.5211311,22.2354579 C31.7863136,23.9361092 36.6863062,34.3878506 34.4652249,45.5792946 C32.245076,56.7707385 23.7439852,64.4659245 15.4797351,62.7643237" id="Fill-1" fill="#000000"></path>
                    <path d="M9,140 L9,97.88875 C9,88.6000321 16.535625,81 25.745625,81 L37.254375,81 C46.464375,81 54,88.6000321 54,97.88875 L54,140" id="Fill-3" fill="#FFFFFF"></path>
                    <path d="M55.1153846,141 C54.0750769,141 53.2307692,140.163373 53.2307692,139.13253 L53.2307692,97.5458434 C53.2307692,89.3784639 46.5253077,82.7349398 38.2838846,82.7349398 L26.7161154,82.7349398 C18.4746923,82.7349398 11.7692308,89.3784639 11.7692308,97.5458434 L11.7692308,139.13253 C11.7692308,140.163373 10.9249231,141 9.88461538,141 C8.84430769,141 8,140.163373 8,139.13253 L8,97.5458434 C8,87.3195783 16.3959615,79 26.7161154,79 L38.2838846,79 C48.6040385,79 57,87.3195783 57,97.5458434 L57,139.13253 C57,140.163373 56.1556923,141 55.1153846,141" id="Fill-5" fill="#000000"></path>
                    <path d="M34,97 C31.8,97 30,95.07625 30,92.725 L30,82.275 C30,79.92375 31.8,78 34,78 C36.2,78 38,79.92375 38,82.275 L38,92.725 C38,95.07625 36.2,97 34,97" id="Fill-7" fill="#FFFFFF"></path>
                    <path d="M34,79.8695652 C32.346,79.8695652 31,81.1570435 31,82.7391304 L31,93.2608696 C31,94.8429565 32.346,96.1304348 34,96.1304348 C35.654,96.1304348 37,94.8429565 37,93.2608696 L37,82.7391304 C37,81.1570435 35.654,79.8695652 34,79.8695652 M34,99 C30.691,99 28,96.426 28,93.2608696 L28,82.7391304 C28,79.574 30.691,77 34,77 C37.309,77 40,79.574 40,82.7391304 L40,93.2608696 C40,96.426 37.309,99 34,99" id="Fill-9" fill="#000000"></path>
                    <path d="M35.0004673,87 C23.9544148,87 15,77.9861111 15,66.8666922 L15,48.1333078 C15,37.0138889 23.9544148,28 35.0004673,28 C46.0455852,28 55,37.0138889 55,48.1333078 L55,66.8666922 C55,77.9861111 46.0455852,87 35.0004673,87" id="Fill-11" fill="#FFFFFF"></path>
                    <path d="M35.0004701,29.7774313 C24.9432467,29.7774313 16.7607641,37.9961776 16.7607641,48.0979734 L16.7607641,66.9020266 C16.7607641,77.0038224 24.9432467,85.2225687 35.0004701,85.2225687 C45.0576935,85.2225687 53.2392359,77.0038224 53.2392359,66.9020266 L53.2392359,48.0979734 C53.2392359,37.9961776 45.0576935,29.7774313 35.0004701,29.7774313 M35.0004701,89 C22.8691852,89 13,79.0870758 13,66.9020266 L13,48.0979734 C13,35.9129242 22.8691852,26 35.0004701,26 C47.1308148,26 57,35.9129242 57,48.0979734 L57,66.9020266 C57,79.0870758 47.1308148,89 35.0004701,89" id="Fill-13" fill="#000000"></path>
                    <path d="M29.5,46 C28.6748144,46 28,46.6325406 28,47.4060325 L28,51.3239559 L29.2206064,52.4689675 L28.0018564,53.612239 C28.0120668,54.3770302 28.6813119,55 29.5,55 C30.3251856,55 31,54.3674594 31,53.5939675 L31,47.4060325 C31,46.6325406 30.3251856,46 29.5,46" id="Fill-15" fill="#000000"></path>
                    <path d="M45.5,46 C44.6738861,46 44,46.6325406 44,47.4060325 L44,51.3239559 L45.2206064,52.4689675 L44.0018564,53.612239 C44.0120668,54.3770302 44.6813119,55 45.5,55 C46.3251856,55 47,54.3674594 47,53.5939675 L47,47.4060325 C47,46.6325406 46.3251856,46 45.5,46" id="Fill-17" fill="#000000"></path>
                    <path d="M40.1866254,59.0259334 C40.9149734,60.3235242 42.2318406,60.920398 43.6655266,60.9637413 C44.4983036,60.9899279 45.3301955,60.7172261 46.1594324,60.7831441 C46.512544,60.8111367 46.4019201,60.7027783 46.1824422,60.8580919 C45.8390655,61.1000922 45.5178137,61.3213237 45.1301874,61.5127568 C43.5920724,62.270362 44.9363743,64.6072898 46.4700644,63.8514905 C48.1966826,63.0008777 50.010915,60.8571889 48.3338563,58.9780751 C47.7046274,58.273746 46.7426418,58.0498055 45.8372955,58.0741861 C44.8478752,58.1021787 43.0955922,58.7568435 42.4787532,57.6588126 C41.6291614,56.146311 39.3343787,57.5089169 40.1866254,59.0259334" id="Fill-19" fill="#000000"></path>
                    <path d="M25.1440246,66.1573498 C27.0195273,70.1530057 31.721547,71.9876785 36.0001295,70.4699123 C37.7636325,69.8455029 37.0002666,67.1174733 35.2171145,67.750346 C32.0565634,68.8703334 29.0649943,67.6657122 27.6895602,64.7336211 C26.9134223,63.0804408 24.3727991,64.5126328 25.1440246,66.1573498" id="Fill-21" fill="#000000"></path>
                    <path d="M72.5675427,13.0396464 C75.3078526,23.5816312 64.7392908,35.4677825 48.9628281,39.5885779 C33.1854283,43.708434 18.1737033,38.5027244 15.4324562,27.9607395 C12.6921463,17.4187547 23.2607081,5.53166413 39.0381079,1.41180799 C54.8155078,-2.70898746 69.8262956,2.49766155 72.5675427,13.0396464" id="Fill-23" fill="#000000"></path>
                    <g id="Group-28" transform="translate(6.000000, 47.000000)">
                        <path d="M5.57142857,15.6231529 C2.74285714,15.6231529 0.428571429,13.0819765 0.428571429,9.97609412 L0.428571429,6.21138824 C0.428571429,3.10550588 2.74285714,0.564329412 5.57142857,0.564329412" id="Fill-25" fill="#FFFFFF"></path>
                        <path d="M9.08251953,15.6231529 C8.63826497,15.6231529 7.46790132,15.6231529 5.57142857,15.6231529 C2.74285714,15.6231529 0.428571429,13.0819765 0.428571429,9.97609412 L0.428571429,6.21138824 C0.428571429,3.10550588 2.74285714,0.564329412 5.57142857,0.564329412" id="Stroke-27" stroke="#0F0F0F" stroke-width="4"></path>
                    </g>
                    <path d="M86,84.8830072 L86,76.1169928 C86,73.2962841 82,73.2923881 82,76.1169928 L82,84.8830072 C82,87.7037159 86,87.7076119 86,84.8830072" id="Fill-29" fill="#0F0F0F"></path>
                    <path d="M74.4403185,85.7509234 C73.0438364,84.3538762 71.6456636,82.956829 70.2491815,81.5597818 C68.5162587,79.8263614 65.8264245,82.514811 67.5593472,84.2490766 C68.9566747,85.6461238 70.3531568,87.043171 71.749639,88.4402182 C73.483407,90.1736386 76.1740866,87.485189 74.4403185,85.7509234" id="Fill-31" fill="#0F0F0F"></path>
                    <path d="M86,68.881859 L86,67.1182038 C86,66.0110986 85.08,64.9500836 84,65.0018175 C82.9155556,65.0526108 82,65.9311463 82,67.1182038 L82,68.881859 C82,69.9889641 82.9191111,71.0490385 84,70.9982452 C85.0835556,70.9465113 86,70.0679759 86,68.881859" id="Fill-33" fill="#0F0F0F"></path>
                    <path d="M62.9718876,126 L14.0281124,126 C10.1626506,126 7,122.85 7,119 C7,115.15 10.1626506,112 14.0281124,112 L62.9718876,112 C66.8373494,112 70,115.15 70,119 C70,122.85 66.8373494,126 62.9718876,126" id="Fill-35" fill="#FFFFFF"></path>
                    <path d="M66.4822923,77.922646 C66.3478307,77.7884973 66.2141743,77.6551519 66.0797127,77.5210031 C65.4090151,76.8518661 64.1803423,76.8012591 63.5176963,77.5210031 C62.85344,78.2423537 62.8019098,79.3629373 63.5176963,80.0770583 C63.6513527,80.211207 63.7858143,80.3453557 63.9202759,80.4787012 C64.5909734,81.1486415 65.8204515,81.1984452 66.4822923,80.4787012 C67.1457434,79.7573506 67.1988839,78.6375703 66.4822923,77.922646" id="Fill-37" fill="#0F0F0F"></path>
                    <path d="M92.5057694,91.3353342 C94.4687204,89.1757088 96.4334957,87.0160833 98.3964467,84.8564578 C100.266358,82.7991462 97.3638907,79.6063511 95.493067,81.6646658 C93.530116,83.8242912 91.567165,85.9839167 89.6033019,88.1435422 C87.7343025,90.2008538 90.6349457,93.3936489 92.5057694,91.3353342" id="Fill-39" fill="#0F0F0F"></path>
                    <path d="M103.076988,79.4819962 C103.211147,79.3475346 103.345306,79.2138782 103.478661,79.0794166 C104.148653,78.408719 104.19846,77.179241 103.478661,76.5174002 C102.758059,75.853949 101.637389,75.8016137 100.92241,76.5174002 C100.788251,76.6518617 100.654895,76.7855182 100.520736,76.9199797 C99.8515482,77.5906773 99.8017406,78.8201554 100.520736,79.4819962 C101.242946,80.1462525 102.362812,80.1985878 103.076988,79.4819962" id="Fill-41" fill="#0F0F0F"></path>
                    <path d="M9.81818182,112.809524 C6.46690909,112.809524 3.74025974,115.586667 3.74025974,119 C3.74025974,122.413333 6.46690909,125.190476 9.81818182,125.190476 L62.1818182,125.190476 C65.5330909,125.190476 68.2597403,122.413333 68.2597403,119 C68.2597403,115.586667 65.5330909,112.809524 62.1818182,112.809524 L9.81818182,112.809524 Z M62.1818182,129 L9.81818182,129 C4.40415584,129 0,124.514286 0,119 C0,113.485714 4.40415584,109 9.81818182,109 L62.1818182,109 C67.5958442,109 72,113.485714 72,119 C72,124.514286 67.5958442,129 62.1818182,129 Z" id="Fill-43" fill="#000000"></path>
                    <path d="M10,127 C5.6,127 2,123.419149 2,119.042553 L2,90.9574468 C2,86.5808511 5.6,83 10,83 C14.4,83 18,86.5808511 18,90.9574468 L18,119.042553 C18,123.419149 14.4,127 10,127" id="Fill-45" fill="#FFFFFF"></path>
                    <path d="M10,84.7647059 C6.58666667,84.7647059 3.80952381,87.5091765 3.80952381,90.8823529 L3.80952381,119.117647 C3.80952381,122.490824 6.58666667,125.235294 10,125.235294 C13.4133333,125.235294 16.1904762,122.490824 16.1904762,119.117647 L16.1904762,90.8823529 C16.1904762,87.5091765 13.4133333,84.7647059 10,84.7647059 M10,129 C4.48571429,129 0,124.567059 0,119.117647 L0,90.8823529 C0,85.4329412 4.48571429,81 10,81 C15.5142857,81 20,85.4329412 20,90.8823529 L20,119.117647 C20,124.567059 15.5142857,129 10,129" id="Fill-47" fill="#000000"></path>
                    <polygon id="Fill-49" fill="#FFFFFF" points="61 106.368003 70.9000698 106.368003 73.1003954 104.157181 75.2997907 101.947295 77.5001163 98.6315297 78.5998139 95.3157649 79.7004419 92 81.9007676 92 84.1001628 93.1049434 85.2007908 95.3157649 86.2995581 97.5265864 85.2007908 98.6315297 86.2995581 101.947295 85.2007908 104.157181 87.4001861 105.263059 91.799907 105.263059 96.2005582 105.263059 100.600279 106.368003 102.800605 105.263059 105 107.473881 105 108.578824 103.900302 110.788711 101.699977 112.999533 102.800605 115.209419 101.699977 118.526119 99.5005815 119.631062 100.600279 121.841884 99.5005815 122.946827 99.5005815 125.157649 97.3002559 126.262592 97.3002559 128.472479 97.3002559 130.6833 97.3002559 131.789178 96.2005582 132.894122 94.0002326 132.894122 88.5008141 134 81.9007676 134 76.4004187 132.894122 70.9000698 129.578357 69.8003721 131.789178 61 130.6833"></polygon>
                    <path d="M94.0918712,134.999993 L83.494422,134.999993 C81.4260291,135.001862 79.3755486,134.63643 77.4372552,133.92052 L69.1815961,130.881174 C68.2341327,130.523219 67.7599296,129.471785 68.1210027,128.534373 C68.4773621,127.606307 69.5191005,127.133395 70.4599647,127.471723 L78.7137383,130.511069 C80.243821,131.074638 81.8615795,131.361563 83.494422,131.359694 L94.0918712,131.359694 C95.0515904,131.359694 95.8293589,130.588642 95.8293589,129.637211 C95.8293589,128.685779 95.0515904,127.913793 94.0918712,127.913793 C93.0784153,127.913793 92.2572803,127.099749 92.2572803,126.095045 C92.2572803,125.090341 93.0784153,124.276298 94.0918712,124.276298 L96.5920434,124.276298 C97.5527053,124.276298 98.3304738,123.505246 98.3304738,122.553815 C98.3304738,121.602383 97.5527053,120.830397 96.5920434,120.830397 C95.5795302,120.830397 94.7583953,120.016353 94.7583953,119.012584 C94.7583953,118.00788 95.5795302,117.192902 96.5920434,117.192902 L99.0931583,117.192902 C100.051935,117.193836 100.830646,116.422784 100.830646,115.470418 C100.830646,115.013395 100.647753,114.575064 100.321561,114.251689 C99.9972553,113.92738 99.5541629,113.745132 99.0931583,113.747001 C98.0787597,113.747001 97.2576247,112.932957 97.2576247,111.928253 C97.2576247,110.924484 98.0787597,110.109505 99.0931583,110.109505 L101.593331,110.109505 C102.553992,110.106702 103.328933,109.332846 103.326104,108.381415 C103.324219,107.926261 103.142268,107.489798 102.81702,107.168293 C102.493656,106.844919 102.05245,106.66267 101.593331,106.66267 L84.270305,106.66267 C83.2577918,106.664539 82.4347713,105.850496 82.4338286,104.845792 C82.4338286,104.538306 82.5120768,104.234558 82.661974,103.964456 C83.2200818,102.843861 83.5990672,101.644758 83.7866744,100.408272 C84.202427,97.756788 83.6905139,95.3595178 82.2679046,93.2837528 C81.791816,92.6108349 80.8547228,92.448213 80.175943,92.9211248 C79.7771599,93.1987035 79.5386443,93.6501192 79.5377015,94.1323771 C79.5970947,100.362476 76.6934257,104.889718 71.14063,107.228108 C70.2157926,107.638401 69.1306877,107.227174 68.7168206,106.310323 C68.3038962,105.393472 68.7177633,104.316803 69.6426007,103.907445 C69.664284,103.898099 69.6850245,103.888753 69.7076505,103.880341 C71.9966467,102.910218 73.6653137,101.485875 74.6674566,99.6269391 C75.4838778,98.1100699 75.8892602,96.2735647 75.8694625,94.1697614 C75.8506075,91.8715597 77.2807587,89.9313129 79.5037625,89.2453105 C81.727709,88.559308 84.006335,89.3397059 85.3082724,91.2406991 C88.3297851,95.6492463 87.7848758,100.225088 86.9561988,103.027979 L101.593331,103.027979 C104.579962,103.027979 107,105.428053 107,108.388892 C107,110.427272 105.832876,112.289947 103.9898,113.192778 C105.236115,115.83585 104.126499,118.980807 101.490571,120.277109 C102.736886,122.919246 101.626327,126.066072 98.9885131,127.361439 C100.256511,130.042831 99.0912728,133.236387 96.386524,134.493435 C95.6700342,134.826156 94.8884947,134.999058 94.096585,134.999993 L94.0918712,134.999993 Z" id="Fill-51" fill="#000000"></path>
                    <path d="M62.6285258,128.435081 L69.3751996,128.435081 L69.3751996,107.564919 L62.6248004,107.564919 L62.6285258,128.435081 Z M71.1866684,132 L60.8124002,132 C59.8112028,132 59,131.202198 59,130.217541 L59,105.782459 C59,104.797802 59.8112028,104 60.8124002,104 L71.1866684,104 C72.1887972,104 73,104.797802 73,105.782459 L73,130.217541 C73,131.202198 72.1887972,132 71.1866684,132 Z" id="Fill-53" fill="#000000"></path>
                </g>
            </g>
        </g>
    </g>
</svg>