<svg xmlns="http://www.w3.org/2000/svg" width="280" height="280" viewBox="0 0 280 280">
    <g fill="none" fill-rule="evenodd">
        <path d="M0 0h280v280H0z"/>
        <g stroke="#FFF" stroke-linecap="round" stroke-linejoin="round" stroke-width="8">
            <path d="M195.999 126.113a11.255 11.255 0 0 0-4.467-4.003l-45.116-22.537a11.288 11.288 0 0 0-10.039 0L91.26 122.11a11.256 11.256 0 0 0-4.447 3.975l54.583 27.294L196 126.113z"/>
            <path d="M141.396 153.379v66.32c1.72-.004 3.44-.4 5.02-1.19l45.116-22.536a11.267 11.267 0 0 0 6.26-10.086v-53.692c0-2.2-.647-4.3-1.793-6.083l-54.603 27.267z"/>
            <path d="M86.812 126.085a11.249 11.249 0 0 0-1.812 6.11v53.636a11.265 11.265 0 0 0 6.204 10.141l45.117 22.537a11.278 11.278 0 0 0 5.075 1.19v-66.32l-54.584-27.294z"/>
        </g>
        <g fill="#FFF">
            <path d="M195.264 89.62a.79.79 0 0 0-.097-.636 12.027 12.027 0 0 0-4.761-4.27L145.45 62.25a12.096 12.096 0 0 0-10.706 0l-44.95 22.465a12.03 12.03 0 0 0-4.744 4.24.789.789 0 0 0 .31 1.135l54.384 27.208a.791.791 0 0 0 .707 0l54.404-27.18c.2-.1.349-.28.408-.497M104.334 151.862L49.95 124.655a.79.79 0 0 0-1.018.277 11.99 11.99 0 0 0-1.932 6.52v53.46a11.951 11.951 0 0 0 6.618 10.821l44.952 22.465a12.093 12.093 0 0 0 5.383 1.27h.03a.79.79 0 0 0 .787-.79v-66.11a.79.79 0 0 0-.436-.706M229.835 124.654l-54.404 27.18a.79.79 0 0 0-.437.706v66.111a.788.788 0 0 0 .79.79 12.095 12.095 0 0 0 5.355-1.27l44.95-22.464a11.953 11.953 0 0 0 6.676-10.76v-53.524a11.992 11.992 0 0 0-1.912-6.49.79.79 0 0 0-1.018-.279z"/>
        </g>
    </g>
</svg>
