<svg xmlns="http://www.w3.org/2000/svg" width="280" height="280" viewBox="0 0 280 280">
    <g fill="none" fill-rule="evenodd">
        <path d="M0 0h280v280H0z"/>
        <g fill="#FFF" transform="translate(2 62)">
            <ellipse cx="74" cy="67" rx="2" ry="56"/>
            <ellipse cx="131" cy="86" rx="2" ry="56" transform="rotate(-64 131 86)"/>
            <ellipse cx="102" cy="139" rx="2" ry="35" transform="rotate(-64 102 139)"/>
            <ellipse cx="138" cy="34" rx="2" ry="56" transform="rotate(-64 138 34)"/>
            <ellipse cx="88" cy="53" rx="2" ry="56" transform="rotate(64 88 53)"/>
            <ellipse cx="181" cy="63" rx="2" ry="56" transform="rotate(64 181 63)"/>
            <ellipse cx="185" cy="129" rx="2" ry="56" transform="rotate(64 185 129)"/>
            <ellipse cx="190" cy="74" rx="2" ry="56"/>
            <ellipse cx="132" cy="115.5" rx="2" ry="30.5"/>
            <path d="M275.98 103.928l-93.353-47.7-23.337-11.93-23.364-11.87-23.422-11.743-11.713-5.87-11.74-5.811a.035.035 0 0 0-.047.017.039.039 0 0 0 .016.05l11.627 6.054L112.3 21.12l23.31 11.987 23.367 11.863 23.396 11.8 93.575 47.225c.018.01.04.002.048-.018a.038.038 0 0 0-.016-.05M198.98 121.928l-93.353-47.7-23.337-11.93-23.364-11.87-23.422-11.743-11.713-5.87-11.74-5.811a.035.035 0 0 0-.047.017.039.039 0 0 0 .016.05l11.627 6.054L35.3 39.12l23.31 11.987 23.367 11.863 23.396 11.8 93.575 47.225c.018.01.04.002.048-.018a.038.038 0 0 0-.016-.05M.013 160.955l61.404-29.624 15.35-7.41 15.367-7.37 15.406-7.294 7.704-3.645 7.722-3.61a.023.023 0 0 1 .032.011.023.023 0 0 1-.011.032l-7.648 3.759-7.665 3.723-15.332 7.445-15.37 7.368-15.389 7.329L.034 160.998a.024.024 0 0 1-.032-.012.023.023 0 0 1 .011-.03"/>
            <path d="M57.02 192.928l93.353-47.7 23.337-11.93 23.364-11.87 23.422-11.743 11.713-5.87 11.74-5.811a.035.035 0 0 1 .047.017.039.039 0 0 1-.016.05l-11.627 6.054-11.653 5.996-23.31 11.987-23.367 11.863-23.396 11.8-93.575 47.225a.035.035 0 0 1-.048-.018.038.038 0 0 1 .016-.05M7.02 94.928l93.353-47.7 23.337-11.93 23.364-11.87 23.422-11.743 11.713-5.87L193.95.004a.035.035 0 0 1 .047.017.039.039 0 0 1-.016.05l-11.627 6.054L170.7 12.12l-23.31 11.987-23.367 11.863-23.396 11.8L7.052 94.996a.035.035 0 0 1-.048-.018.038.038 0 0 1 .016-.05"/>
        </g>
    </g>
</svg>
