<svg xmlns="http://www.w3.org/2000/svg" xmlns:xlink="http://www.w3.org/1999/xlink" width="180" height="180" viewBox="0 0 180 180">
    <defs>
        <path id="b" d="M0 0h180v180H0z"/>
        <filter id="a" width="111.7%" height="111.7%" x="-5.8%" y="-5.8%" filterUnits="objectBoundingBox">
            <feOffset in="SourceAlpha" result="shadowOffsetOuter1"/>
            <feGaussianBlur in="shadowOffsetOuter1" result="shadowBlurOuter1" stdDeviation="3.5"/>
            <feColorMatrix in="shadowBlurOuter1" values="0 0 0 0 0 0 0 0 0 0 0 0 0 0 0 0 0 0 0.06 0"/>
        </filter>
    </defs>
    <g fill="none" fill-rule="evenodd">
        <g>
            <use fill="#000" filter="url(#a)" xlink:href="#b"/>
            <use fill="#BEBEBE" xlink:href="#b"/>
        </g>
        <g fill="#EBEAEA">
            <path d="M72.482 87.815c-.003 2.424 1.937 4.422 4.432 4.68l-.001.816c-2.556-.454-4.498-2.589-4.501-5.153l-.004-2.551c0-.38.047-.75.128-1.108-.03.206-.05.415-.05.629l-.004 2.687z"/>
            <path d="M72.482 87.815l.003-2.687c0-.214.021-.423.05-.629.446-1.973 2.058-3.535 4.116-4 .092-.014.184-.03.278-.04l-.001.835c-2.035.247-3.614 1.87-3.616 3.835l-.003 2.687c-.003 1.966 1.572 3.592 3.606 3.844l-.001.835c-2.495-.258-4.435-2.256-4.432-4.68"/>
            <path d="M76.928 80.438v.03c-.133.014-.262.036-.393.056.131-.03.26-.062.393-.086M89.103 87.603c-.627 0-1.14-.51-1.147-1.136l.936-.934-.935-.937.004-3.204c.001-.632.519-1.149 1.151-1.148.633 0 1.15.519 1.148 1.152l-.006 5.059a1.153 1.153 0 0 1-1.15 1.148M100.601 87.617c-.627 0-1.14-.51-1.146-1.136l.935-.933-.935-.938.005-3.203c0-.632.518-1.15 1.15-1.148.633 0 1.15.518 1.149 1.15l-.006 5.06a1.154 1.154 0 0 1-1.152 1.148M96.828 89.739c-.513-.935.917-1.767 1.429-.833.435.795 2.4.554 3.091.499.698-.056 1.369.01 1.773.659.94 1.509-.653 2.829-1.907 3.296-1 .373-1.426-1.227-.438-1.596.156-.058.977-.388.917-.674-.025-.125-.604 0-.646.003a6.573 6.573 0 0 1-1.532-.027c-1.01-.142-2.16-.366-2.687-1.327"/>
            <path d="M77.455 93.352l.002-1.654c-.184 0-.364-.016-.542-.038l.013-10.366a4.36 4.36 0 0 1 .542-.036l.002-1.654c-3.202-.004-5.81 2.474-5.814 5.523l-.003 2.687c-.004 3.05 2.598 5.534 5.8 5.538m1.15 2.576a14.81 14.81 0 0 0 .124 1.12c.011.073.02.148.032.222.054.326.12.648.195.966.024.103.052.203.079.305.058.227.123.452.193.674.035.114.07.229.108.341.098.288.203.572.318.852.049.118.104.234.156.35a14.21 14.21 0 0 0 .459.946c.076.142.156.281.237.42.15.26.308.516.474.766.067.102.133.204.203.305a14.184 14.184 0 0 0 .539.718c.424.533.883 1.036 1.377 1.504l.151.143a14.464 14.464 0 0 0 3.47 2.38c.124.061.247.124.373.181a14.517 14.517 0 0 0 2.08.77 14.554 14.554 0 0 0 3.911.544h.002a14.605 14.605 0 0 0 4.421-.69c.254-.082.503-.177.751-.272.092-.035.186-.066.278-.103.316-.13.626-.27.93-.42l.043-.02a14.643 14.643 0 0 0 2.791-1.801c.6-.492 1.16-1.03 1.674-1.61l.06-.068a14.753 14.753 0 0 0 1.492-2.033c.158-.257.306-.521.448-.789.085-.163.171-.325.25-.492a13.75 13.75 0 0 0 .452-1.056c.05-.127.1-.252.146-.38a14.297 14.297 0 0 0 .372-1.242c.077-.301.146-.606.203-.915.008-.046.02-.09.028-.137a14.653 14.653 0 0 0 .168-1.363c.029-.374.05-.75.05-1.131l.02-15.508a14.45 14.45 0 0 0-1.765-6.955c-.597-.901-2.175-3.086-4.842-4.763-6.316 4.795-14.09 7.623-22.005 8.068a14.458 14.458 0 0 0-.467 3.613l-.02 15.509c0 .353.017.703.041 1.05m13.041 19.517l1.441.002a1.656 1.656 0 0 0 1.656-1.652l.004-2.789a16.206 16.206 0 0 1-4.748-.22l-.004 3.003a1.655 1.655 0 0 0 1.651 1.656M68.446 90.4c-3.367-7.935-1.66-15.616-1.216-17.415 1.385-5.598 4.14-9.23 4.76-10.026 1.255-1.61 5.387-6.758 12.825-8.764.17-.046.365-.094.577-.143 2.006-2.802 5.586-5.198 10.002-6.355 7.73-2.025 15.09.512 16.44 5.665.755 2.882-.53 5.97-3.161 8.488a3.9 3.9 0 0 1 1.842.917c.77.7 1.238 1.668 1.636 2.63 2.912 7.034 2.966 15.204.146 22.276a29.066 29.066 0 0 1-2.998 5.611l-.002 1.631c0 .271-.009.54-.022.807-.005.085-.012.169-.018.253a15.61 15.61 0 0 1-.146 1.35l-.043.28c-.031.182-.066.364-.103.545l-.046.224a16.09 16.09 0 0 1-.412 1.515c-.018.057-.038.113-.058.17-.064.19-.13.38-.202.566l-.082.209c-.07.177-.143.353-.22.527l-.085.194c-.086.191-.177.38-.271.567l-.061.125c-.242.47-.505.929-.79 1.372l-.038.058a16 16 0 0 1-.397.584l-.083.113c-.127.177-.259.35-.394.522l-.083.106c-.149.185-.301.367-.458.545l-.037.045c-.356.403-.73.788-1.123 1.153a15.595 15.595 0 0 1 5.055 3.366 15.52 15.52 0 0 1 4.617 11.03l.1 11.522a.827.827 0 0 1-1.655.014v-.004l-.1-11.522a13.878 13.878 0 0 0-4.127-9.866 13.91 13.91 0 0 0-5.362-3.32c-.212.154-.428.303-.647.448l-.187.12a16.163 16.163 0 0 1-1.2.698l-.207.11a16.04 16.04 0 0 1-1.44.644c-.074.029-.15.056-.225.084a16.66 16.66 0 0 1-.79.272c-.177.055-.356.108-.537.158-.079.022-.158.045-.238.066-.258.067-.518.13-.78.185l-.005 3.046a3.312 3.312 0 0 1-3.312 3.304l-1.44-.002a3.311 3.311 0 0 1-3.305-3.312l.005-3.413a16.04 16.04 0 0 1-1.3-.465c-.069-.029-.135-.063-.205-.092a16.397 16.397 0 0 1-1.075-.498l-.11-.06c-.385-.2-.76-.415-1.126-.645l-.017-.011c-.118-.074-.232-.153-.348-.23a8.012 8.012 0 0 1-2.276 1.877c-1.364.747-3.122 1.178-4.726 1.108-.105.1-.214.195-.316.299a14.74 14.74 0 0 0-4.307 10.508l.096 10.652v.005a.826.826 0 0 1-.82.83h-.008a.827.827 0 0 1-.825-.82l-.097-10.657a16.377 16.377 0 0 1 4.334-11.205 3.942 3.942 0 0 1-1.262-.774c-2.356-2.198.436-5.779-1.208-11.927-1.039-3.888-2.407-3.397-4.304-7.868"/>
            <path d="M72.536 84.5c.292-2.045 1.971-3.667 4.114-4-2.057.465-3.669 2.026-4.114 4"/>
            <path d="M71.658 85.127c.004-3.05 2.613-5.527 5.814-5.523l-.002 1.654a4.36 4.36 0 0 0-.542.036v-.835a5.298 5.298 0 0 0 0 0v-.02c-.094.016-.185.04-.277.06-2.144.334-3.823 1.956-4.115 4-.08.358-.128.727-.128 1.107l.004 2.552c.003 2.564 1.945 4.7 4.5 5.153l.002-.816v-.835c.179.022.359.038.543.038l-.002 1.654c-3.202-.004-5.804-2.488-5.8-5.538l.003-2.687zM89.734 95.848c1.137 2.532 3.61 3.573 6.223 2.606 1.475-.547 2.105 1.809.647 2.349-3.537 1.31-7.424-.274-8.974-3.725-.638-1.42 1.463-2.658 2.104-1.23"/>
        </g>
    </g>
</svg>
