<svg xmlns="http://www.w3.org/2000/svg" width="1440" height="250" viewBox="0 0 1440 250">
    <g fill="none" fill-rule="evenodd">
        <path fill="#FFF" d="M0 0h1440v250H0z"/>
        <path fill="#DADADA" d="M694.118 128.72c-.544-2.293-2.342-6.398-5.434-6.577-.753-.043-1.483.153-2.13.483a2.948 2.948 0 0 0-.664-.797c-.637-.527-1.427-.704-2.387-.73-5.095-.131-8.274 2.503-8.274 2.503-3.572 2.958-4.003 7.196-4.14 8.541-.361 3.558.697 6.912 2.44 9.292a10.13 10.13 0 0 0 6.08 6.843c-6.023.778-10.69 6.257-10.608 12.787l.113 9.17 21.834-.271-.192-15.458a19.876 19.876 0 0 1 .638-5.23 11.519 11.519 0 0 0-4.17-1.124c3.618-1.563 6.147-5.193 6.095-9.364l-.025-2.071c1.083-2.058 1.464-5.293.824-7.997M771.12 156.583c-.113-9.08-6.907-16.505-15.37-17.14 4.941-2.136 8.394-7.094 8.324-12.79l-.036-2.83c1.48-2.81 2-7.23 1.126-10.923-.743-3.132-3.199-8.74-7.423-8.984-1.027-.06-2.022.208-2.905.658a4.05 4.05 0 0 0-.911-1.087c-.87-.72-1.949-.962-3.26-.996-6.96-.18-11.303 3.417-11.303 3.417-4.879 4.041-5.468 9.83-5.654 11.668-.494 4.86.95 9.441 3.331 12.693 1.116 4.28 4.253 7.753 8.31 9.347-3.144.407-6.016 1.75-8.36 3.752a22.715 22.715 0 0 1 3.006 11.051l.187 15.076 31.092-.386-.154-12.526z"/>
        <path fill="#464646" d="M700.278 129.153c-3.248.04-5.922-2.444-5.96-5.537l-.034-2.726c-.038-3.093 2.573-5.642 5.82-5.682l.022 1.678c-2.323.028-4.191 1.815-4.165 3.983l.034 2.726c.027 2.169 1.94 3.909 4.262 3.88l.02 1.678zM711.92 115.696a1.17 1.17 0 0 0-1.152 1.18l.04 3.25.962.938-.936.96a1.169 1.169 0 0 0 1.179 1.136 1.17 1.17 0 0 0 1.151-1.18l-.063-5.132a1.17 1.17 0 0 0-1.18-1.152M723.583 115.551a1.17 1.17 0 0 0-1.152 1.181l.04 3.25.962.937-.936.96a1.169 1.169 0 0 0 1.178 1.137 1.17 1.17 0 0 0 1.152-1.18l-.063-5.133a1.17 1.17 0 0 0-1.18-1.152"/>
        <path fill="#464646" d="M730.724 114.588l.195 15.73a14.967 14.967 0 0 1-.057 1.436c-.03.37-.072.736-.13 1.097-.007.047-.018.093-.026.14a14.633 14.633 0 0 1-.28 1.28c-.082.31-.173.614-.273.915-.045.13-.094.259-.142.388a14.531 14.531 0 0 1-.444 1.078c-.079.17-.164.335-.248.502-.14.273-.287.543-.443.806-.058.098-.115.195-.175.291-.393.63-.83 1.229-1.31 1.792l-.06.07a15 15 0 0 1-1.675 1.655h-.001a14.685 14.685 0 0 1-1.854 1.333c-.311.19-.629.367-.953.533l-.042.02c-.307.157-.62.304-.938.44-.093.038-.187.071-.28.108-.25.1-.502.2-.759.286-.366.123-.737.234-1.115.328a15.015 15.015 0 0 1-3.36.433 14.764 14.764 0 0 1-4.817-.749 14.774 14.774 0 0 1-1.28-.5c-.128-.057-.253-.118-.38-.178-.365-.176-.724-.361-1.073-.563v-.001a14.824 14.824 0 0 1-1.95-1.346l-.001-.001a15.128 15.128 0 0 1-2.101-2.105c-.065-.08-.13-.158-.193-.24a15.185 15.185 0 0 1-.364-.481c-.072-.1-.141-.204-.21-.307a14.487 14.487 0 0 1-.492-.77c-.084-.14-.167-.28-.246-.423a14.617 14.617 0 0 1-.479-.952c-.054-.118-.111-.234-.163-.354a15 15 0 0 1-.334-.86c-.04-.113-.077-.229-.115-.344a14.667 14.667 0 0 1-.205-.681c-.028-.103-.058-.204-.084-.308-.08-.322-.152-.647-.21-.977-.014-.075-.024-.15-.036-.226a14.615 14.615 0 0 1-.112-.838l-.03-.295c-.029-.353-.05-.707-.055-1.066l-.195-15.73a14.654 14.654 0 0 1 1.889-7.391c5.002 3.123 12.68 4.023 20.583 1.859a33.687 33.687 0 0 0 5.137-1.864 14.657 14.657 0 0 1 1.886 7.03zm-12.628 35.06a1.68 1.68 0 0 1-1.657 1.698l-1.461.019a1.68 1.68 0 0 1-1.699-1.657l-.038-3.046a16.425 16.425 0 0 0 4.82.157l.035 2.83zm-16.86-42.112l-.008.016.008-.016zm-.842 2.047l.025-.076-.025.076zm-.314 1.056l.045-.162-.045.162zm-.417 2.25c.009-.083.017-.166.028-.248-.01.082-.02.165-.028.247zm-.09 1.063c.005-.096.013-.19.019-.284-.006.094-.014.188-.018.284zm42.05-25.15c-2.21-8.073-13.818-11.929-25.927-8.613-11.503 3.15-19.312 11.638-18.17 19.4-2.375 2.385-4.192 5.795-4.944 9.771-.868 4.586-.141 8.987 1.71 12.266v-.083c-.036-2.917 2.283-5.346 5.27-5.65l.184 14.812c.005.411.031.818.066 1.221.008.09.015.179.024.268.04.39.092.778.16 1.16.011.067.026.132.039.199.064.339.138.673.222 1.003.02.079.039.158.06.236.098.36.208.716.33 1.066.032.095.068.188.102.282.113.309.235.614.366.915l.072.171a16.541 16.541 0 0 0 .648 1.276c.17.302.346.601.535.892.056.087.117.171.175.257.152.226.31.448.473.666.077.102.153.206.232.306.205.26.417.515.637.763.09.1.182.198.274.297.174.187.353.37.535.548.086.083.168.17.255.25a16.658 16.658 0 0 0-6.245 4.08 16.622 16.622 0 0 0-4.693 11.917l.245 10.808c.01.46.39.826.849.82h.009a.839.839 0 0 0 .819-.853v-.005l-.245-10.803a14.95 14.95 0 0 1 4.223-10.718 14.965 14.965 0 0 1 6.572-3.984c.376.276.763.537 1.162.78.006.004.011.008.018.011.374.228.757.441 1.15.639l.113.06c.358.176.725.338 1.097.49.07.028.139.062.21.09.433.168.874.322 1.324.454l.043 3.462a3.36 3.36 0 0 0 3.396 3.313l1.462-.018a3.358 3.358 0 0 0 3.313-3.397l-.038-3.09c.266-.059.529-.126.79-.198l.24-.07a16.767 16.767 0 0 0 1.34-.455l.228-.088c.496-.202.98-.427 1.45-.674l.209-.113a16.363 16.363 0 0 0 1.208-.726l.188-.123c.22-.15.438-.305.65-.465a14.111 14.111 0 0 1 5.485 3.294 14.078 14.078 0 0 1 4.323 9.95l.26 11.686.001.004a.84.84 0 0 0 1.677-.037l-.26-11.686a15.742 15.742 0 0 0-4.836-11.123 15.825 15.825 0 0 0-5.174-3.344c.394-.377.768-.772 1.123-1.186l.038-.046c.156-.183.308-.37.456-.56l.083-.108c.135-.175.266-.353.393-.534.027-.04.055-.078.082-.116.136-.197.267-.396.395-.598l.038-.06c.282-.453.543-.921.781-1.403l.061-.126c.093-.192.182-.385.267-.58.029-.065.057-.132.085-.198a16.638 16.638 0 0 0 .492-1.327c.019-.058.039-.115.057-.173a16.16 16.16 0 0 0 .396-1.543c.016-.075.029-.152.043-.228a16.07 16.07 0 0 0 .201-1.36l.029-.293c.016-.185.028-.37.037-.557l.014-.257c.01-.271.015-.544.012-.818l-.195-15.731a16.32 16.32 0 0 0-2.057-7.75c8.231-4.314 13.052-11.537 11.278-18.015z"/>
        <path fill="#464646" d="M719.877 125.22c.548.967 1.718 1.179 2.745 1.308a6.663 6.663 0 0 0 1.553.007c.043-.004.628-.138.656-.013.064.29-.764.637-.921.698-.997.387-.543 2.004.466 1.612 1.266-.492 2.865-1.852 1.89-3.37-.42-.652-1.101-.71-1.809-.644-.7.066-2.689.337-3.142-.463-.532-.94-1.97-.076-1.438.865M712.055 133.454c1.584 3.411 5.467 4.938 8.967 3.592 1.443-.554.787-2.889-.672-2.327-2.585.994-5.056-.01-6.218-2.513-.655-1.412-2.728-.156-2.077 1.248"/>
    </g>
</svg>
