<?xml version="1.0" encoding="UTF-8"?>
<svg width="60px" height="60px" viewBox="0 0 60 60" version="1.1" xmlns="http://www.w3.org/2000/svg" xmlns:xlink="http://www.w3.org/1999/xlink">
    <!-- Generator: Sketch 52.2 (67145) - http://www.bohemiancoding.com/sketch -->
    <title>icn-blender</title>
    <desc>Created with Sketch.</desc>
    <g id="Page-1" stroke="none" stroke-width="1" fill="none" fill-rule="evenodd">
        <g id="loading" transform="translate(-1114.000000, -338.000000)" fill-rule="nonzero">
            <g id="icn-blender-copy" transform="translate(1114.000000, 337.000000)">
                <rect id="Rectangle-Copy-20" x="0" y="1" width="60" height="60"></rect>
                <g id="Group-8-Copy-2" transform="translate(11.666667, 0.333333)" fill="#FFFFFF">
                    <path d="M10.4857537,38.6666667 L30.1809129,38.6666667 L28.1225812,10.6666667 L12.5440855,10.6666667 L10.4857537,38.6666667 Z M8.33333333,40.6666667 L10.6857125,8.66666667 L29.9809542,8.66666667 L32.3333333,40.6666667 L8.33333333,40.6666667 Z" id="Path-4-Copy-2" transform="translate(20.333333, 24.666667) scale(1, -1) translate(-20.333333, -24.666667) "></path>
                    <path d="M10.0891918,8.66666667 L33.023319,8.66666667 L31.3323475,6.66666667 L10.32183,6.66666667 L10.0891918,8.66666667 Z M7.8430689,10.6666667 L8.54098361,4.66666667 L32.2604186,4.66666667 L34.8087869,7.68075428 C35.4557771,8.44598324 35.3599256,9.59081307 34.5946967,10.2378033 C34.2671663,10.5147256 33.8521253,10.6666667 33.4232173,10.6666667 L7.8430689,10.6666667 Z" id="Path-4-Copy-3" transform="translate(21.540379, 7.666667) scale(1, -1) translate(-21.540379, -7.666667) "></path>
                    <path d="M8.47641287,58.6666667 L32.1902538,58.6666667 L31.1282692,43.3093362 C31.0253644,41.8212332 29.7882005,40.6666667 28.2965437,40.6666667 L12.370123,40.6666667 C10.8784662,40.6666667 9.64130228,41.8212332 9.53839751,43.3093362 L8.47641287,58.6666667 Z M6.33333333,60.6666667 L7.54316238,43.1713624 C7.71857389,40.6347413 9.82744414,38.6666667 12.370123,38.6666667 L28.2965437,38.6666667 C30.8392225,38.6666667 32.9480928,40.6347413 33.1235043,43.1713624 L34.3333333,60.6666667 L6.33333333,60.6666667 Z" id="Path-4-Copy-2"></path>
                    <path d="M20.1846657,38.1966302 C20.6144186,38.5435176 20.6815944,39.173109 20.3347069,39.6028619 C19.9878195,40.0326148 19.3582281,40.0997905 18.9284752,39.7529031 L15.2507218,36.7842986 C15.125931,36.6835701 15.0271966,36.5543058 14.9628478,36.4074106 L14.0840307,34.4012484 C13.8624273,33.8953726 14.0928757,33.3056341 14.5987516,33.0840307 C15.1046274,32.8624273 15.6943659,33.0928757 15.9159693,33.5987516 L16.6968463,35.3813363 L20.1846657,38.1966302 Z" id="Path-7"></path>
                    <path d="M26.1846657,38.1966302 C26.6144186,38.5435176 26.6815944,39.173109 26.3347069,39.6028619 C25.9878195,40.0326148 25.3582281,40.0997905 24.9284752,39.7529031 L21.2507218,36.7842986 C21.125931,36.6835701 21.0271966,36.5543058 20.9628478,36.4074106 L20.0840307,34.4012484 C19.8624273,33.8953726 20.0928757,33.3056341 20.5987516,33.0840307 C21.1046274,32.8624273 21.6943659,33.0928757 21.9159693,33.5987516 L22.6968463,35.3813363 L26.1846657,38.1966302 Z" id="Path-7-Copy" transform="translate(23.278176, 36.487274) scale(-1, 1) translate(-23.278176, -36.487274) "></path>
                    <path d="M8.80826854,11.3436426 L8.80826854,13.3436426 L3.19633093,13.3436426 C2.74653201,13.3436426 2.38189794,13.7082767 2.38189794,14.1580756 C2.38189794,14.2096582 2.38679844,14.2611242 2.39653338,14.3117798 L5.09232425,28.3392867 C5.2242309,29.025661 5.70092102,29.5954139 6.35324593,29.8463745 L11.0030871,31.635248 L10.2849635,33.5018756 L5.63512234,31.7130021 C4.3382251,31.2140635 3.39051011,30.0813288 3.12826446,28.7167376 L0.432473596,14.6892307 C0.39883257,14.5141801 0.381897938,14.3363294 0.381897938,14.1580756 C0.381897938,12.6037072 1.64196251,11.3436426 3.19633093,11.3436426 L8.80826854,11.3436426 Z" id="Path-8"></path>
                    <path d="M20.5114943,52.9484536 C22.269965,52.9484536 23.6896552,51.538981 23.6896552,49.8075601 C23.6896552,48.0761393 22.269965,46.6666667 20.5114943,46.6666667 C18.7530235,46.6666667 17.3333333,48.0761393 17.3333333,49.8075601 C17.3333333,51.538981 18.7530235,52.9484536 20.5114943,52.9484536 Z M20.5114943,54.9484536 C17.6516749,54.9484536 15.3333333,52.6467972 15.3333333,49.8075601 C15.3333333,46.9683231 17.6516749,44.6666667 20.5114943,44.6666667 C23.3713136,44.6666667 25.6896552,46.9683231 25.6896552,49.8075601 C25.6896552,52.6467972 23.3713136,54.9484536 20.5114943,54.9484536 Z" id="Oval"></path>
                    <path d="M18.8333333,0.166666667 L18.8333333,-1.83333333 C21.5947571,-1.83333333 23.8333333,0.405242918 23.8333333,3.16666667 C23.8333333,5.92809042 21.5947571,8.16666667 18.8333333,8.16666667 L18.8333333,6.16666667 C20.4901876,6.16666667 21.8333333,4.82352092 21.8333333,3.16666667 C21.8333333,1.50981242 20.4901876,0.166666667 18.8333333,0.166666667 Z" id="Rectangle-Copy-4" transform="translate(21.333333, 3.166667) rotate(-90.000000) translate(-21.333333, -3.166667) "></path>
                </g>
            </g>
        </g>
    </g>
</svg>