<?xml version="1.0" encoding="UTF-8"?>
<svg width="60px" height="60px" viewBox="0 0 60 60" version="1.1" xmlns="http://www.w3.org/2000/svg" xmlns:xlink="http://www.w3.org/1999/xlink">
    <!-- Generator: Sketch 52.2 (67145) - http://www.bohemiancoding.com/sketch -->
    <title>icn-electronics</title>
    <desc>Created with Sketch.</desc>
    <g id="Page-1" stroke="none" stroke-width="1" fill="none" fill-rule="evenodd">
        <g id="loading" transform="translate(-965.000000, -686.000000)" fill-rule="nonzero">
            <g id="icn-electronics-copy" transform="translate(965.000000, 686.000000)">
                <rect id="Rectangle-Copy-66" x="0" y="0" width="60" height="60"></rect>
                <g id="Group-4-Copy-2" transform="translate(0.000000, 4.666667)" fill="#FFFFFF">
                    <path d="M45.3333333,38 L45.3333333,40 L5.76578106,40 C2.58142811,40 2.1663276e-15,37.4185719 1.77635684e-15,34.2342189 L0,5.76578106 C-3.89970765e-16,2.58142811 2.58142811,5.84956147e-16 5.76578106,0 L48.2342189,0 C51.4185719,-5.84956147e-16 54,2.58142811 54,5.76578106 L54,24.6666667 L52,24.6666667 L52,5.76578106 C52,3.68599761 50.3140024,2 48.2342189,2 L5.76578106,2 C3.68599761,2 2,3.68599761 2,5.76578106 L2,34.2342189 C2,36.3140024 3.68599761,38 5.76578106,38 L45.3333333,38 Z" id="Combined-Shape"></path>
                    <path d="M24,40 L24,49 L30,49 L30,40 L24,40 Z M22,38 L32,38 L32,51 L22,51 L22,38 Z" id="Rectangle"></path>
                    <polygon id="Line" points="0.333333333 32.3333333 0.333333333 30.3333333 47 30.3333333 47 32.3333333"></polygon>
                    <path d="M25.3333333,6.66666667 C24.7810486,6.66666667 24.3333333,6.21895142 24.3333333,5.66666667 C24.3333333,5.11438192 24.7810486,4.66666667 25.3333333,4.66666667 L29.3333333,4.66666667 C29.8856181,4.66666667 30.3333333,5.11438192 30.3333333,5.66666667 C30.3333333,6.21895142 29.8856181,6.66666667 29.3333333,6.66666667 L25.3333333,6.66666667 Z" id="Line-Copy"></path>
                    <circle id="Oval" cx="27" cy="35" r="1"></circle>
                    <path d="M48.9333333,26.6666667 C48.0496777,26.6666667 47.3333333,27.3830111 47.3333333,28.2666667 L47.3333333,47.7333333 C47.3333333,48.6169889 48.0496777,49.3333333 48.9333333,49.3333333 L56.4,49.3333333 C57.2836556,49.3333333 58,48.6169889 58,47.7333333 L58,28.2666667 C58,27.3830111 57.2836556,26.6666667 56.4,26.6666667 L48.9333333,26.6666667 Z M48.9333333,24.6666667 L56.4,24.6666667 C58.3882251,24.6666667 60,26.2784416 60,28.2666667 L60,47.7333333 C60,49.7215584 58.3882251,51.3333333 56.4,51.3333333 L48.9333333,51.3333333 C46.9451082,51.3333333 45.3333333,49.7215584 45.3333333,47.7333333 L45.3333333,28.2666667 C45.3333333,26.2784416 46.9451082,24.6666667 48.9333333,24.6666667 Z" id="Rectangle"></path>
                    <circle id="Oval-Copy" cx="52.3333333" cy="46.3333333" r="1"></circle>
                    <rect id="Rectangle" x="45.3333333" y="42" width="14.6666667" height="2"></rect>
                    <rect id="Rectangle-Copy-3" x="17" y="49" width="20" height="2" rx="1"></rect>
                </g>
            </g>
        </g>
    </g>
</svg>