<?xml version="1.0" encoding="UTF-8"?>
<svg width="60px" height="60px" viewBox="0 0 60 60" version="1.1" xmlns="http://www.w3.org/2000/svg" xmlns:xlink="http://www.w3.org/1999/xlink">
    <!-- Generator: Sketch 52.2 (67145) - http://www.bohemiancoding.com/sketch -->
    <title>icn-washer</title>
    <desc>Created with Sketch.</desc>
    <g id="Page-1" stroke="none" stroke-width="1" fill="none" fill-rule="evenodd">
        <g id="loading" transform="translate(-1114.000000, -265.000000)" fill-rule="nonzero">
            <g id="icn-washer-copy" transform="translate(1114.000000, 265.000000)">
                <rect id="Rectangle-Copy-12" x="0" y="0" width="60" height="60"></rect>
                <g id="Group-7-Copy-2" transform="translate(4.666667, 0.000000)" fill="#FFFFFF">
                    <path d="M2,58 L48.6666667,58 L48.6666667,3 C48.6666667,2.44771525 48.2189514,2 47.6666667,2 L3,2 C2.44771525,2 2,2.44771525 2,3 L2,58 Z M3,0 L47.6666667,0 C49.3235209,-4.71910575e-15 50.6666667,1.34314575 50.6666667,3 L50.6666667,60 L0,60 L0,3 C-2.02906125e-16,1.34314575 1.34314575,3.04359188e-16 3,0 Z" id="Rectangle"></path>
                    <rect id="Rectangle" x="0" y="12" width="50.6666667" height="2"></rect>
                    <path d="M7.33333333,8.66666667 C8.069713,8.66666667 8.66666667,8.069713 8.66666667,7.33333333 C8.66666667,6.59695367 8.069713,6 7.33333333,6 C6.59695367,6 6,6.59695367 6,7.33333333 C6,8.069713 6.59695367,8.66666667 7.33333333,8.66666667 Z M7.33333333,10.6666667 C5.49238417,10.6666667 4,9.1742825 4,7.33333333 C4,5.49238417 5.49238417,4 7.33333333,4 C9.1742825,4 10.6666667,5.49238417 10.6666667,7.33333333 C10.6666667,9.1742825 9.1742825,10.6666667 7.33333333,10.6666667 Z" id="Oval"></path>
                    <path d="M22,6 L22,8.66666667 L44.6666667,8.66666667 L44.6666667,6 L22,6 Z M20,4 L46.6666667,4 L46.6666667,10.6666667 L20,10.6666667 L20,4 Z" id="Rectangle"></path>
                    <path d="M13.3333333,6.66666667 C12.7810486,6.66666667 12.3333333,6.21895142 12.3333333,5.66666667 C12.3333333,5.11438192 12.7810486,4.66666667 13.3333333,4.66666667 L16,4.66666667 C16.5522847,4.66666667 17,5.11438192 17,5.66666667 C17,6.21895142 16.5522847,6.66666667 16,6.66666667 L13.3333333,6.66666667 Z" id="Line"></path>
                    <path d="M13.3333333,10.3333333 C12.7810486,10.3333333 12.3333333,9.88561808 12.3333333,9.33333333 C12.3333333,8.78104858 12.7810486,8.33333333 13.3333333,8.33333333 L16,8.33333333 C16.5522847,8.33333333 17,8.78104858 17,9.33333333 C17,9.88561808 16.5522847,10.3333333 16,10.3333333 L13.3333333,10.3333333 Z" id="Line-Copy-5"></path>
                    <path d="M25.6349206,51.4 C34.3598688,51.4 41.4285714,44.3685011 41.4285714,35.7 C41.4285714,27.0314989 34.3598688,20 25.6349206,20 C16.9099725,20 9.84126984,27.0314989 9.84126984,35.7 C9.84126984,44.3685011 16.9099725,51.4 25.6349206,51.4 Z M25.6349206,53.4 C15.8077587,53.4 7.84126984,45.4754401 7.84126984,35.7 C7.84126984,25.9245599 15.8077587,18 25.6349206,18 C35.4620826,18 43.4285714,25.9245599 43.4285714,35.7 C43.4285714,45.4754401 35.4620826,53.4 25.6349206,53.4 Z" id="Oval"></path>
                    <path d="M32.7619048,35.6417629 C32.7619048,37.8854761 33.4458635,40.0186157 34.6825397,41.8065291 C35.9192159,40.0186157 36.6031746,37.8854761 36.6031746,35.6417629 C36.6031746,33.3980498 35.9192159,31.2649101 34.6825397,29.4769968 C33.4458635,31.2649101 32.7619048,33.3980498 32.7619048,35.6417629 Z M38.6031746,35.6417629 C38.6031746,39.2654873 37.1011115,42.5402325 34.6825397,44.8835259 C32.2639679,42.5402325 30.7619048,39.2654873 30.7619048,35.6417629 C30.7619048,32.0180386 32.2639679,28.7432934 34.6825397,26.4 C37.1011115,28.7432934 38.6031746,32.0180386 38.6031746,35.6417629 Z" id="Combined-Shape"></path>
                    <path d="M25.6349206,46.6 C31.6948757,46.6 36.6031746,41.7175343 36.6031746,35.7 C36.6031746,29.6824657 31.6948757,24.8 25.6349206,24.8 C19.5749655,24.8 14.6666667,29.6824657 14.6666667,35.7 C14.6666667,41.7175343 19.5749655,46.6 25.6349206,46.6 Z M25.6349206,48.6 C18.4727517,48.6 12.6666667,42.8244733 12.6666667,35.7 C12.6666667,28.5755267 18.4727517,22.8 25.6349206,22.8 C32.7970895,22.8 38.6031746,28.5755267 38.6031746,35.7 C38.6031746,42.8244733 32.7970895,48.6 25.6349206,48.6 Z" id="Oval"></path>
                </g>
            </g>
        </g>
    </g>
</svg>