<?xml version="1.0" encoding="UTF-8"?>
<svg width="60px" height="60px" viewBox="0 0 60 60" version="1.1" xmlns="http://www.w3.org/2000/svg" xmlns:xlink="http://www.w3.org/1999/xlink">
    <!-- Generator: Sketch 52.2 (67145) - http://www.bohemiancoding.com/sketch -->
    <title>icn-setting</title>
    <desc>Created with Sketch.</desc>
    <g id="Page-1" stroke="none" stroke-width="1" fill="none" fill-rule="evenodd">
        <g id="loading" transform="translate(-965.000000, -247.000000)" fill-rule="nonzero">
            <g id="icn-setting-copy" transform="translate(965.000000, 247.000000)">
                <rect id="Rectangle-Copy-56" x="0" y="0" width="60" height="60"></rect>
                <g id="Group-Copy-5">
                    <path d="M23,17 C26.3108505,17 29,19.6892308 29,23.0001089 C29,26.3107692 26.3108505,29 23,29 C19.6894399,29 17,26.3107692 17,23.0001089 C17,19.6892308 19.6894399,17 23,17 Z M23,19 C20.7929599,19 19,20.7928205 19,23.0000726 C19,25.2071795 20.7929599,27 23,27 C25.2072337,27 27,25.2071795 27,23.0000726 C27,20.7928205 25.2072337,19 23,19 Z" id="Combined-Shape" fill="#FFFFFF"></path>
                    <path d="M23,12 C29.0698927,12 34,16.9302565 34,23.0001997 C34,29.0697435 29.0698927,34 23,34 C16.9306398,34 12,29.0697435 12,23.0001997 C12,16.9302565 16.9306398,12 23,12 Z M23,14 C18.0341598,14 14,18.0338462 14,23.0001634 C14,27.9661538 18.0341598,32 23,32 C27.9662758,32 32,27.9661538 32,23.0001634 C32,18.0338462 27.9662758,14 23,14 Z" id="Combined-Shape" fill="#FFFFFF"></path>
                    <path d="M33.1571391,37.675928 C33.1736306,37.7016814 33.1908304,37.7271484 33.2087409,37.7523038 L34.4621247,39.5133186 C34.261743,39.8956485 34.084718,40.286443 33.9297741,40.6857635 C33.9108967,40.6728756 33.8921601,40.6597404 33.8735689,40.6463593 L31.2349452,38.7603751 C30.2441516,39.2845308 29.2060866,39.7129525 28.1293233,40.0463546 L27.5864765,43.2468956 C27.3580975,44.6093195 26.1864343,45.6 24.8050862,45.6 L20.7849955,45.6 C19.4040047,45.6 18.2324606,44.6093195 18.0036052,43.2468956 L17.470046,40.0463546 C16.4318619,39.7227164 15.4221359,39.31287 14.4602766,38.8082421 L11.783431,40.7133969 C11.3071452,41.0560867 10.7448897,41.2370764 10.1546525,41.2370764 C9.40200179,41.2370764 8.69697966,40.9417774 8.16342043,40.4082149 L5.32475675,37.5696533 C4.34384604,36.5979053 4.22013079,35.0643747 5.02017195,33.9402143 L6.89685728,31.3303903 C6.36341713,30.3395907 5.92523414,29.3010432 5.59171497,28.2345137 L2.35309025,27.6818997 C0.990793644,27.4531621 1.81188398e-13,26.2814918 1.81188398e-13,24.9004927 L1.81188398e-13,20.8901418 C1.81188398e-13,19.5087855 0.990793644,18.3371153 2.35309025,18.1082585 L5.51550924,17.5752915 C5.83926455,16.4985218 6.25827702,15.4603315 6.7824296,14.4602443 L4.8772862,11.7835017 C4.07688782,10.6593413 4.21036693,9.12581072 5.18199007,8.15406269 L8.03041761,5.31550106 C8.5540939,4.78193863 9.26852268,4.48663963 10.0211734,4.48663963 C10.6118869,4.48663963 11.1834299,4.66751027 11.6597158,5.01031907 L14.279288,6.89689864 C15.2696053,6.36333621 16.3081466,5.92526967 17.375146,5.59174851 L17.9272804,2.35310436 C18.1561357,0.990680513 19.3277989,1.0658141e-14 20.709147,1.0658141e-14 L24.7194739,1.0658141e-14 C26.1004647,1.0658141e-14 27.2721279,0.990680513 27.5008642,2.35310436 L28.0344234,5.51542324 C29.1488132,5.84894441 30.2251002,6.29641765 31.2539967,6.83962492 L33.9019079,4.95364071 C34.3781937,4.61035562 34.9405682,4.42936591 35.5308055,4.42936591 C36.2833371,4.42936591 36.9884783,4.72478399 37.5220376,5.25822734 L40.3605822,8.09690804 C41.341612,9.06853701 41.4653272,10.6020676 40.665286,11.726228 L38.7791941,14.3649865 C39.3029894,15.355667 39.7317658,16.3938573 40.0652849,17.4701507 L43.2658068,18.013358 C44.6281034,18.2417385 45.618897,19.4134087 45.5997265,20.7948841 L45.5997265,24.8051159 C45.5997265,26.1865913 44.609052,27.3582615 43.2467554,27.586642 L40.0462335,28.1200853 C39.7224782,29.1870911 39.2842952,30.2252814 38.7601426,31.2252496 L40.6462346,33.8736529 C40.661459,33.8950474 40.6763455,33.9165901 40.6908947,33.9382743 C40.2478159,34.1107992 39.8144445,34.3110512 39.3942684,34.5374333 L37.8942907,33.4571701 L36.4184184,31.3847871 L36.9887416,30.2967356 C37.4711371,29.3764306 37.8545154,28.4551895 38.132394,27.5393802 L38.492855,26.3514031 L39.7174217,26.1472998 L42.9160825,25.6141675 C43.3144262,25.5473877 43.5997265,25.2100768 43.5997265,24.8051159 L43.5999191,20.7671331 C43.6052987,20.3794669 43.3299038,20.0520132 42.9351339,19.9858325 L42.9311436,19.9851594 L38.5187411,19.2362661 L38.1549041,18.0621349 C37.8565289,17.0992539 37.4745278,16.1762867 37.0111148,15.2998103 L36.4335047,14.2073473 L37.152096,13.2019939 L39.0358124,10.5665661 C39.2706902,10.2365327 39.234149,9.79617693 38.9463347,9.5110877 L36.1079776,6.67259447 C35.9470635,6.51171536 35.7495638,6.42936591 35.5308055,6.42936591 C35.3597005,6.42936591 35.2065648,6.47865288 35.0621912,6.58267192 L31.4102821,9.1837572 L30.3202394,8.60826771 C29.3891481,8.11669681 28.4329597,7.72235092 27.460983,7.43145198 L26.2692572,7.07478525 L26.0622975,5.8481683 L25.5284687,2.6842483 C25.4615177,2.28546699 25.1240359,2 24.7194739,2 L20.709147,2 C20.3042197,2 19.9666559,2.28550204 19.8988345,2.68922118 L19.1408609,7.13525256 L17.9718327,7.50066574 C17.0277146,7.79577686 16.1069446,8.18400777 15.2279212,8.65760729 L14.1260888,9.25125173 L13.1104796,8.51982407 L10.491369,6.63357684 C10.3589776,6.53828758 10.1969645,6.48663963 10.0211734,6.48663963 C9.80100771,6.48663963 9.60226673,6.56922799 9.44217564,6.73216589 L6.59629452,9.56818535 C6.3124705,9.85204586 6.27463722,10.2978233 6.50671312,10.6237742 L9.12393553,14.3009937 L8.55387612,15.3886715 C8.0947186,16.2647477 7.72173326,17.1835842 7.4308068,18.1511693 L7.07305723,19.3409996 L5.84788498,19.5474797 L2.68443386,20.0806204 C2.28556715,20.1476274 2,20.4852602 2,20.8901418 L2,24.9004927 C2,25.3050091 2.28553211,25.6425599 2.68949274,25.7103944 L7.13511075,26.4689604 L7.50055836,27.6375908 C7.79558656,28.5810337 8.18396418,29.5020998 8.65784942,30.3822834 L9.25048892,31.4830385 L8.52063017,32.4980211 L6.64964559,35.0998761 C6.41474906,35.4299359 6.45128952,35.8704152 6.7389449,36.1554143 L9.57763823,38.9940056 C9.73845577,39.1548241 9.93573452,39.2370764 10.1546525,39.2370764 C10.3259161,39.2370764 10.4795279,39.1876725 10.6237285,39.0839522 L14.3015122,36.4664133 L15.3894417,37.0371825 C16.224159,37.4751068 17.1191159,37.8420315 18.0652649,38.1369792 L19.2404083,38.5033124 L19.4428203,39.7174752 L19.9759725,42.9155841 C20.0429863,43.3145316 20.3804595,43.6 20.7849955,43.6 L24.8050862,43.6 C25.2099205,43.6 25.5472068,43.3146983 25.6146382,42.9124503 L26.3631139,38.4995534 L27.5377644,38.1358421 C28.5016199,37.8374 29.424092,37.4557382 30.2997024,36.9925174 L31.3923145,36.414497 L32.3979332,37.1332737 L33.1571391,37.675928 Z" id="Combined-Shape" fill="#FFFFFF"></path>
                    <path d="M58.2990101,42.8371307 L58.297015,42.8367941 L55.5854682,42.3765779 L55.4035497,41.7895123 C55.2014862,41.1374371 54.9426669,40.5120942 54.628588,39.9180609 L54.339783,39.3718294 L54.6990786,38.8691527 L55.9387408,37.1347927 C56.1827522,36.7919254 56.144393,36.3296612 55.8458909,36.034003 L53.978521,34.1665437 C53.8136278,34.0016863 53.6034643,33.9140565 53.3755299,33.9140565 C53.1967793,33.9140565 53.031416,33.967279 52.8840284,34.0734898 L50.6399826,35.6718194 L50.0949613,35.3840746 C49.4645004,35.051222 48.8164139,34.7839417 48.1569794,34.5865823 L47.5611165,34.4082489 L47.4576366,33.7949405 L47.1064761,31.7136669 C47.0368904,31.2991934 46.6831812,31 46.2628118,31 L43.6244388,31 C43.2038415,31 42.8500819,31.2992 42.7800405,31.7161534 L42.3138745,34.4505339 L41.7293605,34.6332405 C41.0889573,34.8334169 40.4645832,35.0966762 39.868585,35.4177876 L39.3176688,35.7146099 L38.8098642,35.348896 L37.0866923,34.1078914 C36.9455556,34.0063077 36.7743729,33.9517366 36.5928772,33.9517366 C36.3636532,33.9517366 36.151572,34.0398686 35.9890485,34.2053726 L34.1163562,36.0715763 C33.8207429,36.3672275 33.7812725,36.8322952 34.0234544,37.17244 L35.6328777,39.4336933 L35.347848,39.9775322 C35.0363565,40.5718605 34.7834021,41.195005 34.5862733,41.8506307 L34.4073985,42.4455458 L33.7948124,42.5487859 L31.7137575,42.8995089 C31.2992427,42.9691447 31,43.3229464 31,43.7435144 L31,46.3819031 C31,46.8022432 31.2992361,47.1559946 31.7162869,47.2260235 L34.4504577,47.6925613 L34.6331815,48.2768765 C34.8332958,48.9168031 35.0966346,49.5413303 35.4179022,50.1380454 L35.7142219,50.688423 L35.3492926,51.1959143 L34.1174815,52.9089193 C33.8734635,53.2517959 33.9118163,53.7141225 34.2102235,54.0097577 L36.0777802,55.8772473 C36.2426182,56.0420862 36.4526497,56.1296555 36.6806924,56.1296555 C36.8594803,56.1296555 37.0250709,56.0763991 37.172406,55.9704072 L39.4339577,54.3608238 L39.9779224,54.6462084 C40.5443078,54.9433557 41.150742,55.1919885 41.7910607,55.3915982 L42.3786325,55.5747648 L42.4798384,56.1818462 L42.8306607,58.2862492 C42.9002977,58.7008124 43.2539894,59 43.6743392,59 L46.3191357,59 C46.7396976,59 47.0933092,58.7008892 47.1630786,58.2846823 L47.623029,55.5728853 L48.2103543,55.3910297 C48.8631052,55.188916 49.4881679,54.9303038 50.0816846,54.6163179 L50.6279907,54.3273077 L51.1308001,54.6866961 L52.8694161,55.929397 C53.0108152,56.0311696 53.1821381,56.0858651 53.3629961,56.0858651 C53.5909813,56.0858651 53.8010403,55.9982844 53.9658448,55.8334421 L55.8333285,53.9660255 C56.128865,53.670451 56.1683072,53.2053468 55.9263929,52.8653901 L54.3292317,50.6226961 L54.6143933,50.0786703 C54.9407027,49.4561435 55.2005318,48.8317857 55.3892865,48.2097036 L55.569517,47.615715 L56.1818004,47.5136634 L58.2864763,47.1628693 C58.7007169,47.0934245 58.9998201,46.7397945 58.9998201,46.3191552 L58.9999164,43.6669693 C59.0056262,43.2555069 58.7119905,42.9063642 58.2990101,42.8371307 Z" id="Path-Copy-2" stroke="#FFFFFF" stroke-width="2"></path>
                    <path d="M45,40 C47.7590421,40 50,42.2410257 50,45.0000908 C50,47.7589743 47.7590421,50 45,50 C42.2411999,50 40,47.7589743 40,45.0000908 C40,42.2410257 42.2411999,40 45,40 Z M45,42 C43.3447199,42 42,43.3446154 42,45.0000545 C42,46.6553846 43.3447199,48 45,48 C46.6554253,48 48,46.6553846 48,45.0000545 C48,43.3446154 46.6554253,42 45,42 Z" id="Combined-Shape" fill="#FFFFFF"></path>
                </g>
            </g>
        </g>
    </g>
</svg>