<?xml version="1.0" encoding="UTF-8"?>
<svg width="60px" height="60px" viewBox="0 0 60 60" version="1.1" xmlns="http://www.w3.org/2000/svg" xmlns:xlink="http://www.w3.org/1999/xlink">
    <!-- Generator: Sketch 52.2 (67145) - http://www.bohemiancoding.com/sketch -->
    <title>icn-dummy</title>
    <desc>Created with Sketch.</desc>
    <g id="Page-1" stroke="none" stroke-width="1" fill="none" fill-rule="evenodd">
        <g id="loading" transform="translate(-965.000000, -469.000000)" fill-rule="nonzero">
            <g id="icn-dummy-copy" transform="translate(965.000000, 463.000000)">
                <rect id="Rectangle-Copy-63" x="0" y="6" width="60" height="60"></rect>
                <g id="Group-2-Copy-3" transform="translate(0.000000, 0.666667)">
                    <path d="M37.4121926,51.0480179 C37.9955067,51.4368998 38.5721516,51.8066972 39.1407537,52.1567137 C36.2934391,59.8493556 28.8848353,65.3333333 20.1939394,65.3333333 C9.04113463,65.3333333 0,56.3023554 0,45.1620795 C0,36.3521358 5.65428005,28.8613363 13.5357049,26.1129664 C13.8694121,26.6880549 14.2248019,27.2727426 14.6011039,27.8655131 C7.28902052,30.2221934 2,37.075537 2,45.1620795 C2,55.1972823 10.1452012,63.3333333 20.1939394,63.3333333 C28.1799094,63.3333333 34.9636326,58.1947199 37.4121926,51.0480179 Z" id="Combined-Shape" fill="#FFFFFF"></path>
                    <path d="M32.796043,47.6754998 C33.3794631,48.1381349 33.9600049,48.5848775 34.5364581,49.015114 C32.8381532,55.338428 27.0603277,59.9938838 20.1939394,59.9938838 C11.9933477,59.9938838 5.34545455,53.3534588 5.34545455,45.1620795 C5.34545455,38.2191001 10.1214258,32.3903554 16.5707577,30.7749708 C16.989364,31.3579929 17.4256646,31.9460958 17.8790027,32.5379863 C11.8875477,33.6266788 7.34545455,38.8649877 7.34545455,45.1620795 C7.34545455,52.2483858 13.0974142,57.9938838 20.1939394,57.9938838 C26.4290345,57.9938838 31.6261791,53.5585905 32.796043,47.6754998 Z" id="Combined-Shape" fill="#FFFFFF"></path>
                    <path d="M40.0052111,24.6406963 C52.8274891,25.7444019 62.2757832,29.5570634 62.2732322,34.0962228 C62.2701921,39.5055732 48.8465263,43.898261 32.2906356,43.9075656 C15.7347448,43.9168701 2.31600803,39.539268 2.31904813,34.1299175 C2.32150114,29.7651986 11.061613,26.0623901 23.1345622,24.7901365 L23.3441626,26.7791231 C12.0513028,27.9691705 4.32059356,31.3806519 4.31904782,34.1310415 C4.3169696,37.8288897 16.8460087,41.9162453 32.2895115,41.9075659 C47.7348549,41.8988855 60.2711522,37.7965753 60.2732325,34.0950988 C60.2748611,31.1972495 51.8345329,27.6663267 39.833691,26.633328 L40.0052111,24.6406963 Z M62.2732322,34.0962228 C62.2701921,39.5055732 48.8465263,43.898261 32.2906356,43.9075656 C15.7347448,43.9168701 2.31600803,39.539268 2.31904813,34.1299175 C2.32150114,29.7651986 11.061613,26.0623901 23.1345622,24.7901365 L23.3441626,26.7791231 C12.0513028,27.9691705 4.32059356,31.3806519 4.31904782,34.1310415 C4.3169696,37.8288897 16.8460087,41.9162453 32.2895115,41.9075659 C47.7348549,41.8988855 60.2711522,37.7965753 60.2732325,34.0950988 C60.2748611,31.1972495 51.8345329,27.6663267 39.833691,26.633328 L40.0052111,24.6406963 C52.8274891,25.7444019 62.2757832,29.5570634 62.2732322,34.0962228 Z" id="Path" fill="#FFFFFF" transform="translate(32.296140, 34.274138) rotate(45.000000) translate(-32.296140, -34.274138) "></path>
                    <path d="M50.8574242,37.4773512 C50.5126176,34.8286354 51.1470483,31.4900228 52.724778,27.4416957 C53.3426821,25.8562036 55.1818492,21.5599629 55.3932623,20.81128 C55.6640523,19.8523239 55.7491366,18.8698165 55.7491366,16.6859218 C55.7491366,11.2797271 50.6503754,6.01729376 43.68247,6.00432828 C36.6979683,6.00432828 31.5860055,11.2710493 31.5860055,16.6859218 C31.5860055,18.8698165 31.6710899,19.8523239 31.9418799,20.81128 C32.153293,21.5599629 33.9924601,25.8562036 34.6103641,27.4416957 C36.1880938,31.4900228 36.8225245,34.8286354 36.4777179,37.4773512 L43.68247,37.4773512 L50.8574242,37.4773512 Z" id="Combined-Shape" stroke="#FFFFFF" stroke-width="2" transform="translate(43.667571, 21.740840) rotate(45.000000) translate(-43.667571, -21.740840) "></path>
                    <path d="M49.2537314,9.65538567 C49.8059743,9.66218404 50.2481444,10.1153765 50.2413461,10.6676194 C50.2345477,11.2198623 49.7813552,11.6620325 49.2291123,11.6552341 C45.9131396,11.614413 44.215722,13.313254 43.8890571,17.0953407 C43.8415323,17.6455769 43.3569513,18.053105 42.8067151,18.0055802 C42.256479,17.9580554 41.8489509,17.4734744 41.8964757,16.9232382 C42.3097624,12.1382548 44.8447819,9.60110948 49.2537314,9.65538567 Z" id="Path-3" fill="#FFFFFF" transform="translate(46.067065, 13.831941) rotate(45.000000) translate(-46.067065, -13.831941) "></path>
                </g>
            </g>
        </g>
    </g>
</svg>