<?xml version="1.0" encoding="UTF-8"?>
<svg width="60px" height="60px" viewBox="0 0 60 60" version="1.1" xmlns="http://www.w3.org/2000/svg" xmlns:xlink="http://www.w3.org/1999/xlink">
    <!-- Generator: Sketch 52.2 (67145) - http://www.bohemiancoding.com/sketch -->
    <title>icn-joystick</title>
    <desc>Created with Sketch.</desc>
    <g id="Page-1" stroke="none" stroke-width="1" fill="none" fill-rule="evenodd">
        <g id="loading" transform="translate(-965.000000, -320.000000)" fill-rule="nonzero">
            <g id="icn-joystick-copy" transform="translate(965.000000, 320.000000)">
                <rect id="Rectangle-Copy-58" x="0" y="0" width="60" height="60"></rect>
                <g id="Group-9-Copy-2" fill="#FFFFFF">
                    <path d="M29,0 L31,0 L31,3.39455782 C31,4.49818333 31.8783847,5.3877551 32.9555556,5.3877551 L37.8,5.3877551 C40.0086314,5.3877551 41.8,7.17506159 41.8,9.38095238 C41.8,11.5868432 40.0086314,13.3741497 37.8,13.3741497 L22.1555556,13.3741497 C21.0783847,13.3741497 20.2,14.2637214 20.2,15.3673469 C20.2,16.4709724 21.0783847,17.3605442 22.1555556,17.3605442 L27,17.3605442 C29.2086314,17.3605442 31,19.1478507 31,21.3537415 L31,24.7482993 L29,24.7482993 L29,21.3537415 C29,20.2534379 28.1050771,19.3605442 27,19.3605442 L22.1555556,19.3605442 C19.9681099,19.3605442 18.2,17.5699159 18.2,15.3673469 C18.2,13.164778 19.9681099,11.3741497 22.1555556,11.3741497 L37.8,11.3741497 C38.9050771,11.3741497 39.8,10.481256 39.8,9.38095238 C39.8,8.28064875 38.9050771,7.3877551 37.8,7.3877551 L32.9555556,7.3877551 C30.7681099,7.3877551 29,5.59712674 29,3.39455782 L29,0 Z" id="Line"></path>
                    <path d="M18.3846154,29.9984786 L16.3313779,29.9438046 C16.2055463,29.9404539 16.079473,29.9387755 15.9531773,29.9387755 C8.24836449,29.9387755 2,36.205479 2,43.9387755 C2,51.672072 8.24836449,57.9387755 15.9531773,57.9387755 C19.1004418,57.9387755 22.0837453,56.8927237 24.5146042,54.9945301 L24.6797367,54.8655825 L24.8680072,54.7736564 C27.9643131,53.2618356 31.1881815,53.0877842 34.410324,54.260631 L34.7487979,54.3838342 L35.0230207,54.6173838 C37.5270332,56.7499966 40.6929425,57.9387755 44.0468227,57.9387755 C51.7516355,57.9387755 58,51.672072 58,43.9387755 C58,36.3488852 51.9720894,30.1478949 44.4308846,29.9439619 L42.4849498,29.8913389 L18.3846154,29.9984786 Z M44.4849498,27.9446928 C53.0930872,28.1774783 60,35.2491616 60,43.9387755 C60,52.7753315 52.8575193,59.9387755 44.0468227,59.9387755 C40.1111095,59.9387755 36.5082693,58.5093936 33.726241,56.1400008 C31.0151443,55.1531725 28.3549053,55.2967945 25.7455238,56.5708666 C23.0425016,58.6815854 19.644226,59.9387755 15.9531773,59.9387755 C7.14248075,59.9387755 0,52.7753315 0,43.9387755 C0,35.2469109 6.91049112,28.1738152 15.5217391,27.9445133 L44.4849498,27.9446928 Z" id="Combined-Shape"></path>
                    <path d="M15.3333333,37.6666667 L15.3333333,42.3333333 L10.6666667,42.3333333 L10.6666667,45 L15.3333333,45 L15.3333333,49.6666667 L18,49.6666667 L18,45 L22.6666667,45 L22.6666667,42.3333333 L18,42.3333333 L18,37.6666667 L15.3333333,37.6666667 Z M20,40.3333333 L24.6666667,40.3333333 L24.6666667,47 L20,47 L20,51.6666667 L13.3333333,51.6666667 L13.3333333,47 L8.66666667,47 L8.66666667,40.3333333 L13.3333333,40.3333333 L13.3333333,35.6666667 L20,35.6666667 L20,40.3333333 Z" id="Combined-Shape"></path>
                    <path d="M43.5333333,39.3809524 C44.7493749,39.3809524 45.7333333,38.3992251 45.7333333,37.1904762 C45.7333333,35.9817272 44.7493749,35 43.5333333,35 C42.3172918,35 41.3333333,35.9817272 41.3333333,37.1904762 C41.3333333,38.3992251 42.3172918,39.3809524 43.5333333,39.3809524 Z M43.5333333,41.3809524 C41.2137374,41.3809524 39.3333333,39.5048123 39.3333333,37.1904762 C39.3333333,34.8761401 41.2137374,33 43.5333333,33 C45.8529293,33 47.7333333,34.8761401 47.7333333,37.1904762 C47.7333333,39.5048123 45.8529293,41.3809524 43.5333333,41.3809524 Z" id="Oval"></path>
                    <path d="M43.5333333,52.047619 C44.7493749,52.047619 45.7333333,51.0658918 45.7333333,49.8571429 C45.7333333,48.6483939 44.7493749,47.6666667 43.5333333,47.6666667 C42.3172918,47.6666667 41.3333333,48.6483939 41.3333333,49.8571429 C41.3333333,51.0658918 42.3172918,52.047619 43.5333333,52.047619 Z M43.5333333,54.047619 C41.2137374,54.047619 39.3333333,52.171479 39.3333333,49.8571429 C39.3333333,47.5428068 41.2137374,45.6666667 43.5333333,45.6666667 C45.8529293,45.6666667 47.7333333,47.5428068 47.7333333,49.8571429 C47.7333333,52.171479 45.8529293,54.047619 43.5333333,54.047619 Z" id="Oval-Copy-2"></path>
                    <path d="M50.8666667,46.047619 C52.0827082,46.047619 53.0666667,45.0658918 53.0666667,43.8571429 C53.0666667,42.6483939 52.0827082,41.6666667 50.8666667,41.6666667 C49.6506251,41.6666667 48.6666667,42.6483939 48.6666667,43.8571429 C48.6666667,45.0658918 49.6506251,46.047619 50.8666667,46.047619 Z M50.8666667,48.047619 C48.5470707,48.047619 46.6666667,46.171479 46.6666667,43.8571429 C46.6666667,41.5428068 48.5470707,39.6666667 50.8666667,39.6666667 C53.1862626,39.6666667 55.0666667,41.5428068 55.0666667,43.8571429 C55.0666667,46.171479 53.1862626,48.047619 50.8666667,48.047619 Z" id="Oval-Copy-3"></path>
                    <path d="M36.2,46.047619 C37.4160416,46.047619 38.4,45.0658918 38.4,43.8571429 C38.4,42.6483939 37.4160416,41.6666667 36.2,41.6666667 C34.9839584,41.6666667 34,42.6483939 34,43.8571429 C34,45.0658918 34.9839584,46.047619 36.2,46.047619 Z M36.2,48.047619 C33.8804041,48.047619 32,46.171479 32,43.8571429 C32,41.5428068 33.8804041,39.6666667 36.2,39.6666667 C38.5195959,39.6666667 40.4,41.5428068 40.4,43.8571429 C40.4,46.171479 38.5195959,48.047619 36.2,48.047619 Z" id="Oval-Copy-4"></path>
                    <path d="M28.2040816,25.9414966 L28.2040816,23.9414966 L31.7959184,23.9414966 C32.3482031,23.9414966 32.7959184,24.3892118 32.7959184,24.9414966 L32.7959184,28.5414966 C32.7959184,29.0937813 32.3482031,29.5414966 31.7959184,29.5414966 L28.2040816,29.5414966 L28.2040816,27.5414966 L30.7959184,27.5414966 L30.7959184,25.9414966 L28.2040816,25.9414966 Z" id="Rectangle-Copy-5" transform="translate(30.500000, 26.741497) rotate(-90.000000) translate(-30.500000, -26.741497) "></path>
                </g>
            </g>
        </g>
    </g>
</svg>