<?xml version="1.0" encoding="UTF-8"?>
<svg width="60px" height="60px" viewBox="0 0 60 60" version="1.1" xmlns="http://www.w3.org/2000/svg" xmlns:xlink="http://www.w3.org/1999/xlink">
    <!-- Generator: Sketch 52.2 (67145) - http://www.bohemiancoding.com/sketch -->
    <title>icn-ring</title>
    <desc>Created with Sketch.</desc>
    <g id="Page-1" stroke="none" stroke-width="1" fill="none" fill-rule="evenodd">
        <g id="loading" transform="translate(-1114.000000, -558.000000)" fill-rule="nonzero">
            <g id="icn-ring-copy" transform="translate(1114.000000, 557.000000)">
                <rect id="Rectangle-Copy-36" x="0" y="1" width="60" height="60"></rect>
                <g id="Group-Copy-3" transform="translate(11.333333, 0.333333)" fill="#FFFFFF">
                    <path d="M28.9865672,16.2567771 L26.3928368,12 L10.9404966,12 L8.34676615,16.2567771 L18.6666667,23.5508663 L28.9865672,16.2567771 Z M18.6666667,26 L5.66666667,16.8116207 L9.81710903,10 L27.5162243,10 L31.6666667,16.8116207 L18.6666667,26 Z" id="Polygon"></path>
                    <path d="M9,17.5 C8.44771525,17.5 8,17.0522847 8,16.5 C8,15.9477153 8.44771525,15.5 9,15.5 L29,15.5 C29.5522847,15.5 30,15.9477153 30,16.5 C30,17.0522847 29.5522847,17.5 29,17.5 L9,17.5 Z" id="Line-2"></path>
                    <path d="M17.6666791,17.449937 C17.6639592,16.897659 18.1094641,16.4477443 18.6617422,16.4450244 C19.2140202,16.4423046 19.6639349,16.8878095 19.6666548,17.4400875 L19.7010572,24.4256104 C19.703777,24.9778884 19.2582721,25.4278031 18.705994,25.430523 C18.153716,25.4332428 17.7038013,24.9877379 17.7010814,24.4354598 L17.6666791,17.449937 Z" id="Line-3"></path>
                    <path d="M18.3839796,12.514665 C17.915643,12.2219546 17.7732699,11.6050043 18.0659802,11.1366677 C18.3586905,10.6683312 18.9756409,10.525958 19.4439774,10.8186684 L27.4439774,15.8186684 C27.912314,16.1113787 28.0546871,16.7283291 27.7619768,17.1966656 C27.4692665,17.6650021 26.8523161,17.8073753 26.3839796,17.514665 L18.3839796,12.514665 Z" id="Line-3-Copy-2" transform="translate(22.913978, 14.166667) scale(-1, 1) translate(-22.913978, -14.166667) "></path>
                    <path d="M10.1254159,12.3580385 C9.66102107,12.0591139 9.52688089,11.4403213 9.82580543,10.9759265 C10.12473,10.5115316 10.7435226,10.3773915 11.2079174,10.676316 L19.2079174,15.8258054 C19.6723123,16.12473 19.8064524,16.7435226 19.5075279,17.2079174 C19.2086034,17.6723123 18.5898107,17.8064524 18.1254159,17.5075279 L10.1254159,12.3580385 Z" id="Line-3-Copy-3"></path>
                    <path d="M18.6666667,58.6666667 C27.5032227,58.6666667 34.6666667,51.5032227 34.6666667,42.6666667 C34.6666667,33.8301107 27.5032227,26.6666667 18.6666667,26.6666667 C9.83011067,26.6666667 2.66666667,33.8301107 2.66666667,42.6666667 C2.66666667,51.5032227 9.83011067,58.6666667 18.6666667,58.6666667 Z M18.6666667,60.6666667 C8.72554117,60.6666667 0.666666667,52.6077922 0.666666667,42.6666667 C0.666666667,32.7255412 8.72554117,24.6666667 18.6666667,24.6666667 C28.6077922,24.6666667 36.6666667,32.7255412 36.6666667,42.6666667 C36.6666667,52.6077922 28.6077922,60.6666667 18.6666667,60.6666667 Z" id="Oval"></path>
                    <path d="M18.6666667,54.6666667 C25.2940837,54.6666667 30.6666667,49.2940837 30.6666667,42.6666667 C30.6666667,36.0392497 25.2940837,30.6666667 18.6666667,30.6666667 C12.0392497,30.6666667 6.66666667,36.0392497 6.66666667,42.6666667 C6.66666667,49.2940837 12.0392497,54.6666667 18.6666667,54.6666667 Z M18.6666667,56.6666667 C10.9346802,56.6666667 4.66666667,50.3986532 4.66666667,42.6666667 C4.66666667,34.9346802 10.9346802,28.6666667 18.6666667,28.6666667 C26.3986532,28.6666667 32.6666667,34.9346802 32.6666667,42.6666667 C32.6666667,50.3986532 26.3986532,56.6666667 18.6666667,56.6666667 Z" id="Oval"></path>
                    <path d="M17.6666729,1.66666495 C17.6666739,1.1143802 18.1143899,0.666665717 18.6666746,0.666666667 C19.2189594,0.666667617 19.6666739,1.11438364 19.6666729,1.66666839 L19.6666667,5.29487625 C19.6666657,5.847161 19.2189497,6.29487548 18.6666649,6.29487453 C18.1143802,6.29487358 17.6666657,5.84715756 17.6666667,5.29487281 L17.6666729,1.66666495 Z" id="Line-6"></path>
                    <path d="M8.90090778,2.83108007 C8.89144486,2.2788764 9.33142317,1.82355566 9.88362685,1.81409275 C10.4358305,1.80462983 10.8911513,2.24460814 10.9006142,2.79681182 L10.962723,6.42113957 C10.9721859,6.97334324 10.5322076,7.42866398 9.98000392,7.43812689 C9.42780024,7.44758981 8.97247951,7.00761149 8.96301659,6.45540782 L8.90090778,2.83108007 Z" id="Line-6-Copy" transform="translate(9.931815, 4.626110) rotate(-29.000000) translate(-9.931815, -4.626110) "></path>
                    <path d="M25.9009078,2.83108007 C25.8914449,2.2788764 26.3314232,1.82355566 26.8836268,1.81409275 C27.4358305,1.80462983 27.8911513,2.24460814 27.9006142,2.79681182 L27.962723,6.42113957 C27.9721859,6.97334324 27.5322076,7.42866398 26.9800039,7.43812689 C26.4278002,7.44758981 25.9724795,7.00761149 25.9630166,6.45540782 L25.9009078,2.83108007 Z" id="Line-6-Copy-2" transform="translate(26.931815, 4.626110) scale(-1, 1) rotate(-29.000000) translate(-26.931815, -4.626110) "></path>
                </g>
            </g>
        </g>
    </g>
</svg>