<?xml version="1.0" encoding="UTF-8"?>
<svg width="60px" height="60px" viewBox="0 0 60 60" version="1.1" xmlns="http://www.w3.org/2000/svg" xmlns:xlink="http://www.w3.org/1999/xlink">
    <!-- Generator: Sketch 52.2 (67145) - http://www.bohemiancoding.com/sketch -->
    <title>icn-watch</title>
    <desc>Created with Sketch.</desc>
    <g id="Page-1" stroke="none" stroke-width="1" fill="none" fill-rule="evenodd">
        <g id="loading" transform="translate(-1114.000000, -704.000000)" fill-rule="nonzero">
            <g id="icn-watch-copy" transform="translate(1114.000000, 703.000000)">
                <rect id="Rectangle-Copy-40" x="0" y="1" width="60" height="60"></rect>
                <g id="Group-5-Copy-3" transform="translate(11.333333, 0.333333)" fill="#FFFFFF">
                    <path d="M16.6666667,45.3333333 C24.766843,45.3333333 31.3333333,38.766843 31.3333333,30.6666667 C31.3333333,22.5664903 24.766843,16 16.6666667,16 C8.56649034,16 2,22.5664903 2,30.6666667 C2,38.766843 8.56649034,45.3333333 16.6666667,45.3333333 Z M16.6666667,47.3333333 C7.46192084,47.3333333 0,39.8714125 0,30.6666667 C0,21.4619208 7.46192084,14 16.6666667,14 C25.8714125,14 33.3333333,21.4619208 33.3333333,30.6666667 C33.3333333,39.8714125 25.8714125,47.3333333 16.6666667,47.3333333 Z" id="Oval"></path>
                    <g id="Group" transform="translate(4.666667, 18.666667)">
                        <path d="M12,22 C17.5228475,22 22,17.5228475 22,12 C22,6.4771525 17.5228475,2 12,2 C6.4771525,2 2,6.4771525 2,12 C2,17.5228475 6.4771525,22 12,22 Z M12,24 C5.372583,24 0,18.627417 0,12 C0,5.372583 5.372583,0 12,0 C18.627417,0 24,5.372583 24,12 C24,18.627417 18.627417,24 12,24 Z" id="Oval"></path>
                        <path d="M11.0218579,1.33018712 C11.0218579,0.777902372 11.4695732,0.330187122 12.0218579,0.330187122 C12.5741427,0.330187122 13.0218579,0.777902372 13.0218579,1.33018712 L13.0218579,3.71907601 C13.0218579,4.27136076 12.5741427,4.71907601 12.0218579,4.71907601 C11.4695732,4.71907601 11.0218579,4.27136076 11.0218579,3.71907601 L11.0218579,1.33018712 Z" id="Line-2"></path>
                        <path d="M11.0218579,19.7746316 C11.0218579,19.2223468 11.4695732,18.7746316 12.0218579,18.7746316 C12.5741427,18.7746316 13.0218579,19.2223468 13.0218579,19.7746316 L13.0218579,22.1635205 C13.0218579,22.7158052 12.5741427,23.1635205 12.0218579,23.1635205 C11.4695732,23.1635205 11.0218579,22.7158052 11.0218579,22.1635205 L11.0218579,19.7746316 Z" id="Line-2-Copy"></path>
                        <path d="M1.80327869,13.2430556 C1.25099394,13.2430556 0.803278689,12.7953403 0.803278689,12.2430556 C0.803278689,11.6907708 1.25099394,11.2430556 1.80327869,11.2430556 L4.20765027,11.2430556 C4.75993502,11.2430556 5.20765027,11.6907708 5.20765027,12.2430556 C5.20765027,12.7953403 4.75993502,13.2430556 4.20765027,13.2430556 L1.80327869,13.2430556 Z" id="Line-3"></path>
                        <path d="M19.7704918,13.2430556 C19.2182071,13.2430556 18.7704918,12.7953403 18.7704918,12.2430556 C18.7704918,11.6907708 19.2182071,11.2430556 19.7704918,11.2430556 L22.1748634,11.2430556 C22.7271481,11.2430556 23.1748634,11.6907708 23.1748634,12.2430556 C23.1748634,12.7953403 22.7271481,13.2430556 22.1748634,13.2430556 L19.7704918,13.2430556 Z" id="Line-3-Copy"></path>
                        <path d="M8.3941605,10.9356099 C7.96181425,10.5919602 7.88991153,9.96289109 8.2335613,9.53054483 C8.57721106,9.09819858 9.20628013,9.02629587 9.63862639,9.36994563 L12.6440909,11.7588345 C13.0764371,12.1024843 13.1483398,12.7315534 12.8046901,13.1638996 C12.4610403,13.5962459 11.8319712,13.6681486 11.399625,13.3244988 L8.3941605,10.9356099 Z" id="Line-4"></path>
                        <path d="M15.9078217,8.17550119 C16.340168,7.83185142 16.969237,7.90375414 17.3128868,8.33610039 C17.6565366,8.76844664 17.5846338,9.39751571 17.1522876,9.74116548 L12.6440909,13.3244988 C12.2117446,13.6681486 11.5826755,13.5962459 11.2390258,13.1638996 C10.895376,12.7315534 10.9672787,12.1024843 11.399625,11.7588345 L15.9078217,8.17550119 Z" id="Line-4-Copy"></path>
                    </g>
                    <path d="M8.22837613,2.66666667 L6.32721707,19.7770982 C6.26622742,20.326005 5.77180864,20.72154 5.22290181,20.6605504 C4.67399498,20.5995608 4.27845995,20.105142 4.3394496,19.5562351 L6.3394496,1.55623514 C6.3957199,1.04980246 6.82378412,0.666666667 7.33333333,0.666666667 L26,0.666666667 C26.5095492,0.666666667 26.9376134,1.04980246 26.9938837,1.55623514 L28.9938837,19.5562351 C29.0548734,20.105142 28.6593384,20.5995608 28.1104315,20.6605504 C27.5615247,20.72154 27.0671059,20.326005 27.0061163,19.7770982 L25.1049572,2.66666667 L8.22837613,2.66666667 Z" id="Path-4"></path>
                    <path d="M6.32721707,59.7770982 C6.26622742,60.326005 5.77180864,60.72154 5.22290181,60.6605504 C4.67399498,60.5995608 4.27845995,60.105142 4.3394496,59.5562351 L6.3394496,41.5562351 C6.3957199,41.0498025 6.82378412,40.6666667 7.33333333,40.6666667 L26,40.6666667 C26.5095492,40.6666667 26.9376134,41.0498025 26.9938837,41.5562351 L28.9938837,59.5562351 C29.0548734,60.105142 28.6593384,60.5995608 28.1104315,60.6605504 C27.5615247,60.72154 27.0671059,60.326005 27.0061163,59.7770982 L25.1049572,42.6666667 L8.22837613,42.6666667 L6.32721707,59.7770982 Z" id="Path-4-Copy" transform="translate(16.666667, 50.666711) scale(1, -1) translate(-16.666667, -50.666711) "></path>
                    <path d="M33.6666667,33.3333333 L35.6666667,33.3333333 L35.6666667,27.3333333 L33.6666667,27.3333333 L33.6666667,33.3333333 Z M33,25.3333333 L36.3333333,25.3333333 C37.069713,25.3333333 37.6666667,25.930287 37.6666667,26.6666667 L37.6666667,34 C37.6666667,34.7363797 37.069713,35.3333333 36.3333333,35.3333333 L33,35.3333333 C32.2636203,35.3333333 31.6666667,34.7363797 31.6666667,34 L31.6666667,26.6666667 C31.6666667,25.930287 32.2636203,25.3333333 33,25.3333333 Z" id="Rectangle"></path>
                </g>
            </g>
        </g>
    </g>
</svg>