<?xml version="1.0" encoding="UTF-8"?>
<svg width="60px" height="60px" viewBox="0 0 60 60" version="1.1" xmlns="http://www.w3.org/2000/svg" xmlns:xlink="http://www.w3.org/1999/xlink">
    <!-- Generator: Sketch 52.2 (67145) - http://www.bohemiancoding.com/sketch -->
    <title>icn-shirts</title>
    <desc>Created with Sketch.</desc>
    <g id="Page-1" stroke="none" stroke-width="1" fill="none" fill-rule="evenodd">
        <g id="loading" transform="translate(-1114.000000, -487.000000)" fill-rule="nonzero">
            <g id="icn-shirts-copy" transform="translate(1114.000000, 487.000000)">
                <rect id="Rectangle-Copy-34" x="0" y="0" width="60" height="60"></rect>
                <g id="Group-3-Copy-2" transform="translate(0.000000, 2.666667)" fill="#FFFFFF">
                    <path d="M57.6407467,15.494522 L46.0241768,5.11558164 L38.2007418,2.30461063 C38.032888,3.21961184 37.6870152,4.31615312 37.1372985,5.32298227 C35.76133,7.84312627 33.3702105,9.42637861 29.9331468,9.47989634 C26.5462433,9.42648991 24.1477158,7.84563731 22.766979,5.32555624 C22.2948228,4.46379029 21.9760725,3.55385072 21.7770309,2.63981904 C21.7521868,2.5257309 21.7298483,2.41461786 21.7098794,2.30723991 L13.895736,5.14953869 L2.35915372,15.4913144 L12.0155268,25.4521356 L12.0155268,52.6666667 L48.0014922,52.6666667 L48.0014922,25.4531625 L48.5642762,24.8716092 L57.6407467,15.494522 Z M59.6762475,14.6359389 C60.124077,15.1099345 60.1049453,15.858948 59.633569,16.3091254 L50.0014922,26.2624399 L50.0014922,53.4831572 C50.0014922,54.1367503 49.4743397,54.6666667 48.8241554,54.6666667 L11.2155268,54.6666667 C10.5653425,54.6666667 10.0155268,54.1367503 10.0155268,53.4831572 L10.0155268,26.2624399 L0.366430975,16.3091254 C0.351861431,16.2952192 0.337586222,16.2808691 0.323752513,16.2662232 C-0.124076999,15.7923756 -0.104945274,15.0432141 0.366430975,14.5930367 L12.6696013,3.56272867 C12.7826256,3.45917159 12.9144873,3.37884089 13.0581224,3.32602678 L22.0058827,0.0713757942 C22.1114015,0.0340952466 22.2216296,0.0122003218 22.3331823,0.00613483583 C22.9824836,-0.0287786929 23.5370093,0.471993743 23.5717407,1.1246992 C23.5835141,1.38507128 23.9602619,7.38546419 29.9646799,7.48014494 C35.9337778,7.38546419 36.322299,1.38507128 36.322299,1.1246992 C36.3281857,1.00694001 36.3514381,0.890808149 36.3914675,0.780002077 C36.6133955,0.165612734 37.2887454,-0.151715737 37.8999304,0.0713757942 L46.859464,3.29052149 C47.0030991,3.3433356 47.1349608,3.42366631 47.2479851,3.52722338 L59.633569,14.5930367 C59.6481386,14.606943 59.6624138,14.621293 59.6762475,14.6359389 Z" id="Path"></path>
                    <rect id="Rectangle" x="10" y="17" width="2" height="14" rx="1"></rect>
                    <rect id="Rectangle-Copy" x="48" y="17" width="2" height="14" rx="1"></rect>
                    <rect id="Rectangle-Copy-2" x="22.2" y="0.600732601" width="16" height="2"></rect>
                    <path d="M34.4,20.021978 L34.4,26.5640567 L37.8,28.833491 L41.2,26.5640567 L41.2,20.021978 L34.4,20.021978 Z M43.2,18.021978 L43.2,27.6336996 L37.8,31.2380952 L32.4,27.6336996 L32.4,18.021978 L43.2,18.021978 Z" id="Polygon"></path>
                </g>
            </g>
        </g>
    </g>
</svg>