<?xml version="1.0" encoding="UTF-8"?>
<svg width="61px" height="60px" viewBox="0 0 61 60" version="1.1" xmlns="http://www.w3.org/2000/svg" xmlns:xlink="http://www.w3.org/1999/xlink">
    <!-- Generator: Sketch 52.2 (67145) - http://www.bohemiancoding.com/sketch -->
    <title>icn-cosmetics</title>
    <desc>Created with Sketch.</desc>
    <g id="Page-1" stroke="none" stroke-width="1" fill="none" fill-rule="evenodd">
        <g id="loading" transform="translate(-965.000000, -392.000000)" fill-rule="nonzero">
            <g id="Group-15-Copy-2" transform="translate(964.333333, 392.000000)">
                <g id="icn-cosmetics-copy" transform="translate(0.666667, 0.000000)">
                    <rect id="Rectangle-Copy-60" x="0" y="0" width="60" height="60"></rect>
                    <g id="Group-15-Copy-2" transform="translate(1.333333, 0.000000)" fill="#FFFFFF">
                        <path d="M14,10.5580667 L14,10.2775557 C14,9.83291507 13.7589658,9.42321634 13.3703065,9.20723204 L12.7914126,8.88553129 C17.4337881,3.44650215 24.3265679,0 32.0212766,0 C46.0007395,0 57.3333333,11.3756222 57.3333333,25.4081633 C57.3333333,39.4407044 46.0007395,50.8163265 32.0212766,50.8163265 C26.8354891,50.8163265 22.013936,49.2509327 18,46.5652113 L18,44.1106339 C21.9022262,47.0649174 26.7583107,48.8163265 32.0212766,48.8163265 C44.8944698,48.8163265 55.3333333,38.337828 55.3333333,25.4081633 C55.3333333,12.4784985 44.8944698,2 32.0212766,2 C24.7613912,2 18.2757292,5.33262171 14,10.5580667 Z" id="Combined-Shape"></path>
                        <path d="M14.5212926,22 L14,22 L14,17.1085578 C17.1338859,10.2633065 24.0246075,5.51020408 32.0212766,5.51020408 C42.9690488,5.51020408 51.8439716,14.4188239 51.8439716,25.4081633 C51.8439716,36.3975027 42.9690488,45.3061224 32.0212766,45.3061224 C26.5450938,45.3061224 21.5875583,43.0770982 18,39.473612 L18,36.4582857 C21.263353,40.6282116 26.3314026,43.3061224 32.0212766,43.3061224 C41.862779,43.3061224 49.8439716,35.2946263 49.8439716,25.4081633 C49.8439716,15.5217002 41.862779,7.51020408 32.0212766,7.51020408 C23.3399354,7.51020408 16.1061527,13.7441707 14.5212926,22 Z" id="Combined-Shape"></path>
                        <path d="M56.6666667,48.5306122 C54.9597493,52.5012528 51.6348984,54.6849886 46.7289074,55.0818195 C44.7066323,55.1087813 34.4638218,55.1087813 16.0004761,55.0818195 L16.0004761,46.1798098 L21.2496733,46.1798098 L21.2496733,48.1798098 L18.0004761,48.1798098 L18.0004761,53.0846775 C34.9915192,53.1084433 44.5513396,53.1077877 46.6336873,53.0828626 C50.4167231,52.7622846 52.9540362,51.2867526 54.4318249,48.5306122 L42.2666632,48.5306122 L42.2666632,46.5306122 L57.3333333,46.5306122 C57.1396891,47.258316 56.934523,47.8335883 56.6666667,48.5306122 Z" id="Path-16"></path>
                        <path d="M14.7755102,30 L3.2244898,30 L2,30 L2,58 L16,58 L16,30 L14.7755102,30 Z M2,28 L2,23.2244898 C2,22.5482228 2.54822276,22 3.2244898,22 L4,22 L4,6.08133054 C4,5.4050635 4.54822276,4.85684075 5.2244898,4.85684075 C5.43263574,4.85684075 5.6373462,4.90989997 5.81928608,5.01100693 L13.3703065,9.20723204 C13.7589658,9.42321634 14,9.83291507 14,10.2775557 L14,22 L14.7755102,22 C15.4517772,22 16,22.5482228 16,23.2244898 L16,28 L16.7755102,28 C17.4517772,28 18,28.5482228 18,29.2244898 L18,58.7755102 C18,59.4517772 17.4517772,60 16.7755102,60 L1.2244898,60 C0.548222755,60 8.28188267e-17,59.4517772 0,58.7755102 L0,29.2244898 C-8.28188267e-17,28.5482228 0.548222755,28 1.2244898,28 L2,28 Z M4,28 L14,28 L14,24 L12.7755102,24 L5.2244898,24 L4,24 L4,28 Z M6,22 L12,22 L12,10.7338044 L6,7.39950655 L6,22 Z" id="Combined-Shape"></path>
                        <path d="M39.8518383,20.4166833 C40.2416219,20.0254197 40.8747858,20.02422 41.2660494,20.4140036 C41.6573129,20.8037872 41.6585127,21.4369511 41.268729,21.8282146 L28.1833031,34.9633242 C27.7935195,35.3545878 27.1603556,35.3557875 26.7690921,34.9660039 C26.3778285,34.5762203 26.3766288,33.9430565 26.7664124,33.5517929 L39.8518383,20.4166833 Z" id="Line-2"></path>
                        <path d="M41.6389258,25.9697493 C42.0287094,25.5784857 42.6618732,25.577286 43.0531368,25.9670696 C43.4444004,26.3568532 43.4456001,26.990017 43.0558165,27.3812806 L34.892523,35.5755691 C34.5027393,35.9668327 33.8695755,35.9680324 33.4783119,35.5782488 C33.0870484,35.1884652 33.0858486,34.5553014 33.4756322,34.1640378 L41.6389258,25.9697493 Z" id="Line-2-Copy"></path>
                    </g>
                </g>
            </g>
        </g>
    </g>
</svg>