<?xml version="1.0" encoding="UTF-8"?>
<svg width="60px" height="60px" viewBox="0 0 60 60" version="1.1" xmlns="http://www.w3.org/2000/svg" xmlns:xlink="http://www.w3.org/1999/xlink">
    <!-- Generator: Sketch 52.2 (67145) - http://www.bohemiancoding.com/sketch -->
    <title>icn-robot</title>
    <desc>Created with Sketch.</desc>
    <g id="Page-1" stroke="none" stroke-width="1" fill="none" fill-rule="evenodd">
        <g id="loading" transform="translate(-1114.000000, -777.000000)" fill-rule="nonzero">
            <g id="icn-robot-copy" transform="translate(1114.000000, 777.000000)">
                <rect id="Rectangle-Copy-42" x="0" y="0" width="60" height="60"></rect>
                <g id="Group-11-Copy-2" transform="translate(7.333333, 0.000000)">
                    <circle id="Oval" stroke="#FFFFFF" stroke-width="2" cx="22.5" cy="3.5" r="2.5"></circle>
                    <circle id="Oval-Copy-12" stroke="#FFFFFF" stroke-width="2" cx="41.1666667" cy="31.5" r="2.5"></circle>
                    <circle id="Oval-Copy-13" stroke="#FFFFFF" stroke-width="2" cx="4.16666667" cy="31.5" r="2.5"></circle>
                    <circle id="Oval-Copy-10" stroke="#FFFFFF" stroke-width="2" cx="17.1666667" cy="17.5" r="2.5"></circle>
                    <circle id="Oval-Copy-11" stroke="#FFFFFF" stroke-width="2" cx="28.1666667" cy="17.5" r="2.5"></circle>
                    <path d="M34.1666667,21.5 C34.1666667,19.8431458 35.5098124,18.5 37.1666667,18.5 C38.8235209,18.5 40.1666667,19.8431458 40.1666667,21.5 L42.1666667,21.5 C42.1666667,18.7385763 39.9280904,16.5 37.1666667,16.5 C34.4052429,16.5 32.1666667,18.7385763 32.1666667,21.5 L34.1666667,21.5 Z" id="Path" fill="#FFFFFF" transform="translate(37.166667, 19.000000) rotate(90.000000) translate(-37.166667, -19.000000) "></path>
                    <path d="M5.16666667,21.5 C5.16666667,19.8431458 6.50981242,18.5 8.16666667,18.5 C9.82352092,18.5 11.1666667,19.8431458 11.1666667,21.5 L13.1666667,21.5 C13.1666667,18.7385763 10.9280904,16.5 8.16666667,16.5 C5.40524292,16.5 3.16666667,18.7385763 3.16666667,21.5 L5.16666667,21.5 Z" id="Path-Copy-5" fill="#FFFFFF" transform="translate(8.166667, 19.000000) scale(-1, 1) rotate(90.000000) translate(-8.166667, -19.000000) "></path>
                    <rect id="Rectangle" stroke="#FFFFFF" stroke-width="2" x="10.6666667" y="10" width="24" height="18" rx="6"></rect>
                    <path d="M11.6666667,34 L11.6666667,46.6086957 C11.6666667,52.912995 16.6050255,58 22.6666667,58 C28.7283079,58 33.6666667,52.912995 33.6666667,46.6086957 L33.6666667,34 L11.6666667,34 Z M35.6666667,46.6086957 C35.6666667,54.0045088 29.8463684,60 22.6666667,60 C15.4869649,60 9.66666667,54.0045088 9.66666667,46.6086957 L9.66666667,32 L35.6666667,32 L35.6666667,46.6086957 Z" id="Combined-Shape" fill="#FFFFFF"></path>
                    <path d="M39.6666667,44 L39.6666667,47.5 C39.6666667,48.3284271 40.3382395,49 41.1666667,49 C41.9950938,49 42.6666667,48.3284271 42.6666667,47.5 L42.6666667,44 L44.6666667,44 L44.6666667,47.5 C44.6666667,49.4329966 43.0996633,51 41.1666667,51 C39.23367,51 37.6666667,49.4329966 37.6666667,47.5 L37.6666667,44 L39.6666667,44 Z" id="Path" fill="#FFFFFF" transform="translate(41.166667, 47.500000) scale(1, -1) translate(-41.166667, -47.500000) "></path>
                    <path d="M2.66666667,44 L2.66666667,47.5 C2.66666667,48.3284271 3.33823954,49 4.16666667,49 C4.99509379,49 5.66666667,48.3284271 5.66666667,47.5 L5.66666667,44 L7.66666667,44 L7.66666667,47.5 C7.66666667,49.4329966 6.09966329,51 4.16666667,51 C2.23367004,51 0.666666667,49.4329966 0.666666667,47.5 L0.666666667,44 L2.66666667,44 Z" id="Path-Copy" fill="#FFFFFF" transform="translate(4.166667, 47.500000) scale(1, -1) translate(-4.166667, -47.500000) "></path>
                    <polygon id="Line" fill="#FFFFFF" points="5.66666667 45.2959149 3.66666667 45.2959149 3.66666667 34 5.66666667 34"></polygon>
                    <polygon id="Line-Copy-4" fill="#FFFFFF" points="23.7012987 10.8431799 21.7012987 10.8431799 21.7012987 5.84317987 23.7012987 5.84317987"></polygon>
                    <polygon id="Line-Copy-2" fill="#FFFFFF" points="11.8373546 32.6124515 10.8450768 34.3489378 5.63561792 31.3721042 6.6278958 29.6356179"></polygon>
                    <polygon id="Line-Copy-6" fill="#FFFFFF" transform="translate(36.612612, 32.242278) scale(-1, 1) translate(-36.612612, -32.242278) " points="39.3060869 32.5972389 38.333262 34.3446975 33.9191367 31.8873169 34.8919616 30.1398582"></polygon>
                    <polygon id="Line-Copy" fill="#FFFFFF" points="41.6666667 45.2959149 39.6666667 45.2959149 39.6666667 34 41.6666667 34"></polygon>
                    <path d="M20,44.1356982 C19.1251324,44.1356982 18.672051,43.0915989 19.2696427,42.4526329 L24.0727946,37.3169347 C24.4500411,36.9135695 25.082852,36.8923961 25.4862172,37.2696427 C25.8895824,37.6468892 25.9107558,38.2797001 25.5335092,38.6830653 L22.3044409,42.1356982 L24.8031519,42.1356982 C25.6567095,42.1356982 26.1178991,43.136195 25.5635089,43.7852036 L20.760357,49.4081138 C20.4016451,49.8280474 19.7704282,49.8776774 19.3504947,49.5189655 C18.9305611,49.1602536 18.8809311,48.5290367 19.239643,48.1091031 L22.6337692,44.1356982 L20,44.1356982 Z" id="Path-5" fill="#FFFFFF"></path>
                    <rect id="Rectangle" fill="#FFFFFF" x="16.6666667" y="23" width="12" height="2" rx="1"></rect>
                </g>
            </g>
        </g>
    </g>
</svg>