<?xml version="1.0" encoding="UTF-8"?>
<svg width="60px" height="60px" viewBox="0 0 60 60" version="1.1" xmlns="http://www.w3.org/2000/svg" xmlns:xlink="http://www.w3.org/1999/xlink">
    <!-- Generator: Sketch 52.2 (67145) - http://www.bohemiancoding.com/sketch -->
    <title>icn-docs</title>
    <desc>Created with Sketch.</desc>
    <g id="Page-1" stroke="none" stroke-width="1" fill="none" fill-rule="evenodd">
        <g id="loading" transform="translate(-1114.000000, -631.000000)" fill-rule="nonzero">
            <g id="icn-docs-copy" transform="translate(1114.000000, 631.000000)">
                <rect id="Rectangle-Copy-38" x="0" y="0" width="60" height="60"></rect>
                <g id="Group-13-Copy-2" transform="translate(0.000000, 6.000000)">
                    <path d="M2.91062795,46.6666667 L46.3508713,46.6666667 C46.5164471,46.6666667 46.6649081,46.5646536 46.7242754,46.4100869 L56.8806506,19.9672885 C56.8982313,19.921516 56.9072465,19.8729011 56.9072465,19.8238683 C56.9072465,19.6029544 56.7281604,19.4238683 56.5072465,19.4238683 L13.6491287,19.4238683 C13.4835529,19.4238683 13.3350919,19.5258814 13.2757246,19.6804481 L2.91062795,46.6666667 Z M13.6491287,17.4238683 L56.5072465,17.4238683 C57.8327299,17.4238683 58.9072465,18.4983849 58.9072465,19.8238683 C58.9072465,20.1180648 58.8531555,20.4097542 58.7476712,20.6843897 L48.591296,47.1271881 C48.2350922,48.0545884 47.3443261,48.6666667 46.3508713,48.6666667 L1.42108547e-14,48.6666667 L11.408704,18.9633469 C11.7649078,18.0359466 12.6556739,17.4238683 13.6491287,17.4238683 Z" id="Rectangle" fill="#FFFFFF"></path>
                    <polygon id="Path" fill="#FFFFFF" points="6.8 14.4270114 12.1799252 9.20987654 52.8209989 9.20987654 52.8209989 18.7083093 54.8209989 18.7083093 54.8209989 7.20987654 11.3694375 7.20987654 4.8 13.5805304 4.8 36.8946944 6.8 36.1675444"></polygon>
                    <path d="M20.3,13.81893 C20.3,13.2666453 20.7477153,12.81893 21.3,12.81893 C21.8522847,12.81893 22.3,13.2666453 22.3,13.81893 L22.3,17.81893 C22.3,18.3712148 21.8522847,18.81893 21.3,18.81893 C20.7477153,18.81893 20.3,18.3712148 20.3,17.81893 L20.3,13.81893 Z" id="Line-2" fill="#FFFFFF"></path>
                    <path d="M28.1,13.81893 C28.1,13.2666453 28.5477153,12.81893 29.1,12.81893 C29.6522847,12.81893 30.1,13.2666453 30.1,13.81893 L30.1,17.81893 C30.1,18.3712148 29.6522847,18.81893 29.1,18.81893 C28.5477153,18.81893 28.1,18.3712148 28.1,17.81893 L28.1,13.81893 Z" id="Line-2-Copy" fill="#FFFFFF"></path>
                    <path d="M35.9,13.81893 C35.9,13.2666453 36.3477153,12.81893 36.9,12.81893 C37.4522847,12.81893 37.9,13.2666453 37.9,13.81893 L37.9,17.81893 C37.9,18.3712148 37.4522847,18.81893 36.9,18.81893 C36.3477153,18.81893 35.9,18.3712148 35.9,17.81893 L35.9,13.81893 Z" id="Line-2-Copy-2" fill="#FFFFFF"></path>
                    <path d="M43.7,13.81893 C43.7,13.2666453 44.1477153,12.81893 44.7,12.81893 C45.2522847,12.81893 45.7,13.2666453 45.7,13.81893 L45.7,17.81893 C45.7,18.3712148 45.2522847,18.81893 44.7,18.81893 C44.1477153,18.81893 43.7,18.3712148 43.7,17.81893 L43.7,13.81893 Z" id="Line-2-Copy-3" fill="#FFFFFF"></path>
                    <path d="M7.21421356,14.2098765 L11.8,14.2098765 L11.8,9.62409011 L7.21421356,14.2098765 Z" id="Path-10" stroke="#FFFFFF" stroke-width="2"></path>
                    <path d="M25.3196524,8.45324279 L27,7.3686083 L21.6,0 L3.59571566,0.0214268153 C1.6091649,0.0237910002 1.08898515e-15,1.6348721 1.33226763e-15,3.62142427 L0,48.6666667 L2,45.666715 L2,3.62142427 C2,2.73851219 2.7151844,2.02247615 3.59809585,2.0214254 L20.5113418,2.00129702 L25.3196524,8.45324279 Z" id="Path" fill="#FFFFFF"></path>
                </g>
            </g>
        </g>
    </g>
</svg>