<?xml version="1.0" encoding="UTF-8"?>
<svg width="60px" height="60px" viewBox="0 0 60 60" version="1.1" xmlns="http://www.w3.org/2000/svg" xmlns:xlink="http://www.w3.org/1999/xlink">
    <!-- Generator: Sketch 52.2 (67145) - http://www.bohemiancoding.com/sketch -->
    <title>icn-shoes</title>
    <desc>Created with Sketch.</desc>
    <g id="Page-1" stroke="none" stroke-width="1" fill="none" fill-rule="evenodd">
        <g id="loading" transform="translate(-965.000000, -174.000000)" fill-rule="nonzero">
            <g id="icn-shoes-copy" transform="translate(965.000000, 174.000000)">
                <rect id="Rectangle-Copy-44" x="0" y="0" width="60" height="60"></rect>
                <g id="Group-14-Copy" transform="translate(0.000000, 5.333333)" fill="#FFFFFF">
                    <path d="M57.7932987,42 C56.7724045,37.4506025 51.8840667,35.2801087 41.2320502,34.2492077 C39.7950905,35.6638001 38.4382591,36.5534949 37.0895943,36.8882483 L36.953319,36.9220733 L36.8136543,36.9365259 C34.0567144,37.221816 32.3312018,36.4020972 30.9243805,34.2058631 C30.8214615,34.045193 27.2512451,26.9383184 25.016569,23.4647386 C21.1291266,17.4220996 15.7540297,10.4581204 8.89382401,2.58204874 C4.30576197,5.69308401 2.00765291,10.750161 1.9997267,17.9796965 C11.3651613,21.0629765 18.6868215,28.8125485 25.2580324,42 L57.7932987,42 Z M0.0279517617,19.4747423 C-0.330425629,10.0666812 2.7573399,3.57510046 9.29124836,0 C16.7423882,8.46520608 22.5448254,15.9260909 26.6985601,22.3826546 C32.9291621,32.0675 31.8990909,35.4344087 36.6077922,34.9471489 C37.7186108,34.6714316 39.0033772,33.7456202 40.4620912,32.1697148 C52.6628409,33.2417687 60,35.799552 60,44 L24.0119879,44 C17.4149804,30.3665094 10.0043257,22.194016 0.0279517617,19.4747423 Z" id="Path-12"></path>
                    <path d="M26,47 L58,47 L58,44 L26,44 L26,47 Z M25.1996004,42 L58.8003996,42 C59.4629206,42 60,42.5370794 60,43.1996004 L60,47.8003996 C60,48.4629206 59.4629206,49 58.8003996,49 L25.1996004,49 C24.5370794,49 24,48.4629206 24,47.8003996 L24,43.1996004 C24,42.5370794 24.5370794,42 25.1996004,42 Z" id="Rectangle"></path>
                    <path d="M8.66666667,47 L8.66666667,22.6064664 L10.6666667,22.6064664 L10.6666667,49 L3.58140787,49 L0,19 L2.09892039,19.709658 L5.35684858,47 L8.66666667,47 Z M5.35684858,47 L8.66666667,47 L8.66666667,22.6064664 L10.6666667,22.6064664 L10.6666667,49 L3.58140787,49 L0,19 L2.09892039,19.709658 L5.35684858,47 Z" id="Path-14"></path>
                </g>
            </g>
        </g>
    </g>
</svg>