<?xml version="1.0" encoding="UTF-8"?>
<svg width="60px" height="60px" viewBox="0 0 60 60" version="1.1" xmlns="http://www.w3.org/2000/svg" xmlns:xlink="http://www.w3.org/1999/xlink">
    <!-- Generator: Sketch 52.2 (67145) - http://www.bohemiancoding.com/sketch -->
    <title>icn-dispenser</title>
    <desc>Created with Sketch.</desc>
    <g id="Page-1" stroke="none" stroke-width="1" fill="none" fill-rule="evenodd">
        <g id="loading" transform="translate(-965.000000, -613.000000)" fill-rule="nonzero">
            <g id="icn-dispenser-copy" transform="translate(965.000000, 613.000000)">
                <rect id="Rectangle-Copy-69" x="0" y="0" width="60" height="60"></rect>
                <g id="Group-12-Copy-2" transform="translate(6.000000, 0.000000)" fill="#FFFFFF">
                    <path d="M4,22 C2.8954305,22 2,22.8954305 2,24 L2,56 C2,57.1045695 2.8954305,58 4,58 L14,58 C15.1045695,58 16,57.1045695 16,56 L16,24 C16,22.8954305 15.1045695,22 14,22 L4,22 Z M4,20 L14,20 C16.209139,20 18,21.790861 18,24 L18,56 C18,58.209139 16.209139,60 14,60 L4,60 C1.790861,60 2.705415e-16,58.209139 0,56 L0,24 C-2.705415e-16,21.790861 1.790861,20 4,20 Z" id="Rectangle"></path>
                    <path d="M2,30 L2,36.6666667 L16,36.6666667 L16,30 L2,30 Z M0,28 L18,28 L18,38.6666667 L0,38.6666667 L0,28 Z" id="Rectangle"></path>
                    <path d="M5,18 L5,20 L13,20 L13,18 L5,18 Z M4.2,16 L13.8,16 C14.4627417,16 15,16.5372583 15,17.2 L15,20.8 C15,21.4627417 14.4627417,22 13.8,22 L4.2,22 C3.5372583,22 3,21.4627417 3,20.8 L3,17.2 C3,16.5372583 3.5372583,16 4.2,16 Z" id="Rectangle"></path>
                    <path d="M29,14 L41,14 L41,11 L29,11 L29,14 Z M28.2,9 L41.8,9 C42.4627417,9 43,9.5372583 43,10.2 L43,14.8 C43,15.4627417 42.4627417,16 41.8,16 L28.2,16 C27.5372583,16 27,15.4627417 27,14.8 L27,10.2 C27,9.5372583 27.5372583,9 28.2,9 Z" id="Rectangle-Copy-3"></path>
                    <path d="M32.6666667,9 L36.6666667,9 L36.6666667,6 L32.6666667,6 L32.6666667,9 Z M30.6666667,4 L38.6666667,4 L38.6666667,11 L30.6666667,11 L30.6666667,4 Z" id="Rectangle-Copy-4"></path>
                    <path d="M7,16 L11,16 L11,9 L7,9 L7,16 Z M6.2,7 L11.8,7 C12.4627417,7 13,7.5372583 13,8.2 L13,16.8 C13,17.4627417 12.4627417,18 11.8,18 L6.2,18 C5.5372583,18 5,17.4627417 5,16.8 L5,8.2 C5,7.5372583 5.5372583,7 6.2,7 Z" id="Rectangle-Copy-2"></path>
                    <path d="M26.4,16 C24.5222319,16 23,17.5222319 23,19.4 L23,54.6 C23,56.4777681 24.5222319,58 26.4,58 L43.6,58 C45.4777681,58 47,56.4777681 47,54.6 L47,19.4 C47,17.5222319 45.4777681,16 43.6,16 L26.4,16 Z M26.4,14 L43.6,14 C46.5823376,14 49,16.4176624 49,19.4 L49,54.6 C49,57.5823376 46.5823376,60 43.6,60 L26.4,60 C23.4176624,60 21,57.5823376 21,54.6 L21,19.4 C21,16.4176624 23.4176624,14 26.4,14 Z" id="Rectangle-Copy"></path>
                    <path d="M29.3333333,4 L42.7499031,4 L39.2359399,2 L29.3333333,2 L29.3333333,4 Z M27.3333333,1.2 C27.3333333,0.5372583 27.8705916,-1.0030093e-16 28.5333333,-2.22044605e-16 L39.447658,-6.66133815e-16 C39.6557933,-7.04367655e-16 39.8603499,0.0541354015 40.0412386,0.157089663 L46.3663724,3.75708966 C46.7412668,3.97046377 46.9727917,4.3686367 46.9727917,4.8 C46.9727917,5.4627417 46.4355334,6 45.7727917,6 L28.5333333,6 C27.8705916,6 27.3333333,5.4627417 27.3333333,4.8 L27.3333333,1.2 Z" id="Path-9"></path>
                    <path d="M35,29 C32.2385763,29 30,31.2385763 30,34 L30,40 C30,42.7614237 32.2385763,45 35,45 C37.7614237,45 40,42.7614237 40,40 L40,34 C40,31.2385763 37.7614237,29 35,29 Z M35,27 C38.8659932,27 42,30.1340068 42,34 L42,40 C42,43.8659932 38.8659932,47 35,47 C31.1340068,47 28,43.8659932 28,40 L28,34 C28,30.1340068 31.1340068,27 35,27 Z" id="Rectangle"></path>
                    <circle id="Oval" cx="9" cy="11" r="1"></circle>
                </g>
            </g>
        </g>
    </g>
</svg>