<?xml version="1.0" encoding="UTF-8"?>
<svg width="60px" height="60px" viewBox="0 0 60 60" version="1.1" xmlns="http://www.w3.org/2000/svg" xmlns:xlink="http://www.w3.org/1999/xlink">
    <!-- Generator: Sketch 52.2 (67145) - http://www.bohemiancoding.com/sketch -->
    <title>icn-lamp</title>
    <desc>Created with Sketch.</desc>
    <g id="Page-1" stroke="none" stroke-width="1" fill="none" fill-rule="evenodd">
        <g id="loading" transform="translate(-1114.000000, -192.000000)" fill-rule="nonzero">
            <g id="icn-lamp-copy" transform="translate(1114.000000, 191.000000)">
                <rect id="Rectangle" x="0" y="1" width="60" height="60"></rect>
                <g id="Group-6-Copy-2" transform="translate(3.333333, 0.333333)" fill="#FFFFFF">
                    <g id="Group" transform="translate(10.000000, 46.666667)">
                        <path d="M16,7.33333333 C16,6.78104858 16.4477153,6.33333333 17,6.33333333 C17.5522847,6.33333333 18,6.78104858 18,7.33333333 L18,12.6666667 C18,13.2189514 17.5522847,13.6666667 17,13.6666667 C16.4477153,13.6666667 16,13.2189514 16,12.6666667 L16,7.33333333 Z" id="Line"></path>
                        <path d="M24.6591573,5.12412549 C24.6591573,4.57184074 25.1068726,4.12412549 25.6591573,4.12412549 C26.211442,4.12412549 26.6591573,4.57184074 26.6591573,5.12412549 L26.6591573,10.4574588 C26.6591573,11.0097436 26.211442,11.4574588 25.6591573,11.4574588 C25.1068726,11.4574588 24.6591573,11.0097436 24.6591573,10.4574588 L24.6591573,5.12412549 Z" id="Line-Copy" transform="translate(25.659157, 7.790792) rotate(-31.000000) translate(-25.659157, -7.790792) "></path>
                        <path d="M30.1241255,-1.00750937 C30.1241255,-1.55979412 30.5718407,-2.00750937 31.1241255,-2.00750937 C31.6764102,-2.00750937 32.1241255,-1.55979412 32.1241255,-1.00750937 L32.1241255,4.32582397 C32.1241255,4.87810872 31.6764102,5.32582397 31.1241255,5.32582397 C30.5718407,5.32582397 30.1241255,4.87810872 30.1241255,4.32582397 L30.1241255,-1.00750937 Z" id="Line-Copy-2" transform="translate(31.124125, 1.659157) rotate(-59.000000) translate(-31.124125, -1.659157) "></path>
                        <path d="M7.32582397,5.12412549 C7.32582397,4.57184074 7.77353922,4.12412549 8.32582397,4.12412549 C8.87810872,4.12412549 9.32582397,4.57184074 9.32582397,5.12412549 L9.32582397,10.4574588 C9.32582397,11.0097436 8.87810872,11.4574588 8.32582397,11.4574588 C7.77353922,11.4574588 7.32582397,11.0097436 7.32582397,10.4574588 L7.32582397,5.12412549 Z" id="Line-Copy" transform="translate(8.325824, 7.790792) scale(-1, 1) rotate(-31.000000) translate(-8.325824, -7.790792) "></path>
                        <path d="M1.45745883,-1.00750937 C1.45745883,-1.55979412 1.90517408,-2.00750937 2.45745883,-2.00750937 C3.00974358,-2.00750937 3.45745883,-1.55979412 3.45745883,-1.00750937 L3.45745883,4.32582397 C3.45745883,4.87810872 3.00974358,5.32582397 2.45745883,5.32582397 C1.90517408,5.32582397 1.45745883,4.87810872 1.45745883,4.32582397 L1.45745883,-1.00750937 Z" id="Line-Copy-2" transform="translate(2.457459, 1.659157) scale(-1, 1) rotate(-59.000000) translate(-2.457459, -1.659157) "></path>
                    </g>
                    <path d="M25.6666667,1.66666667 C25.6666667,1.11438192 26.1143819,0.666666667 26.6666667,0.666666667 C27.2189514,0.666666667 27.6666667,1.11438192 27.6666667,1.66666667 L27.6666667,13.6666667 C27.6666667,14.2189514 27.2189514,14.6666667 26.6666667,14.6666667 C26.1143819,14.6666667 25.6666667,14.2189514 25.6666667,13.6666667 L25.6666667,1.66666667 Z" id="Path"></path>
                    <path d="M54,40 C52.6417484,40 1.35072325,39.9966227 0,40 C1.82615513e-15,25.6405965 12.0883118,14 27,14 C41.9116882,14 54,25.6405965 54,40 Z M39.6965889,37.9992495 C43.2730213,37.9994205 48.893689,37.9997241 51.914338,37.9998878 C50.8559345,25.6951695 40.1203635,16 27,16 C13.8799098,16 3.14451284,25.6947655 2.08572815,37.9991187 C5.87569047,37.9984169 14.5961133,37.9983357 27.0002173,37.9987336 C31.0038422,37.998862 35.2469429,37.9990368 39.6965889,37.9992495 Z" id="Combined-Shape"></path>
                    <path d="M27,40 C22.6784162,40 19.017459,43.412091 18.1798525,47.9994185 C20.0553726,47.9992632 23.072293,47.9992728 27.0001351,47.9994155 C29.6805718,47.9995237 29.6805718,47.9995237 32.1727537,47.9996536 C34.2875424,47.9997728 34.4615788,47.9997826 35.8202294,47.9998671 C34.9827796,43.4123135 31.3217246,40 27,40 Z M38,50 C37.4466382,50 16.5502947,49.9984412 16,50 C16,43.372583 20.9248678,38 27,38 C33.0751322,38 38,43.372583 38,50 Z" id="Oval-Copy-8" transform="translate(27.000000, 44.000000) scale(1, -1) translate(-27.000000, -44.000000) "></path>
                </g>
            </g>
        </g>
    </g>
</svg>