<?xml version="1.0" encoding="UTF-8"?>
<svg width="16px" height="16px" viewBox="0 0 16 16" version="1.1" xmlns="http://www.w3.org/2000/svg" xmlns:xlink="http://www.w3.org/1999/xlink">
    <!-- Generator: Sketch 49.3 (51167) - http://www.bohemiancoding.com/sketch -->
    <title>Australia</title>
    <desc>Created with Sketch.</desc>
    <defs>
        <circle id="path-1" cx="7" cy="7" r="7"></circle>
    </defs>
    <g id="Global-Shipping-Free" stroke="none" stroke-width="1" fill="none" fill-rule="evenodd">
        <g id="W_Shop_Detail_global-shipping0-free_mobile" transform="translate(-20.000000, -848.000000)">
            <g id="Group-31" transform="translate(21.000000, 846.000000)">
                <g id="Australia" transform="translate(0.000000, 3.000000)">
                    <mask id="mask-2" fill="white">
                        <use xlink:href="#path-1"></use>
                    </mask>
                    <g id="Mask">
                        <use fill="#00008B" fill-rule="evenodd" xlink:href="#path-1"></use>
                        <circle stroke="#AAAAAA" stroke-width="0.2" cx="7" cy="7" r="7.1"></circle>
                    </g>
                    <g id="Flag_of_Australia" mask="url(#mask-2)">
                        <g transform="translate(-5.000000, 1.000000)">
                            <polygon id="Shape" fill="#00008B" fill-rule="nonzero" points="0 0 23 0 23 11.5 0 11.5"></polygon>
                            <g id="Commonwealth_Star" stroke-width="1" fill="none" fill-rule="evenodd" transform="translate(4.025000, 6.900000)">
                                <polygon id="Star7" fill="#FFFFFF" fill-rule="nonzero" points="2.3 0 2.74352561 1.0342572 4.0982124 0.649480095 3.29659296 1.55440062 4.5423342 2.10884861 3.09920551 2.20300885 3.29793261 3.2791713 2.3 2.49166667 1.30206739 3.2791713 1.50079449 2.20300885 0.0576658044 2.10884861 1.30340704 1.55440062 0.501787601 0.649480095 1.85647439 1.0342572"></polygon>
                            </g>
                            <g id="Star_Alpha_Crucis" stroke-width="1" fill="none" fill-rule="evenodd" transform="translate(16.428571, 8.761905)">
                                <polygon id="Star7" fill="#FFFFFF" fill-rule="nonzero" points="2.3 0 2.74352561 0.689504797 4.0982124 0.43298673 3.29659296 1.03626708 4.5423342 1.40589907 3.09920551 1.46867256 3.29793261 2.1861142 2.3 1.66111111 1.30206739 2.1861142 1.50079449 1.46867256 0.0576658044 1.40589907 1.30340704 1.03626708 0.501787601 0.43298673 1.85647439 0.689504797"></polygon>
                            </g>
                            <g id="Star_Beta_Crucis" stroke-width="1" fill="none" fill-rule="evenodd" transform="translate(13.553571, 4.209821)">
                                <polygon id="Star7" fill="#FFFFFF" fill-rule="nonzero" points="2.3 0 2.74352561 0.689504797 4.0982124 0.43298673 3.29659296 1.03626708 4.5423342 1.40589907 3.09920551 1.46867256 3.29793261 2.1861142 2.3 1.66111111 1.30206739 2.1861142 1.50079449 1.46867256 0.0576658044 1.40589907 1.30340704 1.03626708 0.501787601 0.43298673 1.85647439 0.689504797"></polygon>
                            </g>
                            <g id="Star_Gamma_Crucis" stroke-width="1" fill="none" fill-rule="evenodd" transform="translate(16.428571, 1.095238)">
                                <polygon id="Star7" fill="#FFFFFF" fill-rule="nonzero" points="2.3 0 2.74352561 0.689504797 4.0982124 0.43298673 3.29659296 1.03626708 4.5423342 1.40589907 3.09920551 1.46867256 3.29793261 2.1861142 2.3 1.66111111 1.30206739 2.1861142 1.50079449 1.46867256 0.0576658044 1.40589907 1.30340704 1.03626708 0.501787601 0.43298673 1.85647439 0.689504797"></polygon>
                            </g>
                            <g id="Star_Delta_Crucis" stroke-width="1" fill="none" fill-rule="evenodd" transform="translate(18.984127, 3.443155)">
                                <polygon id="Star7" fill="#FFFFFF" fill-rule="nonzero" points="2.3 0 2.74352561 0.689504797 4.0982124 0.43298673 3.29659296 1.03626708 4.5423342 1.40589907 3.09920551 1.46867256 3.29793261 2.1861142 2.3 1.66111111 1.30206739 2.1861142 1.50079449 1.46867256 0.0576658044 1.40589907 1.30340704 1.03626708 0.501787601 0.43298673 1.85647439 0.689504797"></polygon>
                            </g>
                            <g id="Star_Epsilon_Crucis" stroke-width="1" fill="none" fill-rule="evenodd" transform="translate(17.920833, 5.750000)">
                                <polygon id="Star5" fill="#FFFFFF" fill-rule="nonzero" points="2.3 0 2.90084714 0.779826094 4.48742998 0.841373431 3.27219111 1.38487979 3.65190609 2.20274422 2.3 1.75882353 0.948093912 2.20274422 1.32780889 1.38487979 0.112570024 0.841373431 1.69915286 0.779826094"></polygon>
                            </g>
                            <polygon id="White_Cross" fill="#FFFFFF" fill-rule="nonzero" points="4.79166667 0 6.70833333 0 6.70833333 1.91666667 11.5 1.91666667 11.5 3.83333333 6.70833333 3.83333333 6.70833333 5.75 4.79166667 5.75 4.79166667 3.83333333 0 3.83333333 0 1.91666667 4.79166667 1.91666667"></polygon>
                            <polygon id="White_Diagonal" fill="#FFFFFF" fill-rule="nonzero" points="0 0 1.28573909 0 11.5 5.10713045 11.5 5.75 10.2142612 5.75 0 0.642869547"></polygon>
                            <g id="White_Diagonal_Flipped" stroke-width="1" fill="none" fill-rule="evenodd" transform="translate(5.750000, 2.875000) scale(-1, 1) translate(-5.750000, -2.875000) ">
                                <polygon id="White_Diagonal" fill="#FFFFFF" fill-rule="nonzero" points="0 0 1.28573909 0 11.5 5.10713045 11.5 5.75 10.2142612 5.75 0 0.642869547"></polygon>
                            </g>
                            <polygon id="Red_Cross" fill="#FF0000" fill-rule="nonzero" points="5.175 0 6.325 0 6.325 2.3 11.5 2.3 11.5 3.45 6.325 3.45 6.325 5.75 5.175 5.75 5.175 3.45 0 3.45 0 2.3 5.175 2.3"></polygon>
                            <path d="M0,0 L3.83333333,2.3 L2.97617391,2.3 L0,0.514295635 L0,0 Z M11.5,0 L10.6428408,0 L6.80950725,2.3 L7.66666667,2.3 L11.5,0 Z" id="Red_Diagonals" fill="#FF0000" fill-rule="nonzero"></path>
                            <g id="Red_Diagonals_Rotated" stroke-width="1" fill="none" fill-rule="evenodd" transform="translate(5.750000, 4.983333) rotate(-180.000000) translate(-5.750000, -4.983333) translate(0.000000, 3.833333)">
                                <path d="M0,0 L3.83333333,2.3 L2.97617391,2.3 L0,0.514295635 L0,0 Z M11.5,0 L10.6428408,0 L6.80950725,2.3 L7.66666667,2.3 L11.5,0 Z" id="Red_Diagonals" fill="#FF0000" fill-rule="nonzero"></path>
                            </g>
                        </g>
                    </g>
                </g>
            </g>
        </g>
    </g>
</svg>